%TF.GenerationSoftware,KiCad,Pcbnew,6.0.4-6f826c9f35~116~ubuntu20.04.1*%
%TF.CreationDate,2022-04-07T06:29:18+07:00*%
%TF.ProjectId,Colorlight2QMTech,436f6c6f-726c-4696-9768-7432514d5465,rev?*%
%TF.SameCoordinates,Original*%
%TF.FileFunction,Soldermask,Bot*%
%TF.FilePolarity,Negative*%
%FSLAX46Y46*%
G04 Gerber Fmt 4.6, Leading zero omitted, Abs format (unit mm)*
G04 Created by KiCad (PCBNEW 6.0.4-6f826c9f35~116~ubuntu20.04.1) date 2022-04-07 06:29:18*
%MOMM*%
%LPD*%
G01*
G04 APERTURE LIST*
G04 Aperture macros list*
%AMRoundRect*
0 Rectangle with rounded corners*
0 $1 Rounding radius*
0 $2 $3 $4 $5 $6 $7 $8 $9 X,Y pos of 4 corners*
0 Add a 4 corners polygon primitive as box body*
4,1,4,$2,$3,$4,$5,$6,$7,$8,$9,$2,$3,0*
0 Add four circle primitives for the rounded corners*
1,1,$1+$1,$2,$3*
1,1,$1+$1,$4,$5*
1,1,$1+$1,$6,$7*
1,1,$1+$1,$8,$9*
0 Add four rect primitives between the rounded corners*
20,1,$1+$1,$2,$3,$4,$5,0*
20,1,$1+$1,$4,$5,$6,$7,0*
20,1,$1+$1,$6,$7,$8,$9,0*
20,1,$1+$1,$8,$9,$2,$3,0*%
G04 Aperture macros list end*
%ADD10RoundRect,0.200000X-0.850000X-0.850000X0.850000X-0.850000X0.850000X0.850000X-0.850000X0.850000X0*%
%ADD11O,2.100000X2.100000*%
%ADD12C,2.400000*%
%ADD13C,1.150000*%
%ADD14O,1.600000X2.400000*%
%ADD15O,1.600000X2.200000*%
G04 APERTURE END LIST*
D10*
%TO.C,J1*%
X95250000Y-42164000D03*
D11*
X97790000Y-42164000D03*
X95250000Y-44704000D03*
X97790000Y-44704000D03*
X95250000Y-47244000D03*
X97790000Y-47244000D03*
X95250000Y-49784000D03*
X97790000Y-49784000D03*
X95250000Y-52324000D03*
X97790000Y-52324000D03*
X95250000Y-54864000D03*
X97790000Y-54864000D03*
X95250000Y-57404000D03*
X97790000Y-57404000D03*
X95250000Y-59944000D03*
X97790000Y-59944000D03*
X95250000Y-62484000D03*
X97790000Y-62484000D03*
X95250000Y-65024000D03*
X97790000Y-65024000D03*
X95250000Y-67564000D03*
X97790000Y-67564000D03*
X95250000Y-70104000D03*
X97790000Y-70104000D03*
X95250000Y-72644000D03*
X97790000Y-72644000D03*
X95250000Y-75184000D03*
X97790000Y-75184000D03*
X95250000Y-77724000D03*
X97790000Y-77724000D03*
X95250000Y-80264000D03*
X97790000Y-80264000D03*
X95250000Y-82804000D03*
X97790000Y-82804000D03*
X95250000Y-85344000D03*
X97790000Y-85344000D03*
X95250000Y-87884000D03*
X97790000Y-87884000D03*
X95250000Y-90424000D03*
X97790000Y-90424000D03*
X95250000Y-92964000D03*
X97790000Y-92964000D03*
X95250000Y-95504000D03*
X97790000Y-95504000D03*
X95250000Y-98044000D03*
X97790000Y-98044000D03*
X95250000Y-100584000D03*
X97790000Y-100584000D03*
X95250000Y-103124000D03*
X97790000Y-103124000D03*
X95250000Y-105664000D03*
X97790000Y-105664000D03*
X95250000Y-108204000D03*
X97790000Y-108204000D03*
X95250000Y-110744000D03*
X97790000Y-110744000D03*
X95250000Y-113284000D03*
X97790000Y-113284000D03*
X95250000Y-115824000D03*
X97790000Y-115824000D03*
X95250000Y-118364000D03*
X97790000Y-118364000D03*
X95250000Y-120904000D03*
X97790000Y-120904000D03*
%TD*%
D12*
%TO.C,CN1*%
X118422500Y-115128000D03*
X118422500Y-48328000D03*
%TD*%
D10*
%TO.C,J2*%
X156210000Y-42164000D03*
D11*
X158750000Y-42164000D03*
X156210000Y-44704000D03*
X158750000Y-44704000D03*
X156210000Y-47244000D03*
X158750000Y-47244000D03*
X156210000Y-49784000D03*
X158750000Y-49784000D03*
X156210000Y-52324000D03*
X158750000Y-52324000D03*
X156210000Y-54864000D03*
X158750000Y-54864000D03*
X156210000Y-57404000D03*
X158750000Y-57404000D03*
X156210000Y-59944000D03*
X158750000Y-59944000D03*
X156210000Y-62484000D03*
X158750000Y-62484000D03*
X156210000Y-65024000D03*
X158750000Y-65024000D03*
X156210000Y-67564000D03*
X158750000Y-67564000D03*
X156210000Y-70104000D03*
X158750000Y-70104000D03*
X156210000Y-72644000D03*
X158750000Y-72644000D03*
X156210000Y-75184000D03*
X158750000Y-75184000D03*
X156210000Y-77724000D03*
X158750000Y-77724000D03*
X156210000Y-80264000D03*
X158750000Y-80264000D03*
X156210000Y-82804000D03*
X158750000Y-82804000D03*
X156210000Y-85344000D03*
X158750000Y-85344000D03*
X156210000Y-87884000D03*
X158750000Y-87884000D03*
X156210000Y-90424000D03*
X158750000Y-90424000D03*
X156210000Y-92964000D03*
X158750000Y-92964000D03*
X156210000Y-95504000D03*
X158750000Y-95504000D03*
X156210000Y-98044000D03*
X158750000Y-98044000D03*
X156210000Y-100584000D03*
X158750000Y-100584000D03*
X156210000Y-103124000D03*
X158750000Y-103124000D03*
X156210000Y-105664000D03*
X158750000Y-105664000D03*
X156210000Y-108204000D03*
X158750000Y-108204000D03*
X156210000Y-110744000D03*
X158750000Y-110744000D03*
X156210000Y-113284000D03*
X158750000Y-113284000D03*
X156210000Y-115824000D03*
X158750000Y-115824000D03*
X156210000Y-118364000D03*
X158750000Y-118364000D03*
X156210000Y-120904000D03*
X158750000Y-120904000D03*
%TD*%
D10*
%TO.C,J4-GND1*%
X150114000Y-47498000D03*
%TD*%
D13*
%TO.C,J3*%
X110819000Y-121200000D03*
X105019000Y-121200000D03*
D14*
X112249000Y-120700000D03*
D15*
X112249000Y-124900000D03*
X103589000Y-124900000D03*
D14*
X103589000Y-120700000D03*
%TD*%
M02*
