%TF.GenerationSoftware,KiCad,Pcbnew,6.0.6-3a73a75311~116~ubuntu20.04.1*%
%TF.CreationDate,2022-07-23T11:11:57+07:00*%
%TF.ProjectId,Colorlight2QMTech,436f6c6f-726c-4696-9768-7432514d5465,rev?*%
%TF.SameCoordinates,Original*%
%TF.FileFunction,Legend,Top*%
%TF.FilePolarity,Positive*%
%FSLAX46Y46*%
G04 Gerber Fmt 4.6, Leading zero omitted, Abs format (unit mm)*
G04 Created by KiCad (PCBNEW 6.0.6-3a73a75311~116~ubuntu20.04.1) date 2022-07-23 11:11:57*
%MOMM*%
%LPD*%
G01*
G04 APERTURE LIST*
%ADD10C,0.150000*%
%ADD11C,0.250000*%
%ADD12C,0.120000*%
%ADD13C,0.080000*%
G04 APERTURE END LIST*
D10*
X94259400Y-116814600D02*
X96266000Y-114808000D01*
X96799400Y-116814600D02*
X98806000Y-114808000D01*
X96774000Y-114808000D02*
X98806000Y-116840000D01*
X94234000Y-114808000D02*
X96266000Y-116840000D01*
X150395276Y-33421580D02*
X149919085Y-33421580D01*
X149919085Y-32421580D01*
X150728609Y-32897771D02*
X151061942Y-32897771D01*
X151204800Y-33421580D02*
X150728609Y-33421580D01*
X150728609Y-32421580D01*
X151204800Y-32421580D01*
X151633371Y-33421580D02*
X151633371Y-32421580D01*
X151871466Y-32421580D01*
X152014323Y-32469200D01*
X152109561Y-32564438D01*
X152157180Y-32659676D01*
X152204800Y-32850152D01*
X152204800Y-32993009D01*
X152157180Y-33183485D01*
X152109561Y-33278723D01*
X152014323Y-33373961D01*
X151871466Y-33421580D01*
X151633371Y-33421580D01*
X152395276Y-33516819D02*
X153157180Y-33516819D01*
X153585752Y-32945390D02*
X153585752Y-33421580D01*
X153252419Y-32421580D02*
X153585752Y-32945390D01*
X153919085Y-32421580D01*
X154014323Y-33516819D02*
X154776228Y-33516819D01*
X155538133Y-33421580D02*
X154966704Y-33421580D01*
X155252419Y-33421580D02*
X155252419Y-32421580D01*
X155157180Y-32564438D01*
X155061942Y-32659676D01*
X154966704Y-32707295D01*
X151913095Y-46775000D02*
X151817857Y-46727380D01*
X151675000Y-46727380D01*
X151532142Y-46775000D01*
X151436904Y-46870238D01*
X151389285Y-46965476D01*
X151341666Y-47155952D01*
X151341666Y-47298809D01*
X151389285Y-47489285D01*
X151436904Y-47584523D01*
X151532142Y-47679761D01*
X151675000Y-47727380D01*
X151770238Y-47727380D01*
X151913095Y-47679761D01*
X151960714Y-47632142D01*
X151960714Y-47298809D01*
X151770238Y-47298809D01*
X152389285Y-47727380D02*
X152389285Y-46727380D01*
X152960714Y-47727380D01*
X152960714Y-46727380D01*
X153436904Y-47727380D02*
X153436904Y-46727380D01*
X153675000Y-46727380D01*
X153817857Y-46775000D01*
X153913095Y-46870238D01*
X153960714Y-46965476D01*
X154008333Y-47155952D01*
X154008333Y-47298809D01*
X153960714Y-47489285D01*
X153913095Y-47584523D01*
X153817857Y-47679761D01*
X153675000Y-47727380D01*
X153436904Y-47727380D01*
X135033238Y-122075380D02*
X135033238Y-121075380D01*
X135033238Y-121551571D02*
X135604666Y-121551571D01*
X135604666Y-122075380D02*
X135604666Y-121075380D01*
X136509428Y-122075380D02*
X136509428Y-121551571D01*
X136461809Y-121456333D01*
X136366571Y-121408714D01*
X136176095Y-121408714D01*
X136080857Y-121456333D01*
X136509428Y-122027761D02*
X136414190Y-122075380D01*
X136176095Y-122075380D01*
X136080857Y-122027761D01*
X136033238Y-121932523D01*
X136033238Y-121837285D01*
X136080857Y-121742047D01*
X136176095Y-121694428D01*
X136414190Y-121694428D01*
X136509428Y-121646809D01*
X136985619Y-121408714D02*
X136985619Y-122075380D01*
X136985619Y-121503952D02*
X137033238Y-121456333D01*
X137128476Y-121408714D01*
X137271333Y-121408714D01*
X137366571Y-121456333D01*
X137414190Y-121551571D01*
X137414190Y-122075380D01*
X137842761Y-122027761D02*
X137938000Y-122075380D01*
X138128476Y-122075380D01*
X138223714Y-122027761D01*
X138271333Y-121932523D01*
X138271333Y-121884904D01*
X138223714Y-121789666D01*
X138128476Y-121742047D01*
X137985619Y-121742047D01*
X137890380Y-121694428D01*
X137842761Y-121599190D01*
X137842761Y-121551571D01*
X137890380Y-121456333D01*
X137985619Y-121408714D01*
X138128476Y-121408714D01*
X138223714Y-121456333D01*
X139795142Y-121551571D02*
X139938000Y-121599190D01*
X139985619Y-121646809D01*
X140033238Y-121742047D01*
X140033238Y-121884904D01*
X139985619Y-121980142D01*
X139938000Y-122027761D01*
X139842761Y-122075380D01*
X139461809Y-122075380D01*
X139461809Y-121075380D01*
X139795142Y-121075380D01*
X139890380Y-121123000D01*
X139938000Y-121170619D01*
X139985619Y-121265857D01*
X139985619Y-121361095D01*
X139938000Y-121456333D01*
X139890380Y-121503952D01*
X139795142Y-121551571D01*
X139461809Y-121551571D01*
X140890380Y-122075380D02*
X140890380Y-121551571D01*
X140842761Y-121456333D01*
X140747523Y-121408714D01*
X140557047Y-121408714D01*
X140461809Y-121456333D01*
X140890380Y-122027761D02*
X140795142Y-122075380D01*
X140557047Y-122075380D01*
X140461809Y-122027761D01*
X140414190Y-121932523D01*
X140414190Y-121837285D01*
X140461809Y-121742047D01*
X140557047Y-121694428D01*
X140795142Y-121694428D01*
X140890380Y-121646809D01*
X141366571Y-122075380D02*
X141366571Y-121408714D01*
X141366571Y-121075380D02*
X141318952Y-121123000D01*
X141366571Y-121170619D01*
X141414190Y-121123000D01*
X141366571Y-121075380D01*
X141366571Y-121170619D01*
X142223714Y-122027761D02*
X142128476Y-122075380D01*
X141938000Y-122075380D01*
X141842761Y-122027761D01*
X141795142Y-121932523D01*
X141795142Y-121551571D01*
X141842761Y-121456333D01*
X141938000Y-121408714D01*
X142128476Y-121408714D01*
X142223714Y-121456333D01*
X142271333Y-121551571D01*
X142271333Y-121646809D01*
X141795142Y-121742047D01*
X142699904Y-122075380D02*
X142699904Y-121408714D01*
X142699904Y-121599190D02*
X142747523Y-121503952D01*
X142795142Y-121456333D01*
X142890380Y-121408714D01*
X142985619Y-121408714D01*
X134080857Y-122780619D02*
X134128476Y-122733000D01*
X134223714Y-122685380D01*
X134461809Y-122685380D01*
X134557047Y-122733000D01*
X134604666Y-122780619D01*
X134652285Y-122875857D01*
X134652285Y-122971095D01*
X134604666Y-123113952D01*
X134033238Y-123685380D01*
X134652285Y-123685380D01*
X135271333Y-122685380D02*
X135366571Y-122685380D01*
X135461809Y-122733000D01*
X135509428Y-122780619D01*
X135557047Y-122875857D01*
X135604666Y-123066333D01*
X135604666Y-123304428D01*
X135557047Y-123494904D01*
X135509428Y-123590142D01*
X135461809Y-123637761D01*
X135366571Y-123685380D01*
X135271333Y-123685380D01*
X135176095Y-123637761D01*
X135128476Y-123590142D01*
X135080857Y-123494904D01*
X135033238Y-123304428D01*
X135033238Y-123066333D01*
X135080857Y-122875857D01*
X135128476Y-122780619D01*
X135176095Y-122733000D01*
X135271333Y-122685380D01*
X135985619Y-122780619D02*
X136033238Y-122733000D01*
X136128476Y-122685380D01*
X136366571Y-122685380D01*
X136461809Y-122733000D01*
X136509428Y-122780619D01*
X136557047Y-122875857D01*
X136557047Y-122971095D01*
X136509428Y-123113952D01*
X135938000Y-123685380D01*
X136557047Y-123685380D01*
X136938000Y-122780619D02*
X136985619Y-122733000D01*
X137080857Y-122685380D01*
X137318952Y-122685380D01*
X137414190Y-122733000D01*
X137461809Y-122780619D01*
X137509428Y-122875857D01*
X137509428Y-122971095D01*
X137461809Y-123113952D01*
X136890380Y-123685380D01*
X137509428Y-123685380D01*
X137938000Y-123304428D02*
X138699904Y-123304428D01*
X139366571Y-122685380D02*
X139461809Y-122685380D01*
X139557047Y-122733000D01*
X139604666Y-122780619D01*
X139652285Y-122875857D01*
X139699904Y-123066333D01*
X139699904Y-123304428D01*
X139652285Y-123494904D01*
X139604666Y-123590142D01*
X139557047Y-123637761D01*
X139461809Y-123685380D01*
X139366571Y-123685380D01*
X139271333Y-123637761D01*
X139223714Y-123590142D01*
X139176095Y-123494904D01*
X139128476Y-123304428D01*
X139128476Y-123066333D01*
X139176095Y-122875857D01*
X139223714Y-122780619D01*
X139271333Y-122733000D01*
X139366571Y-122685380D01*
X140033238Y-122685380D02*
X140699904Y-122685380D01*
X140271333Y-123685380D01*
X141080857Y-123304428D02*
X141842761Y-123304428D01*
X142271333Y-122780619D02*
X142318952Y-122733000D01*
X142414190Y-122685380D01*
X142652285Y-122685380D01*
X142747523Y-122733000D01*
X142795142Y-122780619D01*
X142842761Y-122875857D01*
X142842761Y-122971095D01*
X142795142Y-123113952D01*
X142223714Y-123685380D01*
X142842761Y-123685380D01*
X143176095Y-122685380D02*
X143795142Y-122685380D01*
X143461809Y-123066333D01*
X143604666Y-123066333D01*
X143699904Y-123113952D01*
X143747523Y-123161571D01*
X143795142Y-123256809D01*
X143795142Y-123494904D01*
X143747523Y-123590142D01*
X143699904Y-123637761D01*
X143604666Y-123685380D01*
X143318952Y-123685380D01*
X143223714Y-123637761D01*
X143176095Y-123590142D01*
X99758761Y-77416219D02*
X99806380Y-77368600D01*
X99901619Y-77320980D01*
X100139714Y-77320980D01*
X100234952Y-77368600D01*
X100282571Y-77416219D01*
X100330190Y-77511457D01*
X100330190Y-77606695D01*
X100282571Y-77749552D01*
X99711142Y-78320980D01*
X100330190Y-78320980D01*
X100806380Y-78320980D02*
X100996857Y-78320980D01*
X101092095Y-78273361D01*
X101139714Y-78225742D01*
X101234952Y-78082885D01*
X101282571Y-77892409D01*
X101282571Y-77511457D01*
X101234952Y-77416219D01*
X101187333Y-77368600D01*
X101092095Y-77320980D01*
X100901619Y-77320980D01*
X100806380Y-77368600D01*
X100758761Y-77416219D01*
X100711142Y-77511457D01*
X100711142Y-77749552D01*
X100758761Y-77844790D01*
X100806380Y-77892409D01*
X100901619Y-77940028D01*
X101092095Y-77940028D01*
X101187333Y-77892409D01*
X101234952Y-77844790D01*
X101282571Y-77749552D01*
X102377809Y-77320980D02*
X102996857Y-77320980D01*
X102663523Y-77701933D01*
X102806380Y-77701933D01*
X102901619Y-77749552D01*
X102949238Y-77797171D01*
X102996857Y-77892409D01*
X102996857Y-78130504D01*
X102949238Y-78225742D01*
X102901619Y-78273361D01*
X102806380Y-78320980D01*
X102520666Y-78320980D01*
X102425428Y-78273361D01*
X102377809Y-78225742D01*
X103615904Y-77320980D02*
X103711142Y-77320980D01*
X103806380Y-77368600D01*
X103854000Y-77416219D01*
X103901619Y-77511457D01*
X103949238Y-77701933D01*
X103949238Y-77940028D01*
X103901619Y-78130504D01*
X103854000Y-78225742D01*
X103806380Y-78273361D01*
X103711142Y-78320980D01*
X103615904Y-78320980D01*
X103520666Y-78273361D01*
X103473047Y-78225742D01*
X103425428Y-78130504D01*
X103377809Y-77940028D01*
X103377809Y-77701933D01*
X103425428Y-77511457D01*
X103473047Y-77416219D01*
X103520666Y-77368600D01*
X103615904Y-77320980D01*
X125922857Y-121247142D02*
X125875238Y-121294761D01*
X125732380Y-121342380D01*
X125637142Y-121342380D01*
X125494285Y-121294761D01*
X125399047Y-121199523D01*
X125351428Y-121104285D01*
X125303809Y-120913809D01*
X125303809Y-120770952D01*
X125351428Y-120580476D01*
X125399047Y-120485238D01*
X125494285Y-120390000D01*
X125637142Y-120342380D01*
X125732380Y-120342380D01*
X125875238Y-120390000D01*
X125922857Y-120437619D01*
X126494285Y-121342380D02*
X126399047Y-121294761D01*
X126351428Y-121247142D01*
X126303809Y-121151904D01*
X126303809Y-120866190D01*
X126351428Y-120770952D01*
X126399047Y-120723333D01*
X126494285Y-120675714D01*
X126637142Y-120675714D01*
X126732380Y-120723333D01*
X126780000Y-120770952D01*
X126827619Y-120866190D01*
X126827619Y-121151904D01*
X126780000Y-121247142D01*
X126732380Y-121294761D01*
X126637142Y-121342380D01*
X126494285Y-121342380D01*
X127399047Y-121342380D02*
X127303809Y-121294761D01*
X127256190Y-121199523D01*
X127256190Y-120342380D01*
X127922857Y-121342380D02*
X127827619Y-121294761D01*
X127780000Y-121247142D01*
X127732380Y-121151904D01*
X127732380Y-120866190D01*
X127780000Y-120770952D01*
X127827619Y-120723333D01*
X127922857Y-120675714D01*
X128065714Y-120675714D01*
X128160952Y-120723333D01*
X128208571Y-120770952D01*
X128256190Y-120866190D01*
X128256190Y-121151904D01*
X128208571Y-121247142D01*
X128160952Y-121294761D01*
X128065714Y-121342380D01*
X127922857Y-121342380D01*
X128684761Y-121342380D02*
X128684761Y-120675714D01*
X128684761Y-120866190D02*
X128732380Y-120770952D01*
X128780000Y-120723333D01*
X128875238Y-120675714D01*
X128970476Y-120675714D01*
X129446666Y-121342380D02*
X129351428Y-121294761D01*
X129303809Y-121199523D01*
X129303809Y-120342380D01*
X129827619Y-121342380D02*
X129827619Y-120675714D01*
X129827619Y-120342380D02*
X129780000Y-120390000D01*
X129827619Y-120437619D01*
X129875238Y-120390000D01*
X129827619Y-120342380D01*
X129827619Y-120437619D01*
X130732380Y-120675714D02*
X130732380Y-121485238D01*
X130684761Y-121580476D01*
X130637142Y-121628095D01*
X130541904Y-121675714D01*
X130399047Y-121675714D01*
X130303809Y-121628095D01*
X130732380Y-121294761D02*
X130637142Y-121342380D01*
X130446666Y-121342380D01*
X130351428Y-121294761D01*
X130303809Y-121247142D01*
X130256190Y-121151904D01*
X130256190Y-120866190D01*
X130303809Y-120770952D01*
X130351428Y-120723333D01*
X130446666Y-120675714D01*
X130637142Y-120675714D01*
X130732380Y-120723333D01*
X131208571Y-121342380D02*
X131208571Y-120342380D01*
X131637142Y-121342380D02*
X131637142Y-120818571D01*
X131589523Y-120723333D01*
X131494285Y-120675714D01*
X131351428Y-120675714D01*
X131256190Y-120723333D01*
X131208571Y-120770952D01*
X131970476Y-120675714D02*
X132351428Y-120675714D01*
X132113333Y-120342380D02*
X132113333Y-121199523D01*
X132160952Y-121294761D01*
X132256190Y-121342380D01*
X132351428Y-121342380D01*
X128518095Y-122952380D02*
X129041904Y-122285714D01*
X128518095Y-122285714D02*
X129041904Y-122952380D01*
X126899047Y-124657619D02*
X126803809Y-124610000D01*
X126708571Y-124514761D01*
X126565714Y-124371904D01*
X126470476Y-124324285D01*
X126375238Y-124324285D01*
X126422857Y-124562380D02*
X126327619Y-124514761D01*
X126232380Y-124419523D01*
X126184761Y-124229047D01*
X126184761Y-123895714D01*
X126232380Y-123705238D01*
X126327619Y-123610000D01*
X126422857Y-123562380D01*
X126613333Y-123562380D01*
X126708571Y-123610000D01*
X126803809Y-123705238D01*
X126851428Y-123895714D01*
X126851428Y-124229047D01*
X126803809Y-124419523D01*
X126708571Y-124514761D01*
X126613333Y-124562380D01*
X126422857Y-124562380D01*
X127280000Y-124562380D02*
X127280000Y-123562380D01*
X127613333Y-124276666D01*
X127946666Y-123562380D01*
X127946666Y-124562380D01*
X128280000Y-123562380D02*
X128851428Y-123562380D01*
X128565714Y-124562380D02*
X128565714Y-123562380D01*
X129565714Y-124514761D02*
X129470476Y-124562380D01*
X129280000Y-124562380D01*
X129184761Y-124514761D01*
X129137142Y-124419523D01*
X129137142Y-124038571D01*
X129184761Y-123943333D01*
X129280000Y-123895714D01*
X129470476Y-123895714D01*
X129565714Y-123943333D01*
X129613333Y-124038571D01*
X129613333Y-124133809D01*
X129137142Y-124229047D01*
X130470476Y-124514761D02*
X130375238Y-124562380D01*
X130184761Y-124562380D01*
X130089523Y-124514761D01*
X130041904Y-124467142D01*
X129994285Y-124371904D01*
X129994285Y-124086190D01*
X130041904Y-123990952D01*
X130089523Y-123943333D01*
X130184761Y-123895714D01*
X130375238Y-123895714D01*
X130470476Y-123943333D01*
X130899047Y-124562380D02*
X130899047Y-123562380D01*
X131327619Y-124562380D02*
X131327619Y-124038571D01*
X131280000Y-123943333D01*
X131184761Y-123895714D01*
X131041904Y-123895714D01*
X130946666Y-123943333D01*
X130899047Y-123990952D01*
X150933352Y-102960514D02*
X150933352Y-103627180D01*
X150695257Y-102579561D02*
X150457161Y-103293847D01*
X151076209Y-103293847D01*
X151504780Y-103627180D02*
X151695257Y-103627180D01*
X151790495Y-103579561D01*
X151838114Y-103531942D01*
X151933352Y-103389085D01*
X151980971Y-103198609D01*
X151980971Y-102817657D01*
X151933352Y-102722419D01*
X151885733Y-102674800D01*
X151790495Y-102627180D01*
X151600019Y-102627180D01*
X151504780Y-102674800D01*
X151457161Y-102722419D01*
X151409542Y-102817657D01*
X151409542Y-103055752D01*
X151457161Y-103150990D01*
X151504780Y-103198609D01*
X151600019Y-103246228D01*
X151790495Y-103246228D01*
X151885733Y-103198609D01*
X151933352Y-103150990D01*
X151980971Y-103055752D01*
X153647638Y-102627180D02*
X153171447Y-102627180D01*
X153123828Y-103103371D01*
X153171447Y-103055752D01*
X153266685Y-103008133D01*
X153504780Y-103008133D01*
X153600019Y-103055752D01*
X153647638Y-103103371D01*
X153695257Y-103198609D01*
X153695257Y-103436704D01*
X153647638Y-103531942D01*
X153600019Y-103579561D01*
X153504780Y-103627180D01*
X153266685Y-103627180D01*
X153171447Y-103579561D01*
X153123828Y-103531942D01*
X154314304Y-102627180D02*
X154409542Y-102627180D01*
X154504780Y-102674800D01*
X154552400Y-102722419D01*
X154600019Y-102817657D01*
X154647638Y-103008133D01*
X154647638Y-103246228D01*
X154600019Y-103436704D01*
X154552400Y-103531942D01*
X154504780Y-103579561D01*
X154409542Y-103627180D01*
X154314304Y-103627180D01*
X154219066Y-103579561D01*
X154171447Y-103531942D01*
X154123828Y-103436704D01*
X154076209Y-103246228D01*
X154076209Y-103008133D01*
X154123828Y-102817657D01*
X154171447Y-102722419D01*
X154219066Y-102674800D01*
X154314304Y-102627180D01*
X150485742Y-89901780D02*
X151104790Y-89901780D01*
X150771457Y-90282733D01*
X150914314Y-90282733D01*
X151009552Y-90330352D01*
X151057171Y-90377971D01*
X151104790Y-90473209D01*
X151104790Y-90711304D01*
X151057171Y-90806542D01*
X151009552Y-90854161D01*
X150914314Y-90901780D01*
X150628600Y-90901780D01*
X150533361Y-90854161D01*
X150485742Y-90806542D01*
X151580980Y-90901780D02*
X151771457Y-90901780D01*
X151866695Y-90854161D01*
X151914314Y-90806542D01*
X152009552Y-90663685D01*
X152057171Y-90473209D01*
X152057171Y-90092257D01*
X152009552Y-89997019D01*
X151961933Y-89949400D01*
X151866695Y-89901780D01*
X151676219Y-89901780D01*
X151580980Y-89949400D01*
X151533361Y-89997019D01*
X151485742Y-90092257D01*
X151485742Y-90330352D01*
X151533361Y-90425590D01*
X151580980Y-90473209D01*
X151676219Y-90520828D01*
X151866695Y-90520828D01*
X151961933Y-90473209D01*
X152009552Y-90425590D01*
X152057171Y-90330352D01*
X153676219Y-90235114D02*
X153676219Y-90901780D01*
X153438123Y-89854161D02*
X153200028Y-90568447D01*
X153819076Y-90568447D01*
X154390504Y-89901780D02*
X154485742Y-89901780D01*
X154580980Y-89949400D01*
X154628600Y-89997019D01*
X154676219Y-90092257D01*
X154723838Y-90282733D01*
X154723838Y-90520828D01*
X154676219Y-90711304D01*
X154628600Y-90806542D01*
X154580980Y-90854161D01*
X154485742Y-90901780D01*
X154390504Y-90901780D01*
X154295266Y-90854161D01*
X154247647Y-90806542D01*
X154200028Y-90711304D01*
X154152409Y-90520828D01*
X154152409Y-90282733D01*
X154200028Y-90092257D01*
X154247647Y-89997019D01*
X154295266Y-89949400D01*
X154390504Y-89901780D01*
X157187923Y-122591580D02*
X156711733Y-122591580D01*
X156664114Y-123067771D01*
X156711733Y-123020152D01*
X156806971Y-122972533D01*
X157045066Y-122972533D01*
X157140304Y-123020152D01*
X157187923Y-123067771D01*
X157235542Y-123163009D01*
X157235542Y-123401104D01*
X157187923Y-123496342D01*
X157140304Y-123543961D01*
X157045066Y-123591580D01*
X156806971Y-123591580D01*
X156711733Y-123543961D01*
X156664114Y-123496342D01*
X157521257Y-122591580D02*
X157854590Y-123591580D01*
X158187923Y-122591580D01*
X150926990Y-52844780D02*
X151117466Y-52844780D01*
X151212704Y-52797161D01*
X151260323Y-52749542D01*
X151355561Y-52606685D01*
X151403180Y-52416209D01*
X151403180Y-52035257D01*
X151355561Y-51940019D01*
X151307942Y-51892400D01*
X151212704Y-51844780D01*
X151022228Y-51844780D01*
X150926990Y-51892400D01*
X150879371Y-51940019D01*
X150831752Y-52035257D01*
X150831752Y-52273352D01*
X150879371Y-52368590D01*
X150926990Y-52416209D01*
X151022228Y-52463828D01*
X151212704Y-52463828D01*
X151307942Y-52416209D01*
X151355561Y-52368590D01*
X151403180Y-52273352D01*
X153117466Y-52844780D02*
X152546038Y-52844780D01*
X152831752Y-52844780D02*
X152831752Y-51844780D01*
X152736514Y-51987638D01*
X152641276Y-52082876D01*
X152546038Y-52130495D01*
X153736514Y-51844780D02*
X153831752Y-51844780D01*
X153926990Y-51892400D01*
X153974609Y-51940019D01*
X154022228Y-52035257D01*
X154069847Y-52225733D01*
X154069847Y-52463828D01*
X154022228Y-52654304D01*
X153974609Y-52749542D01*
X153926990Y-52797161D01*
X153831752Y-52844780D01*
X153736514Y-52844780D01*
X153641276Y-52797161D01*
X153593657Y-52749542D01*
X153546038Y-52654304D01*
X153498419Y-52463828D01*
X153498419Y-52225733D01*
X153546038Y-52035257D01*
X153593657Y-51940019D01*
X153641276Y-51892400D01*
X153736514Y-51844780D01*
X150298447Y-31059380D02*
X149822257Y-31059380D01*
X149822257Y-30059380D01*
X150631780Y-30535571D02*
X150965114Y-30535571D01*
X151107971Y-31059380D02*
X150631780Y-31059380D01*
X150631780Y-30059380D01*
X151107971Y-30059380D01*
X151536542Y-31059380D02*
X151536542Y-30059380D01*
X151774638Y-30059380D01*
X151917495Y-30107000D01*
X152012733Y-30202238D01*
X152060352Y-30297476D01*
X152107971Y-30487952D01*
X152107971Y-30630809D01*
X152060352Y-30821285D01*
X152012733Y-30916523D01*
X151917495Y-31011761D01*
X151774638Y-31059380D01*
X151536542Y-31059380D01*
X152298447Y-31154619D02*
X153060352Y-31154619D01*
X153822257Y-30107000D02*
X153727019Y-30059380D01*
X153584161Y-30059380D01*
X153441304Y-30107000D01*
X153346066Y-30202238D01*
X153298447Y-30297476D01*
X153250828Y-30487952D01*
X153250828Y-30630809D01*
X153298447Y-30821285D01*
X153346066Y-30916523D01*
X153441304Y-31011761D01*
X153584161Y-31059380D01*
X153679400Y-31059380D01*
X153822257Y-31011761D01*
X153869876Y-30964142D01*
X153869876Y-30630809D01*
X153679400Y-30630809D01*
X154060352Y-31154619D02*
X154822257Y-31154619D01*
X155584161Y-31059380D02*
X155012733Y-31059380D01*
X155298447Y-31059380D02*
X155298447Y-30059380D01*
X155203209Y-30202238D01*
X155107971Y-30297476D01*
X155012733Y-30345095D01*
X100158752Y-103062114D02*
X100158752Y-103728780D01*
X99920657Y-102681161D02*
X99682561Y-103395447D01*
X100301609Y-103395447D01*
X100730180Y-103728780D02*
X100920657Y-103728780D01*
X101015895Y-103681161D01*
X101063514Y-103633542D01*
X101158752Y-103490685D01*
X101206371Y-103300209D01*
X101206371Y-102919257D01*
X101158752Y-102824019D01*
X101111133Y-102776400D01*
X101015895Y-102728780D01*
X100825419Y-102728780D01*
X100730180Y-102776400D01*
X100682561Y-102824019D01*
X100634942Y-102919257D01*
X100634942Y-103157352D01*
X100682561Y-103252590D01*
X100730180Y-103300209D01*
X100825419Y-103347828D01*
X101015895Y-103347828D01*
X101111133Y-103300209D01*
X101158752Y-103252590D01*
X101206371Y-103157352D01*
X102873038Y-102728780D02*
X102396847Y-102728780D01*
X102349228Y-103204971D01*
X102396847Y-103157352D01*
X102492085Y-103109733D01*
X102730180Y-103109733D01*
X102825419Y-103157352D01*
X102873038Y-103204971D01*
X102920657Y-103300209D01*
X102920657Y-103538304D01*
X102873038Y-103633542D01*
X102825419Y-103681161D01*
X102730180Y-103728780D01*
X102492085Y-103728780D01*
X102396847Y-103681161D01*
X102349228Y-103633542D01*
X103539704Y-102728780D02*
X103634942Y-102728780D01*
X103730180Y-102776400D01*
X103777800Y-102824019D01*
X103825419Y-102919257D01*
X103873038Y-103109733D01*
X103873038Y-103347828D01*
X103825419Y-103538304D01*
X103777800Y-103633542D01*
X103730180Y-103681161D01*
X103634942Y-103728780D01*
X103539704Y-103728780D01*
X103444466Y-103681161D01*
X103396847Y-103633542D01*
X103349228Y-103538304D01*
X103301609Y-103347828D01*
X103301609Y-103109733D01*
X103349228Y-102919257D01*
X103396847Y-102824019D01*
X103444466Y-102776400D01*
X103539704Y-102728780D01*
X99828504Y-44207180D02*
X100447552Y-44207180D01*
X100114219Y-44588133D01*
X100257076Y-44588133D01*
X100352314Y-44635752D01*
X100399933Y-44683371D01*
X100447552Y-44778609D01*
X100447552Y-45016704D01*
X100399933Y-45111942D01*
X100352314Y-45159561D01*
X100257076Y-45207180D01*
X99971361Y-45207180D01*
X99876123Y-45159561D01*
X99828504Y-45111942D01*
X100733266Y-44207180D02*
X101066600Y-45207180D01*
X101399933Y-44207180D01*
X101638028Y-44207180D02*
X102257076Y-44207180D01*
X101923742Y-44588133D01*
X102066600Y-44588133D01*
X102161838Y-44635752D01*
X102209457Y-44683371D01*
X102257076Y-44778609D01*
X102257076Y-45016704D01*
X102209457Y-45111942D01*
X102161838Y-45159561D01*
X102066600Y-45207180D01*
X101780885Y-45207180D01*
X101685647Y-45159561D01*
X101638028Y-45111942D01*
X150319076Y-38603180D02*
X149842885Y-38603180D01*
X149842885Y-37603180D01*
X150652409Y-38079371D02*
X150985742Y-38079371D01*
X151128600Y-38603180D02*
X150652409Y-38603180D01*
X150652409Y-37603180D01*
X151128600Y-37603180D01*
X151557171Y-38603180D02*
X151557171Y-37603180D01*
X151795266Y-37603180D01*
X151938123Y-37650800D01*
X152033361Y-37746038D01*
X152080980Y-37841276D01*
X152128600Y-38031752D01*
X152128600Y-38174609D01*
X152080980Y-38365085D01*
X152033361Y-38460323D01*
X151938123Y-38555561D01*
X151795266Y-38603180D01*
X151557171Y-38603180D01*
X152319076Y-38698419D02*
X153080980Y-38698419D01*
X153509552Y-38126990D02*
X153509552Y-38603180D01*
X153176219Y-37603180D02*
X153509552Y-38126990D01*
X153842885Y-37603180D01*
X153938123Y-38698419D02*
X154700028Y-38698419D01*
X154890504Y-37698419D02*
X154938123Y-37650800D01*
X155033361Y-37603180D01*
X155271457Y-37603180D01*
X155366695Y-37650800D01*
X155414314Y-37698419D01*
X155461933Y-37793657D01*
X155461933Y-37888895D01*
X155414314Y-38031752D01*
X154842885Y-38603180D01*
X155461933Y-38603180D01*
X100053971Y-49236380D02*
X100720638Y-49236380D01*
X100292066Y-50236380D01*
X102768257Y-49664952D02*
X102673019Y-49617333D01*
X102625400Y-49569714D01*
X102577780Y-49474476D01*
X102577780Y-49426857D01*
X102625400Y-49331619D01*
X102673019Y-49284000D01*
X102768257Y-49236380D01*
X102958733Y-49236380D01*
X103053971Y-49284000D01*
X103101590Y-49331619D01*
X103149209Y-49426857D01*
X103149209Y-49474476D01*
X103101590Y-49569714D01*
X103053971Y-49617333D01*
X102958733Y-49664952D01*
X102768257Y-49664952D01*
X102673019Y-49712571D01*
X102625400Y-49760190D01*
X102577780Y-49855428D01*
X102577780Y-50045904D01*
X102625400Y-50141142D01*
X102673019Y-50188761D01*
X102768257Y-50236380D01*
X102958733Y-50236380D01*
X103053971Y-50188761D01*
X103101590Y-50141142D01*
X103149209Y-50045904D01*
X103149209Y-49855428D01*
X103101590Y-49760190D01*
X103053971Y-49712571D01*
X102958733Y-49664952D01*
X96456523Y-122616980D02*
X95980333Y-122616980D01*
X95932714Y-123093171D01*
X95980333Y-123045552D01*
X96075571Y-122997933D01*
X96313666Y-122997933D01*
X96408904Y-123045552D01*
X96456523Y-123093171D01*
X96504142Y-123188409D01*
X96504142Y-123426504D01*
X96456523Y-123521742D01*
X96408904Y-123569361D01*
X96313666Y-123616980D01*
X96075571Y-123616980D01*
X95980333Y-123569361D01*
X95932714Y-123521742D01*
X96789857Y-122616980D02*
X97123190Y-123616980D01*
X97456523Y-122616980D01*
X150533361Y-77314619D02*
X150580980Y-77267000D01*
X150676219Y-77219380D01*
X150914314Y-77219380D01*
X151009552Y-77267000D01*
X151057171Y-77314619D01*
X151104790Y-77409857D01*
X151104790Y-77505095D01*
X151057171Y-77647952D01*
X150485742Y-78219380D01*
X151104790Y-78219380D01*
X151580980Y-78219380D02*
X151771457Y-78219380D01*
X151866695Y-78171761D01*
X151914314Y-78124142D01*
X152009552Y-77981285D01*
X152057171Y-77790809D01*
X152057171Y-77409857D01*
X152009552Y-77314619D01*
X151961933Y-77267000D01*
X151866695Y-77219380D01*
X151676219Y-77219380D01*
X151580980Y-77267000D01*
X151533361Y-77314619D01*
X151485742Y-77409857D01*
X151485742Y-77647952D01*
X151533361Y-77743190D01*
X151580980Y-77790809D01*
X151676219Y-77838428D01*
X151866695Y-77838428D01*
X151961933Y-77790809D01*
X152009552Y-77743190D01*
X152057171Y-77647952D01*
X153152409Y-77219380D02*
X153771457Y-77219380D01*
X153438123Y-77600333D01*
X153580980Y-77600333D01*
X153676219Y-77647952D01*
X153723838Y-77695571D01*
X153771457Y-77790809D01*
X153771457Y-78028904D01*
X153723838Y-78124142D01*
X153676219Y-78171761D01*
X153580980Y-78219380D01*
X153295266Y-78219380D01*
X153200028Y-78171761D01*
X153152409Y-78124142D01*
X154390504Y-77219380D02*
X154485742Y-77219380D01*
X154580980Y-77267000D01*
X154628600Y-77314619D01*
X154676219Y-77409857D01*
X154723838Y-77600333D01*
X154723838Y-77838428D01*
X154676219Y-78028904D01*
X154628600Y-78124142D01*
X154580980Y-78171761D01*
X154485742Y-78219380D01*
X154390504Y-78219380D01*
X154295266Y-78171761D01*
X154247647Y-78124142D01*
X154200028Y-78028904D01*
X154152409Y-77838428D01*
X154152409Y-77600333D01*
X154200028Y-77409857D01*
X154247647Y-77314619D01*
X154295266Y-77267000D01*
X154390504Y-77219380D01*
X150828571Y-49134780D02*
X151495238Y-49134780D01*
X151066666Y-50134780D01*
X153542857Y-49563352D02*
X153447619Y-49515733D01*
X153400000Y-49468114D01*
X153352380Y-49372876D01*
X153352380Y-49325257D01*
X153400000Y-49230019D01*
X153447619Y-49182400D01*
X153542857Y-49134780D01*
X153733333Y-49134780D01*
X153828571Y-49182400D01*
X153876190Y-49230019D01*
X153923809Y-49325257D01*
X153923809Y-49372876D01*
X153876190Y-49468114D01*
X153828571Y-49515733D01*
X153733333Y-49563352D01*
X153542857Y-49563352D01*
X153447619Y-49610971D01*
X153400000Y-49658590D01*
X153352380Y-49753828D01*
X153352380Y-49944304D01*
X153400000Y-50039542D01*
X153447619Y-50087161D01*
X153542857Y-50134780D01*
X153733333Y-50134780D01*
X153828571Y-50087161D01*
X153876190Y-50039542D01*
X153923809Y-49944304D01*
X153923809Y-49753828D01*
X153876190Y-49658590D01*
X153828571Y-49610971D01*
X153733333Y-49563352D01*
X99711142Y-90003380D02*
X100330190Y-90003380D01*
X99996857Y-90384333D01*
X100139714Y-90384333D01*
X100234952Y-90431952D01*
X100282571Y-90479571D01*
X100330190Y-90574809D01*
X100330190Y-90812904D01*
X100282571Y-90908142D01*
X100234952Y-90955761D01*
X100139714Y-91003380D01*
X99854000Y-91003380D01*
X99758761Y-90955761D01*
X99711142Y-90908142D01*
X100806380Y-91003380D02*
X100996857Y-91003380D01*
X101092095Y-90955761D01*
X101139714Y-90908142D01*
X101234952Y-90765285D01*
X101282571Y-90574809D01*
X101282571Y-90193857D01*
X101234952Y-90098619D01*
X101187333Y-90051000D01*
X101092095Y-90003380D01*
X100901619Y-90003380D01*
X100806380Y-90051000D01*
X100758761Y-90098619D01*
X100711142Y-90193857D01*
X100711142Y-90431952D01*
X100758761Y-90527190D01*
X100806380Y-90574809D01*
X100901619Y-90622428D01*
X101092095Y-90622428D01*
X101187333Y-90574809D01*
X101234952Y-90527190D01*
X101282571Y-90431952D01*
X102901619Y-90336714D02*
X102901619Y-91003380D01*
X102663523Y-89955761D02*
X102425428Y-90670047D01*
X103044476Y-90670047D01*
X103615904Y-90003380D02*
X103711142Y-90003380D01*
X103806380Y-90051000D01*
X103854000Y-90098619D01*
X103901619Y-90193857D01*
X103949238Y-90384333D01*
X103949238Y-90622428D01*
X103901619Y-90812904D01*
X103854000Y-90908142D01*
X103806380Y-90955761D01*
X103711142Y-91003380D01*
X103615904Y-91003380D01*
X103520666Y-90955761D01*
X103473047Y-90908142D01*
X103425428Y-90812904D01*
X103377809Y-90622428D01*
X103377809Y-90384333D01*
X103425428Y-90193857D01*
X103473047Y-90098619D01*
X103520666Y-90051000D01*
X103615904Y-90003380D01*
X100355590Y-65595580D02*
X99784161Y-65595580D01*
X100069876Y-65595580D02*
X100069876Y-64595580D01*
X99974638Y-64738438D01*
X99879400Y-64833676D01*
X99784161Y-64881295D01*
X100831780Y-65595580D02*
X101022257Y-65595580D01*
X101117495Y-65547961D01*
X101165114Y-65500342D01*
X101260352Y-65357485D01*
X101307971Y-65167009D01*
X101307971Y-64786057D01*
X101260352Y-64690819D01*
X101212733Y-64643200D01*
X101117495Y-64595580D01*
X100927019Y-64595580D01*
X100831780Y-64643200D01*
X100784161Y-64690819D01*
X100736542Y-64786057D01*
X100736542Y-65024152D01*
X100784161Y-65119390D01*
X100831780Y-65167009D01*
X100927019Y-65214628D01*
X101117495Y-65214628D01*
X101212733Y-65167009D01*
X101260352Y-65119390D01*
X101307971Y-65024152D01*
X102450828Y-64690819D02*
X102498447Y-64643200D01*
X102593685Y-64595580D01*
X102831780Y-64595580D01*
X102927019Y-64643200D01*
X102974638Y-64690819D01*
X103022257Y-64786057D01*
X103022257Y-64881295D01*
X102974638Y-65024152D01*
X102403209Y-65595580D01*
X103022257Y-65595580D01*
X103641304Y-64595580D02*
X103736542Y-64595580D01*
X103831780Y-64643200D01*
X103879400Y-64690819D01*
X103927019Y-64786057D01*
X103974638Y-64976533D01*
X103974638Y-65214628D01*
X103927019Y-65405104D01*
X103879400Y-65500342D01*
X103831780Y-65547961D01*
X103736542Y-65595580D01*
X103641304Y-65595580D01*
X103546066Y-65547961D01*
X103498447Y-65500342D01*
X103450828Y-65405104D01*
X103403209Y-65214628D01*
X103403209Y-64976533D01*
X103450828Y-64786057D01*
X103498447Y-64690819D01*
X103546066Y-64643200D01*
X103641304Y-64595580D01*
X150273047Y-36113980D02*
X149796857Y-36113980D01*
X149796857Y-35113980D01*
X150606380Y-35590171D02*
X150939714Y-35590171D01*
X151082571Y-36113980D02*
X150606380Y-36113980D01*
X150606380Y-35113980D01*
X151082571Y-35113980D01*
X151511142Y-36113980D02*
X151511142Y-35113980D01*
X151749238Y-35113980D01*
X151892095Y-35161600D01*
X151987333Y-35256838D01*
X152034952Y-35352076D01*
X152082571Y-35542552D01*
X152082571Y-35685409D01*
X152034952Y-35875885D01*
X151987333Y-35971123D01*
X151892095Y-36066361D01*
X151749238Y-36113980D01*
X151511142Y-36113980D01*
X152273047Y-36209219D02*
X153034952Y-36209219D01*
X153796857Y-35161600D02*
X153701619Y-35113980D01*
X153558761Y-35113980D01*
X153415904Y-35161600D01*
X153320666Y-35256838D01*
X153273047Y-35352076D01*
X153225428Y-35542552D01*
X153225428Y-35685409D01*
X153273047Y-35875885D01*
X153320666Y-35971123D01*
X153415904Y-36066361D01*
X153558761Y-36113980D01*
X153654000Y-36113980D01*
X153796857Y-36066361D01*
X153844476Y-36018742D01*
X153844476Y-35685409D01*
X153654000Y-35685409D01*
X154034952Y-36209219D02*
X154796857Y-36209219D01*
X154987333Y-35209219D02*
X155034952Y-35161600D01*
X155130190Y-35113980D01*
X155368285Y-35113980D01*
X155463523Y-35161600D01*
X155511142Y-35209219D01*
X155558761Y-35304457D01*
X155558761Y-35399695D01*
X155511142Y-35542552D01*
X154939714Y-36113980D01*
X155558761Y-36113980D01*
X100152390Y-52946380D02*
X100342866Y-52946380D01*
X100438104Y-52898761D01*
X100485723Y-52851142D01*
X100580961Y-52708285D01*
X100628580Y-52517809D01*
X100628580Y-52136857D01*
X100580961Y-52041619D01*
X100533342Y-51994000D01*
X100438104Y-51946380D01*
X100247628Y-51946380D01*
X100152390Y-51994000D01*
X100104771Y-52041619D01*
X100057152Y-52136857D01*
X100057152Y-52374952D01*
X100104771Y-52470190D01*
X100152390Y-52517809D01*
X100247628Y-52565428D01*
X100438104Y-52565428D01*
X100533342Y-52517809D01*
X100580961Y-52470190D01*
X100628580Y-52374952D01*
X102342866Y-52946380D02*
X101771438Y-52946380D01*
X102057152Y-52946380D02*
X102057152Y-51946380D01*
X101961914Y-52089238D01*
X101866676Y-52184476D01*
X101771438Y-52232095D01*
X102961914Y-51946380D02*
X103057152Y-51946380D01*
X103152390Y-51994000D01*
X103200009Y-52041619D01*
X103247628Y-52136857D01*
X103295247Y-52327333D01*
X103295247Y-52565428D01*
X103247628Y-52755904D01*
X103200009Y-52851142D01*
X103152390Y-52898761D01*
X103057152Y-52946380D01*
X102961914Y-52946380D01*
X102866676Y-52898761D01*
X102819057Y-52851142D01*
X102771438Y-52755904D01*
X102723819Y-52565428D01*
X102723819Y-52327333D01*
X102771438Y-52136857D01*
X102819057Y-52041619D01*
X102866676Y-51994000D01*
X102961914Y-51946380D01*
X100304695Y-46871000D02*
X100209457Y-46823380D01*
X100066600Y-46823380D01*
X99923742Y-46871000D01*
X99828504Y-46966238D01*
X99780885Y-47061476D01*
X99733266Y-47251952D01*
X99733266Y-47394809D01*
X99780885Y-47585285D01*
X99828504Y-47680523D01*
X99923742Y-47775761D01*
X100066600Y-47823380D01*
X100161838Y-47823380D01*
X100304695Y-47775761D01*
X100352314Y-47728142D01*
X100352314Y-47394809D01*
X100161838Y-47394809D01*
X100780885Y-47823380D02*
X100780885Y-46823380D01*
X101352314Y-47823380D01*
X101352314Y-46823380D01*
X101828504Y-47823380D02*
X101828504Y-46823380D01*
X102066600Y-46823380D01*
X102209457Y-46871000D01*
X102304695Y-46966238D01*
X102352314Y-47061476D01*
X102399933Y-47251952D01*
X102399933Y-47394809D01*
X102352314Y-47585285D01*
X102304695Y-47680523D01*
X102209457Y-47775761D01*
X102066600Y-47823380D01*
X101828504Y-47823380D01*
X151130190Y-65493980D02*
X150558761Y-65493980D01*
X150844476Y-65493980D02*
X150844476Y-64493980D01*
X150749238Y-64636838D01*
X150654000Y-64732076D01*
X150558761Y-64779695D01*
X151606380Y-65493980D02*
X151796857Y-65493980D01*
X151892095Y-65446361D01*
X151939714Y-65398742D01*
X152034952Y-65255885D01*
X152082571Y-65065409D01*
X152082571Y-64684457D01*
X152034952Y-64589219D01*
X151987333Y-64541600D01*
X151892095Y-64493980D01*
X151701619Y-64493980D01*
X151606380Y-64541600D01*
X151558761Y-64589219D01*
X151511142Y-64684457D01*
X151511142Y-64922552D01*
X151558761Y-65017790D01*
X151606380Y-65065409D01*
X151701619Y-65113028D01*
X151892095Y-65113028D01*
X151987333Y-65065409D01*
X152034952Y-65017790D01*
X152082571Y-64922552D01*
X153225428Y-64589219D02*
X153273047Y-64541600D01*
X153368285Y-64493980D01*
X153606380Y-64493980D01*
X153701619Y-64541600D01*
X153749238Y-64589219D01*
X153796857Y-64684457D01*
X153796857Y-64779695D01*
X153749238Y-64922552D01*
X153177809Y-65493980D01*
X153796857Y-65493980D01*
X154415904Y-64493980D02*
X154511142Y-64493980D01*
X154606380Y-64541600D01*
X154654000Y-64589219D01*
X154701619Y-64684457D01*
X154749238Y-64874933D01*
X154749238Y-65113028D01*
X154701619Y-65303504D01*
X154654000Y-65398742D01*
X154606380Y-65446361D01*
X154511142Y-65493980D01*
X154415904Y-65493980D01*
X154320666Y-65446361D01*
X154273047Y-65398742D01*
X154225428Y-65303504D01*
X154177809Y-65113028D01*
X154177809Y-64874933D01*
X154225428Y-64684457D01*
X154273047Y-64589219D01*
X154320666Y-64541600D01*
X154415904Y-64493980D01*
X151411904Y-44202380D02*
X152030952Y-44202380D01*
X151697619Y-44583333D01*
X151840476Y-44583333D01*
X151935714Y-44630952D01*
X151983333Y-44678571D01*
X152030952Y-44773809D01*
X152030952Y-45011904D01*
X151983333Y-45107142D01*
X151935714Y-45154761D01*
X151840476Y-45202380D01*
X151554761Y-45202380D01*
X151459523Y-45154761D01*
X151411904Y-45107142D01*
X152316666Y-44202380D02*
X152650000Y-45202380D01*
X152983333Y-44202380D01*
X153221428Y-44202380D02*
X153840476Y-44202380D01*
X153507142Y-44583333D01*
X153650000Y-44583333D01*
X153745238Y-44630952D01*
X153792857Y-44678571D01*
X153840476Y-44773809D01*
X153840476Y-45011904D01*
X153792857Y-45107142D01*
X153745238Y-45154761D01*
X153650000Y-45202380D01*
X153364285Y-45202380D01*
X153269047Y-45154761D01*
X153221428Y-45107142D01*
%TO.C,CN1*%
X121979523Y-45457142D02*
X121931904Y-45504761D01*
X121789047Y-45552380D01*
X121693809Y-45552380D01*
X121550952Y-45504761D01*
X121455714Y-45409523D01*
X121408095Y-45314285D01*
X121360476Y-45123809D01*
X121360476Y-44980952D01*
X121408095Y-44790476D01*
X121455714Y-44695238D01*
X121550952Y-44600000D01*
X121693809Y-44552380D01*
X121789047Y-44552380D01*
X121931904Y-44600000D01*
X121979523Y-44647619D01*
X122408095Y-45552380D02*
X122408095Y-44552380D01*
X122979523Y-45552380D01*
X122979523Y-44552380D01*
X123979523Y-45552380D02*
X123408095Y-45552380D01*
X123693809Y-45552380D02*
X123693809Y-44552380D01*
X123598571Y-44695238D01*
X123503333Y-44790476D01*
X123408095Y-44838095D01*
%TO.C,RJ2*%
X136688580Y-23619180D02*
X136355247Y-23142990D01*
X136117152Y-23619180D02*
X136117152Y-22619180D01*
X136498104Y-22619180D01*
X136593342Y-22666800D01*
X136640961Y-22714419D01*
X136688580Y-22809657D01*
X136688580Y-22952514D01*
X136640961Y-23047752D01*
X136593342Y-23095371D01*
X136498104Y-23142990D01*
X136117152Y-23142990D01*
X137402866Y-22619180D02*
X137402866Y-23333466D01*
X137355247Y-23476323D01*
X137260009Y-23571561D01*
X137117152Y-23619180D01*
X137021914Y-23619180D01*
X137831438Y-22714419D02*
X137879057Y-22666800D01*
X137974295Y-22619180D01*
X138212390Y-22619180D01*
X138307628Y-22666800D01*
X138355247Y-22714419D01*
X138402866Y-22809657D01*
X138402866Y-22904895D01*
X138355247Y-23047752D01*
X137783819Y-23619180D01*
X138402866Y-23619180D01*
%TO.C,RJ1*%
X106691180Y-23619180D02*
X106357847Y-23142990D01*
X106119752Y-23619180D02*
X106119752Y-22619180D01*
X106500704Y-22619180D01*
X106595942Y-22666800D01*
X106643561Y-22714419D01*
X106691180Y-22809657D01*
X106691180Y-22952514D01*
X106643561Y-23047752D01*
X106595942Y-23095371D01*
X106500704Y-23142990D01*
X106119752Y-23142990D01*
X107405466Y-22619180D02*
X107405466Y-23333466D01*
X107357847Y-23476323D01*
X107262609Y-23571561D01*
X107119752Y-23619180D01*
X107024514Y-23619180D01*
X108405466Y-23619180D02*
X107834038Y-23619180D01*
X108119752Y-23619180D02*
X108119752Y-22619180D01*
X108024514Y-22762038D01*
X107929276Y-22857276D01*
X107834038Y-22904895D01*
%TO.C,R5*%
X97191533Y-26225780D02*
X96858200Y-25749590D01*
X96620104Y-26225780D02*
X96620104Y-25225780D01*
X97001057Y-25225780D01*
X97096295Y-25273400D01*
X97143914Y-25321019D01*
X97191533Y-25416257D01*
X97191533Y-25559114D01*
X97143914Y-25654352D01*
X97096295Y-25701971D01*
X97001057Y-25749590D01*
X96620104Y-25749590D01*
X98096295Y-25225780D02*
X97620104Y-25225780D01*
X97572485Y-25701971D01*
X97620104Y-25654352D01*
X97715342Y-25606733D01*
X97953438Y-25606733D01*
X98048676Y-25654352D01*
X98096295Y-25701971D01*
X98143914Y-25797209D01*
X98143914Y-26035304D01*
X98096295Y-26130542D01*
X98048676Y-26178161D01*
X97953438Y-26225780D01*
X97715342Y-26225780D01*
X97620104Y-26178161D01*
X97572485Y-26130542D01*
%TO.C,R4*%
X127087333Y-26200380D02*
X126754000Y-25724190D01*
X126515904Y-26200380D02*
X126515904Y-25200380D01*
X126896857Y-25200380D01*
X126992095Y-25248000D01*
X127039714Y-25295619D01*
X127087333Y-25390857D01*
X127087333Y-25533714D01*
X127039714Y-25628952D01*
X126992095Y-25676571D01*
X126896857Y-25724190D01*
X126515904Y-25724190D01*
X127944476Y-25533714D02*
X127944476Y-26200380D01*
X127706380Y-25152761D02*
X127468285Y-25867047D01*
X128087333Y-25867047D01*
%TO.C,R3*%
X117689333Y-29009580D02*
X117356000Y-28533390D01*
X117117904Y-29009580D02*
X117117904Y-28009580D01*
X117498857Y-28009580D01*
X117594095Y-28057200D01*
X117641714Y-28104819D01*
X117689333Y-28200057D01*
X117689333Y-28342914D01*
X117641714Y-28438152D01*
X117594095Y-28485771D01*
X117498857Y-28533390D01*
X117117904Y-28533390D01*
X118022666Y-28009580D02*
X118641714Y-28009580D01*
X118308380Y-28390533D01*
X118451238Y-28390533D01*
X118546476Y-28438152D01*
X118594095Y-28485771D01*
X118641714Y-28581009D01*
X118641714Y-28819104D01*
X118594095Y-28914342D01*
X118546476Y-28961961D01*
X118451238Y-29009580D01*
X118165523Y-29009580D01*
X118070285Y-28961961D01*
X118022666Y-28914342D01*
%TO.C,R2*%
X147610533Y-29085780D02*
X147277200Y-28609590D01*
X147039104Y-29085780D02*
X147039104Y-28085780D01*
X147420057Y-28085780D01*
X147515295Y-28133400D01*
X147562914Y-28181019D01*
X147610533Y-28276257D01*
X147610533Y-28419114D01*
X147562914Y-28514352D01*
X147515295Y-28561971D01*
X147420057Y-28609590D01*
X147039104Y-28609590D01*
X147991485Y-28181019D02*
X148039104Y-28133400D01*
X148134342Y-28085780D01*
X148372438Y-28085780D01*
X148467676Y-28133400D01*
X148515295Y-28181019D01*
X148562914Y-28276257D01*
X148562914Y-28371495D01*
X148515295Y-28514352D01*
X147943866Y-29085780D01*
X148562914Y-29085780D01*
%TO.C,J1*%
X99666466Y-40955980D02*
X99666466Y-41670266D01*
X99618847Y-41813123D01*
X99523609Y-41908361D01*
X99380752Y-41955980D01*
X99285514Y-41955980D01*
X100666466Y-41955980D02*
X100095038Y-41955980D01*
X100380752Y-41955980D02*
X100380752Y-40955980D01*
X100285514Y-41098838D01*
X100190276Y-41194076D01*
X100095038Y-41241695D01*
%TO.C,C1*%
X146215333Y-125264142D02*
X146167714Y-125311761D01*
X146024857Y-125359380D01*
X145929619Y-125359380D01*
X145786761Y-125311761D01*
X145691523Y-125216523D01*
X145643904Y-125121285D01*
X145596285Y-124930809D01*
X145596285Y-124787952D01*
X145643904Y-124597476D01*
X145691523Y-124502238D01*
X145786761Y-124407000D01*
X145929619Y-124359380D01*
X146024857Y-124359380D01*
X146167714Y-124407000D01*
X146215333Y-124454619D01*
X147167714Y-125359380D02*
X146596285Y-125359380D01*
X146882000Y-125359380D02*
X146882000Y-124359380D01*
X146786761Y-124502238D01*
X146691523Y-124597476D01*
X146596285Y-124645095D01*
%TO.C,C4*%
X110323333Y-113133142D02*
X110275714Y-113180761D01*
X110132857Y-113228380D01*
X110037619Y-113228380D01*
X109894761Y-113180761D01*
X109799523Y-113085523D01*
X109751904Y-112990285D01*
X109704285Y-112799809D01*
X109704285Y-112656952D01*
X109751904Y-112466476D01*
X109799523Y-112371238D01*
X109894761Y-112276000D01*
X110037619Y-112228380D01*
X110132857Y-112228380D01*
X110275714Y-112276000D01*
X110323333Y-112323619D01*
X111180476Y-112561714D02*
X111180476Y-113228380D01*
X110942380Y-112180761D02*
X110704285Y-112895047D01*
X111323333Y-112895047D01*
%TO.C,C3*%
X105111533Y-111305142D02*
X105063914Y-111352761D01*
X104921057Y-111400380D01*
X104825819Y-111400380D01*
X104682961Y-111352761D01*
X104587723Y-111257523D01*
X104540104Y-111162285D01*
X104492485Y-110971809D01*
X104492485Y-110828952D01*
X104540104Y-110638476D01*
X104587723Y-110543238D01*
X104682961Y-110448000D01*
X104825819Y-110400380D01*
X104921057Y-110400380D01*
X105063914Y-110448000D01*
X105111533Y-110495619D01*
X105444866Y-110400380D02*
X106063914Y-110400380D01*
X105730580Y-110781333D01*
X105873438Y-110781333D01*
X105968676Y-110828952D01*
X106016295Y-110876571D01*
X106063914Y-110971809D01*
X106063914Y-111209904D01*
X106016295Y-111305142D01*
X105968676Y-111352761D01*
X105873438Y-111400380D01*
X105587723Y-111400380D01*
X105492485Y-111352761D01*
X105444866Y-111305142D01*
%TO.C,C6*%
X147077133Y-39523942D02*
X147029514Y-39571561D01*
X146886657Y-39619180D01*
X146791419Y-39619180D01*
X146648561Y-39571561D01*
X146553323Y-39476323D01*
X146505704Y-39381085D01*
X146458085Y-39190609D01*
X146458085Y-39047752D01*
X146505704Y-38857276D01*
X146553323Y-38762038D01*
X146648561Y-38666800D01*
X146791419Y-38619180D01*
X146886657Y-38619180D01*
X147029514Y-38666800D01*
X147077133Y-38714419D01*
X147934276Y-38619180D02*
X147743800Y-38619180D01*
X147648561Y-38666800D01*
X147600942Y-38714419D01*
X147505704Y-38857276D01*
X147458085Y-39047752D01*
X147458085Y-39428704D01*
X147505704Y-39523942D01*
X147553323Y-39571561D01*
X147648561Y-39619180D01*
X147839038Y-39619180D01*
X147934276Y-39571561D01*
X147981895Y-39523942D01*
X148029514Y-39428704D01*
X148029514Y-39190609D01*
X147981895Y-39095371D01*
X147934276Y-39047752D01*
X147839038Y-39000133D01*
X147648561Y-39000133D01*
X147553323Y-39047752D01*
X147505704Y-39095371D01*
X147458085Y-39190609D01*
%TO.C,C2*%
X158375333Y-125174142D02*
X158327714Y-125221761D01*
X158184857Y-125269380D01*
X158089619Y-125269380D01*
X157946761Y-125221761D01*
X157851523Y-125126523D01*
X157803904Y-125031285D01*
X157756285Y-124840809D01*
X157756285Y-124697952D01*
X157803904Y-124507476D01*
X157851523Y-124412238D01*
X157946761Y-124317000D01*
X158089619Y-124269380D01*
X158184857Y-124269380D01*
X158327714Y-124317000D01*
X158375333Y-124364619D01*
X158756285Y-124364619D02*
X158803904Y-124317000D01*
X158899142Y-124269380D01*
X159137238Y-124269380D01*
X159232476Y-124317000D01*
X159280095Y-124364619D01*
X159327714Y-124459857D01*
X159327714Y-124555095D01*
X159280095Y-124697952D01*
X158708666Y-125269380D01*
X159327714Y-125269380D01*
%TO.C,U1*%
X145034095Y-118984780D02*
X145034095Y-119794304D01*
X145081714Y-119889542D01*
X145129333Y-119937161D01*
X145224571Y-119984780D01*
X145415047Y-119984780D01*
X145510285Y-119937161D01*
X145557904Y-119889542D01*
X145605523Y-119794304D01*
X145605523Y-118984780D01*
X146605523Y-119984780D02*
X146034095Y-119984780D01*
X146319809Y-119984780D02*
X146319809Y-118984780D01*
X146224571Y-119127638D01*
X146129333Y-119222876D01*
X146034095Y-119270495D01*
%TO.C,J4*%
X157070466Y-27703980D02*
X157070466Y-28418266D01*
X157022847Y-28561123D01*
X156927609Y-28656361D01*
X156784752Y-28703980D01*
X156689514Y-28703980D01*
X157975228Y-28037314D02*
X157975228Y-28703980D01*
X157737133Y-27656361D02*
X157499038Y-28370647D01*
X158118085Y-28370647D01*
%TO.C,J2*%
X153082666Y-41616380D02*
X153082666Y-42330666D01*
X153035047Y-42473523D01*
X152939809Y-42568761D01*
X152796952Y-42616380D01*
X152701714Y-42616380D01*
X153511238Y-41711619D02*
X153558857Y-41664000D01*
X153654095Y-41616380D01*
X153892190Y-41616380D01*
X153987428Y-41664000D01*
X154035047Y-41711619D01*
X154082666Y-41806857D01*
X154082666Y-41902095D01*
X154035047Y-42044952D01*
X153463619Y-42616380D01*
X154082666Y-42616380D01*
%TO.C,C7*%
X117257533Y-38457142D02*
X117209914Y-38504761D01*
X117067057Y-38552380D01*
X116971819Y-38552380D01*
X116828961Y-38504761D01*
X116733723Y-38409523D01*
X116686104Y-38314285D01*
X116638485Y-38123809D01*
X116638485Y-37980952D01*
X116686104Y-37790476D01*
X116733723Y-37695238D01*
X116828961Y-37600000D01*
X116971819Y-37552380D01*
X117067057Y-37552380D01*
X117209914Y-37600000D01*
X117257533Y-37647619D01*
X117590866Y-37552380D02*
X118257533Y-37552380D01*
X117828961Y-38552380D01*
%TO.C,C5*%
X108311933Y-111305142D02*
X108264314Y-111352761D01*
X108121457Y-111400380D01*
X108026219Y-111400380D01*
X107883361Y-111352761D01*
X107788123Y-111257523D01*
X107740504Y-111162285D01*
X107692885Y-110971809D01*
X107692885Y-110828952D01*
X107740504Y-110638476D01*
X107788123Y-110543238D01*
X107883361Y-110448000D01*
X108026219Y-110400380D01*
X108121457Y-110400380D01*
X108264314Y-110448000D01*
X108311933Y-110495619D01*
X109216695Y-110400380D02*
X108740504Y-110400380D01*
X108692885Y-110876571D01*
X108740504Y-110828952D01*
X108835742Y-110781333D01*
X109073838Y-110781333D01*
X109169076Y-110828952D01*
X109216695Y-110876571D01*
X109264314Y-110971809D01*
X109264314Y-111209904D01*
X109216695Y-111305142D01*
X109169076Y-111352761D01*
X109073838Y-111400380D01*
X108835742Y-111400380D01*
X108740504Y-111352761D01*
X108692885Y-111305142D01*
%TO.C,J3*%
X113611066Y-122083580D02*
X113611066Y-122797866D01*
X113563447Y-122940723D01*
X113468209Y-123035961D01*
X113325352Y-123083580D01*
X113230114Y-123083580D01*
X113992019Y-122083580D02*
X114611066Y-122083580D01*
X114277733Y-122464533D01*
X114420590Y-122464533D01*
X114515828Y-122512152D01*
X114563447Y-122559771D01*
X114611066Y-122655009D01*
X114611066Y-122893104D01*
X114563447Y-122988342D01*
X114515828Y-123035961D01*
X114420590Y-123083580D01*
X114134876Y-123083580D01*
X114039638Y-123035961D01*
X113992019Y-122988342D01*
%TO.C,R1*%
X101912333Y-120492380D02*
X101579000Y-120016190D01*
X101340904Y-120492380D02*
X101340904Y-119492380D01*
X101721857Y-119492380D01*
X101817095Y-119540000D01*
X101864714Y-119587619D01*
X101912333Y-119682857D01*
X101912333Y-119825714D01*
X101864714Y-119920952D01*
X101817095Y-119968571D01*
X101721857Y-120016190D01*
X101340904Y-120016190D01*
X102864714Y-120492380D02*
X102293285Y-120492380D01*
X102579000Y-120492380D02*
X102579000Y-119492380D01*
X102483761Y-119635238D01*
X102388523Y-119730476D01*
X102293285Y-119778095D01*
%TO.C,FB1*%
X102036666Y-114228571D02*
X101703333Y-114228571D01*
X101703333Y-114752380D02*
X101703333Y-113752380D01*
X102179523Y-113752380D01*
X102893809Y-114228571D02*
X103036666Y-114276190D01*
X103084285Y-114323809D01*
X103131904Y-114419047D01*
X103131904Y-114561904D01*
X103084285Y-114657142D01*
X103036666Y-114704761D01*
X102941428Y-114752380D01*
X102560476Y-114752380D01*
X102560476Y-113752380D01*
X102893809Y-113752380D01*
X102989047Y-113800000D01*
X103036666Y-113847619D01*
X103084285Y-113942857D01*
X103084285Y-114038095D01*
X103036666Y-114133333D01*
X102989047Y-114180952D01*
X102893809Y-114228571D01*
X102560476Y-114228571D01*
X104084285Y-114752380D02*
X103512857Y-114752380D01*
X103798571Y-114752380D02*
X103798571Y-113752380D01*
X103703333Y-113895238D01*
X103608095Y-113990476D01*
X103512857Y-114038095D01*
%TO.C,F1*%
X108531066Y-118190971D02*
X108197733Y-118190971D01*
X108197733Y-118714780D02*
X108197733Y-117714780D01*
X108673923Y-117714780D01*
X109578685Y-118714780D02*
X109007257Y-118714780D01*
X109292971Y-118714780D02*
X109292971Y-117714780D01*
X109197733Y-117857638D01*
X109102495Y-117952876D01*
X109007257Y-118000495D01*
D11*
%TO.C,CN1*%
X141008800Y-45225600D02*
X141000000Y-49540000D01*
X135510000Y-45220000D02*
X141008800Y-45225600D01*
X128450000Y-117440000D02*
X133050000Y-117440000D01*
X128450000Y-45960000D02*
X133050000Y-45960000D01*
X113720000Y-49340000D02*
X113720000Y-45810000D01*
X120530000Y-45810000D02*
X120530000Y-46420000D01*
X113720000Y-45810000D02*
X120530000Y-45810000D01*
X124570000Y-45220000D02*
X133460000Y-45220000D01*
X123370000Y-46420000D02*
X124570000Y-45220000D01*
X120530000Y-46420000D02*
X123370000Y-46420000D01*
X133480000Y-45220000D02*
X135510000Y-45220000D01*
X113720000Y-49340000D02*
X114280000Y-49340000D01*
X113720000Y-114180000D02*
X113720000Y-117710000D01*
X120530000Y-117710000D02*
X120530000Y-117100000D01*
X113720000Y-117710000D02*
X120530000Y-117710000D01*
X124570000Y-118300000D02*
X133460000Y-118300000D01*
X123370000Y-117100000D02*
X124570000Y-118300000D01*
X120530000Y-117100000D02*
X123370000Y-117100000D01*
X140920000Y-119980000D02*
X141000000Y-120000000D01*
X135510000Y-118300000D02*
X140920000Y-119980000D01*
X133480000Y-118300000D02*
X135510000Y-118300000D01*
X113720000Y-114180000D02*
X114280000Y-114180000D01*
X114280000Y-114180000D02*
X114280000Y-113630000D01*
X128450000Y-46580000D02*
X128450000Y-45960000D01*
X133050000Y-45960000D02*
X133050000Y-46570000D01*
X128450000Y-117440000D02*
X128450000Y-116820000D01*
X133050000Y-117440000D02*
X133050000Y-116830000D01*
X114280000Y-49340000D02*
X114280000Y-49610000D01*
X141000000Y-113820000D02*
X133190000Y-113820000D01*
X141000000Y-120000000D02*
X141000000Y-113820000D01*
X123500000Y-114160000D02*
X123500000Y-113900000D01*
X124160000Y-114160000D02*
X123500000Y-114160000D01*
X124160000Y-115700000D02*
X128160000Y-115700000D01*
X124160000Y-114160000D02*
X124160000Y-115700000D01*
X123500000Y-49360000D02*
X123500000Y-50100000D01*
X124160000Y-49360000D02*
X123500000Y-49360000D01*
X124160000Y-47800000D02*
X128290000Y-47800000D01*
X124160000Y-49360000D02*
X124160000Y-47800000D01*
X141000000Y-49540000D02*
X133250000Y-49540000D01*
%TO.C,RJ2*%
X129236200Y-21326800D02*
X145236200Y-21326800D01*
X145236200Y-21326800D02*
X145236200Y-42906800D01*
X145236200Y-42906800D02*
X129236200Y-42906800D01*
X129236200Y-42906800D02*
X129236200Y-21326800D01*
X130136200Y-21316800D02*
X130136200Y-22916800D01*
X130136200Y-22916800D02*
X132236200Y-22916800D01*
X132236200Y-22916800D02*
X132236200Y-22116800D01*
X132236200Y-22116800D02*
X132236200Y-21316800D01*
X142236200Y-21416800D02*
X142236200Y-23016800D01*
X142236200Y-23016800D02*
X144336200Y-23016800D01*
X144336200Y-23016800D02*
X144336200Y-22216800D01*
X144336200Y-22216800D02*
X144336200Y-21416800D01*
%TO.C,RJ1*%
X99238800Y-21326800D02*
X115238800Y-21326800D01*
X115238800Y-21326800D02*
X115238800Y-42906800D01*
X115238800Y-42906800D02*
X99238800Y-42906800D01*
X99238800Y-42906800D02*
X99238800Y-21326800D01*
X100138800Y-21316800D02*
X100138800Y-22916800D01*
X100138800Y-22916800D02*
X102238800Y-22916800D01*
X102238800Y-22916800D02*
X102238800Y-22116800D01*
X102238800Y-22116800D02*
X102238800Y-21316800D01*
X112238800Y-21416800D02*
X112238800Y-23016800D01*
X112238800Y-23016800D02*
X114338800Y-23016800D01*
X114338800Y-23016800D02*
X114338800Y-22216800D01*
X114338800Y-22216800D02*
X114338800Y-21416800D01*
D12*
%TO.C,R5*%
X97120942Y-27725900D02*
X97595458Y-27725900D01*
X97120942Y-26680900D02*
X97595458Y-26680900D01*
%TO.C,R4*%
X127016742Y-27700500D02*
X127491258Y-27700500D01*
X127016742Y-26655500D02*
X127491258Y-26655500D01*
%TO.C,R3*%
X118093258Y-26604700D02*
X117618742Y-26604700D01*
X118093258Y-27649700D02*
X117618742Y-27649700D01*
%TO.C,R2*%
X148014458Y-26680900D02*
X147539942Y-26680900D01*
X148014458Y-27725900D02*
X147539942Y-27725900D01*
%TO.C,J1*%
X93920000Y-43434000D02*
X96520000Y-43434000D01*
X93920000Y-43434000D02*
X93920000Y-122234000D01*
X96520000Y-40834000D02*
X99120000Y-40834000D01*
X93920000Y-122234000D02*
X99120000Y-122234000D01*
X93920000Y-42164000D02*
X93920000Y-40834000D01*
X96520000Y-43434000D02*
X96520000Y-40834000D01*
X93920000Y-40834000D02*
X95250000Y-40834000D01*
X99120000Y-40834000D02*
X99120000Y-122234000D01*
%TO.C,C1*%
X149001420Y-125417000D02*
X149282580Y-125417000D01*
X149001420Y-124397000D02*
X149282580Y-124397000D01*
%TO.C,C4*%
X111308980Y-114886400D02*
X111027820Y-114886400D01*
X111308980Y-113866400D02*
X111027820Y-113866400D01*
%TO.C,C3*%
X104573400Y-113175148D02*
X104573400Y-113697652D01*
X106043400Y-113175148D02*
X106043400Y-113697652D01*
%TO.C,C6*%
X147397380Y-41531000D02*
X147116220Y-41531000D01*
X147397380Y-40511000D02*
X147116220Y-40511000D01*
%TO.C,C2*%
X155753252Y-125612000D02*
X155230748Y-125612000D01*
X155753252Y-124142000D02*
X155230748Y-124142000D01*
D10*
%TO.C,U1*%
X147292000Y-118117000D02*
X153952000Y-118117000D01*
X147292000Y-121057000D02*
X147292000Y-118117000D01*
X153952000Y-121057000D02*
X147292000Y-121057000D01*
X153952000Y-118117000D02*
X153952000Y-121057000D01*
D12*
%TO.C,J4*%
X158733800Y-31851600D02*
X158733800Y-39531600D01*
X156073800Y-39531600D02*
X158733800Y-39531600D01*
X156073800Y-31851600D02*
X158733800Y-31851600D01*
X156073800Y-31851600D02*
X156073800Y-39531600D01*
X156073800Y-30581600D02*
X156073800Y-29251600D01*
X156073800Y-29251600D02*
X157403800Y-29251600D01*
%TO.C,J2*%
X157480000Y-43434000D02*
X157480000Y-40834000D01*
X160080000Y-40834000D02*
X160080000Y-122234000D01*
X154880000Y-43434000D02*
X154880000Y-122234000D01*
X154880000Y-122234000D02*
X160080000Y-122234000D01*
X154880000Y-42164000D02*
X154880000Y-40834000D01*
X154880000Y-43434000D02*
X157480000Y-43434000D01*
X154880000Y-40834000D02*
X156210000Y-40834000D01*
X157480000Y-40834000D02*
X160080000Y-40834000D01*
%TO.C,C7*%
X117564780Y-40184800D02*
X117283620Y-40184800D01*
X117564780Y-39164800D02*
X117283620Y-39164800D01*
%TO.C,C5*%
X109303400Y-113195148D02*
X109303400Y-113717652D01*
X107833400Y-113195148D02*
X107833400Y-113717652D01*
D11*
%TO.C,J3*%
X103449000Y-127510000D02*
X103449000Y-126030000D01*
X112389000Y-127510000D02*
X112389000Y-126030000D01*
X103449000Y-123790000D02*
X103449000Y-121930000D01*
X112389000Y-123790000D02*
X112389000Y-121930000D01*
X112389000Y-127510000D02*
X103449000Y-127510000D01*
D12*
%TO.C,R1*%
X102316258Y-118087500D02*
X101841742Y-118087500D01*
X102316258Y-119132500D02*
X101841742Y-119132500D01*
%TO.C,FB1*%
X102863758Y-117424000D02*
X104534242Y-117424000D01*
X102863758Y-115604000D02*
X104534242Y-115604000D01*
D10*
%TO.C,F1*%
X110969000Y-117464000D02*
X109779000Y-117464000D01*
X106729000Y-117464000D02*
X107919000Y-117464000D01*
X109779000Y-115284000D02*
X110969000Y-115284000D01*
X107919000Y-115284000D02*
X106729000Y-115284000D01*
X106579000Y-115434000D02*
X106579000Y-117314000D01*
X111119000Y-115434000D02*
X111119000Y-117314000D01*
D13*
X108849000Y-115534000D02*
G75*
G03*
X108850269Y-116376199I730000J-420000D01*
G01*
X108849000Y-117214000D02*
G75*
G03*
X108847731Y-116371801I-729999J420001D01*
G01*
%TD*%
M02*
