M48
; DRILL file {KiCad 6.0.4-6f826c9f35~116~ubuntu20.04.1} date Jum 29 Apr 2022 04:31:16 
; FORMAT={-:-/ absolute / inch / decimal}
; #@! TF.CreationDate,2022-04-29T04:31:16+07:00
; #@! TF.GenerationSoftware,Kicad,Pcbnew,6.0.4-6f826c9f35~116~ubuntu20.04.1
; #@! TF.FileFunction,Plated,1,4,PTH
FMAT,2
INCH
; #@! TA.AperFunction,Plated,PTH,ViaDrill
T1C0.0079
; #@! TA.AperFunction,Plated,PTH,ComponentDrill
T2C0.0197
; #@! TA.AperFunction,Plated,PTH,ComponentDrill
T3C0.0295
; #@! TA.AperFunction,Plated,PTH,ComponentDrill
T4C0.0315
; #@! TA.AperFunction,Plated,PTH,ViaDrill
T5C0.0315
; #@! TA.AperFunction,Plated,PTH,ComponentDrill
T6C0.0394
; #@! TA.AperFunction,Plated,PTH,ViaDrill
T7C0.0630
; #@! TA.AperFunction,Plated,PTH,ComponentDrill
T8C0.0787
%
G90
G05
T1
X3.993Y-1.887
X3.997Y-1.7
X3.999Y-1.982
X4.053Y-2.081
X4.115Y-1.7
X4.115Y-1.981
X4.118Y-1.887
X4.13Y-2.027
X4.179Y-2.2
X4.19Y-4.343
X4.233Y-1.7
X4.233Y-2.005
X4.234Y-1.887
X4.249Y-2.073
X4.249Y-4.265
X4.312Y-4.185
X4.333Y-2.055
X4.338Y-2.348
X4.34Y-1.867
X4.34Y-1.936
X4.351Y-1.701
X4.373Y-4.105
X4.38Y-2.454
X4.406Y-1.819
X4.43Y-4.023
X4.444Y-2.408
X4.47Y-1.701
X4.474Y-2.546
X4.529Y-1.847
X4.563Y-2.089
X4.563Y-2.113
X4.563Y-2.184
X4.563Y-2.255
X4.563Y-2.326
X4.563Y-2.396
X4.563Y-2.42
X4.763Y-2.102
X4.763Y-2.126
X4.763Y-2.196
X4.763Y-2.267
X4.763Y-2.338
X4.763Y-2.409
X4.763Y-2.433
X4.9017Y-2.0306
X4.902Y-1.9835
X4.902Y-2.0069
X4.9026Y-2.0542
X4.9026Y-2.0778
X4.9026Y-2.1015
X4.911Y-4.009
X4.911Y-4.136
X4.911Y-4.262
X4.911Y-4.403
X4.912Y-2.415
X5.04Y-4.07
X5.103Y-2.413
X5.145Y-4.127
X5.206Y-2.194
X5.209Y-2.411
X5.2365Y-2.2655
X5.238Y-2.338
X5.249Y-4.18
X5.252Y-1.839
X5.261Y-2.398
X5.2961Y-2.3741
X5.333Y-2.349
X5.384Y-4.255
X5.409Y-1.983
X5.452Y-2.281
X5.485Y-2.009
X5.514Y-1.83
X5.521Y-4.323
X5.523Y-1.937
X5.525Y-2.169
X5.57Y-2.217
X5.622Y-1.829
X5.622Y-4.368
X5.64Y-1.931
X5.682Y-2.138
X5.704Y-2.001
X5.723Y-4.42
X5.734Y-1.83
X5.835Y-1.66
X5.877Y-2.053
X5.919Y-4.521
X5.992Y-2.001
X6.086Y-1.954
T2
X3.997Y-1.659
X4.0364Y-1.659
X4.0757Y-1.659
X4.1151Y-1.659
X4.1545Y-1.659
X4.1939Y-1.659
X4.2332Y-1.659
X4.2726Y-1.659
X4.312Y-1.659
X4.3513Y-1.659
X4.3907Y-1.659
X4.4301Y-1.659
X4.4694Y-1.659
X4.5088Y-1.659
X5.2681Y-1.661
X5.3075Y-1.661
X5.3468Y-1.661
X5.3862Y-1.661
X5.4256Y-1.661
X5.4649Y-1.661
X5.5043Y-1.661
X5.5437Y-1.661
X5.5831Y-1.661
X5.6224Y-1.661
X5.6618Y-1.661
X5.7012Y-1.661
X5.7405Y-1.661
X5.7799Y-1.661
T3
X4.1346Y-4.7717
X4.363Y-4.7717
T5
X3.9628Y-4.5872
X4.108Y-4.661
X4.108Y-4.661
X4.108Y-4.661
X4.4079Y-4.445
X4.6642Y-3.9558
X4.672Y-3.362
X4.674Y-2.758
X6.2308Y-4.9192
T6
X3.75Y-1.66
X3.75Y-1.76
X3.75Y-1.86
X3.75Y-1.96
X3.75Y-2.06
X3.75Y-2.16
X3.75Y-2.26
X3.75Y-2.36
X3.75Y-2.46
X3.75Y-2.56
X3.75Y-2.66
X3.75Y-2.76
X3.75Y-2.86
X3.75Y-2.96
X3.75Y-3.06
X3.75Y-3.16
X3.75Y-3.26
X3.75Y-3.36
X3.75Y-3.46
X3.75Y-3.56
X3.75Y-3.66
X3.75Y-3.76
X3.75Y-3.86
X3.75Y-3.96
X3.75Y-4.06
X3.75Y-4.16
X3.75Y-4.26
X3.75Y-4.36
X3.75Y-4.46
X3.75Y-4.56
X3.75Y-4.66
X3.75Y-4.76
X3.85Y-1.66
X3.85Y-1.76
X3.85Y-1.86
X3.85Y-1.96
X3.85Y-2.06
X3.85Y-2.16
X3.85Y-2.26
X3.85Y-2.36
X3.85Y-2.46
X3.85Y-2.56
X3.85Y-2.66
X3.85Y-2.76
X3.85Y-2.86
X3.85Y-2.96
X3.85Y-3.06
X3.85Y-3.16
X3.85Y-3.26
X3.85Y-3.36
X3.85Y-3.46
X3.85Y-3.56
X3.85Y-3.66
X3.85Y-3.76
X3.85Y-3.86
X3.85Y-3.96
X3.85Y-4.06
X3.85Y-4.16
X3.85Y-4.26
X3.85Y-4.36
X3.85Y-4.46
X3.85Y-4.56
X3.85Y-4.66
X3.85Y-4.76
X5.998Y-1.832
X6.15Y-1.66
X6.15Y-1.76
X6.15Y-1.86
X6.15Y-1.96
X6.15Y-2.06
X6.15Y-2.16
X6.15Y-2.26
X6.15Y-2.36
X6.15Y-2.46
X6.15Y-2.56
X6.15Y-2.66
X6.15Y-2.76
X6.15Y-2.86
X6.15Y-2.96
X6.15Y-3.06
X6.15Y-3.16
X6.15Y-3.26
X6.15Y-3.36
X6.15Y-3.46
X6.15Y-3.56
X6.15Y-3.66
X6.15Y-3.76
X6.15Y-3.86
X6.15Y-3.96
X6.15Y-4.06
X6.15Y-4.16
X6.15Y-4.26
X6.15Y-4.36
X6.15Y-4.46
X6.15Y-4.56
X6.15Y-4.66
X6.15Y-4.76
X6.25Y-1.66
X6.25Y-1.76
X6.25Y-1.86
X6.25Y-1.96
X6.25Y-2.06
X6.25Y-2.16
X6.25Y-2.26
X6.25Y-2.36
X6.25Y-2.46
X6.25Y-2.56
X6.25Y-2.66
X6.25Y-2.76
X6.25Y-2.86
X6.25Y-2.96
X6.25Y-3.06
X6.25Y-3.16
X6.25Y-3.26
X6.25Y-3.36
X6.25Y-3.46
X6.25Y-3.56
X6.25Y-3.66
X6.25Y-3.76
X6.25Y-3.86
X6.25Y-3.96
X6.25Y-4.06
X6.25Y-4.16
X6.25Y-4.26
X6.25Y-4.36
X6.25Y-4.46
X6.25Y-4.56
X6.25Y-4.66
X6.25Y-4.76
T7
X5.7918Y-4.5806
T8
X4.6623Y-1.9027
X4.6623Y-4.5326
T4
G00X4.0783Y-4.7362
M15
G01X4.0783Y-4.7677
M16
G05
G00X4.0783Y-4.9055
M15
G01X4.0783Y-4.9291
M16
G05
G00X4.4193Y-4.7362
M15
G01X4.4193Y-4.7677
M16
G05
G00X4.4193Y-4.9055
M15
G01X4.4193Y-4.9291
M16
G05
T0
M30
