%TF.GenerationSoftware,KiCad,Pcbnew,6.0.4-6f826c9f35~116~ubuntu20.04.1*%
%TF.CreationDate,2022-04-28T13:16:52+07:00*%
%TF.ProjectId,Colorlight2QMTech,436f6c6f-726c-4696-9768-7432514d5465,rev?*%
%TF.SameCoordinates,Original*%
%TF.FileFunction,Soldermask,Top*%
%TF.FilePolarity,Negative*%
%FSLAX46Y46*%
G04 Gerber Fmt 4.6, Leading zero omitted, Abs format (unit mm)*
G04 Created by KiCad (PCBNEW 6.0.4-6f826c9f35~116~ubuntu20.04.1) date 2022-04-28 13:16:52*
%MOMM*%
%LPD*%
G01*
G04 APERTURE LIST*
G04 Aperture macros list*
%AMRoundRect*
0 Rectangle with rounded corners*
0 $1 Rounding radius*
0 $2 $3 $4 $5 $6 $7 $8 $9 X,Y pos of 4 corners*
0 Add a 4 corners polygon primitive as box body*
4,1,4,$2,$3,$4,$5,$6,$7,$8,$9,$2,$3,0*
0 Add four circle primitives for the rounded corners*
1,1,$1+$1,$2,$3*
1,1,$1+$1,$4,$5*
1,1,$1+$1,$6,$7*
1,1,$1+$1,$8,$9*
0 Add four rect primitives between the rounded corners*
20,1,$1+$1,$2,$3,$4,$5,0*
20,1,$1+$1,$4,$5,$6,$7,0*
20,1,$1+$1,$6,$7,$8,$9,0*
20,1,$1+$1,$8,$9,$2,$3,0*%
G04 Aperture macros list end*
%ADD10RoundRect,0.200000X-0.850000X-0.850000X0.850000X-0.850000X0.850000X0.850000X-0.850000X0.850000X0*%
%ADD11O,2.100000X2.100000*%
%ADD12RoundRect,0.425000X-0.225000X-0.250000X0.225000X-0.250000X0.225000X0.250000X-0.225000X0.250000X0*%
%ADD13RoundRect,0.425000X0.225000X0.250000X-0.225000X0.250000X-0.225000X-0.250000X0.225000X-0.250000X0*%
%ADD14RoundRect,0.450000X-0.475000X0.250000X-0.475000X-0.250000X0.475000X-0.250000X0.475000X0.250000X0*%
%ADD15RoundRect,0.200000X0.425000X-0.425000X0.425000X0.425000X-0.425000X0.425000X-0.425000X-0.425000X0*%
%ADD16O,1.250000X1.250000*%
%ADD17C,1.450000*%
%ADD18C,1.850000*%
%ADD19RoundRect,0.200000X-1.000000X-0.200000X1.000000X-0.200000X1.000000X0.200000X-1.000000X0.200000X0*%
%ADD20RoundRect,0.450000X0.250000X0.475000X-0.250000X0.475000X-0.250000X-0.475000X0.250000X-0.475000X0*%
%ADD21RoundRect,0.200000X-0.550000X1.250000X-0.550000X-1.250000X0.550000X-1.250000X0.550000X1.250000X0*%
%ADD22RoundRect,0.200000X-1.800000X1.170000X-1.800000X-1.170000X1.800000X-1.170000X1.800000X1.170000X0*%
%ADD23C,1.150000*%
%ADD24RoundRect,0.200000X-0.150000X-0.650000X0.150000X-0.650000X0.150000X0.650000X-0.150000X0.650000X0*%
%ADD25O,1.600000X2.400000*%
%ADD26O,1.600000X2.200000*%
%ADD27RoundRect,0.400000X0.200000X0.275000X-0.200000X0.275000X-0.200000X-0.275000X0.200000X-0.275000X0*%
%ADD28RoundRect,0.450000X-0.275000X-0.700000X0.275000X-0.700000X0.275000X0.700000X-0.275000X0.700000X0*%
%ADD29RoundRect,0.200000X-0.595000X-0.865000X0.595000X-0.865000X0.595000X0.865000X-0.595000X0.865000X0*%
G04 APERTURE END LIST*
D10*
%TO.C,J1*%
X95250000Y-42164000D03*
D11*
X97790000Y-42164000D03*
X95250000Y-44704000D03*
X97790000Y-44704000D03*
X95250000Y-47244000D03*
X97790000Y-47244000D03*
X95250000Y-49784000D03*
X97790000Y-49784000D03*
X95250000Y-52324000D03*
X97790000Y-52324000D03*
X95250000Y-54864000D03*
X97790000Y-54864000D03*
X95250000Y-57404000D03*
X97790000Y-57404000D03*
X95250000Y-59944000D03*
X97790000Y-59944000D03*
X95250000Y-62484000D03*
X97790000Y-62484000D03*
X95250000Y-65024000D03*
X97790000Y-65024000D03*
X95250000Y-67564000D03*
X97790000Y-67564000D03*
X95250000Y-70104000D03*
X97790000Y-70104000D03*
X95250000Y-72644000D03*
X97790000Y-72644000D03*
X95250000Y-75184000D03*
X97790000Y-75184000D03*
X95250000Y-77724000D03*
X97790000Y-77724000D03*
X95250000Y-80264000D03*
X97790000Y-80264000D03*
X95250000Y-82804000D03*
X97790000Y-82804000D03*
X95250000Y-85344000D03*
X97790000Y-85344000D03*
X95250000Y-87884000D03*
X97790000Y-87884000D03*
X95250000Y-90424000D03*
X97790000Y-90424000D03*
X95250000Y-92964000D03*
X97790000Y-92964000D03*
X95250000Y-95504000D03*
X97790000Y-95504000D03*
X95250000Y-98044000D03*
X97790000Y-98044000D03*
X95250000Y-100584000D03*
X97790000Y-100584000D03*
X95250000Y-103124000D03*
X97790000Y-103124000D03*
X95250000Y-105664000D03*
X97790000Y-105664000D03*
X95250000Y-108204000D03*
X97790000Y-108204000D03*
X95250000Y-110744000D03*
X97790000Y-110744000D03*
X95250000Y-113284000D03*
X97790000Y-113284000D03*
X95250000Y-115824000D03*
X97790000Y-115824000D03*
X95250000Y-118364000D03*
X97790000Y-118364000D03*
X95250000Y-120904000D03*
X97790000Y-120904000D03*
%TD*%
D12*
%TO.C,C1*%
X148367000Y-124907000D03*
X149917000Y-124907000D03*
%TD*%
D13*
%TO.C,C4*%
X111943400Y-114376400D03*
X110393400Y-114376400D03*
%TD*%
D14*
%TO.C,C3*%
X105308400Y-112486400D03*
X105308400Y-114386400D03*
%TD*%
D15*
%TO.C,J5*%
X133809600Y-42189400D03*
D16*
X134809600Y-42189400D03*
X135809600Y-42189400D03*
X136809600Y-42189400D03*
X137809600Y-42189400D03*
X138809600Y-42189400D03*
X139809600Y-42189400D03*
X140809600Y-42189400D03*
X141809600Y-42189400D03*
X142809600Y-42189400D03*
X143809600Y-42189400D03*
X144809600Y-42189400D03*
X145809600Y-42189400D03*
X146809600Y-42189400D03*
%TD*%
D17*
%TO.C,CN1*%
X118518400Y-43444800D03*
D18*
X118518400Y-120044800D03*
D19*
X115218400Y-50094800D03*
X121818400Y-50394800D03*
X115218400Y-50694800D03*
X121818400Y-50994800D03*
X115218400Y-51294800D03*
X121818400Y-51594800D03*
X115218400Y-51894800D03*
X121818400Y-52194800D03*
X115218400Y-52494800D03*
X121818400Y-52794800D03*
X115218400Y-53094800D03*
X121818400Y-53394800D03*
X115218400Y-53694800D03*
X121818400Y-53994800D03*
X115218400Y-54294800D03*
X121818400Y-54594800D03*
X115218400Y-54894800D03*
X121818400Y-55194800D03*
X115218400Y-55494800D03*
X121818400Y-55794800D03*
X115218400Y-56094800D03*
X121818400Y-56394800D03*
X115218400Y-56694800D03*
X121818400Y-56994800D03*
X115218400Y-57294800D03*
X121818400Y-57594800D03*
X115218400Y-57894800D03*
X121818400Y-58194800D03*
X115218400Y-58494800D03*
X121818400Y-58794800D03*
X115218400Y-59094800D03*
X121818400Y-59394800D03*
X115218400Y-59694800D03*
X121818400Y-59994800D03*
X115218400Y-60294800D03*
X121818400Y-60594800D03*
X115218400Y-60894800D03*
X121818400Y-61194800D03*
X115218400Y-61494800D03*
X121818400Y-61794800D03*
X115218400Y-65694800D03*
X121818400Y-65994800D03*
X115218400Y-66294800D03*
X121818400Y-66594800D03*
X115218400Y-66894800D03*
X121818400Y-67194800D03*
X115218400Y-67494800D03*
X121818400Y-67794800D03*
X115218400Y-68094800D03*
X121818400Y-68394800D03*
X115218400Y-68694800D03*
X121818400Y-68994800D03*
X115218400Y-69294800D03*
X121818400Y-69594800D03*
X115218400Y-69894800D03*
X121818400Y-70194800D03*
X115218400Y-70494800D03*
X121818400Y-70794800D03*
X115218400Y-71094800D03*
X121818400Y-71394800D03*
X115218400Y-71694800D03*
X121818400Y-71994800D03*
X115218400Y-72294800D03*
X121818400Y-72594800D03*
X115218400Y-72894800D03*
X121818400Y-73194800D03*
X115218400Y-73494800D03*
X121818400Y-73794800D03*
X115218400Y-74094800D03*
X121818400Y-74394800D03*
X115218400Y-74694800D03*
X121818400Y-74994800D03*
X115218400Y-75294800D03*
X121818400Y-75594800D03*
X115218400Y-75894800D03*
X121818400Y-76194800D03*
X115218400Y-76494800D03*
X121818400Y-76794800D03*
X115218400Y-77094800D03*
X121818400Y-77394800D03*
X115218400Y-77694800D03*
X121818400Y-77994800D03*
X115218400Y-78294800D03*
X121818400Y-78594800D03*
X115218400Y-78894800D03*
X121818400Y-79194800D03*
X115218400Y-79494800D03*
X121818400Y-79794800D03*
X115218400Y-80094800D03*
X121818400Y-80394800D03*
X115218400Y-80694800D03*
X121818400Y-80994800D03*
X115218400Y-81294800D03*
X121818400Y-81594800D03*
X115218400Y-81894800D03*
X121818400Y-82194800D03*
X115218400Y-82494800D03*
X121818400Y-82794800D03*
X115218400Y-83094800D03*
X121818400Y-83394800D03*
X115218400Y-83694800D03*
X121818400Y-83994800D03*
X115218400Y-84294800D03*
X121818400Y-84594800D03*
X115218400Y-84894800D03*
X121818400Y-85194800D03*
X115218400Y-85494800D03*
X121818400Y-85794800D03*
X115218400Y-86094800D03*
X121818400Y-86394800D03*
X115218400Y-86694800D03*
X121818400Y-86994800D03*
X115218400Y-87294800D03*
X121818400Y-87594800D03*
X115218400Y-87894800D03*
X121818400Y-88194800D03*
X115218400Y-88494800D03*
X121818400Y-88794800D03*
X115218400Y-89094800D03*
X121818400Y-89394800D03*
X115218400Y-89694800D03*
X121818400Y-89994800D03*
X115218400Y-90294800D03*
X121818400Y-90594800D03*
X115218400Y-90894800D03*
X121818400Y-91194800D03*
X115218400Y-91494800D03*
X121818400Y-91794800D03*
X115218400Y-92094800D03*
X121818400Y-92394800D03*
X115218400Y-92694800D03*
X121818400Y-92994800D03*
X115218400Y-93294800D03*
X121818400Y-93594800D03*
X115218400Y-93894800D03*
X121818400Y-94194800D03*
X115218400Y-94494800D03*
X121818400Y-94794800D03*
X115218400Y-95094800D03*
X121818400Y-95394800D03*
X115218400Y-95694800D03*
X121818400Y-95994800D03*
X115218400Y-96294800D03*
X121818400Y-96594800D03*
X115218400Y-96894800D03*
X121818400Y-97194800D03*
X115218400Y-97494800D03*
X121818400Y-97794800D03*
X115218400Y-98094800D03*
X121818400Y-98394800D03*
X115218400Y-98694800D03*
X121818400Y-98994800D03*
X115218400Y-99294800D03*
X121818400Y-99594800D03*
X115218400Y-99894800D03*
X121818400Y-100194800D03*
X115218400Y-100494800D03*
X121818400Y-100794800D03*
X115218400Y-101094800D03*
X121818400Y-101394800D03*
X115218400Y-101694800D03*
X121818400Y-101994800D03*
X115218400Y-102294800D03*
X121818400Y-102594800D03*
X115218400Y-102894800D03*
X121818400Y-103194800D03*
X115218400Y-103494800D03*
X121818400Y-103794800D03*
X115218400Y-104094800D03*
X121818400Y-104394800D03*
X115218400Y-104694800D03*
X121818400Y-104994800D03*
X115218400Y-105294800D03*
X121818400Y-105594800D03*
X115218400Y-105894800D03*
X121818400Y-106194800D03*
X115218400Y-106494800D03*
X121818400Y-106794800D03*
X115218400Y-107094800D03*
X121818400Y-107394800D03*
X115218400Y-107694800D03*
X121818400Y-107994800D03*
X115218400Y-108294800D03*
X121818400Y-108594800D03*
X115218400Y-108894800D03*
X121818400Y-109194800D03*
X115218400Y-109494800D03*
X121818400Y-109794800D03*
X115218400Y-110094800D03*
X121818400Y-110394800D03*
X115218400Y-110694800D03*
X121818400Y-110994800D03*
X115218400Y-111294800D03*
X121818400Y-111594800D03*
X115218400Y-111894800D03*
X121818400Y-112194800D03*
X115218400Y-112494800D03*
X121818400Y-112794800D03*
X115218400Y-113094800D03*
X121818400Y-113394800D03*
%TD*%
D20*
%TO.C,C2*%
X156442000Y-124877000D03*
X154542000Y-124877000D03*
%TD*%
D21*
%TO.C,U1*%
X148322000Y-122657000D03*
X150622000Y-122657000D03*
X152922000Y-122657000D03*
D22*
X150622000Y-116717000D03*
%TD*%
D10*
%TO.C,J2*%
X156210000Y-42164000D03*
D11*
X158750000Y-42164000D03*
X156210000Y-44704000D03*
X158750000Y-44704000D03*
X156210000Y-47244000D03*
X158750000Y-47244000D03*
X156210000Y-49784000D03*
X158750000Y-49784000D03*
X156210000Y-52324000D03*
X158750000Y-52324000D03*
X156210000Y-54864000D03*
X158750000Y-54864000D03*
X156210000Y-57404000D03*
X158750000Y-57404000D03*
X156210000Y-59944000D03*
X158750000Y-59944000D03*
X156210000Y-62484000D03*
X158750000Y-62484000D03*
X156210000Y-65024000D03*
X158750000Y-65024000D03*
X156210000Y-67564000D03*
X158750000Y-67564000D03*
X156210000Y-70104000D03*
X158750000Y-70104000D03*
X156210000Y-72644000D03*
X158750000Y-72644000D03*
X156210000Y-75184000D03*
X158750000Y-75184000D03*
X156210000Y-77724000D03*
X158750000Y-77724000D03*
X156210000Y-80264000D03*
X158750000Y-80264000D03*
X156210000Y-82804000D03*
X158750000Y-82804000D03*
X156210000Y-85344000D03*
X158750000Y-85344000D03*
X156210000Y-87884000D03*
X158750000Y-87884000D03*
X156210000Y-90424000D03*
X158750000Y-90424000D03*
X156210000Y-92964000D03*
X158750000Y-92964000D03*
X156210000Y-95504000D03*
X158750000Y-95504000D03*
X156210000Y-98044000D03*
X158750000Y-98044000D03*
X156210000Y-100584000D03*
X158750000Y-100584000D03*
X156210000Y-103124000D03*
X158750000Y-103124000D03*
X156210000Y-105664000D03*
X158750000Y-105664000D03*
X156210000Y-108204000D03*
X158750000Y-108204000D03*
X156210000Y-110744000D03*
X158750000Y-110744000D03*
X156210000Y-113284000D03*
X158750000Y-113284000D03*
X156210000Y-115824000D03*
X158750000Y-115824000D03*
X156210000Y-118364000D03*
X158750000Y-118364000D03*
X156210000Y-120904000D03*
X158750000Y-120904000D03*
%TD*%
D14*
%TO.C,C5*%
X108568400Y-112506400D03*
X108568400Y-114406400D03*
%TD*%
D15*
%TO.C,J4*%
X101523800Y-42138600D03*
D16*
X102523800Y-42138600D03*
X103523800Y-42138600D03*
X104523800Y-42138600D03*
X105523800Y-42138600D03*
X106523800Y-42138600D03*
X107523800Y-42138600D03*
X108523800Y-42138600D03*
X109523800Y-42138600D03*
X110523800Y-42138600D03*
X111523800Y-42138600D03*
X112523800Y-42138600D03*
X113523800Y-42138600D03*
X114523800Y-42138600D03*
%TD*%
D10*
%TO.C,J4-GND1*%
X152349200Y-46532800D03*
%TD*%
D23*
%TO.C,J3*%
X110819000Y-121200000D03*
X105019000Y-121200000D03*
D24*
X104569000Y-119940000D03*
X105369000Y-119940000D03*
X106669000Y-119940000D03*
X107669000Y-119940000D03*
X108169000Y-119940000D03*
X109169000Y-119940000D03*
X110469000Y-119940000D03*
X111269000Y-119940000D03*
X110969000Y-119940000D03*
X110169000Y-119940000D03*
X109669000Y-119940000D03*
X108669000Y-119940000D03*
X107169000Y-119940000D03*
X106169000Y-119940000D03*
X105669000Y-119940000D03*
X104869000Y-119940000D03*
D25*
X112249000Y-120700000D03*
D26*
X112249000Y-124900000D03*
X103589000Y-124900000D03*
D25*
X103589000Y-120700000D03*
%TD*%
D27*
%TO.C,R1*%
X102904000Y-118610000D03*
X101254000Y-118610000D03*
%TD*%
D28*
%TO.C,FB1*%
X102124000Y-116514000D03*
X105274000Y-116514000D03*
%TD*%
D29*
%TO.C,F1*%
X107399000Y-116374000D03*
X110299000Y-116374000D03*
%TD*%
M02*
