%TF.GenerationSoftware,KiCad,Pcbnew,6.0.6-3a73a75311~116~ubuntu20.04.1*%
%TF.CreationDate,2022-07-23T11:11:57+07:00*%
%TF.ProjectId,Colorlight2QMTech,436f6c6f-726c-4696-9768-7432514d5465,rev?*%
%TF.SameCoordinates,Original*%
%TF.FileFunction,Copper,L2,Inr*%
%TF.FilePolarity,Positive*%
%FSLAX46Y46*%
G04 Gerber Fmt 4.6, Leading zero omitted, Abs format (unit mm)*
G04 Created by KiCad (PCBNEW 6.0.6-3a73a75311~116~ubuntu20.04.1) date 2022-07-23 11:11:57*
%MOMM*%
%LPD*%
G01*
G04 APERTURE LIST*
%TA.AperFunction,ComponentPad*%
%ADD10C,2.000000*%
%TD*%
%TA.AperFunction,ComponentPad*%
%ADD11R,1.520000X1.520000*%
%TD*%
%TA.AperFunction,ComponentPad*%
%ADD12C,1.520000*%
%TD*%
%TA.AperFunction,ComponentPad*%
%ADD13C,2.160000*%
%TD*%
%TA.AperFunction,ComponentPad*%
%ADD14C,1.700000*%
%TD*%
%TA.AperFunction,ComponentPad*%
%ADD15C,3.250000*%
%TD*%
%TA.AperFunction,ComponentPad*%
%ADD16R,1.700000X1.700000*%
%TD*%
%TA.AperFunction,ComponentPad*%
%ADD17O,1.700000X1.700000*%
%TD*%
%TA.AperFunction,ComponentPad*%
%ADD18C,0.750000*%
%TD*%
%TA.AperFunction,ComponentPad*%
%ADD19O,1.200000X2.000000*%
%TD*%
%TA.AperFunction,ComponentPad*%
%ADD20O,1.200000X1.800000*%
%TD*%
%TA.AperFunction,ViaPad*%
%ADD21C,0.950000*%
%TD*%
%TA.AperFunction,ViaPad*%
%ADD22C,0.450000*%
%TD*%
%TA.AperFunction,ViaPad*%
%ADD23C,1.900000*%
%TD*%
%TA.AperFunction,Conductor*%
%ADD24C,2.000000*%
%TD*%
G04 APERTURE END LIST*
D10*
%TO.N,*%
%TO.C,CN1*%
X118770000Y-115100000D03*
X118770000Y-48300000D03*
%TD*%
D11*
%TO.N,Net-(C6-Pad2)*%
%TO.C,RJ2*%
X143066200Y-41006800D03*
D12*
%TO.N,/eth2_1+*%
X141786200Y-38466800D03*
%TO.N,/eth2_1-*%
X140416200Y-41006800D03*
%TO.N,/eth2_2+*%
X139246200Y-38466800D03*
%TO.N,/eth2_3+*%
X137876200Y-41006800D03*
%TO.N,/eth2_3-*%
X136706200Y-38466800D03*
%TO.N,/eth2_2-*%
X135336200Y-41006800D03*
%TO.N,/eth2_4+*%
X134166200Y-38466800D03*
D13*
%TO.N,GND*%
X145236200Y-35166800D03*
X129236200Y-35166800D03*
D14*
%TO.N,Net-(R4-Pad2)*%
X130636200Y-27166800D03*
%TO.N,GND*%
X133176200Y-27166800D03*
%TO.N,Net-(R2-Pad2)*%
X143836200Y-27166800D03*
%TO.N,GND*%
X141296200Y-27166800D03*
D12*
%TO.N,/eth2_4-*%
X132796200Y-41006800D03*
%TO.N,unconnected-(RJ2-PadP10)*%
X131626200Y-38466800D03*
D15*
%TO.N,*%
X131536200Y-32116800D03*
X142936200Y-32116800D03*
%TD*%
D11*
%TO.N,Net-(C7-Pad2)*%
%TO.C,RJ1*%
X113068800Y-41006800D03*
D12*
%TO.N,/eth1_1+*%
X111788800Y-38466800D03*
%TO.N,/eth1_1-*%
X110418800Y-41006800D03*
%TO.N,/eth1_2+*%
X109248800Y-38466800D03*
%TO.N,/eth1_3+*%
X107878800Y-41006800D03*
%TO.N,/eth1_3-*%
X106708800Y-38466800D03*
%TO.N,/eth1_2-*%
X105338800Y-41006800D03*
%TO.N,/eth1_4+*%
X104168800Y-38466800D03*
D13*
%TO.N,GND*%
X115238800Y-35166800D03*
X99238800Y-35166800D03*
D14*
%TO.N,Net-(R5-Pad2)*%
X100638800Y-27166800D03*
%TO.N,GND*%
X103178800Y-27166800D03*
%TO.N,Net-(R3-Pad2)*%
X113838800Y-27166800D03*
%TO.N,GND*%
X111298800Y-27166800D03*
D12*
%TO.N,/eth1_4-*%
X102798800Y-41006800D03*
%TO.N,unconnected-(RJ1-PadP10)*%
X101628800Y-38466800D03*
D15*
%TO.N,*%
X101538800Y-32116800D03*
X112938800Y-32116800D03*
%TD*%
D16*
%TO.N,GND*%
%TO.C,J1*%
X95250000Y-42164000D03*
D17*
X97790000Y-42164000D03*
%TO.N,+3V3*%
X95250000Y-44704000D03*
X97790000Y-44704000D03*
%TO.N,GND*%
X95250000Y-47244000D03*
X97790000Y-47244000D03*
%TO.N,/U16*%
X95250000Y-49784000D03*
%TO.N,/R1*%
X97790000Y-49784000D03*
%TO.N,/C18*%
X95250000Y-52324000D03*
%TO.N,/K18*%
X97790000Y-52324000D03*
%TO.N,/R18*%
X95250000Y-54864000D03*
%TO.N,/T18*%
X97790000Y-54864000D03*
%TO.N,/P17*%
X95250000Y-57404000D03*
%TO.N,/R17*%
X97790000Y-57404000D03*
%TO.N,/T17*%
X95250000Y-59944000D03*
%TO.N,/M17*%
X97790000Y-59944000D03*
%TO.N,/U17*%
X95250000Y-62484000D03*
%TO.N,/U18*%
X97790000Y-62484000D03*
%TO.N,/N17*%
X95250000Y-65024000D03*
%TO.N,/P18*%
X97790000Y-65024000D03*
%TO.N,/M18*%
X95250000Y-67564000D03*
%TO.N,/N18*%
X97790000Y-67564000D03*
%TO.N,/L18*%
X95250000Y-70104000D03*
%TO.N,/L20*%
X97790000Y-70104000D03*
%TO.N,/K19*%
X95250000Y-72644000D03*
%TO.N,/K20*%
X97790000Y-72644000D03*
%TO.N,/J19*%
X95250000Y-75184000D03*
%TO.N,/J20*%
X97790000Y-75184000D03*
%TO.N,/G20*%
X95250000Y-77724000D03*
%TO.N,/H20*%
X97790000Y-77724000D03*
%TO.N,/F20*%
X95250000Y-80264000D03*
%TO.N,/G19*%
X97790000Y-80264000D03*
%TO.N,/E20*%
X95250000Y-82804000D03*
%TO.N,/F19*%
X97790000Y-82804000D03*
%TO.N,/D20*%
X95250000Y-85344000D03*
%TO.N,/E19*%
X97790000Y-85344000D03*
%TO.N,/C20*%
X95250000Y-87884000D03*
%TO.N,/D19*%
X97790000Y-87884000D03*
%TO.N,/B19*%
X95250000Y-90424000D03*
%TO.N,/B20*%
X97790000Y-90424000D03*
%TO.N,/A19*%
X95250000Y-92964000D03*
%TO.N,/B18*%
X97790000Y-92964000D03*
%TO.N,/A18*%
X95250000Y-95504000D03*
%TO.N,/C17*%
X97790000Y-95504000D03*
%TO.N,/C4*%
X95250000Y-98044000D03*
%TO.N,/D3*%
X97790000Y-98044000D03*
%TO.N,/C3*%
X95250000Y-100584000D03*
%TO.N,/B4*%
X97790000Y-100584000D03*
%TO.N,/A3*%
X95250000Y-103124000D03*
%TO.N,/E3*%
X97790000Y-103124000D03*
%TO.N,/B1*%
X95250000Y-105664000D03*
%TO.N,/C2*%
X97790000Y-105664000D03*
%TO.N,/D2*%
X95250000Y-108204000D03*
%TO.N,/C1*%
X97790000Y-108204000D03*
%TO.N,/E2*%
X95250000Y-110744000D03*
%TO.N,/D1*%
X97790000Y-110744000D03*
%TO.N,/F2*%
X95250000Y-113284000D03*
%TO.N,/E1*%
X97790000Y-113284000D03*
%TO.N,unconnected-(J1-Pad59)*%
X95250000Y-115824000D03*
%TO.N,unconnected-(J1-Pad60)*%
X97790000Y-115824000D03*
%TO.N,GND*%
X95250000Y-118364000D03*
X97790000Y-118364000D03*
%TO.N,+5V*%
X95250000Y-120904000D03*
X97790000Y-120904000D03*
%TD*%
D16*
%TO.N,/LED_G_1*%
%TO.C,J4*%
X157403800Y-30581600D03*
D17*
%TO.N,/LED_Y_1*%
X157403800Y-33121600D03*
%TO.N,/LED_G_2*%
X157403800Y-35661600D03*
%TO.N,/LED_Y_2*%
X157403800Y-38201600D03*
%TD*%
D16*
%TO.N,GND*%
%TO.C,J2*%
X156210000Y-42164000D03*
D17*
X158750000Y-42164000D03*
%TO.N,+3V3*%
X156210000Y-44704000D03*
X158750000Y-44704000D03*
%TO.N,GND*%
X156210000Y-47244000D03*
X158750000Y-47244000D03*
%TO.N,/T1*%
X156210000Y-49784000D03*
%TO.N,/U1*%
X158750000Y-49784000D03*
%TO.N,/Y2*%
X156210000Y-52324000D03*
%TO.N,/W1*%
X158750000Y-52324000D03*
%TO.N,/V1*%
X156210000Y-54864000D03*
%TO.N,/M1*%
X158750000Y-54864000D03*
%TO.N,/N2*%
X156210000Y-57404000D03*
%TO.N,/N3*%
X158750000Y-57404000D03*
%TO.N,/T2*%
X156210000Y-59944000D03*
%TO.N,/M3*%
X158750000Y-59944000D03*
%TO.N,/T3*%
X156210000Y-62484000D03*
%TO.N,/R3*%
X158750000Y-62484000D03*
%TO.N,/N4*%
X156210000Y-65024000D03*
%TO.N,/M4*%
X158750000Y-65024000D03*
%TO.N,/L4*%
X156210000Y-67564000D03*
%TO.N,/L5*%
X158750000Y-67564000D03*
%TO.N,/P16*%
X156210000Y-70104000D03*
%TO.N,/J16*%
X158750000Y-70104000D03*
%TO.N,/J18*%
X156210000Y-72644000D03*
%TO.N,/J17*%
X158750000Y-72644000D03*
%TO.N,/H18*%
X156210000Y-75184000D03*
%TO.N,/H17*%
X158750000Y-75184000D03*
%TO.N,/G18*%
X156210000Y-77724000D03*
%TO.N,/H16*%
X158750000Y-77724000D03*
%TO.N,/F18*%
X156210000Y-80264000D03*
%TO.N,/G16*%
X158750000Y-80264000D03*
%TO.N,/E18*%
X156210000Y-82804000D03*
%TO.N,/F17*%
X158750000Y-82804000D03*
%TO.N,/F16*%
X156210000Y-85344000D03*
%TO.N,/E16*%
X158750000Y-85344000D03*
%TO.N,/E17*%
X156210000Y-87884000D03*
%TO.N,/D18*%
X158750000Y-87884000D03*
%TO.N,/D17*%
X156210000Y-90424000D03*
%TO.N,/G5*%
X158750000Y-90424000D03*
%TO.N,/D16*%
X156210000Y-92964000D03*
%TO.N,/F5*%
X158750000Y-92964000D03*
%TO.N,/E6*%
X156210000Y-95504000D03*
%TO.N,/E5*%
X158750000Y-95504000D03*
%TO.N,/F4*%
X156210000Y-98044000D03*
%TO.N,/E4*%
X158750000Y-98044000D03*
%TO.N,/F1*%
X156210000Y-100584000D03*
%TO.N,/F3*%
X158750000Y-100584000D03*
%TO.N,/G3*%
X156210000Y-103124000D03*
%TO.N,/H3*%
X158750000Y-103124000D03*
%TO.N,/H4*%
X156210000Y-105664000D03*
%TO.N,/H5*%
X158750000Y-105664000D03*
%TO.N,/J4*%
X156210000Y-108204000D03*
%TO.N,/J5*%
X158750000Y-108204000D03*
%TO.N,/K3*%
X156210000Y-110744000D03*
%TO.N,/K4*%
X158750000Y-110744000D03*
%TO.N,/K5*%
X156210000Y-113284000D03*
%TO.N,/B3*%
X158750000Y-113284000D03*
%TO.N,/A2*%
X156210000Y-115824000D03*
%TO.N,/B2*%
X158750000Y-115824000D03*
%TO.N,GND*%
X156210000Y-118364000D03*
X158750000Y-118364000D03*
%TO.N,+5V*%
X156210000Y-120904000D03*
X158750000Y-120904000D03*
%TD*%
D18*
%TO.N,*%
%TO.C,J3*%
X110819000Y-121200000D03*
X105019000Y-121200000D03*
D19*
%TO.N,Net-(J3-PadS1)*%
X112249000Y-120700000D03*
D20*
X112249000Y-124900000D03*
X103589000Y-124900000D03*
D19*
X103589000Y-120700000D03*
%TD*%
D21*
%TO.N,GND*%
X111961300Y-112903200D03*
D22*
X106426000Y-110312200D03*
X110998000Y-50088800D03*
X112877600Y-61163200D03*
X143357600Y-48895000D03*
X111225000Y-44925000D03*
X132892800Y-39395400D03*
X137287000Y-27127200D03*
X109524800Y-106299000D03*
X110109000Y-47980600D03*
X137795000Y-51968400D03*
X116967000Y-53670200D03*
X133324600Y-106172000D03*
X140233400Y-109804200D03*
X132689600Y-45897800D03*
X128016000Y-103378000D03*
X124739400Y-108254800D03*
X132275000Y-42425000D03*
X130683000Y-104825800D03*
X111074200Y-104267000D03*
X116967000Y-61468000D03*
X111252000Y-62331600D03*
X107924600Y-108331000D03*
X132613400Y-48564800D03*
X133400800Y-57683400D03*
X138480800Y-57937400D03*
X140436600Y-49530000D03*
X102793800Y-42570400D03*
X110185200Y-59639200D03*
X116967000Y-57277000D03*
D21*
X158262000Y-124948000D03*
D22*
X110100000Y-52050000D03*
X150342600Y-114833400D03*
X116992400Y-51358800D03*
D21*
X118668800Y-85394800D03*
D22*
X140512800Y-42621200D03*
X102946200Y-52857400D03*
X112450000Y-46325000D03*
D21*
X118470000Y-100478000D03*
D22*
X137617200Y-48793400D03*
X119888000Y-55778400D03*
X101574600Y-50342800D03*
X116967000Y-60858400D03*
X124764800Y-61341000D03*
X112522000Y-102184200D03*
X110490000Y-39446200D03*
X133553200Y-60452000D03*
X142798800Y-110947200D03*
X123875800Y-65125600D03*
X113334800Y-53365400D03*
X116967000Y-59080400D03*
X137693400Y-45466000D03*
D21*
X104343200Y-118389400D03*
D22*
X140360400Y-52933600D03*
X124739400Y-105054400D03*
X128574800Y-59588400D03*
X109956600Y-43281600D03*
D21*
X104343200Y-118389400D03*
D22*
X124739400Y-111836200D03*
X105486200Y-39370000D03*
X103428800Y-39700200D03*
X136753600Y-108077000D03*
X145364200Y-112268000D03*
X111850000Y-48200000D03*
X119888000Y-54000400D03*
X124739400Y-101828600D03*
X119888000Y-61188600D03*
X108000800Y-39420800D03*
X154584400Y-49631600D03*
X143459200Y-46583600D03*
X142824200Y-50673000D03*
X119888000Y-61798200D03*
X132638800Y-52019200D03*
X137900000Y-42722800D03*
X135407400Y-39420800D03*
X116967000Y-55473600D03*
X131978400Y-44119800D03*
X116967000Y-53060600D03*
X119888000Y-57581800D03*
X140462000Y-45415200D03*
X102997000Y-46253400D03*
X117271800Y-48895000D03*
X128600200Y-63042800D03*
X130937000Y-53771800D03*
X111000000Y-53900000D03*
X101650800Y-47879000D03*
X106146600Y-55880000D03*
X157353000Y-28676600D03*
X113360200Y-49733200D03*
D21*
X104343200Y-118389400D03*
X118719600Y-70053200D03*
D22*
X112750600Y-43332400D03*
X115036600Y-46913800D03*
X141478000Y-56311800D03*
X144322800Y-54305200D03*
X152196800Y-50825400D03*
X135509000Y-55778400D03*
X105525000Y-42775000D03*
X113639600Y-64668400D03*
X149275800Y-52146200D03*
X119888000Y-59385200D03*
D23*
%TO.N,+3V3*%
X147112000Y-116347000D03*
D22*
%TO.N,+5V*%
X124527000Y-52777000D03*
D21*
X100656000Y-116514000D03*
D22*
X119888000Y-53390800D03*
X124510000Y-50380000D03*
X124527000Y-52177000D03*
X124510000Y-50975000D03*
X124502000Y-51577000D03*
X124527000Y-53377000D03*
%TO.N,/eth2_2-*%
X137191912Y-55657912D03*
%TO.N,/eth2_2+*%
X137686888Y-56152888D03*
%TO.N,/eth2_3+*%
X129819400Y-58144800D03*
%TO.N,/eth2_3-*%
X129819400Y-58844800D03*
%TO.N,/eth2_4-*%
X126187113Y-59944800D03*
%TO.N,/eth2_4+*%
X126187113Y-60644800D03*
%TO.N,/LED_Y_2*%
X135737600Y-28854400D03*
%TD*%
D24*
%TO.N,GND*%
X158750000Y-47244000D02*
X153670000Y-47244000D01*
X100330000Y-47244000D02*
X95250000Y-47244000D01*
X100330000Y-118364000D02*
X95250000Y-118364000D01*
X158750000Y-118364000D02*
X153670000Y-118364000D01*
X100076000Y-42164000D02*
X94996000Y-42164000D01*
X158750000Y-42164000D02*
X153670000Y-42164000D01*
%TD*%
%TA.AperFunction,Conductor*%
%TO.N,GND*%
G36*
X99543651Y-26131702D02*
G01*
X99590144Y-26185358D01*
X99600248Y-26255632D01*
X99577564Y-26307666D01*
X99579429Y-26308938D01*
X99453543Y-26493480D01*
X99359488Y-26696105D01*
X99299789Y-26911370D01*
X99276051Y-27133495D01*
X99276348Y-27138648D01*
X99276348Y-27138651D01*
X99281811Y-27233390D01*
X99288910Y-27356515D01*
X99290047Y-27361561D01*
X99290048Y-27361567D01*
X99309919Y-27449739D01*
X99338022Y-27574439D01*
X99422066Y-27781416D01*
X99424765Y-27785820D01*
X99536088Y-27967483D01*
X99538787Y-27971888D01*
X99685050Y-28140738D01*
X99856926Y-28283432D01*
X100049800Y-28396138D01*
X100258492Y-28475830D01*
X100263560Y-28476861D01*
X100263563Y-28476862D01*
X100368404Y-28498192D01*
X100477397Y-28520367D01*
X100482572Y-28520557D01*
X100482574Y-28520557D01*
X100695473Y-28528364D01*
X100695477Y-28528364D01*
X100700637Y-28528553D01*
X100705757Y-28527897D01*
X100705759Y-28527897D01*
X100917088Y-28500825D01*
X100917089Y-28500825D01*
X100922216Y-28500168D01*
X100927166Y-28498683D01*
X101131229Y-28437461D01*
X101131234Y-28437459D01*
X101136184Y-28435974D01*
X101336794Y-28337696D01*
X101401344Y-28291653D01*
X102418777Y-28291653D01*
X102424058Y-28298707D01*
X102585556Y-28393079D01*
X102594842Y-28397529D01*
X102793801Y-28473503D01*
X102803699Y-28476379D01*
X103012395Y-28518838D01*
X103022623Y-28520057D01*
X103235450Y-28527862D01*
X103245736Y-28527395D01*
X103456985Y-28500334D01*
X103467062Y-28498192D01*
X103671055Y-28436991D01*
X103680642Y-28433233D01*
X103871898Y-28339538D01*
X103880744Y-28334265D01*
X103928047Y-28300523D01*
X103935011Y-28291653D01*
X110538777Y-28291653D01*
X110544058Y-28298707D01*
X110705556Y-28393079D01*
X110714842Y-28397529D01*
X110913801Y-28473503D01*
X110923699Y-28476379D01*
X111132395Y-28518838D01*
X111142623Y-28520057D01*
X111355450Y-28527862D01*
X111365736Y-28527395D01*
X111576985Y-28500334D01*
X111587062Y-28498192D01*
X111791055Y-28436991D01*
X111800642Y-28433233D01*
X111991898Y-28339538D01*
X112000744Y-28334265D01*
X112048047Y-28300523D01*
X112056448Y-28289823D01*
X112049460Y-28276670D01*
X111311612Y-27538822D01*
X111297668Y-27531208D01*
X111295835Y-27531339D01*
X111289220Y-27535590D01*
X110545537Y-28279273D01*
X110538777Y-28291653D01*
X103935011Y-28291653D01*
X103936448Y-28289823D01*
X103929460Y-28276670D01*
X103191612Y-27538822D01*
X103177668Y-27531208D01*
X103175835Y-27531339D01*
X103169220Y-27535590D01*
X102425537Y-28279273D01*
X102418777Y-28291653D01*
X101401344Y-28291653D01*
X101518660Y-28207973D01*
X101531940Y-28194740D01*
X101673235Y-28053937D01*
X101676896Y-28050289D01*
X101736394Y-27967489D01*
X101807253Y-27868877D01*
X101808440Y-27869730D01*
X101855760Y-27826162D01*
X101925697Y-27813945D01*
X101991138Y-27841478D01*
X102018966Y-27873312D01*
X102045259Y-27916219D01*
X102055716Y-27925680D01*
X102064494Y-27921896D01*
X103089705Y-26896685D01*
X103152017Y-26862659D01*
X103222832Y-26867724D01*
X103267895Y-26896685D01*
X104289274Y-27918064D01*
X104301284Y-27924623D01*
X104313023Y-27915655D01*
X104343804Y-27872819D01*
X104349115Y-27863980D01*
X104443470Y-27673067D01*
X104447269Y-27663472D01*
X104509176Y-27459715D01*
X104511355Y-27449634D01*
X104539390Y-27236687D01*
X104539909Y-27230012D01*
X104541372Y-27170164D01*
X104541178Y-27163446D01*
X104523581Y-26949404D01*
X104521896Y-26939224D01*
X104470014Y-26732675D01*
X104466694Y-26722924D01*
X104381772Y-26527614D01*
X104376905Y-26518539D01*
X104261226Y-26339726D01*
X104254936Y-26331557D01*
X104246695Y-26322501D01*
X104215642Y-26258656D01*
X104224036Y-26188157D01*
X104269212Y-26133388D01*
X104339887Y-26111700D01*
X110136176Y-26111700D01*
X110204297Y-26131702D01*
X110250790Y-26185358D01*
X110260894Y-26255632D01*
X110238025Y-26308030D01*
X110239819Y-26309254D01*
X110116898Y-26489449D01*
X110111800Y-26498423D01*
X110022138Y-26691583D01*
X110018575Y-26701270D01*
X109961664Y-26906481D01*
X109959733Y-26916600D01*
X109937102Y-27128374D01*
X109936850Y-27138663D01*
X109949109Y-27351277D01*
X109950545Y-27361497D01*
X109997365Y-27569246D01*
X110000445Y-27579075D01*
X110080570Y-27776403D01*
X110085213Y-27785594D01*
X110165260Y-27916220D01*
X110175716Y-27925680D01*
X110184494Y-27921896D01*
X111209705Y-26896685D01*
X111272017Y-26862659D01*
X111342832Y-26867724D01*
X111387895Y-26896685D01*
X112409274Y-27918064D01*
X112421284Y-27924623D01*
X112433023Y-27915655D01*
X112466822Y-27868619D01*
X112468077Y-27869521D01*
X112515191Y-27826155D01*
X112585130Y-27813948D01*
X112650567Y-27841491D01*
X112678380Y-27873313D01*
X112736087Y-27967483D01*
X112736091Y-27967488D01*
X112738787Y-27971888D01*
X112885050Y-28140738D01*
X113056926Y-28283432D01*
X113249800Y-28396138D01*
X113458492Y-28475830D01*
X113463560Y-28476861D01*
X113463563Y-28476862D01*
X113568404Y-28498192D01*
X113677397Y-28520367D01*
X113682572Y-28520557D01*
X113682574Y-28520557D01*
X113895473Y-28528364D01*
X113895477Y-28528364D01*
X113900637Y-28528553D01*
X113905757Y-28527897D01*
X113905759Y-28527897D01*
X114117088Y-28500825D01*
X114117089Y-28500825D01*
X114122216Y-28500168D01*
X114127166Y-28498683D01*
X114331229Y-28437461D01*
X114331234Y-28437459D01*
X114336184Y-28435974D01*
X114536794Y-28337696D01*
X114718660Y-28207973D01*
X114731940Y-28194740D01*
X114873235Y-28053937D01*
X114876896Y-28050289D01*
X114936394Y-27967489D01*
X115004235Y-27873077D01*
X115007253Y-27868877D01*
X115009674Y-27863980D01*
X115103936Y-27673253D01*
X115103937Y-27673251D01*
X115106230Y-27668611D01*
X115171170Y-27454869D01*
X115200329Y-27233390D01*
X115201956Y-27166800D01*
X115183652Y-26944161D01*
X115129231Y-26727502D01*
X115040154Y-26522640D01*
X114918814Y-26335077D01*
X114915340Y-26331259D01*
X114915333Y-26331250D01*
X114907370Y-26322499D01*
X114876318Y-26258653D01*
X114884714Y-26188154D01*
X114929891Y-26133386D01*
X115000564Y-26111700D01*
X129472930Y-26111700D01*
X129541051Y-26131702D01*
X129587544Y-26185358D01*
X129597648Y-26255632D01*
X129574964Y-26307666D01*
X129576829Y-26308938D01*
X129450943Y-26493480D01*
X129356888Y-26696105D01*
X129297189Y-26911370D01*
X129273451Y-27133495D01*
X129273748Y-27138648D01*
X129273748Y-27138651D01*
X129279211Y-27233390D01*
X129286310Y-27356515D01*
X129287447Y-27361561D01*
X129287448Y-27361567D01*
X129307319Y-27449739D01*
X129335422Y-27574439D01*
X129419466Y-27781416D01*
X129422165Y-27785820D01*
X129533488Y-27967483D01*
X129536187Y-27971888D01*
X129682450Y-28140738D01*
X129854326Y-28283432D01*
X130047200Y-28396138D01*
X130255892Y-28475830D01*
X130260960Y-28476861D01*
X130260963Y-28476862D01*
X130365804Y-28498192D01*
X130474797Y-28520367D01*
X130479972Y-28520557D01*
X130479974Y-28520557D01*
X130692873Y-28528364D01*
X130692877Y-28528364D01*
X130698037Y-28528553D01*
X130703157Y-28527897D01*
X130703159Y-28527897D01*
X130914488Y-28500825D01*
X130914489Y-28500825D01*
X130919616Y-28500168D01*
X130924566Y-28498683D01*
X131128629Y-28437461D01*
X131128634Y-28437459D01*
X131133584Y-28435974D01*
X131334194Y-28337696D01*
X131398744Y-28291653D01*
X132416177Y-28291653D01*
X132421458Y-28298707D01*
X132582956Y-28393079D01*
X132592242Y-28397529D01*
X132791201Y-28473503D01*
X132801099Y-28476379D01*
X133009795Y-28518838D01*
X133020023Y-28520057D01*
X133232850Y-28527862D01*
X133243136Y-28527395D01*
X133454385Y-28500334D01*
X133464462Y-28498192D01*
X133668455Y-28436991D01*
X133678042Y-28433233D01*
X133869298Y-28339538D01*
X133878144Y-28334265D01*
X133925447Y-28300523D01*
X133933848Y-28289823D01*
X133926860Y-28276670D01*
X133189012Y-27538822D01*
X133175068Y-27531208D01*
X133173235Y-27531339D01*
X133166620Y-27535590D01*
X132422937Y-28279273D01*
X132416177Y-28291653D01*
X131398744Y-28291653D01*
X131516060Y-28207973D01*
X131529340Y-28194740D01*
X131670635Y-28053937D01*
X131674296Y-28050289D01*
X131733794Y-27967489D01*
X131804653Y-27868877D01*
X131805840Y-27869730D01*
X131853160Y-27826162D01*
X131923097Y-27813945D01*
X131988538Y-27841478D01*
X132016366Y-27873312D01*
X132042659Y-27916219D01*
X132053116Y-27925680D01*
X132061894Y-27921896D01*
X133087105Y-26896685D01*
X133149417Y-26862659D01*
X133220232Y-26867724D01*
X133265295Y-26896685D01*
X134286674Y-27918064D01*
X134298684Y-27924623D01*
X134310423Y-27915655D01*
X134341204Y-27872819D01*
X134346515Y-27863980D01*
X134440870Y-27673067D01*
X134444669Y-27663472D01*
X134506576Y-27459715D01*
X134508755Y-27449634D01*
X134536790Y-27236687D01*
X134537309Y-27230012D01*
X134538772Y-27170164D01*
X134538578Y-27163446D01*
X134520981Y-26949404D01*
X134519296Y-26939224D01*
X134467414Y-26732675D01*
X134464094Y-26722924D01*
X134379172Y-26527614D01*
X134374305Y-26518539D01*
X134258626Y-26339726D01*
X134252336Y-26331557D01*
X134244095Y-26322501D01*
X134213042Y-26258656D01*
X134221436Y-26188157D01*
X134266612Y-26133388D01*
X134337287Y-26111700D01*
X140133576Y-26111700D01*
X140201697Y-26131702D01*
X140248190Y-26185358D01*
X140258294Y-26255632D01*
X140235425Y-26308030D01*
X140237219Y-26309254D01*
X140114298Y-26489449D01*
X140109200Y-26498423D01*
X140019538Y-26691583D01*
X140015975Y-26701270D01*
X139959064Y-26906481D01*
X139957133Y-26916600D01*
X139934502Y-27128374D01*
X139934250Y-27138663D01*
X139946509Y-27351277D01*
X139947945Y-27361497D01*
X139994765Y-27569246D01*
X139997845Y-27579075D01*
X140077970Y-27776403D01*
X140082613Y-27785594D01*
X140162660Y-27916220D01*
X140173116Y-27925680D01*
X140181894Y-27921896D01*
X141207105Y-26896685D01*
X141269417Y-26862659D01*
X141340232Y-26867724D01*
X141385295Y-26896685D01*
X142406674Y-27918064D01*
X142418684Y-27924623D01*
X142430423Y-27915655D01*
X142464222Y-27868619D01*
X142465477Y-27869521D01*
X142512591Y-27826155D01*
X142582530Y-27813948D01*
X142647967Y-27841491D01*
X142675780Y-27873313D01*
X142733487Y-27967483D01*
X142733491Y-27967488D01*
X142736187Y-27971888D01*
X142882450Y-28140738D01*
X143054326Y-28283432D01*
X143247200Y-28396138D01*
X143455892Y-28475830D01*
X143460960Y-28476861D01*
X143460963Y-28476862D01*
X143565804Y-28498192D01*
X143674797Y-28520367D01*
X143679972Y-28520557D01*
X143679974Y-28520557D01*
X143892873Y-28528364D01*
X143892877Y-28528364D01*
X143898037Y-28528553D01*
X143903157Y-28527897D01*
X143903159Y-28527897D01*
X144114488Y-28500825D01*
X144114489Y-28500825D01*
X144119616Y-28500168D01*
X144124566Y-28498683D01*
X144328629Y-28437461D01*
X144328634Y-28437459D01*
X144333584Y-28435974D01*
X144534194Y-28337696D01*
X144716060Y-28207973D01*
X144729340Y-28194740D01*
X144870635Y-28053937D01*
X144874296Y-28050289D01*
X144933794Y-27967489D01*
X145001635Y-27873077D01*
X145004653Y-27868877D01*
X145007074Y-27863980D01*
X145101336Y-27673253D01*
X145101337Y-27673251D01*
X145103630Y-27668611D01*
X145168570Y-27454869D01*
X145197729Y-27233390D01*
X145199356Y-27166800D01*
X145181052Y-26944161D01*
X145126631Y-26727502D01*
X145037554Y-26522640D01*
X144916214Y-26335077D01*
X144912740Y-26331259D01*
X144912733Y-26331250D01*
X144904770Y-26322499D01*
X144873718Y-26258653D01*
X144882114Y-26188154D01*
X144927291Y-26133386D01*
X144997964Y-26111700D01*
X159385500Y-26111700D01*
X159453621Y-26131702D01*
X159500114Y-26185358D01*
X159511500Y-26237700D01*
X159511500Y-40819633D01*
X159491498Y-40887754D01*
X159437842Y-40934247D01*
X159367568Y-40944351D01*
X159324607Y-40929942D01*
X159313113Y-40923597D01*
X159303705Y-40919369D01*
X159102959Y-40848280D01*
X159092988Y-40845646D01*
X159021837Y-40832972D01*
X159008540Y-40834432D01*
X159004000Y-40848989D01*
X159004000Y-42292000D01*
X158983998Y-42360121D01*
X158930342Y-42406614D01*
X158878000Y-42418000D01*
X154870116Y-42418000D01*
X154854877Y-42422475D01*
X154853672Y-42423865D01*
X154852001Y-42431548D01*
X154852001Y-43058669D01*
X154852371Y-43065490D01*
X154857895Y-43116352D01*
X154861521Y-43131604D01*
X154906676Y-43252054D01*
X154915214Y-43267649D01*
X154991715Y-43369724D01*
X155004276Y-43382285D01*
X155106351Y-43458786D01*
X155121946Y-43467324D01*
X155230827Y-43508142D01*
X155287591Y-43550784D01*
X155312291Y-43617345D01*
X155297083Y-43686694D01*
X155277691Y-43713175D01*
X155154200Y-43842401D01*
X155150629Y-43846138D01*
X155024743Y-44030680D01*
X154930688Y-44233305D01*
X154870989Y-44448570D01*
X154847251Y-44670695D01*
X154847548Y-44675848D01*
X154847548Y-44675851D01*
X154853011Y-44770590D01*
X154860110Y-44893715D01*
X154861247Y-44898761D01*
X154861248Y-44898767D01*
X154881119Y-44986939D01*
X154909222Y-45111639D01*
X154993266Y-45318616D01*
X155044019Y-45401438D01*
X155107291Y-45504688D01*
X155109987Y-45509088D01*
X155256250Y-45677938D01*
X155428126Y-45820632D01*
X155443470Y-45829598D01*
X155501955Y-45863774D01*
X155550679Y-45915412D01*
X155563750Y-45985195D01*
X155537019Y-46050967D01*
X155496562Y-46084327D01*
X155488457Y-46088546D01*
X155479738Y-46094036D01*
X155309433Y-46221905D01*
X155301726Y-46228748D01*
X155154590Y-46382717D01*
X155148104Y-46390727D01*
X155028098Y-46566649D01*
X155023000Y-46575623D01*
X154933338Y-46768783D01*
X154929775Y-46778470D01*
X154874389Y-46978183D01*
X154875912Y-46986607D01*
X154888292Y-46990000D01*
X158878000Y-46990000D01*
X158946121Y-47010002D01*
X158992614Y-47063658D01*
X159004000Y-47116000D01*
X159004000Y-47372000D01*
X158983998Y-47440121D01*
X158930342Y-47486614D01*
X158878000Y-47498000D01*
X154893225Y-47498000D01*
X154879694Y-47501973D01*
X154878257Y-47511966D01*
X154908565Y-47646446D01*
X154911645Y-47656275D01*
X154991770Y-47853603D01*
X154996413Y-47862794D01*
X155107694Y-48044388D01*
X155113777Y-48052699D01*
X155253213Y-48213667D01*
X155260580Y-48220883D01*
X155424434Y-48356916D01*
X155432881Y-48362831D01*
X155501969Y-48403203D01*
X155550693Y-48454842D01*
X155563764Y-48524625D01*
X155537033Y-48590396D01*
X155496584Y-48623752D01*
X155483607Y-48630507D01*
X155479474Y-48633610D01*
X155479471Y-48633612D01*
X155455247Y-48651800D01*
X155304965Y-48764635D01*
X155150629Y-48926138D01*
X155024743Y-49110680D01*
X154930688Y-49313305D01*
X154870989Y-49528570D01*
X154847251Y-49750695D01*
X154847548Y-49755848D01*
X154847548Y-49755851D01*
X154856811Y-49916507D01*
X154860110Y-49973715D01*
X154861247Y-49978761D01*
X154861248Y-49978767D01*
X154882275Y-50072069D01*
X154909222Y-50191639D01*
X154947461Y-50285811D01*
X154987316Y-50383962D01*
X154993266Y-50398616D01*
X155044019Y-50481438D01*
X155107291Y-50584688D01*
X155109987Y-50589088D01*
X155256250Y-50757938D01*
X155428126Y-50900632D01*
X155443470Y-50909598D01*
X155501445Y-50943476D01*
X155550169Y-50995114D01*
X155563240Y-51064897D01*
X155536509Y-51130669D01*
X155496055Y-51164027D01*
X155483607Y-51170507D01*
X155479474Y-51173610D01*
X155479471Y-51173612D01*
X155315773Y-51296520D01*
X155304965Y-51304635D01*
X155150629Y-51466138D01*
X155024743Y-51650680D01*
X154930688Y-51853305D01*
X154870989Y-52068570D01*
X154847251Y-52290695D01*
X154847548Y-52295848D01*
X154847548Y-52295851D01*
X154853011Y-52390590D01*
X154860110Y-52513715D01*
X154861247Y-52518761D01*
X154861248Y-52518767D01*
X154878836Y-52596809D01*
X154909222Y-52731639D01*
X154993266Y-52938616D01*
X155044019Y-53021438D01*
X155107291Y-53124688D01*
X155109987Y-53129088D01*
X155256250Y-53297938D01*
X155428126Y-53440632D01*
X155443470Y-53449598D01*
X155501445Y-53483476D01*
X155550169Y-53535114D01*
X155563240Y-53604897D01*
X155536509Y-53670669D01*
X155496055Y-53704027D01*
X155483607Y-53710507D01*
X155479474Y-53713610D01*
X155479471Y-53713612D01*
X155309100Y-53841530D01*
X155304965Y-53844635D01*
X155301393Y-53848373D01*
X155173357Y-53982355D01*
X155150629Y-54006138D01*
X155147720Y-54010403D01*
X155147714Y-54010411D01*
X155110346Y-54065190D01*
X155024743Y-54190680D01*
X154930688Y-54393305D01*
X154870989Y-54608570D01*
X154847251Y-54830695D01*
X154847548Y-54835848D01*
X154847548Y-54835851D01*
X154856558Y-54992110D01*
X154860110Y-55053715D01*
X154861247Y-55058761D01*
X154861248Y-55058767D01*
X154866299Y-55081178D01*
X154909222Y-55271639D01*
X154947461Y-55365811D01*
X154989305Y-55468860D01*
X154993266Y-55478616D01*
X155044019Y-55561438D01*
X155107291Y-55664688D01*
X155109987Y-55669088D01*
X155256250Y-55837938D01*
X155428126Y-55980632D01*
X155498595Y-56021811D01*
X155501445Y-56023476D01*
X155550169Y-56075114D01*
X155563240Y-56144897D01*
X155536509Y-56210669D01*
X155496055Y-56244027D01*
X155483607Y-56250507D01*
X155479474Y-56253610D01*
X155479471Y-56253612D01*
X155333611Y-56363127D01*
X155304965Y-56384635D01*
X155150629Y-56546138D01*
X155147720Y-56550403D01*
X155147714Y-56550411D01*
X155099231Y-56621485D01*
X155024743Y-56730680D01*
X154930688Y-56933305D01*
X154870989Y-57148570D01*
X154847251Y-57370695D01*
X154847548Y-57375848D01*
X154847548Y-57375851D01*
X154853588Y-57480601D01*
X154860110Y-57593715D01*
X154861247Y-57598761D01*
X154861248Y-57598767D01*
X154878056Y-57673346D01*
X154909222Y-57811639D01*
X154947461Y-57905811D01*
X154974026Y-57971232D01*
X154993266Y-58018616D01*
X155044019Y-58101438D01*
X155107291Y-58204688D01*
X155109987Y-58209088D01*
X155256250Y-58377938D01*
X155428126Y-58520632D01*
X155498595Y-58561811D01*
X155501445Y-58563476D01*
X155550169Y-58615114D01*
X155563240Y-58684897D01*
X155536509Y-58750669D01*
X155496055Y-58784027D01*
X155483607Y-58790507D01*
X155479474Y-58793610D01*
X155479471Y-58793612D01*
X155383845Y-58865410D01*
X155304965Y-58924635D01*
X155150629Y-59086138D01*
X155024743Y-59270680D01*
X155011022Y-59300239D01*
X154947840Y-59436355D01*
X154930688Y-59473305D01*
X154870989Y-59688570D01*
X154847251Y-59910695D01*
X154847548Y-59915848D01*
X154847548Y-59915851D01*
X154853011Y-60010590D01*
X154860110Y-60133715D01*
X154861247Y-60138761D01*
X154861248Y-60138767D01*
X154881119Y-60226939D01*
X154909222Y-60351639D01*
X154993266Y-60558616D01*
X155044942Y-60642944D01*
X155107291Y-60744688D01*
X155109987Y-60749088D01*
X155256250Y-60917938D01*
X155428126Y-61060632D01*
X155443470Y-61069598D01*
X155501445Y-61103476D01*
X155550169Y-61155114D01*
X155563240Y-61224897D01*
X155536509Y-61290669D01*
X155496055Y-61324027D01*
X155483607Y-61330507D01*
X155479474Y-61333610D01*
X155479471Y-61333612D01*
X155413987Y-61382779D01*
X155304965Y-61464635D01*
X155150629Y-61626138D01*
X155024743Y-61810680D01*
X154930688Y-62013305D01*
X154870989Y-62228570D01*
X154847251Y-62450695D01*
X154847548Y-62455848D01*
X154847548Y-62455851D01*
X154853011Y-62550590D01*
X154860110Y-62673715D01*
X154861247Y-62678761D01*
X154861248Y-62678767D01*
X154881119Y-62766939D01*
X154909222Y-62891639D01*
X154993266Y-63098616D01*
X155044019Y-63181438D01*
X155107291Y-63284688D01*
X155109987Y-63289088D01*
X155256250Y-63457938D01*
X155428126Y-63600632D01*
X155443470Y-63609598D01*
X155501445Y-63643476D01*
X155550169Y-63695114D01*
X155563240Y-63764897D01*
X155536509Y-63830669D01*
X155496055Y-63864027D01*
X155483607Y-63870507D01*
X155479474Y-63873610D01*
X155479471Y-63873612D01*
X155455247Y-63891800D01*
X155304965Y-64004635D01*
X155150629Y-64166138D01*
X155024743Y-64350680D01*
X154930688Y-64553305D01*
X154870989Y-64768570D01*
X154847251Y-64990695D01*
X154847548Y-64995848D01*
X154847548Y-64995851D01*
X154853011Y-65090590D01*
X154860110Y-65213715D01*
X154861247Y-65218761D01*
X154861248Y-65218767D01*
X154881119Y-65306939D01*
X154909222Y-65431639D01*
X154993266Y-65638616D01*
X155044019Y-65721438D01*
X155107291Y-65824688D01*
X155109987Y-65829088D01*
X155256250Y-65997938D01*
X155428126Y-66140632D01*
X155443470Y-66149598D01*
X155501445Y-66183476D01*
X155550169Y-66235114D01*
X155563240Y-66304897D01*
X155536509Y-66370669D01*
X155496055Y-66404027D01*
X155483607Y-66410507D01*
X155479474Y-66413610D01*
X155479471Y-66413612D01*
X155455247Y-66431800D01*
X155304965Y-66544635D01*
X155150629Y-66706138D01*
X155024743Y-66890680D01*
X154930688Y-67093305D01*
X154870989Y-67308570D01*
X154847251Y-67530695D01*
X154847548Y-67535848D01*
X154847548Y-67535851D01*
X154853011Y-67630590D01*
X154860110Y-67753715D01*
X154861247Y-67758761D01*
X154861248Y-67758767D01*
X154881119Y-67846939D01*
X154909222Y-67971639D01*
X154993266Y-68178616D01*
X155044019Y-68261438D01*
X155107291Y-68364688D01*
X155109987Y-68369088D01*
X155256250Y-68537938D01*
X155428126Y-68680632D01*
X155443470Y-68689598D01*
X155501445Y-68723476D01*
X155550169Y-68775114D01*
X155563240Y-68844897D01*
X155536509Y-68910669D01*
X155496055Y-68944027D01*
X155483607Y-68950507D01*
X155479474Y-68953610D01*
X155479471Y-68953612D01*
X155455247Y-68971800D01*
X155304965Y-69084635D01*
X155150629Y-69246138D01*
X155024743Y-69430680D01*
X154930688Y-69633305D01*
X154870989Y-69848570D01*
X154847251Y-70070695D01*
X154847548Y-70075848D01*
X154847548Y-70075851D01*
X154853011Y-70170590D01*
X154860110Y-70293715D01*
X154861247Y-70298761D01*
X154861248Y-70298767D01*
X154881119Y-70386939D01*
X154909222Y-70511639D01*
X154993266Y-70718616D01*
X155044019Y-70801438D01*
X155107291Y-70904688D01*
X155109987Y-70909088D01*
X155256250Y-71077938D01*
X155428126Y-71220632D01*
X155443470Y-71229598D01*
X155501445Y-71263476D01*
X155550169Y-71315114D01*
X155563240Y-71384897D01*
X155536509Y-71450669D01*
X155496055Y-71484027D01*
X155483607Y-71490507D01*
X155479474Y-71493610D01*
X155479471Y-71493612D01*
X155455247Y-71511800D01*
X155304965Y-71624635D01*
X155150629Y-71786138D01*
X155024743Y-71970680D01*
X154930688Y-72173305D01*
X154870989Y-72388570D01*
X154847251Y-72610695D01*
X154847548Y-72615848D01*
X154847548Y-72615851D01*
X154853011Y-72710590D01*
X154860110Y-72833715D01*
X154861247Y-72838761D01*
X154861248Y-72838767D01*
X154881119Y-72926939D01*
X154909222Y-73051639D01*
X154993266Y-73258616D01*
X155044019Y-73341438D01*
X155107291Y-73444688D01*
X155109987Y-73449088D01*
X155256250Y-73617938D01*
X155428126Y-73760632D01*
X155443470Y-73769598D01*
X155501445Y-73803476D01*
X155550169Y-73855114D01*
X155563240Y-73924897D01*
X155536509Y-73990669D01*
X155496055Y-74024027D01*
X155483607Y-74030507D01*
X155479474Y-74033610D01*
X155479471Y-74033612D01*
X155455247Y-74051800D01*
X155304965Y-74164635D01*
X155150629Y-74326138D01*
X155024743Y-74510680D01*
X154930688Y-74713305D01*
X154870989Y-74928570D01*
X154847251Y-75150695D01*
X154847548Y-75155848D01*
X154847548Y-75155851D01*
X154853011Y-75250590D01*
X154860110Y-75373715D01*
X154861247Y-75378761D01*
X154861248Y-75378767D01*
X154881119Y-75466939D01*
X154909222Y-75591639D01*
X154993266Y-75798616D01*
X155044019Y-75881438D01*
X155107291Y-75984688D01*
X155109987Y-75989088D01*
X155256250Y-76157938D01*
X155428126Y-76300632D01*
X155443470Y-76309598D01*
X155501445Y-76343476D01*
X155550169Y-76395114D01*
X155563240Y-76464897D01*
X155536509Y-76530669D01*
X155496055Y-76564027D01*
X155483607Y-76570507D01*
X155479474Y-76573610D01*
X155479471Y-76573612D01*
X155455247Y-76591800D01*
X155304965Y-76704635D01*
X155150629Y-76866138D01*
X155024743Y-77050680D01*
X154930688Y-77253305D01*
X154870989Y-77468570D01*
X154847251Y-77690695D01*
X154847548Y-77695848D01*
X154847548Y-77695851D01*
X154853011Y-77790590D01*
X154860110Y-77913715D01*
X154861247Y-77918761D01*
X154861248Y-77918767D01*
X154881119Y-78006939D01*
X154909222Y-78131639D01*
X154993266Y-78338616D01*
X155044019Y-78421438D01*
X155107291Y-78524688D01*
X155109987Y-78529088D01*
X155256250Y-78697938D01*
X155428126Y-78840632D01*
X155443470Y-78849598D01*
X155501445Y-78883476D01*
X155550169Y-78935114D01*
X155563240Y-79004897D01*
X155536509Y-79070669D01*
X155496055Y-79104027D01*
X155483607Y-79110507D01*
X155479474Y-79113610D01*
X155479471Y-79113612D01*
X155455247Y-79131800D01*
X155304965Y-79244635D01*
X155150629Y-79406138D01*
X155024743Y-79590680D01*
X154930688Y-79793305D01*
X154870989Y-80008570D01*
X154847251Y-80230695D01*
X154847548Y-80235848D01*
X154847548Y-80235851D01*
X154853011Y-80330590D01*
X154860110Y-80453715D01*
X154861247Y-80458761D01*
X154861248Y-80458767D01*
X154881119Y-80546939D01*
X154909222Y-80671639D01*
X154993266Y-80878616D01*
X155044019Y-80961438D01*
X155107291Y-81064688D01*
X155109987Y-81069088D01*
X155256250Y-81237938D01*
X155428126Y-81380632D01*
X155443470Y-81389598D01*
X155501445Y-81423476D01*
X155550169Y-81475114D01*
X155563240Y-81544897D01*
X155536509Y-81610669D01*
X155496055Y-81644027D01*
X155483607Y-81650507D01*
X155479474Y-81653610D01*
X155479471Y-81653612D01*
X155455247Y-81671800D01*
X155304965Y-81784635D01*
X155150629Y-81946138D01*
X155024743Y-82130680D01*
X154930688Y-82333305D01*
X154870989Y-82548570D01*
X154847251Y-82770695D01*
X154847548Y-82775848D01*
X154847548Y-82775851D01*
X154853011Y-82870590D01*
X154860110Y-82993715D01*
X154861247Y-82998761D01*
X154861248Y-82998767D01*
X154881119Y-83086939D01*
X154909222Y-83211639D01*
X154993266Y-83418616D01*
X155044019Y-83501438D01*
X155107291Y-83604688D01*
X155109987Y-83609088D01*
X155256250Y-83777938D01*
X155428126Y-83920632D01*
X155443470Y-83929598D01*
X155501445Y-83963476D01*
X155550169Y-84015114D01*
X155563240Y-84084897D01*
X155536509Y-84150669D01*
X155496055Y-84184027D01*
X155483607Y-84190507D01*
X155479474Y-84193610D01*
X155479471Y-84193612D01*
X155455247Y-84211800D01*
X155304965Y-84324635D01*
X155150629Y-84486138D01*
X155024743Y-84670680D01*
X154930688Y-84873305D01*
X154870989Y-85088570D01*
X154847251Y-85310695D01*
X154847548Y-85315848D01*
X154847548Y-85315851D01*
X154853011Y-85410590D01*
X154860110Y-85533715D01*
X154861247Y-85538761D01*
X154861248Y-85538767D01*
X154881119Y-85626939D01*
X154909222Y-85751639D01*
X154993266Y-85958616D01*
X155044019Y-86041438D01*
X155107291Y-86144688D01*
X155109987Y-86149088D01*
X155256250Y-86317938D01*
X155428126Y-86460632D01*
X155443470Y-86469598D01*
X155501445Y-86503476D01*
X155550169Y-86555114D01*
X155563240Y-86624897D01*
X155536509Y-86690669D01*
X155496055Y-86724027D01*
X155483607Y-86730507D01*
X155479474Y-86733610D01*
X155479471Y-86733612D01*
X155455247Y-86751800D01*
X155304965Y-86864635D01*
X155150629Y-87026138D01*
X155024743Y-87210680D01*
X154930688Y-87413305D01*
X154870989Y-87628570D01*
X154847251Y-87850695D01*
X154847548Y-87855848D01*
X154847548Y-87855851D01*
X154853011Y-87950590D01*
X154860110Y-88073715D01*
X154861247Y-88078761D01*
X154861248Y-88078767D01*
X154881119Y-88166939D01*
X154909222Y-88291639D01*
X154993266Y-88498616D01*
X155044019Y-88581438D01*
X155107291Y-88684688D01*
X155109987Y-88689088D01*
X155256250Y-88857938D01*
X155428126Y-89000632D01*
X155443470Y-89009598D01*
X155501445Y-89043476D01*
X155550169Y-89095114D01*
X155563240Y-89164897D01*
X155536509Y-89230669D01*
X155496055Y-89264027D01*
X155483607Y-89270507D01*
X155479474Y-89273610D01*
X155479471Y-89273612D01*
X155455247Y-89291800D01*
X155304965Y-89404635D01*
X155150629Y-89566138D01*
X155024743Y-89750680D01*
X154930688Y-89953305D01*
X154870989Y-90168570D01*
X154847251Y-90390695D01*
X154847548Y-90395848D01*
X154847548Y-90395851D01*
X154853011Y-90490590D01*
X154860110Y-90613715D01*
X154861247Y-90618761D01*
X154861248Y-90618767D01*
X154881119Y-90706939D01*
X154909222Y-90831639D01*
X154993266Y-91038616D01*
X155044019Y-91121438D01*
X155107291Y-91224688D01*
X155109987Y-91229088D01*
X155256250Y-91397938D01*
X155428126Y-91540632D01*
X155443470Y-91549598D01*
X155501445Y-91583476D01*
X155550169Y-91635114D01*
X155563240Y-91704897D01*
X155536509Y-91770669D01*
X155496055Y-91804027D01*
X155483607Y-91810507D01*
X155479474Y-91813610D01*
X155479471Y-91813612D01*
X155455247Y-91831800D01*
X155304965Y-91944635D01*
X155150629Y-92106138D01*
X155024743Y-92290680D01*
X154930688Y-92493305D01*
X154870989Y-92708570D01*
X154847251Y-92930695D01*
X154847548Y-92935848D01*
X154847548Y-92935851D01*
X154853011Y-93030590D01*
X154860110Y-93153715D01*
X154861247Y-93158761D01*
X154861248Y-93158767D01*
X154881119Y-93246939D01*
X154909222Y-93371639D01*
X154993266Y-93578616D01*
X155044019Y-93661438D01*
X155107291Y-93764688D01*
X155109987Y-93769088D01*
X155256250Y-93937938D01*
X155428126Y-94080632D01*
X155443470Y-94089598D01*
X155501445Y-94123476D01*
X155550169Y-94175114D01*
X155563240Y-94244897D01*
X155536509Y-94310669D01*
X155496055Y-94344027D01*
X155483607Y-94350507D01*
X155479474Y-94353610D01*
X155479471Y-94353612D01*
X155455247Y-94371800D01*
X155304965Y-94484635D01*
X155150629Y-94646138D01*
X155024743Y-94830680D01*
X154930688Y-95033305D01*
X154870989Y-95248570D01*
X154847251Y-95470695D01*
X154847548Y-95475848D01*
X154847548Y-95475851D01*
X154853011Y-95570590D01*
X154860110Y-95693715D01*
X154861247Y-95698761D01*
X154861248Y-95698767D01*
X154881119Y-95786939D01*
X154909222Y-95911639D01*
X154993266Y-96118616D01*
X155044019Y-96201438D01*
X155107291Y-96304688D01*
X155109987Y-96309088D01*
X155256250Y-96477938D01*
X155428126Y-96620632D01*
X155443470Y-96629598D01*
X155501445Y-96663476D01*
X155550169Y-96715114D01*
X155563240Y-96784897D01*
X155536509Y-96850669D01*
X155496055Y-96884027D01*
X155483607Y-96890507D01*
X155479474Y-96893610D01*
X155479471Y-96893612D01*
X155455247Y-96911800D01*
X155304965Y-97024635D01*
X155150629Y-97186138D01*
X155024743Y-97370680D01*
X154930688Y-97573305D01*
X154870989Y-97788570D01*
X154847251Y-98010695D01*
X154847548Y-98015848D01*
X154847548Y-98015851D01*
X154853011Y-98110590D01*
X154860110Y-98233715D01*
X154861247Y-98238761D01*
X154861248Y-98238767D01*
X154881119Y-98326939D01*
X154909222Y-98451639D01*
X154993266Y-98658616D01*
X155044019Y-98741438D01*
X155107291Y-98844688D01*
X155109987Y-98849088D01*
X155256250Y-99017938D01*
X155428126Y-99160632D01*
X155443470Y-99169598D01*
X155501445Y-99203476D01*
X155550169Y-99255114D01*
X155563240Y-99324897D01*
X155536509Y-99390669D01*
X155496055Y-99424027D01*
X155483607Y-99430507D01*
X155479474Y-99433610D01*
X155479471Y-99433612D01*
X155455247Y-99451800D01*
X155304965Y-99564635D01*
X155150629Y-99726138D01*
X155024743Y-99910680D01*
X154930688Y-100113305D01*
X154870989Y-100328570D01*
X154847251Y-100550695D01*
X154847548Y-100555848D01*
X154847548Y-100555851D01*
X154853011Y-100650590D01*
X154860110Y-100773715D01*
X154861247Y-100778761D01*
X154861248Y-100778767D01*
X154881119Y-100866939D01*
X154909222Y-100991639D01*
X154993266Y-101198616D01*
X155044019Y-101281438D01*
X155107291Y-101384688D01*
X155109987Y-101389088D01*
X155256250Y-101557938D01*
X155428126Y-101700632D01*
X155443470Y-101709598D01*
X155501445Y-101743476D01*
X155550169Y-101795114D01*
X155563240Y-101864897D01*
X155536509Y-101930669D01*
X155496055Y-101964027D01*
X155483607Y-101970507D01*
X155479474Y-101973610D01*
X155479471Y-101973612D01*
X155455247Y-101991800D01*
X155304965Y-102104635D01*
X155150629Y-102266138D01*
X155024743Y-102450680D01*
X154930688Y-102653305D01*
X154870989Y-102868570D01*
X154847251Y-103090695D01*
X154847548Y-103095848D01*
X154847548Y-103095851D01*
X154853011Y-103190590D01*
X154860110Y-103313715D01*
X154861247Y-103318761D01*
X154861248Y-103318767D01*
X154881119Y-103406939D01*
X154909222Y-103531639D01*
X154993266Y-103738616D01*
X155044019Y-103821438D01*
X155107291Y-103924688D01*
X155109987Y-103929088D01*
X155256250Y-104097938D01*
X155428126Y-104240632D01*
X155443470Y-104249598D01*
X155501445Y-104283476D01*
X155550169Y-104335114D01*
X155563240Y-104404897D01*
X155536509Y-104470669D01*
X155496055Y-104504027D01*
X155483607Y-104510507D01*
X155479474Y-104513610D01*
X155479471Y-104513612D01*
X155455247Y-104531800D01*
X155304965Y-104644635D01*
X155150629Y-104806138D01*
X155024743Y-104990680D01*
X154930688Y-105193305D01*
X154870989Y-105408570D01*
X154847251Y-105630695D01*
X154847548Y-105635848D01*
X154847548Y-105635851D01*
X154853011Y-105730590D01*
X154860110Y-105853715D01*
X154861247Y-105858761D01*
X154861248Y-105858767D01*
X154881119Y-105946939D01*
X154909222Y-106071639D01*
X154993266Y-106278616D01*
X155044019Y-106361438D01*
X155107291Y-106464688D01*
X155109987Y-106469088D01*
X155256250Y-106637938D01*
X155428126Y-106780632D01*
X155443470Y-106789598D01*
X155501445Y-106823476D01*
X155550169Y-106875114D01*
X155563240Y-106944897D01*
X155536509Y-107010669D01*
X155496055Y-107044027D01*
X155483607Y-107050507D01*
X155479474Y-107053610D01*
X155479471Y-107053612D01*
X155455247Y-107071800D01*
X155304965Y-107184635D01*
X155150629Y-107346138D01*
X155024743Y-107530680D01*
X154930688Y-107733305D01*
X154870989Y-107948570D01*
X154847251Y-108170695D01*
X154847548Y-108175848D01*
X154847548Y-108175851D01*
X154853011Y-108270590D01*
X154860110Y-108393715D01*
X154861247Y-108398761D01*
X154861248Y-108398767D01*
X154881119Y-108486939D01*
X154909222Y-108611639D01*
X154993266Y-108818616D01*
X155044019Y-108901438D01*
X155107291Y-109004688D01*
X155109987Y-109009088D01*
X155256250Y-109177938D01*
X155428126Y-109320632D01*
X155443470Y-109329598D01*
X155501445Y-109363476D01*
X155550169Y-109415114D01*
X155563240Y-109484897D01*
X155536509Y-109550669D01*
X155496055Y-109584027D01*
X155483607Y-109590507D01*
X155479474Y-109593610D01*
X155479471Y-109593612D01*
X155455247Y-109611800D01*
X155304965Y-109724635D01*
X155150629Y-109886138D01*
X155024743Y-110070680D01*
X154930688Y-110273305D01*
X154870989Y-110488570D01*
X154847251Y-110710695D01*
X154847548Y-110715848D01*
X154847548Y-110715851D01*
X154853011Y-110810590D01*
X154860110Y-110933715D01*
X154861247Y-110938761D01*
X154861248Y-110938767D01*
X154881119Y-111026939D01*
X154909222Y-111151639D01*
X154993266Y-111358616D01*
X155044019Y-111441438D01*
X155107291Y-111544688D01*
X155109987Y-111549088D01*
X155256250Y-111717938D01*
X155428126Y-111860632D01*
X155443470Y-111869598D01*
X155501445Y-111903476D01*
X155550169Y-111955114D01*
X155563240Y-112024897D01*
X155536509Y-112090669D01*
X155496055Y-112124027D01*
X155483607Y-112130507D01*
X155479474Y-112133610D01*
X155479471Y-112133612D01*
X155455247Y-112151800D01*
X155304965Y-112264635D01*
X155150629Y-112426138D01*
X155024743Y-112610680D01*
X154930688Y-112813305D01*
X154870989Y-113028570D01*
X154847251Y-113250695D01*
X154847548Y-113255848D01*
X154847548Y-113255851D01*
X154853011Y-113350590D01*
X154860110Y-113473715D01*
X154861247Y-113478761D01*
X154861248Y-113478767D01*
X154881119Y-113566939D01*
X154909222Y-113691639D01*
X154993266Y-113898616D01*
X155044019Y-113981438D01*
X155107291Y-114084688D01*
X155109987Y-114089088D01*
X155256250Y-114257938D01*
X155428126Y-114400632D01*
X155498595Y-114441811D01*
X155501445Y-114443476D01*
X155550169Y-114495114D01*
X155563240Y-114564897D01*
X155536509Y-114630669D01*
X155496055Y-114664027D01*
X155483607Y-114670507D01*
X155479474Y-114673610D01*
X155479471Y-114673612D01*
X155455247Y-114691800D01*
X155304965Y-114804635D01*
X155301393Y-114808373D01*
X155183200Y-114932055D01*
X155150629Y-114966138D01*
X155147720Y-114970403D01*
X155147714Y-114970411D01*
X155062678Y-115095070D01*
X155024743Y-115150680D01*
X155009003Y-115184590D01*
X154936157Y-115341524D01*
X154930688Y-115353305D01*
X154870989Y-115568570D01*
X154847251Y-115790695D01*
X154847548Y-115795848D01*
X154847548Y-115795851D01*
X154853011Y-115890590D01*
X154860110Y-116013715D01*
X154861247Y-116018761D01*
X154861248Y-116018767D01*
X154873418Y-116072768D01*
X154909222Y-116231639D01*
X154945932Y-116322046D01*
X154985095Y-116418492D01*
X154993266Y-116438616D01*
X155031006Y-116500202D01*
X155107291Y-116624688D01*
X155109987Y-116629088D01*
X155256250Y-116797938D01*
X155428126Y-116940632D01*
X155443470Y-116949598D01*
X155501955Y-116983774D01*
X155550679Y-117035412D01*
X155563750Y-117105195D01*
X155537019Y-117170967D01*
X155496562Y-117204327D01*
X155488457Y-117208546D01*
X155479738Y-117214036D01*
X155309433Y-117341905D01*
X155301726Y-117348748D01*
X155154590Y-117502717D01*
X155148104Y-117510727D01*
X155028098Y-117686649D01*
X155023000Y-117695623D01*
X154933338Y-117888783D01*
X154929775Y-117898470D01*
X154874389Y-118098183D01*
X154875912Y-118106607D01*
X154888292Y-118110000D01*
X158878000Y-118110000D01*
X158946121Y-118130002D01*
X158992614Y-118183658D01*
X159004000Y-118236000D01*
X159004000Y-118492000D01*
X158983998Y-118560121D01*
X158930342Y-118606614D01*
X158878000Y-118618000D01*
X154893225Y-118618000D01*
X154879694Y-118621973D01*
X154878257Y-118631966D01*
X154908565Y-118766446D01*
X154911645Y-118776275D01*
X154991770Y-118973603D01*
X154996413Y-118982794D01*
X155107694Y-119164388D01*
X155113777Y-119172699D01*
X155253213Y-119333667D01*
X155260580Y-119340883D01*
X155424434Y-119476916D01*
X155432881Y-119482831D01*
X155501969Y-119523203D01*
X155550693Y-119574842D01*
X155563764Y-119644625D01*
X155537033Y-119710396D01*
X155496584Y-119743752D01*
X155483607Y-119750507D01*
X155479474Y-119753610D01*
X155479471Y-119753612D01*
X155309100Y-119881530D01*
X155304965Y-119884635D01*
X155150629Y-120046138D01*
X155024743Y-120230680D01*
X154999455Y-120285159D01*
X154933166Y-120427967D01*
X154930688Y-120433305D01*
X154870989Y-120648570D01*
X154847251Y-120870695D01*
X154847548Y-120875848D01*
X154847548Y-120875851D01*
X154855967Y-121021862D01*
X154860110Y-121093715D01*
X154861247Y-121098761D01*
X154861248Y-121098767D01*
X154872761Y-121149853D01*
X154909222Y-121311639D01*
X154993266Y-121518616D01*
X155044019Y-121601438D01*
X155107291Y-121704688D01*
X155109987Y-121709088D01*
X155256250Y-121877938D01*
X155361683Y-121965470D01*
X155411167Y-122006552D01*
X155428126Y-122020632D01*
X155621000Y-122133338D01*
X155829692Y-122213030D01*
X155834760Y-122214061D01*
X155834763Y-122214062D01*
X155942017Y-122235883D01*
X156048597Y-122257567D01*
X156053772Y-122257757D01*
X156053774Y-122257757D01*
X156266673Y-122265564D01*
X156266677Y-122265564D01*
X156271837Y-122265753D01*
X156276957Y-122265097D01*
X156276959Y-122265097D01*
X156488288Y-122238025D01*
X156488289Y-122238025D01*
X156493416Y-122237368D01*
X156498366Y-122235883D01*
X156702429Y-122174661D01*
X156702434Y-122174659D01*
X156707384Y-122173174D01*
X156907994Y-122074896D01*
X157089860Y-121945173D01*
X157107753Y-121927343D01*
X157190665Y-121844720D01*
X157248096Y-121787489D01*
X157306440Y-121706295D01*
X157378453Y-121606077D01*
X157379776Y-121607028D01*
X157426645Y-121563857D01*
X157496580Y-121551625D01*
X157562026Y-121579144D01*
X157589875Y-121610994D01*
X157593855Y-121617489D01*
X157649987Y-121709088D01*
X157796250Y-121877938D01*
X157901683Y-121965470D01*
X157951167Y-122006552D01*
X157968126Y-122020632D01*
X158161000Y-122133338D01*
X158369692Y-122213030D01*
X158374760Y-122214061D01*
X158374763Y-122214062D01*
X158482017Y-122235883D01*
X158588597Y-122257567D01*
X158593772Y-122257757D01*
X158593774Y-122257757D01*
X158806673Y-122265564D01*
X158806677Y-122265564D01*
X158811837Y-122265753D01*
X158816957Y-122265097D01*
X158816959Y-122265097D01*
X159028288Y-122238025D01*
X159028289Y-122238025D01*
X159033416Y-122237368D01*
X159038366Y-122235883D01*
X159242429Y-122174661D01*
X159242434Y-122174659D01*
X159247384Y-122173174D01*
X159330070Y-122132666D01*
X159400041Y-122120660D01*
X159465398Y-122148390D01*
X159505388Y-122207052D01*
X159511500Y-122245818D01*
X159511500Y-125451100D01*
X159491498Y-125519221D01*
X159437842Y-125565714D01*
X159385500Y-125577100D01*
X113457792Y-125577100D01*
X113389671Y-125557098D01*
X113343178Y-125503442D01*
X113334128Y-125426950D01*
X113356357Y-125313121D01*
X113357228Y-125308663D01*
X113357500Y-125303101D01*
X113357500Y-124547154D01*
X113342452Y-124389434D01*
X113282908Y-124186466D01*
X113186058Y-123998420D01*
X113055396Y-123832080D01*
X113050865Y-123828148D01*
X113050862Y-123828145D01*
X112900167Y-123697379D01*
X112895637Y-123693448D01*
X112890451Y-123690448D01*
X112890447Y-123690445D01*
X112717742Y-123590533D01*
X112712546Y-123587527D01*
X112512729Y-123518139D01*
X112506794Y-123517278D01*
X112506792Y-123517278D01*
X112309336Y-123488648D01*
X112309333Y-123488648D01*
X112303396Y-123487787D01*
X112092101Y-123497567D01*
X111960923Y-123529181D01*
X111892299Y-123545719D01*
X111892297Y-123545720D01*
X111886466Y-123547125D01*
X111881008Y-123549607D01*
X111881004Y-123549608D01*
X111765959Y-123601916D01*
X111693913Y-123634674D01*
X111521389Y-123757054D01*
X111375119Y-123909850D01*
X111260380Y-124087548D01*
X111181314Y-124283737D01*
X111140772Y-124491337D01*
X111140500Y-124496899D01*
X111140500Y-125252846D01*
X111155548Y-125410566D01*
X111157237Y-125416325D01*
X111158371Y-125422213D01*
X111157031Y-125422471D01*
X111157017Y-125486625D01*
X111118620Y-125546343D01*
X111054033Y-125575821D01*
X111036129Y-125577100D01*
X104797792Y-125577100D01*
X104729671Y-125557098D01*
X104683178Y-125503442D01*
X104674128Y-125426950D01*
X104696357Y-125313121D01*
X104697228Y-125308663D01*
X104697500Y-125303101D01*
X104697500Y-124547154D01*
X104682452Y-124389434D01*
X104622908Y-124186466D01*
X104526058Y-123998420D01*
X104395396Y-123832080D01*
X104390865Y-123828148D01*
X104390862Y-123828145D01*
X104240167Y-123697379D01*
X104235637Y-123693448D01*
X104230451Y-123690448D01*
X104230447Y-123690445D01*
X104057742Y-123590533D01*
X104052546Y-123587527D01*
X103852729Y-123518139D01*
X103846794Y-123517278D01*
X103846792Y-123517278D01*
X103649336Y-123488648D01*
X103649333Y-123488648D01*
X103643396Y-123487787D01*
X103432101Y-123497567D01*
X103300923Y-123529181D01*
X103232299Y-123545719D01*
X103232297Y-123545720D01*
X103226466Y-123547125D01*
X103221008Y-123549607D01*
X103221004Y-123549608D01*
X103105959Y-123601916D01*
X103033913Y-123634674D01*
X102861389Y-123757054D01*
X102715119Y-123909850D01*
X102600380Y-124087548D01*
X102521314Y-124283737D01*
X102480772Y-124491337D01*
X102480500Y-124496899D01*
X102480500Y-125252846D01*
X102495548Y-125410566D01*
X102497237Y-125416325D01*
X102498371Y-125422213D01*
X102497031Y-125422471D01*
X102497017Y-125486625D01*
X102458620Y-125546343D01*
X102394033Y-125575821D01*
X102376129Y-125577100D01*
X94614500Y-125577100D01*
X94546379Y-125557098D01*
X94499886Y-125503442D01*
X94488500Y-125451100D01*
X94488500Y-122250305D01*
X94508502Y-122182184D01*
X94562158Y-122135691D01*
X94632432Y-122125587D01*
X94660684Y-122134165D01*
X94661000Y-122133338D01*
X94869692Y-122213030D01*
X94874760Y-122214061D01*
X94874763Y-122214062D01*
X94982017Y-122235883D01*
X95088597Y-122257567D01*
X95093772Y-122257757D01*
X95093774Y-122257757D01*
X95306673Y-122265564D01*
X95306677Y-122265564D01*
X95311837Y-122265753D01*
X95316957Y-122265097D01*
X95316959Y-122265097D01*
X95528288Y-122238025D01*
X95528289Y-122238025D01*
X95533416Y-122237368D01*
X95538366Y-122235883D01*
X95742429Y-122174661D01*
X95742434Y-122174659D01*
X95747384Y-122173174D01*
X95947994Y-122074896D01*
X96129860Y-121945173D01*
X96147753Y-121927343D01*
X96230665Y-121844720D01*
X96288096Y-121787489D01*
X96346440Y-121706295D01*
X96418453Y-121606077D01*
X96419776Y-121607028D01*
X96466645Y-121563857D01*
X96536580Y-121551625D01*
X96602026Y-121579144D01*
X96629875Y-121610994D01*
X96633855Y-121617489D01*
X96689987Y-121709088D01*
X96836250Y-121877938D01*
X96941683Y-121965470D01*
X96991167Y-122006552D01*
X97008126Y-122020632D01*
X97201000Y-122133338D01*
X97409692Y-122213030D01*
X97414760Y-122214061D01*
X97414763Y-122214062D01*
X97522017Y-122235883D01*
X97628597Y-122257567D01*
X97633772Y-122257757D01*
X97633774Y-122257757D01*
X97846673Y-122265564D01*
X97846677Y-122265564D01*
X97851837Y-122265753D01*
X97856957Y-122265097D01*
X97856959Y-122265097D01*
X98068288Y-122238025D01*
X98068289Y-122238025D01*
X98073416Y-122237368D01*
X98078366Y-122235883D01*
X98282429Y-122174661D01*
X98282434Y-122174659D01*
X98287384Y-122173174D01*
X98487994Y-122074896D01*
X98669860Y-121945173D01*
X98687753Y-121927343D01*
X98770665Y-121844720D01*
X98828096Y-121787489D01*
X98886440Y-121706295D01*
X98955435Y-121610277D01*
X98958453Y-121606077D01*
X98977740Y-121567054D01*
X99055136Y-121410453D01*
X99055137Y-121410451D01*
X99057430Y-121405811D01*
X99119490Y-121201549D01*
X99120865Y-121197023D01*
X99120865Y-121197021D01*
X99122370Y-121192069D01*
X99127534Y-121152846D01*
X102480500Y-121152846D01*
X102495548Y-121310566D01*
X102555092Y-121513534D01*
X102557836Y-121518861D01*
X102557836Y-121518862D01*
X102603245Y-121607028D01*
X102651942Y-121701580D01*
X102782604Y-121867920D01*
X102787135Y-121871852D01*
X102787138Y-121871855D01*
X102871630Y-121945173D01*
X102942363Y-122006552D01*
X102947549Y-122009552D01*
X102947553Y-122009555D01*
X103043957Y-122065326D01*
X103125454Y-122112473D01*
X103325271Y-122181861D01*
X103331206Y-122182722D01*
X103331208Y-122182722D01*
X103528664Y-122211352D01*
X103528667Y-122211352D01*
X103534604Y-122212213D01*
X103745899Y-122202433D01*
X103877077Y-122170819D01*
X103945701Y-122154281D01*
X103945703Y-122154280D01*
X103951534Y-122152875D01*
X103956992Y-122150393D01*
X103956996Y-122150392D01*
X104072041Y-122098084D01*
X104144087Y-122065326D01*
X104316611Y-121942946D01*
X104331548Y-121927342D01*
X104393102Y-121891968D01*
X104464012Y-121895487D01*
X104496625Y-121912539D01*
X104532516Y-121938615D01*
X104574816Y-121969348D01*
X104580844Y-121972032D01*
X104580846Y-121972033D01*
X104738448Y-122042202D01*
X104744479Y-122044887D01*
X104835309Y-122064193D01*
X104919683Y-122082128D01*
X104919687Y-122082128D01*
X104926140Y-122083500D01*
X105111860Y-122083500D01*
X105118313Y-122082128D01*
X105118317Y-122082128D01*
X105202691Y-122064193D01*
X105293521Y-122044887D01*
X105299552Y-122042202D01*
X105457154Y-121972033D01*
X105457156Y-121972032D01*
X105463184Y-121969348D01*
X105496458Y-121945173D01*
X105608090Y-121864068D01*
X105608092Y-121864066D01*
X105613434Y-121860185D01*
X105737704Y-121722169D01*
X105830564Y-121561331D01*
X105887954Y-121384702D01*
X105907367Y-121200000D01*
X109930633Y-121200000D01*
X109950046Y-121384702D01*
X110007436Y-121561331D01*
X110100296Y-121722169D01*
X110224566Y-121860185D01*
X110229908Y-121864066D01*
X110229910Y-121864068D01*
X110341542Y-121945173D01*
X110374816Y-121969348D01*
X110380844Y-121972032D01*
X110380846Y-121972033D01*
X110538448Y-122042202D01*
X110544479Y-122044887D01*
X110635309Y-122064193D01*
X110719683Y-122082128D01*
X110719687Y-122082128D01*
X110726140Y-122083500D01*
X110911860Y-122083500D01*
X110918313Y-122082128D01*
X110918317Y-122082128D01*
X111002691Y-122064193D01*
X111093521Y-122044887D01*
X111099552Y-122042202D01*
X111257154Y-121972033D01*
X111257156Y-121972032D01*
X111263184Y-121969348D01*
X111343451Y-121911031D01*
X111410315Y-121887174D01*
X111479467Y-121903254D01*
X111500089Y-121917803D01*
X111602363Y-122006552D01*
X111607549Y-122009552D01*
X111607553Y-122009555D01*
X111703957Y-122065326D01*
X111785454Y-122112473D01*
X111985271Y-122181861D01*
X111991206Y-122182722D01*
X111991208Y-122182722D01*
X112188664Y-122211352D01*
X112188667Y-122211352D01*
X112194604Y-122212213D01*
X112405899Y-122202433D01*
X112537077Y-122170819D01*
X112605701Y-122154281D01*
X112605703Y-122154280D01*
X112611534Y-122152875D01*
X112616992Y-122150393D01*
X112616996Y-122150392D01*
X112732041Y-122098084D01*
X112804087Y-122065326D01*
X112976611Y-121942946D01*
X113122881Y-121790150D01*
X113237620Y-121612452D01*
X113316686Y-121416263D01*
X113357228Y-121208663D01*
X113357500Y-121203101D01*
X113357500Y-120247154D01*
X113342452Y-120089434D01*
X113282908Y-119886466D01*
X113229368Y-119782511D01*
X113188804Y-119703751D01*
X113188802Y-119703748D01*
X113186058Y-119698420D01*
X113055396Y-119532080D01*
X113050865Y-119528148D01*
X113050862Y-119528145D01*
X112900167Y-119397379D01*
X112895637Y-119393448D01*
X112890451Y-119390448D01*
X112890447Y-119390445D01*
X112717742Y-119290533D01*
X112712546Y-119287527D01*
X112512729Y-119218139D01*
X112506794Y-119217278D01*
X112506792Y-119217278D01*
X112309336Y-119188648D01*
X112309333Y-119188648D01*
X112303396Y-119187787D01*
X112092101Y-119197567D01*
X111960923Y-119229181D01*
X111892299Y-119245719D01*
X111892297Y-119245720D01*
X111886466Y-119247125D01*
X111881008Y-119249607D01*
X111881004Y-119249608D01*
X111765959Y-119301916D01*
X111693913Y-119334674D01*
X111521389Y-119457054D01*
X111375119Y-119609850D01*
X111260380Y-119787548D01*
X111258137Y-119793114D01*
X111219747Y-119888373D01*
X111181314Y-119983737D01*
X111140772Y-120191337D01*
X111140500Y-120196899D01*
X111140500Y-120209501D01*
X111120498Y-120277622D01*
X111066842Y-120324115D01*
X110996568Y-120334219D01*
X110988304Y-120332748D01*
X110918319Y-120317873D01*
X110918320Y-120317873D01*
X110911860Y-120316500D01*
X110726140Y-120316500D01*
X110719687Y-120317872D01*
X110719683Y-120317872D01*
X110642778Y-120334219D01*
X110544479Y-120355113D01*
X110538450Y-120357797D01*
X110538448Y-120357798D01*
X110380847Y-120427967D01*
X110380845Y-120427968D01*
X110374817Y-120430652D01*
X110369476Y-120434532D01*
X110369475Y-120434533D01*
X110229910Y-120535932D01*
X110229908Y-120535934D01*
X110224566Y-120539815D01*
X110100296Y-120677831D01*
X110007436Y-120838669D01*
X109950046Y-121015298D01*
X109930633Y-121200000D01*
X105907367Y-121200000D01*
X105887954Y-121015298D01*
X105830564Y-120838669D01*
X105737704Y-120677831D01*
X105613434Y-120539815D01*
X105516957Y-120469720D01*
X105468526Y-120434533D01*
X105468525Y-120434532D01*
X105463184Y-120430652D01*
X105457156Y-120427968D01*
X105457154Y-120427967D01*
X105299552Y-120357798D01*
X105299551Y-120357798D01*
X105293521Y-120355113D01*
X105195222Y-120334219D01*
X105118317Y-120317872D01*
X105118313Y-120317872D01*
X105111860Y-120316500D01*
X104926140Y-120316500D01*
X104919687Y-120317872D01*
X104919683Y-120317872D01*
X104872910Y-120327814D01*
X104846735Y-120333378D01*
X104775945Y-120327976D01*
X104719313Y-120285159D01*
X104695109Y-120222098D01*
X104693908Y-120209501D01*
X104682452Y-120089434D01*
X104622908Y-119886466D01*
X104569368Y-119782511D01*
X104528804Y-119703751D01*
X104528802Y-119703748D01*
X104526058Y-119698420D01*
X104395396Y-119532080D01*
X104390865Y-119528148D01*
X104390862Y-119528145D01*
X104240167Y-119397379D01*
X104235637Y-119393448D01*
X104230451Y-119390448D01*
X104230447Y-119390445D01*
X104057742Y-119290533D01*
X104052546Y-119287527D01*
X103852729Y-119218139D01*
X103846794Y-119217278D01*
X103846792Y-119217278D01*
X103649336Y-119188648D01*
X103649333Y-119188648D01*
X103643396Y-119187787D01*
X103432101Y-119197567D01*
X103300923Y-119229181D01*
X103232299Y-119245719D01*
X103232297Y-119245720D01*
X103226466Y-119247125D01*
X103221008Y-119249607D01*
X103221004Y-119249608D01*
X103105959Y-119301916D01*
X103033913Y-119334674D01*
X102861389Y-119457054D01*
X102715119Y-119609850D01*
X102600380Y-119787548D01*
X102598137Y-119793114D01*
X102559747Y-119888373D01*
X102521314Y-119983737D01*
X102480772Y-120191337D01*
X102480500Y-120196899D01*
X102480500Y-121152846D01*
X99127534Y-121152846D01*
X99151529Y-120970590D01*
X99153156Y-120904000D01*
X99134852Y-120681361D01*
X99080431Y-120464702D01*
X98991354Y-120259840D01*
X98884980Y-120095411D01*
X98872822Y-120076617D01*
X98872820Y-120076614D01*
X98870014Y-120072277D01*
X98719670Y-119907051D01*
X98715619Y-119903852D01*
X98715615Y-119903848D01*
X98548414Y-119771800D01*
X98548410Y-119771798D01*
X98544359Y-119768598D01*
X98502569Y-119745529D01*
X98452598Y-119695097D01*
X98437826Y-119625654D01*
X98462942Y-119559248D01*
X98490294Y-119532641D01*
X98665328Y-119407792D01*
X98673200Y-119401139D01*
X98824052Y-119250812D01*
X98830730Y-119242965D01*
X98955003Y-119070020D01*
X98960313Y-119061183D01*
X99054670Y-118870267D01*
X99058469Y-118860672D01*
X99120377Y-118656910D01*
X99122555Y-118646837D01*
X99123986Y-118635962D01*
X99121775Y-118621778D01*
X99108617Y-118618000D01*
X95122000Y-118618000D01*
X95053879Y-118597998D01*
X95007386Y-118544342D01*
X94996000Y-118492000D01*
X94996000Y-118236000D01*
X95016002Y-118167879D01*
X95069658Y-118121386D01*
X95122000Y-118110000D01*
X99108344Y-118110000D01*
X99121875Y-118106027D01*
X99123180Y-118096947D01*
X99081214Y-117929875D01*
X99077894Y-117920124D01*
X98992972Y-117724814D01*
X98988105Y-117715739D01*
X98872426Y-117536926D01*
X98866136Y-117528757D01*
X98722806Y-117371240D01*
X98715273Y-117364215D01*
X98548139Y-117232222D01*
X98539556Y-117226520D01*
X98502602Y-117206120D01*
X98452631Y-117155687D01*
X98437859Y-117086245D01*
X98462975Y-117019839D01*
X98490327Y-116993232D01*
X98551500Y-116949598D01*
X98669860Y-116865173D01*
X98828096Y-116707489D01*
X98838939Y-116692400D01*
X98955435Y-116530277D01*
X98958453Y-116526077D01*
X98971242Y-116500202D01*
X99667837Y-116500202D01*
X99668353Y-116506345D01*
X99681359Y-116661220D01*
X99683977Y-116692400D01*
X99685676Y-116698325D01*
X99733519Y-116865173D01*
X99737140Y-116877802D01*
X99739955Y-116883279D01*
X99739956Y-116883282D01*
X99818140Y-117035412D01*
X99825302Y-117049348D01*
X99829125Y-117054172D01*
X99829128Y-117054176D01*
X99860038Y-117093174D01*
X99945106Y-117200502D01*
X100091987Y-117325508D01*
X100260351Y-117419604D01*
X100443786Y-117479205D01*
X100635303Y-117502042D01*
X100641438Y-117501570D01*
X100641440Y-117501570D01*
X100821467Y-117487718D01*
X100821471Y-117487717D01*
X100827609Y-117487245D01*
X101013379Y-117435377D01*
X101154257Y-117364215D01*
X101180035Y-117351194D01*
X101180037Y-117351193D01*
X101185536Y-117348415D01*
X101337523Y-117229669D01*
X101341549Y-117225005D01*
X101341552Y-117225002D01*
X101459522Y-117088332D01*
X101459523Y-117088330D01*
X101463551Y-117083664D01*
X101511185Y-116999813D01*
X101555775Y-116921322D01*
X101555777Y-116921318D01*
X101558820Y-116915961D01*
X101602502Y-116784646D01*
X101617755Y-116738795D01*
X101617756Y-116738792D01*
X101619700Y-116732947D01*
X101625598Y-116686258D01*
X101643432Y-116545097D01*
X101643433Y-116545087D01*
X101643874Y-116541594D01*
X101644259Y-116514000D01*
X101625438Y-116322046D01*
X101569691Y-116137404D01*
X101506611Y-116018767D01*
X101482036Y-115972548D01*
X101482034Y-115972545D01*
X101479142Y-115967106D01*
X101475252Y-115962336D01*
X101475249Y-115962332D01*
X101361135Y-115822414D01*
X101361132Y-115822411D01*
X101357240Y-115817639D01*
X101352491Y-115813710D01*
X101213377Y-115698625D01*
X101213374Y-115698623D01*
X101208627Y-115694696D01*
X101038966Y-115602960D01*
X100924716Y-115567594D01*
X100860604Y-115547748D01*
X100860601Y-115547747D01*
X100854717Y-115545926D01*
X100848592Y-115545282D01*
X100848591Y-115545282D01*
X100669027Y-115526409D01*
X100669026Y-115526409D01*
X100662899Y-115525765D01*
X100583188Y-115533019D01*
X100476958Y-115542687D01*
X100476955Y-115542688D01*
X100470819Y-115543246D01*
X100464913Y-115544984D01*
X100464909Y-115544985D01*
X100326795Y-115585634D01*
X100285792Y-115597702D01*
X100114866Y-115687060D01*
X99964551Y-115807916D01*
X99960593Y-115812633D01*
X99960591Y-115812635D01*
X99951055Y-115824000D01*
X99840574Y-115955666D01*
X99837610Y-115961058D01*
X99837607Y-115961062D01*
X99773375Y-116077900D01*
X99747656Y-116124683D01*
X99689337Y-116308529D01*
X99688651Y-116314646D01*
X99688650Y-116314650D01*
X99673453Y-116450135D01*
X99667837Y-116500202D01*
X98971242Y-116500202D01*
X98974269Y-116494077D01*
X99055136Y-116330453D01*
X99055137Y-116330451D01*
X99057430Y-116325811D01*
X99122370Y-116112069D01*
X99151529Y-115890590D01*
X99153156Y-115824000D01*
X99134852Y-115601361D01*
X99080431Y-115384702D01*
X98991354Y-115179840D01*
X98939703Y-115100000D01*
X117256835Y-115100000D01*
X117275465Y-115336711D01*
X117276619Y-115341518D01*
X117276620Y-115341524D01*
X117288191Y-115389720D01*
X117330895Y-115567594D01*
X117332788Y-115572165D01*
X117332789Y-115572167D01*
X117346758Y-115605890D01*
X117421760Y-115786963D01*
X117424346Y-115791183D01*
X117543241Y-115985202D01*
X117543245Y-115985208D01*
X117545824Y-115989416D01*
X117700031Y-116169969D01*
X117880584Y-116324176D01*
X117884792Y-116326755D01*
X117884798Y-116326759D01*
X118067332Y-116438616D01*
X118083037Y-116448240D01*
X118087607Y-116450133D01*
X118087611Y-116450135D01*
X118270953Y-116526077D01*
X118302406Y-116539105D01*
X118371625Y-116555723D01*
X118528476Y-116593380D01*
X118528482Y-116593381D01*
X118533289Y-116594535D01*
X118770000Y-116613165D01*
X119006711Y-116594535D01*
X119011518Y-116593381D01*
X119011524Y-116593380D01*
X119168375Y-116555723D01*
X119237594Y-116539105D01*
X119269047Y-116526077D01*
X119452389Y-116450135D01*
X119452393Y-116450133D01*
X119456963Y-116448240D01*
X119472668Y-116438616D01*
X119655202Y-116326759D01*
X119655208Y-116326755D01*
X119659416Y-116324176D01*
X119674557Y-116311244D01*
X145648938Y-116311244D01*
X145649235Y-116316396D01*
X145649235Y-116316400D01*
X145650806Y-116343646D01*
X145662744Y-116550680D01*
X145663879Y-116555717D01*
X145663880Y-116555723D01*
X145696017Y-116698325D01*
X145715470Y-116784646D01*
X145722208Y-116801240D01*
X145800169Y-116993232D01*
X145805702Y-117006859D01*
X145931014Y-117211351D01*
X145934398Y-117215257D01*
X145934399Y-117215259D01*
X145949093Y-117232222D01*
X146088043Y-117392630D01*
X146272571Y-117545828D01*
X146479643Y-117666831D01*
X146703697Y-117752389D01*
X146708763Y-117753420D01*
X146708764Y-117753420D01*
X146765039Y-117764869D01*
X146938716Y-117800204D01*
X147074264Y-117805174D01*
X147173225Y-117808803D01*
X147173229Y-117808803D01*
X147178389Y-117808992D01*
X147183509Y-117808336D01*
X147183511Y-117808336D01*
X147411151Y-117779175D01*
X147411152Y-117779175D01*
X147416279Y-117778518D01*
X147499935Y-117753420D01*
X147641042Y-117711086D01*
X147641047Y-117711084D01*
X147645997Y-117709599D01*
X147861374Y-117604087D01*
X147865579Y-117601087D01*
X147865585Y-117601084D01*
X148005458Y-117501313D01*
X148056627Y-117464815D01*
X148226511Y-117295523D01*
X148291920Y-117204497D01*
X148363445Y-117104958D01*
X148366463Y-117100758D01*
X148370212Y-117093174D01*
X148470433Y-116890392D01*
X148470434Y-116890390D01*
X148472727Y-116885750D01*
X148542447Y-116656274D01*
X148573752Y-116418492D01*
X148575499Y-116347000D01*
X148566408Y-116236425D01*
X148556271Y-116113124D01*
X148556270Y-116113118D01*
X148555847Y-116107973D01*
X148502078Y-115893908D01*
X148498679Y-115880375D01*
X148498678Y-115880371D01*
X148497420Y-115875364D01*
X148495364Y-115870634D01*
X148495361Y-115870627D01*
X148403847Y-115660159D01*
X148403845Y-115660156D01*
X148401787Y-115655422D01*
X148384574Y-115628814D01*
X148274325Y-115458396D01*
X148274323Y-115458393D01*
X148271515Y-115454053D01*
X148242580Y-115422253D01*
X148113582Y-115280487D01*
X148113580Y-115280486D01*
X148110104Y-115276665D01*
X148106053Y-115273466D01*
X148106049Y-115273462D01*
X147925946Y-115131226D01*
X147921888Y-115128021D01*
X147711922Y-115012113D01*
X147571540Y-114962401D01*
X147490720Y-114933781D01*
X147490716Y-114933780D01*
X147485845Y-114932055D01*
X147480752Y-114931148D01*
X147480749Y-114931147D01*
X147254816Y-114890902D01*
X147254810Y-114890901D01*
X147249727Y-114889996D01*
X147162460Y-114888930D01*
X147015081Y-114887129D01*
X147015079Y-114887129D01*
X147009911Y-114887066D01*
X146772837Y-114923343D01*
X146544871Y-114997854D01*
X146540279Y-115000244D01*
X146540280Y-115000244D01*
X146348651Y-115100000D01*
X146332136Y-115108597D01*
X146328003Y-115111700D01*
X146328000Y-115111702D01*
X146237249Y-115179840D01*
X146140345Y-115252598D01*
X145974648Y-115425990D01*
X145839495Y-115624117D01*
X145810278Y-115687060D01*
X145748269Y-115820646D01*
X145738516Y-115841656D01*
X145674424Y-116072768D01*
X145648938Y-116311244D01*
X119674557Y-116311244D01*
X119839969Y-116169969D01*
X119994176Y-115989416D01*
X119996755Y-115985208D01*
X119996759Y-115985202D01*
X120115654Y-115791183D01*
X120118240Y-115786963D01*
X120193243Y-115605890D01*
X120207211Y-115572167D01*
X120207212Y-115572165D01*
X120209105Y-115567594D01*
X120251809Y-115389720D01*
X120263380Y-115341524D01*
X120263381Y-115341518D01*
X120264535Y-115336711D01*
X120283165Y-115100000D01*
X120264535Y-114863289D01*
X120250454Y-114804635D01*
X120224580Y-114696866D01*
X120209105Y-114632406D01*
X120177373Y-114555797D01*
X120120135Y-114417611D01*
X120120133Y-114417607D01*
X120118240Y-114413037D01*
X120062164Y-114321529D01*
X119996759Y-114214798D01*
X119996755Y-114214792D01*
X119994176Y-114210584D01*
X119839969Y-114030031D01*
X119659416Y-113875824D01*
X119655208Y-113873245D01*
X119655202Y-113873241D01*
X119461183Y-113754346D01*
X119456963Y-113751760D01*
X119452393Y-113749867D01*
X119452389Y-113749865D01*
X119242167Y-113662789D01*
X119242165Y-113662788D01*
X119237594Y-113660895D01*
X119157391Y-113641640D01*
X119011524Y-113606620D01*
X119011518Y-113606619D01*
X119006711Y-113605465D01*
X118770000Y-113586835D01*
X118533289Y-113605465D01*
X118528482Y-113606619D01*
X118528476Y-113606620D01*
X118382609Y-113641640D01*
X118302406Y-113660895D01*
X118297835Y-113662788D01*
X118297833Y-113662789D01*
X118087611Y-113749865D01*
X118087607Y-113749867D01*
X118083037Y-113751760D01*
X118078817Y-113754346D01*
X117884798Y-113873241D01*
X117884792Y-113873245D01*
X117880584Y-113875824D01*
X117700031Y-114030031D01*
X117545824Y-114210584D01*
X117543245Y-114214792D01*
X117543241Y-114214798D01*
X117477836Y-114321529D01*
X117421760Y-114413037D01*
X117419867Y-114417607D01*
X117419865Y-114417611D01*
X117362627Y-114555797D01*
X117330895Y-114632406D01*
X117315420Y-114696866D01*
X117289547Y-114804635D01*
X117275465Y-114863289D01*
X117256835Y-115100000D01*
X98939703Y-115100000D01*
X98884466Y-115014616D01*
X98872822Y-114996617D01*
X98872820Y-114996614D01*
X98870014Y-114992277D01*
X98719670Y-114827051D01*
X98715619Y-114823852D01*
X98715615Y-114823848D01*
X98548414Y-114691800D01*
X98548410Y-114691798D01*
X98544359Y-114688598D01*
X98503053Y-114665796D01*
X98453084Y-114615364D01*
X98438312Y-114545921D01*
X98463428Y-114479516D01*
X98490780Y-114452909D01*
X98552595Y-114408817D01*
X98669860Y-114325173D01*
X98828096Y-114167489D01*
X98887594Y-114084689D01*
X98955435Y-113990277D01*
X98958453Y-113986077D01*
X98979320Y-113943857D01*
X99055136Y-113790453D01*
X99055137Y-113790451D01*
X99057430Y-113785811D01*
X99111873Y-113606620D01*
X99120865Y-113577023D01*
X99120865Y-113577021D01*
X99122370Y-113572069D01*
X99151529Y-113350590D01*
X99153156Y-113284000D01*
X99134852Y-113061361D01*
X99080431Y-112844702D01*
X98991354Y-112639840D01*
X98870014Y-112452277D01*
X98719670Y-112287051D01*
X98715619Y-112283852D01*
X98715615Y-112283848D01*
X98548414Y-112151800D01*
X98548410Y-112151798D01*
X98544359Y-112148598D01*
X98503053Y-112125796D01*
X98453084Y-112075364D01*
X98438312Y-112005921D01*
X98463428Y-111939516D01*
X98490780Y-111912909D01*
X98551500Y-111869598D01*
X98669860Y-111785173D01*
X98828096Y-111627489D01*
X98887594Y-111544689D01*
X98955435Y-111450277D01*
X98958453Y-111446077D01*
X98979320Y-111403857D01*
X99055136Y-111250453D01*
X99055137Y-111250451D01*
X99057430Y-111245811D01*
X99122370Y-111032069D01*
X99151529Y-110810590D01*
X99153156Y-110744000D01*
X99134852Y-110521361D01*
X99080431Y-110304702D01*
X98991354Y-110099840D01*
X98870014Y-109912277D01*
X98719670Y-109747051D01*
X98715619Y-109743852D01*
X98715615Y-109743848D01*
X98548414Y-109611800D01*
X98548410Y-109611798D01*
X98544359Y-109608598D01*
X98503053Y-109585796D01*
X98453084Y-109535364D01*
X98438312Y-109465921D01*
X98463428Y-109399516D01*
X98490780Y-109372909D01*
X98551500Y-109329598D01*
X98669860Y-109245173D01*
X98828096Y-109087489D01*
X98887594Y-109004689D01*
X98955435Y-108910277D01*
X98958453Y-108906077D01*
X98979320Y-108863857D01*
X99055136Y-108710453D01*
X99055137Y-108710451D01*
X99057430Y-108705811D01*
X99122370Y-108492069D01*
X99151529Y-108270590D01*
X99153156Y-108204000D01*
X99134852Y-107981361D01*
X99080431Y-107764702D01*
X98991354Y-107559840D01*
X98870014Y-107372277D01*
X98719670Y-107207051D01*
X98715619Y-107203852D01*
X98715615Y-107203848D01*
X98548414Y-107071800D01*
X98548410Y-107071798D01*
X98544359Y-107068598D01*
X98503053Y-107045796D01*
X98453084Y-106995364D01*
X98438312Y-106925921D01*
X98463428Y-106859516D01*
X98490780Y-106832909D01*
X98551500Y-106789598D01*
X98669860Y-106705173D01*
X98828096Y-106547489D01*
X98887594Y-106464689D01*
X98955435Y-106370277D01*
X98958453Y-106366077D01*
X98979320Y-106323857D01*
X99055136Y-106170453D01*
X99055137Y-106170451D01*
X99057430Y-106165811D01*
X99122370Y-105952069D01*
X99151529Y-105730590D01*
X99153156Y-105664000D01*
X99134852Y-105441361D01*
X99080431Y-105224702D01*
X98991354Y-105019840D01*
X98870014Y-104832277D01*
X98719670Y-104667051D01*
X98715619Y-104663852D01*
X98715615Y-104663848D01*
X98548414Y-104531800D01*
X98548410Y-104531798D01*
X98544359Y-104528598D01*
X98503053Y-104505796D01*
X98453084Y-104455364D01*
X98438312Y-104385921D01*
X98463428Y-104319516D01*
X98490780Y-104292909D01*
X98551500Y-104249598D01*
X98669860Y-104165173D01*
X98828096Y-104007489D01*
X98887594Y-103924689D01*
X98955435Y-103830277D01*
X98958453Y-103826077D01*
X98979320Y-103783857D01*
X99055136Y-103630453D01*
X99055137Y-103630451D01*
X99057430Y-103625811D01*
X99122370Y-103412069D01*
X99151529Y-103190590D01*
X99153156Y-103124000D01*
X99134852Y-102901361D01*
X99080431Y-102684702D01*
X98991354Y-102479840D01*
X98870014Y-102292277D01*
X98719670Y-102127051D01*
X98715619Y-102123852D01*
X98715615Y-102123848D01*
X98548414Y-101991800D01*
X98548410Y-101991798D01*
X98544359Y-101988598D01*
X98503053Y-101965796D01*
X98453084Y-101915364D01*
X98438312Y-101845921D01*
X98463428Y-101779516D01*
X98490780Y-101752909D01*
X98551500Y-101709598D01*
X98669860Y-101625173D01*
X98828096Y-101467489D01*
X98887594Y-101384689D01*
X98955435Y-101290277D01*
X98958453Y-101286077D01*
X98979320Y-101243857D01*
X99055136Y-101090453D01*
X99055137Y-101090451D01*
X99057430Y-101085811D01*
X99122370Y-100872069D01*
X99151529Y-100650590D01*
X99153156Y-100584000D01*
X99134852Y-100361361D01*
X99080431Y-100144702D01*
X98991354Y-99939840D01*
X98870014Y-99752277D01*
X98719670Y-99587051D01*
X98715619Y-99583852D01*
X98715615Y-99583848D01*
X98548414Y-99451800D01*
X98548410Y-99451798D01*
X98544359Y-99448598D01*
X98503053Y-99425796D01*
X98453084Y-99375364D01*
X98438312Y-99305921D01*
X98463428Y-99239516D01*
X98490780Y-99212909D01*
X98551500Y-99169598D01*
X98669860Y-99085173D01*
X98828096Y-98927489D01*
X98887594Y-98844689D01*
X98955435Y-98750277D01*
X98958453Y-98746077D01*
X98979320Y-98703857D01*
X99055136Y-98550453D01*
X99055137Y-98550451D01*
X99057430Y-98545811D01*
X99122370Y-98332069D01*
X99151529Y-98110590D01*
X99153156Y-98044000D01*
X99134852Y-97821361D01*
X99080431Y-97604702D01*
X98991354Y-97399840D01*
X98870014Y-97212277D01*
X98719670Y-97047051D01*
X98715619Y-97043852D01*
X98715615Y-97043848D01*
X98548414Y-96911800D01*
X98548410Y-96911798D01*
X98544359Y-96908598D01*
X98503053Y-96885796D01*
X98453084Y-96835364D01*
X98438312Y-96765921D01*
X98463428Y-96699516D01*
X98490780Y-96672909D01*
X98551500Y-96629598D01*
X98669860Y-96545173D01*
X98828096Y-96387489D01*
X98887594Y-96304689D01*
X98955435Y-96210277D01*
X98958453Y-96206077D01*
X98979320Y-96163857D01*
X99055136Y-96010453D01*
X99055137Y-96010451D01*
X99057430Y-96005811D01*
X99122370Y-95792069D01*
X99151529Y-95570590D01*
X99153156Y-95504000D01*
X99134852Y-95281361D01*
X99080431Y-95064702D01*
X98991354Y-94859840D01*
X98870014Y-94672277D01*
X98719670Y-94507051D01*
X98715619Y-94503852D01*
X98715615Y-94503848D01*
X98548414Y-94371800D01*
X98548410Y-94371798D01*
X98544359Y-94368598D01*
X98503053Y-94345796D01*
X98453084Y-94295364D01*
X98438312Y-94225921D01*
X98463428Y-94159516D01*
X98490780Y-94132909D01*
X98551500Y-94089598D01*
X98669860Y-94005173D01*
X98828096Y-93847489D01*
X98887594Y-93764689D01*
X98955435Y-93670277D01*
X98958453Y-93666077D01*
X98979320Y-93623857D01*
X99055136Y-93470453D01*
X99055137Y-93470451D01*
X99057430Y-93465811D01*
X99122370Y-93252069D01*
X99151529Y-93030590D01*
X99153156Y-92964000D01*
X99134852Y-92741361D01*
X99080431Y-92524702D01*
X98991354Y-92319840D01*
X98870014Y-92132277D01*
X98719670Y-91967051D01*
X98715619Y-91963852D01*
X98715615Y-91963848D01*
X98548414Y-91831800D01*
X98548410Y-91831798D01*
X98544359Y-91828598D01*
X98503053Y-91805796D01*
X98453084Y-91755364D01*
X98438312Y-91685921D01*
X98463428Y-91619516D01*
X98490780Y-91592909D01*
X98551500Y-91549598D01*
X98669860Y-91465173D01*
X98828096Y-91307489D01*
X98887594Y-91224689D01*
X98955435Y-91130277D01*
X98958453Y-91126077D01*
X98979320Y-91083857D01*
X99055136Y-90930453D01*
X99055137Y-90930451D01*
X99057430Y-90925811D01*
X99122370Y-90712069D01*
X99151529Y-90490590D01*
X99153156Y-90424000D01*
X99134852Y-90201361D01*
X99080431Y-89984702D01*
X98991354Y-89779840D01*
X98870014Y-89592277D01*
X98719670Y-89427051D01*
X98715619Y-89423852D01*
X98715615Y-89423848D01*
X98548414Y-89291800D01*
X98548410Y-89291798D01*
X98544359Y-89288598D01*
X98503053Y-89265796D01*
X98453084Y-89215364D01*
X98438312Y-89145921D01*
X98463428Y-89079516D01*
X98490780Y-89052909D01*
X98551500Y-89009598D01*
X98669860Y-88925173D01*
X98828096Y-88767489D01*
X98887594Y-88684689D01*
X98955435Y-88590277D01*
X98958453Y-88586077D01*
X98979320Y-88543857D01*
X99055136Y-88390453D01*
X99055137Y-88390451D01*
X99057430Y-88385811D01*
X99122370Y-88172069D01*
X99151529Y-87950590D01*
X99153156Y-87884000D01*
X99134852Y-87661361D01*
X99080431Y-87444702D01*
X98991354Y-87239840D01*
X98870014Y-87052277D01*
X98719670Y-86887051D01*
X98715619Y-86883852D01*
X98715615Y-86883848D01*
X98548414Y-86751800D01*
X98548410Y-86751798D01*
X98544359Y-86748598D01*
X98503053Y-86725796D01*
X98453084Y-86675364D01*
X98438312Y-86605921D01*
X98463428Y-86539516D01*
X98490780Y-86512909D01*
X98551500Y-86469598D01*
X98669860Y-86385173D01*
X98828096Y-86227489D01*
X98887594Y-86144689D01*
X98955435Y-86050277D01*
X98958453Y-86046077D01*
X98979320Y-86003857D01*
X99055136Y-85850453D01*
X99055137Y-85850451D01*
X99057430Y-85845811D01*
X99122370Y-85632069D01*
X99151529Y-85410590D01*
X99153156Y-85344000D01*
X99134852Y-85121361D01*
X99080431Y-84904702D01*
X98991354Y-84699840D01*
X98870014Y-84512277D01*
X98719670Y-84347051D01*
X98715619Y-84343852D01*
X98715615Y-84343848D01*
X98548414Y-84211800D01*
X98548410Y-84211798D01*
X98544359Y-84208598D01*
X98503053Y-84185796D01*
X98453084Y-84135364D01*
X98438312Y-84065921D01*
X98463428Y-83999516D01*
X98490780Y-83972909D01*
X98551500Y-83929598D01*
X98669860Y-83845173D01*
X98828096Y-83687489D01*
X98887594Y-83604689D01*
X98955435Y-83510277D01*
X98958453Y-83506077D01*
X98979320Y-83463857D01*
X99055136Y-83310453D01*
X99055137Y-83310451D01*
X99057430Y-83305811D01*
X99122370Y-83092069D01*
X99151529Y-82870590D01*
X99153156Y-82804000D01*
X99134852Y-82581361D01*
X99080431Y-82364702D01*
X98991354Y-82159840D01*
X98870014Y-81972277D01*
X98719670Y-81807051D01*
X98715619Y-81803852D01*
X98715615Y-81803848D01*
X98548414Y-81671800D01*
X98548410Y-81671798D01*
X98544359Y-81668598D01*
X98503053Y-81645796D01*
X98453084Y-81595364D01*
X98438312Y-81525921D01*
X98463428Y-81459516D01*
X98490780Y-81432909D01*
X98551500Y-81389598D01*
X98669860Y-81305173D01*
X98828096Y-81147489D01*
X98887594Y-81064689D01*
X98955435Y-80970277D01*
X98958453Y-80966077D01*
X98979320Y-80923857D01*
X99055136Y-80770453D01*
X99055137Y-80770451D01*
X99057430Y-80765811D01*
X99122370Y-80552069D01*
X99151529Y-80330590D01*
X99153156Y-80264000D01*
X99134852Y-80041361D01*
X99080431Y-79824702D01*
X98991354Y-79619840D01*
X98870014Y-79432277D01*
X98719670Y-79267051D01*
X98715619Y-79263852D01*
X98715615Y-79263848D01*
X98548414Y-79131800D01*
X98548410Y-79131798D01*
X98544359Y-79128598D01*
X98503053Y-79105796D01*
X98453084Y-79055364D01*
X98438312Y-78985921D01*
X98463428Y-78919516D01*
X98490780Y-78892909D01*
X98551500Y-78849598D01*
X98669860Y-78765173D01*
X98828096Y-78607489D01*
X98887594Y-78524689D01*
X98955435Y-78430277D01*
X98958453Y-78426077D01*
X98979320Y-78383857D01*
X99055136Y-78230453D01*
X99055137Y-78230451D01*
X99057430Y-78225811D01*
X99122370Y-78012069D01*
X99151529Y-77790590D01*
X99153156Y-77724000D01*
X99134852Y-77501361D01*
X99080431Y-77284702D01*
X98991354Y-77079840D01*
X98870014Y-76892277D01*
X98719670Y-76727051D01*
X98715619Y-76723852D01*
X98715615Y-76723848D01*
X98548414Y-76591800D01*
X98548410Y-76591798D01*
X98544359Y-76588598D01*
X98503053Y-76565796D01*
X98453084Y-76515364D01*
X98438312Y-76445921D01*
X98463428Y-76379516D01*
X98490780Y-76352909D01*
X98551500Y-76309598D01*
X98669860Y-76225173D01*
X98828096Y-76067489D01*
X98887594Y-75984689D01*
X98955435Y-75890277D01*
X98958453Y-75886077D01*
X98979320Y-75843857D01*
X99055136Y-75690453D01*
X99055137Y-75690451D01*
X99057430Y-75685811D01*
X99122370Y-75472069D01*
X99151529Y-75250590D01*
X99153156Y-75184000D01*
X99134852Y-74961361D01*
X99080431Y-74744702D01*
X98991354Y-74539840D01*
X98870014Y-74352277D01*
X98719670Y-74187051D01*
X98715619Y-74183852D01*
X98715615Y-74183848D01*
X98548414Y-74051800D01*
X98548410Y-74051798D01*
X98544359Y-74048598D01*
X98503053Y-74025796D01*
X98453084Y-73975364D01*
X98438312Y-73905921D01*
X98463428Y-73839516D01*
X98490780Y-73812909D01*
X98551500Y-73769598D01*
X98669860Y-73685173D01*
X98828096Y-73527489D01*
X98887594Y-73444689D01*
X98955435Y-73350277D01*
X98958453Y-73346077D01*
X98979320Y-73303857D01*
X99055136Y-73150453D01*
X99055137Y-73150451D01*
X99057430Y-73145811D01*
X99122370Y-72932069D01*
X99151529Y-72710590D01*
X99153156Y-72644000D01*
X99134852Y-72421361D01*
X99080431Y-72204702D01*
X98991354Y-71999840D01*
X98870014Y-71812277D01*
X98719670Y-71647051D01*
X98715619Y-71643852D01*
X98715615Y-71643848D01*
X98548414Y-71511800D01*
X98548410Y-71511798D01*
X98544359Y-71508598D01*
X98503053Y-71485796D01*
X98453084Y-71435364D01*
X98438312Y-71365921D01*
X98463428Y-71299516D01*
X98490780Y-71272909D01*
X98551500Y-71229598D01*
X98669860Y-71145173D01*
X98828096Y-70987489D01*
X98887594Y-70904689D01*
X98955435Y-70810277D01*
X98958453Y-70806077D01*
X98979320Y-70763857D01*
X99055136Y-70610453D01*
X99055137Y-70610451D01*
X99057430Y-70605811D01*
X99122370Y-70392069D01*
X99151529Y-70170590D01*
X99153156Y-70104000D01*
X99134852Y-69881361D01*
X99080431Y-69664702D01*
X98991354Y-69459840D01*
X98870014Y-69272277D01*
X98719670Y-69107051D01*
X98715619Y-69103852D01*
X98715615Y-69103848D01*
X98548414Y-68971800D01*
X98548410Y-68971798D01*
X98544359Y-68968598D01*
X98503053Y-68945796D01*
X98453084Y-68895364D01*
X98438312Y-68825921D01*
X98463428Y-68759516D01*
X98490780Y-68732909D01*
X98551500Y-68689598D01*
X98669860Y-68605173D01*
X98828096Y-68447489D01*
X98887594Y-68364689D01*
X98955435Y-68270277D01*
X98958453Y-68266077D01*
X98979320Y-68223857D01*
X99055136Y-68070453D01*
X99055137Y-68070451D01*
X99057430Y-68065811D01*
X99122370Y-67852069D01*
X99151529Y-67630590D01*
X99153156Y-67564000D01*
X99134852Y-67341361D01*
X99080431Y-67124702D01*
X98991354Y-66919840D01*
X98870014Y-66732277D01*
X98719670Y-66567051D01*
X98715619Y-66563852D01*
X98715615Y-66563848D01*
X98548414Y-66431800D01*
X98548410Y-66431798D01*
X98544359Y-66428598D01*
X98503053Y-66405796D01*
X98453084Y-66355364D01*
X98438312Y-66285921D01*
X98463428Y-66219516D01*
X98490780Y-66192909D01*
X98551500Y-66149598D01*
X98669860Y-66065173D01*
X98828096Y-65907489D01*
X98887594Y-65824689D01*
X98955435Y-65730277D01*
X98958453Y-65726077D01*
X98979320Y-65683857D01*
X99055136Y-65530453D01*
X99055137Y-65530451D01*
X99057430Y-65525811D01*
X99122370Y-65312069D01*
X99151529Y-65090590D01*
X99153156Y-65024000D01*
X99134852Y-64801361D01*
X99080431Y-64584702D01*
X98991354Y-64379840D01*
X98870014Y-64192277D01*
X98719670Y-64027051D01*
X98715619Y-64023852D01*
X98715615Y-64023848D01*
X98548414Y-63891800D01*
X98548410Y-63891798D01*
X98544359Y-63888598D01*
X98503053Y-63865796D01*
X98453084Y-63815364D01*
X98438312Y-63745921D01*
X98463428Y-63679516D01*
X98490780Y-63652909D01*
X98551500Y-63609598D01*
X98669860Y-63525173D01*
X98828096Y-63367489D01*
X98887594Y-63284689D01*
X98955435Y-63190277D01*
X98958453Y-63186077D01*
X98979320Y-63143857D01*
X99055136Y-62990453D01*
X99055137Y-62990451D01*
X99057430Y-62985811D01*
X99122370Y-62772069D01*
X99151529Y-62550590D01*
X99153156Y-62484000D01*
X99134852Y-62261361D01*
X99080431Y-62044702D01*
X98991354Y-61839840D01*
X98870014Y-61652277D01*
X98719670Y-61487051D01*
X98715619Y-61483852D01*
X98715615Y-61483848D01*
X98548414Y-61351800D01*
X98548410Y-61351798D01*
X98544359Y-61348598D01*
X98503053Y-61325796D01*
X98453084Y-61275364D01*
X98438312Y-61205921D01*
X98463428Y-61139516D01*
X98490780Y-61112909D01*
X98551500Y-61069598D01*
X98669860Y-60985173D01*
X98679454Y-60975613D01*
X98824435Y-60831137D01*
X98828096Y-60827489D01*
X98832477Y-60821393D01*
X98955435Y-60650277D01*
X98958453Y-60646077D01*
X98961031Y-60640862D01*
X98964178Y-60634494D01*
X125449044Y-60634494D01*
X125465102Y-60798268D01*
X125517045Y-60954415D01*
X125520694Y-60960440D01*
X125588584Y-61072538D01*
X125602292Y-61095173D01*
X125716604Y-61213547D01*
X125854302Y-61303654D01*
X126008541Y-61361015D01*
X126015522Y-61361946D01*
X126015524Y-61361947D01*
X126164674Y-61381848D01*
X126164678Y-61381848D01*
X126171655Y-61382779D01*
X126178666Y-61382141D01*
X126178670Y-61382141D01*
X126328516Y-61368504D01*
X126328517Y-61368504D01*
X126335537Y-61367865D01*
X126384980Y-61351800D01*
X126485343Y-61319190D01*
X126485346Y-61319189D01*
X126492042Y-61317013D01*
X126633392Y-61232751D01*
X126752562Y-61119268D01*
X126756787Y-61112909D01*
X126839727Y-60988075D01*
X126839728Y-60988073D01*
X126843628Y-60982203D01*
X126902064Y-60828368D01*
X126924966Y-60665410D01*
X126925108Y-60655230D01*
X126925199Y-60648762D01*
X126925199Y-60648756D01*
X126925254Y-60644800D01*
X126906911Y-60481266D01*
X126855559Y-60333803D01*
X126852046Y-60262895D01*
X126856763Y-60247625D01*
X126899562Y-60134954D01*
X126902064Y-60128368D01*
X126918150Y-60013908D01*
X126924415Y-59969334D01*
X126924416Y-59969327D01*
X126924966Y-59965410D01*
X126925254Y-59944800D01*
X126906911Y-59781266D01*
X126901111Y-59764609D01*
X126855111Y-59632517D01*
X126852793Y-59625860D01*
X126765589Y-59486305D01*
X126688304Y-59408479D01*
X126654599Y-59374537D01*
X126654595Y-59374534D01*
X126649635Y-59369539D01*
X126510693Y-59281363D01*
X126404693Y-59243618D01*
X126362302Y-59228523D01*
X126362300Y-59228522D01*
X126355668Y-59226161D01*
X126348682Y-59225328D01*
X126348678Y-59225327D01*
X126234184Y-59211675D01*
X126192266Y-59206677D01*
X126185263Y-59207413D01*
X126185262Y-59207413D01*
X126142048Y-59211955D01*
X126028608Y-59223878D01*
X126021940Y-59226148D01*
X125879495Y-59274640D01*
X125879492Y-59274641D01*
X125872828Y-59276910D01*
X125732668Y-59363137D01*
X125721027Y-59374537D01*
X125624963Y-59468610D01*
X125615095Y-59478273D01*
X125525951Y-59616597D01*
X125523540Y-59623220D01*
X125523539Y-59623223D01*
X125472079Y-59764609D01*
X125472078Y-59764614D01*
X125469669Y-59771232D01*
X125449044Y-59934494D01*
X125465102Y-60098268D01*
X125476894Y-60133715D01*
X125517045Y-60254415D01*
X125514877Y-60255136D01*
X125523701Y-60314636D01*
X125517307Y-60340347D01*
X125513197Y-60351639D01*
X125472079Y-60464609D01*
X125472078Y-60464614D01*
X125469669Y-60471232D01*
X125449044Y-60634494D01*
X98964178Y-60634494D01*
X99055136Y-60450453D01*
X99055137Y-60450451D01*
X99057430Y-60445811D01*
X99122370Y-60232069D01*
X99151529Y-60010590D01*
X99153156Y-59944000D01*
X99134852Y-59721361D01*
X99080431Y-59504702D01*
X98991354Y-59299840D01*
X98943689Y-59226161D01*
X98872822Y-59116617D01*
X98872820Y-59116614D01*
X98870014Y-59112277D01*
X98719670Y-58947051D01*
X98715619Y-58943852D01*
X98715615Y-58943848D01*
X98577149Y-58834494D01*
X129081331Y-58834494D01*
X129097389Y-58998268D01*
X129149332Y-59154415D01*
X129152981Y-59160440D01*
X129228503Y-59285140D01*
X129234579Y-59295173D01*
X129239470Y-59300238D01*
X129239471Y-59300239D01*
X129300211Y-59363137D01*
X129348891Y-59413547D01*
X129486589Y-59503654D01*
X129640828Y-59561015D01*
X129647809Y-59561946D01*
X129647811Y-59561947D01*
X129796961Y-59581848D01*
X129796965Y-59581848D01*
X129803942Y-59582779D01*
X129810953Y-59582141D01*
X129810957Y-59582141D01*
X129960803Y-59568504D01*
X129960804Y-59568504D01*
X129967824Y-59567865D01*
X129996462Y-59558560D01*
X130117630Y-59519190D01*
X130117633Y-59519189D01*
X130124329Y-59517013D01*
X130265679Y-59432751D01*
X130384849Y-59319268D01*
X130400858Y-59295173D01*
X130472014Y-59188075D01*
X130472015Y-59188073D01*
X130475915Y-59182203D01*
X130534351Y-59028368D01*
X130557253Y-58865410D01*
X130557541Y-58844800D01*
X130539198Y-58681266D01*
X130487846Y-58533803D01*
X130484333Y-58462895D01*
X130489050Y-58447625D01*
X130531849Y-58334954D01*
X130534351Y-58328368D01*
X130557253Y-58165410D01*
X130557541Y-58144800D01*
X130539198Y-57981266D01*
X130533398Y-57964609D01*
X130487398Y-57832517D01*
X130485080Y-57825860D01*
X130479185Y-57816425D01*
X130401609Y-57692279D01*
X130397876Y-57686305D01*
X130300798Y-57588547D01*
X130286886Y-57574537D01*
X130286882Y-57574534D01*
X130281922Y-57569539D01*
X130142980Y-57481363D01*
X130093847Y-57463868D01*
X129994589Y-57428523D01*
X129994587Y-57428522D01*
X129987955Y-57426161D01*
X129980969Y-57425328D01*
X129980965Y-57425327D01*
X129866471Y-57411675D01*
X129824553Y-57406677D01*
X129817550Y-57407413D01*
X129817549Y-57407413D01*
X129774335Y-57411955D01*
X129660895Y-57423878D01*
X129654227Y-57426148D01*
X129511782Y-57474640D01*
X129511779Y-57474641D01*
X129505115Y-57476910D01*
X129364955Y-57563137D01*
X129247382Y-57678273D01*
X129158238Y-57816597D01*
X129155827Y-57823220D01*
X129155826Y-57823223D01*
X129104366Y-57964609D01*
X129104365Y-57964614D01*
X129101956Y-57971232D01*
X129081331Y-58134494D01*
X129097389Y-58298268D01*
X129099613Y-58304953D01*
X129149332Y-58454415D01*
X129147164Y-58455136D01*
X129155988Y-58514636D01*
X129149593Y-58540350D01*
X129104366Y-58664609D01*
X129104365Y-58664614D01*
X129101956Y-58671232D01*
X129081331Y-58834494D01*
X98577149Y-58834494D01*
X98548414Y-58811800D01*
X98548410Y-58811798D01*
X98544359Y-58808598D01*
X98503053Y-58785796D01*
X98453084Y-58735364D01*
X98438312Y-58665921D01*
X98463428Y-58599516D01*
X98490780Y-58572909D01*
X98556740Y-58525860D01*
X98669860Y-58445173D01*
X98828096Y-58287489D01*
X98887594Y-58204689D01*
X98955435Y-58110277D01*
X98958453Y-58106077D01*
X98979320Y-58063857D01*
X99055136Y-57910453D01*
X99055137Y-57910451D01*
X99057430Y-57905811D01*
X99122370Y-57692069D01*
X99151529Y-57470590D01*
X99153156Y-57404000D01*
X99134852Y-57181361D01*
X99080431Y-56964702D01*
X98991354Y-56759840D01*
X98893336Y-56608327D01*
X98872822Y-56576617D01*
X98872820Y-56576614D01*
X98870014Y-56572277D01*
X98719670Y-56407051D01*
X98715619Y-56403852D01*
X98715615Y-56403848D01*
X98548414Y-56271800D01*
X98548410Y-56271798D01*
X98544359Y-56268598D01*
X98503053Y-56245796D01*
X98453084Y-56195364D01*
X98438312Y-56125921D01*
X98463428Y-56059516D01*
X98490780Y-56032909D01*
X98551842Y-55989354D01*
X98669860Y-55905173D01*
X98828096Y-55747489D01*
X98861957Y-55700367D01*
X98899869Y-55647606D01*
X136453843Y-55647606D01*
X136469901Y-55811380D01*
X136521844Y-55967527D01*
X136535063Y-55989354D01*
X136598039Y-56093338D01*
X136607091Y-56108285D01*
X136611982Y-56113350D01*
X136611983Y-56113351D01*
X136666241Y-56169537D01*
X136721403Y-56226659D01*
X136859101Y-56316766D01*
X136927181Y-56342085D01*
X136984056Y-56384577D01*
X137002816Y-56420405D01*
X137016820Y-56462503D01*
X137020469Y-56468528D01*
X137085931Y-56576617D01*
X137102067Y-56603261D01*
X137216379Y-56721635D01*
X137354077Y-56811742D01*
X137508316Y-56869103D01*
X137515297Y-56870034D01*
X137515299Y-56870035D01*
X137664449Y-56889936D01*
X137664453Y-56889936D01*
X137671430Y-56890867D01*
X137678441Y-56890229D01*
X137678445Y-56890229D01*
X137828291Y-56876592D01*
X137828292Y-56876592D01*
X137835312Y-56875953D01*
X137863950Y-56866648D01*
X137985118Y-56827278D01*
X137985121Y-56827277D01*
X137991817Y-56825101D01*
X138133167Y-56740839D01*
X138252337Y-56627356D01*
X138268346Y-56603261D01*
X138339502Y-56496163D01*
X138339503Y-56496161D01*
X138343403Y-56490291D01*
X138401839Y-56336456D01*
X138424741Y-56173498D01*
X138425029Y-56152888D01*
X138406686Y-55989354D01*
X138352568Y-55833948D01*
X138265364Y-55694393D01*
X138207387Y-55636010D01*
X138154374Y-55582625D01*
X138154370Y-55582622D01*
X138149410Y-55577627D01*
X138010468Y-55489451D01*
X137952641Y-55468860D01*
X137895179Y-55427165D01*
X137875919Y-55391599D01*
X137862017Y-55351680D01*
X137857592Y-55338972D01*
X137770388Y-55199417D01*
X137712411Y-55141034D01*
X137659398Y-55087649D01*
X137659394Y-55087646D01*
X137654434Y-55082651D01*
X137515492Y-54994475D01*
X137466359Y-54976980D01*
X137367101Y-54941635D01*
X137367099Y-54941634D01*
X137360467Y-54939273D01*
X137353481Y-54938440D01*
X137353477Y-54938439D01*
X137238983Y-54924787D01*
X137197065Y-54919789D01*
X137190062Y-54920525D01*
X137190061Y-54920525D01*
X137146847Y-54925067D01*
X137033407Y-54936990D01*
X137026739Y-54939260D01*
X136884294Y-54987752D01*
X136884291Y-54987753D01*
X136877627Y-54990022D01*
X136782496Y-55048547D01*
X136765884Y-55058767D01*
X136737467Y-55076249D01*
X136619894Y-55191385D01*
X136530750Y-55329709D01*
X136528339Y-55336332D01*
X136528338Y-55336335D01*
X136476878Y-55477721D01*
X136476877Y-55477726D01*
X136474468Y-55484344D01*
X136453843Y-55647606D01*
X98899869Y-55647606D01*
X98955435Y-55570277D01*
X98958453Y-55566077D01*
X98979320Y-55523857D01*
X99055136Y-55370453D01*
X99055137Y-55370451D01*
X99057430Y-55365811D01*
X99089900Y-55258940D01*
X99120865Y-55157023D01*
X99120865Y-55157021D01*
X99122370Y-55152069D01*
X99151529Y-54930590D01*
X99153156Y-54864000D01*
X99134852Y-54641361D01*
X99080431Y-54424702D01*
X98991354Y-54219840D01*
X98916776Y-54104560D01*
X98872822Y-54036617D01*
X98872820Y-54036614D01*
X98870014Y-54032277D01*
X98719670Y-53867051D01*
X98715619Y-53863852D01*
X98715615Y-53863848D01*
X98548414Y-53731800D01*
X98548410Y-53731798D01*
X98544359Y-53728598D01*
X98503053Y-53705796D01*
X98453084Y-53655364D01*
X98438312Y-53585921D01*
X98463428Y-53519516D01*
X98490780Y-53492909D01*
X98551500Y-53449598D01*
X98648381Y-53380494D01*
X119149931Y-53380494D01*
X119165989Y-53544268D01*
X119217932Y-53700415D01*
X119226404Y-53714403D01*
X119291174Y-53821350D01*
X119303179Y-53841173D01*
X119417491Y-53959547D01*
X119555189Y-54049654D01*
X119709428Y-54107015D01*
X119716409Y-54107946D01*
X119716411Y-54107947D01*
X119865561Y-54127848D01*
X119865565Y-54127848D01*
X119872542Y-54128779D01*
X119879553Y-54128141D01*
X119879557Y-54128141D01*
X120029403Y-54114504D01*
X120029404Y-54114504D01*
X120036424Y-54113865D01*
X120085599Y-54097887D01*
X120186230Y-54065190D01*
X120186233Y-54065189D01*
X120192929Y-54063013D01*
X120334279Y-53978751D01*
X120453449Y-53865268D01*
X120457350Y-53859397D01*
X120540614Y-53734075D01*
X120540615Y-53734073D01*
X120544515Y-53728203D01*
X120602951Y-53574368D01*
X120620486Y-53449598D01*
X120625302Y-53415334D01*
X120625303Y-53415327D01*
X120625853Y-53411410D01*
X120626141Y-53390800D01*
X120607798Y-53227266D01*
X120601998Y-53210609D01*
X120566599Y-53108958D01*
X120553680Y-53071860D01*
X120525072Y-53026077D01*
X120470209Y-52938279D01*
X120466476Y-52932305D01*
X120408499Y-52873922D01*
X120355486Y-52820537D01*
X120355482Y-52820534D01*
X120350522Y-52815539D01*
X120211580Y-52727363D01*
X120162447Y-52709868D01*
X120063189Y-52674523D01*
X120063187Y-52674522D01*
X120056555Y-52672161D01*
X120049569Y-52671328D01*
X120049565Y-52671327D01*
X119935071Y-52657675D01*
X119893153Y-52652677D01*
X119886150Y-52653413D01*
X119886149Y-52653413D01*
X119842935Y-52657955D01*
X119729495Y-52669878D01*
X119722827Y-52672148D01*
X119580382Y-52720640D01*
X119580379Y-52720641D01*
X119573715Y-52722910D01*
X119551747Y-52736425D01*
X119445914Y-52801534D01*
X119433555Y-52809137D01*
X119315982Y-52924273D01*
X119226838Y-53062597D01*
X119224427Y-53069220D01*
X119224426Y-53069223D01*
X119172966Y-53210609D01*
X119172965Y-53210614D01*
X119170556Y-53217232D01*
X119149931Y-53380494D01*
X98648381Y-53380494D01*
X98669860Y-53365173D01*
X98828096Y-53207489D01*
X98887594Y-53124689D01*
X98955435Y-53030277D01*
X98958453Y-53026077D01*
X98979320Y-52983857D01*
X99055136Y-52830453D01*
X99055137Y-52830451D01*
X99057430Y-52825811D01*
X99122370Y-52612069D01*
X99151529Y-52390590D01*
X99153156Y-52324000D01*
X99134852Y-52101361D01*
X99080431Y-51884702D01*
X98991354Y-51679840D01*
X98924824Y-51577000D01*
X98918157Y-51566694D01*
X123763931Y-51566694D01*
X123779989Y-51730468D01*
X123782212Y-51737149D01*
X123782213Y-51737156D01*
X123827700Y-51873895D01*
X123830223Y-51944846D01*
X123826543Y-51956760D01*
X123811966Y-51996809D01*
X123811965Y-51996814D01*
X123809556Y-52003432D01*
X123788931Y-52166694D01*
X123804989Y-52330468D01*
X123824989Y-52390590D01*
X123840762Y-52438006D01*
X123843285Y-52508958D01*
X123839605Y-52520872D01*
X123811966Y-52596809D01*
X123811965Y-52596814D01*
X123809556Y-52603432D01*
X123788931Y-52766694D01*
X123804989Y-52930468D01*
X123812682Y-52953593D01*
X123840762Y-53038006D01*
X123843285Y-53108958D01*
X123839605Y-53120872D01*
X123811966Y-53196809D01*
X123811965Y-53196814D01*
X123809556Y-53203432D01*
X123788931Y-53366694D01*
X123804989Y-53530468D01*
X123856932Y-53686615D01*
X123942179Y-53827373D01*
X123947070Y-53832438D01*
X123947071Y-53832439D01*
X123962458Y-53848373D01*
X124056491Y-53945747D01*
X124194189Y-54035854D01*
X124348428Y-54093215D01*
X124355409Y-54094146D01*
X124355411Y-54094147D01*
X124504561Y-54114048D01*
X124504565Y-54114048D01*
X124511542Y-54114979D01*
X124518553Y-54114341D01*
X124518557Y-54114341D01*
X124668403Y-54100704D01*
X124668404Y-54100704D01*
X124675424Y-54100065D01*
X124704062Y-54090760D01*
X124825230Y-54051390D01*
X124825233Y-54051389D01*
X124831929Y-54049213D01*
X124973279Y-53964951D01*
X125092449Y-53851468D01*
X125108458Y-53827373D01*
X125179614Y-53720275D01*
X125179615Y-53720273D01*
X125183515Y-53714403D01*
X125241951Y-53560568D01*
X125250507Y-53499689D01*
X125264302Y-53401534D01*
X125264303Y-53401527D01*
X125264853Y-53397610D01*
X125265141Y-53377000D01*
X125246798Y-53213466D01*
X125243255Y-53203292D01*
X125213615Y-53118177D01*
X125210101Y-53047267D01*
X125214818Y-53031997D01*
X125218829Y-53021438D01*
X125241951Y-52960568D01*
X125250507Y-52899689D01*
X125264302Y-52801534D01*
X125264303Y-52801527D01*
X125264853Y-52797610D01*
X125265141Y-52777000D01*
X125246798Y-52613466D01*
X125243304Y-52603432D01*
X125213615Y-52518177D01*
X125210101Y-52447267D01*
X125214818Y-52431997D01*
X125239449Y-52367154D01*
X125241951Y-52360568D01*
X125264853Y-52197610D01*
X125265141Y-52177000D01*
X125246798Y-52013466D01*
X125240998Y-51996809D01*
X125201658Y-51883841D01*
X125198144Y-51812931D01*
X125202861Y-51797661D01*
X125214449Y-51767155D01*
X125214449Y-51767154D01*
X125216951Y-51760568D01*
X125227629Y-51684590D01*
X125239302Y-51601534D01*
X125239303Y-51601527D01*
X125239853Y-51597610D01*
X125240141Y-51577000D01*
X125221798Y-51413466D01*
X125192077Y-51328118D01*
X125188564Y-51257211D01*
X125193281Y-51241941D01*
X125211401Y-51194238D01*
X125224951Y-51158568D01*
X125237770Y-51067357D01*
X125247302Y-50999534D01*
X125247303Y-50999527D01*
X125247853Y-50995610D01*
X125248141Y-50975000D01*
X125229798Y-50811466D01*
X125197523Y-50718785D01*
X125194009Y-50647877D01*
X125198726Y-50632605D01*
X125222451Y-50570150D01*
X125222452Y-50570148D01*
X125224951Y-50563568D01*
X125230166Y-50526459D01*
X125247302Y-50404534D01*
X125247303Y-50404527D01*
X125247853Y-50400610D01*
X125248141Y-50380000D01*
X125229798Y-50216466D01*
X125223998Y-50199809D01*
X125177998Y-50067717D01*
X125175680Y-50061060D01*
X125124258Y-49978767D01*
X125092209Y-49927479D01*
X125088476Y-49921505D01*
X125018054Y-49850590D01*
X124977486Y-49809737D01*
X124977482Y-49809734D01*
X124972522Y-49804739D01*
X124833580Y-49716563D01*
X124784447Y-49699068D01*
X124685189Y-49663723D01*
X124685187Y-49663722D01*
X124678555Y-49661361D01*
X124671569Y-49660528D01*
X124671565Y-49660527D01*
X124557071Y-49646875D01*
X124515153Y-49641877D01*
X124508150Y-49642613D01*
X124508149Y-49642613D01*
X124464935Y-49647155D01*
X124351495Y-49659078D01*
X124344827Y-49661348D01*
X124202382Y-49709840D01*
X124202379Y-49709841D01*
X124195715Y-49712110D01*
X124055555Y-49798337D01*
X123937982Y-49913473D01*
X123848838Y-50051797D01*
X123846427Y-50058420D01*
X123846426Y-50058423D01*
X123794966Y-50199809D01*
X123794965Y-50199814D01*
X123792556Y-50206432D01*
X123771931Y-50369694D01*
X123787989Y-50533468D01*
X123805028Y-50584688D01*
X123822893Y-50638394D01*
X123825416Y-50709346D01*
X123821736Y-50721260D01*
X123794966Y-50794809D01*
X123794965Y-50794814D01*
X123792556Y-50801432D01*
X123771931Y-50964694D01*
X123787989Y-51128468D01*
X123790212Y-51135150D01*
X123790213Y-51135156D01*
X123820289Y-51225568D01*
X123822812Y-51296520D01*
X123819132Y-51308434D01*
X123786966Y-51396809D01*
X123786965Y-51396813D01*
X123784556Y-51403432D01*
X123763931Y-51566694D01*
X98918157Y-51566694D01*
X98872822Y-51496617D01*
X98872820Y-51496614D01*
X98870014Y-51492277D01*
X98719670Y-51327051D01*
X98715619Y-51323852D01*
X98715615Y-51323848D01*
X98548414Y-51191800D01*
X98548410Y-51191798D01*
X98544359Y-51188598D01*
X98503053Y-51165796D01*
X98453084Y-51115364D01*
X98438312Y-51045921D01*
X98463428Y-50979516D01*
X98490780Y-50952909D01*
X98551500Y-50909598D01*
X98669860Y-50825173D01*
X98676592Y-50818465D01*
X98824435Y-50671137D01*
X98828096Y-50667489D01*
X98887594Y-50584689D01*
X98955435Y-50490277D01*
X98958453Y-50486077D01*
X98979320Y-50443857D01*
X99055136Y-50290453D01*
X99055137Y-50290451D01*
X99057430Y-50285811D01*
X99122370Y-50072069D01*
X99151529Y-49850590D01*
X99151611Y-49847240D01*
X99153074Y-49787365D01*
X99153074Y-49787361D01*
X99153156Y-49784000D01*
X99134852Y-49561361D01*
X99080431Y-49344702D01*
X98991354Y-49139840D01*
X98951906Y-49078862D01*
X98872822Y-48956617D01*
X98872820Y-48956614D01*
X98870014Y-48952277D01*
X98719670Y-48787051D01*
X98715619Y-48783852D01*
X98715615Y-48783848D01*
X98548414Y-48651800D01*
X98548410Y-48651798D01*
X98544359Y-48648598D01*
X98502569Y-48625529D01*
X98452598Y-48575097D01*
X98437826Y-48505654D01*
X98462942Y-48439248D01*
X98490294Y-48412641D01*
X98648213Y-48300000D01*
X117256835Y-48300000D01*
X117275465Y-48536711D01*
X117276619Y-48541518D01*
X117276620Y-48541524D01*
X117296362Y-48623754D01*
X117330895Y-48767594D01*
X117332788Y-48772165D01*
X117332789Y-48772167D01*
X117407393Y-48952277D01*
X117421760Y-48986963D01*
X117424346Y-48991183D01*
X117543241Y-49185202D01*
X117543245Y-49185208D01*
X117545824Y-49189416D01*
X117700031Y-49369969D01*
X117880584Y-49524176D01*
X117884792Y-49526755D01*
X117884798Y-49526759D01*
X118078817Y-49645654D01*
X118083037Y-49648240D01*
X118087607Y-49650133D01*
X118087611Y-49650135D01*
X118297833Y-49737211D01*
X118302406Y-49739105D01*
X118350682Y-49750695D01*
X118528476Y-49793380D01*
X118528482Y-49793381D01*
X118533289Y-49794535D01*
X118770000Y-49813165D01*
X119006711Y-49794535D01*
X119011518Y-49793381D01*
X119011524Y-49793380D01*
X119189318Y-49750695D01*
X119237594Y-49739105D01*
X119242167Y-49737211D01*
X119452389Y-49650135D01*
X119452393Y-49650133D01*
X119456963Y-49648240D01*
X119461183Y-49645654D01*
X119655202Y-49526759D01*
X119655208Y-49526755D01*
X119659416Y-49524176D01*
X119839969Y-49369969D01*
X119994176Y-49189416D01*
X119996755Y-49185208D01*
X119996759Y-49185202D01*
X120115654Y-48991183D01*
X120118240Y-48986963D01*
X120132608Y-48952277D01*
X120207211Y-48772167D01*
X120207212Y-48772165D01*
X120209105Y-48767594D01*
X120243638Y-48623754D01*
X120263380Y-48541524D01*
X120263381Y-48541518D01*
X120264535Y-48536711D01*
X120283165Y-48300000D01*
X120264535Y-48063289D01*
X120259998Y-48044388D01*
X120210260Y-47837218D01*
X120209105Y-47832406D01*
X120136150Y-47656275D01*
X120120135Y-47617611D01*
X120120133Y-47617607D01*
X120118240Y-47613037D01*
X120071589Y-47536910D01*
X119996759Y-47414798D01*
X119996755Y-47414792D01*
X119994176Y-47410584D01*
X119839969Y-47230031D01*
X119659416Y-47075824D01*
X119655208Y-47073245D01*
X119655202Y-47073241D01*
X119461183Y-46954346D01*
X119456963Y-46951760D01*
X119452393Y-46949867D01*
X119452389Y-46949865D01*
X119242167Y-46862789D01*
X119242165Y-46862788D01*
X119237594Y-46860895D01*
X119157391Y-46841640D01*
X119011524Y-46806620D01*
X119011518Y-46806619D01*
X119006711Y-46805465D01*
X118770000Y-46786835D01*
X118533289Y-46805465D01*
X118528482Y-46806619D01*
X118528476Y-46806620D01*
X118382609Y-46841640D01*
X118302406Y-46860895D01*
X118297835Y-46862788D01*
X118297833Y-46862789D01*
X118087611Y-46949865D01*
X118087607Y-46949867D01*
X118083037Y-46951760D01*
X118078817Y-46954346D01*
X117884798Y-47073241D01*
X117884792Y-47073245D01*
X117880584Y-47075824D01*
X117700031Y-47230031D01*
X117545824Y-47410584D01*
X117543245Y-47414792D01*
X117543241Y-47414798D01*
X117468411Y-47536910D01*
X117421760Y-47613037D01*
X117419867Y-47617607D01*
X117419865Y-47617611D01*
X117403850Y-47656275D01*
X117330895Y-47832406D01*
X117329740Y-47837218D01*
X117280003Y-48044388D01*
X117275465Y-48063289D01*
X117256835Y-48300000D01*
X98648213Y-48300000D01*
X98665328Y-48287792D01*
X98673200Y-48281139D01*
X98824052Y-48130812D01*
X98830730Y-48122965D01*
X98955003Y-47950020D01*
X98960313Y-47941183D01*
X99054670Y-47750267D01*
X99058469Y-47740672D01*
X99120377Y-47536910D01*
X99122555Y-47526837D01*
X99123986Y-47515962D01*
X99121775Y-47501778D01*
X99108617Y-47498000D01*
X95122000Y-47498000D01*
X95053879Y-47477998D01*
X95007386Y-47424342D01*
X94996000Y-47372000D01*
X94996000Y-47116000D01*
X95016002Y-47047879D01*
X95069658Y-47001386D01*
X95122000Y-46990000D01*
X99108344Y-46990000D01*
X99121875Y-46986027D01*
X99123180Y-46976947D01*
X99081214Y-46809875D01*
X99077894Y-46800124D01*
X98992972Y-46604814D01*
X98988105Y-46595739D01*
X98872426Y-46416926D01*
X98866136Y-46408757D01*
X98722806Y-46251240D01*
X98715273Y-46244215D01*
X98548139Y-46112222D01*
X98539556Y-46106520D01*
X98502602Y-46086120D01*
X98452631Y-46035687D01*
X98437859Y-45966245D01*
X98462975Y-45899839D01*
X98490327Y-45873232D01*
X98551500Y-45829598D01*
X98669860Y-45745173D01*
X98828096Y-45587489D01*
X98887594Y-45504689D01*
X98955435Y-45410277D01*
X98958453Y-45406077D01*
X98979320Y-45363857D01*
X99055136Y-45210453D01*
X99055137Y-45210451D01*
X99057430Y-45205811D01*
X99122370Y-44992069D01*
X99151529Y-44770590D01*
X99153156Y-44704000D01*
X99134852Y-44481361D01*
X99080431Y-44264702D01*
X98991354Y-44059840D01*
X98870014Y-43872277D01*
X98719670Y-43707051D01*
X98715619Y-43703852D01*
X98715615Y-43703848D01*
X98548414Y-43571800D01*
X98548410Y-43571798D01*
X98544359Y-43568598D01*
X98529315Y-43560293D01*
X98517212Y-43553612D01*
X98502569Y-43545529D01*
X98452598Y-43495097D01*
X98437826Y-43425654D01*
X98462942Y-43359248D01*
X98490294Y-43332641D01*
X98665328Y-43207792D01*
X98673200Y-43201139D01*
X98824052Y-43050812D01*
X98830730Y-43042965D01*
X98955003Y-42870020D01*
X98960313Y-42861183D01*
X99054670Y-42670267D01*
X99058469Y-42660672D01*
X99120377Y-42456910D01*
X99122555Y-42446837D01*
X99123986Y-42435962D01*
X99121775Y-42421778D01*
X99108617Y-42418000D01*
X95122000Y-42418000D01*
X95053879Y-42397998D01*
X95007386Y-42344342D01*
X94996000Y-42292000D01*
X94996000Y-41891885D01*
X95504000Y-41891885D01*
X95508475Y-41907124D01*
X95509865Y-41908329D01*
X95517548Y-41910000D01*
X97517885Y-41910000D01*
X97533124Y-41905525D01*
X97534329Y-41904135D01*
X97536000Y-41896452D01*
X97536000Y-41891885D01*
X98044000Y-41891885D01*
X98048475Y-41907124D01*
X98049865Y-41908329D01*
X98057548Y-41910000D01*
X99108344Y-41910000D01*
X99121875Y-41906027D01*
X99123180Y-41896947D01*
X99081214Y-41729875D01*
X99077894Y-41720124D01*
X98992972Y-41524814D01*
X98988105Y-41515739D01*
X98872426Y-41336926D01*
X98866136Y-41328757D01*
X98722806Y-41171240D01*
X98715273Y-41164215D01*
X98548139Y-41032222D01*
X98539552Y-41026517D01*
X98353117Y-40923599D01*
X98343705Y-40919369D01*
X98142959Y-40848280D01*
X98132988Y-40845646D01*
X98061837Y-40832972D01*
X98048540Y-40834432D01*
X98044000Y-40848989D01*
X98044000Y-41891885D01*
X97536000Y-41891885D01*
X97536000Y-40847102D01*
X97532082Y-40833758D01*
X97517806Y-40831771D01*
X97479324Y-40837660D01*
X97469288Y-40840051D01*
X97266868Y-40906212D01*
X97257359Y-40910209D01*
X97068463Y-41008542D01*
X97059738Y-41014036D01*
X96889433Y-41141905D01*
X96881726Y-41148748D01*
X96804094Y-41229985D01*
X96742570Y-41265415D01*
X96671657Y-41261958D01*
X96613871Y-41220712D01*
X96595018Y-41187164D01*
X96553324Y-41075946D01*
X96544786Y-41060351D01*
X96468285Y-40958276D01*
X96455724Y-40945715D01*
X96353649Y-40869214D01*
X96338054Y-40860676D01*
X96217606Y-40815522D01*
X96202351Y-40811895D01*
X96151486Y-40806369D01*
X96144672Y-40806000D01*
X95522115Y-40806000D01*
X95506876Y-40810475D01*
X95505671Y-40811865D01*
X95504000Y-40819548D01*
X95504000Y-41891885D01*
X94996000Y-41891885D01*
X94996000Y-40824116D01*
X94991525Y-40808877D01*
X94990135Y-40807672D01*
X94982452Y-40806001D01*
X94614500Y-40806001D01*
X94546379Y-40785999D01*
X94499886Y-40732343D01*
X94488500Y-40680001D01*
X94488500Y-38466800D01*
X100355455Y-38466800D01*
X100374800Y-38687914D01*
X100376224Y-38693227D01*
X100376224Y-38693229D01*
X100407896Y-38811429D01*
X100432247Y-38902310D01*
X100434569Y-38907290D01*
X100434570Y-38907292D01*
X100523725Y-39098485D01*
X100523728Y-39098490D01*
X100526051Y-39103472D01*
X100529207Y-39107979D01*
X100529208Y-39107981D01*
X100625690Y-39245771D01*
X100653361Y-39285290D01*
X100810310Y-39442239D01*
X100814818Y-39445396D01*
X100814821Y-39445398D01*
X100874565Y-39487231D01*
X100992127Y-39569549D01*
X100997109Y-39571872D01*
X100997114Y-39571875D01*
X101188308Y-39661030D01*
X101193290Y-39663353D01*
X101198598Y-39664775D01*
X101198600Y-39664776D01*
X101402371Y-39719376D01*
X101402373Y-39719376D01*
X101407686Y-39720800D01*
X101628800Y-39740145D01*
X101849914Y-39720800D01*
X101855227Y-39719376D01*
X101855229Y-39719376D01*
X102059000Y-39664776D01*
X102059002Y-39664775D01*
X102064310Y-39663353D01*
X102069292Y-39661030D01*
X102260486Y-39571875D01*
X102260491Y-39571872D01*
X102265473Y-39569549D01*
X102383035Y-39487231D01*
X102442779Y-39445398D01*
X102442782Y-39445396D01*
X102447290Y-39442239D01*
X102604239Y-39285290D01*
X102631911Y-39245771D01*
X102728392Y-39107981D01*
X102728393Y-39107979D01*
X102731549Y-39103472D01*
X102733872Y-39098490D01*
X102733875Y-39098485D01*
X102784605Y-38989694D01*
X102831523Y-38936409D01*
X102899800Y-38916948D01*
X102967760Y-38937490D01*
X103012995Y-38989694D01*
X103063725Y-39098485D01*
X103063728Y-39098490D01*
X103066051Y-39103472D01*
X103069207Y-39107979D01*
X103069208Y-39107981D01*
X103165690Y-39245771D01*
X103193361Y-39285290D01*
X103350310Y-39442239D01*
X103354818Y-39445396D01*
X103354821Y-39445398D01*
X103414565Y-39487231D01*
X103532127Y-39569549D01*
X103537109Y-39571872D01*
X103537114Y-39571875D01*
X103728308Y-39661030D01*
X103733290Y-39663353D01*
X103738598Y-39664775D01*
X103738600Y-39664776D01*
X103942371Y-39719376D01*
X103942373Y-39719376D01*
X103947686Y-39720800D01*
X104168800Y-39740145D01*
X104389914Y-39720800D01*
X104395227Y-39719376D01*
X104395229Y-39719376D01*
X104599000Y-39664776D01*
X104599002Y-39664775D01*
X104604310Y-39663353D01*
X104609292Y-39661030D01*
X104800486Y-39571875D01*
X104800491Y-39571872D01*
X104805473Y-39569549D01*
X104923035Y-39487231D01*
X104982779Y-39445398D01*
X104982782Y-39445396D01*
X104987290Y-39442239D01*
X105144239Y-39285290D01*
X105171911Y-39245771D01*
X105268392Y-39107981D01*
X105268393Y-39107979D01*
X105271549Y-39103472D01*
X105273872Y-39098490D01*
X105273875Y-39098485D01*
X105324605Y-38989694D01*
X105371523Y-38936409D01*
X105439800Y-38916948D01*
X105507760Y-38937490D01*
X105552995Y-38989694D01*
X105603725Y-39098485D01*
X105603728Y-39098490D01*
X105606051Y-39103472D01*
X105609207Y-39107979D01*
X105609208Y-39107981D01*
X105705690Y-39245771D01*
X105733361Y-39285290D01*
X105890310Y-39442239D01*
X105894818Y-39445396D01*
X105894821Y-39445398D01*
X105954565Y-39487231D01*
X106072127Y-39569549D01*
X106077109Y-39571872D01*
X106077114Y-39571875D01*
X106268308Y-39661030D01*
X106273290Y-39663353D01*
X106278598Y-39664775D01*
X106278600Y-39664776D01*
X106482371Y-39719376D01*
X106482373Y-39719376D01*
X106487686Y-39720800D01*
X106708800Y-39740145D01*
X106929914Y-39720800D01*
X106935227Y-39719376D01*
X106935229Y-39719376D01*
X107139000Y-39664776D01*
X107139002Y-39664775D01*
X107144310Y-39663353D01*
X107149292Y-39661030D01*
X107340486Y-39571875D01*
X107340491Y-39571872D01*
X107345473Y-39569549D01*
X107463035Y-39487231D01*
X107522779Y-39445398D01*
X107522782Y-39445396D01*
X107527290Y-39442239D01*
X107684239Y-39285290D01*
X107711911Y-39245771D01*
X107808392Y-39107981D01*
X107808393Y-39107979D01*
X107811549Y-39103472D01*
X107813872Y-39098490D01*
X107813875Y-39098485D01*
X107864605Y-38989694D01*
X107911523Y-38936409D01*
X107979800Y-38916948D01*
X108047760Y-38937490D01*
X108092995Y-38989694D01*
X108143725Y-39098485D01*
X108143728Y-39098490D01*
X108146051Y-39103472D01*
X108149207Y-39107979D01*
X108149208Y-39107981D01*
X108245690Y-39245771D01*
X108273361Y-39285290D01*
X108430310Y-39442239D01*
X108434818Y-39445396D01*
X108434821Y-39445398D01*
X108494565Y-39487231D01*
X108612127Y-39569549D01*
X108617109Y-39571872D01*
X108617114Y-39571875D01*
X108808308Y-39661030D01*
X108813290Y-39663353D01*
X108818598Y-39664775D01*
X108818600Y-39664776D01*
X109022371Y-39719376D01*
X109022373Y-39719376D01*
X109027686Y-39720800D01*
X109248800Y-39740145D01*
X109469914Y-39720800D01*
X109475227Y-39719376D01*
X109475229Y-39719376D01*
X109679000Y-39664776D01*
X109679002Y-39664775D01*
X109684310Y-39663353D01*
X109689292Y-39661030D01*
X109880486Y-39571875D01*
X109880491Y-39571872D01*
X109885473Y-39569549D01*
X110003035Y-39487231D01*
X110062779Y-39445398D01*
X110062782Y-39445396D01*
X110067290Y-39442239D01*
X110224239Y-39285290D01*
X110251911Y-39245771D01*
X110348392Y-39107981D01*
X110348393Y-39107979D01*
X110351549Y-39103472D01*
X110353872Y-39098490D01*
X110353875Y-39098485D01*
X110404605Y-38989694D01*
X110451523Y-38936409D01*
X110519800Y-38916948D01*
X110587760Y-38937490D01*
X110632995Y-38989694D01*
X110683725Y-39098485D01*
X110683728Y-39098490D01*
X110686051Y-39103472D01*
X110689207Y-39107979D01*
X110689208Y-39107981D01*
X110785690Y-39245771D01*
X110813361Y-39285290D01*
X110970310Y-39442239D01*
X110974818Y-39445396D01*
X110974821Y-39445398D01*
X111034565Y-39487231D01*
X111152127Y-39569549D01*
X111157109Y-39571872D01*
X111157114Y-39571875D01*
X111348308Y-39661030D01*
X111353290Y-39663353D01*
X111358598Y-39664775D01*
X111358600Y-39664776D01*
X111562371Y-39719376D01*
X111562373Y-39719376D01*
X111567686Y-39720800D01*
X111782744Y-39739615D01*
X111783325Y-39739666D01*
X111788800Y-39740145D01*
X111794275Y-39739666D01*
X111799782Y-39739666D01*
X111799782Y-39741836D01*
X111860188Y-39753960D01*
X111911194Y-39803346D01*
X111927402Y-39872468D01*
X111902420Y-39941072D01*
X111863571Y-39992908D01*
X111863570Y-39992910D01*
X111858185Y-40000095D01*
X111807055Y-40136484D01*
X111800300Y-40198666D01*
X111800300Y-40399561D01*
X111780298Y-40467682D01*
X111726642Y-40514175D01*
X111656368Y-40524279D01*
X111591788Y-40494785D01*
X111560105Y-40452811D01*
X111523875Y-40375115D01*
X111523872Y-40375110D01*
X111521549Y-40370128D01*
X111518392Y-40365619D01*
X111397398Y-40192821D01*
X111397396Y-40192818D01*
X111394239Y-40188310D01*
X111237290Y-40031361D01*
X111232782Y-40028204D01*
X111232779Y-40028202D01*
X111108344Y-39941072D01*
X111055473Y-39904051D01*
X111050491Y-39901728D01*
X111050486Y-39901725D01*
X110859292Y-39812570D01*
X110859291Y-39812569D01*
X110854310Y-39810247D01*
X110849002Y-39808825D01*
X110849000Y-39808824D01*
X110645229Y-39754224D01*
X110645227Y-39754224D01*
X110639914Y-39752800D01*
X110418800Y-39733455D01*
X110197686Y-39752800D01*
X110192373Y-39754224D01*
X110192371Y-39754224D01*
X109988600Y-39808824D01*
X109988598Y-39808825D01*
X109983290Y-39810247D01*
X109978310Y-39812569D01*
X109978308Y-39812570D01*
X109787115Y-39901725D01*
X109787110Y-39901728D01*
X109782128Y-39904051D01*
X109777621Y-39907207D01*
X109777619Y-39907208D01*
X109604821Y-40028202D01*
X109604818Y-40028204D01*
X109600310Y-40031361D01*
X109443361Y-40188310D01*
X109440204Y-40192818D01*
X109440202Y-40192821D01*
X109319208Y-40365619D01*
X109316051Y-40370128D01*
X109313728Y-40375110D01*
X109313725Y-40375115D01*
X109262995Y-40483906D01*
X109216077Y-40537191D01*
X109147800Y-40556652D01*
X109079840Y-40536110D01*
X109034605Y-40483906D01*
X108983875Y-40375115D01*
X108983872Y-40375110D01*
X108981549Y-40370128D01*
X108978392Y-40365619D01*
X108857398Y-40192821D01*
X108857396Y-40192818D01*
X108854239Y-40188310D01*
X108697290Y-40031361D01*
X108692782Y-40028204D01*
X108692779Y-40028202D01*
X108568344Y-39941072D01*
X108515473Y-39904051D01*
X108510491Y-39901728D01*
X108510486Y-39901725D01*
X108319292Y-39812570D01*
X108319291Y-39812569D01*
X108314310Y-39810247D01*
X108309002Y-39808825D01*
X108309000Y-39808824D01*
X108105229Y-39754224D01*
X108105227Y-39754224D01*
X108099914Y-39752800D01*
X107878800Y-39733455D01*
X107657686Y-39752800D01*
X107652373Y-39754224D01*
X107652371Y-39754224D01*
X107448600Y-39808824D01*
X107448598Y-39808825D01*
X107443290Y-39810247D01*
X107438310Y-39812569D01*
X107438308Y-39812570D01*
X107247115Y-39901725D01*
X107247110Y-39901728D01*
X107242128Y-39904051D01*
X107237621Y-39907207D01*
X107237619Y-39907208D01*
X107064821Y-40028202D01*
X107064818Y-40028204D01*
X107060310Y-40031361D01*
X106903361Y-40188310D01*
X106900204Y-40192818D01*
X106900202Y-40192821D01*
X106779208Y-40365619D01*
X106776051Y-40370128D01*
X106773728Y-40375110D01*
X106773725Y-40375115D01*
X106722995Y-40483906D01*
X106676077Y-40537191D01*
X106607800Y-40556652D01*
X106539840Y-40536110D01*
X106494605Y-40483906D01*
X106443875Y-40375115D01*
X106443872Y-40375110D01*
X106441549Y-40370128D01*
X106438392Y-40365619D01*
X106317398Y-40192821D01*
X106317396Y-40192818D01*
X106314239Y-40188310D01*
X106157290Y-40031361D01*
X106152782Y-40028204D01*
X106152779Y-40028202D01*
X106028344Y-39941072D01*
X105975473Y-39904051D01*
X105970491Y-39901728D01*
X105970486Y-39901725D01*
X105779292Y-39812570D01*
X105779291Y-39812569D01*
X105774310Y-39810247D01*
X105769002Y-39808825D01*
X105769000Y-39808824D01*
X105565229Y-39754224D01*
X105565227Y-39754224D01*
X105559914Y-39752800D01*
X105338800Y-39733455D01*
X105117686Y-39752800D01*
X105112373Y-39754224D01*
X105112371Y-39754224D01*
X104908600Y-39808824D01*
X104908598Y-39808825D01*
X104903290Y-39810247D01*
X104898310Y-39812569D01*
X104898308Y-39812570D01*
X104707115Y-39901725D01*
X104707110Y-39901728D01*
X104702128Y-39904051D01*
X104697621Y-39907207D01*
X104697619Y-39907208D01*
X104524821Y-40028202D01*
X104524818Y-40028204D01*
X104520310Y-40031361D01*
X104363361Y-40188310D01*
X104360204Y-40192818D01*
X104360202Y-40192821D01*
X104239208Y-40365619D01*
X104236051Y-40370128D01*
X104233728Y-40375110D01*
X104233725Y-40375115D01*
X104182995Y-40483906D01*
X104136077Y-40537191D01*
X104067800Y-40556652D01*
X103999840Y-40536110D01*
X103954605Y-40483906D01*
X103903875Y-40375115D01*
X103903872Y-40375110D01*
X103901549Y-40370128D01*
X103898392Y-40365619D01*
X103777398Y-40192821D01*
X103777396Y-40192818D01*
X103774239Y-40188310D01*
X103617290Y-40031361D01*
X103612782Y-40028204D01*
X103612779Y-40028202D01*
X103488344Y-39941072D01*
X103435473Y-39904051D01*
X103430491Y-39901728D01*
X103430486Y-39901725D01*
X103239292Y-39812570D01*
X103239291Y-39812569D01*
X103234310Y-39810247D01*
X103229002Y-39808825D01*
X103229000Y-39808824D01*
X103025229Y-39754224D01*
X103025227Y-39754224D01*
X103019914Y-39752800D01*
X102798800Y-39733455D01*
X102577686Y-39752800D01*
X102572373Y-39754224D01*
X102572371Y-39754224D01*
X102368600Y-39808824D01*
X102368598Y-39808825D01*
X102363290Y-39810247D01*
X102358310Y-39812569D01*
X102358308Y-39812570D01*
X102167115Y-39901725D01*
X102167110Y-39901728D01*
X102162128Y-39904051D01*
X102157621Y-39907207D01*
X102157619Y-39907208D01*
X101984821Y-40028202D01*
X101984818Y-40028204D01*
X101980310Y-40031361D01*
X101823361Y-40188310D01*
X101820204Y-40192818D01*
X101820202Y-40192821D01*
X101699208Y-40365619D01*
X101696051Y-40370128D01*
X101693728Y-40375110D01*
X101693725Y-40375115D01*
X101618652Y-40536110D01*
X101602247Y-40571290D01*
X101544800Y-40785686D01*
X101525455Y-41006800D01*
X101544800Y-41227914D01*
X101546224Y-41233227D01*
X101546224Y-41233229D01*
X101574010Y-41336926D01*
X101602247Y-41442310D01*
X101604569Y-41447290D01*
X101604570Y-41447292D01*
X101693725Y-41638485D01*
X101693728Y-41638490D01*
X101696051Y-41643472D01*
X101699207Y-41647979D01*
X101699208Y-41647981D01*
X101816110Y-41814934D01*
X101823361Y-41825290D01*
X101980310Y-41982239D01*
X101984818Y-41985396D01*
X101984821Y-41985398D01*
X102023487Y-42012472D01*
X102162127Y-42109549D01*
X102167109Y-42111872D01*
X102167114Y-42111875D01*
X102346833Y-42195679D01*
X102363290Y-42203353D01*
X102368598Y-42204775D01*
X102368600Y-42204776D01*
X102572371Y-42259376D01*
X102572373Y-42259376D01*
X102577686Y-42260800D01*
X102798800Y-42280145D01*
X103019914Y-42260800D01*
X103025227Y-42259376D01*
X103025229Y-42259376D01*
X103229000Y-42204776D01*
X103229002Y-42204775D01*
X103234310Y-42203353D01*
X103250767Y-42195679D01*
X103430486Y-42111875D01*
X103430491Y-42111872D01*
X103435473Y-42109549D01*
X103574113Y-42012472D01*
X103612779Y-41985398D01*
X103612782Y-41985396D01*
X103617290Y-41982239D01*
X103774239Y-41825290D01*
X103781491Y-41814934D01*
X103898392Y-41647981D01*
X103898393Y-41647979D01*
X103901549Y-41643472D01*
X103903872Y-41638490D01*
X103903875Y-41638485D01*
X103954605Y-41529694D01*
X104001523Y-41476409D01*
X104069800Y-41456948D01*
X104137760Y-41477490D01*
X104182995Y-41529694D01*
X104233725Y-41638485D01*
X104233728Y-41638490D01*
X104236051Y-41643472D01*
X104239207Y-41647979D01*
X104239208Y-41647981D01*
X104356110Y-41814934D01*
X104363361Y-41825290D01*
X104512189Y-41974118D01*
X104546215Y-42036430D01*
X104541150Y-42107245D01*
X104498603Y-42164081D01*
X104452509Y-42185732D01*
X104426760Y-42191913D01*
X104378292Y-42203549D01*
X104378289Y-42203550D01*
X104370913Y-42205321D01*
X104316180Y-42233571D01*
X104247989Y-42268767D01*
X104235736Y-42275091D01*
X104230014Y-42280083D01*
X104230012Y-42280084D01*
X104128296Y-42368817D01*
X104121103Y-42375092D01*
X104033633Y-42499550D01*
X104030874Y-42506625D01*
X104030873Y-42506628D01*
X103981135Y-42634199D01*
X103978375Y-42641279D01*
X103977383Y-42648812D01*
X103977383Y-42648813D01*
X103963485Y-42754382D01*
X103958519Y-42792099D01*
X103963192Y-42834423D01*
X103970114Y-42897121D01*
X103975212Y-42943302D01*
X103977821Y-42950433D01*
X103977822Y-42950435D01*
X104019927Y-43065490D01*
X104027490Y-43086158D01*
X104031726Y-43092461D01*
X104031726Y-43092462D01*
X104104754Y-43201139D01*
X104112334Y-43212420D01*
X104117953Y-43217533D01*
X104117954Y-43217534D01*
X104217192Y-43307833D01*
X104224848Y-43314799D01*
X104358534Y-43387385D01*
X104505676Y-43425987D01*
X104584395Y-43427224D01*
X104650181Y-43428258D01*
X104650184Y-43428258D01*
X104657779Y-43428377D01*
X104711055Y-43416175D01*
X104798657Y-43396112D01*
X104798661Y-43396111D01*
X104806060Y-43394416D01*
X104941961Y-43326065D01*
X105057635Y-43227270D01*
X105071223Y-43208360D01*
X105141970Y-43109906D01*
X105141971Y-43109904D01*
X105146404Y-43103735D01*
X105189971Y-42995359D01*
X105200311Y-42969636D01*
X105203143Y-42962591D01*
X105224577Y-42811988D01*
X105224716Y-42798729D01*
X105206441Y-42647710D01*
X105175066Y-42564678D01*
X105155354Y-42512511D01*
X105155353Y-42512508D01*
X105152670Y-42505409D01*
X105148368Y-42499149D01*
X105127359Y-42468580D01*
X105105259Y-42401110D01*
X105123145Y-42332404D01*
X105175337Y-42284273D01*
X105242181Y-42271692D01*
X105333325Y-42279666D01*
X105338800Y-42280145D01*
X105559914Y-42260800D01*
X105565227Y-42259376D01*
X105565229Y-42259376D01*
X105769000Y-42204776D01*
X105769002Y-42204775D01*
X105774310Y-42203353D01*
X105790767Y-42195679D01*
X105970486Y-42111875D01*
X105970491Y-42111872D01*
X105975473Y-42109549D01*
X106114113Y-42012472D01*
X106152779Y-41985398D01*
X106152782Y-41985396D01*
X106157290Y-41982239D01*
X106314239Y-41825290D01*
X106321491Y-41814934D01*
X106438392Y-41647981D01*
X106438393Y-41647979D01*
X106441549Y-41643472D01*
X106443872Y-41638490D01*
X106443875Y-41638485D01*
X106494605Y-41529694D01*
X106541523Y-41476409D01*
X106609800Y-41456948D01*
X106677760Y-41477490D01*
X106722995Y-41529694D01*
X106773725Y-41638485D01*
X106773728Y-41638490D01*
X106776051Y-41643472D01*
X106779207Y-41647979D01*
X106779208Y-41647981D01*
X106896110Y-41814934D01*
X106903361Y-41825290D01*
X107060310Y-41982239D01*
X107064818Y-41985396D01*
X107064821Y-41985398D01*
X107103487Y-42012472D01*
X107242127Y-42109549D01*
X107247109Y-42111872D01*
X107247114Y-42111875D01*
X107426833Y-42195679D01*
X107443290Y-42203353D01*
X107448598Y-42204775D01*
X107448600Y-42204776D01*
X107652371Y-42259376D01*
X107652373Y-42259376D01*
X107657686Y-42260800D01*
X107878800Y-42280145D01*
X108099914Y-42260800D01*
X108105227Y-42259376D01*
X108105229Y-42259376D01*
X108309000Y-42204776D01*
X108309002Y-42204775D01*
X108314310Y-42203353D01*
X108330767Y-42195679D01*
X108510486Y-42111875D01*
X108510491Y-42111872D01*
X108515473Y-42109549D01*
X108654113Y-42012472D01*
X108692779Y-41985398D01*
X108692782Y-41985396D01*
X108697290Y-41982239D01*
X108854239Y-41825290D01*
X108861491Y-41814934D01*
X108978392Y-41647981D01*
X108978393Y-41647979D01*
X108981549Y-41643472D01*
X108983872Y-41638490D01*
X108983875Y-41638485D01*
X109034605Y-41529694D01*
X109081523Y-41476409D01*
X109149800Y-41456948D01*
X109217760Y-41477490D01*
X109262995Y-41529694D01*
X109313725Y-41638485D01*
X109313728Y-41638490D01*
X109316051Y-41643472D01*
X109319207Y-41647979D01*
X109319208Y-41647981D01*
X109436110Y-41814934D01*
X109443361Y-41825290D01*
X109497416Y-41879345D01*
X109531442Y-41941657D01*
X109526377Y-42012472D01*
X109483830Y-42069308D01*
X109417310Y-42094119D01*
X109407663Y-42094438D01*
X109301031Y-42093880D01*
X109293652Y-42095652D01*
X109293648Y-42095652D01*
X109160492Y-42127620D01*
X109160489Y-42127621D01*
X109153113Y-42129392D01*
X109017936Y-42199162D01*
X109012214Y-42204154D01*
X109012212Y-42204155D01*
X108930897Y-42275091D01*
X108903303Y-42299163D01*
X108815833Y-42423621D01*
X108813074Y-42430696D01*
X108813073Y-42430699D01*
X108765031Y-42553921D01*
X108760575Y-42565350D01*
X108759583Y-42572883D01*
X108759583Y-42572884D01*
X108742646Y-42701535D01*
X108740719Y-42716170D01*
X108743463Y-42741025D01*
X108754608Y-42841973D01*
X108757412Y-42867373D01*
X108760021Y-42874504D01*
X108760022Y-42874506D01*
X108765943Y-42890684D01*
X108809690Y-43010229D01*
X108813926Y-43016532D01*
X108813926Y-43016533D01*
X108867788Y-43096688D01*
X108894534Y-43136491D01*
X108900153Y-43141604D01*
X108900154Y-43141605D01*
X108983115Y-43217093D01*
X109007048Y-43238870D01*
X109140734Y-43311456D01*
X109287876Y-43350058D01*
X109366595Y-43351295D01*
X109432381Y-43352329D01*
X109432384Y-43352329D01*
X109439979Y-43352448D01*
X109493255Y-43340246D01*
X109580857Y-43320183D01*
X109580861Y-43320182D01*
X109588260Y-43318487D01*
X109724161Y-43250136D01*
X109839835Y-43151341D01*
X109852530Y-43133674D01*
X109924170Y-43033977D01*
X109924171Y-43033975D01*
X109928604Y-43027806D01*
X109941648Y-42995359D01*
X109982511Y-42893707D01*
X109985343Y-42886662D01*
X110006777Y-42736059D01*
X110006916Y-42722800D01*
X109988641Y-42571781D01*
X109961196Y-42499149D01*
X109937554Y-42436582D01*
X109937553Y-42436579D01*
X109934870Y-42429480D01*
X109929577Y-42421778D01*
X109926896Y-42417877D01*
X109904797Y-42350408D01*
X109922683Y-42281701D01*
X109974875Y-42233571D01*
X110044803Y-42221299D01*
X110063343Y-42224803D01*
X110157469Y-42250024D01*
X110192371Y-42259376D01*
X110192373Y-42259376D01*
X110197686Y-42260800D01*
X110418800Y-42280145D01*
X110639914Y-42260800D01*
X110645227Y-42259376D01*
X110645229Y-42259376D01*
X110849000Y-42204776D01*
X110849002Y-42204775D01*
X110854310Y-42203353D01*
X110870767Y-42195679D01*
X111050486Y-42111875D01*
X111050491Y-42111872D01*
X111055473Y-42109549D01*
X111194113Y-42012472D01*
X111232779Y-41985398D01*
X111232782Y-41985396D01*
X111237290Y-41982239D01*
X111394239Y-41825290D01*
X111401491Y-41814934D01*
X111518392Y-41647981D01*
X111518393Y-41647979D01*
X111521549Y-41643472D01*
X111523872Y-41638490D01*
X111523875Y-41638485D01*
X111560105Y-41560789D01*
X111607023Y-41507504D01*
X111675300Y-41488043D01*
X111743260Y-41508585D01*
X111789325Y-41562608D01*
X111800300Y-41614039D01*
X111800300Y-41814934D01*
X111807055Y-41877116D01*
X111858185Y-42013505D01*
X111945539Y-42130061D01*
X112062095Y-42217415D01*
X112198484Y-42268545D01*
X112260666Y-42275300D01*
X113876934Y-42275300D01*
X113939116Y-42268545D01*
X114075505Y-42217415D01*
X114192061Y-42130061D01*
X114279415Y-42013505D01*
X114330545Y-41877116D01*
X114337300Y-41814934D01*
X114337300Y-40198666D01*
X114330545Y-40136484D01*
X114279415Y-40000095D01*
X114192061Y-39883539D01*
X114075505Y-39796185D01*
X113939116Y-39745055D01*
X113876934Y-39738300D01*
X112584092Y-39738300D01*
X112515971Y-39718298D01*
X112469478Y-39664642D01*
X112459374Y-39594368D01*
X112488868Y-39529788D01*
X112511821Y-39509087D01*
X112512253Y-39508785D01*
X112569793Y-39468495D01*
X112602779Y-39445398D01*
X112602782Y-39445396D01*
X112607290Y-39442239D01*
X112764239Y-39285290D01*
X112791911Y-39245771D01*
X112888392Y-39107981D01*
X112888393Y-39107979D01*
X112891549Y-39103472D01*
X112893872Y-39098490D01*
X112893875Y-39098485D01*
X112983030Y-38907292D01*
X112983031Y-38907290D01*
X112985353Y-38902310D01*
X113009705Y-38811429D01*
X113041376Y-38693229D01*
X113041376Y-38693227D01*
X113042800Y-38687914D01*
X113062145Y-38466800D01*
X130352855Y-38466800D01*
X130372200Y-38687914D01*
X130373624Y-38693227D01*
X130373624Y-38693229D01*
X130405296Y-38811429D01*
X130429647Y-38902310D01*
X130431969Y-38907290D01*
X130431970Y-38907292D01*
X130521125Y-39098485D01*
X130521128Y-39098490D01*
X130523451Y-39103472D01*
X130526607Y-39107979D01*
X130526608Y-39107981D01*
X130623090Y-39245771D01*
X130650761Y-39285290D01*
X130807710Y-39442239D01*
X130812218Y-39445396D01*
X130812221Y-39445398D01*
X130871965Y-39487231D01*
X130989527Y-39569549D01*
X130994509Y-39571872D01*
X130994514Y-39571875D01*
X131185708Y-39661030D01*
X131190690Y-39663353D01*
X131195998Y-39664775D01*
X131196000Y-39664776D01*
X131399771Y-39719376D01*
X131399773Y-39719376D01*
X131405086Y-39720800D01*
X131626200Y-39740145D01*
X131847314Y-39720800D01*
X131852627Y-39719376D01*
X131852629Y-39719376D01*
X132056400Y-39664776D01*
X132056402Y-39664775D01*
X132061710Y-39663353D01*
X132066692Y-39661030D01*
X132257886Y-39571875D01*
X132257891Y-39571872D01*
X132262873Y-39569549D01*
X132380435Y-39487231D01*
X132440179Y-39445398D01*
X132440182Y-39445396D01*
X132444690Y-39442239D01*
X132601639Y-39285290D01*
X132629311Y-39245771D01*
X132725792Y-39107981D01*
X132725793Y-39107979D01*
X132728949Y-39103472D01*
X132731272Y-39098490D01*
X132731275Y-39098485D01*
X132782005Y-38989694D01*
X132828923Y-38936409D01*
X132897200Y-38916948D01*
X132965160Y-38937490D01*
X133010395Y-38989694D01*
X133061125Y-39098485D01*
X133061128Y-39098490D01*
X133063451Y-39103472D01*
X133066607Y-39107979D01*
X133066608Y-39107981D01*
X133163090Y-39245771D01*
X133190761Y-39285290D01*
X133347710Y-39442239D01*
X133352218Y-39445396D01*
X133352221Y-39445398D01*
X133411965Y-39487231D01*
X133529527Y-39569549D01*
X133534509Y-39571872D01*
X133534514Y-39571875D01*
X133725708Y-39661030D01*
X133730690Y-39663353D01*
X133735998Y-39664775D01*
X133736000Y-39664776D01*
X133939771Y-39719376D01*
X133939773Y-39719376D01*
X133945086Y-39720800D01*
X134166200Y-39740145D01*
X134387314Y-39720800D01*
X134392627Y-39719376D01*
X134392629Y-39719376D01*
X134596400Y-39664776D01*
X134596402Y-39664775D01*
X134601710Y-39663353D01*
X134606692Y-39661030D01*
X134797886Y-39571875D01*
X134797891Y-39571872D01*
X134802873Y-39569549D01*
X134920435Y-39487231D01*
X134980179Y-39445398D01*
X134980182Y-39445396D01*
X134984690Y-39442239D01*
X135141639Y-39285290D01*
X135169311Y-39245771D01*
X135265792Y-39107981D01*
X135265793Y-39107979D01*
X135268949Y-39103472D01*
X135271272Y-39098490D01*
X135271275Y-39098485D01*
X135322005Y-38989694D01*
X135368923Y-38936409D01*
X135437200Y-38916948D01*
X135505160Y-38937490D01*
X135550395Y-38989694D01*
X135601125Y-39098485D01*
X135601128Y-39098490D01*
X135603451Y-39103472D01*
X135606607Y-39107979D01*
X135606608Y-39107981D01*
X135703090Y-39245771D01*
X135730761Y-39285290D01*
X135887710Y-39442239D01*
X135892218Y-39445396D01*
X135892221Y-39445398D01*
X135951965Y-39487231D01*
X136069527Y-39569549D01*
X136074509Y-39571872D01*
X136074514Y-39571875D01*
X136265708Y-39661030D01*
X136270690Y-39663353D01*
X136275998Y-39664775D01*
X136276000Y-39664776D01*
X136479771Y-39719376D01*
X136479773Y-39719376D01*
X136485086Y-39720800D01*
X136706200Y-39740145D01*
X136927314Y-39720800D01*
X136932627Y-39719376D01*
X136932629Y-39719376D01*
X137136400Y-39664776D01*
X137136402Y-39664775D01*
X137141710Y-39663353D01*
X137146692Y-39661030D01*
X137337886Y-39571875D01*
X137337891Y-39571872D01*
X137342873Y-39569549D01*
X137460435Y-39487231D01*
X137520179Y-39445398D01*
X137520182Y-39445396D01*
X137524690Y-39442239D01*
X137681639Y-39285290D01*
X137709311Y-39245771D01*
X137805792Y-39107981D01*
X137805793Y-39107979D01*
X137808949Y-39103472D01*
X137811272Y-39098490D01*
X137811275Y-39098485D01*
X137862005Y-38989694D01*
X137908923Y-38936409D01*
X137977200Y-38916948D01*
X138045160Y-38937490D01*
X138090395Y-38989694D01*
X138141125Y-39098485D01*
X138141128Y-39098490D01*
X138143451Y-39103472D01*
X138146607Y-39107979D01*
X138146608Y-39107981D01*
X138243090Y-39245771D01*
X138270761Y-39285290D01*
X138427710Y-39442239D01*
X138432218Y-39445396D01*
X138432221Y-39445398D01*
X138491965Y-39487231D01*
X138609527Y-39569549D01*
X138614509Y-39571872D01*
X138614514Y-39571875D01*
X138805708Y-39661030D01*
X138810690Y-39663353D01*
X138810675Y-39663385D01*
X138866377Y-39704397D01*
X138891715Y-39770719D01*
X138891033Y-39797148D01*
X138879975Y-39881142D01*
X138882853Y-39907208D01*
X138882921Y-39907823D01*
X138870516Y-39977728D01*
X138822286Y-40029828D01*
X138753546Y-40047583D01*
X138685411Y-40024864D01*
X138662045Y-40008503D01*
X138512873Y-39904051D01*
X138507891Y-39901728D01*
X138507886Y-39901725D01*
X138316692Y-39812570D01*
X138316691Y-39812569D01*
X138311710Y-39810247D01*
X138306402Y-39808825D01*
X138306400Y-39808824D01*
X138102629Y-39754224D01*
X138102627Y-39754224D01*
X138097314Y-39752800D01*
X137876200Y-39733455D01*
X137655086Y-39752800D01*
X137649773Y-39754224D01*
X137649771Y-39754224D01*
X137446000Y-39808824D01*
X137445998Y-39808825D01*
X137440690Y-39810247D01*
X137435710Y-39812569D01*
X137435708Y-39812570D01*
X137244515Y-39901725D01*
X137244510Y-39901728D01*
X137239528Y-39904051D01*
X137235021Y-39907207D01*
X137235019Y-39907208D01*
X137062221Y-40028202D01*
X137062218Y-40028204D01*
X137057710Y-40031361D01*
X136900761Y-40188310D01*
X136897604Y-40192818D01*
X136897602Y-40192821D01*
X136776608Y-40365619D01*
X136773451Y-40370128D01*
X136771128Y-40375110D01*
X136771125Y-40375115D01*
X136720395Y-40483906D01*
X136673477Y-40537191D01*
X136605200Y-40556652D01*
X136537240Y-40536110D01*
X136492005Y-40483906D01*
X136441275Y-40375115D01*
X136441272Y-40375110D01*
X136438949Y-40370128D01*
X136435792Y-40365619D01*
X136314798Y-40192821D01*
X136314796Y-40192818D01*
X136311639Y-40188310D01*
X136154690Y-40031361D01*
X136150182Y-40028204D01*
X136150179Y-40028202D01*
X136025744Y-39941072D01*
X135972873Y-39904051D01*
X135967891Y-39901728D01*
X135967886Y-39901725D01*
X135776692Y-39812570D01*
X135776691Y-39812569D01*
X135771710Y-39810247D01*
X135766402Y-39808825D01*
X135766400Y-39808824D01*
X135562629Y-39754224D01*
X135562627Y-39754224D01*
X135557314Y-39752800D01*
X135336200Y-39733455D01*
X135115086Y-39752800D01*
X135109773Y-39754224D01*
X135109771Y-39754224D01*
X134906000Y-39808824D01*
X134905998Y-39808825D01*
X134900690Y-39810247D01*
X134895710Y-39812569D01*
X134895708Y-39812570D01*
X134704515Y-39901725D01*
X134704510Y-39901728D01*
X134699528Y-39904051D01*
X134695021Y-39907207D01*
X134695019Y-39907208D01*
X134522221Y-40028202D01*
X134522218Y-40028204D01*
X134517710Y-40031361D01*
X134360761Y-40188310D01*
X134357604Y-40192818D01*
X134357602Y-40192821D01*
X134236608Y-40365619D01*
X134233451Y-40370128D01*
X134231128Y-40375110D01*
X134231125Y-40375115D01*
X134180395Y-40483906D01*
X134133477Y-40537191D01*
X134065200Y-40556652D01*
X133997240Y-40536110D01*
X133952005Y-40483906D01*
X133901275Y-40375115D01*
X133901272Y-40375110D01*
X133898949Y-40370128D01*
X133895792Y-40365619D01*
X133774798Y-40192821D01*
X133774796Y-40192818D01*
X133771639Y-40188310D01*
X133614690Y-40031361D01*
X133610182Y-40028204D01*
X133610179Y-40028202D01*
X133485744Y-39941072D01*
X133432873Y-39904051D01*
X133427891Y-39901728D01*
X133427886Y-39901725D01*
X133236692Y-39812570D01*
X133236691Y-39812569D01*
X133231710Y-39810247D01*
X133226402Y-39808825D01*
X133226400Y-39808824D01*
X133022629Y-39754224D01*
X133022627Y-39754224D01*
X133017314Y-39752800D01*
X132796200Y-39733455D01*
X132575086Y-39752800D01*
X132569773Y-39754224D01*
X132569771Y-39754224D01*
X132366000Y-39808824D01*
X132365998Y-39808825D01*
X132360690Y-39810247D01*
X132355710Y-39812569D01*
X132355708Y-39812570D01*
X132164515Y-39901725D01*
X132164510Y-39901728D01*
X132159528Y-39904051D01*
X132155021Y-39907207D01*
X132155019Y-39907208D01*
X131982221Y-40028202D01*
X131982218Y-40028204D01*
X131977710Y-40031361D01*
X131820761Y-40188310D01*
X131817604Y-40192818D01*
X131817602Y-40192821D01*
X131696608Y-40365619D01*
X131693451Y-40370128D01*
X131691128Y-40375110D01*
X131691125Y-40375115D01*
X131616052Y-40536110D01*
X131599647Y-40571290D01*
X131542200Y-40785686D01*
X131522855Y-41006800D01*
X131542200Y-41227914D01*
X131543624Y-41233227D01*
X131543624Y-41233229D01*
X131571410Y-41336926D01*
X131599647Y-41442310D01*
X131601969Y-41447290D01*
X131601970Y-41447292D01*
X131691125Y-41638485D01*
X131691128Y-41638490D01*
X131693451Y-41643472D01*
X131696607Y-41647979D01*
X131696608Y-41647981D01*
X131813510Y-41814934D01*
X131820761Y-41825290D01*
X131977710Y-41982239D01*
X131982218Y-41985396D01*
X131982221Y-41985398D01*
X132020887Y-42012472D01*
X132159527Y-42109549D01*
X132164509Y-42111872D01*
X132164514Y-42111875D01*
X132344233Y-42195679D01*
X132360690Y-42203353D01*
X132365998Y-42204775D01*
X132366000Y-42204776D01*
X132569771Y-42259376D01*
X132569773Y-42259376D01*
X132575086Y-42260800D01*
X132796200Y-42280145D01*
X133017314Y-42260800D01*
X133022627Y-42259376D01*
X133022629Y-42259376D01*
X133226400Y-42204776D01*
X133226402Y-42204775D01*
X133231710Y-42203353D01*
X133248167Y-42195679D01*
X133427886Y-42111875D01*
X133427891Y-42111872D01*
X133432873Y-42109549D01*
X133571513Y-42012472D01*
X133610179Y-41985398D01*
X133610182Y-41985396D01*
X133614690Y-41982239D01*
X133771639Y-41825290D01*
X133778891Y-41814934D01*
X133895792Y-41647981D01*
X133895793Y-41647979D01*
X133898949Y-41643472D01*
X133901272Y-41638490D01*
X133901275Y-41638485D01*
X133952005Y-41529694D01*
X133998923Y-41476409D01*
X134067200Y-41456948D01*
X134135160Y-41477490D01*
X134180395Y-41529694D01*
X134231125Y-41638485D01*
X134231128Y-41638490D01*
X134233451Y-41643472D01*
X134236607Y-41647979D01*
X134236608Y-41647981D01*
X134353510Y-41814934D01*
X134360761Y-41825290D01*
X134517710Y-41982239D01*
X134522218Y-41985396D01*
X134522221Y-41985398D01*
X134560887Y-42012472D01*
X134699527Y-42109549D01*
X134704509Y-42111872D01*
X134704514Y-42111875D01*
X134884233Y-42195679D01*
X134900690Y-42203353D01*
X134905998Y-42204775D01*
X134906000Y-42204776D01*
X135109771Y-42259376D01*
X135109773Y-42259376D01*
X135115086Y-42260800D01*
X135336200Y-42280145D01*
X135557314Y-42260800D01*
X135562627Y-42259376D01*
X135562629Y-42259376D01*
X135766400Y-42204776D01*
X135766402Y-42204775D01*
X135771710Y-42203353D01*
X135788167Y-42195679D01*
X135967886Y-42111875D01*
X135967891Y-42111872D01*
X135972873Y-42109549D01*
X136111513Y-42012472D01*
X136150179Y-41985398D01*
X136150182Y-41985396D01*
X136154690Y-41982239D01*
X136311639Y-41825290D01*
X136318891Y-41814934D01*
X136435792Y-41647981D01*
X136435793Y-41647979D01*
X136438949Y-41643472D01*
X136441272Y-41638490D01*
X136441275Y-41638485D01*
X136492005Y-41529694D01*
X136538923Y-41476409D01*
X136607200Y-41456948D01*
X136675160Y-41477490D01*
X136720395Y-41529694D01*
X136771125Y-41638485D01*
X136771128Y-41638490D01*
X136773451Y-41643472D01*
X136776607Y-41647979D01*
X136776608Y-41647981D01*
X136893510Y-41814934D01*
X136900761Y-41825290D01*
X136931468Y-41855997D01*
X136965494Y-41918309D01*
X136960429Y-41989124D01*
X136917882Y-42045960D01*
X136851362Y-42070771D01*
X136831116Y-42070222D01*
X136827350Y-42069276D01*
X136819756Y-42069236D01*
X136819754Y-42069236D01*
X136751993Y-42068882D01*
X136675231Y-42068480D01*
X136667852Y-42070252D01*
X136667848Y-42070252D01*
X136534692Y-42102220D01*
X136534689Y-42102221D01*
X136527313Y-42103992D01*
X136476805Y-42130061D01*
X136410893Y-42164081D01*
X136392136Y-42173762D01*
X136386414Y-42178754D01*
X136386412Y-42178755D01*
X136323576Y-42233571D01*
X136277503Y-42273763D01*
X136190033Y-42398221D01*
X136187274Y-42405296D01*
X136187273Y-42405299D01*
X136141791Y-42521955D01*
X136134775Y-42539950D01*
X136133783Y-42547483D01*
X136133783Y-42547484D01*
X136118882Y-42660672D01*
X136114919Y-42690770D01*
X136118002Y-42718692D01*
X136128302Y-42811988D01*
X136131612Y-42841973D01*
X136134221Y-42849104D01*
X136134222Y-42849106D01*
X136171304Y-42950435D01*
X136183890Y-42984829D01*
X136188126Y-42991132D01*
X136188126Y-42991133D01*
X136259056Y-43096688D01*
X136268734Y-43111091D01*
X136274353Y-43116204D01*
X136274354Y-43116205D01*
X136318390Y-43156274D01*
X136381248Y-43213470D01*
X136514934Y-43286056D01*
X136662076Y-43324658D01*
X136740795Y-43325895D01*
X136806581Y-43326929D01*
X136806584Y-43326929D01*
X136814179Y-43327048D01*
X136882257Y-43311456D01*
X136955057Y-43294783D01*
X136955061Y-43294782D01*
X136962460Y-43293087D01*
X137098361Y-43224736D01*
X137214035Y-43125941D01*
X137218468Y-43119772D01*
X137298370Y-43008577D01*
X137298371Y-43008575D01*
X137302804Y-43002406D01*
X137318810Y-42962591D01*
X137356711Y-42868307D01*
X137359543Y-42861262D01*
X137380977Y-42710659D01*
X137381116Y-42697400D01*
X137362841Y-42546381D01*
X137353143Y-42520717D01*
X137311754Y-42411182D01*
X137311753Y-42411179D01*
X137309070Y-42404080D01*
X137304768Y-42397820D01*
X137303668Y-42396219D01*
X137303226Y-42394870D01*
X137301248Y-42391086D01*
X137301879Y-42390756D01*
X137281568Y-42328750D01*
X137299454Y-42260043D01*
X137351645Y-42211912D01*
X137421573Y-42199640D01*
X137440495Y-42204082D01*
X137440690Y-42203353D01*
X137649771Y-42259376D01*
X137649773Y-42259376D01*
X137655086Y-42260800D01*
X137876200Y-42280145D01*
X138097314Y-42260800D01*
X138102627Y-42259376D01*
X138102629Y-42259376D01*
X138306400Y-42204776D01*
X138306402Y-42204775D01*
X138311710Y-42203353D01*
X138328167Y-42195679D01*
X138507886Y-42111875D01*
X138507891Y-42111872D01*
X138512873Y-42109549D01*
X138651513Y-42012472D01*
X138690179Y-41985398D01*
X138690182Y-41985396D01*
X138694690Y-41982239D01*
X138851639Y-41825290D01*
X138858891Y-41814934D01*
X138975792Y-41647981D01*
X138975793Y-41647979D01*
X138978949Y-41643472D01*
X138981272Y-41638490D01*
X138981275Y-41638485D01*
X139032005Y-41529694D01*
X139078923Y-41476409D01*
X139147200Y-41456948D01*
X139215160Y-41477490D01*
X139260395Y-41529694D01*
X139311125Y-41638485D01*
X139311128Y-41638490D01*
X139313451Y-41643472D01*
X139316607Y-41647979D01*
X139316608Y-41647981D01*
X139433510Y-41814934D01*
X139440761Y-41825290D01*
X139597710Y-41982239D01*
X139602218Y-41985396D01*
X139602221Y-41985398D01*
X139640887Y-42012472D01*
X139779527Y-42109549D01*
X139784509Y-42111872D01*
X139784514Y-42111875D01*
X139964233Y-42195679D01*
X139980690Y-42203353D01*
X139985998Y-42204775D01*
X139986000Y-42204776D01*
X140189771Y-42259376D01*
X140189773Y-42259376D01*
X140195086Y-42260800D01*
X140416200Y-42280145D01*
X140637314Y-42260800D01*
X140642627Y-42259376D01*
X140642629Y-42259376D01*
X140846400Y-42204776D01*
X140846402Y-42204775D01*
X140851710Y-42203353D01*
X140868167Y-42195679D01*
X141047886Y-42111875D01*
X141047891Y-42111872D01*
X141052873Y-42109549D01*
X141191513Y-42012472D01*
X141230179Y-41985398D01*
X141230182Y-41985396D01*
X141234690Y-41982239D01*
X141391639Y-41825290D01*
X141398891Y-41814934D01*
X141515792Y-41647981D01*
X141515793Y-41647979D01*
X141518949Y-41643472D01*
X141521272Y-41638490D01*
X141521275Y-41638485D01*
X141557505Y-41560789D01*
X141604423Y-41507504D01*
X141672700Y-41488043D01*
X141740660Y-41508585D01*
X141786725Y-41562608D01*
X141797700Y-41614039D01*
X141797700Y-41814934D01*
X141804455Y-41877116D01*
X141855585Y-42013505D01*
X141942939Y-42130061D01*
X142059495Y-42217415D01*
X142067904Y-42220567D01*
X142067905Y-42220568D01*
X142172061Y-42259614D01*
X142228826Y-42302255D01*
X142253526Y-42368817D01*
X142238319Y-42438165D01*
X142185622Y-42489562D01*
X142139284Y-42513479D01*
X142132536Y-42516962D01*
X142126814Y-42521954D01*
X142126812Y-42521955D01*
X142061053Y-42579321D01*
X142017903Y-42616963D01*
X141930433Y-42741421D01*
X141927674Y-42748496D01*
X141927673Y-42748499D01*
X141881326Y-42867373D01*
X141875175Y-42883150D01*
X141874183Y-42890683D01*
X141874183Y-42890684D01*
X141857615Y-43016533D01*
X141855319Y-43033970D01*
X141858046Y-43058669D01*
X141868822Y-43156274D01*
X141872012Y-43185173D01*
X141874621Y-43192304D01*
X141874622Y-43192306D01*
X141921419Y-43320183D01*
X141924290Y-43328029D01*
X141928526Y-43334332D01*
X141928526Y-43334333D01*
X142004475Y-43447357D01*
X142009134Y-43454291D01*
X142014753Y-43459404D01*
X142014754Y-43459405D01*
X142067398Y-43507307D01*
X142121648Y-43556670D01*
X142255334Y-43629256D01*
X142402476Y-43667858D01*
X142481195Y-43669095D01*
X142546981Y-43670129D01*
X142546984Y-43670129D01*
X142554579Y-43670248D01*
X142607855Y-43658046D01*
X142695457Y-43637983D01*
X142695461Y-43637982D01*
X142702860Y-43636287D01*
X142838761Y-43567936D01*
X142954435Y-43469141D01*
X142965106Y-43454291D01*
X143038770Y-43351777D01*
X143038771Y-43351775D01*
X143043204Y-43345606D01*
X143057643Y-43309689D01*
X143097111Y-43211507D01*
X143099943Y-43204462D01*
X143121377Y-43053859D01*
X143121516Y-43040600D01*
X143103241Y-42889581D01*
X143087947Y-42849106D01*
X143052154Y-42754382D01*
X143052153Y-42754379D01*
X143049470Y-42747280D01*
X142963307Y-42621913D01*
X142915503Y-42579321D01*
X142855399Y-42525769D01*
X142855395Y-42525766D01*
X142849728Y-42520717D01*
X142836058Y-42513479D01*
X142834502Y-42512655D01*
X142783659Y-42463103D01*
X142767676Y-42393929D01*
X142791629Y-42327095D01*
X142847912Y-42283821D01*
X142893460Y-42275300D01*
X143874334Y-42275300D01*
X143936516Y-42268545D01*
X144072905Y-42217415D01*
X144189461Y-42130061D01*
X144276815Y-42013505D01*
X144322408Y-41891885D01*
X154852000Y-41891885D01*
X154856475Y-41907124D01*
X154857865Y-41908329D01*
X154865548Y-41910000D01*
X155937885Y-41910000D01*
X155953124Y-41905525D01*
X155954329Y-41904135D01*
X155956000Y-41896452D01*
X155956000Y-41891885D01*
X156464000Y-41891885D01*
X156468475Y-41907124D01*
X156469865Y-41908329D01*
X156477548Y-41910000D01*
X158477885Y-41910000D01*
X158493124Y-41905525D01*
X158494329Y-41904135D01*
X158496000Y-41896452D01*
X158496000Y-40847102D01*
X158492082Y-40833758D01*
X158477806Y-40831771D01*
X158439324Y-40837660D01*
X158429288Y-40840051D01*
X158226868Y-40906212D01*
X158217359Y-40910209D01*
X158028463Y-41008542D01*
X158019738Y-41014036D01*
X157849433Y-41141905D01*
X157841726Y-41148748D01*
X157764094Y-41229985D01*
X157702570Y-41265415D01*
X157631657Y-41261958D01*
X157573871Y-41220712D01*
X157555018Y-41187164D01*
X157513324Y-41075946D01*
X157504786Y-41060351D01*
X157428285Y-40958276D01*
X157415724Y-40945715D01*
X157313649Y-40869214D01*
X157298054Y-40860676D01*
X157177606Y-40815522D01*
X157162351Y-40811895D01*
X157111486Y-40806369D01*
X157104672Y-40806000D01*
X156482115Y-40806000D01*
X156466876Y-40810475D01*
X156465671Y-40811865D01*
X156464000Y-40819548D01*
X156464000Y-41891885D01*
X155956000Y-41891885D01*
X155956000Y-40824116D01*
X155951525Y-40808877D01*
X155950135Y-40807672D01*
X155942452Y-40806001D01*
X155315331Y-40806001D01*
X155308510Y-40806371D01*
X155257648Y-40811895D01*
X155242396Y-40815521D01*
X155121946Y-40860676D01*
X155106351Y-40869214D01*
X155004276Y-40945715D01*
X154991715Y-40958276D01*
X154915214Y-41060351D01*
X154906676Y-41075946D01*
X154861522Y-41196394D01*
X154857895Y-41211649D01*
X154852369Y-41262514D01*
X154852000Y-41269328D01*
X154852000Y-41891885D01*
X144322408Y-41891885D01*
X144327945Y-41877116D01*
X144334700Y-41814934D01*
X144334700Y-40198666D01*
X144327945Y-40136484D01*
X144276815Y-40000095D01*
X144189461Y-39883539D01*
X144072905Y-39796185D01*
X143936516Y-39745055D01*
X143874334Y-39738300D01*
X142581492Y-39738300D01*
X142513371Y-39718298D01*
X142466878Y-39664642D01*
X142456774Y-39594368D01*
X142486268Y-39529788D01*
X142509221Y-39509087D01*
X142509653Y-39508785D01*
X142567193Y-39468495D01*
X142600179Y-39445398D01*
X142600182Y-39445396D01*
X142604690Y-39442239D01*
X142761639Y-39285290D01*
X142789311Y-39245771D01*
X142885792Y-39107981D01*
X142885793Y-39107979D01*
X142888949Y-39103472D01*
X142891272Y-39098490D01*
X142891275Y-39098485D01*
X142980430Y-38907292D01*
X142980431Y-38907290D01*
X142982753Y-38902310D01*
X143007105Y-38811429D01*
X143038776Y-38693229D01*
X143038776Y-38693227D01*
X143040200Y-38687914D01*
X143059545Y-38466800D01*
X143040200Y-38245686D01*
X143019463Y-38168295D01*
X156041051Y-38168295D01*
X156041348Y-38173448D01*
X156041348Y-38173451D01*
X156046811Y-38268190D01*
X156053910Y-38391315D01*
X156055047Y-38396361D01*
X156055048Y-38396367D01*
X156072155Y-38472275D01*
X156103022Y-38609239D01*
X156187066Y-38816216D01*
X156189765Y-38820620D01*
X156261383Y-38937490D01*
X156303787Y-39006688D01*
X156450050Y-39175538D01*
X156621926Y-39318232D01*
X156814800Y-39430938D01*
X157023492Y-39510630D01*
X157028560Y-39511661D01*
X157028563Y-39511662D01*
X157117656Y-39529788D01*
X157242397Y-39555167D01*
X157247572Y-39555357D01*
X157247574Y-39555357D01*
X157460473Y-39563164D01*
X157460477Y-39563164D01*
X157465637Y-39563353D01*
X157470757Y-39562697D01*
X157470759Y-39562697D01*
X157682088Y-39535625D01*
X157682089Y-39535625D01*
X157687216Y-39534968D01*
X157745283Y-39517547D01*
X157896229Y-39472261D01*
X157896234Y-39472259D01*
X157901184Y-39470774D01*
X158101794Y-39372496D01*
X158283660Y-39242773D01*
X158441896Y-39085089D01*
X158501394Y-39002289D01*
X158569235Y-38907877D01*
X158572253Y-38903677D01*
X158671230Y-38703411D01*
X158736170Y-38489669D01*
X158765329Y-38268190D01*
X158766956Y-38201600D01*
X158748652Y-37978961D01*
X158694231Y-37762302D01*
X158605154Y-37557440D01*
X158483814Y-37369877D01*
X158333470Y-37204651D01*
X158329419Y-37201452D01*
X158329415Y-37201448D01*
X158162214Y-37069400D01*
X158162210Y-37069398D01*
X158158159Y-37066198D01*
X158116853Y-37043396D01*
X158066884Y-36992964D01*
X158052112Y-36923521D01*
X158077228Y-36857116D01*
X158104580Y-36830509D01*
X158148403Y-36799250D01*
X158283660Y-36702773D01*
X158441896Y-36545089D01*
X158501394Y-36462289D01*
X158569235Y-36367877D01*
X158572253Y-36363677D01*
X158671230Y-36163411D01*
X158736170Y-35949669D01*
X158765329Y-35728190D01*
X158766956Y-35661600D01*
X158748652Y-35438961D01*
X158694231Y-35222302D01*
X158605154Y-35017440D01*
X158483814Y-34829877D01*
X158333470Y-34664651D01*
X158329419Y-34661452D01*
X158329415Y-34661448D01*
X158162214Y-34529400D01*
X158162210Y-34529398D01*
X158158159Y-34526198D01*
X158116853Y-34503396D01*
X158066884Y-34452964D01*
X158052112Y-34383521D01*
X158077228Y-34317116D01*
X158104580Y-34290509D01*
X158169081Y-34244501D01*
X158283660Y-34162773D01*
X158301819Y-34144678D01*
X158374319Y-34072430D01*
X158441896Y-34005089D01*
X158446149Y-33999171D01*
X158569235Y-33827877D01*
X158572253Y-33823677D01*
X158608621Y-33750093D01*
X158668936Y-33628053D01*
X158668937Y-33628051D01*
X158671230Y-33623411D01*
X158736170Y-33409669D01*
X158765329Y-33188190D01*
X158766956Y-33121600D01*
X158748652Y-32898961D01*
X158694231Y-32682302D01*
X158605154Y-32477440D01*
X158483814Y-32289877D01*
X158480332Y-32286050D01*
X158336598Y-32128088D01*
X158305546Y-32064242D01*
X158313941Y-31993743D01*
X158359117Y-31938975D01*
X158385561Y-31925306D01*
X158492097Y-31885367D01*
X158500505Y-31882215D01*
X158617061Y-31794861D01*
X158704415Y-31678305D01*
X158755545Y-31541916D01*
X158762300Y-31479734D01*
X158762300Y-29683466D01*
X158755545Y-29621284D01*
X158704415Y-29484895D01*
X158617061Y-29368339D01*
X158500505Y-29280985D01*
X158364116Y-29229855D01*
X158301934Y-29223100D01*
X156505666Y-29223100D01*
X156443484Y-29229855D01*
X156307095Y-29280985D01*
X156190539Y-29368339D01*
X156103185Y-29484895D01*
X156052055Y-29621284D01*
X156045300Y-29683466D01*
X156045300Y-31479734D01*
X156052055Y-31541916D01*
X156103185Y-31678305D01*
X156190539Y-31794861D01*
X156307095Y-31882215D01*
X156315504Y-31885367D01*
X156315505Y-31885368D01*
X156424251Y-31926135D01*
X156481016Y-31968776D01*
X156505716Y-32035338D01*
X156490509Y-32104687D01*
X156471116Y-32131168D01*
X156344429Y-32263738D01*
X156218543Y-32448280D01*
X156124488Y-32650905D01*
X156064789Y-32866170D01*
X156041051Y-33088295D01*
X156041348Y-33093448D01*
X156041348Y-33093451D01*
X156051304Y-33266113D01*
X156053910Y-33311315D01*
X156055047Y-33316361D01*
X156055048Y-33316367D01*
X156074919Y-33404539D01*
X156103022Y-33529239D01*
X156187066Y-33736216D01*
X156189765Y-33740620D01*
X156279873Y-33887663D01*
X156303787Y-33926688D01*
X156450050Y-34095538D01*
X156621926Y-34238232D01*
X156646093Y-34252354D01*
X156695245Y-34281076D01*
X156743969Y-34332714D01*
X156757040Y-34402497D01*
X156730309Y-34468269D01*
X156689855Y-34501627D01*
X156677407Y-34508107D01*
X156673274Y-34511210D01*
X156673271Y-34511212D01*
X156649047Y-34529400D01*
X156498765Y-34642235D01*
X156344429Y-34803738D01*
X156218543Y-34988280D01*
X156202803Y-35022190D01*
X156133389Y-35171730D01*
X156124488Y-35190905D01*
X156064789Y-35406170D01*
X156041051Y-35628295D01*
X156041348Y-35633448D01*
X156041348Y-35633451D01*
X156046811Y-35728190D01*
X156053910Y-35851315D01*
X156055047Y-35856361D01*
X156055048Y-35856367D01*
X156074919Y-35944539D01*
X156103022Y-36069239D01*
X156187066Y-36276216D01*
X156189765Y-36280620D01*
X156297904Y-36457087D01*
X156303787Y-36466688D01*
X156450050Y-36635538D01*
X156621926Y-36778232D01*
X156692395Y-36819411D01*
X156695245Y-36821076D01*
X156743969Y-36872714D01*
X156757040Y-36942497D01*
X156730309Y-37008269D01*
X156689855Y-37041627D01*
X156677407Y-37048107D01*
X156673274Y-37051210D01*
X156673271Y-37051212D01*
X156649047Y-37069400D01*
X156498765Y-37182235D01*
X156344429Y-37343738D01*
X156218543Y-37528280D01*
X156124488Y-37730905D01*
X156064789Y-37946170D01*
X156041051Y-38168295D01*
X143019463Y-38168295D01*
X142982753Y-38031290D01*
X142960758Y-37984122D01*
X142891275Y-37835115D01*
X142891272Y-37835110D01*
X142888949Y-37830128D01*
X142885792Y-37825619D01*
X142764798Y-37652821D01*
X142764796Y-37652818D01*
X142761639Y-37648310D01*
X142604690Y-37491361D01*
X142600182Y-37488204D01*
X142600179Y-37488202D01*
X142524513Y-37435220D01*
X142422873Y-37364051D01*
X142417891Y-37361728D01*
X142417886Y-37361725D01*
X142226692Y-37272570D01*
X142226691Y-37272569D01*
X142221710Y-37270247D01*
X142216402Y-37268825D01*
X142216400Y-37268824D01*
X142012629Y-37214224D01*
X142012627Y-37214224D01*
X142007314Y-37212800D01*
X141786200Y-37193455D01*
X141565086Y-37212800D01*
X141559773Y-37214224D01*
X141559771Y-37214224D01*
X141356000Y-37268824D01*
X141355998Y-37268825D01*
X141350690Y-37270247D01*
X141345710Y-37272569D01*
X141345708Y-37272570D01*
X141154515Y-37361725D01*
X141154510Y-37361728D01*
X141149528Y-37364051D01*
X141145021Y-37367207D01*
X141145019Y-37367208D01*
X140972221Y-37488202D01*
X140972218Y-37488204D01*
X140967710Y-37491361D01*
X140810761Y-37648310D01*
X140807604Y-37652818D01*
X140807602Y-37652821D01*
X140686608Y-37825619D01*
X140683451Y-37830128D01*
X140681128Y-37835110D01*
X140681125Y-37835115D01*
X140630395Y-37943906D01*
X140583477Y-37997191D01*
X140515200Y-38016652D01*
X140447240Y-37996110D01*
X140402005Y-37943906D01*
X140351275Y-37835115D01*
X140351272Y-37835110D01*
X140348949Y-37830128D01*
X140345792Y-37825619D01*
X140224798Y-37652821D01*
X140224796Y-37652818D01*
X140221639Y-37648310D01*
X140064690Y-37491361D01*
X140060182Y-37488204D01*
X140060179Y-37488202D01*
X139984513Y-37435220D01*
X139882873Y-37364051D01*
X139877891Y-37361728D01*
X139877886Y-37361725D01*
X139686692Y-37272570D01*
X139686691Y-37272569D01*
X139681710Y-37270247D01*
X139676402Y-37268825D01*
X139676400Y-37268824D01*
X139472629Y-37214224D01*
X139472627Y-37214224D01*
X139467314Y-37212800D01*
X139246200Y-37193455D01*
X139025086Y-37212800D01*
X139019773Y-37214224D01*
X139019771Y-37214224D01*
X138816000Y-37268824D01*
X138815998Y-37268825D01*
X138810690Y-37270247D01*
X138805710Y-37272569D01*
X138805708Y-37272570D01*
X138614515Y-37361725D01*
X138614510Y-37361728D01*
X138609528Y-37364051D01*
X138605021Y-37367207D01*
X138605019Y-37367208D01*
X138432221Y-37488202D01*
X138432218Y-37488204D01*
X138427710Y-37491361D01*
X138270761Y-37648310D01*
X138267604Y-37652818D01*
X138267602Y-37652821D01*
X138146608Y-37825619D01*
X138143451Y-37830128D01*
X138141128Y-37835110D01*
X138141125Y-37835115D01*
X138090395Y-37943906D01*
X138043477Y-37997191D01*
X137975200Y-38016652D01*
X137907240Y-37996110D01*
X137862005Y-37943906D01*
X137811275Y-37835115D01*
X137811272Y-37835110D01*
X137808949Y-37830128D01*
X137805792Y-37825619D01*
X137684798Y-37652821D01*
X137684796Y-37652818D01*
X137681639Y-37648310D01*
X137524690Y-37491361D01*
X137520182Y-37488204D01*
X137520179Y-37488202D01*
X137444513Y-37435220D01*
X137342873Y-37364051D01*
X137337891Y-37361728D01*
X137337886Y-37361725D01*
X137146692Y-37272570D01*
X137146691Y-37272569D01*
X137141710Y-37270247D01*
X137136402Y-37268825D01*
X137136400Y-37268824D01*
X136932629Y-37214224D01*
X136932627Y-37214224D01*
X136927314Y-37212800D01*
X136706200Y-37193455D01*
X136485086Y-37212800D01*
X136479773Y-37214224D01*
X136479771Y-37214224D01*
X136276000Y-37268824D01*
X136275998Y-37268825D01*
X136270690Y-37270247D01*
X136265710Y-37272569D01*
X136265708Y-37272570D01*
X136074515Y-37361725D01*
X136074510Y-37361728D01*
X136069528Y-37364051D01*
X136065021Y-37367207D01*
X136065019Y-37367208D01*
X135892221Y-37488202D01*
X135892218Y-37488204D01*
X135887710Y-37491361D01*
X135730761Y-37648310D01*
X135727604Y-37652818D01*
X135727602Y-37652821D01*
X135606608Y-37825619D01*
X135603451Y-37830128D01*
X135601128Y-37835110D01*
X135601125Y-37835115D01*
X135550395Y-37943906D01*
X135503477Y-37997191D01*
X135435200Y-38016652D01*
X135367240Y-37996110D01*
X135322005Y-37943906D01*
X135271275Y-37835115D01*
X135271272Y-37835110D01*
X135268949Y-37830128D01*
X135265792Y-37825619D01*
X135144798Y-37652821D01*
X135144796Y-37652818D01*
X135141639Y-37648310D01*
X134984690Y-37491361D01*
X134980182Y-37488204D01*
X134980179Y-37488202D01*
X134904513Y-37435220D01*
X134802873Y-37364051D01*
X134797891Y-37361728D01*
X134797886Y-37361725D01*
X134606692Y-37272570D01*
X134606691Y-37272569D01*
X134601710Y-37270247D01*
X134596402Y-37268825D01*
X134596400Y-37268824D01*
X134392629Y-37214224D01*
X134392627Y-37214224D01*
X134387314Y-37212800D01*
X134166200Y-37193455D01*
X133945086Y-37212800D01*
X133939773Y-37214224D01*
X133939771Y-37214224D01*
X133736000Y-37268824D01*
X133735998Y-37268825D01*
X133730690Y-37270247D01*
X133725710Y-37272569D01*
X133725708Y-37272570D01*
X133534515Y-37361725D01*
X133534510Y-37361728D01*
X133529528Y-37364051D01*
X133525021Y-37367207D01*
X133525019Y-37367208D01*
X133352221Y-37488202D01*
X133352218Y-37488204D01*
X133347710Y-37491361D01*
X133190761Y-37648310D01*
X133187604Y-37652818D01*
X133187602Y-37652821D01*
X133066608Y-37825619D01*
X133063451Y-37830128D01*
X133061128Y-37835110D01*
X133061125Y-37835115D01*
X133010395Y-37943906D01*
X132963477Y-37997191D01*
X132895200Y-38016652D01*
X132827240Y-37996110D01*
X132782005Y-37943906D01*
X132731275Y-37835115D01*
X132731272Y-37835110D01*
X132728949Y-37830128D01*
X132725792Y-37825619D01*
X132604798Y-37652821D01*
X132604796Y-37652818D01*
X132601639Y-37648310D01*
X132444690Y-37491361D01*
X132440182Y-37488204D01*
X132440179Y-37488202D01*
X132364513Y-37435220D01*
X132262873Y-37364051D01*
X132257891Y-37361728D01*
X132257886Y-37361725D01*
X132066692Y-37272570D01*
X132066691Y-37272569D01*
X132061710Y-37270247D01*
X132056402Y-37268825D01*
X132056400Y-37268824D01*
X131852629Y-37214224D01*
X131852627Y-37214224D01*
X131847314Y-37212800D01*
X131626200Y-37193455D01*
X131405086Y-37212800D01*
X131399773Y-37214224D01*
X131399771Y-37214224D01*
X131196000Y-37268824D01*
X131195998Y-37268825D01*
X131190690Y-37270247D01*
X131185710Y-37272569D01*
X131185708Y-37272570D01*
X130994515Y-37361725D01*
X130994510Y-37361728D01*
X130989528Y-37364051D01*
X130985021Y-37367207D01*
X130985019Y-37367208D01*
X130812221Y-37488202D01*
X130812218Y-37488204D01*
X130807710Y-37491361D01*
X130650761Y-37648310D01*
X130647604Y-37652818D01*
X130647602Y-37652821D01*
X130526608Y-37825619D01*
X130523451Y-37830128D01*
X130521128Y-37835110D01*
X130521125Y-37835115D01*
X130451642Y-37984122D01*
X130429647Y-38031290D01*
X130372200Y-38245686D01*
X130352855Y-38466800D01*
X113062145Y-38466800D01*
X113042800Y-38245686D01*
X112985353Y-38031290D01*
X112963358Y-37984122D01*
X112893875Y-37835115D01*
X112893872Y-37835110D01*
X112891549Y-37830128D01*
X112888392Y-37825619D01*
X112767398Y-37652821D01*
X112767396Y-37652818D01*
X112764239Y-37648310D01*
X112607290Y-37491361D01*
X112602782Y-37488204D01*
X112602779Y-37488202D01*
X112527113Y-37435220D01*
X112425473Y-37364051D01*
X112420491Y-37361728D01*
X112420486Y-37361725D01*
X112229292Y-37272570D01*
X112229291Y-37272569D01*
X112224310Y-37270247D01*
X112219002Y-37268825D01*
X112219000Y-37268824D01*
X112015229Y-37214224D01*
X112015227Y-37214224D01*
X112009914Y-37212800D01*
X111788800Y-37193455D01*
X111567686Y-37212800D01*
X111562373Y-37214224D01*
X111562371Y-37214224D01*
X111358600Y-37268824D01*
X111358598Y-37268825D01*
X111353290Y-37270247D01*
X111348310Y-37272569D01*
X111348308Y-37272570D01*
X111157115Y-37361725D01*
X111157110Y-37361728D01*
X111152128Y-37364051D01*
X111147621Y-37367207D01*
X111147619Y-37367208D01*
X110974821Y-37488202D01*
X110974818Y-37488204D01*
X110970310Y-37491361D01*
X110813361Y-37648310D01*
X110810204Y-37652818D01*
X110810202Y-37652821D01*
X110689208Y-37825619D01*
X110686051Y-37830128D01*
X110683728Y-37835110D01*
X110683725Y-37835115D01*
X110632995Y-37943906D01*
X110586077Y-37997191D01*
X110517800Y-38016652D01*
X110449840Y-37996110D01*
X110404605Y-37943906D01*
X110353875Y-37835115D01*
X110353872Y-37835110D01*
X110351549Y-37830128D01*
X110348392Y-37825619D01*
X110227398Y-37652821D01*
X110227396Y-37652818D01*
X110224239Y-37648310D01*
X110067290Y-37491361D01*
X110062782Y-37488204D01*
X110062779Y-37488202D01*
X109987113Y-37435220D01*
X109885473Y-37364051D01*
X109880491Y-37361728D01*
X109880486Y-37361725D01*
X109689292Y-37272570D01*
X109689291Y-37272569D01*
X109684310Y-37270247D01*
X109679002Y-37268825D01*
X109679000Y-37268824D01*
X109475229Y-37214224D01*
X109475227Y-37214224D01*
X109469914Y-37212800D01*
X109248800Y-37193455D01*
X109027686Y-37212800D01*
X109022373Y-37214224D01*
X109022371Y-37214224D01*
X108818600Y-37268824D01*
X108818598Y-37268825D01*
X108813290Y-37270247D01*
X108808310Y-37272569D01*
X108808308Y-37272570D01*
X108617115Y-37361725D01*
X108617110Y-37361728D01*
X108612128Y-37364051D01*
X108607621Y-37367207D01*
X108607619Y-37367208D01*
X108434821Y-37488202D01*
X108434818Y-37488204D01*
X108430310Y-37491361D01*
X108273361Y-37648310D01*
X108270204Y-37652818D01*
X108270202Y-37652821D01*
X108149208Y-37825619D01*
X108146051Y-37830128D01*
X108143728Y-37835110D01*
X108143725Y-37835115D01*
X108092995Y-37943906D01*
X108046077Y-37997191D01*
X107977800Y-38016652D01*
X107909840Y-37996110D01*
X107864605Y-37943906D01*
X107813875Y-37835115D01*
X107813872Y-37835110D01*
X107811549Y-37830128D01*
X107808392Y-37825619D01*
X107687398Y-37652821D01*
X107687396Y-37652818D01*
X107684239Y-37648310D01*
X107527290Y-37491361D01*
X107522782Y-37488204D01*
X107522779Y-37488202D01*
X107447113Y-37435220D01*
X107345473Y-37364051D01*
X107340491Y-37361728D01*
X107340486Y-37361725D01*
X107149292Y-37272570D01*
X107149291Y-37272569D01*
X107144310Y-37270247D01*
X107139002Y-37268825D01*
X107139000Y-37268824D01*
X106935229Y-37214224D01*
X106935227Y-37214224D01*
X106929914Y-37212800D01*
X106708800Y-37193455D01*
X106487686Y-37212800D01*
X106482373Y-37214224D01*
X106482371Y-37214224D01*
X106278600Y-37268824D01*
X106278598Y-37268825D01*
X106273290Y-37270247D01*
X106268310Y-37272569D01*
X106268308Y-37272570D01*
X106077115Y-37361725D01*
X106077110Y-37361728D01*
X106072128Y-37364051D01*
X106067621Y-37367207D01*
X106067619Y-37367208D01*
X105894821Y-37488202D01*
X105894818Y-37488204D01*
X105890310Y-37491361D01*
X105733361Y-37648310D01*
X105730204Y-37652818D01*
X105730202Y-37652821D01*
X105609208Y-37825619D01*
X105606051Y-37830128D01*
X105603728Y-37835110D01*
X105603725Y-37835115D01*
X105552995Y-37943906D01*
X105506077Y-37997191D01*
X105437800Y-38016652D01*
X105369840Y-37996110D01*
X105324605Y-37943906D01*
X105273875Y-37835115D01*
X105273872Y-37835110D01*
X105271549Y-37830128D01*
X105268392Y-37825619D01*
X105147398Y-37652821D01*
X105147396Y-37652818D01*
X105144239Y-37648310D01*
X104987290Y-37491361D01*
X104982782Y-37488204D01*
X104982779Y-37488202D01*
X104907113Y-37435220D01*
X104805473Y-37364051D01*
X104800491Y-37361728D01*
X104800486Y-37361725D01*
X104609292Y-37272570D01*
X104609291Y-37272569D01*
X104604310Y-37270247D01*
X104599002Y-37268825D01*
X104599000Y-37268824D01*
X104395229Y-37214224D01*
X104395227Y-37214224D01*
X104389914Y-37212800D01*
X104168800Y-37193455D01*
X103947686Y-37212800D01*
X103942373Y-37214224D01*
X103942371Y-37214224D01*
X103738600Y-37268824D01*
X103738598Y-37268825D01*
X103733290Y-37270247D01*
X103728310Y-37272569D01*
X103728308Y-37272570D01*
X103537115Y-37361725D01*
X103537110Y-37361728D01*
X103532128Y-37364051D01*
X103527621Y-37367207D01*
X103527619Y-37367208D01*
X103354821Y-37488202D01*
X103354818Y-37488204D01*
X103350310Y-37491361D01*
X103193361Y-37648310D01*
X103190204Y-37652818D01*
X103190202Y-37652821D01*
X103069208Y-37825619D01*
X103066051Y-37830128D01*
X103063728Y-37835110D01*
X103063725Y-37835115D01*
X103012995Y-37943906D01*
X102966077Y-37997191D01*
X102897800Y-38016652D01*
X102829840Y-37996110D01*
X102784605Y-37943906D01*
X102733875Y-37835115D01*
X102733872Y-37835110D01*
X102731549Y-37830128D01*
X102728392Y-37825619D01*
X102607398Y-37652821D01*
X102607396Y-37652818D01*
X102604239Y-37648310D01*
X102447290Y-37491361D01*
X102442782Y-37488204D01*
X102442779Y-37488202D01*
X102367113Y-37435220D01*
X102265473Y-37364051D01*
X102260491Y-37361728D01*
X102260486Y-37361725D01*
X102069292Y-37272570D01*
X102069291Y-37272569D01*
X102064310Y-37270247D01*
X102059002Y-37268825D01*
X102059000Y-37268824D01*
X101855229Y-37214224D01*
X101855227Y-37214224D01*
X101849914Y-37212800D01*
X101628800Y-37193455D01*
X101407686Y-37212800D01*
X101402373Y-37214224D01*
X101402371Y-37214224D01*
X101198600Y-37268824D01*
X101198598Y-37268825D01*
X101193290Y-37270247D01*
X101188310Y-37272569D01*
X101188308Y-37272570D01*
X100997115Y-37361725D01*
X100997110Y-37361728D01*
X100992128Y-37364051D01*
X100987621Y-37367207D01*
X100987619Y-37367208D01*
X100814821Y-37488202D01*
X100814818Y-37488204D01*
X100810310Y-37491361D01*
X100653361Y-37648310D01*
X100650204Y-37652818D01*
X100650202Y-37652821D01*
X100529208Y-37825619D01*
X100526051Y-37830128D01*
X100523728Y-37835110D01*
X100523725Y-37835115D01*
X100454242Y-37984122D01*
X100432247Y-38031290D01*
X100374800Y-38245686D01*
X100355455Y-38466800D01*
X94488500Y-38466800D01*
X94488500Y-36457646D01*
X98312784Y-36457646D01*
X98318511Y-36465296D01*
X98511414Y-36583507D01*
X98520208Y-36587988D01*
X98741995Y-36679855D01*
X98751369Y-36682901D01*
X98984805Y-36738944D01*
X98994545Y-36740487D01*
X99233870Y-36759322D01*
X99243730Y-36759322D01*
X99483055Y-36740487D01*
X99492795Y-36738944D01*
X99726231Y-36682901D01*
X99735605Y-36679855D01*
X99957392Y-36587988D01*
X99966186Y-36583507D01*
X100155423Y-36467543D01*
X100164377Y-36457646D01*
X114312784Y-36457646D01*
X114318511Y-36465296D01*
X114511414Y-36583507D01*
X114520208Y-36587988D01*
X114741995Y-36679855D01*
X114751369Y-36682901D01*
X114984805Y-36738944D01*
X114994545Y-36740487D01*
X115233870Y-36759322D01*
X115243730Y-36759322D01*
X115483055Y-36740487D01*
X115492795Y-36738944D01*
X115726231Y-36682901D01*
X115735605Y-36679855D01*
X115957392Y-36587988D01*
X115966186Y-36583507D01*
X116155423Y-36467543D01*
X116164377Y-36457646D01*
X128310184Y-36457646D01*
X128315911Y-36465296D01*
X128508814Y-36583507D01*
X128517608Y-36587988D01*
X128739395Y-36679855D01*
X128748769Y-36682901D01*
X128982205Y-36738944D01*
X128991945Y-36740487D01*
X129231270Y-36759322D01*
X129241130Y-36759322D01*
X129480455Y-36740487D01*
X129490195Y-36738944D01*
X129723631Y-36682901D01*
X129733005Y-36679855D01*
X129954792Y-36587988D01*
X129963586Y-36583507D01*
X130152823Y-36467543D01*
X130161777Y-36457646D01*
X144310184Y-36457646D01*
X144315911Y-36465296D01*
X144508814Y-36583507D01*
X144517608Y-36587988D01*
X144739395Y-36679855D01*
X144748769Y-36682901D01*
X144982205Y-36738944D01*
X144991945Y-36740487D01*
X145231270Y-36759322D01*
X145241130Y-36759322D01*
X145480455Y-36740487D01*
X145490195Y-36738944D01*
X145723631Y-36682901D01*
X145733005Y-36679855D01*
X145954792Y-36587988D01*
X145963586Y-36583507D01*
X146152823Y-36467543D01*
X146162283Y-36457087D01*
X146158499Y-36448309D01*
X145249012Y-35538822D01*
X145235068Y-35531208D01*
X145233235Y-35531339D01*
X145226620Y-35535590D01*
X144316944Y-36445266D01*
X144310184Y-36457646D01*
X130161777Y-36457646D01*
X130162283Y-36457087D01*
X130158499Y-36448309D01*
X129249012Y-35538822D01*
X129235068Y-35531208D01*
X129233235Y-35531339D01*
X129226620Y-35535590D01*
X128316944Y-36445266D01*
X128310184Y-36457646D01*
X116164377Y-36457646D01*
X116164883Y-36457087D01*
X116161099Y-36448309D01*
X115251612Y-35538822D01*
X115237668Y-35531208D01*
X115235835Y-35531339D01*
X115229220Y-35535590D01*
X114319544Y-36445266D01*
X114312784Y-36457646D01*
X100164377Y-36457646D01*
X100164883Y-36457087D01*
X100161099Y-36448309D01*
X99251612Y-35538822D01*
X99237668Y-35531208D01*
X99235835Y-35531339D01*
X99229220Y-35535590D01*
X98319544Y-36445266D01*
X98312784Y-36457646D01*
X94488500Y-36457646D01*
X94488500Y-35171730D01*
X97646278Y-35171730D01*
X97665113Y-35411055D01*
X97666656Y-35420795D01*
X97722699Y-35654231D01*
X97725745Y-35663605D01*
X97817612Y-35885392D01*
X97822093Y-35894186D01*
X97938057Y-36083423D01*
X97948513Y-36092883D01*
X97957291Y-36089099D01*
X98866778Y-35179612D01*
X98874392Y-35165668D01*
X98874261Y-35163835D01*
X98870010Y-35157220D01*
X97960334Y-34247544D01*
X97947954Y-34240784D01*
X97940304Y-34246511D01*
X97822093Y-34439414D01*
X97817612Y-34448208D01*
X97725745Y-34669995D01*
X97722699Y-34679369D01*
X97666656Y-34912805D01*
X97665113Y-34922545D01*
X97646278Y-35161870D01*
X97646278Y-35171730D01*
X94488500Y-35171730D01*
X94488500Y-33876513D01*
X98312717Y-33876513D01*
X98316501Y-33885291D01*
X100517266Y-36086056D01*
X100529646Y-36092816D01*
X100537296Y-36087089D01*
X100655507Y-35894186D01*
X100659988Y-35885392D01*
X100751855Y-35663605D01*
X100754901Y-35654231D01*
X100810944Y-35420795D01*
X100812487Y-35411055D01*
X100831322Y-35171730D01*
X100831322Y-35161870D01*
X100812487Y-34922545D01*
X100810944Y-34912805D01*
X100754901Y-34679369D01*
X100751855Y-34669995D01*
X100659988Y-34448208D01*
X100655507Y-34439414D01*
X100547137Y-34262570D01*
X100528599Y-34194036D01*
X100550055Y-34126360D01*
X100604695Y-34081027D01*
X100675169Y-34072430D01*
X100706420Y-34081898D01*
X100789466Y-34119394D01*
X100793384Y-34121163D01*
X100797503Y-34122383D01*
X101068191Y-34202565D01*
X101068196Y-34202566D01*
X101072304Y-34203783D01*
X101076538Y-34204431D01*
X101076543Y-34204432D01*
X101314484Y-34240842D01*
X101359856Y-34247785D01*
X101507976Y-34250112D01*
X101646429Y-34252287D01*
X101646435Y-34252287D01*
X101650720Y-34252354D01*
X101939512Y-34217407D01*
X102220890Y-34143589D01*
X102489646Y-34032266D01*
X102677849Y-33922289D01*
X102737104Y-33887663D01*
X102737105Y-33887662D01*
X102740807Y-33885499D01*
X102969726Y-33706004D01*
X103011378Y-33663023D01*
X103169183Y-33500180D01*
X103172166Y-33497102D01*
X103344383Y-33262658D01*
X103483188Y-33007010D01*
X103586013Y-32734890D01*
X103644978Y-32477440D01*
X103650000Y-32455513D01*
X103650001Y-32455508D01*
X103650957Y-32451333D01*
X103676816Y-32161585D01*
X103677285Y-32116800D01*
X103675758Y-32094406D01*
X110800432Y-32094406D01*
X110817178Y-32384823D01*
X110818003Y-32389028D01*
X110818004Y-32389036D01*
X110836280Y-32482190D01*
X110873182Y-32670281D01*
X110874569Y-32674332D01*
X110874570Y-32674336D01*
X110966020Y-32941441D01*
X110966024Y-32941450D01*
X110967409Y-32945496D01*
X111000247Y-33010786D01*
X111091141Y-33191508D01*
X111098116Y-33205377D01*
X111137484Y-33262658D01*
X111238522Y-33409669D01*
X111262883Y-33445115D01*
X111265769Y-33448287D01*
X111265771Y-33448289D01*
X111299675Y-33485549D01*
X111458662Y-33660273D01*
X111461951Y-33663023D01*
X111678538Y-33844119D01*
X111678543Y-33844123D01*
X111681830Y-33846871D01*
X111746858Y-33887663D01*
X111924617Y-33999171D01*
X111924621Y-33999173D01*
X111928257Y-34001454D01*
X111932167Y-34003219D01*
X111932168Y-34003220D01*
X111944387Y-34008737D01*
X112193384Y-34121163D01*
X112197503Y-34122383D01*
X112468191Y-34202565D01*
X112468196Y-34202566D01*
X112472304Y-34203783D01*
X112476538Y-34204431D01*
X112476543Y-34204432D01*
X112714484Y-34240842D01*
X112759856Y-34247785D01*
X112907976Y-34250112D01*
X113046429Y-34252287D01*
X113046435Y-34252287D01*
X113050720Y-34252354D01*
X113339512Y-34217407D01*
X113620890Y-34143589D01*
X113624850Y-34141949D01*
X113624855Y-34141947D01*
X113775218Y-34079664D01*
X113845808Y-34072075D01*
X113909295Y-34103854D01*
X113945522Y-34164912D01*
X113942988Y-34235864D01*
X113930869Y-34261908D01*
X113822093Y-34439414D01*
X113817612Y-34448208D01*
X113725745Y-34669995D01*
X113722699Y-34679369D01*
X113666656Y-34912805D01*
X113665113Y-34922545D01*
X113646278Y-35161870D01*
X113646278Y-35171730D01*
X113665113Y-35411055D01*
X113666656Y-35420795D01*
X113722699Y-35654231D01*
X113725745Y-35663605D01*
X113817612Y-35885392D01*
X113822093Y-35894186D01*
X113938057Y-36083423D01*
X113948513Y-36092883D01*
X113957291Y-36089099D01*
X114878458Y-35167932D01*
X115603208Y-35167932D01*
X115603339Y-35169765D01*
X115607590Y-35176380D01*
X116517266Y-36086056D01*
X116529646Y-36092816D01*
X116537296Y-36087089D01*
X116655507Y-35894186D01*
X116659988Y-35885392D01*
X116751855Y-35663605D01*
X116754901Y-35654231D01*
X116810944Y-35420795D01*
X116812487Y-35411055D01*
X116831322Y-35171730D01*
X127643678Y-35171730D01*
X127662513Y-35411055D01*
X127664056Y-35420795D01*
X127720099Y-35654231D01*
X127723145Y-35663605D01*
X127815012Y-35885392D01*
X127819493Y-35894186D01*
X127935457Y-36083423D01*
X127945913Y-36092883D01*
X127954691Y-36089099D01*
X128864178Y-35179612D01*
X128871792Y-35165668D01*
X128871661Y-35163835D01*
X128867410Y-35157220D01*
X127957734Y-34247544D01*
X127945354Y-34240784D01*
X127937704Y-34246511D01*
X127819493Y-34439414D01*
X127815012Y-34448208D01*
X127723145Y-34669995D01*
X127720099Y-34679369D01*
X127664056Y-34912805D01*
X127662513Y-34922545D01*
X127643678Y-35161870D01*
X127643678Y-35171730D01*
X116831322Y-35171730D01*
X116831322Y-35161870D01*
X116812487Y-34922545D01*
X116810944Y-34912805D01*
X116754901Y-34679369D01*
X116751855Y-34669995D01*
X116659988Y-34448208D01*
X116655507Y-34439414D01*
X116539543Y-34250177D01*
X116529087Y-34240717D01*
X116520309Y-34244501D01*
X115610822Y-35153988D01*
X115603208Y-35167932D01*
X114878458Y-35167932D01*
X116158056Y-33888334D01*
X116164511Y-33876513D01*
X128310117Y-33876513D01*
X128313901Y-33885291D01*
X130514666Y-36086056D01*
X130527046Y-36092816D01*
X130534696Y-36087089D01*
X130652907Y-35894186D01*
X130657388Y-35885392D01*
X130749255Y-35663605D01*
X130752301Y-35654231D01*
X130808344Y-35420795D01*
X130809887Y-35411055D01*
X130828722Y-35171730D01*
X130828722Y-35161870D01*
X130809887Y-34922545D01*
X130808344Y-34912805D01*
X130752301Y-34679369D01*
X130749255Y-34669995D01*
X130657388Y-34448208D01*
X130652907Y-34439414D01*
X130544537Y-34262570D01*
X130525999Y-34194036D01*
X130547455Y-34126360D01*
X130602095Y-34081027D01*
X130672569Y-34072430D01*
X130703820Y-34081898D01*
X130786866Y-34119394D01*
X130790784Y-34121163D01*
X130794903Y-34122383D01*
X131065591Y-34202565D01*
X131065596Y-34202566D01*
X131069704Y-34203783D01*
X131073938Y-34204431D01*
X131073943Y-34204432D01*
X131311884Y-34240842D01*
X131357256Y-34247785D01*
X131505376Y-34250112D01*
X131643829Y-34252287D01*
X131643835Y-34252287D01*
X131648120Y-34252354D01*
X131936912Y-34217407D01*
X132218290Y-34143589D01*
X132487046Y-34032266D01*
X132675249Y-33922289D01*
X132734504Y-33887663D01*
X132734505Y-33887662D01*
X132738207Y-33885499D01*
X132967126Y-33706004D01*
X133008778Y-33663023D01*
X133166583Y-33500180D01*
X133169566Y-33497102D01*
X133341783Y-33262658D01*
X133480588Y-33007010D01*
X133583413Y-32734890D01*
X133642378Y-32477440D01*
X133647400Y-32455513D01*
X133647401Y-32455508D01*
X133648357Y-32451333D01*
X133674216Y-32161585D01*
X133674685Y-32116800D01*
X133673158Y-32094406D01*
X140797832Y-32094406D01*
X140814578Y-32384823D01*
X140815403Y-32389028D01*
X140815404Y-32389036D01*
X140833680Y-32482190D01*
X140870582Y-32670281D01*
X140871969Y-32674332D01*
X140871970Y-32674336D01*
X140963420Y-32941441D01*
X140963424Y-32941450D01*
X140964809Y-32945496D01*
X140997647Y-33010786D01*
X141088541Y-33191508D01*
X141095516Y-33205377D01*
X141134884Y-33262658D01*
X141235922Y-33409669D01*
X141260283Y-33445115D01*
X141263169Y-33448287D01*
X141263171Y-33448289D01*
X141297075Y-33485549D01*
X141456062Y-33660273D01*
X141459351Y-33663023D01*
X141675938Y-33844119D01*
X141675943Y-33844123D01*
X141679230Y-33846871D01*
X141744258Y-33887663D01*
X141922017Y-33999171D01*
X141922021Y-33999173D01*
X141925657Y-34001454D01*
X141929567Y-34003219D01*
X141929568Y-34003220D01*
X141941787Y-34008737D01*
X142190784Y-34121163D01*
X142194903Y-34122383D01*
X142465591Y-34202565D01*
X142465596Y-34202566D01*
X142469704Y-34203783D01*
X142473938Y-34204431D01*
X142473943Y-34204432D01*
X142711884Y-34240842D01*
X142757256Y-34247785D01*
X142905376Y-34250112D01*
X143043829Y-34252287D01*
X143043835Y-34252287D01*
X143048120Y-34252354D01*
X143336912Y-34217407D01*
X143618290Y-34143589D01*
X143622250Y-34141949D01*
X143622255Y-34141947D01*
X143772618Y-34079664D01*
X143843208Y-34072075D01*
X143906695Y-34103854D01*
X143942922Y-34164912D01*
X143940388Y-34235864D01*
X143928269Y-34261908D01*
X143819493Y-34439414D01*
X143815012Y-34448208D01*
X143723145Y-34669995D01*
X143720099Y-34679369D01*
X143664056Y-34912805D01*
X143662513Y-34922545D01*
X143643678Y-35161870D01*
X143643678Y-35171730D01*
X143662513Y-35411055D01*
X143664056Y-35420795D01*
X143720099Y-35654231D01*
X143723145Y-35663605D01*
X143815012Y-35885392D01*
X143819493Y-35894186D01*
X143935457Y-36083423D01*
X143945913Y-36092883D01*
X143954691Y-36089099D01*
X144875858Y-35167932D01*
X145600608Y-35167932D01*
X145600739Y-35169765D01*
X145604990Y-35176380D01*
X146514666Y-36086056D01*
X146527046Y-36092816D01*
X146534696Y-36087089D01*
X146652907Y-35894186D01*
X146657388Y-35885392D01*
X146749255Y-35663605D01*
X146752301Y-35654231D01*
X146808344Y-35420795D01*
X146809887Y-35411055D01*
X146828722Y-35171730D01*
X146828722Y-35161870D01*
X146809887Y-34922545D01*
X146808344Y-34912805D01*
X146752301Y-34679369D01*
X146749255Y-34669995D01*
X146657388Y-34448208D01*
X146652907Y-34439414D01*
X146536943Y-34250177D01*
X146526487Y-34240717D01*
X146517709Y-34244501D01*
X145608222Y-35153988D01*
X145600608Y-35167932D01*
X144875858Y-35167932D01*
X146155456Y-33888334D01*
X146162216Y-33875954D01*
X146156489Y-33868304D01*
X145963586Y-33750093D01*
X145954792Y-33745612D01*
X145733005Y-33653745D01*
X145723631Y-33650699D01*
X145490195Y-33594656D01*
X145480455Y-33593113D01*
X145241130Y-33574278D01*
X145231270Y-33574278D01*
X144991945Y-33593113D01*
X144982205Y-33594656D01*
X144748766Y-33650700D01*
X144737310Y-33654423D01*
X144666343Y-33656454D01*
X144605543Y-33619794D01*
X144574215Y-33556083D01*
X144582305Y-33485549D01*
X144596822Y-33459998D01*
X144739245Y-33266113D01*
X144741783Y-33262658D01*
X144880588Y-33007010D01*
X144983413Y-32734890D01*
X145042378Y-32477440D01*
X145047400Y-32455513D01*
X145047401Y-32455508D01*
X145048357Y-32451333D01*
X145074216Y-32161585D01*
X145074685Y-32116800D01*
X145071102Y-32064242D01*
X145055191Y-31830851D01*
X145055190Y-31830845D01*
X145054899Y-31826574D01*
X144995909Y-31541719D01*
X144898805Y-31267505D01*
X144765384Y-31009007D01*
X144751965Y-30989913D01*
X144600578Y-30774513D01*
X144598115Y-30771008D01*
X144400094Y-30557912D01*
X144396778Y-30555198D01*
X144396775Y-30555195D01*
X144178302Y-30376377D01*
X144174984Y-30373661D01*
X143926952Y-30221667D01*
X143923035Y-30219948D01*
X143923032Y-30219946D01*
X143805473Y-30168342D01*
X143660586Y-30104741D01*
X143656458Y-30103565D01*
X143656455Y-30103564D01*
X143570287Y-30079018D01*
X143380816Y-30025046D01*
X143376574Y-30024442D01*
X143376568Y-30024441D01*
X143097070Y-29984663D01*
X143092819Y-29984058D01*
X142939432Y-29983255D01*
X142806209Y-29982557D01*
X142806203Y-29982557D01*
X142801923Y-29982535D01*
X142797679Y-29983094D01*
X142797675Y-29983094D01*
X142670656Y-29999817D01*
X142513513Y-30020505D01*
X142509373Y-30021638D01*
X142509371Y-30021638D01*
X142492611Y-30026223D01*
X142232924Y-30097265D01*
X142228976Y-30098949D01*
X141969300Y-30209710D01*
X141969296Y-30209712D01*
X141965348Y-30211396D01*
X141715738Y-30360785D01*
X141488711Y-30542667D01*
X141288469Y-30753678D01*
X141118717Y-30989913D01*
X140982597Y-31247000D01*
X140882626Y-31520182D01*
X140820656Y-31804404D01*
X140797832Y-32094406D01*
X133673158Y-32094406D01*
X133671102Y-32064242D01*
X133655191Y-31830851D01*
X133655190Y-31830845D01*
X133654899Y-31826574D01*
X133595909Y-31541719D01*
X133498805Y-31267505D01*
X133365384Y-31009007D01*
X133351965Y-30989913D01*
X133200578Y-30774513D01*
X133198115Y-30771008D01*
X133000094Y-30557912D01*
X132996778Y-30555198D01*
X132996775Y-30555195D01*
X132778302Y-30376377D01*
X132774984Y-30373661D01*
X132526952Y-30221667D01*
X132523035Y-30219948D01*
X132523032Y-30219946D01*
X132405473Y-30168342D01*
X132260586Y-30104741D01*
X132256458Y-30103565D01*
X132256455Y-30103564D01*
X132170287Y-30079018D01*
X131980816Y-30025046D01*
X131976574Y-30024442D01*
X131976568Y-30024441D01*
X131697070Y-29984663D01*
X131692819Y-29984058D01*
X131539432Y-29983255D01*
X131406209Y-29982557D01*
X131406203Y-29982557D01*
X131401923Y-29982535D01*
X131397679Y-29983094D01*
X131397675Y-29983094D01*
X131270656Y-29999817D01*
X131113513Y-30020505D01*
X131109373Y-30021638D01*
X131109371Y-30021638D01*
X131092611Y-30026223D01*
X130832924Y-30097265D01*
X130828976Y-30098949D01*
X130569300Y-30209710D01*
X130569296Y-30209712D01*
X130565348Y-30211396D01*
X130315738Y-30360785D01*
X130088711Y-30542667D01*
X129888469Y-30753678D01*
X129718717Y-30989913D01*
X129582597Y-31247000D01*
X129482626Y-31520182D01*
X129420656Y-31804404D01*
X129397832Y-32094406D01*
X129414578Y-32384823D01*
X129415403Y-32389028D01*
X129415404Y-32389036D01*
X129433680Y-32482190D01*
X129470582Y-32670281D01*
X129471969Y-32674332D01*
X129471970Y-32674336D01*
X129563420Y-32941441D01*
X129563424Y-32941450D01*
X129564809Y-32945496D01*
X129597647Y-33010786D01*
X129688541Y-33191508D01*
X129695516Y-33205377D01*
X129734884Y-33262658D01*
X129835922Y-33409669D01*
X129860283Y-33445115D01*
X129863416Y-33448558D01*
X129863466Y-33448662D01*
X129865835Y-33451650D01*
X129865174Y-33452174D01*
X129894465Y-33512406D01*
X129886066Y-33582904D01*
X129840886Y-33637670D01*
X129773270Y-33659316D01*
X129731276Y-33653184D01*
X129723629Y-33650699D01*
X129490195Y-33594656D01*
X129480455Y-33593113D01*
X129241130Y-33574278D01*
X129231270Y-33574278D01*
X128991945Y-33593113D01*
X128982205Y-33594656D01*
X128748769Y-33650699D01*
X128739395Y-33653745D01*
X128517608Y-33745612D01*
X128508814Y-33750093D01*
X128319577Y-33866057D01*
X128310117Y-33876513D01*
X116164511Y-33876513D01*
X116164816Y-33875954D01*
X116159089Y-33868304D01*
X115966186Y-33750093D01*
X115957392Y-33745612D01*
X115735605Y-33653745D01*
X115726231Y-33650699D01*
X115492795Y-33594656D01*
X115483055Y-33593113D01*
X115243730Y-33574278D01*
X115233870Y-33574278D01*
X114994545Y-33593113D01*
X114984805Y-33594656D01*
X114751366Y-33650700D01*
X114739910Y-33654423D01*
X114668943Y-33656454D01*
X114608143Y-33619794D01*
X114576815Y-33556083D01*
X114584905Y-33485549D01*
X114599422Y-33459998D01*
X114741845Y-33266113D01*
X114744383Y-33262658D01*
X114883188Y-33007010D01*
X114986013Y-32734890D01*
X115044978Y-32477440D01*
X115050000Y-32455513D01*
X115050001Y-32455508D01*
X115050957Y-32451333D01*
X115076816Y-32161585D01*
X115077285Y-32116800D01*
X115073702Y-32064242D01*
X115057791Y-31830851D01*
X115057790Y-31830845D01*
X115057499Y-31826574D01*
X114998509Y-31541719D01*
X114901405Y-31267505D01*
X114767984Y-31009007D01*
X114754565Y-30989913D01*
X114603178Y-30774513D01*
X114600715Y-30771008D01*
X114402694Y-30557912D01*
X114399378Y-30555198D01*
X114399375Y-30555195D01*
X114180902Y-30376377D01*
X114177584Y-30373661D01*
X113929552Y-30221667D01*
X113925635Y-30219948D01*
X113925632Y-30219946D01*
X113808073Y-30168342D01*
X113663186Y-30104741D01*
X113659058Y-30103565D01*
X113659055Y-30103564D01*
X113572887Y-30079018D01*
X113383416Y-30025046D01*
X113379174Y-30024442D01*
X113379168Y-30024441D01*
X113099670Y-29984663D01*
X113095419Y-29984058D01*
X112942032Y-29983255D01*
X112808809Y-29982557D01*
X112808803Y-29982557D01*
X112804523Y-29982535D01*
X112800279Y-29983094D01*
X112800275Y-29983094D01*
X112673256Y-29999817D01*
X112516113Y-30020505D01*
X112511973Y-30021638D01*
X112511971Y-30021638D01*
X112495211Y-30026223D01*
X112235524Y-30097265D01*
X112231576Y-30098949D01*
X111971900Y-30209710D01*
X111971896Y-30209712D01*
X111967948Y-30211396D01*
X111718338Y-30360785D01*
X111491311Y-30542667D01*
X111291069Y-30753678D01*
X111121317Y-30989913D01*
X110985197Y-31247000D01*
X110885226Y-31520182D01*
X110823256Y-31804404D01*
X110800432Y-32094406D01*
X103675758Y-32094406D01*
X103673702Y-32064242D01*
X103657791Y-31830851D01*
X103657790Y-31830845D01*
X103657499Y-31826574D01*
X103598509Y-31541719D01*
X103501405Y-31267505D01*
X103367984Y-31009007D01*
X103354565Y-30989913D01*
X103203178Y-30774513D01*
X103200715Y-30771008D01*
X103002694Y-30557912D01*
X102999378Y-30555198D01*
X102999375Y-30555195D01*
X102780902Y-30376377D01*
X102777584Y-30373661D01*
X102529552Y-30221667D01*
X102525635Y-30219948D01*
X102525632Y-30219946D01*
X102408073Y-30168342D01*
X102263186Y-30104741D01*
X102259058Y-30103565D01*
X102259055Y-30103564D01*
X102172887Y-30079018D01*
X101983416Y-30025046D01*
X101979174Y-30024442D01*
X101979168Y-30024441D01*
X101699670Y-29984663D01*
X101695419Y-29984058D01*
X101542032Y-29983255D01*
X101408809Y-29982557D01*
X101408803Y-29982557D01*
X101404523Y-29982535D01*
X101400279Y-29983094D01*
X101400275Y-29983094D01*
X101273256Y-29999817D01*
X101116113Y-30020505D01*
X101111973Y-30021638D01*
X101111971Y-30021638D01*
X101095211Y-30026223D01*
X100835524Y-30097265D01*
X100831576Y-30098949D01*
X100571900Y-30209710D01*
X100571896Y-30209712D01*
X100567948Y-30211396D01*
X100318338Y-30360785D01*
X100091311Y-30542667D01*
X99891069Y-30753678D01*
X99721317Y-30989913D01*
X99585197Y-31247000D01*
X99485226Y-31520182D01*
X99423256Y-31804404D01*
X99400432Y-32094406D01*
X99417178Y-32384823D01*
X99418003Y-32389028D01*
X99418004Y-32389036D01*
X99436280Y-32482190D01*
X99473182Y-32670281D01*
X99474569Y-32674332D01*
X99474570Y-32674336D01*
X99566020Y-32941441D01*
X99566024Y-32941450D01*
X99567409Y-32945496D01*
X99600247Y-33010786D01*
X99691141Y-33191508D01*
X99698116Y-33205377D01*
X99737484Y-33262658D01*
X99838522Y-33409669D01*
X99862883Y-33445115D01*
X99866016Y-33448558D01*
X99866066Y-33448662D01*
X99868435Y-33451650D01*
X99867774Y-33452174D01*
X99897065Y-33512406D01*
X99888666Y-33582904D01*
X99843486Y-33637670D01*
X99775870Y-33659316D01*
X99733876Y-33653184D01*
X99726229Y-33650699D01*
X99492795Y-33594656D01*
X99483055Y-33593113D01*
X99243730Y-33574278D01*
X99233870Y-33574278D01*
X98994545Y-33593113D01*
X98984805Y-33594656D01*
X98751369Y-33650699D01*
X98741995Y-33653745D01*
X98520208Y-33745612D01*
X98511414Y-33750093D01*
X98322177Y-33866057D01*
X98312717Y-33876513D01*
X94488500Y-33876513D01*
X94488500Y-28844094D01*
X134999531Y-28844094D01*
X135015589Y-29007868D01*
X135067532Y-29164015D01*
X135071181Y-29170040D01*
X135109087Y-29232629D01*
X135152779Y-29304773D01*
X135267091Y-29423147D01*
X135404789Y-29513254D01*
X135559028Y-29570615D01*
X135566009Y-29571546D01*
X135566011Y-29571547D01*
X135715161Y-29591448D01*
X135715165Y-29591448D01*
X135722142Y-29592379D01*
X135729153Y-29591741D01*
X135729157Y-29591741D01*
X135879003Y-29578104D01*
X135879004Y-29578104D01*
X135886024Y-29577465D01*
X135914662Y-29568160D01*
X136035830Y-29528790D01*
X136035833Y-29528789D01*
X136042529Y-29526613D01*
X136183879Y-29442351D01*
X136303049Y-29328868D01*
X136319058Y-29304773D01*
X136390214Y-29197675D01*
X136390215Y-29197673D01*
X136394115Y-29191803D01*
X136452551Y-29037968D01*
X136475453Y-28875010D01*
X136475741Y-28854400D01*
X136457398Y-28690866D01*
X136451598Y-28674209D01*
X136405598Y-28542117D01*
X136403280Y-28535460D01*
X136398241Y-28527395D01*
X136319809Y-28401879D01*
X136316076Y-28395905D01*
X136254865Y-28334265D01*
X136212550Y-28291653D01*
X140536177Y-28291653D01*
X140541458Y-28298707D01*
X140702956Y-28393079D01*
X140712242Y-28397529D01*
X140911201Y-28473503D01*
X140921099Y-28476379D01*
X141129795Y-28518838D01*
X141140023Y-28520057D01*
X141352850Y-28527862D01*
X141363136Y-28527395D01*
X141574385Y-28500334D01*
X141584462Y-28498192D01*
X141788455Y-28436991D01*
X141798042Y-28433233D01*
X141989298Y-28339538D01*
X141998144Y-28334265D01*
X142045447Y-28300523D01*
X142053848Y-28289823D01*
X142046860Y-28276670D01*
X141309012Y-27538822D01*
X141295068Y-27531208D01*
X141293235Y-27531339D01*
X141286620Y-27535590D01*
X140542937Y-28279273D01*
X140536177Y-28291653D01*
X136212550Y-28291653D01*
X136205086Y-28284137D01*
X136205082Y-28284134D01*
X136200122Y-28279139D01*
X136061180Y-28190963D01*
X136012047Y-28173468D01*
X135912789Y-28138123D01*
X135912787Y-28138122D01*
X135906155Y-28135761D01*
X135899169Y-28134928D01*
X135899165Y-28134927D01*
X135784671Y-28121275D01*
X135742753Y-28116277D01*
X135735750Y-28117013D01*
X135735749Y-28117013D01*
X135692535Y-28121555D01*
X135579095Y-28133478D01*
X135572427Y-28135748D01*
X135429982Y-28184240D01*
X135429979Y-28184241D01*
X135423315Y-28186510D01*
X135283155Y-28272737D01*
X135165582Y-28387873D01*
X135076438Y-28526197D01*
X135074027Y-28532820D01*
X135074026Y-28532823D01*
X135022566Y-28674209D01*
X135022565Y-28674214D01*
X135020156Y-28680832D01*
X134999531Y-28844094D01*
X94488500Y-28844094D01*
X94488500Y-26237700D01*
X94508502Y-26169579D01*
X94562158Y-26123086D01*
X94614500Y-26111700D01*
X99475530Y-26111700D01*
X99543651Y-26131702D01*
G37*
%TD.AperFunction*%
%TD*%
M02*
