%TF.GenerationSoftware,KiCad,Pcbnew,6.0.4-6f826c9f35~116~ubuntu20.04.1*%
%TF.CreationDate,2022-04-29T04:36:20+07:00*%
%TF.ProjectId,Colorlight2QMTech,436f6c6f-726c-4696-9768-7432514d5465,rev?*%
%TF.SameCoordinates,Original*%
%TF.FileFunction,Copper,L2,Inr*%
%TF.FilePolarity,Positive*%
%FSLAX46Y46*%
G04 Gerber Fmt 4.6, Leading zero omitted, Abs format (unit mm)*
G04 Created by KiCad (PCBNEW 6.0.4-6f826c9f35~116~ubuntu20.04.1) date 2022-04-29 04:36:20*
%MOMM*%
%LPD*%
G01*
G04 APERTURE LIST*
%TA.AperFunction,ComponentPad*%
%ADD10R,1.700000X1.700000*%
%TD*%
%TA.AperFunction,ComponentPad*%
%ADD11O,1.700000X1.700000*%
%TD*%
%TA.AperFunction,ComponentPad*%
%ADD12R,0.850000X0.850000*%
%TD*%
%TA.AperFunction,ComponentPad*%
%ADD13O,0.850000X0.850000*%
%TD*%
%TA.AperFunction,ComponentPad*%
%ADD14C,1.050000*%
%TD*%
%TA.AperFunction,ComponentPad*%
%ADD15C,1.450000*%
%TD*%
%TA.AperFunction,ComponentPad*%
%ADD16C,0.750000*%
%TD*%
%TA.AperFunction,ComponentPad*%
%ADD17O,1.200000X2.000000*%
%TD*%
%TA.AperFunction,ComponentPad*%
%ADD18O,1.200000X1.800000*%
%TD*%
%TA.AperFunction,ViaPad*%
%ADD19C,0.950000*%
%TD*%
%TA.AperFunction,ViaPad*%
%ADD20C,0.450000*%
%TD*%
%TA.AperFunction,ViaPad*%
%ADD21C,1.900000*%
%TD*%
%TA.AperFunction,Conductor*%
%ADD22C,2.000000*%
%TD*%
G04 APERTURE END LIST*
D10*
%TO.N,GND*%
%TO.C,J1*%
X95250000Y-42164000D03*
D11*
X97790000Y-42164000D03*
%TO.N,+3V3*%
X95250000Y-44704000D03*
X97790000Y-44704000D03*
%TO.N,GND*%
X95250000Y-47244000D03*
X97790000Y-47244000D03*
%TO.N,/U16*%
X95250000Y-49784000D03*
%TO.N,/R1*%
X97790000Y-49784000D03*
%TO.N,/C18*%
X95250000Y-52324000D03*
%TO.N,/K18*%
X97790000Y-52324000D03*
%TO.N,/R18*%
X95250000Y-54864000D03*
%TO.N,/T18*%
X97790000Y-54864000D03*
%TO.N,/P17*%
X95250000Y-57404000D03*
%TO.N,/R17*%
X97790000Y-57404000D03*
%TO.N,/T17*%
X95250000Y-59944000D03*
%TO.N,/M17*%
X97790000Y-59944000D03*
%TO.N,/U17*%
X95250000Y-62484000D03*
%TO.N,/U18*%
X97790000Y-62484000D03*
%TO.N,/N17*%
X95250000Y-65024000D03*
%TO.N,/P18*%
X97790000Y-65024000D03*
%TO.N,/M18*%
X95250000Y-67564000D03*
%TO.N,/N18*%
X97790000Y-67564000D03*
%TO.N,/L18*%
X95250000Y-70104000D03*
%TO.N,/L20*%
X97790000Y-70104000D03*
%TO.N,/K19*%
X95250000Y-72644000D03*
%TO.N,/K20*%
X97790000Y-72644000D03*
%TO.N,/J19*%
X95250000Y-75184000D03*
%TO.N,/J20*%
X97790000Y-75184000D03*
%TO.N,/G20*%
X95250000Y-77724000D03*
%TO.N,/H20*%
X97790000Y-77724000D03*
%TO.N,/F20*%
X95250000Y-80264000D03*
%TO.N,/G19*%
X97790000Y-80264000D03*
%TO.N,/E20*%
X95250000Y-82804000D03*
%TO.N,/F19*%
X97790000Y-82804000D03*
%TO.N,/D20*%
X95250000Y-85344000D03*
%TO.N,/E19*%
X97790000Y-85344000D03*
%TO.N,/C20*%
X95250000Y-87884000D03*
%TO.N,/D19*%
X97790000Y-87884000D03*
%TO.N,/B19*%
X95250000Y-90424000D03*
%TO.N,/B20*%
X97790000Y-90424000D03*
%TO.N,/A19*%
X95250000Y-92964000D03*
%TO.N,/B18*%
X97790000Y-92964000D03*
%TO.N,/A18*%
X95250000Y-95504000D03*
%TO.N,/C17*%
X97790000Y-95504000D03*
%TO.N,/C4*%
X95250000Y-98044000D03*
%TO.N,/D3*%
X97790000Y-98044000D03*
%TO.N,/C3*%
X95250000Y-100584000D03*
%TO.N,/B4*%
X97790000Y-100584000D03*
%TO.N,/A3*%
X95250000Y-103124000D03*
%TO.N,/E3*%
X97790000Y-103124000D03*
%TO.N,/B1*%
X95250000Y-105664000D03*
%TO.N,/C2*%
X97790000Y-105664000D03*
%TO.N,/D2*%
X95250000Y-108204000D03*
%TO.N,/C1*%
X97790000Y-108204000D03*
%TO.N,/E2*%
X95250000Y-110744000D03*
%TO.N,/D1*%
X97790000Y-110744000D03*
%TO.N,/F2*%
X95250000Y-113284000D03*
%TO.N,/E1*%
X97790000Y-113284000D03*
%TO.N,unconnected-(J1-Pad59)*%
X95250000Y-115824000D03*
%TO.N,unconnected-(J1-Pad60)*%
X97790000Y-115824000D03*
%TO.N,GND*%
X95250000Y-118364000D03*
X97790000Y-118364000D03*
%TO.N,+5V*%
X95250000Y-120904000D03*
X97790000Y-120904000D03*
%TD*%
D12*
%TO.N,GND*%
%TO.C,J5*%
X133809600Y-42189400D03*
D13*
%TO.N,/eth2_1+*%
X134809600Y-42189400D03*
%TO.N,/eth2_1-*%
X135809600Y-42189400D03*
%TO.N,GND*%
X136809600Y-42189400D03*
%TO.N,/eth2_2-*%
X137809600Y-42189400D03*
%TO.N,/eth2_2+*%
X138809600Y-42189400D03*
%TO.N,GND*%
X139809600Y-42189400D03*
%TO.N,/eth2_3+*%
X140809600Y-42189400D03*
%TO.N,/eth2_3-*%
X141809600Y-42189400D03*
%TO.N,GND*%
X142809600Y-42189400D03*
%TO.N,/eth2_4-*%
X143809600Y-42189400D03*
%TO.N,/eth2_4+*%
X144809600Y-42189400D03*
%TO.N,GND*%
X145809600Y-42189400D03*
X146809600Y-42189400D03*
%TD*%
D14*
%TO.N,*%
%TO.C,CN1*%
X118518400Y-43444800D03*
D15*
X118518400Y-120044800D03*
%TD*%
D10*
%TO.N,GND*%
%TO.C,J2*%
X156210000Y-42164000D03*
D11*
X158750000Y-42164000D03*
%TO.N,+3V3*%
X156210000Y-44704000D03*
X158750000Y-44704000D03*
%TO.N,GND*%
X156210000Y-47244000D03*
X158750000Y-47244000D03*
%TO.N,/T1*%
X156210000Y-49784000D03*
%TO.N,/U1*%
X158750000Y-49784000D03*
%TO.N,/Y2*%
X156210000Y-52324000D03*
%TO.N,/W1*%
X158750000Y-52324000D03*
%TO.N,/V1*%
X156210000Y-54864000D03*
%TO.N,/M1*%
X158750000Y-54864000D03*
%TO.N,/N2*%
X156210000Y-57404000D03*
%TO.N,/N3*%
X158750000Y-57404000D03*
%TO.N,/T2*%
X156210000Y-59944000D03*
%TO.N,/M3*%
X158750000Y-59944000D03*
%TO.N,/T3*%
X156210000Y-62484000D03*
%TO.N,/R3*%
X158750000Y-62484000D03*
%TO.N,/N4*%
X156210000Y-65024000D03*
%TO.N,/M4*%
X158750000Y-65024000D03*
%TO.N,/L4*%
X156210000Y-67564000D03*
%TO.N,/L5*%
X158750000Y-67564000D03*
%TO.N,/P16*%
X156210000Y-70104000D03*
%TO.N,/J16*%
X158750000Y-70104000D03*
%TO.N,/J18*%
X156210000Y-72644000D03*
%TO.N,/J17*%
X158750000Y-72644000D03*
%TO.N,/H18*%
X156210000Y-75184000D03*
%TO.N,/H17*%
X158750000Y-75184000D03*
%TO.N,/G18*%
X156210000Y-77724000D03*
%TO.N,/H16*%
X158750000Y-77724000D03*
%TO.N,/F18*%
X156210000Y-80264000D03*
%TO.N,/G16*%
X158750000Y-80264000D03*
%TO.N,/E18*%
X156210000Y-82804000D03*
%TO.N,/F17*%
X158750000Y-82804000D03*
%TO.N,/F16*%
X156210000Y-85344000D03*
%TO.N,/E16*%
X158750000Y-85344000D03*
%TO.N,/E17*%
X156210000Y-87884000D03*
%TO.N,/D18*%
X158750000Y-87884000D03*
%TO.N,/D17*%
X156210000Y-90424000D03*
%TO.N,/G5*%
X158750000Y-90424000D03*
%TO.N,/D16*%
X156210000Y-92964000D03*
%TO.N,/F5*%
X158750000Y-92964000D03*
%TO.N,/E6*%
X156210000Y-95504000D03*
%TO.N,/E5*%
X158750000Y-95504000D03*
%TO.N,/F4*%
X156210000Y-98044000D03*
%TO.N,/E4*%
X158750000Y-98044000D03*
%TO.N,/F1*%
X156210000Y-100584000D03*
%TO.N,/F3*%
X158750000Y-100584000D03*
%TO.N,/G3*%
X156210000Y-103124000D03*
%TO.N,/H3*%
X158750000Y-103124000D03*
%TO.N,/H4*%
X156210000Y-105664000D03*
%TO.N,/H5*%
X158750000Y-105664000D03*
%TO.N,/J4*%
X156210000Y-108204000D03*
%TO.N,/J5*%
X158750000Y-108204000D03*
%TO.N,/K3*%
X156210000Y-110744000D03*
%TO.N,/K4*%
X158750000Y-110744000D03*
%TO.N,/K5*%
X156210000Y-113284000D03*
%TO.N,/B3*%
X158750000Y-113284000D03*
%TO.N,/A2*%
X156210000Y-115824000D03*
%TO.N,/B2*%
X158750000Y-115824000D03*
%TO.N,GND*%
X156210000Y-118364000D03*
X158750000Y-118364000D03*
%TO.N,+5V*%
X156210000Y-120904000D03*
X158750000Y-120904000D03*
%TD*%
D12*
%TO.N,GND*%
%TO.C,J4*%
X101523800Y-42138600D03*
D13*
%TO.N,/eth1_4+*%
X102523800Y-42138600D03*
%TO.N,/eth1_4-*%
X103523800Y-42138600D03*
%TO.N,GND*%
X104523800Y-42138600D03*
%TO.N,/eth1_3-*%
X105523800Y-42138600D03*
%TO.N,/eth1_3+*%
X106523800Y-42138600D03*
%TO.N,GND*%
X107523800Y-42138600D03*
%TO.N,/eth1_2+*%
X108523800Y-42138600D03*
%TO.N,/eth1_2-*%
X109523800Y-42138600D03*
%TO.N,GND*%
X110523800Y-42138600D03*
%TO.N,/eth1_1-*%
X111523800Y-42138600D03*
%TO.N,/eth1_1+*%
X112523800Y-42138600D03*
%TO.N,GND*%
X113523800Y-42138600D03*
X114523800Y-42138600D03*
%TD*%
D10*
%TO.N,GND*%
%TO.C,J4-GND1*%
X152349200Y-46532800D03*
%TD*%
D16*
%TO.N,*%
%TO.C,J3*%
X110819000Y-121200000D03*
X105019000Y-121200000D03*
D17*
%TO.N,Net-(J3-PadS1)*%
X112249000Y-120700000D03*
D18*
X112249000Y-124900000D03*
X103589000Y-124900000D03*
D17*
X103589000Y-120700000D03*
%TD*%
D19*
%TO.N,GND*%
X111961300Y-112903200D03*
D20*
X106426000Y-110312200D03*
X112877600Y-61163200D03*
X109524800Y-106299000D03*
X142798800Y-46456600D03*
X113538000Y-43205400D03*
X116967000Y-53670200D03*
X104902000Y-51485800D03*
X133324600Y-106172000D03*
X134520819Y-60302019D03*
X140233400Y-109804200D03*
X128016000Y-103378000D03*
X124739400Y-108254800D03*
X130683000Y-104825800D03*
X111074200Y-104267000D03*
X116967000Y-61468000D03*
X145643600Y-46482000D03*
X110515400Y-43205400D03*
X111252000Y-62331600D03*
X107924600Y-108331000D03*
X138480800Y-57937400D03*
X110185200Y-59639200D03*
X116967000Y-57277000D03*
D19*
X158262000Y-124948000D03*
D20*
X150342600Y-114833400D03*
D19*
X118668800Y-85394800D03*
D20*
X133628795Y-60908595D03*
X102946200Y-52857400D03*
D19*
X118470000Y-100478000D03*
D20*
X110236000Y-47421800D03*
X119888000Y-55778400D03*
X101574600Y-50342800D03*
X116967000Y-60858400D03*
X124764800Y-61341000D03*
X112522000Y-102184200D03*
X142798800Y-110947200D03*
X144881600Y-50825400D03*
X137388600Y-50368200D03*
X129616200Y-61290200D03*
X149275800Y-52146200D03*
X116967000Y-59080400D03*
D19*
X104343200Y-118389400D03*
D20*
X110058200Y-52197000D03*
X124739400Y-105054400D03*
X111912400Y-46202600D03*
D19*
X104343200Y-118389400D03*
D20*
X124739400Y-111836200D03*
X136753600Y-108077000D03*
X145364200Y-112268000D03*
X110236000Y-49174400D03*
X133400800Y-46710600D03*
X107518200Y-50927000D03*
X140055600Y-46482000D03*
X119888000Y-54000400D03*
X124739400Y-101828600D03*
X104521000Y-43180000D03*
X107543600Y-47929800D03*
X119888000Y-61188600D03*
X148209000Y-42164000D03*
X154584400Y-49631600D03*
X101523800Y-43180000D03*
X119888000Y-61798200D03*
X107924600Y-52654200D03*
X116967000Y-55473600D03*
X116967000Y-53060600D03*
X119888000Y-57581800D03*
X139319000Y-51028600D03*
X143256000Y-49047400D03*
X133045200Y-59385200D03*
X132308600Y-61239400D03*
X101422200Y-47929800D03*
X106146600Y-55880000D03*
X152196800Y-50825400D03*
X104521000Y-50317400D03*
X104597200Y-47929800D03*
D19*
X104343200Y-118389400D03*
X118719600Y-70053200D03*
D20*
X132232400Y-55727600D03*
X135458200Y-59664600D03*
X140284200Y-49199800D03*
X115036600Y-46913800D03*
X141478000Y-56311800D03*
X140335000Y-55092600D03*
X144322800Y-54305200D03*
X113639600Y-64668400D03*
X119888000Y-59385200D03*
X133007257Y-57543857D03*
X107518200Y-43180000D03*
D21*
%TO.N,+3V3*%
X147112000Y-116347000D03*
D20*
%TO.N,+5V*%
X124527000Y-52777000D03*
D19*
X100656000Y-116514000D03*
D20*
X119888000Y-53390800D03*
X124510000Y-50380000D03*
X124527000Y-52177000D03*
X124510000Y-50975000D03*
X124502000Y-51577000D03*
X124527000Y-53377000D03*
%TD*%
D22*
%TO.N,GND*%
X158750000Y-47244000D02*
X153670000Y-47244000D01*
X100330000Y-47244000D02*
X95250000Y-47244000D01*
X100330000Y-118364000D02*
X95250000Y-118364000D01*
X158750000Y-118364000D02*
X153670000Y-118364000D01*
X100076000Y-42164000D02*
X94996000Y-42164000D01*
X158750000Y-42164000D02*
X153670000Y-42164000D01*
%TD*%
%TA.AperFunction,Conductor*%
%TO.N,GND*%
G36*
X100703822Y-41168502D02*
G01*
X100750315Y-41222158D01*
X100760419Y-41292432D01*
X100734342Y-41349531D01*
X100735896Y-41350696D01*
X100654014Y-41459951D01*
X100645476Y-41475546D01*
X100600322Y-41595994D01*
X100596695Y-41611249D01*
X100591169Y-41662114D01*
X100590800Y-41668928D01*
X100590800Y-41866485D01*
X100595275Y-41881724D01*
X100596665Y-41882929D01*
X100604348Y-41884600D01*
X101471917Y-41884600D01*
X101540038Y-41904602D01*
X101586531Y-41958258D01*
X101597227Y-42023771D01*
X101585158Y-42138600D01*
X101605670Y-42333755D01*
X101607710Y-42340033D01*
X101607710Y-42340034D01*
X101629192Y-42406148D01*
X101666308Y-42520380D01*
X101669611Y-42526102D01*
X101669612Y-42526103D01*
X101760919Y-42684251D01*
X101777800Y-42747251D01*
X101777800Y-43053484D01*
X101782275Y-43068723D01*
X101783665Y-43069928D01*
X101791348Y-43071599D01*
X101993469Y-43071599D01*
X102000290Y-43071229D01*
X102051152Y-43065705D01*
X102066403Y-43062079D01*
X102147857Y-43031543D01*
X102218664Y-43026360D01*
X102228757Y-43029082D01*
X102233744Y-43031302D01*
X102240194Y-43032673D01*
X102240197Y-43032674D01*
X102419228Y-43070728D01*
X102419232Y-43070728D01*
X102425685Y-43072100D01*
X102621915Y-43072100D01*
X102628368Y-43070728D01*
X102628372Y-43070728D01*
X102730320Y-43049058D01*
X102813856Y-43031302D01*
X102820963Y-43028138D01*
X102880871Y-43001465D01*
X102972552Y-42960646D01*
X103042918Y-42951212D01*
X103075047Y-42960645D01*
X103166729Y-43001465D01*
X103226638Y-43028138D01*
X103233744Y-43031302D01*
X103317280Y-43049058D01*
X103419228Y-43070728D01*
X103419232Y-43070728D01*
X103425685Y-43072100D01*
X103621915Y-43072100D01*
X103628368Y-43070728D01*
X103628372Y-43070728D01*
X103730320Y-43049058D01*
X103813856Y-43031302D01*
X103820963Y-43028138D01*
X103880871Y-43001465D01*
X103973168Y-42960372D01*
X104043533Y-42950938D01*
X104075664Y-42960372D01*
X104227868Y-43028138D01*
X104240356Y-43032195D01*
X104252080Y-43034688D01*
X104266141Y-43033615D01*
X104269800Y-43023659D01*
X104269800Y-42747251D01*
X104286681Y-42684251D01*
X104377988Y-42526103D01*
X104377989Y-42526102D01*
X104381292Y-42520380D01*
X104403967Y-42450593D01*
X104444040Y-42391987D01*
X104509437Y-42364350D01*
X104579394Y-42376457D01*
X104631700Y-42424463D01*
X104643633Y-42450592D01*
X104666308Y-42520380D01*
X104669611Y-42526102D01*
X104669612Y-42526103D01*
X104760919Y-42684251D01*
X104777800Y-42747251D01*
X104777800Y-43020339D01*
X104781773Y-43033870D01*
X104792268Y-43035379D01*
X104807244Y-43032195D01*
X104819732Y-43028138D01*
X104971936Y-42960372D01*
X105042303Y-42950938D01*
X105074430Y-42960371D01*
X105166729Y-43001465D01*
X105226638Y-43028138D01*
X105233744Y-43031302D01*
X105317280Y-43049058D01*
X105419228Y-43070728D01*
X105419232Y-43070728D01*
X105425685Y-43072100D01*
X105621915Y-43072100D01*
X105628368Y-43070728D01*
X105628372Y-43070728D01*
X105730320Y-43049058D01*
X105813856Y-43031302D01*
X105820963Y-43028138D01*
X105880871Y-43001465D01*
X105972552Y-42960646D01*
X106042918Y-42951212D01*
X106075047Y-42960645D01*
X106166729Y-43001465D01*
X106226638Y-43028138D01*
X106233744Y-43031302D01*
X106317280Y-43049058D01*
X106419228Y-43070728D01*
X106419232Y-43070728D01*
X106425685Y-43072100D01*
X106621915Y-43072100D01*
X106628368Y-43070728D01*
X106628372Y-43070728D01*
X106730320Y-43049058D01*
X106813856Y-43031302D01*
X106820963Y-43028138D01*
X106880871Y-43001465D01*
X106973168Y-42960372D01*
X107043533Y-42950938D01*
X107075664Y-42960372D01*
X107227868Y-43028138D01*
X107240356Y-43032195D01*
X107252080Y-43034688D01*
X107266141Y-43033615D01*
X107269800Y-43023659D01*
X107269800Y-42747251D01*
X107286681Y-42684251D01*
X107377988Y-42526103D01*
X107377989Y-42526102D01*
X107381292Y-42520380D01*
X107403967Y-42450593D01*
X107444040Y-42391987D01*
X107509437Y-42364350D01*
X107579394Y-42376457D01*
X107631700Y-42424463D01*
X107643633Y-42450592D01*
X107666308Y-42520380D01*
X107669611Y-42526102D01*
X107669612Y-42526103D01*
X107760919Y-42684251D01*
X107777800Y-42747251D01*
X107777800Y-43020339D01*
X107781773Y-43033870D01*
X107792268Y-43035379D01*
X107807244Y-43032195D01*
X107819732Y-43028138D01*
X107971936Y-42960372D01*
X108042303Y-42950938D01*
X108074430Y-42960371D01*
X108166729Y-43001465D01*
X108226638Y-43028138D01*
X108233744Y-43031302D01*
X108317280Y-43049058D01*
X108419228Y-43070728D01*
X108419232Y-43070728D01*
X108425685Y-43072100D01*
X108621915Y-43072100D01*
X108628368Y-43070728D01*
X108628372Y-43070728D01*
X108730320Y-43049058D01*
X108813856Y-43031302D01*
X108820963Y-43028138D01*
X108880871Y-43001465D01*
X108972552Y-42960646D01*
X109042918Y-42951212D01*
X109075047Y-42960645D01*
X109166729Y-43001465D01*
X109226638Y-43028138D01*
X109233744Y-43031302D01*
X109317280Y-43049058D01*
X109419228Y-43070728D01*
X109419232Y-43070728D01*
X109425685Y-43072100D01*
X109621915Y-43072100D01*
X109628368Y-43070728D01*
X109628372Y-43070728D01*
X109730320Y-43049058D01*
X109813856Y-43031302D01*
X109820963Y-43028138D01*
X109880871Y-43001465D01*
X109973168Y-42960372D01*
X110043533Y-42950938D01*
X110075664Y-42960372D01*
X110227868Y-43028138D01*
X110240356Y-43032195D01*
X110252080Y-43034688D01*
X110266141Y-43033615D01*
X110269800Y-43023659D01*
X110269800Y-42747251D01*
X110286681Y-42684251D01*
X110377988Y-42526103D01*
X110377989Y-42526102D01*
X110381292Y-42520380D01*
X110403967Y-42450593D01*
X110444040Y-42391987D01*
X110509437Y-42364350D01*
X110579394Y-42376457D01*
X110631700Y-42424463D01*
X110643633Y-42450592D01*
X110666308Y-42520380D01*
X110669611Y-42526102D01*
X110669612Y-42526103D01*
X110760919Y-42684251D01*
X110777800Y-42747251D01*
X110777800Y-43020339D01*
X110781773Y-43033870D01*
X110792268Y-43035379D01*
X110807244Y-43032195D01*
X110819732Y-43028138D01*
X110971936Y-42960372D01*
X111042303Y-42950938D01*
X111074430Y-42960371D01*
X111166729Y-43001465D01*
X111226638Y-43028138D01*
X111233744Y-43031302D01*
X111317280Y-43049058D01*
X111419228Y-43070728D01*
X111419232Y-43070728D01*
X111425685Y-43072100D01*
X111621915Y-43072100D01*
X111628368Y-43070728D01*
X111628372Y-43070728D01*
X111730320Y-43049058D01*
X111813856Y-43031302D01*
X111820963Y-43028138D01*
X111880871Y-43001465D01*
X111972552Y-42960646D01*
X112042918Y-42951212D01*
X112075047Y-42960645D01*
X112166729Y-43001465D01*
X112226638Y-43028138D01*
X112233744Y-43031302D01*
X112317280Y-43049058D01*
X112419228Y-43070728D01*
X112419232Y-43070728D01*
X112425685Y-43072100D01*
X112621915Y-43072100D01*
X112628368Y-43070728D01*
X112628372Y-43070728D01*
X112730320Y-43049058D01*
X112813856Y-43031302D01*
X112820963Y-43028138D01*
X112880871Y-43001465D01*
X112973168Y-42960372D01*
X113043533Y-42950938D01*
X113075664Y-42960372D01*
X113227868Y-43028138D01*
X113240356Y-43032195D01*
X113252080Y-43034688D01*
X113266141Y-43033615D01*
X113269800Y-43023659D01*
X113269800Y-43020339D01*
X113777800Y-43020339D01*
X113781773Y-43033870D01*
X113792268Y-43035379D01*
X113807244Y-43032195D01*
X113819736Y-43028137D01*
X113972552Y-42960099D01*
X114042919Y-42950665D01*
X114075048Y-42960099D01*
X114227864Y-43028137D01*
X114240356Y-43032195D01*
X114252080Y-43034688D01*
X114266141Y-43033615D01*
X114269800Y-43023659D01*
X114269800Y-43020339D01*
X114777800Y-43020339D01*
X114781773Y-43033870D01*
X114792268Y-43035379D01*
X114807244Y-43032195D01*
X114819732Y-43028138D01*
X114986840Y-42953737D01*
X114998212Y-42947171D01*
X115146194Y-42839656D01*
X115155957Y-42830865D01*
X115278354Y-42694928D01*
X115286070Y-42684309D01*
X115377533Y-42525891D01*
X115382873Y-42513896D01*
X115416685Y-42409832D01*
X115417088Y-42395732D01*
X115410717Y-42392600D01*
X114795915Y-42392600D01*
X114780676Y-42397075D01*
X114779471Y-42398465D01*
X114777800Y-42406148D01*
X114777800Y-43020339D01*
X114269800Y-43020339D01*
X114269800Y-42410715D01*
X114265325Y-42395476D01*
X114263935Y-42394271D01*
X114256252Y-42392600D01*
X113795915Y-42392600D01*
X113780676Y-42397075D01*
X113779471Y-42398465D01*
X113777800Y-42406148D01*
X113777800Y-43020339D01*
X113269800Y-43020339D01*
X113269800Y-42747251D01*
X113286681Y-42684251D01*
X113377988Y-42526103D01*
X113377989Y-42526102D01*
X113381292Y-42520380D01*
X113418408Y-42406148D01*
X113439890Y-42340034D01*
X113439890Y-42340033D01*
X113441930Y-42333755D01*
X113462442Y-42138600D01*
X113450373Y-42023771D01*
X113463145Y-41953932D01*
X113511647Y-41902085D01*
X113575683Y-41884600D01*
X115404169Y-41884600D01*
X115417700Y-41880627D01*
X115418710Y-41873600D01*
X115382873Y-41763304D01*
X115377533Y-41751309D01*
X115286070Y-41592891D01*
X115278354Y-41582272D01*
X115155957Y-41446335D01*
X115146194Y-41437544D01*
X115062086Y-41376436D01*
X115018732Y-41320213D01*
X115012657Y-41249477D01*
X115045789Y-41186686D01*
X115107609Y-41151774D01*
X115136147Y-41148500D01*
X132981050Y-41148500D01*
X133049171Y-41168502D01*
X133095664Y-41222158D01*
X133105768Y-41292432D01*
X133076274Y-41357012D01*
X133056614Y-41375327D01*
X133028875Y-41396116D01*
X133016315Y-41408676D01*
X132939814Y-41510751D01*
X132931276Y-41526346D01*
X132886122Y-41646794D01*
X132882495Y-41662049D01*
X132876969Y-41712914D01*
X132876600Y-41719728D01*
X132876600Y-41917285D01*
X132881075Y-41932524D01*
X132882465Y-41933729D01*
X132890148Y-41935400D01*
X133757717Y-41935400D01*
X133825838Y-41955402D01*
X133872331Y-42009058D01*
X133883027Y-42074571D01*
X133870958Y-42189400D01*
X133871648Y-42195965D01*
X133886791Y-42340034D01*
X133891470Y-42384555D01*
X133893510Y-42390833D01*
X133893510Y-42390834D01*
X133914992Y-42456948D01*
X133952108Y-42571180D01*
X133955411Y-42576902D01*
X133955412Y-42576903D01*
X134046719Y-42735051D01*
X134063600Y-42798051D01*
X134063600Y-43104284D01*
X134068075Y-43119523D01*
X134069465Y-43120728D01*
X134077148Y-43122399D01*
X134279269Y-43122399D01*
X134286090Y-43122029D01*
X134336952Y-43116505D01*
X134352203Y-43112879D01*
X134433657Y-43082343D01*
X134504464Y-43077160D01*
X134514557Y-43079882D01*
X134519544Y-43082102D01*
X134525994Y-43083473D01*
X134525997Y-43083474D01*
X134705028Y-43121528D01*
X134705032Y-43121528D01*
X134711485Y-43122900D01*
X134907715Y-43122900D01*
X134914168Y-43121528D01*
X134914172Y-43121528D01*
X135003685Y-43102501D01*
X135099656Y-43082102D01*
X135106763Y-43078938D01*
X135187559Y-43042965D01*
X135258352Y-43011446D01*
X135328718Y-43002012D01*
X135360847Y-43011445D01*
X135431641Y-43042965D01*
X135512438Y-43078938D01*
X135519544Y-43082102D01*
X135615515Y-43102501D01*
X135705028Y-43121528D01*
X135705032Y-43121528D01*
X135711485Y-43122900D01*
X135907715Y-43122900D01*
X135914168Y-43121528D01*
X135914172Y-43121528D01*
X136003685Y-43102501D01*
X136099656Y-43082102D01*
X136106763Y-43078938D01*
X136187559Y-43042965D01*
X136258968Y-43011172D01*
X136329333Y-43001738D01*
X136361464Y-43011172D01*
X136513668Y-43078938D01*
X136526156Y-43082995D01*
X136537880Y-43085488D01*
X136551941Y-43084415D01*
X136555600Y-43074459D01*
X136555600Y-42798051D01*
X136572481Y-42735051D01*
X136663788Y-42576903D01*
X136663789Y-42576902D01*
X136667092Y-42571180D01*
X136689767Y-42501393D01*
X136729840Y-42442787D01*
X136795237Y-42415150D01*
X136865194Y-42427257D01*
X136917500Y-42475263D01*
X136929433Y-42501392D01*
X136952108Y-42571180D01*
X136955411Y-42576902D01*
X136955412Y-42576903D01*
X137046719Y-42735051D01*
X137063600Y-42798051D01*
X137063600Y-43071139D01*
X137067573Y-43084670D01*
X137078068Y-43086179D01*
X137093044Y-43082995D01*
X137105532Y-43078938D01*
X137257736Y-43011172D01*
X137328103Y-43001738D01*
X137360230Y-43011171D01*
X137431641Y-43042965D01*
X137512438Y-43078938D01*
X137519544Y-43082102D01*
X137615515Y-43102501D01*
X137705028Y-43121528D01*
X137705032Y-43121528D01*
X137711485Y-43122900D01*
X137907715Y-43122900D01*
X137914168Y-43121528D01*
X137914172Y-43121528D01*
X138003685Y-43102501D01*
X138099656Y-43082102D01*
X138106763Y-43078938D01*
X138187559Y-43042965D01*
X138258352Y-43011446D01*
X138328718Y-43002012D01*
X138360847Y-43011445D01*
X138431641Y-43042965D01*
X138512438Y-43078938D01*
X138519544Y-43082102D01*
X138615515Y-43102501D01*
X138705028Y-43121528D01*
X138705032Y-43121528D01*
X138711485Y-43122900D01*
X138907715Y-43122900D01*
X138914168Y-43121528D01*
X138914172Y-43121528D01*
X139003685Y-43102501D01*
X139099656Y-43082102D01*
X139106763Y-43078938D01*
X139187559Y-43042965D01*
X139258968Y-43011172D01*
X139329333Y-43001738D01*
X139361464Y-43011172D01*
X139513668Y-43078938D01*
X139526156Y-43082995D01*
X139537880Y-43085488D01*
X139551941Y-43084415D01*
X139555600Y-43074459D01*
X139555600Y-42798051D01*
X139572481Y-42735051D01*
X139663788Y-42576903D01*
X139663789Y-42576902D01*
X139667092Y-42571180D01*
X139689767Y-42501393D01*
X139729840Y-42442787D01*
X139795237Y-42415150D01*
X139865194Y-42427257D01*
X139917500Y-42475263D01*
X139929433Y-42501392D01*
X139952108Y-42571180D01*
X139955411Y-42576902D01*
X139955412Y-42576903D01*
X140046719Y-42735051D01*
X140063600Y-42798051D01*
X140063600Y-43071139D01*
X140067573Y-43084670D01*
X140078068Y-43086179D01*
X140093044Y-43082995D01*
X140105532Y-43078938D01*
X140257736Y-43011172D01*
X140328103Y-43001738D01*
X140360230Y-43011171D01*
X140431641Y-43042965D01*
X140512438Y-43078938D01*
X140519544Y-43082102D01*
X140615515Y-43102501D01*
X140705028Y-43121528D01*
X140705032Y-43121528D01*
X140711485Y-43122900D01*
X140907715Y-43122900D01*
X140914168Y-43121528D01*
X140914172Y-43121528D01*
X141003685Y-43102501D01*
X141099656Y-43082102D01*
X141106763Y-43078938D01*
X141187559Y-43042965D01*
X141258352Y-43011446D01*
X141328718Y-43002012D01*
X141360847Y-43011445D01*
X141431641Y-43042965D01*
X141512438Y-43078938D01*
X141519544Y-43082102D01*
X141615515Y-43102501D01*
X141705028Y-43121528D01*
X141705032Y-43121528D01*
X141711485Y-43122900D01*
X141907715Y-43122900D01*
X141914168Y-43121528D01*
X141914172Y-43121528D01*
X142003685Y-43102501D01*
X142099656Y-43082102D01*
X142106763Y-43078938D01*
X142187559Y-43042965D01*
X142258968Y-43011172D01*
X142329333Y-43001738D01*
X142361464Y-43011172D01*
X142513668Y-43078938D01*
X142526156Y-43082995D01*
X142537880Y-43085488D01*
X142551941Y-43084415D01*
X142555600Y-43074459D01*
X142555600Y-42798051D01*
X142572481Y-42735051D01*
X142663788Y-42576903D01*
X142663789Y-42576902D01*
X142667092Y-42571180D01*
X142689767Y-42501393D01*
X142729840Y-42442787D01*
X142795237Y-42415150D01*
X142865194Y-42427257D01*
X142917500Y-42475263D01*
X142929433Y-42501392D01*
X142952108Y-42571180D01*
X142955411Y-42576902D01*
X142955412Y-42576903D01*
X143046719Y-42735051D01*
X143063600Y-42798051D01*
X143063600Y-43071139D01*
X143067573Y-43084670D01*
X143078068Y-43086179D01*
X143093044Y-43082995D01*
X143105532Y-43078938D01*
X143257736Y-43011172D01*
X143328103Y-43001738D01*
X143360230Y-43011171D01*
X143431641Y-43042965D01*
X143512438Y-43078938D01*
X143519544Y-43082102D01*
X143615515Y-43102501D01*
X143705028Y-43121528D01*
X143705032Y-43121528D01*
X143711485Y-43122900D01*
X143907715Y-43122900D01*
X143914168Y-43121528D01*
X143914172Y-43121528D01*
X144003685Y-43102501D01*
X144099656Y-43082102D01*
X144106763Y-43078938D01*
X144187559Y-43042965D01*
X144258352Y-43011446D01*
X144328718Y-43002012D01*
X144360847Y-43011445D01*
X144431641Y-43042965D01*
X144512438Y-43078938D01*
X144519544Y-43082102D01*
X144615515Y-43102501D01*
X144705028Y-43121528D01*
X144705032Y-43121528D01*
X144711485Y-43122900D01*
X144907715Y-43122900D01*
X144914168Y-43121528D01*
X144914172Y-43121528D01*
X145003685Y-43102501D01*
X145099656Y-43082102D01*
X145106763Y-43078938D01*
X145187559Y-43042965D01*
X145258968Y-43011172D01*
X145329333Y-43001738D01*
X145361464Y-43011172D01*
X145513668Y-43078938D01*
X145526156Y-43082995D01*
X145537880Y-43085488D01*
X145551941Y-43084415D01*
X145555600Y-43074459D01*
X145555600Y-43071139D01*
X146063600Y-43071139D01*
X146067573Y-43084670D01*
X146078068Y-43086179D01*
X146093044Y-43082995D01*
X146105536Y-43078937D01*
X146258352Y-43010899D01*
X146328719Y-43001465D01*
X146360848Y-43010899D01*
X146513664Y-43078937D01*
X146526156Y-43082995D01*
X146537880Y-43085488D01*
X146551941Y-43084415D01*
X146555600Y-43074459D01*
X146555600Y-43071139D01*
X147063600Y-43071139D01*
X147067573Y-43084670D01*
X147078068Y-43086179D01*
X147093044Y-43082995D01*
X147105532Y-43078938D01*
X147272640Y-43004537D01*
X147284012Y-42997971D01*
X147431994Y-42890456D01*
X147441757Y-42881665D01*
X147564154Y-42745728D01*
X147571870Y-42735109D01*
X147663333Y-42576691D01*
X147668673Y-42564696D01*
X147702485Y-42460632D01*
X147702888Y-42446532D01*
X147696517Y-42443400D01*
X147081715Y-42443400D01*
X147066476Y-42447875D01*
X147065271Y-42449265D01*
X147063600Y-42456948D01*
X147063600Y-43071139D01*
X146555600Y-43071139D01*
X146555600Y-42461515D01*
X146551125Y-42446276D01*
X146549735Y-42445071D01*
X146542052Y-42443400D01*
X146081715Y-42443400D01*
X146066476Y-42447875D01*
X146065271Y-42449265D01*
X146063600Y-42456948D01*
X146063600Y-43071139D01*
X145555600Y-43071139D01*
X145555600Y-42798051D01*
X145572481Y-42735051D01*
X145663788Y-42576903D01*
X145663789Y-42576902D01*
X145667092Y-42571180D01*
X145704208Y-42456948D01*
X145725690Y-42390834D01*
X145725690Y-42390833D01*
X145727730Y-42384555D01*
X145732410Y-42340034D01*
X145747552Y-42195965D01*
X145748242Y-42189400D01*
X145736173Y-42074571D01*
X145748945Y-42004732D01*
X145797447Y-41952885D01*
X145861483Y-41935400D01*
X147689969Y-41935400D01*
X147703500Y-41931427D01*
X147704510Y-41924400D01*
X147668673Y-41814104D01*
X147663333Y-41802109D01*
X147571870Y-41643691D01*
X147564154Y-41633072D01*
X147441757Y-41497135D01*
X147431994Y-41488344D01*
X147278670Y-41376948D01*
X147280320Y-41374677D01*
X147239856Y-41332247D01*
X147226413Y-41262535D01*
X147252794Y-41196621D01*
X147310622Y-41155434D01*
X147351844Y-41148500D01*
X154726000Y-41148500D01*
X154794121Y-41168502D01*
X154840614Y-41222158D01*
X154852000Y-41274500D01*
X154852000Y-41891885D01*
X154856475Y-41907124D01*
X154857865Y-41908329D01*
X154865548Y-41910000D01*
X158878000Y-41910000D01*
X158946121Y-41930002D01*
X158992614Y-41983658D01*
X159004000Y-42036000D01*
X159004000Y-42292000D01*
X158983998Y-42360121D01*
X158930342Y-42406614D01*
X158878000Y-42418000D01*
X154870116Y-42418000D01*
X154854877Y-42422475D01*
X154853672Y-42423865D01*
X154852001Y-42431548D01*
X154852001Y-43058669D01*
X154852371Y-43065490D01*
X154857895Y-43116352D01*
X154861521Y-43131604D01*
X154906676Y-43252054D01*
X154915214Y-43267649D01*
X154991715Y-43369724D01*
X155004276Y-43382285D01*
X155106351Y-43458786D01*
X155121946Y-43467324D01*
X155230827Y-43508142D01*
X155287591Y-43550784D01*
X155312291Y-43617345D01*
X155297083Y-43686694D01*
X155277691Y-43713175D01*
X155174488Y-43821171D01*
X155150629Y-43846138D01*
X155024743Y-44030680D01*
X155009003Y-44064590D01*
X154961836Y-44166203D01*
X154930688Y-44233305D01*
X154870989Y-44448570D01*
X154847251Y-44670695D01*
X154847548Y-44675848D01*
X154847548Y-44675851D01*
X154853011Y-44770590D01*
X154860110Y-44893715D01*
X154861247Y-44898761D01*
X154861248Y-44898767D01*
X154881119Y-44986939D01*
X154909222Y-45111639D01*
X154993266Y-45318616D01*
X155044019Y-45401438D01*
X155107291Y-45504688D01*
X155109987Y-45509088D01*
X155256250Y-45677938D01*
X155428126Y-45820632D01*
X155443470Y-45829598D01*
X155501955Y-45863774D01*
X155550679Y-45915412D01*
X155563750Y-45985195D01*
X155537019Y-46050967D01*
X155496562Y-46084327D01*
X155488457Y-46088546D01*
X155479738Y-46094036D01*
X155309433Y-46221905D01*
X155301726Y-46228748D01*
X155154590Y-46382717D01*
X155148104Y-46390727D01*
X155028098Y-46566649D01*
X155023000Y-46575623D01*
X154933338Y-46768783D01*
X154929775Y-46778470D01*
X154874389Y-46978183D01*
X154875912Y-46986607D01*
X154888292Y-46990000D01*
X158878000Y-46990000D01*
X158946121Y-47010002D01*
X158992614Y-47063658D01*
X159004000Y-47116000D01*
X159004000Y-47372000D01*
X158983998Y-47440121D01*
X158930342Y-47486614D01*
X158878000Y-47498000D01*
X154893225Y-47498000D01*
X154879694Y-47501973D01*
X154878257Y-47511966D01*
X154908565Y-47646446D01*
X154911645Y-47656275D01*
X154991770Y-47853603D01*
X154996413Y-47862794D01*
X155107694Y-48044388D01*
X155113777Y-48052699D01*
X155253213Y-48213667D01*
X155260580Y-48220883D01*
X155424434Y-48356916D01*
X155432881Y-48362831D01*
X155501969Y-48403203D01*
X155550693Y-48454842D01*
X155563764Y-48524625D01*
X155537033Y-48590396D01*
X155496584Y-48623752D01*
X155483607Y-48630507D01*
X155479474Y-48633610D01*
X155479471Y-48633612D01*
X155455247Y-48651800D01*
X155304965Y-48764635D01*
X155150629Y-48926138D01*
X155024743Y-49110680D01*
X154930688Y-49313305D01*
X154870989Y-49528570D01*
X154847251Y-49750695D01*
X154847548Y-49755848D01*
X154847548Y-49755851D01*
X154856811Y-49916507D01*
X154860110Y-49973715D01*
X154861247Y-49978761D01*
X154861248Y-49978767D01*
X154882275Y-50072069D01*
X154909222Y-50191639D01*
X154947461Y-50285811D01*
X154987316Y-50383962D01*
X154993266Y-50398616D01*
X155044019Y-50481438D01*
X155107291Y-50584688D01*
X155109987Y-50589088D01*
X155256250Y-50757938D01*
X155428126Y-50900632D01*
X155443470Y-50909598D01*
X155501445Y-50943476D01*
X155550169Y-50995114D01*
X155563240Y-51064897D01*
X155536509Y-51130669D01*
X155496055Y-51164027D01*
X155483607Y-51170507D01*
X155479474Y-51173610D01*
X155479471Y-51173612D01*
X155315773Y-51296520D01*
X155304965Y-51304635D01*
X155150629Y-51466138D01*
X155024743Y-51650680D01*
X154930688Y-51853305D01*
X154870989Y-52068570D01*
X154847251Y-52290695D01*
X154847548Y-52295848D01*
X154847548Y-52295851D01*
X154853011Y-52390590D01*
X154860110Y-52513715D01*
X154861247Y-52518761D01*
X154861248Y-52518767D01*
X154878836Y-52596809D01*
X154909222Y-52731639D01*
X154993266Y-52938616D01*
X155044019Y-53021438D01*
X155107291Y-53124688D01*
X155109987Y-53129088D01*
X155256250Y-53297938D01*
X155428126Y-53440632D01*
X155443470Y-53449598D01*
X155501445Y-53483476D01*
X155550169Y-53535114D01*
X155563240Y-53604897D01*
X155536509Y-53670669D01*
X155496055Y-53704027D01*
X155483607Y-53710507D01*
X155479474Y-53713610D01*
X155479471Y-53713612D01*
X155309100Y-53841530D01*
X155304965Y-53844635D01*
X155301393Y-53848373D01*
X155173357Y-53982355D01*
X155150629Y-54006138D01*
X155147720Y-54010403D01*
X155147714Y-54010411D01*
X155110346Y-54065190D01*
X155024743Y-54190680D01*
X154930688Y-54393305D01*
X154870989Y-54608570D01*
X154847251Y-54830695D01*
X154847548Y-54835848D01*
X154847548Y-54835851D01*
X154853011Y-54930590D01*
X154860110Y-55053715D01*
X154861247Y-55058761D01*
X154861248Y-55058767D01*
X154881119Y-55146939D01*
X154909222Y-55271639D01*
X154993266Y-55478616D01*
X155044019Y-55561438D01*
X155107291Y-55664688D01*
X155109987Y-55669088D01*
X155256250Y-55837938D01*
X155428126Y-55980632D01*
X155443470Y-55989598D01*
X155501445Y-56023476D01*
X155550169Y-56075114D01*
X155563240Y-56144897D01*
X155536509Y-56210669D01*
X155496055Y-56244027D01*
X155483607Y-56250507D01*
X155479474Y-56253610D01*
X155479471Y-56253612D01*
X155455247Y-56271800D01*
X155304965Y-56384635D01*
X155150629Y-56546138D01*
X155024743Y-56730680D01*
X154930688Y-56933305D01*
X154870989Y-57148570D01*
X154847251Y-57370695D01*
X154847548Y-57375848D01*
X154847548Y-57375851D01*
X154853011Y-57470590D01*
X154860110Y-57593715D01*
X154861247Y-57598761D01*
X154861248Y-57598767D01*
X154881119Y-57686939D01*
X154909222Y-57811639D01*
X154993266Y-58018616D01*
X155044019Y-58101438D01*
X155107291Y-58204688D01*
X155109987Y-58209088D01*
X155256250Y-58377938D01*
X155428126Y-58520632D01*
X155443470Y-58529598D01*
X155501445Y-58563476D01*
X155550169Y-58615114D01*
X155563240Y-58684897D01*
X155536509Y-58750669D01*
X155496055Y-58784027D01*
X155483607Y-58790507D01*
X155479474Y-58793610D01*
X155479471Y-58793612D01*
X155455247Y-58811800D01*
X155304965Y-58924635D01*
X155150629Y-59086138D01*
X155024743Y-59270680D01*
X154930688Y-59473305D01*
X154870989Y-59688570D01*
X154847251Y-59910695D01*
X154847548Y-59915848D01*
X154847548Y-59915851D01*
X154853011Y-60010590D01*
X154860110Y-60133715D01*
X154861247Y-60138761D01*
X154861248Y-60138767D01*
X154881119Y-60226939D01*
X154909222Y-60351639D01*
X154993266Y-60558616D01*
X155044019Y-60641438D01*
X155107291Y-60744688D01*
X155109987Y-60749088D01*
X155256250Y-60917938D01*
X155428126Y-61060632D01*
X155443470Y-61069598D01*
X155501445Y-61103476D01*
X155550169Y-61155114D01*
X155563240Y-61224897D01*
X155536509Y-61290669D01*
X155496055Y-61324027D01*
X155483607Y-61330507D01*
X155479474Y-61333610D01*
X155479471Y-61333612D01*
X155455247Y-61351800D01*
X155304965Y-61464635D01*
X155150629Y-61626138D01*
X155024743Y-61810680D01*
X154930688Y-62013305D01*
X154870989Y-62228570D01*
X154847251Y-62450695D01*
X154847548Y-62455848D01*
X154847548Y-62455851D01*
X154853011Y-62550590D01*
X154860110Y-62673715D01*
X154861247Y-62678761D01*
X154861248Y-62678767D01*
X154881119Y-62766939D01*
X154909222Y-62891639D01*
X154993266Y-63098616D01*
X155044019Y-63181438D01*
X155107291Y-63284688D01*
X155109987Y-63289088D01*
X155256250Y-63457938D01*
X155428126Y-63600632D01*
X155443470Y-63609598D01*
X155501445Y-63643476D01*
X155550169Y-63695114D01*
X155563240Y-63764897D01*
X155536509Y-63830669D01*
X155496055Y-63864027D01*
X155483607Y-63870507D01*
X155479474Y-63873610D01*
X155479471Y-63873612D01*
X155455247Y-63891800D01*
X155304965Y-64004635D01*
X155150629Y-64166138D01*
X155024743Y-64350680D01*
X154930688Y-64553305D01*
X154870989Y-64768570D01*
X154847251Y-64990695D01*
X154847548Y-64995848D01*
X154847548Y-64995851D01*
X154853011Y-65090590D01*
X154860110Y-65213715D01*
X154861247Y-65218761D01*
X154861248Y-65218767D01*
X154881119Y-65306939D01*
X154909222Y-65431639D01*
X154993266Y-65638616D01*
X155044019Y-65721438D01*
X155107291Y-65824688D01*
X155109987Y-65829088D01*
X155256250Y-65997938D01*
X155428126Y-66140632D01*
X155443470Y-66149598D01*
X155501445Y-66183476D01*
X155550169Y-66235114D01*
X155563240Y-66304897D01*
X155536509Y-66370669D01*
X155496055Y-66404027D01*
X155483607Y-66410507D01*
X155479474Y-66413610D01*
X155479471Y-66413612D01*
X155455247Y-66431800D01*
X155304965Y-66544635D01*
X155150629Y-66706138D01*
X155024743Y-66890680D01*
X154930688Y-67093305D01*
X154870989Y-67308570D01*
X154847251Y-67530695D01*
X154847548Y-67535848D01*
X154847548Y-67535851D01*
X154853011Y-67630590D01*
X154860110Y-67753715D01*
X154861247Y-67758761D01*
X154861248Y-67758767D01*
X154881119Y-67846939D01*
X154909222Y-67971639D01*
X154993266Y-68178616D01*
X155044019Y-68261438D01*
X155107291Y-68364688D01*
X155109987Y-68369088D01*
X155256250Y-68537938D01*
X155428126Y-68680632D01*
X155443470Y-68689598D01*
X155501445Y-68723476D01*
X155550169Y-68775114D01*
X155563240Y-68844897D01*
X155536509Y-68910669D01*
X155496055Y-68944027D01*
X155483607Y-68950507D01*
X155479474Y-68953610D01*
X155479471Y-68953612D01*
X155455247Y-68971800D01*
X155304965Y-69084635D01*
X155150629Y-69246138D01*
X155024743Y-69430680D01*
X154930688Y-69633305D01*
X154870989Y-69848570D01*
X154847251Y-70070695D01*
X154847548Y-70075848D01*
X154847548Y-70075851D01*
X154853011Y-70170590D01*
X154860110Y-70293715D01*
X154861247Y-70298761D01*
X154861248Y-70298767D01*
X154881119Y-70386939D01*
X154909222Y-70511639D01*
X154993266Y-70718616D01*
X155044019Y-70801438D01*
X155107291Y-70904688D01*
X155109987Y-70909088D01*
X155256250Y-71077938D01*
X155428126Y-71220632D01*
X155443470Y-71229598D01*
X155501445Y-71263476D01*
X155550169Y-71315114D01*
X155563240Y-71384897D01*
X155536509Y-71450669D01*
X155496055Y-71484027D01*
X155483607Y-71490507D01*
X155479474Y-71493610D01*
X155479471Y-71493612D01*
X155455247Y-71511800D01*
X155304965Y-71624635D01*
X155150629Y-71786138D01*
X155024743Y-71970680D01*
X154930688Y-72173305D01*
X154870989Y-72388570D01*
X154847251Y-72610695D01*
X154847548Y-72615848D01*
X154847548Y-72615851D01*
X154853011Y-72710590D01*
X154860110Y-72833715D01*
X154861247Y-72838761D01*
X154861248Y-72838767D01*
X154881119Y-72926939D01*
X154909222Y-73051639D01*
X154993266Y-73258616D01*
X155044019Y-73341438D01*
X155107291Y-73444688D01*
X155109987Y-73449088D01*
X155256250Y-73617938D01*
X155428126Y-73760632D01*
X155443470Y-73769598D01*
X155501445Y-73803476D01*
X155550169Y-73855114D01*
X155563240Y-73924897D01*
X155536509Y-73990669D01*
X155496055Y-74024027D01*
X155483607Y-74030507D01*
X155479474Y-74033610D01*
X155479471Y-74033612D01*
X155455247Y-74051800D01*
X155304965Y-74164635D01*
X155150629Y-74326138D01*
X155024743Y-74510680D01*
X154930688Y-74713305D01*
X154870989Y-74928570D01*
X154847251Y-75150695D01*
X154847548Y-75155848D01*
X154847548Y-75155851D01*
X154853011Y-75250590D01*
X154860110Y-75373715D01*
X154861247Y-75378761D01*
X154861248Y-75378767D01*
X154881119Y-75466939D01*
X154909222Y-75591639D01*
X154993266Y-75798616D01*
X155044019Y-75881438D01*
X155107291Y-75984688D01*
X155109987Y-75989088D01*
X155256250Y-76157938D01*
X155428126Y-76300632D01*
X155443470Y-76309598D01*
X155501445Y-76343476D01*
X155550169Y-76395114D01*
X155563240Y-76464897D01*
X155536509Y-76530669D01*
X155496055Y-76564027D01*
X155483607Y-76570507D01*
X155479474Y-76573610D01*
X155479471Y-76573612D01*
X155455247Y-76591800D01*
X155304965Y-76704635D01*
X155150629Y-76866138D01*
X155024743Y-77050680D01*
X154930688Y-77253305D01*
X154870989Y-77468570D01*
X154847251Y-77690695D01*
X154847548Y-77695848D01*
X154847548Y-77695851D01*
X154853011Y-77790590D01*
X154860110Y-77913715D01*
X154861247Y-77918761D01*
X154861248Y-77918767D01*
X154881119Y-78006939D01*
X154909222Y-78131639D01*
X154993266Y-78338616D01*
X155044019Y-78421438D01*
X155107291Y-78524688D01*
X155109987Y-78529088D01*
X155256250Y-78697938D01*
X155428126Y-78840632D01*
X155443470Y-78849598D01*
X155501445Y-78883476D01*
X155550169Y-78935114D01*
X155563240Y-79004897D01*
X155536509Y-79070669D01*
X155496055Y-79104027D01*
X155483607Y-79110507D01*
X155479474Y-79113610D01*
X155479471Y-79113612D01*
X155455247Y-79131800D01*
X155304965Y-79244635D01*
X155150629Y-79406138D01*
X155024743Y-79590680D01*
X154930688Y-79793305D01*
X154870989Y-80008570D01*
X154847251Y-80230695D01*
X154847548Y-80235848D01*
X154847548Y-80235851D01*
X154853011Y-80330590D01*
X154860110Y-80453715D01*
X154861247Y-80458761D01*
X154861248Y-80458767D01*
X154881119Y-80546939D01*
X154909222Y-80671639D01*
X154993266Y-80878616D01*
X155044019Y-80961438D01*
X155107291Y-81064688D01*
X155109987Y-81069088D01*
X155256250Y-81237938D01*
X155428126Y-81380632D01*
X155443470Y-81389598D01*
X155501445Y-81423476D01*
X155550169Y-81475114D01*
X155563240Y-81544897D01*
X155536509Y-81610669D01*
X155496055Y-81644027D01*
X155483607Y-81650507D01*
X155479474Y-81653610D01*
X155479471Y-81653612D01*
X155455247Y-81671800D01*
X155304965Y-81784635D01*
X155150629Y-81946138D01*
X155024743Y-82130680D01*
X154930688Y-82333305D01*
X154870989Y-82548570D01*
X154847251Y-82770695D01*
X154847548Y-82775848D01*
X154847548Y-82775851D01*
X154853011Y-82870590D01*
X154860110Y-82993715D01*
X154861247Y-82998761D01*
X154861248Y-82998767D01*
X154881119Y-83086939D01*
X154909222Y-83211639D01*
X154993266Y-83418616D01*
X155044019Y-83501438D01*
X155107291Y-83604688D01*
X155109987Y-83609088D01*
X155256250Y-83777938D01*
X155428126Y-83920632D01*
X155443470Y-83929598D01*
X155501445Y-83963476D01*
X155550169Y-84015114D01*
X155563240Y-84084897D01*
X155536509Y-84150669D01*
X155496055Y-84184027D01*
X155483607Y-84190507D01*
X155479474Y-84193610D01*
X155479471Y-84193612D01*
X155455247Y-84211800D01*
X155304965Y-84324635D01*
X155150629Y-84486138D01*
X155024743Y-84670680D01*
X154930688Y-84873305D01*
X154870989Y-85088570D01*
X154847251Y-85310695D01*
X154847548Y-85315848D01*
X154847548Y-85315851D01*
X154853011Y-85410590D01*
X154860110Y-85533715D01*
X154861247Y-85538761D01*
X154861248Y-85538767D01*
X154881119Y-85626939D01*
X154909222Y-85751639D01*
X154993266Y-85958616D01*
X155044019Y-86041438D01*
X155107291Y-86144688D01*
X155109987Y-86149088D01*
X155256250Y-86317938D01*
X155428126Y-86460632D01*
X155443470Y-86469598D01*
X155501445Y-86503476D01*
X155550169Y-86555114D01*
X155563240Y-86624897D01*
X155536509Y-86690669D01*
X155496055Y-86724027D01*
X155483607Y-86730507D01*
X155479474Y-86733610D01*
X155479471Y-86733612D01*
X155455247Y-86751800D01*
X155304965Y-86864635D01*
X155150629Y-87026138D01*
X155024743Y-87210680D01*
X154930688Y-87413305D01*
X154870989Y-87628570D01*
X154847251Y-87850695D01*
X154847548Y-87855848D01*
X154847548Y-87855851D01*
X154853011Y-87950590D01*
X154860110Y-88073715D01*
X154861247Y-88078761D01*
X154861248Y-88078767D01*
X154881119Y-88166939D01*
X154909222Y-88291639D01*
X154993266Y-88498616D01*
X155044019Y-88581438D01*
X155107291Y-88684688D01*
X155109987Y-88689088D01*
X155256250Y-88857938D01*
X155428126Y-89000632D01*
X155443470Y-89009598D01*
X155501445Y-89043476D01*
X155550169Y-89095114D01*
X155563240Y-89164897D01*
X155536509Y-89230669D01*
X155496055Y-89264027D01*
X155483607Y-89270507D01*
X155479474Y-89273610D01*
X155479471Y-89273612D01*
X155455247Y-89291800D01*
X155304965Y-89404635D01*
X155150629Y-89566138D01*
X155024743Y-89750680D01*
X154930688Y-89953305D01*
X154870989Y-90168570D01*
X154847251Y-90390695D01*
X154847548Y-90395848D01*
X154847548Y-90395851D01*
X154853011Y-90490590D01*
X154860110Y-90613715D01*
X154861247Y-90618761D01*
X154861248Y-90618767D01*
X154881119Y-90706939D01*
X154909222Y-90831639D01*
X154993266Y-91038616D01*
X155044019Y-91121438D01*
X155107291Y-91224688D01*
X155109987Y-91229088D01*
X155256250Y-91397938D01*
X155428126Y-91540632D01*
X155443470Y-91549598D01*
X155501445Y-91583476D01*
X155550169Y-91635114D01*
X155563240Y-91704897D01*
X155536509Y-91770669D01*
X155496055Y-91804027D01*
X155483607Y-91810507D01*
X155479474Y-91813610D01*
X155479471Y-91813612D01*
X155455247Y-91831800D01*
X155304965Y-91944635D01*
X155150629Y-92106138D01*
X155024743Y-92290680D01*
X154930688Y-92493305D01*
X154870989Y-92708570D01*
X154847251Y-92930695D01*
X154847548Y-92935848D01*
X154847548Y-92935851D01*
X154853011Y-93030590D01*
X154860110Y-93153715D01*
X154861247Y-93158761D01*
X154861248Y-93158767D01*
X154881119Y-93246939D01*
X154909222Y-93371639D01*
X154993266Y-93578616D01*
X155044019Y-93661438D01*
X155107291Y-93764688D01*
X155109987Y-93769088D01*
X155256250Y-93937938D01*
X155428126Y-94080632D01*
X155443470Y-94089598D01*
X155501445Y-94123476D01*
X155550169Y-94175114D01*
X155563240Y-94244897D01*
X155536509Y-94310669D01*
X155496055Y-94344027D01*
X155483607Y-94350507D01*
X155479474Y-94353610D01*
X155479471Y-94353612D01*
X155455247Y-94371800D01*
X155304965Y-94484635D01*
X155150629Y-94646138D01*
X155024743Y-94830680D01*
X154930688Y-95033305D01*
X154870989Y-95248570D01*
X154847251Y-95470695D01*
X154847548Y-95475848D01*
X154847548Y-95475851D01*
X154853011Y-95570590D01*
X154860110Y-95693715D01*
X154861247Y-95698761D01*
X154861248Y-95698767D01*
X154881119Y-95786939D01*
X154909222Y-95911639D01*
X154993266Y-96118616D01*
X155044019Y-96201438D01*
X155107291Y-96304688D01*
X155109987Y-96309088D01*
X155256250Y-96477938D01*
X155428126Y-96620632D01*
X155443470Y-96629598D01*
X155501445Y-96663476D01*
X155550169Y-96715114D01*
X155563240Y-96784897D01*
X155536509Y-96850669D01*
X155496055Y-96884027D01*
X155483607Y-96890507D01*
X155479474Y-96893610D01*
X155479471Y-96893612D01*
X155455247Y-96911800D01*
X155304965Y-97024635D01*
X155150629Y-97186138D01*
X155024743Y-97370680D01*
X154930688Y-97573305D01*
X154870989Y-97788570D01*
X154847251Y-98010695D01*
X154847548Y-98015848D01*
X154847548Y-98015851D01*
X154853011Y-98110590D01*
X154860110Y-98233715D01*
X154861247Y-98238761D01*
X154861248Y-98238767D01*
X154881119Y-98326939D01*
X154909222Y-98451639D01*
X154993266Y-98658616D01*
X155044019Y-98741438D01*
X155107291Y-98844688D01*
X155109987Y-98849088D01*
X155256250Y-99017938D01*
X155428126Y-99160632D01*
X155443470Y-99169598D01*
X155501445Y-99203476D01*
X155550169Y-99255114D01*
X155563240Y-99324897D01*
X155536509Y-99390669D01*
X155496055Y-99424027D01*
X155483607Y-99430507D01*
X155479474Y-99433610D01*
X155479471Y-99433612D01*
X155455247Y-99451800D01*
X155304965Y-99564635D01*
X155150629Y-99726138D01*
X155024743Y-99910680D01*
X154930688Y-100113305D01*
X154870989Y-100328570D01*
X154847251Y-100550695D01*
X154847548Y-100555848D01*
X154847548Y-100555851D01*
X154853011Y-100650590D01*
X154860110Y-100773715D01*
X154861247Y-100778761D01*
X154861248Y-100778767D01*
X154881119Y-100866939D01*
X154909222Y-100991639D01*
X154993266Y-101198616D01*
X155044019Y-101281438D01*
X155107291Y-101384688D01*
X155109987Y-101389088D01*
X155256250Y-101557938D01*
X155428126Y-101700632D01*
X155443470Y-101709598D01*
X155501445Y-101743476D01*
X155550169Y-101795114D01*
X155563240Y-101864897D01*
X155536509Y-101930669D01*
X155496055Y-101964027D01*
X155483607Y-101970507D01*
X155479474Y-101973610D01*
X155479471Y-101973612D01*
X155455247Y-101991800D01*
X155304965Y-102104635D01*
X155150629Y-102266138D01*
X155024743Y-102450680D01*
X154930688Y-102653305D01*
X154870989Y-102868570D01*
X154847251Y-103090695D01*
X154847548Y-103095848D01*
X154847548Y-103095851D01*
X154853011Y-103190590D01*
X154860110Y-103313715D01*
X154861247Y-103318761D01*
X154861248Y-103318767D01*
X154881119Y-103406939D01*
X154909222Y-103531639D01*
X154993266Y-103738616D01*
X155044019Y-103821438D01*
X155107291Y-103924688D01*
X155109987Y-103929088D01*
X155256250Y-104097938D01*
X155428126Y-104240632D01*
X155443470Y-104249598D01*
X155501445Y-104283476D01*
X155550169Y-104335114D01*
X155563240Y-104404897D01*
X155536509Y-104470669D01*
X155496055Y-104504027D01*
X155483607Y-104510507D01*
X155479474Y-104513610D01*
X155479471Y-104513612D01*
X155455247Y-104531800D01*
X155304965Y-104644635D01*
X155150629Y-104806138D01*
X155024743Y-104990680D01*
X154930688Y-105193305D01*
X154870989Y-105408570D01*
X154847251Y-105630695D01*
X154847548Y-105635848D01*
X154847548Y-105635851D01*
X154853011Y-105730590D01*
X154860110Y-105853715D01*
X154861247Y-105858761D01*
X154861248Y-105858767D01*
X154881119Y-105946939D01*
X154909222Y-106071639D01*
X154993266Y-106278616D01*
X155044019Y-106361438D01*
X155107291Y-106464688D01*
X155109987Y-106469088D01*
X155256250Y-106637938D01*
X155428126Y-106780632D01*
X155443470Y-106789598D01*
X155501445Y-106823476D01*
X155550169Y-106875114D01*
X155563240Y-106944897D01*
X155536509Y-107010669D01*
X155496055Y-107044027D01*
X155483607Y-107050507D01*
X155479474Y-107053610D01*
X155479471Y-107053612D01*
X155455247Y-107071800D01*
X155304965Y-107184635D01*
X155150629Y-107346138D01*
X155024743Y-107530680D01*
X154930688Y-107733305D01*
X154870989Y-107948570D01*
X154847251Y-108170695D01*
X154847548Y-108175848D01*
X154847548Y-108175851D01*
X154853011Y-108270590D01*
X154860110Y-108393715D01*
X154861247Y-108398761D01*
X154861248Y-108398767D01*
X154881119Y-108486939D01*
X154909222Y-108611639D01*
X154993266Y-108818616D01*
X155044019Y-108901438D01*
X155107291Y-109004688D01*
X155109987Y-109009088D01*
X155256250Y-109177938D01*
X155428126Y-109320632D01*
X155443470Y-109329598D01*
X155501445Y-109363476D01*
X155550169Y-109415114D01*
X155563240Y-109484897D01*
X155536509Y-109550669D01*
X155496055Y-109584027D01*
X155483607Y-109590507D01*
X155479474Y-109593610D01*
X155479471Y-109593612D01*
X155455247Y-109611800D01*
X155304965Y-109724635D01*
X155150629Y-109886138D01*
X155024743Y-110070680D01*
X154930688Y-110273305D01*
X154870989Y-110488570D01*
X154847251Y-110710695D01*
X154847548Y-110715848D01*
X154847548Y-110715851D01*
X154853011Y-110810590D01*
X154860110Y-110933715D01*
X154861247Y-110938761D01*
X154861248Y-110938767D01*
X154881119Y-111026939D01*
X154909222Y-111151639D01*
X154993266Y-111358616D01*
X155044019Y-111441438D01*
X155107291Y-111544688D01*
X155109987Y-111549088D01*
X155256250Y-111717938D01*
X155428126Y-111860632D01*
X155443470Y-111869598D01*
X155501445Y-111903476D01*
X155550169Y-111955114D01*
X155563240Y-112024897D01*
X155536509Y-112090669D01*
X155496055Y-112124027D01*
X155483607Y-112130507D01*
X155479474Y-112133610D01*
X155479471Y-112133612D01*
X155455247Y-112151800D01*
X155304965Y-112264635D01*
X155150629Y-112426138D01*
X155024743Y-112610680D01*
X154930688Y-112813305D01*
X154870989Y-113028570D01*
X154847251Y-113250695D01*
X154847548Y-113255848D01*
X154847548Y-113255851D01*
X154853011Y-113350590D01*
X154860110Y-113473715D01*
X154861247Y-113478761D01*
X154861248Y-113478767D01*
X154881119Y-113566939D01*
X154909222Y-113691639D01*
X154993266Y-113898616D01*
X155044019Y-113981438D01*
X155107291Y-114084688D01*
X155109987Y-114089088D01*
X155256250Y-114257938D01*
X155428126Y-114400632D01*
X155443470Y-114409598D01*
X155501445Y-114443476D01*
X155550169Y-114495114D01*
X155563240Y-114564897D01*
X155536509Y-114630669D01*
X155496055Y-114664027D01*
X155483607Y-114670507D01*
X155479474Y-114673610D01*
X155479471Y-114673612D01*
X155455247Y-114691800D01*
X155304965Y-114804635D01*
X155301393Y-114808373D01*
X155183200Y-114932055D01*
X155150629Y-114966138D01*
X155147720Y-114970403D01*
X155147714Y-114970411D01*
X155062556Y-115095249D01*
X155024743Y-115150680D01*
X154930688Y-115353305D01*
X154870989Y-115568570D01*
X154847251Y-115790695D01*
X154847548Y-115795848D01*
X154847548Y-115795851D01*
X154853011Y-115890590D01*
X154860110Y-116013715D01*
X154861247Y-116018761D01*
X154861248Y-116018767D01*
X154873418Y-116072768D01*
X154909222Y-116231639D01*
X154945932Y-116322046D01*
X154985095Y-116418492D01*
X154993266Y-116438616D01*
X155031006Y-116500202D01*
X155107291Y-116624688D01*
X155109987Y-116629088D01*
X155256250Y-116797938D01*
X155428126Y-116940632D01*
X155443470Y-116949598D01*
X155501955Y-116983774D01*
X155550679Y-117035412D01*
X155563750Y-117105195D01*
X155537019Y-117170967D01*
X155496562Y-117204327D01*
X155488457Y-117208546D01*
X155479738Y-117214036D01*
X155309433Y-117341905D01*
X155301726Y-117348748D01*
X155154590Y-117502717D01*
X155148104Y-117510727D01*
X155028098Y-117686649D01*
X155023000Y-117695623D01*
X154933338Y-117888783D01*
X154929775Y-117898470D01*
X154874389Y-118098183D01*
X154875912Y-118106607D01*
X154888292Y-118110000D01*
X158878000Y-118110000D01*
X158946121Y-118130002D01*
X158992614Y-118183658D01*
X159004000Y-118236000D01*
X159004000Y-118492000D01*
X158983998Y-118560121D01*
X158930342Y-118606614D01*
X158878000Y-118618000D01*
X154893225Y-118618000D01*
X154879694Y-118621973D01*
X154878257Y-118631966D01*
X154908565Y-118766446D01*
X154911645Y-118776275D01*
X154991770Y-118973603D01*
X154996413Y-118982794D01*
X155107694Y-119164388D01*
X155113777Y-119172699D01*
X155253213Y-119333667D01*
X155260580Y-119340883D01*
X155424434Y-119476916D01*
X155432881Y-119482831D01*
X155501969Y-119523203D01*
X155550693Y-119574842D01*
X155563764Y-119644625D01*
X155537033Y-119710396D01*
X155496584Y-119743752D01*
X155483607Y-119750507D01*
X155479474Y-119753610D01*
X155479471Y-119753612D01*
X155309100Y-119881530D01*
X155304965Y-119884635D01*
X155150629Y-120046138D01*
X155024743Y-120230680D01*
X154999455Y-120285159D01*
X154933166Y-120427967D01*
X154930688Y-120433305D01*
X154870989Y-120648570D01*
X154847251Y-120870695D01*
X154847548Y-120875848D01*
X154847548Y-120875851D01*
X154855967Y-121021862D01*
X154860110Y-121093715D01*
X154861247Y-121098761D01*
X154861248Y-121098767D01*
X154865385Y-121117123D01*
X154909222Y-121311639D01*
X154993266Y-121518616D01*
X155044019Y-121601438D01*
X155107291Y-121704688D01*
X155109987Y-121709088D01*
X155256250Y-121877938D01*
X155361683Y-121965470D01*
X155411167Y-122006552D01*
X155428126Y-122020632D01*
X155621000Y-122133338D01*
X155829692Y-122213030D01*
X155834760Y-122214061D01*
X155834763Y-122214062D01*
X155942017Y-122235883D01*
X156048597Y-122257567D01*
X156053772Y-122257757D01*
X156053774Y-122257757D01*
X156266673Y-122265564D01*
X156266677Y-122265564D01*
X156271837Y-122265753D01*
X156276957Y-122265097D01*
X156276959Y-122265097D01*
X156488288Y-122238025D01*
X156488289Y-122238025D01*
X156493416Y-122237368D01*
X156498366Y-122235883D01*
X156702429Y-122174661D01*
X156702434Y-122174659D01*
X156707384Y-122173174D01*
X156907994Y-122074896D01*
X157089860Y-121945173D01*
X157107753Y-121927343D01*
X157190665Y-121844720D01*
X157248096Y-121787489D01*
X157306440Y-121706295D01*
X157378453Y-121606077D01*
X157379776Y-121607028D01*
X157426645Y-121563857D01*
X157496580Y-121551625D01*
X157562026Y-121579144D01*
X157589875Y-121610994D01*
X157593855Y-121617489D01*
X157649987Y-121709088D01*
X157796250Y-121877938D01*
X157901683Y-121965470D01*
X157951167Y-122006552D01*
X157968126Y-122020632D01*
X158161000Y-122133338D01*
X158369692Y-122213030D01*
X158374760Y-122214061D01*
X158374763Y-122214062D01*
X158482017Y-122235883D01*
X158588597Y-122257567D01*
X158593772Y-122257757D01*
X158593774Y-122257757D01*
X158806673Y-122265564D01*
X158806677Y-122265564D01*
X158811837Y-122265753D01*
X158816957Y-122265097D01*
X158816959Y-122265097D01*
X159028288Y-122238025D01*
X159028289Y-122238025D01*
X159033416Y-122237368D01*
X159038366Y-122235883D01*
X159242429Y-122174661D01*
X159242434Y-122174659D01*
X159247384Y-122173174D01*
X159330070Y-122132666D01*
X159400041Y-122120660D01*
X159465398Y-122148390D01*
X159505388Y-122207052D01*
X159511500Y-122245818D01*
X159511500Y-125730500D01*
X159491498Y-125798621D01*
X159437842Y-125845114D01*
X159385500Y-125856500D01*
X113366193Y-125856500D01*
X113298072Y-125836498D01*
X113251579Y-125782842D01*
X113241475Y-125712568D01*
X113249325Y-125683407D01*
X113316686Y-125516263D01*
X113357228Y-125308663D01*
X113357500Y-125303101D01*
X113357500Y-124547154D01*
X113342452Y-124389434D01*
X113282908Y-124186466D01*
X113186058Y-123998420D01*
X113055396Y-123832080D01*
X113050865Y-123828148D01*
X113050862Y-123828145D01*
X112900167Y-123697379D01*
X112895637Y-123693448D01*
X112890451Y-123690448D01*
X112890447Y-123690445D01*
X112717742Y-123590533D01*
X112712546Y-123587527D01*
X112512729Y-123518139D01*
X112506794Y-123517278D01*
X112506792Y-123517278D01*
X112309336Y-123488648D01*
X112309333Y-123488648D01*
X112303396Y-123487787D01*
X112092101Y-123497567D01*
X111960923Y-123529181D01*
X111892299Y-123545719D01*
X111892297Y-123545720D01*
X111886466Y-123547125D01*
X111881008Y-123549607D01*
X111881004Y-123549608D01*
X111765959Y-123601916D01*
X111693913Y-123634674D01*
X111521389Y-123757054D01*
X111375119Y-123909850D01*
X111260380Y-124087548D01*
X111181314Y-124283737D01*
X111140772Y-124491337D01*
X111140500Y-124496899D01*
X111140500Y-125252846D01*
X111155548Y-125410566D01*
X111215092Y-125613534D01*
X111217836Y-125618861D01*
X111217836Y-125618862D01*
X111245620Y-125672808D01*
X111259029Y-125742527D01*
X111232616Y-125808427D01*
X111174767Y-125849587D01*
X111133604Y-125856500D01*
X104706193Y-125856500D01*
X104638072Y-125836498D01*
X104591579Y-125782842D01*
X104581475Y-125712568D01*
X104589325Y-125683407D01*
X104656686Y-125516263D01*
X104697228Y-125308663D01*
X104697500Y-125303101D01*
X104697500Y-124547154D01*
X104682452Y-124389434D01*
X104622908Y-124186466D01*
X104526058Y-123998420D01*
X104395396Y-123832080D01*
X104390865Y-123828148D01*
X104390862Y-123828145D01*
X104240167Y-123697379D01*
X104235637Y-123693448D01*
X104230451Y-123690448D01*
X104230447Y-123690445D01*
X104057742Y-123590533D01*
X104052546Y-123587527D01*
X103852729Y-123518139D01*
X103846794Y-123517278D01*
X103846792Y-123517278D01*
X103649336Y-123488648D01*
X103649333Y-123488648D01*
X103643396Y-123487787D01*
X103432101Y-123497567D01*
X103300923Y-123529181D01*
X103232299Y-123545719D01*
X103232297Y-123545720D01*
X103226466Y-123547125D01*
X103221008Y-123549607D01*
X103221004Y-123549608D01*
X103105959Y-123601916D01*
X103033913Y-123634674D01*
X102861389Y-123757054D01*
X102715119Y-123909850D01*
X102600380Y-124087548D01*
X102521314Y-124283737D01*
X102480772Y-124491337D01*
X102480500Y-124496899D01*
X102480500Y-125252846D01*
X102495548Y-125410566D01*
X102555092Y-125613534D01*
X102557836Y-125618861D01*
X102557836Y-125618862D01*
X102585620Y-125672808D01*
X102599029Y-125742527D01*
X102572616Y-125808427D01*
X102514767Y-125849587D01*
X102473604Y-125856500D01*
X94614500Y-125856500D01*
X94546379Y-125836498D01*
X94499886Y-125782842D01*
X94488500Y-125730500D01*
X94488500Y-122250305D01*
X94508502Y-122182184D01*
X94562158Y-122135691D01*
X94632432Y-122125587D01*
X94660684Y-122134165D01*
X94661000Y-122133338D01*
X94869692Y-122213030D01*
X94874760Y-122214061D01*
X94874763Y-122214062D01*
X94982017Y-122235883D01*
X95088597Y-122257567D01*
X95093772Y-122257757D01*
X95093774Y-122257757D01*
X95306673Y-122265564D01*
X95306677Y-122265564D01*
X95311837Y-122265753D01*
X95316957Y-122265097D01*
X95316959Y-122265097D01*
X95528288Y-122238025D01*
X95528289Y-122238025D01*
X95533416Y-122237368D01*
X95538366Y-122235883D01*
X95742429Y-122174661D01*
X95742434Y-122174659D01*
X95747384Y-122173174D01*
X95947994Y-122074896D01*
X96129860Y-121945173D01*
X96147753Y-121927343D01*
X96230665Y-121844720D01*
X96288096Y-121787489D01*
X96346440Y-121706295D01*
X96418453Y-121606077D01*
X96419776Y-121607028D01*
X96466645Y-121563857D01*
X96536580Y-121551625D01*
X96602026Y-121579144D01*
X96629875Y-121610994D01*
X96633855Y-121617489D01*
X96689987Y-121709088D01*
X96836250Y-121877938D01*
X96941683Y-121965470D01*
X96991167Y-122006552D01*
X97008126Y-122020632D01*
X97201000Y-122133338D01*
X97409692Y-122213030D01*
X97414760Y-122214061D01*
X97414763Y-122214062D01*
X97522017Y-122235883D01*
X97628597Y-122257567D01*
X97633772Y-122257757D01*
X97633774Y-122257757D01*
X97846673Y-122265564D01*
X97846677Y-122265564D01*
X97851837Y-122265753D01*
X97856957Y-122265097D01*
X97856959Y-122265097D01*
X98068288Y-122238025D01*
X98068289Y-122238025D01*
X98073416Y-122237368D01*
X98078366Y-122235883D01*
X98282429Y-122174661D01*
X98282434Y-122174659D01*
X98287384Y-122173174D01*
X98487994Y-122074896D01*
X98669860Y-121945173D01*
X98687753Y-121927343D01*
X98770665Y-121844720D01*
X98828096Y-121787489D01*
X98886440Y-121706295D01*
X98955435Y-121610277D01*
X98958453Y-121606077D01*
X98977740Y-121567054D01*
X99055136Y-121410453D01*
X99055137Y-121410451D01*
X99057430Y-121405811D01*
X99115974Y-121213121D01*
X99120865Y-121197023D01*
X99120865Y-121197021D01*
X99122370Y-121192069D01*
X99127534Y-121152846D01*
X102480500Y-121152846D01*
X102495548Y-121310566D01*
X102555092Y-121513534D01*
X102557836Y-121518861D01*
X102557836Y-121518862D01*
X102603245Y-121607028D01*
X102651942Y-121701580D01*
X102782604Y-121867920D01*
X102787135Y-121871852D01*
X102787138Y-121871855D01*
X102871630Y-121945173D01*
X102942363Y-122006552D01*
X102947549Y-122009552D01*
X102947553Y-122009555D01*
X103043957Y-122065326D01*
X103125454Y-122112473D01*
X103325271Y-122181861D01*
X103331206Y-122182722D01*
X103331208Y-122182722D01*
X103528664Y-122211352D01*
X103528667Y-122211352D01*
X103534604Y-122212213D01*
X103745899Y-122202433D01*
X103877077Y-122170819D01*
X103945701Y-122154281D01*
X103945703Y-122154280D01*
X103951534Y-122152875D01*
X103956992Y-122150393D01*
X103956996Y-122150392D01*
X104072041Y-122098084D01*
X104144087Y-122065326D01*
X104316611Y-121942946D01*
X104331548Y-121927342D01*
X104393102Y-121891968D01*
X104464012Y-121895487D01*
X104496625Y-121912539D01*
X104532516Y-121938615D01*
X104574816Y-121969348D01*
X104580844Y-121972032D01*
X104580846Y-121972033D01*
X104738448Y-122042202D01*
X104744479Y-122044887D01*
X104835309Y-122064193D01*
X104919683Y-122082128D01*
X104919687Y-122082128D01*
X104926140Y-122083500D01*
X105111860Y-122083500D01*
X105118313Y-122082128D01*
X105118317Y-122082128D01*
X105202691Y-122064193D01*
X105293521Y-122044887D01*
X105299552Y-122042202D01*
X105457154Y-121972033D01*
X105457156Y-121972032D01*
X105463184Y-121969348D01*
X105496458Y-121945173D01*
X105608090Y-121864068D01*
X105608092Y-121864066D01*
X105613434Y-121860185D01*
X105737704Y-121722169D01*
X105830564Y-121561331D01*
X105887954Y-121384702D01*
X105907367Y-121200000D01*
X109930633Y-121200000D01*
X109950046Y-121384702D01*
X110007436Y-121561331D01*
X110100296Y-121722169D01*
X110224566Y-121860185D01*
X110229908Y-121864066D01*
X110229910Y-121864068D01*
X110341542Y-121945173D01*
X110374816Y-121969348D01*
X110380844Y-121972032D01*
X110380846Y-121972033D01*
X110538448Y-122042202D01*
X110544479Y-122044887D01*
X110635309Y-122064193D01*
X110719683Y-122082128D01*
X110719687Y-122082128D01*
X110726140Y-122083500D01*
X110911860Y-122083500D01*
X110918313Y-122082128D01*
X110918317Y-122082128D01*
X111002691Y-122064193D01*
X111093521Y-122044887D01*
X111099552Y-122042202D01*
X111257154Y-121972033D01*
X111257156Y-121972032D01*
X111263184Y-121969348D01*
X111343451Y-121911031D01*
X111410315Y-121887174D01*
X111479467Y-121903254D01*
X111500089Y-121917803D01*
X111602363Y-122006552D01*
X111607549Y-122009552D01*
X111607553Y-122009555D01*
X111703957Y-122065326D01*
X111785454Y-122112473D01*
X111985271Y-122181861D01*
X111991206Y-122182722D01*
X111991208Y-122182722D01*
X112188664Y-122211352D01*
X112188667Y-122211352D01*
X112194604Y-122212213D01*
X112405899Y-122202433D01*
X112537077Y-122170819D01*
X112605701Y-122154281D01*
X112605703Y-122154280D01*
X112611534Y-122152875D01*
X112616992Y-122150393D01*
X112616996Y-122150392D01*
X112732041Y-122098084D01*
X112804087Y-122065326D01*
X112976611Y-121942946D01*
X113122881Y-121790150D01*
X113237620Y-121612452D01*
X113316686Y-121416263D01*
X113357228Y-121208663D01*
X113357500Y-121203101D01*
X113357500Y-120247154D01*
X113342452Y-120089434D01*
X113329358Y-120044800D01*
X117280188Y-120044800D01*
X117298999Y-120259813D01*
X117300423Y-120265126D01*
X117300423Y-120265128D01*
X117352627Y-120459954D01*
X117354861Y-120468293D01*
X117357183Y-120473274D01*
X117357184Y-120473275D01*
X117443751Y-120658919D01*
X117443754Y-120658924D01*
X117446077Y-120663906D01*
X117461913Y-120686522D01*
X117564441Y-120832946D01*
X117569875Y-120840707D01*
X117722493Y-120993325D01*
X117727001Y-120996482D01*
X117727004Y-120996484D01*
X117763248Y-121021862D01*
X117899294Y-121117123D01*
X117904276Y-121119446D01*
X117904281Y-121119449D01*
X118083674Y-121203101D01*
X118094907Y-121208339D01*
X118100215Y-121209761D01*
X118100217Y-121209762D01*
X118298072Y-121262777D01*
X118298074Y-121262777D01*
X118303387Y-121264201D01*
X118518400Y-121283012D01*
X118733413Y-121264201D01*
X118738726Y-121262777D01*
X118738728Y-121262777D01*
X118936583Y-121209762D01*
X118936585Y-121209761D01*
X118941893Y-121208339D01*
X118953126Y-121203101D01*
X119132519Y-121119449D01*
X119132524Y-121119446D01*
X119137506Y-121117123D01*
X119273552Y-121021862D01*
X119309796Y-120996484D01*
X119309799Y-120996482D01*
X119314307Y-120993325D01*
X119466925Y-120840707D01*
X119472360Y-120832946D01*
X119574887Y-120686522D01*
X119590723Y-120663906D01*
X119593046Y-120658924D01*
X119593049Y-120658919D01*
X119679616Y-120473275D01*
X119679617Y-120473274D01*
X119681939Y-120468293D01*
X119684174Y-120459954D01*
X119736377Y-120265128D01*
X119736377Y-120265126D01*
X119737801Y-120259813D01*
X119756612Y-120044800D01*
X119737801Y-119829787D01*
X119726483Y-119787548D01*
X119683362Y-119626617D01*
X119683361Y-119626615D01*
X119681939Y-119621307D01*
X119679616Y-119616325D01*
X119593049Y-119430681D01*
X119593046Y-119430676D01*
X119590723Y-119425694D01*
X119466925Y-119248893D01*
X119314307Y-119096275D01*
X119271966Y-119066627D01*
X119152240Y-118982794D01*
X119137506Y-118972477D01*
X119132524Y-118970154D01*
X119132519Y-118970151D01*
X118946875Y-118883584D01*
X118946874Y-118883583D01*
X118941893Y-118881261D01*
X118936585Y-118879839D01*
X118936583Y-118879838D01*
X118738728Y-118826823D01*
X118738726Y-118826823D01*
X118733413Y-118825399D01*
X118518400Y-118806588D01*
X118303387Y-118825399D01*
X118298074Y-118826823D01*
X118298072Y-118826823D01*
X118100217Y-118879838D01*
X118100215Y-118879839D01*
X118094907Y-118881261D01*
X118089926Y-118883583D01*
X118089925Y-118883584D01*
X117904281Y-118970151D01*
X117904276Y-118970154D01*
X117899294Y-118972477D01*
X117884560Y-118982794D01*
X117764835Y-119066627D01*
X117722493Y-119096275D01*
X117569875Y-119248893D01*
X117446077Y-119425694D01*
X117443754Y-119430676D01*
X117443751Y-119430681D01*
X117357184Y-119616325D01*
X117354861Y-119621307D01*
X117353439Y-119626615D01*
X117353438Y-119626617D01*
X117310317Y-119787548D01*
X117298999Y-119829787D01*
X117280188Y-120044800D01*
X113329358Y-120044800D01*
X113282908Y-119886466D01*
X113256539Y-119835267D01*
X113188804Y-119703751D01*
X113188802Y-119703748D01*
X113186058Y-119698420D01*
X113055396Y-119532080D01*
X113050865Y-119528148D01*
X113050862Y-119528145D01*
X112900167Y-119397379D01*
X112895637Y-119393448D01*
X112890451Y-119390448D01*
X112890447Y-119390445D01*
X112717742Y-119290533D01*
X112712546Y-119287527D01*
X112512729Y-119218139D01*
X112506794Y-119217278D01*
X112506792Y-119217278D01*
X112309336Y-119188648D01*
X112309333Y-119188648D01*
X112303396Y-119187787D01*
X112092101Y-119197567D01*
X111960923Y-119229181D01*
X111892299Y-119245719D01*
X111892297Y-119245720D01*
X111886466Y-119247125D01*
X111881008Y-119249607D01*
X111881004Y-119249608D01*
X111765959Y-119301916D01*
X111693913Y-119334674D01*
X111521389Y-119457054D01*
X111375119Y-119609850D01*
X111260380Y-119787548D01*
X111258137Y-119793114D01*
X111219747Y-119888373D01*
X111181314Y-119983737D01*
X111140772Y-120191337D01*
X111140500Y-120196899D01*
X111140500Y-120209501D01*
X111120498Y-120277622D01*
X111066842Y-120324115D01*
X110996568Y-120334219D01*
X110988304Y-120332748D01*
X110918319Y-120317873D01*
X110918320Y-120317873D01*
X110911860Y-120316500D01*
X110726140Y-120316500D01*
X110719687Y-120317872D01*
X110719683Y-120317872D01*
X110642778Y-120334219D01*
X110544479Y-120355113D01*
X110538450Y-120357797D01*
X110538448Y-120357798D01*
X110380847Y-120427967D01*
X110380845Y-120427968D01*
X110374817Y-120430652D01*
X110369476Y-120434532D01*
X110369475Y-120434533D01*
X110229910Y-120535932D01*
X110229908Y-120535934D01*
X110224566Y-120539815D01*
X110100296Y-120677831D01*
X110007436Y-120838669D01*
X109950046Y-121015298D01*
X109930633Y-121200000D01*
X105907367Y-121200000D01*
X105887954Y-121015298D01*
X105830564Y-120838669D01*
X105737704Y-120677831D01*
X105613434Y-120539815D01*
X105516957Y-120469720D01*
X105468526Y-120434533D01*
X105468525Y-120434532D01*
X105463184Y-120430652D01*
X105457156Y-120427968D01*
X105457154Y-120427967D01*
X105299552Y-120357798D01*
X105299551Y-120357798D01*
X105293521Y-120355113D01*
X105195222Y-120334219D01*
X105118317Y-120317872D01*
X105118313Y-120317872D01*
X105111860Y-120316500D01*
X104926140Y-120316500D01*
X104919687Y-120317872D01*
X104919683Y-120317872D01*
X104872910Y-120327814D01*
X104846735Y-120333378D01*
X104775945Y-120327976D01*
X104719313Y-120285159D01*
X104695109Y-120222098D01*
X104693908Y-120209501D01*
X104682452Y-120089434D01*
X104622908Y-119886466D01*
X104596539Y-119835267D01*
X104528804Y-119703751D01*
X104528802Y-119703748D01*
X104526058Y-119698420D01*
X104395396Y-119532080D01*
X104390865Y-119528148D01*
X104390862Y-119528145D01*
X104240167Y-119397379D01*
X104235637Y-119393448D01*
X104230451Y-119390448D01*
X104230447Y-119390445D01*
X104057742Y-119290533D01*
X104052546Y-119287527D01*
X103852729Y-119218139D01*
X103846794Y-119217278D01*
X103846792Y-119217278D01*
X103649336Y-119188648D01*
X103649333Y-119188648D01*
X103643396Y-119187787D01*
X103432101Y-119197567D01*
X103300923Y-119229181D01*
X103232299Y-119245719D01*
X103232297Y-119245720D01*
X103226466Y-119247125D01*
X103221008Y-119249607D01*
X103221004Y-119249608D01*
X103105959Y-119301916D01*
X103033913Y-119334674D01*
X102861389Y-119457054D01*
X102715119Y-119609850D01*
X102600380Y-119787548D01*
X102598137Y-119793114D01*
X102559747Y-119888373D01*
X102521314Y-119983737D01*
X102480772Y-120191337D01*
X102480500Y-120196899D01*
X102480500Y-121152846D01*
X99127534Y-121152846D01*
X99151529Y-120970590D01*
X99153156Y-120904000D01*
X99134852Y-120681361D01*
X99080431Y-120464702D01*
X98991354Y-120259840D01*
X98884980Y-120095411D01*
X98872822Y-120076617D01*
X98872820Y-120076614D01*
X98870014Y-120072277D01*
X98719670Y-119907051D01*
X98715619Y-119903852D01*
X98715615Y-119903848D01*
X98548414Y-119771800D01*
X98548410Y-119771798D01*
X98544359Y-119768598D01*
X98502569Y-119745529D01*
X98452598Y-119695097D01*
X98437826Y-119625654D01*
X98462942Y-119559248D01*
X98490294Y-119532641D01*
X98665328Y-119407792D01*
X98673200Y-119401139D01*
X98824052Y-119250812D01*
X98830730Y-119242965D01*
X98955003Y-119070020D01*
X98960313Y-119061183D01*
X99054670Y-118870267D01*
X99058469Y-118860672D01*
X99120377Y-118656910D01*
X99122555Y-118646837D01*
X99123986Y-118635962D01*
X99121775Y-118621778D01*
X99108617Y-118618000D01*
X95122000Y-118618000D01*
X95053879Y-118597998D01*
X95007386Y-118544342D01*
X94996000Y-118492000D01*
X94996000Y-118236000D01*
X95016002Y-118167879D01*
X95069658Y-118121386D01*
X95122000Y-118110000D01*
X99108344Y-118110000D01*
X99121875Y-118106027D01*
X99123180Y-118096947D01*
X99081214Y-117929875D01*
X99077894Y-117920124D01*
X98992972Y-117724814D01*
X98988105Y-117715739D01*
X98872426Y-117536926D01*
X98866136Y-117528757D01*
X98722806Y-117371240D01*
X98715273Y-117364215D01*
X98548139Y-117232222D01*
X98539556Y-117226520D01*
X98502602Y-117206120D01*
X98452631Y-117155687D01*
X98437859Y-117086245D01*
X98462975Y-117019839D01*
X98490327Y-116993232D01*
X98551500Y-116949598D01*
X98669860Y-116865173D01*
X98828096Y-116707489D01*
X98838939Y-116692400D01*
X98955435Y-116530277D01*
X98958453Y-116526077D01*
X98971242Y-116500202D01*
X99667837Y-116500202D01*
X99668353Y-116506345D01*
X99681359Y-116661220D01*
X99683977Y-116692400D01*
X99685676Y-116698325D01*
X99733519Y-116865173D01*
X99737140Y-116877802D01*
X99739955Y-116883279D01*
X99739956Y-116883282D01*
X99818140Y-117035412D01*
X99825302Y-117049348D01*
X99829125Y-117054172D01*
X99829128Y-117054176D01*
X99860038Y-117093174D01*
X99945106Y-117200502D01*
X100091987Y-117325508D01*
X100260351Y-117419604D01*
X100443786Y-117479205D01*
X100635303Y-117502042D01*
X100641438Y-117501570D01*
X100641440Y-117501570D01*
X100821467Y-117487718D01*
X100821471Y-117487717D01*
X100827609Y-117487245D01*
X101013379Y-117435377D01*
X101154257Y-117364215D01*
X101180035Y-117351194D01*
X101180037Y-117351193D01*
X101185536Y-117348415D01*
X101337523Y-117229669D01*
X101341549Y-117225005D01*
X101341552Y-117225002D01*
X101459522Y-117088332D01*
X101459523Y-117088330D01*
X101463551Y-117083664D01*
X101511185Y-116999813D01*
X101555775Y-116921322D01*
X101555777Y-116921318D01*
X101558820Y-116915961D01*
X101602502Y-116784646D01*
X101617755Y-116738795D01*
X101617756Y-116738792D01*
X101619700Y-116732947D01*
X101625598Y-116686258D01*
X101643432Y-116545097D01*
X101643433Y-116545087D01*
X101643874Y-116541594D01*
X101644259Y-116514000D01*
X101625438Y-116322046D01*
X101622177Y-116311244D01*
X145648938Y-116311244D01*
X145649235Y-116316396D01*
X145649235Y-116316400D01*
X145650806Y-116343646D01*
X145662744Y-116550680D01*
X145663879Y-116555717D01*
X145663880Y-116555723D01*
X145696017Y-116698325D01*
X145715470Y-116784646D01*
X145722208Y-116801240D01*
X145800169Y-116993232D01*
X145805702Y-117006859D01*
X145931014Y-117211351D01*
X145934398Y-117215257D01*
X145934399Y-117215259D01*
X145949093Y-117232222D01*
X146088043Y-117392630D01*
X146272571Y-117545828D01*
X146479643Y-117666831D01*
X146703697Y-117752389D01*
X146708763Y-117753420D01*
X146708764Y-117753420D01*
X146765039Y-117764869D01*
X146938716Y-117800204D01*
X147074264Y-117805174D01*
X147173225Y-117808803D01*
X147173229Y-117808803D01*
X147178389Y-117808992D01*
X147183509Y-117808336D01*
X147183511Y-117808336D01*
X147411151Y-117779175D01*
X147411152Y-117779175D01*
X147416279Y-117778518D01*
X147499935Y-117753420D01*
X147641042Y-117711086D01*
X147641047Y-117711084D01*
X147645997Y-117709599D01*
X147861374Y-117604087D01*
X147865579Y-117601087D01*
X147865585Y-117601084D01*
X148005458Y-117501313D01*
X148056627Y-117464815D01*
X148226511Y-117295523D01*
X148291920Y-117204497D01*
X148363445Y-117104958D01*
X148366463Y-117100758D01*
X148370212Y-117093174D01*
X148470433Y-116890392D01*
X148470434Y-116890390D01*
X148472727Y-116885750D01*
X148542447Y-116656274D01*
X148573752Y-116418492D01*
X148575499Y-116347000D01*
X148566408Y-116236425D01*
X148556271Y-116113124D01*
X148556270Y-116113118D01*
X148555847Y-116107973D01*
X148502078Y-115893908D01*
X148498679Y-115880375D01*
X148498678Y-115880371D01*
X148497420Y-115875364D01*
X148495364Y-115870634D01*
X148495361Y-115870627D01*
X148403847Y-115660159D01*
X148403845Y-115660156D01*
X148401787Y-115655422D01*
X148384574Y-115628814D01*
X148274325Y-115458396D01*
X148274323Y-115458393D01*
X148271515Y-115454053D01*
X148242580Y-115422253D01*
X148113582Y-115280487D01*
X148113580Y-115280486D01*
X148110104Y-115276665D01*
X148106053Y-115273466D01*
X148106049Y-115273462D01*
X147925946Y-115131226D01*
X147921888Y-115128021D01*
X147711922Y-115012113D01*
X147571540Y-114962401D01*
X147490720Y-114933781D01*
X147490716Y-114933780D01*
X147485845Y-114932055D01*
X147480752Y-114931148D01*
X147480749Y-114931147D01*
X147254816Y-114890902D01*
X147254810Y-114890901D01*
X147249727Y-114889996D01*
X147162460Y-114888930D01*
X147015081Y-114887129D01*
X147015079Y-114887129D01*
X147009911Y-114887066D01*
X146772837Y-114923343D01*
X146544871Y-114997854D01*
X146332136Y-115108597D01*
X146328003Y-115111700D01*
X146328000Y-115111702D01*
X146237249Y-115179840D01*
X146140345Y-115252598D01*
X145974648Y-115425990D01*
X145839495Y-115624117D01*
X145810278Y-115687060D01*
X145748269Y-115820646D01*
X145738516Y-115841656D01*
X145674424Y-116072768D01*
X145648938Y-116311244D01*
X101622177Y-116311244D01*
X101569691Y-116137404D01*
X101506611Y-116018767D01*
X101482036Y-115972548D01*
X101482034Y-115972545D01*
X101479142Y-115967106D01*
X101475252Y-115962336D01*
X101475249Y-115962332D01*
X101361135Y-115822414D01*
X101361132Y-115822411D01*
X101357240Y-115817639D01*
X101352491Y-115813710D01*
X101213377Y-115698625D01*
X101213374Y-115698623D01*
X101208627Y-115694696D01*
X101038966Y-115602960D01*
X100927869Y-115568570D01*
X100860604Y-115547748D01*
X100860601Y-115547747D01*
X100854717Y-115545926D01*
X100848592Y-115545282D01*
X100848591Y-115545282D01*
X100669027Y-115526409D01*
X100669026Y-115526409D01*
X100662899Y-115525765D01*
X100583188Y-115533019D01*
X100476958Y-115542687D01*
X100476955Y-115542688D01*
X100470819Y-115543246D01*
X100464913Y-115544984D01*
X100464909Y-115544985D01*
X100326795Y-115585634D01*
X100285792Y-115597702D01*
X100114866Y-115687060D01*
X99964551Y-115807916D01*
X99960593Y-115812633D01*
X99960591Y-115812635D01*
X99951055Y-115824000D01*
X99840574Y-115955666D01*
X99837610Y-115961058D01*
X99837607Y-115961062D01*
X99773375Y-116077900D01*
X99747656Y-116124683D01*
X99689337Y-116308529D01*
X99688651Y-116314646D01*
X99688650Y-116314650D01*
X99684644Y-116350365D01*
X99667837Y-116500202D01*
X98971242Y-116500202D01*
X98974269Y-116494077D01*
X99055136Y-116330453D01*
X99055137Y-116330451D01*
X99057430Y-116325811D01*
X99122370Y-116112069D01*
X99151529Y-115890590D01*
X99153156Y-115824000D01*
X99134852Y-115601361D01*
X99080431Y-115384702D01*
X98991354Y-115179840D01*
X98884466Y-115014616D01*
X98872822Y-114996617D01*
X98872820Y-114996614D01*
X98870014Y-114992277D01*
X98719670Y-114827051D01*
X98715619Y-114823852D01*
X98715615Y-114823848D01*
X98548414Y-114691800D01*
X98548410Y-114691798D01*
X98544359Y-114688598D01*
X98503053Y-114665796D01*
X98453084Y-114615364D01*
X98438312Y-114545921D01*
X98463428Y-114479516D01*
X98490780Y-114452909D01*
X98551500Y-114409598D01*
X98669860Y-114325173D01*
X98828096Y-114167489D01*
X98887594Y-114084689D01*
X98955435Y-113990277D01*
X98958453Y-113986077D01*
X98979320Y-113943857D01*
X99055136Y-113790453D01*
X99055137Y-113790451D01*
X99057430Y-113785811D01*
X99122370Y-113572069D01*
X99151529Y-113350590D01*
X99153156Y-113284000D01*
X99134852Y-113061361D01*
X99080431Y-112844702D01*
X98991354Y-112639840D01*
X98870014Y-112452277D01*
X98719670Y-112287051D01*
X98715619Y-112283852D01*
X98715615Y-112283848D01*
X98548414Y-112151800D01*
X98548410Y-112151798D01*
X98544359Y-112148598D01*
X98503053Y-112125796D01*
X98453084Y-112075364D01*
X98438312Y-112005921D01*
X98463428Y-111939516D01*
X98490780Y-111912909D01*
X98551500Y-111869598D01*
X98669860Y-111785173D01*
X98828096Y-111627489D01*
X98887594Y-111544689D01*
X98955435Y-111450277D01*
X98958453Y-111446077D01*
X98979320Y-111403857D01*
X99055136Y-111250453D01*
X99055137Y-111250451D01*
X99057430Y-111245811D01*
X99122370Y-111032069D01*
X99151529Y-110810590D01*
X99153156Y-110744000D01*
X99134852Y-110521361D01*
X99080431Y-110304702D01*
X98991354Y-110099840D01*
X98870014Y-109912277D01*
X98719670Y-109747051D01*
X98715619Y-109743852D01*
X98715615Y-109743848D01*
X98548414Y-109611800D01*
X98548410Y-109611798D01*
X98544359Y-109608598D01*
X98503053Y-109585796D01*
X98453084Y-109535364D01*
X98438312Y-109465921D01*
X98463428Y-109399516D01*
X98490780Y-109372909D01*
X98551500Y-109329598D01*
X98669860Y-109245173D01*
X98828096Y-109087489D01*
X98887594Y-109004689D01*
X98955435Y-108910277D01*
X98958453Y-108906077D01*
X98979320Y-108863857D01*
X99055136Y-108710453D01*
X99055137Y-108710451D01*
X99057430Y-108705811D01*
X99122370Y-108492069D01*
X99151529Y-108270590D01*
X99153156Y-108204000D01*
X99134852Y-107981361D01*
X99080431Y-107764702D01*
X98991354Y-107559840D01*
X98870014Y-107372277D01*
X98719670Y-107207051D01*
X98715619Y-107203852D01*
X98715615Y-107203848D01*
X98548414Y-107071800D01*
X98548410Y-107071798D01*
X98544359Y-107068598D01*
X98503053Y-107045796D01*
X98453084Y-106995364D01*
X98438312Y-106925921D01*
X98463428Y-106859516D01*
X98490780Y-106832909D01*
X98551500Y-106789598D01*
X98669860Y-106705173D01*
X98828096Y-106547489D01*
X98887594Y-106464689D01*
X98955435Y-106370277D01*
X98958453Y-106366077D01*
X98979320Y-106323857D01*
X99055136Y-106170453D01*
X99055137Y-106170451D01*
X99057430Y-106165811D01*
X99122370Y-105952069D01*
X99151529Y-105730590D01*
X99153156Y-105664000D01*
X99134852Y-105441361D01*
X99080431Y-105224702D01*
X98991354Y-105019840D01*
X98870014Y-104832277D01*
X98719670Y-104667051D01*
X98715619Y-104663852D01*
X98715615Y-104663848D01*
X98548414Y-104531800D01*
X98548410Y-104531798D01*
X98544359Y-104528598D01*
X98503053Y-104505796D01*
X98453084Y-104455364D01*
X98438312Y-104385921D01*
X98463428Y-104319516D01*
X98490780Y-104292909D01*
X98551500Y-104249598D01*
X98669860Y-104165173D01*
X98828096Y-104007489D01*
X98887594Y-103924689D01*
X98955435Y-103830277D01*
X98958453Y-103826077D01*
X98979320Y-103783857D01*
X99055136Y-103630453D01*
X99055137Y-103630451D01*
X99057430Y-103625811D01*
X99122370Y-103412069D01*
X99151529Y-103190590D01*
X99153156Y-103124000D01*
X99134852Y-102901361D01*
X99080431Y-102684702D01*
X98991354Y-102479840D01*
X98870014Y-102292277D01*
X98719670Y-102127051D01*
X98715619Y-102123852D01*
X98715615Y-102123848D01*
X98548414Y-101991800D01*
X98548410Y-101991798D01*
X98544359Y-101988598D01*
X98503053Y-101965796D01*
X98453084Y-101915364D01*
X98438312Y-101845921D01*
X98463428Y-101779516D01*
X98490780Y-101752909D01*
X98551500Y-101709598D01*
X98669860Y-101625173D01*
X98828096Y-101467489D01*
X98887594Y-101384689D01*
X98955435Y-101290277D01*
X98958453Y-101286077D01*
X98979320Y-101243857D01*
X99055136Y-101090453D01*
X99055137Y-101090451D01*
X99057430Y-101085811D01*
X99122370Y-100872069D01*
X99151529Y-100650590D01*
X99153156Y-100584000D01*
X99134852Y-100361361D01*
X99080431Y-100144702D01*
X98991354Y-99939840D01*
X98870014Y-99752277D01*
X98719670Y-99587051D01*
X98715619Y-99583852D01*
X98715615Y-99583848D01*
X98548414Y-99451800D01*
X98548410Y-99451798D01*
X98544359Y-99448598D01*
X98503053Y-99425796D01*
X98453084Y-99375364D01*
X98438312Y-99305921D01*
X98463428Y-99239516D01*
X98490780Y-99212909D01*
X98551500Y-99169598D01*
X98669860Y-99085173D01*
X98828096Y-98927489D01*
X98887594Y-98844689D01*
X98955435Y-98750277D01*
X98958453Y-98746077D01*
X98979320Y-98703857D01*
X99055136Y-98550453D01*
X99055137Y-98550451D01*
X99057430Y-98545811D01*
X99122370Y-98332069D01*
X99151529Y-98110590D01*
X99153156Y-98044000D01*
X99134852Y-97821361D01*
X99080431Y-97604702D01*
X98991354Y-97399840D01*
X98870014Y-97212277D01*
X98719670Y-97047051D01*
X98715619Y-97043852D01*
X98715615Y-97043848D01*
X98548414Y-96911800D01*
X98548410Y-96911798D01*
X98544359Y-96908598D01*
X98503053Y-96885796D01*
X98453084Y-96835364D01*
X98438312Y-96765921D01*
X98463428Y-96699516D01*
X98490780Y-96672909D01*
X98551500Y-96629598D01*
X98669860Y-96545173D01*
X98828096Y-96387489D01*
X98887594Y-96304689D01*
X98955435Y-96210277D01*
X98958453Y-96206077D01*
X98979320Y-96163857D01*
X99055136Y-96010453D01*
X99055137Y-96010451D01*
X99057430Y-96005811D01*
X99122370Y-95792069D01*
X99151529Y-95570590D01*
X99153156Y-95504000D01*
X99134852Y-95281361D01*
X99080431Y-95064702D01*
X98991354Y-94859840D01*
X98870014Y-94672277D01*
X98719670Y-94507051D01*
X98715619Y-94503852D01*
X98715615Y-94503848D01*
X98548414Y-94371800D01*
X98548410Y-94371798D01*
X98544359Y-94368598D01*
X98503053Y-94345796D01*
X98453084Y-94295364D01*
X98438312Y-94225921D01*
X98463428Y-94159516D01*
X98490780Y-94132909D01*
X98551500Y-94089598D01*
X98669860Y-94005173D01*
X98828096Y-93847489D01*
X98887594Y-93764689D01*
X98955435Y-93670277D01*
X98958453Y-93666077D01*
X98979320Y-93623857D01*
X99055136Y-93470453D01*
X99055137Y-93470451D01*
X99057430Y-93465811D01*
X99122370Y-93252069D01*
X99151529Y-93030590D01*
X99153156Y-92964000D01*
X99134852Y-92741361D01*
X99080431Y-92524702D01*
X98991354Y-92319840D01*
X98870014Y-92132277D01*
X98719670Y-91967051D01*
X98715619Y-91963852D01*
X98715615Y-91963848D01*
X98548414Y-91831800D01*
X98548410Y-91831798D01*
X98544359Y-91828598D01*
X98503053Y-91805796D01*
X98453084Y-91755364D01*
X98438312Y-91685921D01*
X98463428Y-91619516D01*
X98490780Y-91592909D01*
X98551500Y-91549598D01*
X98669860Y-91465173D01*
X98828096Y-91307489D01*
X98887594Y-91224689D01*
X98955435Y-91130277D01*
X98958453Y-91126077D01*
X98979320Y-91083857D01*
X99055136Y-90930453D01*
X99055137Y-90930451D01*
X99057430Y-90925811D01*
X99122370Y-90712069D01*
X99151529Y-90490590D01*
X99153156Y-90424000D01*
X99134852Y-90201361D01*
X99080431Y-89984702D01*
X98991354Y-89779840D01*
X98870014Y-89592277D01*
X98719670Y-89427051D01*
X98715619Y-89423852D01*
X98715615Y-89423848D01*
X98548414Y-89291800D01*
X98548410Y-89291798D01*
X98544359Y-89288598D01*
X98503053Y-89265796D01*
X98453084Y-89215364D01*
X98438312Y-89145921D01*
X98463428Y-89079516D01*
X98490780Y-89052909D01*
X98551500Y-89009598D01*
X98669860Y-88925173D01*
X98828096Y-88767489D01*
X98887594Y-88684689D01*
X98955435Y-88590277D01*
X98958453Y-88586077D01*
X98979320Y-88543857D01*
X99055136Y-88390453D01*
X99055137Y-88390451D01*
X99057430Y-88385811D01*
X99122370Y-88172069D01*
X99151529Y-87950590D01*
X99153156Y-87884000D01*
X99134852Y-87661361D01*
X99080431Y-87444702D01*
X98991354Y-87239840D01*
X98870014Y-87052277D01*
X98719670Y-86887051D01*
X98715619Y-86883852D01*
X98715615Y-86883848D01*
X98548414Y-86751800D01*
X98548410Y-86751798D01*
X98544359Y-86748598D01*
X98503053Y-86725796D01*
X98453084Y-86675364D01*
X98438312Y-86605921D01*
X98463428Y-86539516D01*
X98490780Y-86512909D01*
X98551500Y-86469598D01*
X98669860Y-86385173D01*
X98828096Y-86227489D01*
X98887594Y-86144689D01*
X98955435Y-86050277D01*
X98958453Y-86046077D01*
X98979320Y-86003857D01*
X99055136Y-85850453D01*
X99055137Y-85850451D01*
X99057430Y-85845811D01*
X99122370Y-85632069D01*
X99151529Y-85410590D01*
X99153156Y-85344000D01*
X99134852Y-85121361D01*
X99080431Y-84904702D01*
X98991354Y-84699840D01*
X98870014Y-84512277D01*
X98719670Y-84347051D01*
X98715619Y-84343852D01*
X98715615Y-84343848D01*
X98548414Y-84211800D01*
X98548410Y-84211798D01*
X98544359Y-84208598D01*
X98503053Y-84185796D01*
X98453084Y-84135364D01*
X98438312Y-84065921D01*
X98463428Y-83999516D01*
X98490780Y-83972909D01*
X98551500Y-83929598D01*
X98669860Y-83845173D01*
X98828096Y-83687489D01*
X98887594Y-83604689D01*
X98955435Y-83510277D01*
X98958453Y-83506077D01*
X98979320Y-83463857D01*
X99055136Y-83310453D01*
X99055137Y-83310451D01*
X99057430Y-83305811D01*
X99122370Y-83092069D01*
X99151529Y-82870590D01*
X99153156Y-82804000D01*
X99134852Y-82581361D01*
X99080431Y-82364702D01*
X98991354Y-82159840D01*
X98870014Y-81972277D01*
X98719670Y-81807051D01*
X98715619Y-81803852D01*
X98715615Y-81803848D01*
X98548414Y-81671800D01*
X98548410Y-81671798D01*
X98544359Y-81668598D01*
X98503053Y-81645796D01*
X98453084Y-81595364D01*
X98438312Y-81525921D01*
X98463428Y-81459516D01*
X98490780Y-81432909D01*
X98551500Y-81389598D01*
X98669860Y-81305173D01*
X98828096Y-81147489D01*
X98887594Y-81064689D01*
X98955435Y-80970277D01*
X98958453Y-80966077D01*
X98979320Y-80923857D01*
X99055136Y-80770453D01*
X99055137Y-80770451D01*
X99057430Y-80765811D01*
X99122370Y-80552069D01*
X99151529Y-80330590D01*
X99153156Y-80264000D01*
X99134852Y-80041361D01*
X99080431Y-79824702D01*
X98991354Y-79619840D01*
X98870014Y-79432277D01*
X98719670Y-79267051D01*
X98715619Y-79263852D01*
X98715615Y-79263848D01*
X98548414Y-79131800D01*
X98548410Y-79131798D01*
X98544359Y-79128598D01*
X98503053Y-79105796D01*
X98453084Y-79055364D01*
X98438312Y-78985921D01*
X98463428Y-78919516D01*
X98490780Y-78892909D01*
X98551500Y-78849598D01*
X98669860Y-78765173D01*
X98828096Y-78607489D01*
X98887594Y-78524689D01*
X98955435Y-78430277D01*
X98958453Y-78426077D01*
X98979320Y-78383857D01*
X99055136Y-78230453D01*
X99055137Y-78230451D01*
X99057430Y-78225811D01*
X99122370Y-78012069D01*
X99151529Y-77790590D01*
X99153156Y-77724000D01*
X99134852Y-77501361D01*
X99080431Y-77284702D01*
X98991354Y-77079840D01*
X98870014Y-76892277D01*
X98719670Y-76727051D01*
X98715619Y-76723852D01*
X98715615Y-76723848D01*
X98548414Y-76591800D01*
X98548410Y-76591798D01*
X98544359Y-76588598D01*
X98503053Y-76565796D01*
X98453084Y-76515364D01*
X98438312Y-76445921D01*
X98463428Y-76379516D01*
X98490780Y-76352909D01*
X98551500Y-76309598D01*
X98669860Y-76225173D01*
X98828096Y-76067489D01*
X98887594Y-75984689D01*
X98955435Y-75890277D01*
X98958453Y-75886077D01*
X98979320Y-75843857D01*
X99055136Y-75690453D01*
X99055137Y-75690451D01*
X99057430Y-75685811D01*
X99122370Y-75472069D01*
X99151529Y-75250590D01*
X99153156Y-75184000D01*
X99134852Y-74961361D01*
X99080431Y-74744702D01*
X98991354Y-74539840D01*
X98870014Y-74352277D01*
X98719670Y-74187051D01*
X98715619Y-74183852D01*
X98715615Y-74183848D01*
X98548414Y-74051800D01*
X98548410Y-74051798D01*
X98544359Y-74048598D01*
X98503053Y-74025796D01*
X98453084Y-73975364D01*
X98438312Y-73905921D01*
X98463428Y-73839516D01*
X98490780Y-73812909D01*
X98551500Y-73769598D01*
X98669860Y-73685173D01*
X98828096Y-73527489D01*
X98887594Y-73444689D01*
X98955435Y-73350277D01*
X98958453Y-73346077D01*
X98979320Y-73303857D01*
X99055136Y-73150453D01*
X99055137Y-73150451D01*
X99057430Y-73145811D01*
X99122370Y-72932069D01*
X99151529Y-72710590D01*
X99153156Y-72644000D01*
X99134852Y-72421361D01*
X99080431Y-72204702D01*
X98991354Y-71999840D01*
X98870014Y-71812277D01*
X98719670Y-71647051D01*
X98715619Y-71643852D01*
X98715615Y-71643848D01*
X98548414Y-71511800D01*
X98548410Y-71511798D01*
X98544359Y-71508598D01*
X98503053Y-71485796D01*
X98453084Y-71435364D01*
X98438312Y-71365921D01*
X98463428Y-71299516D01*
X98490780Y-71272909D01*
X98551500Y-71229598D01*
X98669860Y-71145173D01*
X98828096Y-70987489D01*
X98887594Y-70904689D01*
X98955435Y-70810277D01*
X98958453Y-70806077D01*
X98979320Y-70763857D01*
X99055136Y-70610453D01*
X99055137Y-70610451D01*
X99057430Y-70605811D01*
X99122370Y-70392069D01*
X99151529Y-70170590D01*
X99153156Y-70104000D01*
X99134852Y-69881361D01*
X99080431Y-69664702D01*
X98991354Y-69459840D01*
X98870014Y-69272277D01*
X98719670Y-69107051D01*
X98715619Y-69103852D01*
X98715615Y-69103848D01*
X98548414Y-68971800D01*
X98548410Y-68971798D01*
X98544359Y-68968598D01*
X98503053Y-68945796D01*
X98453084Y-68895364D01*
X98438312Y-68825921D01*
X98463428Y-68759516D01*
X98490780Y-68732909D01*
X98551500Y-68689598D01*
X98669860Y-68605173D01*
X98828096Y-68447489D01*
X98887594Y-68364689D01*
X98955435Y-68270277D01*
X98958453Y-68266077D01*
X98979320Y-68223857D01*
X99055136Y-68070453D01*
X99055137Y-68070451D01*
X99057430Y-68065811D01*
X99122370Y-67852069D01*
X99151529Y-67630590D01*
X99153156Y-67564000D01*
X99134852Y-67341361D01*
X99080431Y-67124702D01*
X98991354Y-66919840D01*
X98870014Y-66732277D01*
X98719670Y-66567051D01*
X98715619Y-66563852D01*
X98715615Y-66563848D01*
X98548414Y-66431800D01*
X98548410Y-66431798D01*
X98544359Y-66428598D01*
X98503053Y-66405796D01*
X98453084Y-66355364D01*
X98438312Y-66285921D01*
X98463428Y-66219516D01*
X98490780Y-66192909D01*
X98551500Y-66149598D01*
X98669860Y-66065173D01*
X98828096Y-65907489D01*
X98887594Y-65824689D01*
X98955435Y-65730277D01*
X98958453Y-65726077D01*
X98979320Y-65683857D01*
X99055136Y-65530453D01*
X99055137Y-65530451D01*
X99057430Y-65525811D01*
X99122370Y-65312069D01*
X99151529Y-65090590D01*
X99153156Y-65024000D01*
X99134852Y-64801361D01*
X99080431Y-64584702D01*
X98991354Y-64379840D01*
X98870014Y-64192277D01*
X98719670Y-64027051D01*
X98715619Y-64023852D01*
X98715615Y-64023848D01*
X98548414Y-63891800D01*
X98548410Y-63891798D01*
X98544359Y-63888598D01*
X98503053Y-63865796D01*
X98453084Y-63815364D01*
X98438312Y-63745921D01*
X98463428Y-63679516D01*
X98490780Y-63652909D01*
X98551500Y-63609598D01*
X98669860Y-63525173D01*
X98828096Y-63367489D01*
X98887594Y-63284689D01*
X98955435Y-63190277D01*
X98958453Y-63186077D01*
X98979320Y-63143857D01*
X99055136Y-62990453D01*
X99055137Y-62990451D01*
X99057430Y-62985811D01*
X99122370Y-62772069D01*
X99151529Y-62550590D01*
X99153156Y-62484000D01*
X99134852Y-62261361D01*
X99080431Y-62044702D01*
X98991354Y-61839840D01*
X98870014Y-61652277D01*
X98719670Y-61487051D01*
X98715619Y-61483852D01*
X98715615Y-61483848D01*
X98548414Y-61351800D01*
X98548410Y-61351798D01*
X98544359Y-61348598D01*
X98503053Y-61325796D01*
X98453084Y-61275364D01*
X98438312Y-61205921D01*
X98463428Y-61139516D01*
X98490780Y-61112909D01*
X98551500Y-61069598D01*
X98669860Y-60985173D01*
X98828096Y-60827489D01*
X98887594Y-60744689D01*
X98955435Y-60650277D01*
X98958453Y-60646077D01*
X98979320Y-60603857D01*
X99055136Y-60450453D01*
X99055137Y-60450451D01*
X99057430Y-60445811D01*
X99122370Y-60232069D01*
X99151529Y-60010590D01*
X99153156Y-59944000D01*
X99134852Y-59721361D01*
X99080431Y-59504702D01*
X98991354Y-59299840D01*
X98870014Y-59112277D01*
X98719670Y-58947051D01*
X98715619Y-58943852D01*
X98715615Y-58943848D01*
X98548414Y-58811800D01*
X98548410Y-58811798D01*
X98544359Y-58808598D01*
X98503053Y-58785796D01*
X98453084Y-58735364D01*
X98438312Y-58665921D01*
X98463428Y-58599516D01*
X98490780Y-58572909D01*
X98551500Y-58529598D01*
X98669860Y-58445173D01*
X98828096Y-58287489D01*
X98887594Y-58204689D01*
X98955435Y-58110277D01*
X98958453Y-58106077D01*
X98979320Y-58063857D01*
X99055136Y-57910453D01*
X99055137Y-57910451D01*
X99057430Y-57905811D01*
X99122370Y-57692069D01*
X99151529Y-57470590D01*
X99153156Y-57404000D01*
X99134852Y-57181361D01*
X99080431Y-56964702D01*
X98991354Y-56759840D01*
X98870014Y-56572277D01*
X98719670Y-56407051D01*
X98715619Y-56403852D01*
X98715615Y-56403848D01*
X98548414Y-56271800D01*
X98548410Y-56271798D01*
X98544359Y-56268598D01*
X98503053Y-56245796D01*
X98453084Y-56195364D01*
X98438312Y-56125921D01*
X98463428Y-56059516D01*
X98490780Y-56032909D01*
X98551500Y-55989598D01*
X98669860Y-55905173D01*
X98828096Y-55747489D01*
X98887594Y-55664689D01*
X98955435Y-55570277D01*
X98958453Y-55566077D01*
X98979320Y-55523857D01*
X99055136Y-55370453D01*
X99055137Y-55370451D01*
X99057430Y-55365811D01*
X99122370Y-55152069D01*
X99151529Y-54930590D01*
X99153156Y-54864000D01*
X99134852Y-54641361D01*
X99080431Y-54424702D01*
X98991354Y-54219840D01*
X98916776Y-54104560D01*
X98872822Y-54036617D01*
X98872820Y-54036614D01*
X98870014Y-54032277D01*
X98719670Y-53867051D01*
X98715619Y-53863852D01*
X98715615Y-53863848D01*
X98548414Y-53731800D01*
X98548410Y-53731798D01*
X98544359Y-53728598D01*
X98503053Y-53705796D01*
X98453084Y-53655364D01*
X98438312Y-53585921D01*
X98463428Y-53519516D01*
X98490780Y-53492909D01*
X98551500Y-53449598D01*
X98648381Y-53380494D01*
X119149931Y-53380494D01*
X119165989Y-53544268D01*
X119217932Y-53700415D01*
X119226404Y-53714403D01*
X119291174Y-53821350D01*
X119303179Y-53841173D01*
X119417491Y-53959547D01*
X119555189Y-54049654D01*
X119709428Y-54107015D01*
X119716409Y-54107946D01*
X119716411Y-54107947D01*
X119865561Y-54127848D01*
X119865565Y-54127848D01*
X119872542Y-54128779D01*
X119879553Y-54128141D01*
X119879557Y-54128141D01*
X120029403Y-54114504D01*
X120029404Y-54114504D01*
X120036424Y-54113865D01*
X120085599Y-54097887D01*
X120186230Y-54065190D01*
X120186233Y-54065189D01*
X120192929Y-54063013D01*
X120334279Y-53978751D01*
X120453449Y-53865268D01*
X120457350Y-53859397D01*
X120540614Y-53734075D01*
X120540615Y-53734073D01*
X120544515Y-53728203D01*
X120602951Y-53574368D01*
X120620486Y-53449598D01*
X120625302Y-53415334D01*
X120625303Y-53415327D01*
X120625853Y-53411410D01*
X120626141Y-53390800D01*
X120607798Y-53227266D01*
X120601998Y-53210609D01*
X120566599Y-53108958D01*
X120553680Y-53071860D01*
X120525072Y-53026077D01*
X120470209Y-52938279D01*
X120466476Y-52932305D01*
X120408499Y-52873922D01*
X120355486Y-52820537D01*
X120355482Y-52820534D01*
X120350522Y-52815539D01*
X120211580Y-52727363D01*
X120162447Y-52709868D01*
X120063189Y-52674523D01*
X120063187Y-52674522D01*
X120056555Y-52672161D01*
X120049569Y-52671328D01*
X120049565Y-52671327D01*
X119935071Y-52657675D01*
X119893153Y-52652677D01*
X119886150Y-52653413D01*
X119886149Y-52653413D01*
X119842935Y-52657955D01*
X119729495Y-52669878D01*
X119722827Y-52672148D01*
X119580382Y-52720640D01*
X119580379Y-52720641D01*
X119573715Y-52722910D01*
X119551747Y-52736425D01*
X119445914Y-52801534D01*
X119433555Y-52809137D01*
X119315982Y-52924273D01*
X119226838Y-53062597D01*
X119224427Y-53069220D01*
X119224426Y-53069223D01*
X119172966Y-53210609D01*
X119172965Y-53210614D01*
X119170556Y-53217232D01*
X119149931Y-53380494D01*
X98648381Y-53380494D01*
X98669860Y-53365173D01*
X98828096Y-53207489D01*
X98887594Y-53124689D01*
X98955435Y-53030277D01*
X98958453Y-53026077D01*
X98979320Y-52983857D01*
X99055136Y-52830453D01*
X99055137Y-52830451D01*
X99057430Y-52825811D01*
X99122370Y-52612069D01*
X99151529Y-52390590D01*
X99153156Y-52324000D01*
X99134852Y-52101361D01*
X99080431Y-51884702D01*
X98991354Y-51679840D01*
X98924824Y-51577000D01*
X98918157Y-51566694D01*
X123763931Y-51566694D01*
X123779989Y-51730468D01*
X123782212Y-51737149D01*
X123782213Y-51737156D01*
X123827700Y-51873895D01*
X123830223Y-51944846D01*
X123826543Y-51956760D01*
X123811966Y-51996809D01*
X123811965Y-51996814D01*
X123809556Y-52003432D01*
X123788931Y-52166694D01*
X123804989Y-52330468D01*
X123824989Y-52390590D01*
X123840762Y-52438006D01*
X123843285Y-52508958D01*
X123839605Y-52520872D01*
X123811966Y-52596809D01*
X123811965Y-52596814D01*
X123809556Y-52603432D01*
X123788931Y-52766694D01*
X123804989Y-52930468D01*
X123812682Y-52953593D01*
X123840762Y-53038006D01*
X123843285Y-53108958D01*
X123839605Y-53120872D01*
X123811966Y-53196809D01*
X123811965Y-53196814D01*
X123809556Y-53203432D01*
X123788931Y-53366694D01*
X123804989Y-53530468D01*
X123856932Y-53686615D01*
X123942179Y-53827373D01*
X123947070Y-53832438D01*
X123947071Y-53832439D01*
X123962458Y-53848373D01*
X124056491Y-53945747D01*
X124194189Y-54035854D01*
X124348428Y-54093215D01*
X124355409Y-54094146D01*
X124355411Y-54094147D01*
X124504561Y-54114048D01*
X124504565Y-54114048D01*
X124511542Y-54114979D01*
X124518553Y-54114341D01*
X124518557Y-54114341D01*
X124668403Y-54100704D01*
X124668404Y-54100704D01*
X124675424Y-54100065D01*
X124704062Y-54090760D01*
X124825230Y-54051390D01*
X124825233Y-54051389D01*
X124831929Y-54049213D01*
X124973279Y-53964951D01*
X125092449Y-53851468D01*
X125108458Y-53827373D01*
X125179614Y-53720275D01*
X125179615Y-53720273D01*
X125183515Y-53714403D01*
X125241951Y-53560568D01*
X125250507Y-53499689D01*
X125264302Y-53401534D01*
X125264303Y-53401527D01*
X125264853Y-53397610D01*
X125265141Y-53377000D01*
X125246798Y-53213466D01*
X125243255Y-53203292D01*
X125213615Y-53118177D01*
X125210101Y-53047267D01*
X125214818Y-53031997D01*
X125218829Y-53021438D01*
X125241951Y-52960568D01*
X125250507Y-52899689D01*
X125264302Y-52801534D01*
X125264303Y-52801527D01*
X125264853Y-52797610D01*
X125265141Y-52777000D01*
X125246798Y-52613466D01*
X125243304Y-52603432D01*
X125213615Y-52518177D01*
X125210101Y-52447267D01*
X125214818Y-52431997D01*
X125239449Y-52367154D01*
X125241951Y-52360568D01*
X125264853Y-52197610D01*
X125265141Y-52177000D01*
X125246798Y-52013466D01*
X125240998Y-51996809D01*
X125201658Y-51883841D01*
X125198144Y-51812931D01*
X125202861Y-51797661D01*
X125214449Y-51767155D01*
X125214449Y-51767154D01*
X125216951Y-51760568D01*
X125227629Y-51684590D01*
X125239302Y-51601534D01*
X125239303Y-51601527D01*
X125239853Y-51597610D01*
X125240141Y-51577000D01*
X125221798Y-51413466D01*
X125192077Y-51328118D01*
X125188564Y-51257211D01*
X125193281Y-51241941D01*
X125211401Y-51194238D01*
X125224951Y-51158568D01*
X125237770Y-51067357D01*
X125247302Y-50999534D01*
X125247303Y-50999527D01*
X125247853Y-50995610D01*
X125248141Y-50975000D01*
X125229798Y-50811466D01*
X125197523Y-50718785D01*
X125194009Y-50647877D01*
X125198726Y-50632605D01*
X125222451Y-50570150D01*
X125222452Y-50570148D01*
X125224951Y-50563568D01*
X125230166Y-50526459D01*
X125247302Y-50404534D01*
X125247303Y-50404527D01*
X125247853Y-50400610D01*
X125248141Y-50380000D01*
X125229798Y-50216466D01*
X125223998Y-50199809D01*
X125177998Y-50067717D01*
X125175680Y-50061060D01*
X125124258Y-49978767D01*
X125092209Y-49927479D01*
X125088476Y-49921505D01*
X125018054Y-49850590D01*
X124977486Y-49809737D01*
X124977482Y-49809734D01*
X124972522Y-49804739D01*
X124833580Y-49716563D01*
X124784447Y-49699068D01*
X124685189Y-49663723D01*
X124685187Y-49663722D01*
X124678555Y-49661361D01*
X124671569Y-49660528D01*
X124671565Y-49660527D01*
X124557071Y-49646875D01*
X124515153Y-49641877D01*
X124508150Y-49642613D01*
X124508149Y-49642613D01*
X124464935Y-49647155D01*
X124351495Y-49659078D01*
X124344827Y-49661348D01*
X124202382Y-49709840D01*
X124202379Y-49709841D01*
X124195715Y-49712110D01*
X124055555Y-49798337D01*
X123937982Y-49913473D01*
X123848838Y-50051797D01*
X123846427Y-50058420D01*
X123846426Y-50058423D01*
X123794966Y-50199809D01*
X123794965Y-50199814D01*
X123792556Y-50206432D01*
X123771931Y-50369694D01*
X123787989Y-50533468D01*
X123805028Y-50584688D01*
X123822893Y-50638394D01*
X123825416Y-50709346D01*
X123821736Y-50721260D01*
X123794966Y-50794809D01*
X123794965Y-50794814D01*
X123792556Y-50801432D01*
X123771931Y-50964694D01*
X123787989Y-51128468D01*
X123790212Y-51135150D01*
X123790213Y-51135156D01*
X123820289Y-51225568D01*
X123822812Y-51296520D01*
X123819132Y-51308434D01*
X123786966Y-51396809D01*
X123786965Y-51396813D01*
X123784556Y-51403432D01*
X123763931Y-51566694D01*
X98918157Y-51566694D01*
X98872822Y-51496617D01*
X98872820Y-51496614D01*
X98870014Y-51492277D01*
X98719670Y-51327051D01*
X98715619Y-51323852D01*
X98715615Y-51323848D01*
X98548414Y-51191800D01*
X98548410Y-51191798D01*
X98544359Y-51188598D01*
X98503053Y-51165796D01*
X98453084Y-51115364D01*
X98438312Y-51045921D01*
X98463428Y-50979516D01*
X98490780Y-50952909D01*
X98551500Y-50909598D01*
X98669860Y-50825173D01*
X98676592Y-50818465D01*
X98824435Y-50671137D01*
X98828096Y-50667489D01*
X98887594Y-50584689D01*
X98955435Y-50490277D01*
X98958453Y-50486077D01*
X98979320Y-50443857D01*
X99055136Y-50290453D01*
X99055137Y-50290451D01*
X99057430Y-50285811D01*
X99122370Y-50072069D01*
X99151529Y-49850590D01*
X99152685Y-49803266D01*
X99153074Y-49787365D01*
X99153074Y-49787361D01*
X99153156Y-49784000D01*
X99134852Y-49561361D01*
X99080431Y-49344702D01*
X98991354Y-49139840D01*
X98870014Y-48952277D01*
X98719670Y-48787051D01*
X98715619Y-48783852D01*
X98715615Y-48783848D01*
X98548414Y-48651800D01*
X98548410Y-48651798D01*
X98544359Y-48648598D01*
X98502569Y-48625529D01*
X98452598Y-48575097D01*
X98437826Y-48505654D01*
X98462942Y-48439248D01*
X98490294Y-48412641D01*
X98665328Y-48287792D01*
X98673200Y-48281139D01*
X98824052Y-48130812D01*
X98830730Y-48122965D01*
X98955003Y-47950020D01*
X98960313Y-47941183D01*
X99054670Y-47750267D01*
X99058469Y-47740672D01*
X99120377Y-47536910D01*
X99122555Y-47526837D01*
X99123986Y-47515962D01*
X99121775Y-47501778D01*
X99108617Y-47498000D01*
X95122000Y-47498000D01*
X95053879Y-47477998D01*
X95010096Y-47427469D01*
X150991201Y-47427469D01*
X150991571Y-47434290D01*
X150997095Y-47485152D01*
X151000721Y-47500404D01*
X151045876Y-47620854D01*
X151054414Y-47636449D01*
X151130915Y-47738524D01*
X151143476Y-47751085D01*
X151245551Y-47827586D01*
X151261146Y-47836124D01*
X151381594Y-47881278D01*
X151396849Y-47884905D01*
X151447714Y-47890431D01*
X151454528Y-47890800D01*
X152077085Y-47890800D01*
X152092324Y-47886325D01*
X152093529Y-47884935D01*
X152095200Y-47877252D01*
X152095200Y-47872684D01*
X152603200Y-47872684D01*
X152607675Y-47887923D01*
X152609065Y-47889128D01*
X152616748Y-47890799D01*
X153243869Y-47890799D01*
X153250690Y-47890429D01*
X153301552Y-47884905D01*
X153316804Y-47881279D01*
X153437254Y-47836124D01*
X153452849Y-47827586D01*
X153554924Y-47751085D01*
X153567485Y-47738524D01*
X153643986Y-47636449D01*
X153652524Y-47620854D01*
X153697678Y-47500406D01*
X153701305Y-47485151D01*
X153706831Y-47434286D01*
X153707200Y-47427472D01*
X153707200Y-46804915D01*
X153702725Y-46789676D01*
X153701335Y-46788471D01*
X153693652Y-46786800D01*
X152621315Y-46786800D01*
X152606076Y-46791275D01*
X152604871Y-46792665D01*
X152603200Y-46800348D01*
X152603200Y-47872684D01*
X152095200Y-47872684D01*
X152095200Y-46804915D01*
X152090725Y-46789676D01*
X152089335Y-46788471D01*
X152081652Y-46786800D01*
X151009316Y-46786800D01*
X150994077Y-46791275D01*
X150992872Y-46792665D01*
X150991201Y-46800348D01*
X150991201Y-47427469D01*
X95010096Y-47427469D01*
X95007386Y-47424342D01*
X94996000Y-47372000D01*
X94996000Y-47116000D01*
X95016002Y-47047879D01*
X95069658Y-47001386D01*
X95122000Y-46990000D01*
X99108344Y-46990000D01*
X99121875Y-46986027D01*
X99123180Y-46976947D01*
X99081214Y-46809875D01*
X99077894Y-46800124D01*
X98992972Y-46604814D01*
X98988105Y-46595739D01*
X98872426Y-46416926D01*
X98866136Y-46408757D01*
X98731400Y-46260685D01*
X150991200Y-46260685D01*
X150995675Y-46275924D01*
X150997065Y-46277129D01*
X151004748Y-46278800D01*
X152077085Y-46278800D01*
X152092324Y-46274325D01*
X152093529Y-46272935D01*
X152095200Y-46265252D01*
X152095200Y-46260685D01*
X152603200Y-46260685D01*
X152607675Y-46275924D01*
X152609065Y-46277129D01*
X152616748Y-46278800D01*
X153689084Y-46278800D01*
X153704323Y-46274325D01*
X153705528Y-46272935D01*
X153707199Y-46265252D01*
X153707199Y-45638131D01*
X153706829Y-45631310D01*
X153701305Y-45580448D01*
X153697679Y-45565196D01*
X153652524Y-45444746D01*
X153643986Y-45429151D01*
X153567485Y-45327076D01*
X153554924Y-45314515D01*
X153452849Y-45238014D01*
X153437254Y-45229476D01*
X153316806Y-45184322D01*
X153301551Y-45180695D01*
X153250686Y-45175169D01*
X153243872Y-45174800D01*
X152621315Y-45174800D01*
X152606076Y-45179275D01*
X152604871Y-45180665D01*
X152603200Y-45188348D01*
X152603200Y-46260685D01*
X152095200Y-46260685D01*
X152095200Y-45192916D01*
X152090725Y-45177677D01*
X152089335Y-45176472D01*
X152081652Y-45174801D01*
X151454531Y-45174801D01*
X151447710Y-45175171D01*
X151396848Y-45180695D01*
X151381596Y-45184321D01*
X151261146Y-45229476D01*
X151245551Y-45238014D01*
X151143476Y-45314515D01*
X151130915Y-45327076D01*
X151054414Y-45429151D01*
X151045876Y-45444746D01*
X151000722Y-45565194D01*
X150997095Y-45580449D01*
X150991569Y-45631314D01*
X150991200Y-45638128D01*
X150991200Y-46260685D01*
X98731400Y-46260685D01*
X98722806Y-46251240D01*
X98715273Y-46244215D01*
X98548139Y-46112222D01*
X98539556Y-46106520D01*
X98502602Y-46086120D01*
X98452631Y-46035687D01*
X98437859Y-45966245D01*
X98462975Y-45899839D01*
X98490327Y-45873232D01*
X98551500Y-45829598D01*
X98669860Y-45745173D01*
X98828096Y-45587489D01*
X98833156Y-45580448D01*
X98955435Y-45410277D01*
X98958453Y-45406077D01*
X98979320Y-45363857D01*
X99055136Y-45210453D01*
X99055137Y-45210451D01*
X99057430Y-45205811D01*
X99122370Y-44992069D01*
X99151529Y-44770590D01*
X99153156Y-44704000D01*
X99134852Y-44481361D01*
X99080431Y-44264702D01*
X98991354Y-44059840D01*
X98870014Y-43872277D01*
X98719670Y-43707051D01*
X98715619Y-43703852D01*
X98715615Y-43703848D01*
X98548414Y-43571800D01*
X98548410Y-43571798D01*
X98544359Y-43568598D01*
X98502569Y-43545529D01*
X98452598Y-43495097D01*
X98438814Y-43430300D01*
X117480000Y-43430300D01*
X117480516Y-43436444D01*
X117492308Y-43576866D01*
X117496960Y-43632269D01*
X117552826Y-43827098D01*
X117555645Y-43832583D01*
X117642653Y-44001883D01*
X117642656Y-44001888D01*
X117645471Y-44007365D01*
X117771365Y-44166203D01*
X117776059Y-44170198D01*
X117892997Y-44269720D01*
X117925713Y-44297564D01*
X118102637Y-44396444D01*
X118295397Y-44459075D01*
X118496651Y-44483073D01*
X118502786Y-44482601D01*
X118502788Y-44482601D01*
X118692592Y-44467997D01*
X118692596Y-44467996D01*
X118698734Y-44467524D01*
X118704666Y-44465868D01*
X118704670Y-44465867D01*
X118888003Y-44414679D01*
X118888007Y-44414678D01*
X118893947Y-44413019D01*
X118899451Y-44410239D01*
X118899453Y-44410238D01*
X119069356Y-44324414D01*
X119069358Y-44324413D01*
X119074857Y-44321635D01*
X119234571Y-44196853D01*
X119261028Y-44166203D01*
X119279566Y-44144726D01*
X119367006Y-44043426D01*
X119467118Y-43867196D01*
X119472705Y-43850403D01*
X119529147Y-43680730D01*
X119531094Y-43674878D01*
X119556496Y-43473797D01*
X119556901Y-43444800D01*
X119537123Y-43243087D01*
X119478542Y-43049058D01*
X119383390Y-42870102D01*
X119255290Y-42713037D01*
X119220494Y-42684251D01*
X119190054Y-42659069D01*
X132876601Y-42659069D01*
X132876971Y-42665890D01*
X132882495Y-42716752D01*
X132886121Y-42732004D01*
X132931276Y-42852454D01*
X132939814Y-42868049D01*
X133016315Y-42970124D01*
X133028876Y-42982685D01*
X133130951Y-43059186D01*
X133146546Y-43067724D01*
X133266994Y-43112878D01*
X133282249Y-43116505D01*
X133333114Y-43122031D01*
X133339928Y-43122400D01*
X133537485Y-43122400D01*
X133552724Y-43117925D01*
X133553929Y-43116535D01*
X133555600Y-43108852D01*
X133555600Y-42461515D01*
X133551125Y-42446276D01*
X133549735Y-42445071D01*
X133542052Y-42443400D01*
X132894716Y-42443400D01*
X132879477Y-42447875D01*
X132878272Y-42449265D01*
X132876601Y-42456948D01*
X132876601Y-42659069D01*
X119190054Y-42659069D01*
X119103872Y-42587773D01*
X119103869Y-42587771D01*
X119099122Y-42583844D01*
X118920835Y-42487444D01*
X118793009Y-42447875D01*
X118733107Y-42429332D01*
X118733104Y-42429331D01*
X118727220Y-42427510D01*
X118721095Y-42426866D01*
X118721094Y-42426866D01*
X118531778Y-42406968D01*
X118531777Y-42406968D01*
X118525650Y-42406324D01*
X118442386Y-42413902D01*
X118329943Y-42424135D01*
X118329940Y-42424136D01*
X118323804Y-42424694D01*
X118317898Y-42426432D01*
X118317894Y-42426433D01*
X118176491Y-42468051D01*
X118129371Y-42481919D01*
X118123914Y-42484772D01*
X118123911Y-42484773D01*
X118092120Y-42501393D01*
X117949755Y-42575819D01*
X117791799Y-42702819D01*
X117661519Y-42858081D01*
X117658555Y-42863473D01*
X117658552Y-42863477D01*
X117577356Y-43011172D01*
X117563877Y-43035691D01*
X117502593Y-43228884D01*
X117501907Y-43235001D01*
X117501906Y-43235005D01*
X117485386Y-43382285D01*
X117480000Y-43430300D01*
X98438814Y-43430300D01*
X98437826Y-43425654D01*
X98462942Y-43359248D01*
X98490294Y-43332641D01*
X98665328Y-43207792D01*
X98673200Y-43201139D01*
X98824052Y-43050812D01*
X98830730Y-43042965D01*
X98955003Y-42870020D01*
X98960313Y-42861183D01*
X99054670Y-42670267D01*
X99058469Y-42660672D01*
X99074390Y-42608269D01*
X100590801Y-42608269D01*
X100591171Y-42615090D01*
X100596695Y-42665952D01*
X100600321Y-42681204D01*
X100645476Y-42801654D01*
X100654014Y-42817249D01*
X100730515Y-42919324D01*
X100743076Y-42931885D01*
X100845151Y-43008386D01*
X100860746Y-43016924D01*
X100981194Y-43062078D01*
X100996449Y-43065705D01*
X101047314Y-43071231D01*
X101054128Y-43071600D01*
X101251685Y-43071600D01*
X101266924Y-43067125D01*
X101268129Y-43065735D01*
X101269800Y-43058052D01*
X101269800Y-42410715D01*
X101265325Y-42395476D01*
X101263935Y-42394271D01*
X101256252Y-42392600D01*
X100608916Y-42392600D01*
X100593677Y-42397075D01*
X100592472Y-42398465D01*
X100590801Y-42406148D01*
X100590801Y-42608269D01*
X99074390Y-42608269D01*
X99120377Y-42456910D01*
X99122555Y-42446837D01*
X99123986Y-42435962D01*
X99121775Y-42421778D01*
X99108617Y-42418000D01*
X95122000Y-42418000D01*
X95053879Y-42397998D01*
X95007386Y-42344342D01*
X94996000Y-42292000D01*
X94996000Y-42036000D01*
X95016002Y-41967879D01*
X95069658Y-41921386D01*
X95122000Y-41910000D01*
X99108344Y-41910000D01*
X99121875Y-41906027D01*
X99123180Y-41896947D01*
X99081214Y-41729875D01*
X99077894Y-41720124D01*
X98992972Y-41524814D01*
X98988105Y-41515739D01*
X98876317Y-41342940D01*
X98856110Y-41274880D01*
X98875906Y-41206699D01*
X98929421Y-41160045D01*
X98982109Y-41148500D01*
X100635701Y-41148500D01*
X100703822Y-41168502D01*
G37*
%TD.AperFunction*%
%TD*%
M02*
