%TF.GenerationSoftware,KiCad,Pcbnew,6.0.4-6f826c9f35~116~ubuntu20.04.1*%
%TF.CreationDate,2022-04-07T06:29:18+07:00*%
%TF.ProjectId,Colorlight2QMTech,436f6c6f-726c-4696-9768-7432514d5465,rev?*%
%TF.SameCoordinates,Original*%
%TF.FileFunction,Copper,L3,Inr*%
%TF.FilePolarity,Positive*%
%FSLAX46Y46*%
G04 Gerber Fmt 4.6, Leading zero omitted, Abs format (unit mm)*
G04 Created by KiCad (PCBNEW 6.0.4-6f826c9f35~116~ubuntu20.04.1) date 2022-04-07 06:29:18*
%MOMM*%
%LPD*%
G01*
G04 APERTURE LIST*
%TA.AperFunction,ComponentPad*%
%ADD10R,1.700000X1.700000*%
%TD*%
%TA.AperFunction,ComponentPad*%
%ADD11O,1.700000X1.700000*%
%TD*%
%TA.AperFunction,ComponentPad*%
%ADD12C,2.000000*%
%TD*%
%TA.AperFunction,ComponentPad*%
%ADD13C,0.750000*%
%TD*%
%TA.AperFunction,ComponentPad*%
%ADD14O,1.200000X2.000000*%
%TD*%
%TA.AperFunction,ComponentPad*%
%ADD15O,1.200000X1.800000*%
%TD*%
%TA.AperFunction,ViaPad*%
%ADD16C,0.950000*%
%TD*%
%TA.AperFunction,ViaPad*%
%ADD17C,1.900000*%
%TD*%
%TA.AperFunction,ViaPad*%
%ADD18C,0.450000*%
%TD*%
%TA.AperFunction,Conductor*%
%ADD19C,2.000000*%
%TD*%
G04 APERTURE END LIST*
D10*
%TO.N,GND*%
%TO.C,J1*%
X95250000Y-42164000D03*
D11*
X97790000Y-42164000D03*
%TO.N,+3V3*%
X95250000Y-44704000D03*
X97790000Y-44704000D03*
%TO.N,GND*%
X95250000Y-47244000D03*
X97790000Y-47244000D03*
%TO.N,unconnected-(J1-Pad7)*%
X95250000Y-49784000D03*
%TO.N,/U16*%
X97790000Y-49784000D03*
%TO.N,/C18*%
X95250000Y-52324000D03*
%TO.N,/K18*%
X97790000Y-52324000D03*
%TO.N,/R18*%
X95250000Y-54864000D03*
%TO.N,/T18*%
X97790000Y-54864000D03*
%TO.N,/P17*%
X95250000Y-57404000D03*
%TO.N,/R17*%
X97790000Y-57404000D03*
%TO.N,/T17*%
X95250000Y-59944000D03*
%TO.N,/M17*%
X97790000Y-59944000D03*
%TO.N,/U17*%
X95250000Y-62484000D03*
%TO.N,/U18*%
X97790000Y-62484000D03*
%TO.N,/N17*%
X95250000Y-65024000D03*
%TO.N,/P18*%
X97790000Y-65024000D03*
%TO.N,/M18*%
X95250000Y-67564000D03*
%TO.N,/N18*%
X97790000Y-67564000D03*
%TO.N,/L18*%
X95250000Y-70104000D03*
%TO.N,/L20*%
X97790000Y-70104000D03*
%TO.N,/K19*%
X95250000Y-72644000D03*
%TO.N,/K20*%
X97790000Y-72644000D03*
%TO.N,/J19*%
X95250000Y-75184000D03*
%TO.N,/J20*%
X97790000Y-75184000D03*
%TO.N,/G20*%
X95250000Y-77724000D03*
%TO.N,/H20*%
X97790000Y-77724000D03*
%TO.N,/F20*%
X95250000Y-80264000D03*
%TO.N,/G19*%
X97790000Y-80264000D03*
%TO.N,/E20*%
X95250000Y-82804000D03*
%TO.N,/F19*%
X97790000Y-82804000D03*
%TO.N,/D20*%
X95250000Y-85344000D03*
%TO.N,/E19*%
X97790000Y-85344000D03*
%TO.N,/C20*%
X95250000Y-87884000D03*
%TO.N,/D19*%
X97790000Y-87884000D03*
%TO.N,/B19*%
X95250000Y-90424000D03*
%TO.N,/B20*%
X97790000Y-90424000D03*
%TO.N,/A19*%
X95250000Y-92964000D03*
%TO.N,/B18*%
X97790000Y-92964000D03*
%TO.N,/A18*%
X95250000Y-95504000D03*
%TO.N,/C17*%
X97790000Y-95504000D03*
%TO.N,/C4*%
X95250000Y-98044000D03*
%TO.N,/D3*%
X97790000Y-98044000D03*
%TO.N,/C3*%
X95250000Y-100584000D03*
%TO.N,/B4*%
X97790000Y-100584000D03*
%TO.N,/A3*%
X95250000Y-103124000D03*
%TO.N,/E3*%
X97790000Y-103124000D03*
%TO.N,/B1*%
X95250000Y-105664000D03*
%TO.N,/C2*%
X97790000Y-105664000D03*
%TO.N,/D2*%
X95250000Y-108204000D03*
%TO.N,/C1*%
X97790000Y-108204000D03*
%TO.N,/E2*%
X95250000Y-110744000D03*
%TO.N,/D1*%
X97790000Y-110744000D03*
%TO.N,/F2*%
X95250000Y-113284000D03*
%TO.N,/E1*%
X97790000Y-113284000D03*
%TO.N,unconnected-(J1-Pad59)*%
X95250000Y-115824000D03*
%TO.N,unconnected-(J1-Pad60)*%
X97790000Y-115824000D03*
%TO.N,GND*%
X95250000Y-118364000D03*
X97790000Y-118364000D03*
%TO.N,+5V*%
X95250000Y-120904000D03*
X97790000Y-120904000D03*
%TD*%
D12*
%TO.N,*%
%TO.C,CN1*%
X118422500Y-115128000D03*
X118422500Y-48328000D03*
%TD*%
D10*
%TO.N,GND*%
%TO.C,J2*%
X156210000Y-42164000D03*
D11*
X158750000Y-42164000D03*
%TO.N,+3V3*%
X156210000Y-44704000D03*
X158750000Y-44704000D03*
%TO.N,GND*%
X156210000Y-47244000D03*
X158750000Y-47244000D03*
%TO.N,/T1*%
X156210000Y-49784000D03*
%TO.N,/U1*%
X158750000Y-49784000D03*
%TO.N,/Y2*%
X156210000Y-52324000D03*
%TO.N,/W1*%
X158750000Y-52324000D03*
%TO.N,/V1*%
X156210000Y-54864000D03*
%TO.N,/M1*%
X158750000Y-54864000D03*
%TO.N,/N2*%
X156210000Y-57404000D03*
%TO.N,/N3*%
X158750000Y-57404000D03*
%TO.N,/T2*%
X156210000Y-59944000D03*
%TO.N,/M3*%
X158750000Y-59944000D03*
%TO.N,/T3*%
X156210000Y-62484000D03*
%TO.N,/R3*%
X158750000Y-62484000D03*
%TO.N,/N4*%
X156210000Y-65024000D03*
%TO.N,/M4*%
X158750000Y-65024000D03*
%TO.N,/L4*%
X156210000Y-67564000D03*
%TO.N,/L5*%
X158750000Y-67564000D03*
%TO.N,/P16*%
X156210000Y-70104000D03*
%TO.N,/J16*%
X158750000Y-70104000D03*
%TO.N,/J18*%
X156210000Y-72644000D03*
%TO.N,/J17*%
X158750000Y-72644000D03*
%TO.N,/H18*%
X156210000Y-75184000D03*
%TO.N,/H17*%
X158750000Y-75184000D03*
%TO.N,/G18*%
X156210000Y-77724000D03*
%TO.N,/H16*%
X158750000Y-77724000D03*
%TO.N,/F18*%
X156210000Y-80264000D03*
%TO.N,/G16*%
X158750000Y-80264000D03*
%TO.N,/E18*%
X156210000Y-82804000D03*
%TO.N,/F17*%
X158750000Y-82804000D03*
%TO.N,/F16*%
X156210000Y-85344000D03*
%TO.N,/E16*%
X158750000Y-85344000D03*
%TO.N,/E17*%
X156210000Y-87884000D03*
%TO.N,/D18*%
X158750000Y-87884000D03*
%TO.N,/D17*%
X156210000Y-90424000D03*
%TO.N,/G5*%
X158750000Y-90424000D03*
%TO.N,/D16*%
X156210000Y-92964000D03*
%TO.N,/F5*%
X158750000Y-92964000D03*
%TO.N,/E6*%
X156210000Y-95504000D03*
%TO.N,/E5*%
X158750000Y-95504000D03*
%TO.N,/F4*%
X156210000Y-98044000D03*
%TO.N,/E4*%
X158750000Y-98044000D03*
%TO.N,/F1*%
X156210000Y-100584000D03*
%TO.N,/F3*%
X158750000Y-100584000D03*
%TO.N,/G3*%
X156210000Y-103124000D03*
%TO.N,/H3*%
X158750000Y-103124000D03*
%TO.N,/H4*%
X156210000Y-105664000D03*
%TO.N,/H5*%
X158750000Y-105664000D03*
%TO.N,/J4*%
X156210000Y-108204000D03*
%TO.N,/J5*%
X158750000Y-108204000D03*
%TO.N,/K3*%
X156210000Y-110744000D03*
%TO.N,/K4*%
X158750000Y-110744000D03*
%TO.N,/K5*%
X156210000Y-113284000D03*
%TO.N,/B3*%
X158750000Y-113284000D03*
%TO.N,/A2*%
X156210000Y-115824000D03*
%TO.N,/B2*%
X158750000Y-115824000D03*
%TO.N,GND*%
X156210000Y-118364000D03*
X158750000Y-118364000D03*
%TO.N,+5V*%
X156210000Y-120904000D03*
X158750000Y-120904000D03*
%TD*%
D10*
%TO.N,GND*%
%TO.C,J4-GND1*%
X150114000Y-47498000D03*
%TD*%
D13*
%TO.N,*%
%TO.C,J3*%
X110819000Y-121200000D03*
X105019000Y-121200000D03*
D14*
%TO.N,Net-(J3-PadS1)*%
X112249000Y-120700000D03*
D15*
X112249000Y-124900000D03*
X103589000Y-124900000D03*
D14*
X103589000Y-120700000D03*
%TD*%
D16*
%TO.N,GND*%
X111961300Y-112903200D03*
X158262000Y-124948000D03*
X118668800Y-85394800D03*
X118470000Y-100478000D03*
X104343200Y-118389400D03*
X104343200Y-118389400D03*
X104343200Y-118389400D03*
X118719600Y-70053200D03*
D17*
%TO.N,+3V3*%
X147112000Y-116347000D03*
D18*
%TO.N,+5V*%
X124527000Y-52777000D03*
D16*
X100656000Y-116514000D03*
D18*
X124510000Y-50380000D03*
X124527000Y-52177000D03*
X124510000Y-50975000D03*
X124502000Y-51577000D03*
X124527000Y-53377000D03*
%TD*%
D19*
%TO.N,+3V3*%
X146558000Y-44704000D02*
X95250000Y-44704000D01*
X147112000Y-116347000D02*
X147112000Y-45258000D01*
X147112000Y-45258000D02*
X146558000Y-44704000D01*
X147066000Y-45212000D02*
X147574000Y-44704000D01*
X147574000Y-44704000D02*
X158750000Y-44704000D01*
X147112000Y-45258000D02*
X147066000Y-45212000D01*
%TO.N,+5V*%
X158750000Y-120904000D02*
X153466800Y-120904000D01*
X100507800Y-120878600D02*
X95224600Y-120878600D01*
%TD*%
%TA.AperFunction,Conductor*%
%TO.N,+5V*%
G36*
X145545621Y-46232502D02*
G01*
X145592114Y-46286158D01*
X145603500Y-46338500D01*
X145603500Y-116408001D01*
X145603702Y-116410509D01*
X145603702Y-116410514D01*
X145616149Y-116565211D01*
X145618060Y-116588965D01*
X145619266Y-116593873D01*
X145619266Y-116593876D01*
X145627915Y-116629088D01*
X145675963Y-116824706D01*
X145677938Y-116829358D01*
X145677939Y-116829362D01*
X145730374Y-116952891D01*
X145770812Y-117048156D01*
X145794594Y-117085921D01*
X145889650Y-117236866D01*
X145900167Y-117253567D01*
X145903512Y-117257361D01*
X146057350Y-117431858D01*
X146057353Y-117431861D01*
X146060698Y-117435655D01*
X146064606Y-117438865D01*
X146064607Y-117438866D01*
X146220802Y-117567165D01*
X146248278Y-117589734D01*
X146252646Y-117592276D01*
X146452546Y-117708621D01*
X146458078Y-117711841D01*
X146462801Y-117713654D01*
X146679978Y-117797020D01*
X146679982Y-117797021D01*
X146684702Y-117798833D01*
X146689652Y-117799867D01*
X146689655Y-117799868D01*
X146917369Y-117847440D01*
X146917373Y-117847440D01*
X146922320Y-117848474D01*
X147164817Y-117859486D01*
X147169837Y-117858905D01*
X147169841Y-117858905D01*
X147400929Y-117832167D01*
X147400933Y-117832166D01*
X147405956Y-117831585D01*
X147410820Y-117830209D01*
X147410823Y-117830208D01*
X147634669Y-117766866D01*
X147634668Y-117766866D01*
X147639532Y-117765490D01*
X147644108Y-117763356D01*
X147644114Y-117763354D01*
X147854954Y-117665038D01*
X147854958Y-117665036D01*
X147859536Y-117662901D01*
X148060307Y-117526456D01*
X148236681Y-117359668D01*
X148314901Y-117257361D01*
X148381047Y-117170846D01*
X148381050Y-117170842D01*
X148384120Y-117166826D01*
X148498831Y-116952891D01*
X148577862Y-116723369D01*
X148601948Y-116583924D01*
X148618504Y-116488074D01*
X148618505Y-116488068D01*
X148619179Y-116484164D01*
X148619656Y-116473654D01*
X148620436Y-116456494D01*
X148620436Y-116456475D01*
X148620500Y-116455075D01*
X148620500Y-48715557D01*
X148640502Y-48647436D01*
X148694158Y-48600943D01*
X148764432Y-48590839D01*
X148829012Y-48620333D01*
X148847325Y-48639991D01*
X148900739Y-48711261D01*
X149017295Y-48798615D01*
X149153684Y-48849745D01*
X149215866Y-48856500D01*
X151012134Y-48856500D01*
X151074316Y-48849745D01*
X151210705Y-48798615D01*
X151327261Y-48711261D01*
X151414615Y-48594705D01*
X151465745Y-48458316D01*
X151472500Y-48396134D01*
X151472500Y-46599866D01*
X151465745Y-46537684D01*
X151414615Y-46401295D01*
X151411505Y-46397145D01*
X151396744Y-46329651D01*
X151421481Y-46263103D01*
X151478270Y-46220493D01*
X151522433Y-46212500D01*
X155030602Y-46212500D01*
X155098723Y-46232502D01*
X155145216Y-46286158D01*
X155155320Y-46356432D01*
X155134690Y-46409503D01*
X155024743Y-46570680D01*
X154930688Y-46773305D01*
X154870989Y-46988570D01*
X154847251Y-47210695D01*
X154847548Y-47215848D01*
X154847548Y-47215851D01*
X154853011Y-47310590D01*
X154860110Y-47433715D01*
X154861247Y-47438761D01*
X154861248Y-47438767D01*
X154881119Y-47526939D01*
X154909222Y-47651639D01*
X154993266Y-47858616D01*
X155044019Y-47941438D01*
X155107291Y-48044688D01*
X155109987Y-48049088D01*
X155256250Y-48217938D01*
X155428126Y-48360632D01*
X155443470Y-48369598D01*
X155501445Y-48403476D01*
X155550169Y-48455114D01*
X155563240Y-48524897D01*
X155536509Y-48590669D01*
X155496055Y-48624027D01*
X155483607Y-48630507D01*
X155479474Y-48633610D01*
X155479471Y-48633612D01*
X155309100Y-48761530D01*
X155304965Y-48764635D01*
X155150629Y-48926138D01*
X155024743Y-49110680D01*
X154930688Y-49313305D01*
X154870989Y-49528570D01*
X154847251Y-49750695D01*
X154847548Y-49755848D01*
X154847548Y-49755851D01*
X154853011Y-49850590D01*
X154860110Y-49973715D01*
X154861247Y-49978761D01*
X154861248Y-49978767D01*
X154881119Y-50066939D01*
X154909222Y-50191639D01*
X154993266Y-50398616D01*
X155044019Y-50481438D01*
X155107291Y-50584688D01*
X155109987Y-50589088D01*
X155256250Y-50757938D01*
X155428126Y-50900632D01*
X155443470Y-50909598D01*
X155501445Y-50943476D01*
X155550169Y-50995114D01*
X155563240Y-51064897D01*
X155536509Y-51130669D01*
X155496055Y-51164027D01*
X155483607Y-51170507D01*
X155479474Y-51173610D01*
X155479471Y-51173612D01*
X155455247Y-51191800D01*
X155304965Y-51304635D01*
X155150629Y-51466138D01*
X155024743Y-51650680D01*
X154930688Y-51853305D01*
X154870989Y-52068570D01*
X154847251Y-52290695D01*
X154847548Y-52295848D01*
X154847548Y-52295851D01*
X154853011Y-52390590D01*
X154860110Y-52513715D01*
X154861247Y-52518761D01*
X154861248Y-52518767D01*
X154881119Y-52606939D01*
X154909222Y-52731639D01*
X154993266Y-52938616D01*
X155044019Y-53021438D01*
X155107291Y-53124688D01*
X155109987Y-53129088D01*
X155256250Y-53297938D01*
X155428126Y-53440632D01*
X155443470Y-53449598D01*
X155501445Y-53483476D01*
X155550169Y-53535114D01*
X155563240Y-53604897D01*
X155536509Y-53670669D01*
X155496055Y-53704027D01*
X155483607Y-53710507D01*
X155479474Y-53713610D01*
X155479471Y-53713612D01*
X155455247Y-53731800D01*
X155304965Y-53844635D01*
X155150629Y-54006138D01*
X155024743Y-54190680D01*
X154930688Y-54393305D01*
X154870989Y-54608570D01*
X154847251Y-54830695D01*
X154847548Y-54835848D01*
X154847548Y-54835851D01*
X154853011Y-54930590D01*
X154860110Y-55053715D01*
X154861247Y-55058761D01*
X154861248Y-55058767D01*
X154881119Y-55146939D01*
X154909222Y-55271639D01*
X154993266Y-55478616D01*
X155044019Y-55561438D01*
X155107291Y-55664688D01*
X155109987Y-55669088D01*
X155256250Y-55837938D01*
X155428126Y-55980632D01*
X155443470Y-55989598D01*
X155501445Y-56023476D01*
X155550169Y-56075114D01*
X155563240Y-56144897D01*
X155536509Y-56210669D01*
X155496055Y-56244027D01*
X155483607Y-56250507D01*
X155479474Y-56253610D01*
X155479471Y-56253612D01*
X155455247Y-56271800D01*
X155304965Y-56384635D01*
X155150629Y-56546138D01*
X155024743Y-56730680D01*
X154930688Y-56933305D01*
X154870989Y-57148570D01*
X154847251Y-57370695D01*
X154847548Y-57375848D01*
X154847548Y-57375851D01*
X154853011Y-57470590D01*
X154860110Y-57593715D01*
X154861247Y-57598761D01*
X154861248Y-57598767D01*
X154881119Y-57686939D01*
X154909222Y-57811639D01*
X154993266Y-58018616D01*
X155044019Y-58101438D01*
X155107291Y-58204688D01*
X155109987Y-58209088D01*
X155256250Y-58377938D01*
X155428126Y-58520632D01*
X155443470Y-58529598D01*
X155501445Y-58563476D01*
X155550169Y-58615114D01*
X155563240Y-58684897D01*
X155536509Y-58750669D01*
X155496055Y-58784027D01*
X155483607Y-58790507D01*
X155479474Y-58793610D01*
X155479471Y-58793612D01*
X155455247Y-58811800D01*
X155304965Y-58924635D01*
X155150629Y-59086138D01*
X155024743Y-59270680D01*
X154930688Y-59473305D01*
X154870989Y-59688570D01*
X154847251Y-59910695D01*
X154847548Y-59915848D01*
X154847548Y-59915851D01*
X154853011Y-60010590D01*
X154860110Y-60133715D01*
X154861247Y-60138761D01*
X154861248Y-60138767D01*
X154881119Y-60226939D01*
X154909222Y-60351639D01*
X154993266Y-60558616D01*
X155044019Y-60641438D01*
X155107291Y-60744688D01*
X155109987Y-60749088D01*
X155256250Y-60917938D01*
X155428126Y-61060632D01*
X155443470Y-61069598D01*
X155501445Y-61103476D01*
X155550169Y-61155114D01*
X155563240Y-61224897D01*
X155536509Y-61290669D01*
X155496055Y-61324027D01*
X155483607Y-61330507D01*
X155479474Y-61333610D01*
X155479471Y-61333612D01*
X155455247Y-61351800D01*
X155304965Y-61464635D01*
X155150629Y-61626138D01*
X155024743Y-61810680D01*
X154930688Y-62013305D01*
X154870989Y-62228570D01*
X154847251Y-62450695D01*
X154847548Y-62455848D01*
X154847548Y-62455851D01*
X154853011Y-62550590D01*
X154860110Y-62673715D01*
X154861247Y-62678761D01*
X154861248Y-62678767D01*
X154881119Y-62766939D01*
X154909222Y-62891639D01*
X154993266Y-63098616D01*
X155044019Y-63181438D01*
X155107291Y-63284688D01*
X155109987Y-63289088D01*
X155256250Y-63457938D01*
X155428126Y-63600632D01*
X155443470Y-63609598D01*
X155501445Y-63643476D01*
X155550169Y-63695114D01*
X155563240Y-63764897D01*
X155536509Y-63830669D01*
X155496055Y-63864027D01*
X155483607Y-63870507D01*
X155479474Y-63873610D01*
X155479471Y-63873612D01*
X155455247Y-63891800D01*
X155304965Y-64004635D01*
X155150629Y-64166138D01*
X155024743Y-64350680D01*
X154930688Y-64553305D01*
X154870989Y-64768570D01*
X154847251Y-64990695D01*
X154847548Y-64995848D01*
X154847548Y-64995851D01*
X154853011Y-65090590D01*
X154860110Y-65213715D01*
X154861247Y-65218761D01*
X154861248Y-65218767D01*
X154881119Y-65306939D01*
X154909222Y-65431639D01*
X154993266Y-65638616D01*
X155044019Y-65721438D01*
X155107291Y-65824688D01*
X155109987Y-65829088D01*
X155256250Y-65997938D01*
X155428126Y-66140632D01*
X155443470Y-66149598D01*
X155501445Y-66183476D01*
X155550169Y-66235114D01*
X155563240Y-66304897D01*
X155536509Y-66370669D01*
X155496055Y-66404027D01*
X155483607Y-66410507D01*
X155479474Y-66413610D01*
X155479471Y-66413612D01*
X155455247Y-66431800D01*
X155304965Y-66544635D01*
X155150629Y-66706138D01*
X155024743Y-66890680D01*
X154930688Y-67093305D01*
X154870989Y-67308570D01*
X154847251Y-67530695D01*
X154847548Y-67535848D01*
X154847548Y-67535851D01*
X154853011Y-67630590D01*
X154860110Y-67753715D01*
X154861247Y-67758761D01*
X154861248Y-67758767D01*
X154881119Y-67846939D01*
X154909222Y-67971639D01*
X154993266Y-68178616D01*
X155044019Y-68261438D01*
X155107291Y-68364688D01*
X155109987Y-68369088D01*
X155256250Y-68537938D01*
X155428126Y-68680632D01*
X155443470Y-68689598D01*
X155501445Y-68723476D01*
X155550169Y-68775114D01*
X155563240Y-68844897D01*
X155536509Y-68910669D01*
X155496055Y-68944027D01*
X155483607Y-68950507D01*
X155479474Y-68953610D01*
X155479471Y-68953612D01*
X155330305Y-69065609D01*
X155304965Y-69084635D01*
X155150629Y-69246138D01*
X155024743Y-69430680D01*
X154930688Y-69633305D01*
X154870989Y-69848570D01*
X154847251Y-70070695D01*
X154847548Y-70075848D01*
X154847548Y-70075851D01*
X154856870Y-70237525D01*
X154860110Y-70293715D01*
X154861247Y-70298761D01*
X154861248Y-70298767D01*
X154881119Y-70386939D01*
X154909222Y-70511639D01*
X154993266Y-70718616D01*
X155044019Y-70801438D01*
X155107291Y-70904688D01*
X155109987Y-70909088D01*
X155256250Y-71077938D01*
X155428126Y-71220632D01*
X155443470Y-71229598D01*
X155501445Y-71263476D01*
X155550169Y-71315114D01*
X155563240Y-71384897D01*
X155536509Y-71450669D01*
X155496055Y-71484027D01*
X155483607Y-71490507D01*
X155479474Y-71493610D01*
X155479471Y-71493612D01*
X155455247Y-71511800D01*
X155304965Y-71624635D01*
X155150629Y-71786138D01*
X155024743Y-71970680D01*
X154930688Y-72173305D01*
X154870989Y-72388570D01*
X154847251Y-72610695D01*
X154847548Y-72615848D01*
X154847548Y-72615851D01*
X154853011Y-72710590D01*
X154860110Y-72833715D01*
X154861247Y-72838761D01*
X154861248Y-72838767D01*
X154881119Y-72926939D01*
X154909222Y-73051639D01*
X154993266Y-73258616D01*
X155044019Y-73341438D01*
X155107291Y-73444688D01*
X155109987Y-73449088D01*
X155256250Y-73617938D01*
X155428126Y-73760632D01*
X155443470Y-73769598D01*
X155501445Y-73803476D01*
X155550169Y-73855114D01*
X155563240Y-73924897D01*
X155536509Y-73990669D01*
X155496055Y-74024027D01*
X155483607Y-74030507D01*
X155479474Y-74033610D01*
X155479471Y-74033612D01*
X155455247Y-74051800D01*
X155304965Y-74164635D01*
X155150629Y-74326138D01*
X155024743Y-74510680D01*
X154930688Y-74713305D01*
X154870989Y-74928570D01*
X154847251Y-75150695D01*
X154847548Y-75155848D01*
X154847548Y-75155851D01*
X154853011Y-75250590D01*
X154860110Y-75373715D01*
X154861247Y-75378761D01*
X154861248Y-75378767D01*
X154881119Y-75466939D01*
X154909222Y-75591639D01*
X154993266Y-75798616D01*
X155044019Y-75881438D01*
X155107291Y-75984688D01*
X155109987Y-75989088D01*
X155256250Y-76157938D01*
X155428126Y-76300632D01*
X155443470Y-76309598D01*
X155501445Y-76343476D01*
X155550169Y-76395114D01*
X155563240Y-76464897D01*
X155536509Y-76530669D01*
X155496055Y-76564027D01*
X155483607Y-76570507D01*
X155479474Y-76573610D01*
X155479471Y-76573612D01*
X155455247Y-76591800D01*
X155304965Y-76704635D01*
X155150629Y-76866138D01*
X155024743Y-77050680D01*
X154930688Y-77253305D01*
X154870989Y-77468570D01*
X154847251Y-77690695D01*
X154847548Y-77695848D01*
X154847548Y-77695851D01*
X154853011Y-77790590D01*
X154860110Y-77913715D01*
X154861247Y-77918761D01*
X154861248Y-77918767D01*
X154881119Y-78006939D01*
X154909222Y-78131639D01*
X154993266Y-78338616D01*
X155044019Y-78421438D01*
X155107291Y-78524688D01*
X155109987Y-78529088D01*
X155256250Y-78697938D01*
X155428126Y-78840632D01*
X155443470Y-78849598D01*
X155501445Y-78883476D01*
X155550169Y-78935114D01*
X155563240Y-79004897D01*
X155536509Y-79070669D01*
X155496055Y-79104027D01*
X155483607Y-79110507D01*
X155479474Y-79113610D01*
X155479471Y-79113612D01*
X155455247Y-79131800D01*
X155304965Y-79244635D01*
X155150629Y-79406138D01*
X155024743Y-79590680D01*
X154930688Y-79793305D01*
X154870989Y-80008570D01*
X154847251Y-80230695D01*
X154847548Y-80235848D01*
X154847548Y-80235851D01*
X154853011Y-80330590D01*
X154860110Y-80453715D01*
X154861247Y-80458761D01*
X154861248Y-80458767D01*
X154881119Y-80546939D01*
X154909222Y-80671639D01*
X154993266Y-80878616D01*
X155044019Y-80961438D01*
X155107291Y-81064688D01*
X155109987Y-81069088D01*
X155256250Y-81237938D01*
X155428126Y-81380632D01*
X155443470Y-81389598D01*
X155501445Y-81423476D01*
X155550169Y-81475114D01*
X155563240Y-81544897D01*
X155536509Y-81610669D01*
X155496055Y-81644027D01*
X155483607Y-81650507D01*
X155479474Y-81653610D01*
X155479471Y-81653612D01*
X155455247Y-81671800D01*
X155304965Y-81784635D01*
X155150629Y-81946138D01*
X155024743Y-82130680D01*
X154930688Y-82333305D01*
X154870989Y-82548570D01*
X154847251Y-82770695D01*
X154847548Y-82775848D01*
X154847548Y-82775851D01*
X154853011Y-82870590D01*
X154860110Y-82993715D01*
X154861247Y-82998761D01*
X154861248Y-82998767D01*
X154881119Y-83086939D01*
X154909222Y-83211639D01*
X154993266Y-83418616D01*
X155044019Y-83501438D01*
X155107291Y-83604688D01*
X155109987Y-83609088D01*
X155256250Y-83777938D01*
X155428126Y-83920632D01*
X155443470Y-83929598D01*
X155501445Y-83963476D01*
X155550169Y-84015114D01*
X155563240Y-84084897D01*
X155536509Y-84150669D01*
X155496055Y-84184027D01*
X155483607Y-84190507D01*
X155479474Y-84193610D01*
X155479471Y-84193612D01*
X155455247Y-84211800D01*
X155304965Y-84324635D01*
X155301393Y-84328373D01*
X155154643Y-84481938D01*
X155150629Y-84486138D01*
X155147720Y-84490403D01*
X155147714Y-84490411D01*
X155089673Y-84575496D01*
X155024743Y-84670680D01*
X155009003Y-84704590D01*
X154939952Y-84853348D01*
X154930688Y-84873305D01*
X154870989Y-85088570D01*
X154847251Y-85310695D01*
X154847548Y-85315848D01*
X154847548Y-85315851D01*
X154853011Y-85410590D01*
X154860110Y-85533715D01*
X154861247Y-85538761D01*
X154861248Y-85538767D01*
X154876767Y-85607628D01*
X154909222Y-85751639D01*
X154993266Y-85958616D01*
X155044019Y-86041438D01*
X155107291Y-86144688D01*
X155109987Y-86149088D01*
X155256250Y-86317938D01*
X155428126Y-86460632D01*
X155443470Y-86469598D01*
X155501445Y-86503476D01*
X155550169Y-86555114D01*
X155563240Y-86624897D01*
X155536509Y-86690669D01*
X155496055Y-86724027D01*
X155483607Y-86730507D01*
X155479474Y-86733610D01*
X155479471Y-86733612D01*
X155455247Y-86751800D01*
X155304965Y-86864635D01*
X155150629Y-87026138D01*
X155024743Y-87210680D01*
X154930688Y-87413305D01*
X154870989Y-87628570D01*
X154847251Y-87850695D01*
X154847548Y-87855848D01*
X154847548Y-87855851D01*
X154853011Y-87950590D01*
X154860110Y-88073715D01*
X154861247Y-88078761D01*
X154861248Y-88078767D01*
X154881119Y-88166939D01*
X154909222Y-88291639D01*
X154993266Y-88498616D01*
X155044019Y-88581438D01*
X155107291Y-88684688D01*
X155109987Y-88689088D01*
X155256250Y-88857938D01*
X155428126Y-89000632D01*
X155443470Y-89009598D01*
X155501445Y-89043476D01*
X155550169Y-89095114D01*
X155563240Y-89164897D01*
X155536509Y-89230669D01*
X155496055Y-89264027D01*
X155483607Y-89270507D01*
X155479474Y-89273610D01*
X155479471Y-89273612D01*
X155455247Y-89291800D01*
X155304965Y-89404635D01*
X155150629Y-89566138D01*
X155024743Y-89750680D01*
X154930688Y-89953305D01*
X154870989Y-90168570D01*
X154847251Y-90390695D01*
X154847548Y-90395848D01*
X154847548Y-90395851D01*
X154853011Y-90490590D01*
X154860110Y-90613715D01*
X154861247Y-90618761D01*
X154861248Y-90618767D01*
X154881119Y-90706939D01*
X154909222Y-90831639D01*
X154993266Y-91038616D01*
X155044019Y-91121438D01*
X155107291Y-91224688D01*
X155109987Y-91229088D01*
X155256250Y-91397938D01*
X155428126Y-91540632D01*
X155443470Y-91549598D01*
X155501445Y-91583476D01*
X155550169Y-91635114D01*
X155563240Y-91704897D01*
X155536509Y-91770669D01*
X155496055Y-91804027D01*
X155483607Y-91810507D01*
X155479474Y-91813610D01*
X155479471Y-91813612D01*
X155455247Y-91831800D01*
X155304965Y-91944635D01*
X155150629Y-92106138D01*
X155024743Y-92290680D01*
X154930688Y-92493305D01*
X154870989Y-92708570D01*
X154847251Y-92930695D01*
X154847548Y-92935848D01*
X154847548Y-92935851D01*
X154853011Y-93030590D01*
X154860110Y-93153715D01*
X154861247Y-93158761D01*
X154861248Y-93158767D01*
X154881119Y-93246939D01*
X154909222Y-93371639D01*
X154993266Y-93578616D01*
X155044019Y-93661438D01*
X155107291Y-93764688D01*
X155109987Y-93769088D01*
X155256250Y-93937938D01*
X155428126Y-94080632D01*
X155443470Y-94089598D01*
X155501445Y-94123476D01*
X155550169Y-94175114D01*
X155563240Y-94244897D01*
X155536509Y-94310669D01*
X155496055Y-94344027D01*
X155483607Y-94350507D01*
X155479474Y-94353610D01*
X155479471Y-94353612D01*
X155455247Y-94371800D01*
X155304965Y-94484635D01*
X155150629Y-94646138D01*
X155024743Y-94830680D01*
X154930688Y-95033305D01*
X154870989Y-95248570D01*
X154847251Y-95470695D01*
X154847548Y-95475848D01*
X154847548Y-95475851D01*
X154853011Y-95570590D01*
X154860110Y-95693715D01*
X154861247Y-95698761D01*
X154861248Y-95698767D01*
X154881119Y-95786939D01*
X154909222Y-95911639D01*
X154993266Y-96118616D01*
X155044019Y-96201438D01*
X155107291Y-96304688D01*
X155109987Y-96309088D01*
X155256250Y-96477938D01*
X155428126Y-96620632D01*
X155443470Y-96629598D01*
X155501445Y-96663476D01*
X155550169Y-96715114D01*
X155563240Y-96784897D01*
X155536509Y-96850669D01*
X155496055Y-96884027D01*
X155483607Y-96890507D01*
X155479474Y-96893610D01*
X155479471Y-96893612D01*
X155455247Y-96911800D01*
X155304965Y-97024635D01*
X155150629Y-97186138D01*
X155024743Y-97370680D01*
X154930688Y-97573305D01*
X154870989Y-97788570D01*
X154847251Y-98010695D01*
X154847548Y-98015848D01*
X154847548Y-98015851D01*
X154853011Y-98110590D01*
X154860110Y-98233715D01*
X154861247Y-98238761D01*
X154861248Y-98238767D01*
X154881119Y-98326939D01*
X154909222Y-98451639D01*
X154993266Y-98658616D01*
X155044019Y-98741438D01*
X155107291Y-98844688D01*
X155109987Y-98849088D01*
X155256250Y-99017938D01*
X155428126Y-99160632D01*
X155443470Y-99169598D01*
X155501445Y-99203476D01*
X155550169Y-99255114D01*
X155563240Y-99324897D01*
X155536509Y-99390669D01*
X155496055Y-99424027D01*
X155483607Y-99430507D01*
X155479474Y-99433610D01*
X155479471Y-99433612D01*
X155309100Y-99561530D01*
X155304965Y-99564635D01*
X155150629Y-99726138D01*
X155147720Y-99730403D01*
X155147714Y-99730411D01*
X155062556Y-99855249D01*
X155024743Y-99910680D01*
X155009003Y-99944590D01*
X154933474Y-100107304D01*
X154930688Y-100113305D01*
X154870989Y-100328570D01*
X154847251Y-100550695D01*
X154847548Y-100555848D01*
X154847548Y-100555851D01*
X154853011Y-100650590D01*
X154860110Y-100773715D01*
X154861247Y-100778761D01*
X154861248Y-100778767D01*
X154874119Y-100835878D01*
X154909222Y-100991639D01*
X154993266Y-101198616D01*
X155044019Y-101281438D01*
X155107291Y-101384688D01*
X155109987Y-101389088D01*
X155256250Y-101557938D01*
X155428126Y-101700632D01*
X155443470Y-101709598D01*
X155501445Y-101743476D01*
X155550169Y-101795114D01*
X155563240Y-101864897D01*
X155536509Y-101930669D01*
X155496055Y-101964027D01*
X155483607Y-101970507D01*
X155479474Y-101973610D01*
X155479471Y-101973612D01*
X155455247Y-101991800D01*
X155304965Y-102104635D01*
X155150629Y-102266138D01*
X155024743Y-102450680D01*
X154930688Y-102653305D01*
X154870989Y-102868570D01*
X154847251Y-103090695D01*
X154847548Y-103095848D01*
X154847548Y-103095851D01*
X154853011Y-103190590D01*
X154860110Y-103313715D01*
X154861247Y-103318761D01*
X154861248Y-103318767D01*
X154881119Y-103406939D01*
X154909222Y-103531639D01*
X154993266Y-103738616D01*
X155044019Y-103821438D01*
X155107291Y-103924688D01*
X155109987Y-103929088D01*
X155256250Y-104097938D01*
X155428126Y-104240632D01*
X155443470Y-104249598D01*
X155501445Y-104283476D01*
X155550169Y-104335114D01*
X155563240Y-104404897D01*
X155536509Y-104470669D01*
X155496055Y-104504027D01*
X155483607Y-104510507D01*
X155479474Y-104513610D01*
X155479471Y-104513612D01*
X155455247Y-104531800D01*
X155304965Y-104644635D01*
X155150629Y-104806138D01*
X155024743Y-104990680D01*
X154930688Y-105193305D01*
X154870989Y-105408570D01*
X154847251Y-105630695D01*
X154847548Y-105635848D01*
X154847548Y-105635851D01*
X154853011Y-105730590D01*
X154860110Y-105853715D01*
X154861247Y-105858761D01*
X154861248Y-105858767D01*
X154881119Y-105946939D01*
X154909222Y-106071639D01*
X154993266Y-106278616D01*
X155044019Y-106361438D01*
X155107291Y-106464688D01*
X155109987Y-106469088D01*
X155256250Y-106637938D01*
X155428126Y-106780632D01*
X155443470Y-106789598D01*
X155501445Y-106823476D01*
X155550169Y-106875114D01*
X155563240Y-106944897D01*
X155536509Y-107010669D01*
X155496055Y-107044027D01*
X155483607Y-107050507D01*
X155479474Y-107053610D01*
X155479471Y-107053612D01*
X155455247Y-107071800D01*
X155304965Y-107184635D01*
X155150629Y-107346138D01*
X155024743Y-107530680D01*
X154930688Y-107733305D01*
X154870989Y-107948570D01*
X154847251Y-108170695D01*
X154847548Y-108175848D01*
X154847548Y-108175851D01*
X154853011Y-108270590D01*
X154860110Y-108393715D01*
X154861247Y-108398761D01*
X154861248Y-108398767D01*
X154881119Y-108486939D01*
X154909222Y-108611639D01*
X154993266Y-108818616D01*
X155044019Y-108901438D01*
X155107291Y-109004688D01*
X155109987Y-109009088D01*
X155256250Y-109177938D01*
X155428126Y-109320632D01*
X155443470Y-109329598D01*
X155501445Y-109363476D01*
X155550169Y-109415114D01*
X155563240Y-109484897D01*
X155536509Y-109550669D01*
X155496055Y-109584027D01*
X155483607Y-109590507D01*
X155479474Y-109593610D01*
X155479471Y-109593612D01*
X155455247Y-109611800D01*
X155304965Y-109724635D01*
X155150629Y-109886138D01*
X155024743Y-110070680D01*
X154930688Y-110273305D01*
X154870989Y-110488570D01*
X154847251Y-110710695D01*
X154847548Y-110715848D01*
X154847548Y-110715851D01*
X154853011Y-110810590D01*
X154860110Y-110933715D01*
X154861247Y-110938761D01*
X154861248Y-110938767D01*
X154881119Y-111026939D01*
X154909222Y-111151639D01*
X154993266Y-111358616D01*
X155044019Y-111441438D01*
X155107291Y-111544688D01*
X155109987Y-111549088D01*
X155256250Y-111717938D01*
X155428126Y-111860632D01*
X155443470Y-111869598D01*
X155501445Y-111903476D01*
X155550169Y-111955114D01*
X155563240Y-112024897D01*
X155536509Y-112090669D01*
X155496055Y-112124027D01*
X155483607Y-112130507D01*
X155479474Y-112133610D01*
X155479471Y-112133612D01*
X155387175Y-112202910D01*
X155304965Y-112264635D01*
X155150629Y-112426138D01*
X155024743Y-112610680D01*
X154930688Y-112813305D01*
X154870989Y-113028570D01*
X154847251Y-113250695D01*
X154847548Y-113255848D01*
X154847548Y-113255851D01*
X154858082Y-113438548D01*
X154860110Y-113473715D01*
X154861247Y-113478761D01*
X154861248Y-113478767D01*
X154881119Y-113566939D01*
X154909222Y-113691639D01*
X154963202Y-113824577D01*
X154980226Y-113866501D01*
X154993266Y-113898616D01*
X155044019Y-113981438D01*
X155107291Y-114084688D01*
X155109987Y-114089088D01*
X155256250Y-114257938D01*
X155428126Y-114400632D01*
X155497271Y-114441037D01*
X155501445Y-114443476D01*
X155550169Y-114495114D01*
X155563240Y-114564897D01*
X155536509Y-114630669D01*
X155496055Y-114664027D01*
X155483607Y-114670507D01*
X155479474Y-114673610D01*
X155479471Y-114673612D01*
X155455247Y-114691800D01*
X155304965Y-114804635D01*
X155150629Y-114966138D01*
X155024743Y-115150680D01*
X154930688Y-115353305D01*
X154870989Y-115568570D01*
X154847251Y-115790695D01*
X154847548Y-115795848D01*
X154847548Y-115795851D01*
X154853011Y-115890590D01*
X154860110Y-116013715D01*
X154861247Y-116018761D01*
X154861248Y-116018767D01*
X154861791Y-116021175D01*
X154909222Y-116231639D01*
X154993266Y-116438616D01*
X155044019Y-116521438D01*
X155107291Y-116624688D01*
X155109987Y-116629088D01*
X155256250Y-116797938D01*
X155428126Y-116940632D01*
X155443470Y-116949598D01*
X155501445Y-116983476D01*
X155550169Y-117035114D01*
X155563240Y-117104897D01*
X155536509Y-117170669D01*
X155496055Y-117204027D01*
X155483607Y-117210507D01*
X155479474Y-117213610D01*
X155479471Y-117213612D01*
X155455247Y-117231800D01*
X155304965Y-117344635D01*
X155150629Y-117506138D01*
X155147720Y-117510403D01*
X155147714Y-117510411D01*
X155132798Y-117532277D01*
X155024743Y-117690680D01*
X154989379Y-117766866D01*
X154957074Y-117836462D01*
X154930688Y-117893305D01*
X154870989Y-118108570D01*
X154847251Y-118330695D01*
X154847548Y-118335848D01*
X154847548Y-118335851D01*
X154853011Y-118430590D01*
X154860110Y-118553715D01*
X154861247Y-118558761D01*
X154861248Y-118558767D01*
X154871043Y-118602228D01*
X154909222Y-118771639D01*
X154993266Y-118978616D01*
X155041529Y-119057375D01*
X155107291Y-119164688D01*
X155109987Y-119169088D01*
X155256250Y-119337938D01*
X155428126Y-119480632D01*
X155443470Y-119489598D01*
X155501955Y-119523774D01*
X155550679Y-119575412D01*
X155563750Y-119645195D01*
X155537019Y-119710967D01*
X155496562Y-119744327D01*
X155488457Y-119748546D01*
X155479738Y-119754036D01*
X155309433Y-119881905D01*
X155301726Y-119888748D01*
X155154590Y-120042717D01*
X155148104Y-120050727D01*
X155028098Y-120226649D01*
X155023000Y-120235623D01*
X154933338Y-120428783D01*
X154929775Y-120438470D01*
X154874389Y-120638183D01*
X154875912Y-120646607D01*
X154888292Y-120650000D01*
X158878000Y-120650000D01*
X158946121Y-120670002D01*
X158992614Y-120723658D01*
X159004000Y-120776000D01*
X159004000Y-122222517D01*
X159008064Y-122236359D01*
X159021478Y-122238393D01*
X159028184Y-122237534D01*
X159038262Y-122235392D01*
X159242255Y-122174191D01*
X159251842Y-122170433D01*
X159330067Y-122132111D01*
X159400041Y-122120104D01*
X159465398Y-122147834D01*
X159505388Y-122206497D01*
X159511500Y-122245262D01*
X159511500Y-125730500D01*
X159491498Y-125798621D01*
X159437842Y-125845114D01*
X159385500Y-125856500D01*
X159052283Y-125856500D01*
X158984162Y-125836498D01*
X158937669Y-125782842D01*
X158927565Y-125712568D01*
X158956902Y-125648169D01*
X159065522Y-125522332D01*
X159065523Y-125522330D01*
X159069551Y-125517664D01*
X159127121Y-125416323D01*
X159161775Y-125355322D01*
X159161777Y-125355318D01*
X159164820Y-125349961D01*
X159225700Y-125166947D01*
X159231598Y-125120258D01*
X159249432Y-124979097D01*
X159249433Y-124979087D01*
X159249874Y-124975594D01*
X159250259Y-124948000D01*
X159231438Y-124756046D01*
X159175691Y-124571404D01*
X159085142Y-124401106D01*
X159081252Y-124396336D01*
X159081249Y-124396332D01*
X158967135Y-124256414D01*
X158967132Y-124256411D01*
X158963240Y-124251639D01*
X158958491Y-124247710D01*
X158819377Y-124132625D01*
X158819374Y-124132623D01*
X158814627Y-124128696D01*
X158644966Y-124036960D01*
X158520462Y-123998420D01*
X158466604Y-123981748D01*
X158466601Y-123981747D01*
X158460717Y-123979926D01*
X158454592Y-123979282D01*
X158454591Y-123979282D01*
X158275027Y-123960409D01*
X158275026Y-123960409D01*
X158268899Y-123959765D01*
X158189188Y-123967019D01*
X158082958Y-123976687D01*
X158082955Y-123976688D01*
X158076819Y-123977246D01*
X158070913Y-123978984D01*
X158070909Y-123978985D01*
X158004875Y-123998420D01*
X157891792Y-124031702D01*
X157720866Y-124121060D01*
X157570551Y-124241916D01*
X157566593Y-124246633D01*
X157566591Y-124246635D01*
X157540132Y-124278168D01*
X157446574Y-124389666D01*
X157443610Y-124395058D01*
X157443607Y-124395062D01*
X157390680Y-124491337D01*
X157353656Y-124558683D01*
X157295337Y-124742529D01*
X157294651Y-124748646D01*
X157294650Y-124748650D01*
X157274524Y-124928077D01*
X157273837Y-124934202D01*
X157289977Y-125126400D01*
X157291676Y-125132325D01*
X157340977Y-125304258D01*
X157343140Y-125311802D01*
X157345955Y-125317279D01*
X157345956Y-125317282D01*
X157393897Y-125410566D01*
X157431302Y-125483348D01*
X157435125Y-125488172D01*
X157435128Y-125488176D01*
X157529931Y-125607786D01*
X157551106Y-125634502D01*
X157555800Y-125638497D01*
X157560080Y-125642929D01*
X157557933Y-125645003D01*
X157589966Y-125693585D01*
X157590800Y-125764576D01*
X157553120Y-125824749D01*
X157488890Y-125854998D01*
X157469495Y-125856500D01*
X113366193Y-125856500D01*
X113298072Y-125836498D01*
X113251579Y-125782842D01*
X113241475Y-125712568D01*
X113249325Y-125683407D01*
X113316686Y-125516263D01*
X113357228Y-125308663D01*
X113357500Y-125303101D01*
X113357500Y-124547154D01*
X113342452Y-124389434D01*
X113282908Y-124186466D01*
X113229368Y-124082511D01*
X113188804Y-124003751D01*
X113188802Y-124003748D01*
X113186058Y-123998420D01*
X113055396Y-123832080D01*
X113050865Y-123828148D01*
X113050862Y-123828145D01*
X112900167Y-123697379D01*
X112895637Y-123693448D01*
X112890451Y-123690448D01*
X112890447Y-123690445D01*
X112717742Y-123590533D01*
X112712546Y-123587527D01*
X112512729Y-123518139D01*
X112506794Y-123517278D01*
X112506792Y-123517278D01*
X112309336Y-123488648D01*
X112309333Y-123488648D01*
X112303396Y-123487787D01*
X112092101Y-123497567D01*
X111960923Y-123529181D01*
X111892299Y-123545719D01*
X111892297Y-123545720D01*
X111886466Y-123547125D01*
X111881008Y-123549607D01*
X111881004Y-123549608D01*
X111765959Y-123601916D01*
X111693913Y-123634674D01*
X111521389Y-123757054D01*
X111375119Y-123909850D01*
X111260380Y-124087548D01*
X111181314Y-124283737D01*
X111140772Y-124491337D01*
X111140500Y-124496899D01*
X111140500Y-125252846D01*
X111155548Y-125410566D01*
X111215092Y-125613534D01*
X111217836Y-125618861D01*
X111217836Y-125618862D01*
X111245620Y-125672808D01*
X111259029Y-125742527D01*
X111232616Y-125808427D01*
X111174767Y-125849587D01*
X111133604Y-125856500D01*
X104706193Y-125856500D01*
X104638072Y-125836498D01*
X104591579Y-125782842D01*
X104581475Y-125712568D01*
X104589325Y-125683407D01*
X104656686Y-125516263D01*
X104697228Y-125308663D01*
X104697500Y-125303101D01*
X104697500Y-124547154D01*
X104682452Y-124389434D01*
X104622908Y-124186466D01*
X104569368Y-124082511D01*
X104528804Y-124003751D01*
X104528802Y-124003748D01*
X104526058Y-123998420D01*
X104395396Y-123832080D01*
X104390865Y-123828148D01*
X104390862Y-123828145D01*
X104240167Y-123697379D01*
X104235637Y-123693448D01*
X104230451Y-123690448D01*
X104230447Y-123690445D01*
X104057742Y-123590533D01*
X104052546Y-123587527D01*
X103852729Y-123518139D01*
X103846794Y-123517278D01*
X103846792Y-123517278D01*
X103649336Y-123488648D01*
X103649333Y-123488648D01*
X103643396Y-123487787D01*
X103432101Y-123497567D01*
X103300923Y-123529181D01*
X103232299Y-123545719D01*
X103232297Y-123545720D01*
X103226466Y-123547125D01*
X103221008Y-123549607D01*
X103221004Y-123549608D01*
X103105959Y-123601916D01*
X103033913Y-123634674D01*
X102861389Y-123757054D01*
X102715119Y-123909850D01*
X102600380Y-124087548D01*
X102521314Y-124283737D01*
X102480772Y-124491337D01*
X102480500Y-124496899D01*
X102480500Y-125252846D01*
X102495548Y-125410566D01*
X102555092Y-125613534D01*
X102557836Y-125618861D01*
X102557836Y-125618862D01*
X102585620Y-125672808D01*
X102599029Y-125742527D01*
X102572616Y-125808427D01*
X102514767Y-125849587D01*
X102473604Y-125856500D01*
X94614500Y-125856500D01*
X94546379Y-125836498D01*
X94499886Y-125782842D01*
X94488500Y-125730500D01*
X94488500Y-122249749D01*
X94508502Y-122181628D01*
X94562158Y-122135135D01*
X94632432Y-122125031D01*
X94660914Y-122133680D01*
X94661217Y-122132886D01*
X94865001Y-122210703D01*
X94874899Y-122213579D01*
X94978250Y-122234606D01*
X94992299Y-122233410D01*
X94996000Y-122223065D01*
X94996000Y-122222517D01*
X95504000Y-122222517D01*
X95508064Y-122236359D01*
X95521478Y-122238393D01*
X95528184Y-122237534D01*
X95538262Y-122235392D01*
X95742255Y-122174191D01*
X95751842Y-122170433D01*
X95943095Y-122076739D01*
X95951945Y-122071464D01*
X96125328Y-121947792D01*
X96133200Y-121941139D01*
X96284052Y-121790812D01*
X96290730Y-121782965D01*
X96418022Y-121605819D01*
X96419147Y-121606627D01*
X96466669Y-121562876D01*
X96536607Y-121550661D01*
X96602046Y-121578197D01*
X96629870Y-121610028D01*
X96687690Y-121704383D01*
X96693777Y-121712699D01*
X96833213Y-121873667D01*
X96840580Y-121880883D01*
X97004434Y-122016916D01*
X97012881Y-122022831D01*
X97196756Y-122130279D01*
X97206042Y-122134729D01*
X97405001Y-122210703D01*
X97414899Y-122213579D01*
X97518250Y-122234606D01*
X97532299Y-122233410D01*
X97536000Y-122223065D01*
X97536000Y-122222517D01*
X98044000Y-122222517D01*
X98048064Y-122236359D01*
X98061478Y-122238393D01*
X98068184Y-122237534D01*
X98078262Y-122235392D01*
X98282255Y-122174191D01*
X98291842Y-122170433D01*
X98483095Y-122076739D01*
X98491945Y-122071464D01*
X98665328Y-121947792D01*
X98673200Y-121941139D01*
X98824052Y-121790812D01*
X98830730Y-121782965D01*
X98955003Y-121610020D01*
X98960313Y-121601183D01*
X99054670Y-121410267D01*
X99058469Y-121400672D01*
X99120377Y-121196910D01*
X99122555Y-121186837D01*
X99123986Y-121175962D01*
X99121775Y-121161778D01*
X99108617Y-121158000D01*
X98062115Y-121158000D01*
X98046876Y-121162475D01*
X98045671Y-121163865D01*
X98044000Y-121171548D01*
X98044000Y-122222517D01*
X97536000Y-122222517D01*
X97536000Y-121176115D01*
X97531525Y-121160876D01*
X97530135Y-121159671D01*
X97522452Y-121158000D01*
X95522115Y-121158000D01*
X95506876Y-121162475D01*
X95505671Y-121163865D01*
X95504000Y-121171548D01*
X95504000Y-122222517D01*
X94996000Y-122222517D01*
X94996000Y-121152846D01*
X102480500Y-121152846D01*
X102495548Y-121310566D01*
X102555092Y-121513534D01*
X102557836Y-121518861D01*
X102557836Y-121518862D01*
X102604790Y-121610028D01*
X102651942Y-121701580D01*
X102782604Y-121867920D01*
X102787135Y-121871852D01*
X102787138Y-121871855D01*
X102873058Y-121946412D01*
X102942363Y-122006552D01*
X102947549Y-122009552D01*
X102947553Y-122009555D01*
X103073001Y-122082128D01*
X103125454Y-122112473D01*
X103325271Y-122181861D01*
X103331206Y-122182722D01*
X103331208Y-122182722D01*
X103528664Y-122211352D01*
X103528667Y-122211352D01*
X103534604Y-122212213D01*
X103745899Y-122202433D01*
X103878679Y-122170433D01*
X103945701Y-122154281D01*
X103945703Y-122154280D01*
X103951534Y-122152875D01*
X103956992Y-122150393D01*
X103956996Y-122150392D01*
X104072041Y-122098084D01*
X104144087Y-122065326D01*
X104316611Y-121942946D01*
X104331548Y-121927342D01*
X104393102Y-121891968D01*
X104464012Y-121895487D01*
X104496625Y-121912539D01*
X104545147Y-121947792D01*
X104574816Y-121969348D01*
X104580844Y-121972032D01*
X104580846Y-121972033D01*
X104738448Y-122042202D01*
X104744479Y-122044887D01*
X104835309Y-122064193D01*
X104919683Y-122082128D01*
X104919687Y-122082128D01*
X104926140Y-122083500D01*
X105111860Y-122083500D01*
X105118313Y-122082128D01*
X105118317Y-122082128D01*
X105202691Y-122064193D01*
X105293521Y-122044887D01*
X105299552Y-122042202D01*
X105457154Y-121972033D01*
X105457156Y-121972032D01*
X105463184Y-121969348D01*
X105468526Y-121965467D01*
X105608090Y-121864068D01*
X105608092Y-121864066D01*
X105613434Y-121860185D01*
X105737704Y-121722169D01*
X105807555Y-121601183D01*
X105827260Y-121567054D01*
X105827261Y-121567053D01*
X105830564Y-121561331D01*
X105879613Y-121410373D01*
X105885914Y-121390981D01*
X105885914Y-121390980D01*
X105887954Y-121384702D01*
X105907367Y-121200000D01*
X109930633Y-121200000D01*
X109950046Y-121384702D01*
X109952086Y-121390980D01*
X109952086Y-121390981D01*
X109958387Y-121410373D01*
X110007436Y-121561331D01*
X110010739Y-121567053D01*
X110010740Y-121567054D01*
X110030445Y-121601183D01*
X110100296Y-121722169D01*
X110224566Y-121860185D01*
X110229908Y-121864066D01*
X110229910Y-121864068D01*
X110369474Y-121965467D01*
X110374816Y-121969348D01*
X110380844Y-121972032D01*
X110380846Y-121972033D01*
X110538448Y-122042202D01*
X110544479Y-122044887D01*
X110635309Y-122064193D01*
X110719683Y-122082128D01*
X110719687Y-122082128D01*
X110726140Y-122083500D01*
X110911860Y-122083500D01*
X110918313Y-122082128D01*
X110918317Y-122082128D01*
X111002691Y-122064193D01*
X111093521Y-122044887D01*
X111099552Y-122042202D01*
X111257154Y-121972033D01*
X111257156Y-121972032D01*
X111263184Y-121969348D01*
X111343451Y-121911031D01*
X111410315Y-121887174D01*
X111479467Y-121903254D01*
X111500089Y-121917803D01*
X111602363Y-122006552D01*
X111607549Y-122009552D01*
X111607553Y-122009555D01*
X111733001Y-122082128D01*
X111785454Y-122112473D01*
X111985271Y-122181861D01*
X111991206Y-122182722D01*
X111991208Y-122182722D01*
X112188664Y-122211352D01*
X112188667Y-122211352D01*
X112194604Y-122212213D01*
X112405899Y-122202433D01*
X112538679Y-122170433D01*
X112605701Y-122154281D01*
X112605703Y-122154280D01*
X112611534Y-122152875D01*
X112616992Y-122150393D01*
X112616996Y-122150392D01*
X112732041Y-122098084D01*
X112804087Y-122065326D01*
X112944862Y-121965467D01*
X112971725Y-121946412D01*
X112971726Y-121946411D01*
X112976611Y-121942946D01*
X113122881Y-121790150D01*
X113237620Y-121612452D01*
X113316686Y-121416263D01*
X113357228Y-121208663D01*
X113357500Y-121203101D01*
X113357500Y-121171966D01*
X154878257Y-121171966D01*
X154908565Y-121306446D01*
X154911645Y-121316275D01*
X154991770Y-121513603D01*
X154996413Y-121522794D01*
X155107694Y-121704388D01*
X155113777Y-121712699D01*
X155253213Y-121873667D01*
X155260580Y-121880883D01*
X155424434Y-122016916D01*
X155432881Y-122022831D01*
X155616756Y-122130279D01*
X155626042Y-122134729D01*
X155825001Y-122210703D01*
X155834899Y-122213579D01*
X155938250Y-122234606D01*
X155952299Y-122233410D01*
X155956000Y-122223065D01*
X155956000Y-122222517D01*
X156464000Y-122222517D01*
X156468064Y-122236359D01*
X156481478Y-122238393D01*
X156488184Y-122237534D01*
X156498262Y-122235392D01*
X156702255Y-122174191D01*
X156711842Y-122170433D01*
X156903095Y-122076739D01*
X156911945Y-122071464D01*
X157085328Y-121947792D01*
X157093200Y-121941139D01*
X157244052Y-121790812D01*
X157250730Y-121782965D01*
X157378022Y-121605819D01*
X157379147Y-121606627D01*
X157426669Y-121562876D01*
X157496607Y-121550661D01*
X157562046Y-121578197D01*
X157589870Y-121610028D01*
X157647690Y-121704383D01*
X157653777Y-121712699D01*
X157793213Y-121873667D01*
X157800580Y-121880883D01*
X157964434Y-122016916D01*
X157972881Y-122022831D01*
X158156756Y-122130279D01*
X158166042Y-122134729D01*
X158365001Y-122210703D01*
X158374899Y-122213579D01*
X158478250Y-122234606D01*
X158492299Y-122233410D01*
X158496000Y-122223065D01*
X158496000Y-121176115D01*
X158491525Y-121160876D01*
X158490135Y-121159671D01*
X158482452Y-121158000D01*
X156482115Y-121158000D01*
X156466876Y-121162475D01*
X156465671Y-121163865D01*
X156464000Y-121171548D01*
X156464000Y-122222517D01*
X155956000Y-122222517D01*
X155956000Y-121176115D01*
X155951525Y-121160876D01*
X155950135Y-121159671D01*
X155942452Y-121158000D01*
X154893225Y-121158000D01*
X154879694Y-121161973D01*
X154878257Y-121171966D01*
X113357500Y-121171966D01*
X113357500Y-120247154D01*
X113342452Y-120089434D01*
X113282908Y-119886466D01*
X113209702Y-119744327D01*
X113188804Y-119703751D01*
X113188802Y-119703748D01*
X113186058Y-119698420D01*
X113055396Y-119532080D01*
X113050865Y-119528148D01*
X113050862Y-119528145D01*
X112909149Y-119405173D01*
X112895637Y-119393448D01*
X112890451Y-119390448D01*
X112890447Y-119390445D01*
X112717742Y-119290533D01*
X112712546Y-119287527D01*
X112512729Y-119218139D01*
X112506794Y-119217278D01*
X112506792Y-119217278D01*
X112309336Y-119188648D01*
X112309333Y-119188648D01*
X112303396Y-119187787D01*
X112092101Y-119197567D01*
X111983188Y-119223815D01*
X111892299Y-119245719D01*
X111892297Y-119245720D01*
X111886466Y-119247125D01*
X111881008Y-119249607D01*
X111881004Y-119249608D01*
X111765959Y-119301916D01*
X111693913Y-119334674D01*
X111521389Y-119457054D01*
X111375119Y-119609850D01*
X111260380Y-119787548D01*
X111181314Y-119983737D01*
X111140772Y-120191337D01*
X111140500Y-120196899D01*
X111140500Y-120209501D01*
X111120498Y-120277622D01*
X111066842Y-120324115D01*
X110996568Y-120334219D01*
X110988304Y-120332748D01*
X110918319Y-120317873D01*
X110918320Y-120317873D01*
X110911860Y-120316500D01*
X110726140Y-120316500D01*
X110719687Y-120317872D01*
X110719683Y-120317872D01*
X110642778Y-120334219D01*
X110544479Y-120355113D01*
X110538450Y-120357797D01*
X110538448Y-120357798D01*
X110380847Y-120427967D01*
X110380845Y-120427968D01*
X110374817Y-120430652D01*
X110369476Y-120434532D01*
X110369475Y-120434533D01*
X110229910Y-120535932D01*
X110229908Y-120535934D01*
X110224566Y-120539815D01*
X110100296Y-120677831D01*
X110007436Y-120838669D01*
X109950046Y-121015298D01*
X109949356Y-121021861D01*
X109949356Y-121021862D01*
X109933143Y-121176115D01*
X109930633Y-121200000D01*
X105907367Y-121200000D01*
X105904857Y-121176115D01*
X105888644Y-121021862D01*
X105888644Y-121021861D01*
X105887954Y-121015298D01*
X105830564Y-120838669D01*
X105737704Y-120677831D01*
X105613434Y-120539815D01*
X105463184Y-120430652D01*
X105457156Y-120427968D01*
X105457154Y-120427967D01*
X105299552Y-120357798D01*
X105299551Y-120357798D01*
X105293521Y-120355113D01*
X105195222Y-120334219D01*
X105118317Y-120317872D01*
X105118313Y-120317872D01*
X105111860Y-120316500D01*
X104926140Y-120316500D01*
X104919687Y-120317872D01*
X104919683Y-120317872D01*
X104872910Y-120327814D01*
X104846735Y-120333378D01*
X104775945Y-120327976D01*
X104719313Y-120285159D01*
X104695109Y-120222098D01*
X104693908Y-120209501D01*
X104682452Y-120089434D01*
X104622908Y-119886466D01*
X104549702Y-119744327D01*
X104528804Y-119703751D01*
X104528802Y-119703748D01*
X104526058Y-119698420D01*
X104422311Y-119566344D01*
X104395961Y-119500418D01*
X104409436Y-119430712D01*
X104458458Y-119379357D01*
X104502846Y-119365630D01*
X104502592Y-119364189D01*
X104508667Y-119363118D01*
X104514809Y-119362645D01*
X104700579Y-119310777D01*
X104834178Y-119243292D01*
X104867235Y-119226594D01*
X104867237Y-119226593D01*
X104872736Y-119223815D01*
X105024723Y-119105069D01*
X105028749Y-119100405D01*
X105028752Y-119100402D01*
X105146722Y-118963732D01*
X105146723Y-118963730D01*
X105150751Y-118959064D01*
X105246020Y-118791361D01*
X105292356Y-118652069D01*
X105304955Y-118614195D01*
X105304956Y-118614192D01*
X105306900Y-118608347D01*
X105314455Y-118548547D01*
X105330632Y-118420497D01*
X105330633Y-118420487D01*
X105331074Y-118416994D01*
X105331459Y-118389400D01*
X105312638Y-118197446D01*
X105256891Y-118012804D01*
X105190856Y-117888610D01*
X105169236Y-117847948D01*
X105169234Y-117847945D01*
X105166342Y-117842506D01*
X105162452Y-117837736D01*
X105162449Y-117837732D01*
X105048335Y-117697814D01*
X105048332Y-117697811D01*
X105044440Y-117693039D01*
X105039691Y-117689110D01*
X104900577Y-117574025D01*
X104900574Y-117574023D01*
X104895827Y-117570096D01*
X104726166Y-117478360D01*
X104634041Y-117449843D01*
X104547804Y-117423148D01*
X104547801Y-117423147D01*
X104541917Y-117421326D01*
X104535792Y-117420682D01*
X104535791Y-117420682D01*
X104356227Y-117401809D01*
X104356226Y-117401809D01*
X104350099Y-117401165D01*
X104270388Y-117408419D01*
X104164158Y-117418087D01*
X104164155Y-117418088D01*
X104158019Y-117418646D01*
X104152113Y-117420384D01*
X104152109Y-117420385D01*
X104013995Y-117461034D01*
X103972992Y-117473102D01*
X103802066Y-117562460D01*
X103651751Y-117683316D01*
X103647793Y-117688033D01*
X103647791Y-117688035D01*
X103626294Y-117713654D01*
X103527774Y-117831066D01*
X103524810Y-117836458D01*
X103524807Y-117836462D01*
X103490813Y-117898297D01*
X103434856Y-118000083D01*
X103376537Y-118183929D01*
X103375851Y-118190046D01*
X103375850Y-118190050D01*
X103360650Y-118325562D01*
X103355037Y-118375602D01*
X103371177Y-118567800D01*
X103372876Y-118573725D01*
X103384481Y-118614195D01*
X103424340Y-118753202D01*
X103427155Y-118758679D01*
X103427156Y-118758682D01*
X103484598Y-118870453D01*
X103512502Y-118924748D01*
X103516325Y-118929572D01*
X103516328Y-118929576D01*
X103565461Y-118991565D01*
X103592099Y-119057375D01*
X103578929Y-119127139D01*
X103530132Y-119178708D01*
X103472542Y-119195695D01*
X103459834Y-119196283D01*
X103432101Y-119197567D01*
X103323188Y-119223815D01*
X103232299Y-119245719D01*
X103232297Y-119245720D01*
X103226466Y-119247125D01*
X103221008Y-119249607D01*
X103221004Y-119249608D01*
X103105959Y-119301916D01*
X103033913Y-119334674D01*
X102861389Y-119457054D01*
X102715119Y-119609850D01*
X102600380Y-119787548D01*
X102521314Y-119983737D01*
X102480772Y-120191337D01*
X102480500Y-120196899D01*
X102480500Y-121152846D01*
X94996000Y-121152846D01*
X94996000Y-120776000D01*
X95016002Y-120707879D01*
X95069658Y-120661386D01*
X95122000Y-120650000D01*
X99108344Y-120650000D01*
X99121875Y-120646027D01*
X99123180Y-120636947D01*
X99081214Y-120469875D01*
X99077894Y-120460124D01*
X98992972Y-120264814D01*
X98988105Y-120255739D01*
X98872426Y-120076926D01*
X98866136Y-120068757D01*
X98722806Y-119911240D01*
X98715273Y-119904215D01*
X98548139Y-119772222D01*
X98539556Y-119766520D01*
X98502602Y-119746120D01*
X98452631Y-119695687D01*
X98437859Y-119626245D01*
X98462975Y-119559839D01*
X98490327Y-119533232D01*
X98551500Y-119489598D01*
X98669860Y-119405173D01*
X98677682Y-119397379D01*
X98824435Y-119251137D01*
X98828096Y-119247489D01*
X98843111Y-119226594D01*
X98955435Y-119070277D01*
X98958453Y-119066077D01*
X98979320Y-119023857D01*
X99055136Y-118870453D01*
X99055137Y-118870451D01*
X99057430Y-118865811D01*
X99122370Y-118652069D01*
X99151529Y-118430590D01*
X99152450Y-118392905D01*
X99153074Y-118367365D01*
X99153074Y-118367361D01*
X99153156Y-118364000D01*
X99134852Y-118141361D01*
X99080431Y-117924702D01*
X98991354Y-117719840D01*
X98892584Y-117567165D01*
X98872822Y-117536617D01*
X98872820Y-117536614D01*
X98870014Y-117532277D01*
X98719670Y-117367051D01*
X98715619Y-117363852D01*
X98715615Y-117363848D01*
X98548414Y-117231800D01*
X98548410Y-117231798D01*
X98544359Y-117228598D01*
X98503053Y-117205796D01*
X98453084Y-117155364D01*
X98438312Y-117085921D01*
X98463428Y-117019516D01*
X98490780Y-116992909D01*
X98551500Y-116949598D01*
X98669860Y-116865173D01*
X98705797Y-116829362D01*
X98751209Y-116784107D01*
X98828096Y-116707489D01*
X98887594Y-116624689D01*
X98955435Y-116530277D01*
X98958453Y-116526077D01*
X98979320Y-116483857D01*
X99055136Y-116330453D01*
X99055137Y-116330451D01*
X99057430Y-116325811D01*
X99095297Y-116201177D01*
X99120865Y-116117023D01*
X99120865Y-116117021D01*
X99122370Y-116112069D01*
X99151529Y-115890590D01*
X99153156Y-115824000D01*
X99134852Y-115601361D01*
X99080431Y-115384702D01*
X98991354Y-115179840D01*
X98957817Y-115128000D01*
X116909335Y-115128000D01*
X116927965Y-115364711D01*
X116929119Y-115369518D01*
X116929120Y-115369524D01*
X116932764Y-115384702D01*
X116983395Y-115595594D01*
X116985288Y-115600165D01*
X116985289Y-115600167D01*
X117066344Y-115795851D01*
X117074260Y-115814963D01*
X117076846Y-115819183D01*
X117195741Y-116013202D01*
X117195745Y-116013208D01*
X117198324Y-116017416D01*
X117352531Y-116197969D01*
X117533084Y-116352176D01*
X117537292Y-116354755D01*
X117537298Y-116354759D01*
X117728006Y-116471625D01*
X117735537Y-116476240D01*
X117740107Y-116478133D01*
X117740111Y-116478135D01*
X117950333Y-116565211D01*
X117954906Y-116567105D01*
X118024962Y-116583924D01*
X118180976Y-116621380D01*
X118180982Y-116621381D01*
X118185789Y-116622535D01*
X118422500Y-116641165D01*
X118659211Y-116622535D01*
X118664018Y-116621381D01*
X118664024Y-116621380D01*
X118820038Y-116583924D01*
X118890094Y-116567105D01*
X118894667Y-116565211D01*
X119104889Y-116478135D01*
X119104893Y-116478133D01*
X119109463Y-116476240D01*
X119116994Y-116471625D01*
X119307702Y-116354759D01*
X119307708Y-116354755D01*
X119311916Y-116352176D01*
X119492469Y-116197969D01*
X119646676Y-116017416D01*
X119649255Y-116013208D01*
X119649259Y-116013202D01*
X119768154Y-115819183D01*
X119770740Y-115814963D01*
X119778657Y-115795851D01*
X119859711Y-115600167D01*
X119859712Y-115600165D01*
X119861605Y-115595594D01*
X119912236Y-115384702D01*
X119915880Y-115369524D01*
X119915881Y-115369518D01*
X119917035Y-115364711D01*
X119935665Y-115128000D01*
X119917035Y-114891289D01*
X119861605Y-114660406D01*
X119818275Y-114555797D01*
X119772635Y-114445611D01*
X119772633Y-114445607D01*
X119770740Y-114441037D01*
X119743954Y-114397327D01*
X119649259Y-114242798D01*
X119649255Y-114242792D01*
X119646676Y-114238584D01*
X119492469Y-114058031D01*
X119311916Y-113903824D01*
X119307708Y-113901245D01*
X119307702Y-113901241D01*
X119113683Y-113782346D01*
X119109463Y-113779760D01*
X119104893Y-113777867D01*
X119104889Y-113777865D01*
X118894667Y-113690789D01*
X118894665Y-113690788D01*
X118890094Y-113688895D01*
X118809891Y-113669640D01*
X118664024Y-113634620D01*
X118664018Y-113634619D01*
X118659211Y-113633465D01*
X118422500Y-113614835D01*
X118185789Y-113633465D01*
X118180982Y-113634619D01*
X118180976Y-113634620D01*
X118035109Y-113669640D01*
X117954906Y-113688895D01*
X117950335Y-113690788D01*
X117950333Y-113690789D01*
X117740111Y-113777865D01*
X117740107Y-113777867D01*
X117735537Y-113779760D01*
X117731317Y-113782346D01*
X117537298Y-113901241D01*
X117537292Y-113901245D01*
X117533084Y-113903824D01*
X117352531Y-114058031D01*
X117198324Y-114238584D01*
X117195745Y-114242792D01*
X117195741Y-114242798D01*
X117101046Y-114397327D01*
X117074260Y-114441037D01*
X117072367Y-114445607D01*
X117072365Y-114445611D01*
X117026725Y-114555797D01*
X116983395Y-114660406D01*
X116927965Y-114891289D01*
X116909335Y-115128000D01*
X98957817Y-115128000D01*
X98870014Y-114992277D01*
X98719670Y-114827051D01*
X98715619Y-114823852D01*
X98715615Y-114823848D01*
X98548414Y-114691800D01*
X98548410Y-114691798D01*
X98544359Y-114688598D01*
X98503053Y-114665796D01*
X98453084Y-114615364D01*
X98438312Y-114545921D01*
X98463428Y-114479516D01*
X98490780Y-114452909D01*
X98551500Y-114409598D01*
X98669860Y-114325173D01*
X98828096Y-114167489D01*
X98887594Y-114084689D01*
X98955435Y-113990277D01*
X98958453Y-113986077D01*
X98979320Y-113943857D01*
X99055136Y-113790453D01*
X99055137Y-113790451D01*
X99057430Y-113785811D01*
X99089900Y-113678940D01*
X99120865Y-113577023D01*
X99120865Y-113577021D01*
X99122370Y-113572069D01*
X99151529Y-113350590D01*
X99153156Y-113284000D01*
X99134852Y-113061361D01*
X99091659Y-112889402D01*
X110973137Y-112889402D01*
X110989277Y-113081600D01*
X110990976Y-113087525D01*
X111039243Y-113255851D01*
X111042440Y-113267002D01*
X111045255Y-113272479D01*
X111045256Y-113272482D01*
X111052905Y-113287365D01*
X111130602Y-113438548D01*
X111134425Y-113443372D01*
X111134428Y-113443376D01*
X111162479Y-113478767D01*
X111250406Y-113589702D01*
X111255100Y-113593697D01*
X111375805Y-113696425D01*
X111397287Y-113714708D01*
X111565651Y-113808804D01*
X111749086Y-113868405D01*
X111940603Y-113891242D01*
X111946738Y-113890770D01*
X111946740Y-113890770D01*
X112126767Y-113876918D01*
X112126771Y-113876917D01*
X112132909Y-113876445D01*
X112318679Y-113824577D01*
X112423398Y-113771680D01*
X112485335Y-113740394D01*
X112485337Y-113740393D01*
X112490836Y-113737615D01*
X112642823Y-113618869D01*
X112646849Y-113614205D01*
X112646852Y-113614202D01*
X112764822Y-113477532D01*
X112764823Y-113477530D01*
X112768851Y-113472864D01*
X112864120Y-113305161D01*
X112925000Y-113122147D01*
X112937451Y-113023588D01*
X112948732Y-112934297D01*
X112948733Y-112934287D01*
X112949174Y-112930794D01*
X112949559Y-112903200D01*
X112930738Y-112711246D01*
X112874991Y-112526604D01*
X112784442Y-112356306D01*
X112780552Y-112351536D01*
X112780549Y-112351532D01*
X112666435Y-112211614D01*
X112666432Y-112211611D01*
X112662540Y-112206839D01*
X112657791Y-112202910D01*
X112518677Y-112087825D01*
X112518674Y-112087823D01*
X112513927Y-112083896D01*
X112344266Y-111992160D01*
X112252142Y-111963643D01*
X112165904Y-111936948D01*
X112165901Y-111936947D01*
X112160017Y-111935126D01*
X112153892Y-111934482D01*
X112153891Y-111934482D01*
X111974327Y-111915609D01*
X111974326Y-111915609D01*
X111968199Y-111914965D01*
X111888488Y-111922219D01*
X111782258Y-111931887D01*
X111782255Y-111931888D01*
X111776119Y-111932446D01*
X111770213Y-111934184D01*
X111770209Y-111934185D01*
X111699099Y-111955114D01*
X111591092Y-111986902D01*
X111420166Y-112076260D01*
X111269851Y-112197116D01*
X111265893Y-112201833D01*
X111265891Y-112201835D01*
X111215801Y-112261530D01*
X111145874Y-112344866D01*
X111142910Y-112350258D01*
X111142907Y-112350262D01*
X111098845Y-112430411D01*
X111052956Y-112513883D01*
X110994637Y-112697729D01*
X110993951Y-112703846D01*
X110993950Y-112703850D01*
X110978151Y-112844702D01*
X110973137Y-112889402D01*
X99091659Y-112889402D01*
X99080431Y-112844702D01*
X98991354Y-112639840D01*
X98870014Y-112452277D01*
X98719670Y-112287051D01*
X98715619Y-112283852D01*
X98715615Y-112283848D01*
X98548414Y-112151800D01*
X98548410Y-112151798D01*
X98544359Y-112148598D01*
X98503053Y-112125796D01*
X98453084Y-112075364D01*
X98438312Y-112005921D01*
X98463428Y-111939516D01*
X98490780Y-111912909D01*
X98551500Y-111869598D01*
X98669860Y-111785173D01*
X98828096Y-111627489D01*
X98887594Y-111544689D01*
X98955435Y-111450277D01*
X98958453Y-111446077D01*
X98979320Y-111403857D01*
X99055136Y-111250453D01*
X99055137Y-111250451D01*
X99057430Y-111245811D01*
X99122370Y-111032069D01*
X99151529Y-110810590D01*
X99153156Y-110744000D01*
X99134852Y-110521361D01*
X99080431Y-110304702D01*
X98991354Y-110099840D01*
X98870014Y-109912277D01*
X98719670Y-109747051D01*
X98715619Y-109743852D01*
X98715615Y-109743848D01*
X98548414Y-109611800D01*
X98548410Y-109611798D01*
X98544359Y-109608598D01*
X98503053Y-109585796D01*
X98453084Y-109535364D01*
X98438312Y-109465921D01*
X98463428Y-109399516D01*
X98490780Y-109372909D01*
X98551500Y-109329598D01*
X98669860Y-109245173D01*
X98828096Y-109087489D01*
X98887594Y-109004689D01*
X98955435Y-108910277D01*
X98958453Y-108906077D01*
X98979320Y-108863857D01*
X99055136Y-108710453D01*
X99055137Y-108710451D01*
X99057430Y-108705811D01*
X99122370Y-108492069D01*
X99151529Y-108270590D01*
X99153156Y-108204000D01*
X99134852Y-107981361D01*
X99080431Y-107764702D01*
X98991354Y-107559840D01*
X98870014Y-107372277D01*
X98719670Y-107207051D01*
X98715619Y-107203852D01*
X98715615Y-107203848D01*
X98548414Y-107071800D01*
X98548410Y-107071798D01*
X98544359Y-107068598D01*
X98503053Y-107045796D01*
X98453084Y-106995364D01*
X98438312Y-106925921D01*
X98463428Y-106859516D01*
X98490780Y-106832909D01*
X98551500Y-106789598D01*
X98669860Y-106705173D01*
X98828096Y-106547489D01*
X98887594Y-106464689D01*
X98955435Y-106370277D01*
X98958453Y-106366077D01*
X98979320Y-106323857D01*
X99055136Y-106170453D01*
X99055137Y-106170451D01*
X99057430Y-106165811D01*
X99122370Y-105952069D01*
X99151529Y-105730590D01*
X99153156Y-105664000D01*
X99134852Y-105441361D01*
X99080431Y-105224702D01*
X98991354Y-105019840D01*
X98870014Y-104832277D01*
X98719670Y-104667051D01*
X98715619Y-104663852D01*
X98715615Y-104663848D01*
X98548414Y-104531800D01*
X98548410Y-104531798D01*
X98544359Y-104528598D01*
X98503053Y-104505796D01*
X98453084Y-104455364D01*
X98438312Y-104385921D01*
X98463428Y-104319516D01*
X98490780Y-104292909D01*
X98551500Y-104249598D01*
X98669860Y-104165173D01*
X98828096Y-104007489D01*
X98887594Y-103924689D01*
X98955435Y-103830277D01*
X98958453Y-103826077D01*
X98979320Y-103783857D01*
X99055136Y-103630453D01*
X99055137Y-103630451D01*
X99057430Y-103625811D01*
X99122370Y-103412069D01*
X99151529Y-103190590D01*
X99153156Y-103124000D01*
X99134852Y-102901361D01*
X99080431Y-102684702D01*
X98991354Y-102479840D01*
X98870014Y-102292277D01*
X98719670Y-102127051D01*
X98715619Y-102123852D01*
X98715615Y-102123848D01*
X98548414Y-101991800D01*
X98548410Y-101991798D01*
X98544359Y-101988598D01*
X98503053Y-101965796D01*
X98453084Y-101915364D01*
X98438312Y-101845921D01*
X98463428Y-101779516D01*
X98490780Y-101752909D01*
X98551500Y-101709598D01*
X98669860Y-101625173D01*
X98828096Y-101467489D01*
X98839769Y-101451245D01*
X98955435Y-101290277D01*
X98958453Y-101286077D01*
X98979320Y-101243857D01*
X99055136Y-101090453D01*
X99055137Y-101090451D01*
X99057430Y-101085811D01*
X99089900Y-100978940D01*
X99120865Y-100877023D01*
X99120865Y-100877021D01*
X99122370Y-100872069D01*
X99151529Y-100650590D01*
X99153156Y-100584000D01*
X99143307Y-100464202D01*
X117481837Y-100464202D01*
X117497977Y-100656400D01*
X117499676Y-100662325D01*
X117530135Y-100768547D01*
X117551140Y-100841802D01*
X117553955Y-100847279D01*
X117553956Y-100847282D01*
X117566695Y-100872069D01*
X117639302Y-101013348D01*
X117643125Y-101018172D01*
X117643128Y-101018176D01*
X117692809Y-101080857D01*
X117759106Y-101164502D01*
X117763800Y-101168497D01*
X117870310Y-101259144D01*
X117905987Y-101289508D01*
X118074351Y-101383604D01*
X118257786Y-101443205D01*
X118449303Y-101466042D01*
X118455438Y-101465570D01*
X118455440Y-101465570D01*
X118635467Y-101451718D01*
X118635471Y-101451717D01*
X118641609Y-101451245D01*
X118827379Y-101399377D01*
X118908572Y-101358364D01*
X118994035Y-101315194D01*
X118994037Y-101315193D01*
X118999536Y-101312415D01*
X119151523Y-101193669D01*
X119155549Y-101189005D01*
X119155552Y-101189002D01*
X119273522Y-101052332D01*
X119273523Y-101052330D01*
X119277551Y-101047664D01*
X119372820Y-100879961D01*
X119433700Y-100696947D01*
X119451525Y-100555851D01*
X119457432Y-100509097D01*
X119457433Y-100509087D01*
X119457874Y-100505594D01*
X119458259Y-100478000D01*
X119439438Y-100286046D01*
X119383691Y-100101404D01*
X119297786Y-99939840D01*
X119296036Y-99936548D01*
X119296034Y-99936545D01*
X119293142Y-99931106D01*
X119289252Y-99926336D01*
X119289249Y-99926332D01*
X119175135Y-99786414D01*
X119175132Y-99786411D01*
X119171240Y-99781639D01*
X119166491Y-99777710D01*
X119027377Y-99662625D01*
X119027374Y-99662623D01*
X119022627Y-99658696D01*
X118852966Y-99566960D01*
X118760841Y-99538443D01*
X118674604Y-99511748D01*
X118674601Y-99511747D01*
X118668717Y-99509926D01*
X118662592Y-99509282D01*
X118662591Y-99509282D01*
X118483027Y-99490409D01*
X118483026Y-99490409D01*
X118476899Y-99489765D01*
X118397188Y-99497019D01*
X118290958Y-99506687D01*
X118290955Y-99506688D01*
X118284819Y-99507246D01*
X118278913Y-99508984D01*
X118278909Y-99508985D01*
X118140795Y-99549634D01*
X118099792Y-99561702D01*
X117928866Y-99651060D01*
X117778551Y-99771916D01*
X117774593Y-99776633D01*
X117774591Y-99776635D01*
X117694058Y-99872611D01*
X117654574Y-99919666D01*
X117651610Y-99925058D01*
X117651607Y-99925062D01*
X117564623Y-100083286D01*
X117561656Y-100088683D01*
X117503337Y-100272529D01*
X117502651Y-100278646D01*
X117502650Y-100278650D01*
X117492794Y-100366522D01*
X117481837Y-100464202D01*
X99143307Y-100464202D01*
X99134852Y-100361361D01*
X99080431Y-100144702D01*
X98991354Y-99939840D01*
X98889009Y-99781639D01*
X98872822Y-99756617D01*
X98872820Y-99756614D01*
X98870014Y-99752277D01*
X98719670Y-99587051D01*
X98715619Y-99583852D01*
X98715615Y-99583848D01*
X98548414Y-99451800D01*
X98548410Y-99451798D01*
X98544359Y-99448598D01*
X98503053Y-99425796D01*
X98453084Y-99375364D01*
X98438312Y-99305921D01*
X98463428Y-99239516D01*
X98490780Y-99212909D01*
X98551500Y-99169598D01*
X98669860Y-99085173D01*
X98828096Y-98927489D01*
X98887594Y-98844689D01*
X98955435Y-98750277D01*
X98958453Y-98746077D01*
X98979320Y-98703857D01*
X99055136Y-98550453D01*
X99055137Y-98550451D01*
X99057430Y-98545811D01*
X99122370Y-98332069D01*
X99151529Y-98110590D01*
X99153156Y-98044000D01*
X99134852Y-97821361D01*
X99080431Y-97604702D01*
X98991354Y-97399840D01*
X98870014Y-97212277D01*
X98719670Y-97047051D01*
X98715619Y-97043852D01*
X98715615Y-97043848D01*
X98548414Y-96911800D01*
X98548410Y-96911798D01*
X98544359Y-96908598D01*
X98503053Y-96885796D01*
X98453084Y-96835364D01*
X98438312Y-96765921D01*
X98463428Y-96699516D01*
X98490780Y-96672909D01*
X98551500Y-96629598D01*
X98669860Y-96545173D01*
X98828096Y-96387489D01*
X98887594Y-96304689D01*
X98955435Y-96210277D01*
X98958453Y-96206077D01*
X98979320Y-96163857D01*
X99055136Y-96010453D01*
X99055137Y-96010451D01*
X99057430Y-96005811D01*
X99122370Y-95792069D01*
X99151529Y-95570590D01*
X99153156Y-95504000D01*
X99134852Y-95281361D01*
X99080431Y-95064702D01*
X98991354Y-94859840D01*
X98870014Y-94672277D01*
X98719670Y-94507051D01*
X98715619Y-94503852D01*
X98715615Y-94503848D01*
X98548414Y-94371800D01*
X98548410Y-94371798D01*
X98544359Y-94368598D01*
X98503053Y-94345796D01*
X98453084Y-94295364D01*
X98438312Y-94225921D01*
X98463428Y-94159516D01*
X98490780Y-94132909D01*
X98551500Y-94089598D01*
X98669860Y-94005173D01*
X98828096Y-93847489D01*
X98887594Y-93764689D01*
X98955435Y-93670277D01*
X98958453Y-93666077D01*
X98979320Y-93623857D01*
X99055136Y-93470453D01*
X99055137Y-93470451D01*
X99057430Y-93465811D01*
X99122370Y-93252069D01*
X99151529Y-93030590D01*
X99153156Y-92964000D01*
X99134852Y-92741361D01*
X99080431Y-92524702D01*
X98991354Y-92319840D01*
X98870014Y-92132277D01*
X98719670Y-91967051D01*
X98715619Y-91963852D01*
X98715615Y-91963848D01*
X98548414Y-91831800D01*
X98548410Y-91831798D01*
X98544359Y-91828598D01*
X98503053Y-91805796D01*
X98453084Y-91755364D01*
X98438312Y-91685921D01*
X98463428Y-91619516D01*
X98490780Y-91592909D01*
X98551500Y-91549598D01*
X98669860Y-91465173D01*
X98828096Y-91307489D01*
X98887594Y-91224689D01*
X98955435Y-91130277D01*
X98958453Y-91126077D01*
X98979320Y-91083857D01*
X99055136Y-90930453D01*
X99055137Y-90930451D01*
X99057430Y-90925811D01*
X99122370Y-90712069D01*
X99151529Y-90490590D01*
X99153156Y-90424000D01*
X99134852Y-90201361D01*
X99080431Y-89984702D01*
X98991354Y-89779840D01*
X98870014Y-89592277D01*
X98719670Y-89427051D01*
X98715619Y-89423852D01*
X98715615Y-89423848D01*
X98548414Y-89291800D01*
X98548410Y-89291798D01*
X98544359Y-89288598D01*
X98503053Y-89265796D01*
X98453084Y-89215364D01*
X98438312Y-89145921D01*
X98463428Y-89079516D01*
X98490780Y-89052909D01*
X98551500Y-89009598D01*
X98669860Y-88925173D01*
X98828096Y-88767489D01*
X98887594Y-88684689D01*
X98955435Y-88590277D01*
X98958453Y-88586077D01*
X98979320Y-88543857D01*
X99055136Y-88390453D01*
X99055137Y-88390451D01*
X99057430Y-88385811D01*
X99122370Y-88172069D01*
X99151529Y-87950590D01*
X99153156Y-87884000D01*
X99134852Y-87661361D01*
X99080431Y-87444702D01*
X98991354Y-87239840D01*
X98870014Y-87052277D01*
X98719670Y-86887051D01*
X98715619Y-86883852D01*
X98715615Y-86883848D01*
X98548414Y-86751800D01*
X98548410Y-86751798D01*
X98544359Y-86748598D01*
X98503053Y-86725796D01*
X98453084Y-86675364D01*
X98438312Y-86605921D01*
X98463428Y-86539516D01*
X98490780Y-86512909D01*
X98551500Y-86469598D01*
X98669860Y-86385173D01*
X98686574Y-86368518D01*
X98824435Y-86231137D01*
X98828096Y-86227489D01*
X98887594Y-86144689D01*
X98955435Y-86050277D01*
X98958453Y-86046077D01*
X98979320Y-86003857D01*
X99055136Y-85850453D01*
X99055137Y-85850451D01*
X99057430Y-85845811D01*
X99122370Y-85632069D01*
X99151529Y-85410590D01*
X99152252Y-85381002D01*
X117680637Y-85381002D01*
X117696777Y-85573200D01*
X117698476Y-85579125D01*
X117710081Y-85619595D01*
X117749940Y-85758602D01*
X117752755Y-85764079D01*
X117752756Y-85764082D01*
X117835287Y-85924671D01*
X117838102Y-85930148D01*
X117841925Y-85934972D01*
X117841928Y-85934976D01*
X117933316Y-86050277D01*
X117957906Y-86081302D01*
X118104787Y-86206308D01*
X118273151Y-86300404D01*
X118456586Y-86360005D01*
X118648103Y-86382842D01*
X118654238Y-86382370D01*
X118654240Y-86382370D01*
X118834267Y-86368518D01*
X118834271Y-86368517D01*
X118840409Y-86368045D01*
X119026179Y-86316177D01*
X119107372Y-86275164D01*
X119192835Y-86231994D01*
X119192837Y-86231993D01*
X119198336Y-86229215D01*
X119350323Y-86110469D01*
X119354349Y-86105805D01*
X119354352Y-86105802D01*
X119472322Y-85969132D01*
X119472323Y-85969130D01*
X119476351Y-85964464D01*
X119571620Y-85796761D01*
X119632500Y-85613747D01*
X119638398Y-85567058D01*
X119656232Y-85425897D01*
X119656233Y-85425887D01*
X119656674Y-85422394D01*
X119657059Y-85394800D01*
X119638238Y-85202846D01*
X119582491Y-85018204D01*
X119522141Y-84904702D01*
X119494836Y-84853348D01*
X119494834Y-84853345D01*
X119491942Y-84847906D01*
X119488052Y-84843136D01*
X119488049Y-84843132D01*
X119373935Y-84703214D01*
X119373932Y-84703211D01*
X119370040Y-84698439D01*
X119365291Y-84694510D01*
X119226177Y-84579425D01*
X119226174Y-84579423D01*
X119221427Y-84575496D01*
X119051766Y-84483760D01*
X118959642Y-84455243D01*
X118873404Y-84428548D01*
X118873401Y-84428547D01*
X118867517Y-84426726D01*
X118861392Y-84426082D01*
X118861391Y-84426082D01*
X118681827Y-84407209D01*
X118681826Y-84407209D01*
X118675699Y-84406565D01*
X118595988Y-84413819D01*
X118489758Y-84423487D01*
X118489755Y-84423488D01*
X118483619Y-84424046D01*
X118477713Y-84425784D01*
X118477709Y-84425785D01*
X118339595Y-84466434D01*
X118298592Y-84478502D01*
X118127666Y-84567860D01*
X117977351Y-84688716D01*
X117973393Y-84693433D01*
X117973391Y-84693435D01*
X117964031Y-84704590D01*
X117853374Y-84836466D01*
X117850410Y-84841858D01*
X117850407Y-84841862D01*
X117830377Y-84878297D01*
X117760456Y-85005483D01*
X117702137Y-85189329D01*
X117701451Y-85195446D01*
X117701450Y-85195450D01*
X117684410Y-85347365D01*
X117680637Y-85381002D01*
X99152252Y-85381002D01*
X99153156Y-85344000D01*
X99134852Y-85121361D01*
X99080431Y-84904702D01*
X98991354Y-84699840D01*
X98909016Y-84572565D01*
X98872822Y-84516617D01*
X98872820Y-84516614D01*
X98870014Y-84512277D01*
X98719670Y-84347051D01*
X98715619Y-84343852D01*
X98715615Y-84343848D01*
X98548414Y-84211800D01*
X98548410Y-84211798D01*
X98544359Y-84208598D01*
X98503053Y-84185796D01*
X98453084Y-84135364D01*
X98438312Y-84065921D01*
X98463428Y-83999516D01*
X98490780Y-83972909D01*
X98551500Y-83929598D01*
X98669860Y-83845173D01*
X98828096Y-83687489D01*
X98887594Y-83604689D01*
X98955435Y-83510277D01*
X98958453Y-83506077D01*
X98979320Y-83463857D01*
X99055136Y-83310453D01*
X99055137Y-83310451D01*
X99057430Y-83305811D01*
X99122370Y-83092069D01*
X99151529Y-82870590D01*
X99153156Y-82804000D01*
X99134852Y-82581361D01*
X99080431Y-82364702D01*
X98991354Y-82159840D01*
X98870014Y-81972277D01*
X98719670Y-81807051D01*
X98715619Y-81803852D01*
X98715615Y-81803848D01*
X98548414Y-81671800D01*
X98548410Y-81671798D01*
X98544359Y-81668598D01*
X98503053Y-81645796D01*
X98453084Y-81595364D01*
X98438312Y-81525921D01*
X98463428Y-81459516D01*
X98490780Y-81432909D01*
X98551500Y-81389598D01*
X98669860Y-81305173D01*
X98828096Y-81147489D01*
X98887594Y-81064689D01*
X98955435Y-80970277D01*
X98958453Y-80966077D01*
X98979320Y-80923857D01*
X99055136Y-80770453D01*
X99055137Y-80770451D01*
X99057430Y-80765811D01*
X99122370Y-80552069D01*
X99151529Y-80330590D01*
X99153156Y-80264000D01*
X99134852Y-80041361D01*
X99080431Y-79824702D01*
X98991354Y-79619840D01*
X98870014Y-79432277D01*
X98719670Y-79267051D01*
X98715619Y-79263852D01*
X98715615Y-79263848D01*
X98548414Y-79131800D01*
X98548410Y-79131798D01*
X98544359Y-79128598D01*
X98503053Y-79105796D01*
X98453084Y-79055364D01*
X98438312Y-78985921D01*
X98463428Y-78919516D01*
X98490780Y-78892909D01*
X98551500Y-78849598D01*
X98669860Y-78765173D01*
X98828096Y-78607489D01*
X98887594Y-78524689D01*
X98955435Y-78430277D01*
X98958453Y-78426077D01*
X98979320Y-78383857D01*
X99055136Y-78230453D01*
X99055137Y-78230451D01*
X99057430Y-78225811D01*
X99122370Y-78012069D01*
X99151529Y-77790590D01*
X99153156Y-77724000D01*
X99134852Y-77501361D01*
X99080431Y-77284702D01*
X98991354Y-77079840D01*
X98870014Y-76892277D01*
X98719670Y-76727051D01*
X98715619Y-76723852D01*
X98715615Y-76723848D01*
X98548414Y-76591800D01*
X98548410Y-76591798D01*
X98544359Y-76588598D01*
X98503053Y-76565796D01*
X98453084Y-76515364D01*
X98438312Y-76445921D01*
X98463428Y-76379516D01*
X98490780Y-76352909D01*
X98551500Y-76309598D01*
X98669860Y-76225173D01*
X98828096Y-76067489D01*
X98887594Y-75984689D01*
X98955435Y-75890277D01*
X98958453Y-75886077D01*
X98979320Y-75843857D01*
X99055136Y-75690453D01*
X99055137Y-75690451D01*
X99057430Y-75685811D01*
X99122370Y-75472069D01*
X99151529Y-75250590D01*
X99153156Y-75184000D01*
X99134852Y-74961361D01*
X99080431Y-74744702D01*
X98991354Y-74539840D01*
X98870014Y-74352277D01*
X98719670Y-74187051D01*
X98715619Y-74183852D01*
X98715615Y-74183848D01*
X98548414Y-74051800D01*
X98548410Y-74051798D01*
X98544359Y-74048598D01*
X98503053Y-74025796D01*
X98453084Y-73975364D01*
X98438312Y-73905921D01*
X98463428Y-73839516D01*
X98490780Y-73812909D01*
X98551500Y-73769598D01*
X98669860Y-73685173D01*
X98828096Y-73527489D01*
X98887594Y-73444689D01*
X98955435Y-73350277D01*
X98958453Y-73346077D01*
X98979320Y-73303857D01*
X99055136Y-73150453D01*
X99055137Y-73150451D01*
X99057430Y-73145811D01*
X99122370Y-72932069D01*
X99151529Y-72710590D01*
X99153156Y-72644000D01*
X99134852Y-72421361D01*
X99080431Y-72204702D01*
X98991354Y-71999840D01*
X98870014Y-71812277D01*
X98719670Y-71647051D01*
X98715619Y-71643852D01*
X98715615Y-71643848D01*
X98548414Y-71511800D01*
X98548410Y-71511798D01*
X98544359Y-71508598D01*
X98503053Y-71485796D01*
X98453084Y-71435364D01*
X98438312Y-71365921D01*
X98463428Y-71299516D01*
X98490780Y-71272909D01*
X98551500Y-71229598D01*
X98669860Y-71145173D01*
X98828096Y-70987489D01*
X98887594Y-70904689D01*
X98955435Y-70810277D01*
X98958453Y-70806077D01*
X98979320Y-70763857D01*
X99055136Y-70610453D01*
X99055137Y-70610451D01*
X99057430Y-70605811D01*
X99122370Y-70392069D01*
X99151529Y-70170590D01*
X99153156Y-70104000D01*
X99147845Y-70039402D01*
X117731437Y-70039402D01*
X117747577Y-70231600D01*
X117749276Y-70237525D01*
X117793591Y-70392069D01*
X117800740Y-70417002D01*
X117803555Y-70422479D01*
X117803556Y-70422482D01*
X117849376Y-70511639D01*
X117888902Y-70588548D01*
X117892725Y-70593372D01*
X117892728Y-70593376D01*
X117988199Y-70713829D01*
X118008706Y-70739702D01*
X118013400Y-70743697D01*
X118092474Y-70810994D01*
X118155587Y-70864708D01*
X118323951Y-70958804D01*
X118507386Y-71018405D01*
X118698903Y-71041242D01*
X118705038Y-71040770D01*
X118705040Y-71040770D01*
X118885067Y-71026918D01*
X118885071Y-71026917D01*
X118891209Y-71026445D01*
X119076979Y-70974577D01*
X119198902Y-70912990D01*
X119243635Y-70890394D01*
X119243637Y-70890393D01*
X119249136Y-70887615D01*
X119401123Y-70768869D01*
X119405149Y-70764205D01*
X119405152Y-70764202D01*
X119523122Y-70627532D01*
X119523123Y-70627530D01*
X119527151Y-70622864D01*
X119622420Y-70455161D01*
X119674445Y-70298767D01*
X119681355Y-70277995D01*
X119681356Y-70277992D01*
X119683300Y-70272147D01*
X119696553Y-70167240D01*
X119707032Y-70084297D01*
X119707033Y-70084287D01*
X119707474Y-70080794D01*
X119707859Y-70053200D01*
X119689038Y-69861246D01*
X119633291Y-69676604D01*
X119542742Y-69506306D01*
X119538852Y-69501536D01*
X119538849Y-69501532D01*
X119424735Y-69361614D01*
X119424732Y-69361611D01*
X119420840Y-69356839D01*
X119416091Y-69352910D01*
X119276977Y-69237825D01*
X119276974Y-69237823D01*
X119272227Y-69233896D01*
X119102566Y-69142160D01*
X118978799Y-69103848D01*
X118924204Y-69086948D01*
X118924201Y-69086947D01*
X118918317Y-69085126D01*
X118912192Y-69084482D01*
X118912191Y-69084482D01*
X118732627Y-69065609D01*
X118732626Y-69065609D01*
X118726499Y-69064965D01*
X118646788Y-69072219D01*
X118540558Y-69081887D01*
X118540555Y-69081888D01*
X118534419Y-69082446D01*
X118528513Y-69084184D01*
X118528509Y-69084185D01*
X118390395Y-69124834D01*
X118349392Y-69136902D01*
X118178466Y-69226260D01*
X118028151Y-69347116D01*
X118024193Y-69351833D01*
X118024191Y-69351835D01*
X117980740Y-69403618D01*
X117904174Y-69494866D01*
X117901210Y-69500258D01*
X117901207Y-69500262D01*
X117828066Y-69633305D01*
X117811256Y-69663883D01*
X117752937Y-69847729D01*
X117752251Y-69853846D01*
X117752250Y-69853850D01*
X117732124Y-70033277D01*
X117731437Y-70039402D01*
X99147845Y-70039402D01*
X99134852Y-69881361D01*
X99080431Y-69664702D01*
X98991354Y-69459840D01*
X98922178Y-69352910D01*
X98872822Y-69276617D01*
X98872820Y-69276614D01*
X98870014Y-69272277D01*
X98719670Y-69107051D01*
X98715619Y-69103852D01*
X98715615Y-69103848D01*
X98548414Y-68971800D01*
X98548410Y-68971798D01*
X98544359Y-68968598D01*
X98503053Y-68945796D01*
X98453084Y-68895364D01*
X98438312Y-68825921D01*
X98463428Y-68759516D01*
X98490780Y-68732909D01*
X98551500Y-68689598D01*
X98669860Y-68605173D01*
X98828096Y-68447489D01*
X98887594Y-68364689D01*
X98955435Y-68270277D01*
X98958453Y-68266077D01*
X98979320Y-68223857D01*
X99055136Y-68070453D01*
X99055137Y-68070451D01*
X99057430Y-68065811D01*
X99122370Y-67852069D01*
X99151529Y-67630590D01*
X99153156Y-67564000D01*
X99134852Y-67341361D01*
X99080431Y-67124702D01*
X98991354Y-66919840D01*
X98870014Y-66732277D01*
X98719670Y-66567051D01*
X98715619Y-66563852D01*
X98715615Y-66563848D01*
X98548414Y-66431800D01*
X98548410Y-66431798D01*
X98544359Y-66428598D01*
X98503053Y-66405796D01*
X98453084Y-66355364D01*
X98438312Y-66285921D01*
X98463428Y-66219516D01*
X98490780Y-66192909D01*
X98551500Y-66149598D01*
X98669860Y-66065173D01*
X98828096Y-65907489D01*
X98887594Y-65824689D01*
X98955435Y-65730277D01*
X98958453Y-65726077D01*
X98979320Y-65683857D01*
X99055136Y-65530453D01*
X99055137Y-65530451D01*
X99057430Y-65525811D01*
X99122370Y-65312069D01*
X99151529Y-65090590D01*
X99153156Y-65024000D01*
X99134852Y-64801361D01*
X99080431Y-64584702D01*
X98991354Y-64379840D01*
X98870014Y-64192277D01*
X98719670Y-64027051D01*
X98715619Y-64023852D01*
X98715615Y-64023848D01*
X98548414Y-63891800D01*
X98548410Y-63891798D01*
X98544359Y-63888598D01*
X98503053Y-63865796D01*
X98453084Y-63815364D01*
X98438312Y-63745921D01*
X98463428Y-63679516D01*
X98490780Y-63652909D01*
X98551500Y-63609598D01*
X98669860Y-63525173D01*
X98828096Y-63367489D01*
X98887594Y-63284689D01*
X98955435Y-63190277D01*
X98958453Y-63186077D01*
X98979320Y-63143857D01*
X99055136Y-62990453D01*
X99055137Y-62990451D01*
X99057430Y-62985811D01*
X99122370Y-62772069D01*
X99151529Y-62550590D01*
X99153156Y-62484000D01*
X99134852Y-62261361D01*
X99080431Y-62044702D01*
X98991354Y-61839840D01*
X98870014Y-61652277D01*
X98719670Y-61487051D01*
X98715619Y-61483852D01*
X98715615Y-61483848D01*
X98548414Y-61351800D01*
X98548410Y-61351798D01*
X98544359Y-61348598D01*
X98503053Y-61325796D01*
X98453084Y-61275364D01*
X98438312Y-61205921D01*
X98463428Y-61139516D01*
X98490780Y-61112909D01*
X98551500Y-61069598D01*
X98669860Y-60985173D01*
X98828096Y-60827489D01*
X98887594Y-60744689D01*
X98955435Y-60650277D01*
X98958453Y-60646077D01*
X98979320Y-60603857D01*
X99055136Y-60450453D01*
X99055137Y-60450451D01*
X99057430Y-60445811D01*
X99122370Y-60232069D01*
X99151529Y-60010590D01*
X99153156Y-59944000D01*
X99134852Y-59721361D01*
X99080431Y-59504702D01*
X98991354Y-59299840D01*
X98870014Y-59112277D01*
X98719670Y-58947051D01*
X98715619Y-58943852D01*
X98715615Y-58943848D01*
X98548414Y-58811800D01*
X98548410Y-58811798D01*
X98544359Y-58808598D01*
X98503053Y-58785796D01*
X98453084Y-58735364D01*
X98438312Y-58665921D01*
X98463428Y-58599516D01*
X98490780Y-58572909D01*
X98551500Y-58529598D01*
X98669860Y-58445173D01*
X98828096Y-58287489D01*
X98887594Y-58204689D01*
X98955435Y-58110277D01*
X98958453Y-58106077D01*
X98979320Y-58063857D01*
X99055136Y-57910453D01*
X99055137Y-57910451D01*
X99057430Y-57905811D01*
X99122370Y-57692069D01*
X99151529Y-57470590D01*
X99153156Y-57404000D01*
X99134852Y-57181361D01*
X99080431Y-56964702D01*
X98991354Y-56759840D01*
X98870014Y-56572277D01*
X98719670Y-56407051D01*
X98715619Y-56403852D01*
X98715615Y-56403848D01*
X98548414Y-56271800D01*
X98548410Y-56271798D01*
X98544359Y-56268598D01*
X98503053Y-56245796D01*
X98453084Y-56195364D01*
X98438312Y-56125921D01*
X98463428Y-56059516D01*
X98490780Y-56032909D01*
X98551500Y-55989598D01*
X98669860Y-55905173D01*
X98828096Y-55747489D01*
X98887594Y-55664689D01*
X98955435Y-55570277D01*
X98958453Y-55566077D01*
X98979320Y-55523857D01*
X99055136Y-55370453D01*
X99055137Y-55370451D01*
X99057430Y-55365811D01*
X99122370Y-55152069D01*
X99151529Y-54930590D01*
X99153156Y-54864000D01*
X99134852Y-54641361D01*
X99080431Y-54424702D01*
X98991354Y-54219840D01*
X98870014Y-54032277D01*
X98719670Y-53867051D01*
X98715619Y-53863852D01*
X98715615Y-53863848D01*
X98548414Y-53731800D01*
X98548410Y-53731798D01*
X98544359Y-53728598D01*
X98503053Y-53705796D01*
X98453084Y-53655364D01*
X98438312Y-53585921D01*
X98463428Y-53519516D01*
X98490780Y-53492909D01*
X98551500Y-53449598D01*
X98669860Y-53365173D01*
X98828096Y-53207489D01*
X98887594Y-53124689D01*
X98955435Y-53030277D01*
X98958453Y-53026077D01*
X98979320Y-52983857D01*
X99055136Y-52830453D01*
X99055137Y-52830451D01*
X99057430Y-52825811D01*
X99122370Y-52612069D01*
X99151529Y-52390590D01*
X99153156Y-52324000D01*
X99134852Y-52101361D01*
X99080431Y-51884702D01*
X98991354Y-51679840D01*
X98870014Y-51492277D01*
X98719670Y-51327051D01*
X98715619Y-51323852D01*
X98715615Y-51323848D01*
X98548414Y-51191800D01*
X98548410Y-51191798D01*
X98544359Y-51188598D01*
X98503053Y-51165796D01*
X98453084Y-51115364D01*
X98438312Y-51045921D01*
X98463428Y-50979516D01*
X98490780Y-50952909D01*
X98551500Y-50909598D01*
X98669860Y-50825173D01*
X98828096Y-50667489D01*
X98887594Y-50584689D01*
X98955435Y-50490277D01*
X98958453Y-50486077D01*
X98979320Y-50443857D01*
X99055136Y-50290453D01*
X99055137Y-50290451D01*
X99057430Y-50285811D01*
X99122370Y-50072069D01*
X99151529Y-49850590D01*
X99152205Y-49822923D01*
X99153074Y-49787365D01*
X99153074Y-49787361D01*
X99153156Y-49784000D01*
X99134852Y-49561361D01*
X99080431Y-49344702D01*
X98991354Y-49139840D01*
X98951906Y-49078862D01*
X98872822Y-48956617D01*
X98872820Y-48956614D01*
X98870014Y-48952277D01*
X98719670Y-48787051D01*
X98715619Y-48783852D01*
X98715615Y-48783848D01*
X98548414Y-48651800D01*
X98548410Y-48651798D01*
X98544359Y-48648598D01*
X98503053Y-48625796D01*
X98453084Y-48575364D01*
X98438312Y-48505921D01*
X98463428Y-48439516D01*
X98490780Y-48412909D01*
X98551500Y-48369598D01*
X98609818Y-48328000D01*
X116909335Y-48328000D01*
X116927965Y-48564711D01*
X116929119Y-48569518D01*
X116929120Y-48569524D01*
X116947825Y-48647436D01*
X116983395Y-48795594D01*
X116985288Y-48800165D01*
X116985289Y-48800167D01*
X117048295Y-48952277D01*
X117074260Y-49014963D01*
X117076846Y-49019183D01*
X117195741Y-49213202D01*
X117195745Y-49213208D01*
X117198324Y-49217416D01*
X117352531Y-49397969D01*
X117533084Y-49552176D01*
X117537292Y-49554755D01*
X117537298Y-49554759D01*
X117731317Y-49673654D01*
X117735537Y-49676240D01*
X117740107Y-49678133D01*
X117740111Y-49678135D01*
X117902896Y-49745562D01*
X117954906Y-49767105D01*
X118025279Y-49784000D01*
X118180976Y-49821380D01*
X118180982Y-49821381D01*
X118185789Y-49822535D01*
X118422500Y-49841165D01*
X118659211Y-49822535D01*
X118664018Y-49821381D01*
X118664024Y-49821380D01*
X118819721Y-49784000D01*
X118890094Y-49767105D01*
X118942104Y-49745562D01*
X119104889Y-49678135D01*
X119104893Y-49678133D01*
X119109463Y-49676240D01*
X119113683Y-49673654D01*
X119307702Y-49554759D01*
X119307708Y-49554755D01*
X119311916Y-49552176D01*
X119492469Y-49397969D01*
X119646676Y-49217416D01*
X119649255Y-49213208D01*
X119649259Y-49213202D01*
X119768154Y-49019183D01*
X119770740Y-49014963D01*
X119796706Y-48952277D01*
X119859711Y-48800167D01*
X119859712Y-48800165D01*
X119861605Y-48795594D01*
X119897175Y-48647436D01*
X119915880Y-48569524D01*
X119915881Y-48569518D01*
X119917035Y-48564711D01*
X119935665Y-48328000D01*
X119917035Y-48091289D01*
X119907841Y-48052990D01*
X119862760Y-47865218D01*
X119861605Y-47860406D01*
X119858881Y-47853829D01*
X119772635Y-47645611D01*
X119772633Y-47645607D01*
X119770740Y-47641037D01*
X119703964Y-47532069D01*
X119649259Y-47442798D01*
X119649255Y-47442792D01*
X119646676Y-47438584D01*
X119492469Y-47258031D01*
X119311916Y-47103824D01*
X119307708Y-47101245D01*
X119307702Y-47101241D01*
X119113683Y-46982346D01*
X119109463Y-46979760D01*
X119104893Y-46977867D01*
X119104889Y-46977865D01*
X118894667Y-46890789D01*
X118894665Y-46890788D01*
X118890094Y-46888895D01*
X118809891Y-46869640D01*
X118664024Y-46834620D01*
X118664018Y-46834619D01*
X118659211Y-46833465D01*
X118422500Y-46814835D01*
X118185789Y-46833465D01*
X118180982Y-46834619D01*
X118180976Y-46834620D01*
X118035109Y-46869640D01*
X117954906Y-46888895D01*
X117950335Y-46890788D01*
X117950333Y-46890789D01*
X117740111Y-46977865D01*
X117740107Y-46977867D01*
X117735537Y-46979760D01*
X117731317Y-46982346D01*
X117537298Y-47101241D01*
X117537292Y-47101245D01*
X117533084Y-47103824D01*
X117352531Y-47258031D01*
X117198324Y-47438584D01*
X117195745Y-47442792D01*
X117195741Y-47442798D01*
X117141036Y-47532069D01*
X117074260Y-47641037D01*
X117072367Y-47645607D01*
X117072365Y-47645611D01*
X116986119Y-47853829D01*
X116983395Y-47860406D01*
X116982240Y-47865218D01*
X116937160Y-48052990D01*
X116927965Y-48091289D01*
X116909335Y-48328000D01*
X98609818Y-48328000D01*
X98669860Y-48285173D01*
X98828096Y-48127489D01*
X98887594Y-48044689D01*
X98955435Y-47950277D01*
X98958453Y-47946077D01*
X98979320Y-47903857D01*
X99055136Y-47750453D01*
X99055137Y-47750451D01*
X99057430Y-47745811D01*
X99122370Y-47532069D01*
X99151529Y-47310590D01*
X99151611Y-47307240D01*
X99153074Y-47247365D01*
X99153074Y-47247361D01*
X99153156Y-47244000D01*
X99134852Y-47021361D01*
X99080431Y-46804702D01*
X98991354Y-46599840D01*
X98871638Y-46414787D01*
X98871637Y-46414785D01*
X98870014Y-46412277D01*
X98870532Y-46411942D01*
X98846151Y-46349202D01*
X98860295Y-46279629D01*
X98909808Y-46228746D01*
X98971696Y-46212500D01*
X145477500Y-46212500D01*
X145545621Y-46232502D01*
G37*
%TD.AperFunction*%
%TD*%
M02*
