%TF.GenerationSoftware,KiCad,Pcbnew,6.0.4-6f826c9f35~116~ubuntu20.04.1*%
%TF.CreationDate,2022-04-26T11:51:17+07:00*%
%TF.ProjectId,Colorlight2QMTech,436f6c6f-726c-4696-9768-7432514d5465,rev?*%
%TF.SameCoordinates,Original*%
%TF.FileFunction,Legend,Top*%
%TF.FilePolarity,Positive*%
%FSLAX46Y46*%
G04 Gerber Fmt 4.6, Leading zero omitted, Abs format (unit mm)*
G04 Created by KiCad (PCBNEW 6.0.4-6f826c9f35~116~ubuntu20.04.1) date 2022-04-26 11:51:17*
%MOMM*%
%LPD*%
G01*
G04 APERTURE LIST*
%ADD10C,0.150000*%
%ADD11C,0.120000*%
%ADD12C,0.250000*%
%ADD13C,0.300000*%
%ADD14C,0.010000*%
%ADD15C,0.080000*%
G04 APERTURE END LIST*
D10*
X150319076Y-38603180D02*
X149842885Y-38603180D01*
X149842885Y-37603180D01*
X150652409Y-38079371D02*
X150985742Y-38079371D01*
X151128600Y-38603180D02*
X150652409Y-38603180D01*
X150652409Y-37603180D01*
X151128600Y-37603180D01*
X151557171Y-38603180D02*
X151557171Y-37603180D01*
X151795266Y-37603180D01*
X151938123Y-37650800D01*
X152033361Y-37746038D01*
X152080980Y-37841276D01*
X152128600Y-38031752D01*
X152128600Y-38174609D01*
X152080980Y-38365085D01*
X152033361Y-38460323D01*
X151938123Y-38555561D01*
X151795266Y-38603180D01*
X151557171Y-38603180D01*
X152319076Y-38698419D02*
X153080980Y-38698419D01*
X153509552Y-38126990D02*
X153509552Y-38603180D01*
X153176219Y-37603180D02*
X153509552Y-38126990D01*
X153842885Y-37603180D01*
X153938123Y-38698419D02*
X154700028Y-38698419D01*
X154890504Y-37698419D02*
X154938123Y-37650800D01*
X155033361Y-37603180D01*
X155271457Y-37603180D01*
X155366695Y-37650800D01*
X155414314Y-37698419D01*
X155461933Y-37793657D01*
X155461933Y-37888895D01*
X155414314Y-38031752D01*
X154842885Y-38603180D01*
X155461933Y-38603180D01*
X150395276Y-33421580D02*
X149919085Y-33421580D01*
X149919085Y-32421580D01*
X150728609Y-32897771D02*
X151061942Y-32897771D01*
X151204800Y-33421580D02*
X150728609Y-33421580D01*
X150728609Y-32421580D01*
X151204800Y-32421580D01*
X151633371Y-33421580D02*
X151633371Y-32421580D01*
X151871466Y-32421580D01*
X152014323Y-32469200D01*
X152109561Y-32564438D01*
X152157180Y-32659676D01*
X152204800Y-32850152D01*
X152204800Y-32993009D01*
X152157180Y-33183485D01*
X152109561Y-33278723D01*
X152014323Y-33373961D01*
X151871466Y-33421580D01*
X151633371Y-33421580D01*
X152395276Y-33516819D02*
X153157180Y-33516819D01*
X153585752Y-32945390D02*
X153585752Y-33421580D01*
X153252419Y-32421580D02*
X153585752Y-32945390D01*
X153919085Y-32421580D01*
X154014323Y-33516819D02*
X154776228Y-33516819D01*
X155538133Y-33421580D02*
X154966704Y-33421580D01*
X155252419Y-33421580D02*
X155252419Y-32421580D01*
X155157180Y-32564438D01*
X155061942Y-32659676D01*
X154966704Y-32707295D01*
X150273047Y-36113980D02*
X149796857Y-36113980D01*
X149796857Y-35113980D01*
X150606380Y-35590171D02*
X150939714Y-35590171D01*
X151082571Y-36113980D02*
X150606380Y-36113980D01*
X150606380Y-35113980D01*
X151082571Y-35113980D01*
X151511142Y-36113980D02*
X151511142Y-35113980D01*
X151749238Y-35113980D01*
X151892095Y-35161600D01*
X151987333Y-35256838D01*
X152034952Y-35352076D01*
X152082571Y-35542552D01*
X152082571Y-35685409D01*
X152034952Y-35875885D01*
X151987333Y-35971123D01*
X151892095Y-36066361D01*
X151749238Y-36113980D01*
X151511142Y-36113980D01*
X152273047Y-36209219D02*
X153034952Y-36209219D01*
X153796857Y-35161600D02*
X153701619Y-35113980D01*
X153558761Y-35113980D01*
X153415904Y-35161600D01*
X153320666Y-35256838D01*
X153273047Y-35352076D01*
X153225428Y-35542552D01*
X153225428Y-35685409D01*
X153273047Y-35875885D01*
X153320666Y-35971123D01*
X153415904Y-36066361D01*
X153558761Y-36113980D01*
X153654000Y-36113980D01*
X153796857Y-36066361D01*
X153844476Y-36018742D01*
X153844476Y-35685409D01*
X153654000Y-35685409D01*
X154034952Y-36209219D02*
X154796857Y-36209219D01*
X154987333Y-35209219D02*
X155034952Y-35161600D01*
X155130190Y-35113980D01*
X155368285Y-35113980D01*
X155463523Y-35161600D01*
X155511142Y-35209219D01*
X155558761Y-35304457D01*
X155558761Y-35399695D01*
X155511142Y-35542552D01*
X154939714Y-36113980D01*
X155558761Y-36113980D01*
X150298447Y-31059380D02*
X149822257Y-31059380D01*
X149822257Y-30059380D01*
X150631780Y-30535571D02*
X150965114Y-30535571D01*
X151107971Y-31059380D02*
X150631780Y-31059380D01*
X150631780Y-30059380D01*
X151107971Y-30059380D01*
X151536542Y-31059380D02*
X151536542Y-30059380D01*
X151774638Y-30059380D01*
X151917495Y-30107000D01*
X152012733Y-30202238D01*
X152060352Y-30297476D01*
X152107971Y-30487952D01*
X152107971Y-30630809D01*
X152060352Y-30821285D01*
X152012733Y-30916523D01*
X151917495Y-31011761D01*
X151774638Y-31059380D01*
X151536542Y-31059380D01*
X152298447Y-31154619D02*
X153060352Y-31154619D01*
X153822257Y-30107000D02*
X153727019Y-30059380D01*
X153584161Y-30059380D01*
X153441304Y-30107000D01*
X153346066Y-30202238D01*
X153298447Y-30297476D01*
X153250828Y-30487952D01*
X153250828Y-30630809D01*
X153298447Y-30821285D01*
X153346066Y-30916523D01*
X153441304Y-31011761D01*
X153584161Y-31059380D01*
X153679400Y-31059380D01*
X153822257Y-31011761D01*
X153869876Y-30964142D01*
X153869876Y-30630809D01*
X153679400Y-30630809D01*
X154060352Y-31154619D02*
X154822257Y-31154619D01*
X155584161Y-31059380D02*
X155012733Y-31059380D01*
X155298447Y-31059380D02*
X155298447Y-30059380D01*
X155203209Y-30202238D01*
X155107971Y-30297476D01*
X155012733Y-30345095D01*
X153670000Y-46456600D02*
X154813000Y-47294800D01*
X94259400Y-116814600D02*
X96266000Y-114808000D01*
X96799400Y-116814600D02*
X98806000Y-114808000D01*
X96774000Y-114808000D02*
X98806000Y-116840000D01*
X94234000Y-114808000D02*
X96266000Y-116840000D01*
X154813000Y-47294800D02*
X155371800Y-47294800D01*
X135033238Y-122075380D02*
X135033238Y-121075380D01*
X135033238Y-121551571D02*
X135604666Y-121551571D01*
X135604666Y-122075380D02*
X135604666Y-121075380D01*
X136509428Y-122075380D02*
X136509428Y-121551571D01*
X136461809Y-121456333D01*
X136366571Y-121408714D01*
X136176095Y-121408714D01*
X136080857Y-121456333D01*
X136509428Y-122027761D02*
X136414190Y-122075380D01*
X136176095Y-122075380D01*
X136080857Y-122027761D01*
X136033238Y-121932523D01*
X136033238Y-121837285D01*
X136080857Y-121742047D01*
X136176095Y-121694428D01*
X136414190Y-121694428D01*
X136509428Y-121646809D01*
X136985619Y-121408714D02*
X136985619Y-122075380D01*
X136985619Y-121503952D02*
X137033238Y-121456333D01*
X137128476Y-121408714D01*
X137271333Y-121408714D01*
X137366571Y-121456333D01*
X137414190Y-121551571D01*
X137414190Y-122075380D01*
X137842761Y-122027761D02*
X137938000Y-122075380D01*
X138128476Y-122075380D01*
X138223714Y-122027761D01*
X138271333Y-121932523D01*
X138271333Y-121884904D01*
X138223714Y-121789666D01*
X138128476Y-121742047D01*
X137985619Y-121742047D01*
X137890380Y-121694428D01*
X137842761Y-121599190D01*
X137842761Y-121551571D01*
X137890380Y-121456333D01*
X137985619Y-121408714D01*
X138128476Y-121408714D01*
X138223714Y-121456333D01*
X139795142Y-121551571D02*
X139938000Y-121599190D01*
X139985619Y-121646809D01*
X140033238Y-121742047D01*
X140033238Y-121884904D01*
X139985619Y-121980142D01*
X139938000Y-122027761D01*
X139842761Y-122075380D01*
X139461809Y-122075380D01*
X139461809Y-121075380D01*
X139795142Y-121075380D01*
X139890380Y-121123000D01*
X139938000Y-121170619D01*
X139985619Y-121265857D01*
X139985619Y-121361095D01*
X139938000Y-121456333D01*
X139890380Y-121503952D01*
X139795142Y-121551571D01*
X139461809Y-121551571D01*
X140890380Y-122075380D02*
X140890380Y-121551571D01*
X140842761Y-121456333D01*
X140747523Y-121408714D01*
X140557047Y-121408714D01*
X140461809Y-121456333D01*
X140890380Y-122027761D02*
X140795142Y-122075380D01*
X140557047Y-122075380D01*
X140461809Y-122027761D01*
X140414190Y-121932523D01*
X140414190Y-121837285D01*
X140461809Y-121742047D01*
X140557047Y-121694428D01*
X140795142Y-121694428D01*
X140890380Y-121646809D01*
X141366571Y-122075380D02*
X141366571Y-121408714D01*
X141366571Y-121075380D02*
X141318952Y-121123000D01*
X141366571Y-121170619D01*
X141414190Y-121123000D01*
X141366571Y-121075380D01*
X141366571Y-121170619D01*
X142223714Y-122027761D02*
X142128476Y-122075380D01*
X141938000Y-122075380D01*
X141842761Y-122027761D01*
X141795142Y-121932523D01*
X141795142Y-121551571D01*
X141842761Y-121456333D01*
X141938000Y-121408714D01*
X142128476Y-121408714D01*
X142223714Y-121456333D01*
X142271333Y-121551571D01*
X142271333Y-121646809D01*
X141795142Y-121742047D01*
X142699904Y-122075380D02*
X142699904Y-121408714D01*
X142699904Y-121599190D02*
X142747523Y-121503952D01*
X142795142Y-121456333D01*
X142890380Y-121408714D01*
X142985619Y-121408714D01*
X134080857Y-122780619D02*
X134128476Y-122733000D01*
X134223714Y-122685380D01*
X134461809Y-122685380D01*
X134557047Y-122733000D01*
X134604666Y-122780619D01*
X134652285Y-122875857D01*
X134652285Y-122971095D01*
X134604666Y-123113952D01*
X134033238Y-123685380D01*
X134652285Y-123685380D01*
X135271333Y-122685380D02*
X135366571Y-122685380D01*
X135461809Y-122733000D01*
X135509428Y-122780619D01*
X135557047Y-122875857D01*
X135604666Y-123066333D01*
X135604666Y-123304428D01*
X135557047Y-123494904D01*
X135509428Y-123590142D01*
X135461809Y-123637761D01*
X135366571Y-123685380D01*
X135271333Y-123685380D01*
X135176095Y-123637761D01*
X135128476Y-123590142D01*
X135080857Y-123494904D01*
X135033238Y-123304428D01*
X135033238Y-123066333D01*
X135080857Y-122875857D01*
X135128476Y-122780619D01*
X135176095Y-122733000D01*
X135271333Y-122685380D01*
X135985619Y-122780619D02*
X136033238Y-122733000D01*
X136128476Y-122685380D01*
X136366571Y-122685380D01*
X136461809Y-122733000D01*
X136509428Y-122780619D01*
X136557047Y-122875857D01*
X136557047Y-122971095D01*
X136509428Y-123113952D01*
X135938000Y-123685380D01*
X136557047Y-123685380D01*
X136938000Y-122780619D02*
X136985619Y-122733000D01*
X137080857Y-122685380D01*
X137318952Y-122685380D01*
X137414190Y-122733000D01*
X137461809Y-122780619D01*
X137509428Y-122875857D01*
X137509428Y-122971095D01*
X137461809Y-123113952D01*
X136890380Y-123685380D01*
X137509428Y-123685380D01*
X137938000Y-123304428D02*
X138699904Y-123304428D01*
X139366571Y-122685380D02*
X139461809Y-122685380D01*
X139557047Y-122733000D01*
X139604666Y-122780619D01*
X139652285Y-122875857D01*
X139699904Y-123066333D01*
X139699904Y-123304428D01*
X139652285Y-123494904D01*
X139604666Y-123590142D01*
X139557047Y-123637761D01*
X139461809Y-123685380D01*
X139366571Y-123685380D01*
X139271333Y-123637761D01*
X139223714Y-123590142D01*
X139176095Y-123494904D01*
X139128476Y-123304428D01*
X139128476Y-123066333D01*
X139176095Y-122875857D01*
X139223714Y-122780619D01*
X139271333Y-122733000D01*
X139366571Y-122685380D01*
X140557047Y-123018714D02*
X140557047Y-123685380D01*
X140318952Y-122637761D02*
X140080857Y-123352047D01*
X140699904Y-123352047D01*
X141080857Y-123304428D02*
X141842761Y-123304428D01*
X142271333Y-122780619D02*
X142318952Y-122733000D01*
X142414190Y-122685380D01*
X142652285Y-122685380D01*
X142747523Y-122733000D01*
X142795142Y-122780619D01*
X142842761Y-122875857D01*
X142842761Y-122971095D01*
X142795142Y-123113952D01*
X142223714Y-123685380D01*
X142842761Y-123685380D01*
X143699904Y-122685380D02*
X143509428Y-122685380D01*
X143414190Y-122733000D01*
X143366571Y-122780619D01*
X143271333Y-122923476D01*
X143223714Y-123113952D01*
X143223714Y-123494904D01*
X143271333Y-123590142D01*
X143318952Y-123637761D01*
X143414190Y-123685380D01*
X143604666Y-123685380D01*
X143699904Y-123637761D01*
X143747523Y-123590142D01*
X143795142Y-123494904D01*
X143795142Y-123256809D01*
X143747523Y-123161571D01*
X143699904Y-123113952D01*
X143604666Y-123066333D01*
X143414190Y-123066333D01*
X143318952Y-123113952D01*
X143271333Y-123161571D01*
X143223714Y-123256809D01*
X99758761Y-77416219D02*
X99806380Y-77368600D01*
X99901619Y-77320980D01*
X100139714Y-77320980D01*
X100234952Y-77368600D01*
X100282571Y-77416219D01*
X100330190Y-77511457D01*
X100330190Y-77606695D01*
X100282571Y-77749552D01*
X99711142Y-78320980D01*
X100330190Y-78320980D01*
X100806380Y-78320980D02*
X100996857Y-78320980D01*
X101092095Y-78273361D01*
X101139714Y-78225742D01*
X101234952Y-78082885D01*
X101282571Y-77892409D01*
X101282571Y-77511457D01*
X101234952Y-77416219D01*
X101187333Y-77368600D01*
X101092095Y-77320980D01*
X100901619Y-77320980D01*
X100806380Y-77368600D01*
X100758761Y-77416219D01*
X100711142Y-77511457D01*
X100711142Y-77749552D01*
X100758761Y-77844790D01*
X100806380Y-77892409D01*
X100901619Y-77940028D01*
X101092095Y-77940028D01*
X101187333Y-77892409D01*
X101234952Y-77844790D01*
X101282571Y-77749552D01*
X102377809Y-77320980D02*
X102996857Y-77320980D01*
X102663523Y-77701933D01*
X102806380Y-77701933D01*
X102901619Y-77749552D01*
X102949238Y-77797171D01*
X102996857Y-77892409D01*
X102996857Y-78130504D01*
X102949238Y-78225742D01*
X102901619Y-78273361D01*
X102806380Y-78320980D01*
X102520666Y-78320980D01*
X102425428Y-78273361D01*
X102377809Y-78225742D01*
X103615904Y-77320980D02*
X103711142Y-77320980D01*
X103806380Y-77368600D01*
X103854000Y-77416219D01*
X103901619Y-77511457D01*
X103949238Y-77701933D01*
X103949238Y-77940028D01*
X103901619Y-78130504D01*
X103854000Y-78225742D01*
X103806380Y-78273361D01*
X103711142Y-78320980D01*
X103615904Y-78320980D01*
X103520666Y-78273361D01*
X103473047Y-78225742D01*
X103425428Y-78130504D01*
X103377809Y-77940028D01*
X103377809Y-77701933D01*
X103425428Y-77511457D01*
X103473047Y-77416219D01*
X103520666Y-77368600D01*
X103615904Y-77320980D01*
X132296257Y-114139342D02*
X132248638Y-114186961D01*
X132105780Y-114234580D01*
X132010542Y-114234580D01*
X131867685Y-114186961D01*
X131772447Y-114091723D01*
X131724828Y-113996485D01*
X131677209Y-113806009D01*
X131677209Y-113663152D01*
X131724828Y-113472676D01*
X131772447Y-113377438D01*
X131867685Y-113282200D01*
X132010542Y-113234580D01*
X132105780Y-113234580D01*
X132248638Y-113282200D01*
X132296257Y-113329819D01*
X132867685Y-114234580D02*
X132772447Y-114186961D01*
X132724828Y-114139342D01*
X132677209Y-114044104D01*
X132677209Y-113758390D01*
X132724828Y-113663152D01*
X132772447Y-113615533D01*
X132867685Y-113567914D01*
X133010542Y-113567914D01*
X133105780Y-113615533D01*
X133153400Y-113663152D01*
X133201019Y-113758390D01*
X133201019Y-114044104D01*
X133153400Y-114139342D01*
X133105780Y-114186961D01*
X133010542Y-114234580D01*
X132867685Y-114234580D01*
X133772447Y-114234580D02*
X133677209Y-114186961D01*
X133629590Y-114091723D01*
X133629590Y-113234580D01*
X134296257Y-114234580D02*
X134201019Y-114186961D01*
X134153400Y-114139342D01*
X134105780Y-114044104D01*
X134105780Y-113758390D01*
X134153400Y-113663152D01*
X134201019Y-113615533D01*
X134296257Y-113567914D01*
X134439114Y-113567914D01*
X134534352Y-113615533D01*
X134581971Y-113663152D01*
X134629590Y-113758390D01*
X134629590Y-114044104D01*
X134581971Y-114139342D01*
X134534352Y-114186961D01*
X134439114Y-114234580D01*
X134296257Y-114234580D01*
X135058161Y-114234580D02*
X135058161Y-113567914D01*
X135058161Y-113758390D02*
X135105780Y-113663152D01*
X135153400Y-113615533D01*
X135248638Y-113567914D01*
X135343876Y-113567914D01*
X135820066Y-114234580D02*
X135724828Y-114186961D01*
X135677209Y-114091723D01*
X135677209Y-113234580D01*
X136201019Y-114234580D02*
X136201019Y-113567914D01*
X136201019Y-113234580D02*
X136153400Y-113282200D01*
X136201019Y-113329819D01*
X136248638Y-113282200D01*
X136201019Y-113234580D01*
X136201019Y-113329819D01*
X137105780Y-113567914D02*
X137105780Y-114377438D01*
X137058161Y-114472676D01*
X137010542Y-114520295D01*
X136915304Y-114567914D01*
X136772447Y-114567914D01*
X136677209Y-114520295D01*
X137105780Y-114186961D02*
X137010542Y-114234580D01*
X136820066Y-114234580D01*
X136724828Y-114186961D01*
X136677209Y-114139342D01*
X136629590Y-114044104D01*
X136629590Y-113758390D01*
X136677209Y-113663152D01*
X136724828Y-113615533D01*
X136820066Y-113567914D01*
X137010542Y-113567914D01*
X137105780Y-113615533D01*
X137581971Y-114234580D02*
X137581971Y-113234580D01*
X138010542Y-114234580D02*
X138010542Y-113710771D01*
X137962923Y-113615533D01*
X137867685Y-113567914D01*
X137724828Y-113567914D01*
X137629590Y-113615533D01*
X137581971Y-113663152D01*
X138343876Y-113567914D02*
X138724828Y-113567914D01*
X138486733Y-113234580D02*
X138486733Y-114091723D01*
X138534352Y-114186961D01*
X138629590Y-114234580D01*
X138724828Y-114234580D01*
X134891495Y-115844580D02*
X135415304Y-115177914D01*
X134891495Y-115177914D02*
X135415304Y-115844580D01*
X133272447Y-117549819D02*
X133177209Y-117502200D01*
X133081971Y-117406961D01*
X132939114Y-117264104D01*
X132843876Y-117216485D01*
X132748638Y-117216485D01*
X132796257Y-117454580D02*
X132701019Y-117406961D01*
X132605780Y-117311723D01*
X132558161Y-117121247D01*
X132558161Y-116787914D01*
X132605780Y-116597438D01*
X132701019Y-116502200D01*
X132796257Y-116454580D01*
X132986733Y-116454580D01*
X133081971Y-116502200D01*
X133177209Y-116597438D01*
X133224828Y-116787914D01*
X133224828Y-117121247D01*
X133177209Y-117311723D01*
X133081971Y-117406961D01*
X132986733Y-117454580D01*
X132796257Y-117454580D01*
X133653400Y-117454580D02*
X133653400Y-116454580D01*
X133986733Y-117168866D01*
X134320066Y-116454580D01*
X134320066Y-117454580D01*
X134653400Y-116454580D02*
X135224828Y-116454580D01*
X134939114Y-117454580D02*
X134939114Y-116454580D01*
X135939114Y-117406961D02*
X135843876Y-117454580D01*
X135653400Y-117454580D01*
X135558161Y-117406961D01*
X135510542Y-117311723D01*
X135510542Y-116930771D01*
X135558161Y-116835533D01*
X135653400Y-116787914D01*
X135843876Y-116787914D01*
X135939114Y-116835533D01*
X135986733Y-116930771D01*
X135986733Y-117026009D01*
X135510542Y-117121247D01*
X136843876Y-117406961D02*
X136748638Y-117454580D01*
X136558161Y-117454580D01*
X136462923Y-117406961D01*
X136415304Y-117359342D01*
X136367685Y-117264104D01*
X136367685Y-116978390D01*
X136415304Y-116883152D01*
X136462923Y-116835533D01*
X136558161Y-116787914D01*
X136748638Y-116787914D01*
X136843876Y-116835533D01*
X137272447Y-117454580D02*
X137272447Y-116454580D01*
X137701019Y-117454580D02*
X137701019Y-116930771D01*
X137653400Y-116835533D01*
X137558161Y-116787914D01*
X137415304Y-116787914D01*
X137320066Y-116835533D01*
X137272447Y-116883152D01*
X150933352Y-102960514D02*
X150933352Y-103627180D01*
X150695257Y-102579561D02*
X150457161Y-103293847D01*
X151076209Y-103293847D01*
X151504780Y-103627180D02*
X151695257Y-103627180D01*
X151790495Y-103579561D01*
X151838114Y-103531942D01*
X151933352Y-103389085D01*
X151980971Y-103198609D01*
X151980971Y-102817657D01*
X151933352Y-102722419D01*
X151885733Y-102674800D01*
X151790495Y-102627180D01*
X151600019Y-102627180D01*
X151504780Y-102674800D01*
X151457161Y-102722419D01*
X151409542Y-102817657D01*
X151409542Y-103055752D01*
X151457161Y-103150990D01*
X151504780Y-103198609D01*
X151600019Y-103246228D01*
X151790495Y-103246228D01*
X151885733Y-103198609D01*
X151933352Y-103150990D01*
X151980971Y-103055752D01*
X153647638Y-102627180D02*
X153171447Y-102627180D01*
X153123828Y-103103371D01*
X153171447Y-103055752D01*
X153266685Y-103008133D01*
X153504780Y-103008133D01*
X153600019Y-103055752D01*
X153647638Y-103103371D01*
X153695257Y-103198609D01*
X153695257Y-103436704D01*
X153647638Y-103531942D01*
X153600019Y-103579561D01*
X153504780Y-103627180D01*
X153266685Y-103627180D01*
X153171447Y-103579561D01*
X153123828Y-103531942D01*
X154314304Y-102627180D02*
X154409542Y-102627180D01*
X154504780Y-102674800D01*
X154552400Y-102722419D01*
X154600019Y-102817657D01*
X154647638Y-103008133D01*
X154647638Y-103246228D01*
X154600019Y-103436704D01*
X154552400Y-103531942D01*
X154504780Y-103579561D01*
X154409542Y-103627180D01*
X154314304Y-103627180D01*
X154219066Y-103579561D01*
X154171447Y-103531942D01*
X154123828Y-103436704D01*
X154076209Y-103246228D01*
X154076209Y-103008133D01*
X154123828Y-102817657D01*
X154171447Y-102722419D01*
X154219066Y-102674800D01*
X154314304Y-102627180D01*
X150485742Y-89901780D02*
X151104790Y-89901780D01*
X150771457Y-90282733D01*
X150914314Y-90282733D01*
X151009552Y-90330352D01*
X151057171Y-90377971D01*
X151104790Y-90473209D01*
X151104790Y-90711304D01*
X151057171Y-90806542D01*
X151009552Y-90854161D01*
X150914314Y-90901780D01*
X150628600Y-90901780D01*
X150533361Y-90854161D01*
X150485742Y-90806542D01*
X151580980Y-90901780D02*
X151771457Y-90901780D01*
X151866695Y-90854161D01*
X151914314Y-90806542D01*
X152009552Y-90663685D01*
X152057171Y-90473209D01*
X152057171Y-90092257D01*
X152009552Y-89997019D01*
X151961933Y-89949400D01*
X151866695Y-89901780D01*
X151676219Y-89901780D01*
X151580980Y-89949400D01*
X151533361Y-89997019D01*
X151485742Y-90092257D01*
X151485742Y-90330352D01*
X151533361Y-90425590D01*
X151580980Y-90473209D01*
X151676219Y-90520828D01*
X151866695Y-90520828D01*
X151961933Y-90473209D01*
X152009552Y-90425590D01*
X152057171Y-90330352D01*
X153676219Y-90235114D02*
X153676219Y-90901780D01*
X153438123Y-89854161D02*
X153200028Y-90568447D01*
X153819076Y-90568447D01*
X154390504Y-89901780D02*
X154485742Y-89901780D01*
X154580980Y-89949400D01*
X154628600Y-89997019D01*
X154676219Y-90092257D01*
X154723838Y-90282733D01*
X154723838Y-90520828D01*
X154676219Y-90711304D01*
X154628600Y-90806542D01*
X154580980Y-90854161D01*
X154485742Y-90901780D01*
X154390504Y-90901780D01*
X154295266Y-90854161D01*
X154247647Y-90806542D01*
X154200028Y-90711304D01*
X154152409Y-90520828D01*
X154152409Y-90282733D01*
X154200028Y-90092257D01*
X154247647Y-89997019D01*
X154295266Y-89949400D01*
X154390504Y-89901780D01*
X157187923Y-122591580D02*
X156711733Y-122591580D01*
X156664114Y-123067771D01*
X156711733Y-123020152D01*
X156806971Y-122972533D01*
X157045066Y-122972533D01*
X157140304Y-123020152D01*
X157187923Y-123067771D01*
X157235542Y-123163009D01*
X157235542Y-123401104D01*
X157187923Y-123496342D01*
X157140304Y-123543961D01*
X157045066Y-123591580D01*
X156806971Y-123591580D01*
X156711733Y-123543961D01*
X156664114Y-123496342D01*
X157521257Y-122591580D02*
X157854590Y-123591580D01*
X158187923Y-122591580D01*
X150926990Y-52844780D02*
X151117466Y-52844780D01*
X151212704Y-52797161D01*
X151260323Y-52749542D01*
X151355561Y-52606685D01*
X151403180Y-52416209D01*
X151403180Y-52035257D01*
X151355561Y-51940019D01*
X151307942Y-51892400D01*
X151212704Y-51844780D01*
X151022228Y-51844780D01*
X150926990Y-51892400D01*
X150879371Y-51940019D01*
X150831752Y-52035257D01*
X150831752Y-52273352D01*
X150879371Y-52368590D01*
X150926990Y-52416209D01*
X151022228Y-52463828D01*
X151212704Y-52463828D01*
X151307942Y-52416209D01*
X151355561Y-52368590D01*
X151403180Y-52273352D01*
X153117466Y-52844780D02*
X152546038Y-52844780D01*
X152831752Y-52844780D02*
X152831752Y-51844780D01*
X152736514Y-51987638D01*
X152641276Y-52082876D01*
X152546038Y-52130495D01*
X153736514Y-51844780D02*
X153831752Y-51844780D01*
X153926990Y-51892400D01*
X153974609Y-51940019D01*
X154022228Y-52035257D01*
X154069847Y-52225733D01*
X154069847Y-52463828D01*
X154022228Y-52654304D01*
X153974609Y-52749542D01*
X153926990Y-52797161D01*
X153831752Y-52844780D01*
X153736514Y-52844780D01*
X153641276Y-52797161D01*
X153593657Y-52749542D01*
X153546038Y-52654304D01*
X153498419Y-52463828D01*
X153498419Y-52225733D01*
X153546038Y-52035257D01*
X153593657Y-51940019D01*
X153641276Y-51892400D01*
X153736514Y-51844780D01*
X100158752Y-103062114D02*
X100158752Y-103728780D01*
X99920657Y-102681161D02*
X99682561Y-103395447D01*
X100301609Y-103395447D01*
X100730180Y-103728780D02*
X100920657Y-103728780D01*
X101015895Y-103681161D01*
X101063514Y-103633542D01*
X101158752Y-103490685D01*
X101206371Y-103300209D01*
X101206371Y-102919257D01*
X101158752Y-102824019D01*
X101111133Y-102776400D01*
X101015895Y-102728780D01*
X100825419Y-102728780D01*
X100730180Y-102776400D01*
X100682561Y-102824019D01*
X100634942Y-102919257D01*
X100634942Y-103157352D01*
X100682561Y-103252590D01*
X100730180Y-103300209D01*
X100825419Y-103347828D01*
X101015895Y-103347828D01*
X101111133Y-103300209D01*
X101158752Y-103252590D01*
X101206371Y-103157352D01*
X102873038Y-102728780D02*
X102396847Y-102728780D01*
X102349228Y-103204971D01*
X102396847Y-103157352D01*
X102492085Y-103109733D01*
X102730180Y-103109733D01*
X102825419Y-103157352D01*
X102873038Y-103204971D01*
X102920657Y-103300209D01*
X102920657Y-103538304D01*
X102873038Y-103633542D01*
X102825419Y-103681161D01*
X102730180Y-103728780D01*
X102492085Y-103728780D01*
X102396847Y-103681161D01*
X102349228Y-103633542D01*
X103539704Y-102728780D02*
X103634942Y-102728780D01*
X103730180Y-102776400D01*
X103777800Y-102824019D01*
X103825419Y-102919257D01*
X103873038Y-103109733D01*
X103873038Y-103347828D01*
X103825419Y-103538304D01*
X103777800Y-103633542D01*
X103730180Y-103681161D01*
X103634942Y-103728780D01*
X103539704Y-103728780D01*
X103444466Y-103681161D01*
X103396847Y-103633542D01*
X103349228Y-103538304D01*
X103301609Y-103347828D01*
X103301609Y-103109733D01*
X103349228Y-102919257D01*
X103396847Y-102824019D01*
X103444466Y-102776400D01*
X103539704Y-102728780D01*
X99828504Y-44207180D02*
X100447552Y-44207180D01*
X100114219Y-44588133D01*
X100257076Y-44588133D01*
X100352314Y-44635752D01*
X100399933Y-44683371D01*
X100447552Y-44778609D01*
X100447552Y-45016704D01*
X100399933Y-45111942D01*
X100352314Y-45159561D01*
X100257076Y-45207180D01*
X99971361Y-45207180D01*
X99876123Y-45159561D01*
X99828504Y-45111942D01*
X100733266Y-44207180D02*
X101066600Y-45207180D01*
X101399933Y-44207180D01*
X101638028Y-44207180D02*
X102257076Y-44207180D01*
X101923742Y-44588133D01*
X102066600Y-44588133D01*
X102161838Y-44635752D01*
X102209457Y-44683371D01*
X102257076Y-44778609D01*
X102257076Y-45016704D01*
X102209457Y-45111942D01*
X102161838Y-45159561D01*
X102066600Y-45207180D01*
X101780885Y-45207180D01*
X101685647Y-45159561D01*
X101638028Y-45111942D01*
X100053971Y-49236380D02*
X100720638Y-49236380D01*
X100292066Y-50236380D01*
X102768257Y-49664952D02*
X102673019Y-49617333D01*
X102625400Y-49569714D01*
X102577780Y-49474476D01*
X102577780Y-49426857D01*
X102625400Y-49331619D01*
X102673019Y-49284000D01*
X102768257Y-49236380D01*
X102958733Y-49236380D01*
X103053971Y-49284000D01*
X103101590Y-49331619D01*
X103149209Y-49426857D01*
X103149209Y-49474476D01*
X103101590Y-49569714D01*
X103053971Y-49617333D01*
X102958733Y-49664952D01*
X102768257Y-49664952D01*
X102673019Y-49712571D01*
X102625400Y-49760190D01*
X102577780Y-49855428D01*
X102577780Y-50045904D01*
X102625400Y-50141142D01*
X102673019Y-50188761D01*
X102768257Y-50236380D01*
X102958733Y-50236380D01*
X103053971Y-50188761D01*
X103101590Y-50141142D01*
X103149209Y-50045904D01*
X103149209Y-49855428D01*
X103101590Y-49760190D01*
X103053971Y-49712571D01*
X102958733Y-49664952D01*
X96456523Y-122616980D02*
X95980333Y-122616980D01*
X95932714Y-123093171D01*
X95980333Y-123045552D01*
X96075571Y-122997933D01*
X96313666Y-122997933D01*
X96408904Y-123045552D01*
X96456523Y-123093171D01*
X96504142Y-123188409D01*
X96504142Y-123426504D01*
X96456523Y-123521742D01*
X96408904Y-123569361D01*
X96313666Y-123616980D01*
X96075571Y-123616980D01*
X95980333Y-123569361D01*
X95932714Y-123521742D01*
X96789857Y-122616980D02*
X97123190Y-123616980D01*
X97456523Y-122616980D01*
X150533361Y-77314619D02*
X150580980Y-77267000D01*
X150676219Y-77219380D01*
X150914314Y-77219380D01*
X151009552Y-77267000D01*
X151057171Y-77314619D01*
X151104790Y-77409857D01*
X151104790Y-77505095D01*
X151057171Y-77647952D01*
X150485742Y-78219380D01*
X151104790Y-78219380D01*
X151580980Y-78219380D02*
X151771457Y-78219380D01*
X151866695Y-78171761D01*
X151914314Y-78124142D01*
X152009552Y-77981285D01*
X152057171Y-77790809D01*
X152057171Y-77409857D01*
X152009552Y-77314619D01*
X151961933Y-77267000D01*
X151866695Y-77219380D01*
X151676219Y-77219380D01*
X151580980Y-77267000D01*
X151533361Y-77314619D01*
X151485742Y-77409857D01*
X151485742Y-77647952D01*
X151533361Y-77743190D01*
X151580980Y-77790809D01*
X151676219Y-77838428D01*
X151866695Y-77838428D01*
X151961933Y-77790809D01*
X152009552Y-77743190D01*
X152057171Y-77647952D01*
X153152409Y-77219380D02*
X153771457Y-77219380D01*
X153438123Y-77600333D01*
X153580980Y-77600333D01*
X153676219Y-77647952D01*
X153723838Y-77695571D01*
X153771457Y-77790809D01*
X153771457Y-78028904D01*
X153723838Y-78124142D01*
X153676219Y-78171761D01*
X153580980Y-78219380D01*
X153295266Y-78219380D01*
X153200028Y-78171761D01*
X153152409Y-78124142D01*
X154390504Y-77219380D02*
X154485742Y-77219380D01*
X154580980Y-77267000D01*
X154628600Y-77314619D01*
X154676219Y-77409857D01*
X154723838Y-77600333D01*
X154723838Y-77838428D01*
X154676219Y-78028904D01*
X154628600Y-78124142D01*
X154580980Y-78171761D01*
X154485742Y-78219380D01*
X154390504Y-78219380D01*
X154295266Y-78171761D01*
X154247647Y-78124142D01*
X154200028Y-78028904D01*
X154152409Y-77838428D01*
X154152409Y-77600333D01*
X154200028Y-77409857D01*
X154247647Y-77314619D01*
X154295266Y-77267000D01*
X154390504Y-77219380D01*
X150828571Y-49134780D02*
X151495238Y-49134780D01*
X151066666Y-50134780D01*
X153542857Y-49563352D02*
X153447619Y-49515733D01*
X153400000Y-49468114D01*
X153352380Y-49372876D01*
X153352380Y-49325257D01*
X153400000Y-49230019D01*
X153447619Y-49182400D01*
X153542857Y-49134780D01*
X153733333Y-49134780D01*
X153828571Y-49182400D01*
X153876190Y-49230019D01*
X153923809Y-49325257D01*
X153923809Y-49372876D01*
X153876190Y-49468114D01*
X153828571Y-49515733D01*
X153733333Y-49563352D01*
X153542857Y-49563352D01*
X153447619Y-49610971D01*
X153400000Y-49658590D01*
X153352380Y-49753828D01*
X153352380Y-49944304D01*
X153400000Y-50039542D01*
X153447619Y-50087161D01*
X153542857Y-50134780D01*
X153733333Y-50134780D01*
X153828571Y-50087161D01*
X153876190Y-50039542D01*
X153923809Y-49944304D01*
X153923809Y-49753828D01*
X153876190Y-49658590D01*
X153828571Y-49610971D01*
X153733333Y-49563352D01*
X99711142Y-90003380D02*
X100330190Y-90003380D01*
X99996857Y-90384333D01*
X100139714Y-90384333D01*
X100234952Y-90431952D01*
X100282571Y-90479571D01*
X100330190Y-90574809D01*
X100330190Y-90812904D01*
X100282571Y-90908142D01*
X100234952Y-90955761D01*
X100139714Y-91003380D01*
X99854000Y-91003380D01*
X99758761Y-90955761D01*
X99711142Y-90908142D01*
X100806380Y-91003380D02*
X100996857Y-91003380D01*
X101092095Y-90955761D01*
X101139714Y-90908142D01*
X101234952Y-90765285D01*
X101282571Y-90574809D01*
X101282571Y-90193857D01*
X101234952Y-90098619D01*
X101187333Y-90051000D01*
X101092095Y-90003380D01*
X100901619Y-90003380D01*
X100806380Y-90051000D01*
X100758761Y-90098619D01*
X100711142Y-90193857D01*
X100711142Y-90431952D01*
X100758761Y-90527190D01*
X100806380Y-90574809D01*
X100901619Y-90622428D01*
X101092095Y-90622428D01*
X101187333Y-90574809D01*
X101234952Y-90527190D01*
X101282571Y-90431952D01*
X102901619Y-90336714D02*
X102901619Y-91003380D01*
X102663523Y-89955761D02*
X102425428Y-90670047D01*
X103044476Y-90670047D01*
X103615904Y-90003380D02*
X103711142Y-90003380D01*
X103806380Y-90051000D01*
X103854000Y-90098619D01*
X103901619Y-90193857D01*
X103949238Y-90384333D01*
X103949238Y-90622428D01*
X103901619Y-90812904D01*
X103854000Y-90908142D01*
X103806380Y-90955761D01*
X103711142Y-91003380D01*
X103615904Y-91003380D01*
X103520666Y-90955761D01*
X103473047Y-90908142D01*
X103425428Y-90812904D01*
X103377809Y-90622428D01*
X103377809Y-90384333D01*
X103425428Y-90193857D01*
X103473047Y-90098619D01*
X103520666Y-90051000D01*
X103615904Y-90003380D01*
X100355590Y-65595580D02*
X99784161Y-65595580D01*
X100069876Y-65595580D02*
X100069876Y-64595580D01*
X99974638Y-64738438D01*
X99879400Y-64833676D01*
X99784161Y-64881295D01*
X100831780Y-65595580D02*
X101022257Y-65595580D01*
X101117495Y-65547961D01*
X101165114Y-65500342D01*
X101260352Y-65357485D01*
X101307971Y-65167009D01*
X101307971Y-64786057D01*
X101260352Y-64690819D01*
X101212733Y-64643200D01*
X101117495Y-64595580D01*
X100927019Y-64595580D01*
X100831780Y-64643200D01*
X100784161Y-64690819D01*
X100736542Y-64786057D01*
X100736542Y-65024152D01*
X100784161Y-65119390D01*
X100831780Y-65167009D01*
X100927019Y-65214628D01*
X101117495Y-65214628D01*
X101212733Y-65167009D01*
X101260352Y-65119390D01*
X101307971Y-65024152D01*
X102450828Y-64690819D02*
X102498447Y-64643200D01*
X102593685Y-64595580D01*
X102831780Y-64595580D01*
X102927019Y-64643200D01*
X102974638Y-64690819D01*
X103022257Y-64786057D01*
X103022257Y-64881295D01*
X102974638Y-65024152D01*
X102403209Y-65595580D01*
X103022257Y-65595580D01*
X103641304Y-64595580D02*
X103736542Y-64595580D01*
X103831780Y-64643200D01*
X103879400Y-64690819D01*
X103927019Y-64786057D01*
X103974638Y-64976533D01*
X103974638Y-65214628D01*
X103927019Y-65405104D01*
X103879400Y-65500342D01*
X103831780Y-65547961D01*
X103736542Y-65595580D01*
X103641304Y-65595580D01*
X103546066Y-65547961D01*
X103498447Y-65500342D01*
X103450828Y-65405104D01*
X103403209Y-65214628D01*
X103403209Y-64976533D01*
X103450828Y-64786057D01*
X103498447Y-64690819D01*
X103546066Y-64643200D01*
X103641304Y-64595580D01*
X100152390Y-52946380D02*
X100342866Y-52946380D01*
X100438104Y-52898761D01*
X100485723Y-52851142D01*
X100580961Y-52708285D01*
X100628580Y-52517809D01*
X100628580Y-52136857D01*
X100580961Y-52041619D01*
X100533342Y-51994000D01*
X100438104Y-51946380D01*
X100247628Y-51946380D01*
X100152390Y-51994000D01*
X100104771Y-52041619D01*
X100057152Y-52136857D01*
X100057152Y-52374952D01*
X100104771Y-52470190D01*
X100152390Y-52517809D01*
X100247628Y-52565428D01*
X100438104Y-52565428D01*
X100533342Y-52517809D01*
X100580961Y-52470190D01*
X100628580Y-52374952D01*
X102342866Y-52946380D02*
X101771438Y-52946380D01*
X102057152Y-52946380D02*
X102057152Y-51946380D01*
X101961914Y-52089238D01*
X101866676Y-52184476D01*
X101771438Y-52232095D01*
X102961914Y-51946380D02*
X103057152Y-51946380D01*
X103152390Y-51994000D01*
X103200009Y-52041619D01*
X103247628Y-52136857D01*
X103295247Y-52327333D01*
X103295247Y-52565428D01*
X103247628Y-52755904D01*
X103200009Y-52851142D01*
X103152390Y-52898761D01*
X103057152Y-52946380D01*
X102961914Y-52946380D01*
X102866676Y-52898761D01*
X102819057Y-52851142D01*
X102771438Y-52755904D01*
X102723819Y-52565428D01*
X102723819Y-52327333D01*
X102771438Y-52136857D01*
X102819057Y-52041619D01*
X102866676Y-51994000D01*
X102961914Y-51946380D01*
X100304695Y-46871000D02*
X100209457Y-46823380D01*
X100066600Y-46823380D01*
X99923742Y-46871000D01*
X99828504Y-46966238D01*
X99780885Y-47061476D01*
X99733266Y-47251952D01*
X99733266Y-47394809D01*
X99780885Y-47585285D01*
X99828504Y-47680523D01*
X99923742Y-47775761D01*
X100066600Y-47823380D01*
X100161838Y-47823380D01*
X100304695Y-47775761D01*
X100352314Y-47728142D01*
X100352314Y-47394809D01*
X100161838Y-47394809D01*
X100780885Y-47823380D02*
X100780885Y-46823380D01*
X101352314Y-47823380D01*
X101352314Y-46823380D01*
X101828504Y-47823380D02*
X101828504Y-46823380D01*
X102066600Y-46823380D01*
X102209457Y-46871000D01*
X102304695Y-46966238D01*
X102352314Y-47061476D01*
X102399933Y-47251952D01*
X102399933Y-47394809D01*
X102352314Y-47585285D01*
X102304695Y-47680523D01*
X102209457Y-47775761D01*
X102066600Y-47823380D01*
X101828504Y-47823380D01*
X151130190Y-65493980D02*
X150558761Y-65493980D01*
X150844476Y-65493980D02*
X150844476Y-64493980D01*
X150749238Y-64636838D01*
X150654000Y-64732076D01*
X150558761Y-64779695D01*
X151606380Y-65493980D02*
X151796857Y-65493980D01*
X151892095Y-65446361D01*
X151939714Y-65398742D01*
X152034952Y-65255885D01*
X152082571Y-65065409D01*
X152082571Y-64684457D01*
X152034952Y-64589219D01*
X151987333Y-64541600D01*
X151892095Y-64493980D01*
X151701619Y-64493980D01*
X151606380Y-64541600D01*
X151558761Y-64589219D01*
X151511142Y-64684457D01*
X151511142Y-64922552D01*
X151558761Y-65017790D01*
X151606380Y-65065409D01*
X151701619Y-65113028D01*
X151892095Y-65113028D01*
X151987333Y-65065409D01*
X152034952Y-65017790D01*
X152082571Y-64922552D01*
X153225428Y-64589219D02*
X153273047Y-64541600D01*
X153368285Y-64493980D01*
X153606380Y-64493980D01*
X153701619Y-64541600D01*
X153749238Y-64589219D01*
X153796857Y-64684457D01*
X153796857Y-64779695D01*
X153749238Y-64922552D01*
X153177809Y-65493980D01*
X153796857Y-65493980D01*
X154415904Y-64493980D02*
X154511142Y-64493980D01*
X154606380Y-64541600D01*
X154654000Y-64589219D01*
X154701619Y-64684457D01*
X154749238Y-64874933D01*
X154749238Y-65113028D01*
X154701619Y-65303504D01*
X154654000Y-65398742D01*
X154606380Y-65446361D01*
X154511142Y-65493980D01*
X154415904Y-65493980D01*
X154320666Y-65446361D01*
X154273047Y-65398742D01*
X154225428Y-65303504D01*
X154177809Y-65113028D01*
X154177809Y-64874933D01*
X154225428Y-64684457D01*
X154273047Y-64589219D01*
X154320666Y-64541600D01*
X154415904Y-64493980D01*
X152152504Y-43749980D02*
X152771552Y-43749980D01*
X152438219Y-44130933D01*
X152581076Y-44130933D01*
X152676314Y-44178552D01*
X152723933Y-44226171D01*
X152771552Y-44321409D01*
X152771552Y-44559504D01*
X152723933Y-44654742D01*
X152676314Y-44702361D01*
X152581076Y-44749980D01*
X152295361Y-44749980D01*
X152200123Y-44702361D01*
X152152504Y-44654742D01*
X153057266Y-43749980D02*
X153390600Y-44749980D01*
X153723933Y-43749980D01*
X153962028Y-43749980D02*
X154581076Y-43749980D01*
X154247742Y-44130933D01*
X154390600Y-44130933D01*
X154485838Y-44178552D01*
X154533457Y-44226171D01*
X154581076Y-44321409D01*
X154581076Y-44559504D01*
X154533457Y-44654742D01*
X154485838Y-44702361D01*
X154390600Y-44749980D01*
X154104885Y-44749980D01*
X154009647Y-44702361D01*
X153962028Y-44654742D01*
%TO.C,J4*%
X157070466Y-27703980D02*
X157070466Y-28418266D01*
X157022847Y-28561123D01*
X156927609Y-28656361D01*
X156784752Y-28703980D01*
X156689514Y-28703980D01*
X157975228Y-28037314D02*
X157975228Y-28703980D01*
X157737133Y-27656361D02*
X157499038Y-28370647D01*
X158118085Y-28370647D01*
%TO.C,RJ2*%
X126706380Y-32862780D02*
X126373047Y-32386590D01*
X126134952Y-32862780D02*
X126134952Y-31862780D01*
X126515904Y-31862780D01*
X126611142Y-31910400D01*
X126658761Y-31958019D01*
X126706380Y-32053257D01*
X126706380Y-32196114D01*
X126658761Y-32291352D01*
X126611142Y-32338971D01*
X126515904Y-32386590D01*
X126134952Y-32386590D01*
X127420666Y-31862780D02*
X127420666Y-32577066D01*
X127373047Y-32719923D01*
X127277809Y-32815161D01*
X127134952Y-32862780D01*
X127039714Y-32862780D01*
X127849238Y-31958019D02*
X127896857Y-31910400D01*
X127992095Y-31862780D01*
X128230190Y-31862780D01*
X128325428Y-31910400D01*
X128373047Y-31958019D01*
X128420666Y-32053257D01*
X128420666Y-32148495D01*
X128373047Y-32291352D01*
X127801619Y-32862780D01*
X128420666Y-32862780D01*
%TO.C,RJ1*%
X116825780Y-32811980D02*
X116492447Y-32335790D01*
X116254352Y-32811980D02*
X116254352Y-31811980D01*
X116635304Y-31811980D01*
X116730542Y-31859600D01*
X116778161Y-31907219D01*
X116825780Y-32002457D01*
X116825780Y-32145314D01*
X116778161Y-32240552D01*
X116730542Y-32288171D01*
X116635304Y-32335790D01*
X116254352Y-32335790D01*
X117540066Y-31811980D02*
X117540066Y-32526266D01*
X117492447Y-32669123D01*
X117397209Y-32764361D01*
X117254352Y-32811980D01*
X117159114Y-32811980D01*
X118540066Y-32811980D02*
X117968638Y-32811980D01*
X118254352Y-32811980D02*
X118254352Y-31811980D01*
X118159114Y-31954838D01*
X118063876Y-32050076D01*
X117968638Y-32097695D01*
%TO.C,R5*%
X97293133Y-29433780D02*
X96959800Y-28957590D01*
X96721704Y-29433780D02*
X96721704Y-28433780D01*
X97102657Y-28433780D01*
X97197895Y-28481400D01*
X97245514Y-28529019D01*
X97293133Y-28624257D01*
X97293133Y-28767114D01*
X97245514Y-28862352D01*
X97197895Y-28909971D01*
X97102657Y-28957590D01*
X96721704Y-28957590D01*
X98197895Y-28433780D02*
X97721704Y-28433780D01*
X97674085Y-28909971D01*
X97721704Y-28862352D01*
X97816942Y-28814733D01*
X98055038Y-28814733D01*
X98150276Y-28862352D01*
X98197895Y-28909971D01*
X98245514Y-29005209D01*
X98245514Y-29243304D01*
X98197895Y-29338542D01*
X98150276Y-29386161D01*
X98055038Y-29433780D01*
X97816942Y-29433780D01*
X97721704Y-29386161D01*
X97674085Y-29338542D01*
%TO.C,R4*%
X127061933Y-29433780D02*
X126728600Y-28957590D01*
X126490504Y-29433780D02*
X126490504Y-28433780D01*
X126871457Y-28433780D01*
X126966695Y-28481400D01*
X127014314Y-28529019D01*
X127061933Y-28624257D01*
X127061933Y-28767114D01*
X127014314Y-28862352D01*
X126966695Y-28909971D01*
X126871457Y-28957590D01*
X126490504Y-28957590D01*
X127919076Y-28767114D02*
X127919076Y-29433780D01*
X127680980Y-28386161D02*
X127442885Y-29100447D01*
X128061933Y-29100447D01*
%TO.C,R3*%
X117714733Y-29433780D02*
X117381400Y-28957590D01*
X117143304Y-29433780D02*
X117143304Y-28433780D01*
X117524257Y-28433780D01*
X117619495Y-28481400D01*
X117667114Y-28529019D01*
X117714733Y-28624257D01*
X117714733Y-28767114D01*
X117667114Y-28862352D01*
X117619495Y-28909971D01*
X117524257Y-28957590D01*
X117143304Y-28957590D01*
X118048066Y-28433780D02*
X118667114Y-28433780D01*
X118333780Y-28814733D01*
X118476638Y-28814733D01*
X118571876Y-28862352D01*
X118619495Y-28909971D01*
X118667114Y-29005209D01*
X118667114Y-29243304D01*
X118619495Y-29338542D01*
X118571876Y-29386161D01*
X118476638Y-29433780D01*
X118190923Y-29433780D01*
X118095685Y-29386161D01*
X118048066Y-29338542D01*
%TO.C,R2*%
X147610533Y-29509980D02*
X147277200Y-29033790D01*
X147039104Y-29509980D02*
X147039104Y-28509980D01*
X147420057Y-28509980D01*
X147515295Y-28557600D01*
X147562914Y-28605219D01*
X147610533Y-28700457D01*
X147610533Y-28843314D01*
X147562914Y-28938552D01*
X147515295Y-28986171D01*
X147420057Y-29033790D01*
X147039104Y-29033790D01*
X147991485Y-28605219D02*
X148039104Y-28557600D01*
X148134342Y-28509980D01*
X148372438Y-28509980D01*
X148467676Y-28557600D01*
X148515295Y-28605219D01*
X148562914Y-28700457D01*
X148562914Y-28795695D01*
X148515295Y-28938552D01*
X147943866Y-29509980D01*
X148562914Y-29509980D01*
%TO.C,N2*%
X79426142Y-64984380D02*
X79759476Y-65984380D01*
X80092809Y-64984380D01*
X80378523Y-65079619D02*
X80426142Y-65032000D01*
X80521380Y-64984380D01*
X80759476Y-64984380D01*
X80854714Y-65032000D01*
X80902333Y-65079619D01*
X80949952Y-65174857D01*
X80949952Y-65270095D01*
X80902333Y-65412952D01*
X80330904Y-65984380D01*
X80949952Y-65984380D01*
X81569000Y-64984380D02*
X81664238Y-64984380D01*
X81759476Y-65032000D01*
X81807095Y-65079619D01*
X81854714Y-65174857D01*
X81902333Y-65365333D01*
X81902333Y-65603428D01*
X81854714Y-65793904D01*
X81807095Y-65889142D01*
X81759476Y-65936761D01*
X81664238Y-65984380D01*
X81569000Y-65984380D01*
X81473761Y-65936761D01*
X81426142Y-65889142D01*
X81378523Y-65793904D01*
X81330904Y-65603428D01*
X81330904Y-65365333D01*
X81378523Y-65174857D01*
X81426142Y-65079619D01*
X81473761Y-65032000D01*
X81569000Y-64984380D01*
X82854714Y-65984380D02*
X82283285Y-65984380D01*
X82569000Y-65984380D02*
X82569000Y-64984380D01*
X82473761Y-65127238D01*
X82378523Y-65222476D01*
X82283285Y-65270095D01*
X83188047Y-64984380D02*
X83854714Y-64984380D01*
X83426142Y-65984380D01*
X84759476Y-65984380D02*
X84188047Y-65984380D01*
X84473761Y-65984380D02*
X84473761Y-64984380D01*
X84378523Y-65127238D01*
X84283285Y-65222476D01*
X84188047Y-65270095D01*
X85711857Y-65984380D02*
X85140428Y-65984380D01*
X85426142Y-65984380D02*
X85426142Y-64984380D01*
X85330904Y-65127238D01*
X85235666Y-65222476D01*
X85140428Y-65270095D01*
X86092809Y-65079619D02*
X86140428Y-65032000D01*
X86235666Y-64984380D01*
X86473761Y-64984380D01*
X86569000Y-65032000D01*
X86616619Y-65079619D01*
X86664238Y-65174857D01*
X86664238Y-65270095D01*
X86616619Y-65412952D01*
X86045190Y-65984380D01*
X86664238Y-65984380D01*
X87283285Y-64984380D02*
X87378523Y-64984380D01*
X87473761Y-65032000D01*
X87521380Y-65079619D01*
X87569000Y-65174857D01*
X87616619Y-65365333D01*
X87616619Y-65603428D01*
X87569000Y-65793904D01*
X87521380Y-65889142D01*
X87473761Y-65936761D01*
X87378523Y-65984380D01*
X87283285Y-65984380D01*
X87188047Y-65936761D01*
X87140428Y-65889142D01*
X87092809Y-65793904D01*
X87045190Y-65603428D01*
X87045190Y-65365333D01*
X87092809Y-65174857D01*
X87140428Y-65079619D01*
X87188047Y-65032000D01*
X87283285Y-64984380D01*
%TO.C,J1*%
X99666466Y-40955980D02*
X99666466Y-41670266D01*
X99618847Y-41813123D01*
X99523609Y-41908361D01*
X99380752Y-41955980D01*
X99285514Y-41955980D01*
X100666466Y-41955980D02*
X100095038Y-41955980D01*
X100380752Y-41955980D02*
X100380752Y-40955980D01*
X100285514Y-41098838D01*
X100190276Y-41194076D01*
X100095038Y-41241695D01*
%TO.C,C1*%
X146215333Y-125264142D02*
X146167714Y-125311761D01*
X146024857Y-125359380D01*
X145929619Y-125359380D01*
X145786761Y-125311761D01*
X145691523Y-125216523D01*
X145643904Y-125121285D01*
X145596285Y-124930809D01*
X145596285Y-124787952D01*
X145643904Y-124597476D01*
X145691523Y-124502238D01*
X145786761Y-124407000D01*
X145929619Y-124359380D01*
X146024857Y-124359380D01*
X146167714Y-124407000D01*
X146215333Y-124454619D01*
X147167714Y-125359380D02*
X146596285Y-125359380D01*
X146882000Y-125359380D02*
X146882000Y-124359380D01*
X146786761Y-124502238D01*
X146691523Y-124597476D01*
X146596285Y-124645095D01*
%TO.C,C4*%
X110323333Y-113133142D02*
X110275714Y-113180761D01*
X110132857Y-113228380D01*
X110037619Y-113228380D01*
X109894761Y-113180761D01*
X109799523Y-113085523D01*
X109751904Y-112990285D01*
X109704285Y-112799809D01*
X109704285Y-112656952D01*
X109751904Y-112466476D01*
X109799523Y-112371238D01*
X109894761Y-112276000D01*
X110037619Y-112228380D01*
X110132857Y-112228380D01*
X110275714Y-112276000D01*
X110323333Y-112323619D01*
X111180476Y-112561714D02*
X111180476Y-113228380D01*
X110942380Y-112180761D02*
X110704285Y-112895047D01*
X111323333Y-112895047D01*
%TO.C,C3*%
X105111533Y-111305142D02*
X105063914Y-111352761D01*
X104921057Y-111400380D01*
X104825819Y-111400380D01*
X104682961Y-111352761D01*
X104587723Y-111257523D01*
X104540104Y-111162285D01*
X104492485Y-110971809D01*
X104492485Y-110828952D01*
X104540104Y-110638476D01*
X104587723Y-110543238D01*
X104682961Y-110448000D01*
X104825819Y-110400380D01*
X104921057Y-110400380D01*
X105063914Y-110448000D01*
X105111533Y-110495619D01*
X105444866Y-110400380D02*
X106063914Y-110400380D01*
X105730580Y-110781333D01*
X105873438Y-110781333D01*
X105968676Y-110828952D01*
X106016295Y-110876571D01*
X106063914Y-110971809D01*
X106063914Y-111209904D01*
X106016295Y-111305142D01*
X105968676Y-111352761D01*
X105873438Y-111400380D01*
X105587723Y-111400380D01*
X105492485Y-111352761D01*
X105444866Y-111305142D01*
%TO.C,C6*%
X147077133Y-39523942D02*
X147029514Y-39571561D01*
X146886657Y-39619180D01*
X146791419Y-39619180D01*
X146648561Y-39571561D01*
X146553323Y-39476323D01*
X146505704Y-39381085D01*
X146458085Y-39190609D01*
X146458085Y-39047752D01*
X146505704Y-38857276D01*
X146553323Y-38762038D01*
X146648561Y-38666800D01*
X146791419Y-38619180D01*
X146886657Y-38619180D01*
X147029514Y-38666800D01*
X147077133Y-38714419D01*
X147934276Y-38619180D02*
X147743800Y-38619180D01*
X147648561Y-38666800D01*
X147600942Y-38714419D01*
X147505704Y-38857276D01*
X147458085Y-39047752D01*
X147458085Y-39428704D01*
X147505704Y-39523942D01*
X147553323Y-39571561D01*
X147648561Y-39619180D01*
X147839038Y-39619180D01*
X147934276Y-39571561D01*
X147981895Y-39523942D01*
X148029514Y-39428704D01*
X148029514Y-39190609D01*
X147981895Y-39095371D01*
X147934276Y-39047752D01*
X147839038Y-39000133D01*
X147648561Y-39000133D01*
X147553323Y-39047752D01*
X147505704Y-39095371D01*
X147458085Y-39190609D01*
%TO.C,CN1*%
X117876723Y-123089942D02*
X117829104Y-123137561D01*
X117686247Y-123185180D01*
X117591009Y-123185180D01*
X117448152Y-123137561D01*
X117352914Y-123042323D01*
X117305295Y-122947085D01*
X117257676Y-122756609D01*
X117257676Y-122613752D01*
X117305295Y-122423276D01*
X117352914Y-122328038D01*
X117448152Y-122232800D01*
X117591009Y-122185180D01*
X117686247Y-122185180D01*
X117829104Y-122232800D01*
X117876723Y-122280419D01*
X118305295Y-123185180D02*
X118305295Y-122185180D01*
X118876723Y-123185180D01*
X118876723Y-122185180D01*
X119876723Y-123185180D02*
X119305295Y-123185180D01*
X119591009Y-123185180D02*
X119591009Y-122185180D01*
X119495771Y-122328038D01*
X119400533Y-122423276D01*
X119305295Y-122470895D01*
%TO.C,C2*%
X158375333Y-125174142D02*
X158327714Y-125221761D01*
X158184857Y-125269380D01*
X158089619Y-125269380D01*
X157946761Y-125221761D01*
X157851523Y-125126523D01*
X157803904Y-125031285D01*
X157756285Y-124840809D01*
X157756285Y-124697952D01*
X157803904Y-124507476D01*
X157851523Y-124412238D01*
X157946761Y-124317000D01*
X158089619Y-124269380D01*
X158184857Y-124269380D01*
X158327714Y-124317000D01*
X158375333Y-124364619D01*
X158756285Y-124364619D02*
X158803904Y-124317000D01*
X158899142Y-124269380D01*
X159137238Y-124269380D01*
X159232476Y-124317000D01*
X159280095Y-124364619D01*
X159327714Y-124459857D01*
X159327714Y-124555095D01*
X159280095Y-124697952D01*
X158708666Y-125269380D01*
X159327714Y-125269380D01*
%TO.C,U1*%
X145034095Y-118984780D02*
X145034095Y-119794304D01*
X145081714Y-119889542D01*
X145129333Y-119937161D01*
X145224571Y-119984780D01*
X145415047Y-119984780D01*
X145510285Y-119937161D01*
X145557904Y-119889542D01*
X145605523Y-119794304D01*
X145605523Y-118984780D01*
X146605523Y-119984780D02*
X146034095Y-119984780D01*
X146319809Y-119984780D02*
X146319809Y-118984780D01*
X146224571Y-119127638D01*
X146129333Y-119222876D01*
X146034095Y-119270495D01*
%TO.C,J2*%
X153082666Y-41616380D02*
X153082666Y-42330666D01*
X153035047Y-42473523D01*
X152939809Y-42568761D01*
X152796952Y-42616380D01*
X152701714Y-42616380D01*
X153511238Y-41711619D02*
X153558857Y-41664000D01*
X153654095Y-41616380D01*
X153892190Y-41616380D01*
X153987428Y-41664000D01*
X154035047Y-41711619D01*
X154082666Y-41806857D01*
X154082666Y-41902095D01*
X154035047Y-42044952D01*
X153463619Y-42616380D01*
X154082666Y-42616380D01*
%TO.C,C7*%
X117257533Y-38457142D02*
X117209914Y-38504761D01*
X117067057Y-38552380D01*
X116971819Y-38552380D01*
X116828961Y-38504761D01*
X116733723Y-38409523D01*
X116686104Y-38314285D01*
X116638485Y-38123809D01*
X116638485Y-37980952D01*
X116686104Y-37790476D01*
X116733723Y-37695238D01*
X116828961Y-37600000D01*
X116971819Y-37552380D01*
X117067057Y-37552380D01*
X117209914Y-37600000D01*
X117257533Y-37647619D01*
X117590866Y-37552380D02*
X118257533Y-37552380D01*
X117828961Y-38552380D01*
%TO.C,C5*%
X108311933Y-111305142D02*
X108264314Y-111352761D01*
X108121457Y-111400380D01*
X108026219Y-111400380D01*
X107883361Y-111352761D01*
X107788123Y-111257523D01*
X107740504Y-111162285D01*
X107692885Y-110971809D01*
X107692885Y-110828952D01*
X107740504Y-110638476D01*
X107788123Y-110543238D01*
X107883361Y-110448000D01*
X108026219Y-110400380D01*
X108121457Y-110400380D01*
X108264314Y-110448000D01*
X108311933Y-110495619D01*
X109216695Y-110400380D02*
X108740504Y-110400380D01*
X108692885Y-110876571D01*
X108740504Y-110828952D01*
X108835742Y-110781333D01*
X109073838Y-110781333D01*
X109169076Y-110828952D01*
X109216695Y-110876571D01*
X109264314Y-110971809D01*
X109264314Y-111209904D01*
X109216695Y-111305142D01*
X109169076Y-111352761D01*
X109073838Y-111400380D01*
X108835742Y-111400380D01*
X108740504Y-111352761D01*
X108692885Y-111305142D01*
%TO.C,J4-GND1*%
X122193419Y-37323780D02*
X122193419Y-38038066D01*
X122145800Y-38180923D01*
X122050561Y-38276161D01*
X121907704Y-38323780D01*
X121812466Y-38323780D01*
X123098180Y-37657114D02*
X123098180Y-38323780D01*
X122860085Y-37276161D02*
X122621990Y-37990447D01*
X123241038Y-37990447D01*
X123621990Y-37942828D02*
X124383895Y-37942828D01*
X125383895Y-37371400D02*
X125288657Y-37323780D01*
X125145800Y-37323780D01*
X125002942Y-37371400D01*
X124907704Y-37466638D01*
X124860085Y-37561876D01*
X124812466Y-37752352D01*
X124812466Y-37895209D01*
X124860085Y-38085685D01*
X124907704Y-38180923D01*
X125002942Y-38276161D01*
X125145800Y-38323780D01*
X125241038Y-38323780D01*
X125383895Y-38276161D01*
X125431514Y-38228542D01*
X125431514Y-37895209D01*
X125241038Y-37895209D01*
X125860085Y-38323780D02*
X125860085Y-37323780D01*
X126431514Y-38323780D01*
X126431514Y-37323780D01*
X126907704Y-38323780D02*
X126907704Y-37323780D01*
X127145800Y-37323780D01*
X127288657Y-37371400D01*
X127383895Y-37466638D01*
X127431514Y-37561876D01*
X127479133Y-37752352D01*
X127479133Y-37895209D01*
X127431514Y-38085685D01*
X127383895Y-38180923D01*
X127288657Y-38276161D01*
X127145800Y-38323780D01*
X126907704Y-38323780D01*
X128431514Y-38323780D02*
X127860085Y-38323780D01*
X128145800Y-38323780D02*
X128145800Y-37323780D01*
X128050561Y-37466638D01*
X127955323Y-37561876D01*
X127860085Y-37609495D01*
%TO.C,J3*%
X113611066Y-122083580D02*
X113611066Y-122797866D01*
X113563447Y-122940723D01*
X113468209Y-123035961D01*
X113325352Y-123083580D01*
X113230114Y-123083580D01*
X113992019Y-122083580D02*
X114611066Y-122083580D01*
X114277733Y-122464533D01*
X114420590Y-122464533D01*
X114515828Y-122512152D01*
X114563447Y-122559771D01*
X114611066Y-122655009D01*
X114611066Y-122893104D01*
X114563447Y-122988342D01*
X114515828Y-123035961D01*
X114420590Y-123083580D01*
X114134876Y-123083580D01*
X114039638Y-123035961D01*
X113992019Y-122988342D01*
%TO.C,R1*%
X101912333Y-120492380D02*
X101579000Y-120016190D01*
X101340904Y-120492380D02*
X101340904Y-119492380D01*
X101721857Y-119492380D01*
X101817095Y-119540000D01*
X101864714Y-119587619D01*
X101912333Y-119682857D01*
X101912333Y-119825714D01*
X101864714Y-119920952D01*
X101817095Y-119968571D01*
X101721857Y-120016190D01*
X101340904Y-120016190D01*
X102864714Y-120492380D02*
X102293285Y-120492380D01*
X102579000Y-120492380D02*
X102579000Y-119492380D01*
X102483761Y-119635238D01*
X102388523Y-119730476D01*
X102293285Y-119778095D01*
%TO.C,FB1*%
X102036666Y-114228571D02*
X101703333Y-114228571D01*
X101703333Y-114752380D02*
X101703333Y-113752380D01*
X102179523Y-113752380D01*
X102893809Y-114228571D02*
X103036666Y-114276190D01*
X103084285Y-114323809D01*
X103131904Y-114419047D01*
X103131904Y-114561904D01*
X103084285Y-114657142D01*
X103036666Y-114704761D01*
X102941428Y-114752380D01*
X102560476Y-114752380D01*
X102560476Y-113752380D01*
X102893809Y-113752380D01*
X102989047Y-113800000D01*
X103036666Y-113847619D01*
X103084285Y-113942857D01*
X103084285Y-114038095D01*
X103036666Y-114133333D01*
X102989047Y-114180952D01*
X102893809Y-114228571D01*
X102560476Y-114228571D01*
X104084285Y-114752380D02*
X103512857Y-114752380D01*
X103798571Y-114752380D02*
X103798571Y-113752380D01*
X103703333Y-113895238D01*
X103608095Y-113990476D01*
X103512857Y-114038095D01*
%TO.C,F1*%
X108531066Y-118190971D02*
X108197733Y-118190971D01*
X108197733Y-118714780D02*
X108197733Y-117714780D01*
X108673923Y-117714780D01*
X109578685Y-118714780D02*
X109007257Y-118714780D01*
X109292971Y-118714780D02*
X109292971Y-117714780D01*
X109197733Y-117857638D01*
X109102495Y-117952876D01*
X109007257Y-118000495D01*
D11*
%TO.C,J4*%
X158733800Y-31851600D02*
X158733800Y-39531600D01*
X156073800Y-30581600D02*
X156073800Y-29251600D01*
X156073800Y-39531600D02*
X158733800Y-39531600D01*
X156073800Y-31851600D02*
X158733800Y-31851600D01*
X156073800Y-29251600D02*
X157403800Y-29251600D01*
X156073800Y-31851600D02*
X156073800Y-39531600D01*
D12*
%TO.C,RJ2*%
X129236200Y-21326800D02*
X145236200Y-21326800D01*
X145236200Y-21326800D02*
X145236200Y-42906800D01*
X145236200Y-42906800D02*
X129236200Y-42906800D01*
X129236200Y-42906800D02*
X129236200Y-21326800D01*
X130136200Y-21316800D02*
X130136200Y-22916800D01*
X130136200Y-22916800D02*
X132236200Y-22916800D01*
X132236200Y-22916800D02*
X132236200Y-22116800D01*
X132236200Y-22116800D02*
X132236200Y-21316800D01*
X142236200Y-21416800D02*
X142236200Y-23016800D01*
X142236200Y-23016800D02*
X144336200Y-23016800D01*
X144336200Y-23016800D02*
X144336200Y-22216800D01*
X144336200Y-22216800D02*
X144336200Y-21416800D01*
%TO.C,RJ1*%
X99238800Y-21326800D02*
X115238800Y-21326800D01*
X115238800Y-21326800D02*
X115238800Y-42906800D01*
X115238800Y-42906800D02*
X99238800Y-42906800D01*
X99238800Y-42906800D02*
X99238800Y-21326800D01*
X100138800Y-21316800D02*
X100138800Y-22916800D01*
X100138800Y-22916800D02*
X102238800Y-22916800D01*
X102238800Y-22916800D02*
X102238800Y-22116800D01*
X102238800Y-22116800D02*
X102238800Y-21316800D01*
X112238800Y-21416800D02*
X112238800Y-23016800D01*
X112238800Y-23016800D02*
X114338800Y-23016800D01*
X114338800Y-23016800D02*
X114338800Y-22216800D01*
X114338800Y-22216800D02*
X114338800Y-21416800D01*
D11*
%TO.C,R5*%
X97120942Y-26680900D02*
X97595458Y-26680900D01*
X97120942Y-27725900D02*
X97595458Y-27725900D01*
%TO.C,R4*%
X127016742Y-26655500D02*
X127491258Y-26655500D01*
X127016742Y-27700500D02*
X127491258Y-27700500D01*
%TO.C,R3*%
X118093258Y-26604700D02*
X117618742Y-26604700D01*
X118093258Y-27649700D02*
X117618742Y-27649700D01*
%TO.C,R2*%
X148014458Y-26680900D02*
X147539942Y-26680900D01*
X148014458Y-27725900D02*
X147539942Y-27725900D01*
%TO.C,J1*%
X93920000Y-43434000D02*
X96520000Y-43434000D01*
X93920000Y-43434000D02*
X93920000Y-122234000D01*
X96520000Y-40834000D02*
X99120000Y-40834000D01*
X93920000Y-122234000D02*
X99120000Y-122234000D01*
X93920000Y-42164000D02*
X93920000Y-40834000D01*
X96520000Y-43434000D02*
X96520000Y-40834000D01*
X93920000Y-40834000D02*
X95250000Y-40834000D01*
X99120000Y-40834000D02*
X99120000Y-122234000D01*
%TO.C,C1*%
X149001420Y-125417000D02*
X149282580Y-125417000D01*
X149001420Y-124397000D02*
X149282580Y-124397000D01*
%TO.C,C4*%
X111308980Y-114886400D02*
X111027820Y-114886400D01*
X111308980Y-113866400D02*
X111027820Y-113866400D01*
%TO.C,C3*%
X104573400Y-113175148D02*
X104573400Y-113697652D01*
X106043400Y-113175148D02*
X106043400Y-113697652D01*
%TO.C,C6*%
X147397380Y-41531000D02*
X147116220Y-41531000D01*
X147397380Y-40511000D02*
X147116220Y-40511000D01*
D12*
%TO.C,CN1*%
X123218400Y-118994800D02*
X122418400Y-118994800D01*
X121518400Y-121544800D02*
X115518400Y-121544800D01*
X114618400Y-47654800D02*
X114618400Y-44494800D01*
X122418400Y-47494800D02*
X122418400Y-44494800D01*
X113818400Y-118994800D02*
X113818400Y-115994800D01*
X122418400Y-62224800D02*
X122418400Y-65564800D01*
X113818400Y-44494800D02*
X114618400Y-44494800D01*
X115518400Y-121544800D02*
X115518400Y-118994800D01*
X114418400Y-118994800D02*
X114418400Y-118994800D01*
X123218400Y-115994800D02*
X123218400Y-118994800D01*
X114618400Y-115994800D02*
X114618400Y-118994800D01*
X114618400Y-114784800D02*
X114618400Y-113524800D01*
X122418400Y-44494800D02*
X121518400Y-44494800D01*
X122418400Y-48734800D02*
X122418400Y-49964800D01*
X114618400Y-47494800D02*
X113818400Y-47494800D01*
X122418400Y-47494800D02*
X123218400Y-47494800D01*
X122418400Y-48734800D02*
X122418400Y-47494800D01*
X114618400Y-115994800D02*
X114618400Y-114784800D01*
X121518400Y-44494800D02*
X121518400Y-41944800D01*
X122418400Y-113824800D02*
X122418400Y-117394800D01*
X121518400Y-118994800D02*
X121518400Y-121544800D01*
X115518400Y-41944800D02*
X115518400Y-44494800D01*
X122418400Y-118994800D02*
X122418400Y-118194800D01*
X121518400Y-41944800D02*
X115518400Y-41944800D01*
X114618400Y-118994800D02*
X113818400Y-118994800D01*
X113818400Y-47494800D02*
X113818400Y-44494800D01*
X114618400Y-48694800D02*
X114618400Y-49664800D01*
X122418400Y-114804800D02*
X122418400Y-115994800D01*
X122418400Y-117394800D02*
X122418400Y-118194800D01*
X122418400Y-115994800D02*
X123218400Y-115994800D01*
X114618400Y-61924800D02*
X114618400Y-65264800D01*
X115518400Y-44494800D02*
X114618400Y-44494800D01*
X114618400Y-48694800D02*
X114618400Y-47494800D01*
X123218400Y-44494800D02*
X122418400Y-44494800D01*
X122598400Y-118994800D02*
X121518400Y-118994800D01*
X113818400Y-115994800D02*
X114618400Y-115994800D01*
X115518400Y-118994800D02*
X114418400Y-118994800D01*
X123218400Y-47494800D02*
X123218400Y-44494800D01*
D13*
X115418400Y-49344800D02*
G75*
G03*
X115418400Y-49344800I-150000J0D01*
G01*
%TO.C,N1*%
G36*
X129333814Y-119896931D02*
G01*
X129417635Y-120341555D01*
X129726920Y-120469053D01*
X130036206Y-120596551D01*
X130407246Y-120344246D01*
X130511157Y-120273996D01*
X130605087Y-120211272D01*
X130684652Y-120158938D01*
X130745470Y-120119857D01*
X130783157Y-120096893D01*
X130793421Y-120091942D01*
X130811910Y-120104676D01*
X130851420Y-120139882D01*
X130907522Y-120193062D01*
X130975787Y-120259718D01*
X131051786Y-120335354D01*
X131131092Y-120415472D01*
X131209275Y-120495574D01*
X131281907Y-120571164D01*
X131344559Y-120637745D01*
X131392803Y-120690818D01*
X131422210Y-120725887D01*
X131429241Y-120737623D01*
X131419123Y-120759260D01*
X131390759Y-120806662D01*
X131347129Y-120875193D01*
X131291218Y-120960215D01*
X131226006Y-121057093D01*
X131188219Y-121112350D01*
X131119343Y-121213248D01*
X131058140Y-121304299D01*
X131007578Y-121380970D01*
X130970628Y-121438728D01*
X130950258Y-121473043D01*
X130947197Y-121480254D01*
X130954136Y-121500748D01*
X130973051Y-121548513D01*
X131001087Y-121616832D01*
X131035391Y-121698989D01*
X131073109Y-121788270D01*
X131111387Y-121877958D01*
X131147370Y-121961338D01*
X131178206Y-122031694D01*
X131201039Y-122082310D01*
X131213017Y-122106471D01*
X131213724Y-122107422D01*
X131232531Y-122112036D01*
X131282618Y-122122328D01*
X131358793Y-122137287D01*
X131455865Y-122155901D01*
X131568643Y-122177159D01*
X131634442Y-122189418D01*
X131754950Y-122212362D01*
X131863797Y-122234195D01*
X131955476Y-122253722D01*
X132024481Y-122269748D01*
X132065304Y-122281079D01*
X132073511Y-122284674D01*
X132081548Y-122309006D01*
X132088033Y-122363959D01*
X132092970Y-122443108D01*
X132096364Y-122540026D01*
X132098218Y-122648287D01*
X132098538Y-122761465D01*
X132097327Y-122873135D01*
X132094590Y-122976868D01*
X132090331Y-123066241D01*
X132084555Y-123134826D01*
X132077267Y-123176197D01*
X132072895Y-123184810D01*
X132046764Y-123195133D01*
X131991393Y-123209892D01*
X131914107Y-123227352D01*
X131822230Y-123245780D01*
X131790158Y-123251741D01*
X131635524Y-123280066D01*
X131513375Y-123302876D01*
X131419673Y-123321080D01*
X131350384Y-123335583D01*
X131301471Y-123347292D01*
X131268897Y-123357115D01*
X131248628Y-123365956D01*
X131236626Y-123374724D01*
X131234947Y-123376457D01*
X131218184Y-123404371D01*
X131192614Y-123458695D01*
X131160788Y-123532777D01*
X131125260Y-123619965D01*
X131088583Y-123713608D01*
X131053311Y-123807052D01*
X131021996Y-123893647D01*
X130997193Y-123966740D01*
X130981454Y-124019678D01*
X130977332Y-124045811D01*
X130977676Y-124046726D01*
X130991641Y-124068086D01*
X131023322Y-124115084D01*
X131069391Y-124182827D01*
X131126518Y-124266423D01*
X131191373Y-124360982D01*
X131209843Y-124387854D01*
X131275699Y-124485275D01*
X131333650Y-124574163D01*
X131380538Y-124649412D01*
X131413207Y-124705920D01*
X131428500Y-124738581D01*
X131429241Y-124742593D01*
X131416392Y-124763684D01*
X131380888Y-124805464D01*
X131327293Y-124863445D01*
X131260171Y-124933135D01*
X131184087Y-125010045D01*
X131103604Y-125089683D01*
X131023287Y-125167561D01*
X130947699Y-125239186D01*
X130881405Y-125300070D01*
X130828969Y-125345721D01*
X130794955Y-125371650D01*
X130785545Y-125375883D01*
X130763643Y-125365912D01*
X130718800Y-125339020D01*
X130658321Y-125299736D01*
X130611789Y-125268117D01*
X130527475Y-125210098D01*
X130427626Y-125141784D01*
X130327473Y-125073579D01*
X130273627Y-125037075D01*
X130091371Y-124913800D01*
X129938381Y-124996520D01*
X129868682Y-125032759D01*
X129809414Y-125060926D01*
X129769311Y-125076991D01*
X129759103Y-125079226D01*
X129746829Y-125062722D01*
X129722613Y-125016082D01*
X129688263Y-124943609D01*
X129645588Y-124849606D01*
X129596394Y-124738374D01*
X129542490Y-124614215D01*
X129485684Y-124481432D01*
X129427782Y-124344327D01*
X129370593Y-124207202D01*
X129315924Y-124074358D01*
X129265584Y-123950098D01*
X129221380Y-123838725D01*
X129185119Y-123744539D01*
X129158609Y-123671844D01*
X129143658Y-123624941D01*
X129141254Y-123608833D01*
X129160311Y-123588286D01*
X129202036Y-123554933D01*
X129257706Y-123515702D01*
X129262378Y-123512599D01*
X129406264Y-123397423D01*
X129522283Y-123263053D01*
X129609430Y-123113784D01*
X129666699Y-122953913D01*
X129693086Y-122787737D01*
X129687585Y-122619552D01*
X129649190Y-122453655D01*
X129576895Y-122294342D01*
X129555626Y-122259487D01*
X129444996Y-122118737D01*
X129314302Y-122005714D01*
X129168064Y-121921003D01*
X129010808Y-121865194D01*
X128847057Y-121838874D01*
X128681333Y-121842630D01*
X128518162Y-121877050D01*
X128362065Y-121942723D01*
X128217567Y-122040235D01*
X128172869Y-122079813D01*
X128059112Y-122203703D01*
X127976218Y-122334124D01*
X127919356Y-122480315D01*
X127887687Y-122625088D01*
X127879869Y-122787860D01*
X127905938Y-122951440D01*
X127963245Y-123110298D01*
X128049144Y-123258906D01*
X128160986Y-123391735D01*
X128296123Y-123503256D01*
X128313883Y-123515011D01*
X128370150Y-123553508D01*
X128412923Y-123586863D01*
X128433372Y-123608160D01*
X128433669Y-123608833D01*
X128429279Y-123631871D01*
X128411876Y-123684157D01*
X128383268Y-123761390D01*
X128345265Y-123859268D01*
X128299674Y-123973491D01*
X128248303Y-124099758D01*
X128192962Y-124233767D01*
X128135458Y-124371218D01*
X128077601Y-124507808D01*
X128021198Y-124639237D01*
X127968058Y-124761205D01*
X127919990Y-124869409D01*
X127878801Y-124959549D01*
X127846301Y-125027323D01*
X127824297Y-125068430D01*
X127815436Y-125079226D01*
X127788360Y-125070819D01*
X127737697Y-125048272D01*
X127672183Y-125015613D01*
X127636159Y-124996520D01*
X127483168Y-124913800D01*
X127300912Y-125037075D01*
X127207875Y-125100228D01*
X127106015Y-125169727D01*
X127010562Y-125235165D01*
X126962750Y-125268117D01*
X126895505Y-125313273D01*
X126838564Y-125349057D01*
X126799354Y-125370938D01*
X126786619Y-125375563D01*
X126768083Y-125363085D01*
X126727059Y-125328252D01*
X126667525Y-125274678D01*
X126593458Y-125205983D01*
X126508835Y-125125781D01*
X126455315Y-125074286D01*
X126361681Y-124982286D01*
X126280759Y-124899999D01*
X126215823Y-124830945D01*
X126170142Y-124778644D01*
X126146989Y-124746616D01*
X126144768Y-124740116D01*
X126155076Y-124715394D01*
X126183561Y-124665405D01*
X126227063Y-124595212D01*
X126282423Y-124509875D01*
X126346480Y-124414456D01*
X126364697Y-124387854D01*
X126431073Y-124291167D01*
X126490622Y-124204117D01*
X126540016Y-124131595D01*
X126575925Y-124078493D01*
X126595019Y-124049703D01*
X126596864Y-124046726D01*
X126594105Y-124023782D01*
X126579462Y-123973336D01*
X126555487Y-123902041D01*
X126524734Y-123816547D01*
X126489756Y-123723507D01*
X126453107Y-123629574D01*
X126417339Y-123541399D01*
X126385006Y-123465634D01*
X126358662Y-123408931D01*
X126340858Y-123377943D01*
X126339593Y-123376457D01*
X126328706Y-123367601D01*
X126310318Y-123358843D01*
X126280394Y-123349277D01*
X126234897Y-123337996D01*
X126169791Y-123324093D01*
X126081039Y-123306663D01*
X125964607Y-123284798D01*
X125816458Y-123257591D01*
X125784382Y-123251741D01*
X125689314Y-123233374D01*
X125606435Y-123215405D01*
X125543070Y-123199569D01*
X125506542Y-123187600D01*
X125501644Y-123184810D01*
X125493573Y-123160072D01*
X125487013Y-123104790D01*
X125481967Y-123025389D01*
X125478441Y-122928296D01*
X125476439Y-122819938D01*
X125475964Y-122706740D01*
X125477023Y-122595128D01*
X125479618Y-122491529D01*
X125483754Y-122402368D01*
X125489437Y-122334072D01*
X125496669Y-122293066D01*
X125501029Y-122284674D01*
X125525302Y-122276208D01*
X125580574Y-122262435D01*
X125661338Y-122244550D01*
X125762088Y-122223748D01*
X125877317Y-122201223D01*
X125940098Y-122189418D01*
X126059213Y-122167151D01*
X126165435Y-122146979D01*
X126253573Y-122129915D01*
X126318434Y-122116969D01*
X126354826Y-122109155D01*
X126360816Y-122107422D01*
X126370939Y-122087890D01*
X126392338Y-122040843D01*
X126422161Y-121973003D01*
X126457555Y-121891091D01*
X126495668Y-121801828D01*
X126533647Y-121711935D01*
X126568640Y-121628135D01*
X126597794Y-121557147D01*
X126618257Y-121505694D01*
X126627177Y-121480497D01*
X126627343Y-121479396D01*
X126617231Y-121459519D01*
X126588883Y-121413777D01*
X126545277Y-121346717D01*
X126489394Y-121262884D01*
X126424213Y-121166826D01*
X126386321Y-121111650D01*
X126317275Y-121010481D01*
X126255950Y-120918630D01*
X126205337Y-120840744D01*
X126168429Y-120781469D01*
X126148218Y-120745451D01*
X126145299Y-120737377D01*
X126157847Y-120718584D01*
X126192537Y-120678457D01*
X126244937Y-120621493D01*
X126310616Y-120552185D01*
X126385144Y-120475031D01*
X126464087Y-120394525D01*
X126543017Y-120315163D01*
X126617500Y-120241440D01*
X126683106Y-120177852D01*
X126735404Y-120128894D01*
X126769961Y-120099061D01*
X126781522Y-120091942D01*
X126800346Y-120101953D01*
X126845369Y-120130078D01*
X126912213Y-120173454D01*
X126996501Y-120229218D01*
X127093856Y-120294506D01*
X127167293Y-120344246D01*
X127538333Y-120596551D01*
X128156905Y-120341555D01*
X128240725Y-119896931D01*
X128324546Y-119452307D01*
X129249994Y-119452307D01*
X129333814Y-119896931D01*
G37*
D14*
X129333814Y-119896931D02*
X129417635Y-120341555D01*
X129726920Y-120469053D01*
X130036206Y-120596551D01*
X130407246Y-120344246D01*
X130511157Y-120273996D01*
X130605087Y-120211272D01*
X130684652Y-120158938D01*
X130745470Y-120119857D01*
X130783157Y-120096893D01*
X130793421Y-120091942D01*
X130811910Y-120104676D01*
X130851420Y-120139882D01*
X130907522Y-120193062D01*
X130975787Y-120259718D01*
X131051786Y-120335354D01*
X131131092Y-120415472D01*
X131209275Y-120495574D01*
X131281907Y-120571164D01*
X131344559Y-120637745D01*
X131392803Y-120690818D01*
X131422210Y-120725887D01*
X131429241Y-120737623D01*
X131419123Y-120759260D01*
X131390759Y-120806662D01*
X131347129Y-120875193D01*
X131291218Y-120960215D01*
X131226006Y-121057093D01*
X131188219Y-121112350D01*
X131119343Y-121213248D01*
X131058140Y-121304299D01*
X131007578Y-121380970D01*
X130970628Y-121438728D01*
X130950258Y-121473043D01*
X130947197Y-121480254D01*
X130954136Y-121500748D01*
X130973051Y-121548513D01*
X131001087Y-121616832D01*
X131035391Y-121698989D01*
X131073109Y-121788270D01*
X131111387Y-121877958D01*
X131147370Y-121961338D01*
X131178206Y-122031694D01*
X131201039Y-122082310D01*
X131213017Y-122106471D01*
X131213724Y-122107422D01*
X131232531Y-122112036D01*
X131282618Y-122122328D01*
X131358793Y-122137287D01*
X131455865Y-122155901D01*
X131568643Y-122177159D01*
X131634442Y-122189418D01*
X131754950Y-122212362D01*
X131863797Y-122234195D01*
X131955476Y-122253722D01*
X132024481Y-122269748D01*
X132065304Y-122281079D01*
X132073511Y-122284674D01*
X132081548Y-122309006D01*
X132088033Y-122363959D01*
X132092970Y-122443108D01*
X132096364Y-122540026D01*
X132098218Y-122648287D01*
X132098538Y-122761465D01*
X132097327Y-122873135D01*
X132094590Y-122976868D01*
X132090331Y-123066241D01*
X132084555Y-123134826D01*
X132077267Y-123176197D01*
X132072895Y-123184810D01*
X132046764Y-123195133D01*
X131991393Y-123209892D01*
X131914107Y-123227352D01*
X131822230Y-123245780D01*
X131790158Y-123251741D01*
X131635524Y-123280066D01*
X131513375Y-123302876D01*
X131419673Y-123321080D01*
X131350384Y-123335583D01*
X131301471Y-123347292D01*
X131268897Y-123357115D01*
X131248628Y-123365956D01*
X131236626Y-123374724D01*
X131234947Y-123376457D01*
X131218184Y-123404371D01*
X131192614Y-123458695D01*
X131160788Y-123532777D01*
X131125260Y-123619965D01*
X131088583Y-123713608D01*
X131053311Y-123807052D01*
X131021996Y-123893647D01*
X130997193Y-123966740D01*
X130981454Y-124019678D01*
X130977332Y-124045811D01*
X130977676Y-124046726D01*
X130991641Y-124068086D01*
X131023322Y-124115084D01*
X131069391Y-124182827D01*
X131126518Y-124266423D01*
X131191373Y-124360982D01*
X131209843Y-124387854D01*
X131275699Y-124485275D01*
X131333650Y-124574163D01*
X131380538Y-124649412D01*
X131413207Y-124705920D01*
X131428500Y-124738581D01*
X131429241Y-124742593D01*
X131416392Y-124763684D01*
X131380888Y-124805464D01*
X131327293Y-124863445D01*
X131260171Y-124933135D01*
X131184087Y-125010045D01*
X131103604Y-125089683D01*
X131023287Y-125167561D01*
X130947699Y-125239186D01*
X130881405Y-125300070D01*
X130828969Y-125345721D01*
X130794955Y-125371650D01*
X130785545Y-125375883D01*
X130763643Y-125365912D01*
X130718800Y-125339020D01*
X130658321Y-125299736D01*
X130611789Y-125268117D01*
X130527475Y-125210098D01*
X130427626Y-125141784D01*
X130327473Y-125073579D01*
X130273627Y-125037075D01*
X130091371Y-124913800D01*
X129938381Y-124996520D01*
X129868682Y-125032759D01*
X129809414Y-125060926D01*
X129769311Y-125076991D01*
X129759103Y-125079226D01*
X129746829Y-125062722D01*
X129722613Y-125016082D01*
X129688263Y-124943609D01*
X129645588Y-124849606D01*
X129596394Y-124738374D01*
X129542490Y-124614215D01*
X129485684Y-124481432D01*
X129427782Y-124344327D01*
X129370593Y-124207202D01*
X129315924Y-124074358D01*
X129265584Y-123950098D01*
X129221380Y-123838725D01*
X129185119Y-123744539D01*
X129158609Y-123671844D01*
X129143658Y-123624941D01*
X129141254Y-123608833D01*
X129160311Y-123588286D01*
X129202036Y-123554933D01*
X129257706Y-123515702D01*
X129262378Y-123512599D01*
X129406264Y-123397423D01*
X129522283Y-123263053D01*
X129609430Y-123113784D01*
X129666699Y-122953913D01*
X129693086Y-122787737D01*
X129687585Y-122619552D01*
X129649190Y-122453655D01*
X129576895Y-122294342D01*
X129555626Y-122259487D01*
X129444996Y-122118737D01*
X129314302Y-122005714D01*
X129168064Y-121921003D01*
X129010808Y-121865194D01*
X128847057Y-121838874D01*
X128681333Y-121842630D01*
X128518162Y-121877050D01*
X128362065Y-121942723D01*
X128217567Y-122040235D01*
X128172869Y-122079813D01*
X128059112Y-122203703D01*
X127976218Y-122334124D01*
X127919356Y-122480315D01*
X127887687Y-122625088D01*
X127879869Y-122787860D01*
X127905938Y-122951440D01*
X127963245Y-123110298D01*
X128049144Y-123258906D01*
X128160986Y-123391735D01*
X128296123Y-123503256D01*
X128313883Y-123515011D01*
X128370150Y-123553508D01*
X128412923Y-123586863D01*
X128433372Y-123608160D01*
X128433669Y-123608833D01*
X128429279Y-123631871D01*
X128411876Y-123684157D01*
X128383268Y-123761390D01*
X128345265Y-123859268D01*
X128299674Y-123973491D01*
X128248303Y-124099758D01*
X128192962Y-124233767D01*
X128135458Y-124371218D01*
X128077601Y-124507808D01*
X128021198Y-124639237D01*
X127968058Y-124761205D01*
X127919990Y-124869409D01*
X127878801Y-124959549D01*
X127846301Y-125027323D01*
X127824297Y-125068430D01*
X127815436Y-125079226D01*
X127788360Y-125070819D01*
X127737697Y-125048272D01*
X127672183Y-125015613D01*
X127636159Y-124996520D01*
X127483168Y-124913800D01*
X127300912Y-125037075D01*
X127207875Y-125100228D01*
X127106015Y-125169727D01*
X127010562Y-125235165D01*
X126962750Y-125268117D01*
X126895505Y-125313273D01*
X126838564Y-125349057D01*
X126799354Y-125370938D01*
X126786619Y-125375563D01*
X126768083Y-125363085D01*
X126727059Y-125328252D01*
X126667525Y-125274678D01*
X126593458Y-125205983D01*
X126508835Y-125125781D01*
X126455315Y-125074286D01*
X126361681Y-124982286D01*
X126280759Y-124899999D01*
X126215823Y-124830945D01*
X126170142Y-124778644D01*
X126146989Y-124746616D01*
X126144768Y-124740116D01*
X126155076Y-124715394D01*
X126183561Y-124665405D01*
X126227063Y-124595212D01*
X126282423Y-124509875D01*
X126346480Y-124414456D01*
X126364697Y-124387854D01*
X126431073Y-124291167D01*
X126490622Y-124204117D01*
X126540016Y-124131595D01*
X126575925Y-124078493D01*
X126595019Y-124049703D01*
X126596864Y-124046726D01*
X126594105Y-124023782D01*
X126579462Y-123973336D01*
X126555487Y-123902041D01*
X126524734Y-123816547D01*
X126489756Y-123723507D01*
X126453107Y-123629574D01*
X126417339Y-123541399D01*
X126385006Y-123465634D01*
X126358662Y-123408931D01*
X126340858Y-123377943D01*
X126339593Y-123376457D01*
X126328706Y-123367601D01*
X126310318Y-123358843D01*
X126280394Y-123349277D01*
X126234897Y-123337996D01*
X126169791Y-123324093D01*
X126081039Y-123306663D01*
X125964607Y-123284798D01*
X125816458Y-123257591D01*
X125784382Y-123251741D01*
X125689314Y-123233374D01*
X125606435Y-123215405D01*
X125543070Y-123199569D01*
X125506542Y-123187600D01*
X125501644Y-123184810D01*
X125493573Y-123160072D01*
X125487013Y-123104790D01*
X125481967Y-123025389D01*
X125478441Y-122928296D01*
X125476439Y-122819938D01*
X125475964Y-122706740D01*
X125477023Y-122595128D01*
X125479618Y-122491529D01*
X125483754Y-122402368D01*
X125489437Y-122334072D01*
X125496669Y-122293066D01*
X125501029Y-122284674D01*
X125525302Y-122276208D01*
X125580574Y-122262435D01*
X125661338Y-122244550D01*
X125762088Y-122223748D01*
X125877317Y-122201223D01*
X125940098Y-122189418D01*
X126059213Y-122167151D01*
X126165435Y-122146979D01*
X126253573Y-122129915D01*
X126318434Y-122116969D01*
X126354826Y-122109155D01*
X126360816Y-122107422D01*
X126370939Y-122087890D01*
X126392338Y-122040843D01*
X126422161Y-121973003D01*
X126457555Y-121891091D01*
X126495668Y-121801828D01*
X126533647Y-121711935D01*
X126568640Y-121628135D01*
X126597794Y-121557147D01*
X126618257Y-121505694D01*
X126627177Y-121480497D01*
X126627343Y-121479396D01*
X126617231Y-121459519D01*
X126588883Y-121413777D01*
X126545277Y-121346717D01*
X126489394Y-121262884D01*
X126424213Y-121166826D01*
X126386321Y-121111650D01*
X126317275Y-121010481D01*
X126255950Y-120918630D01*
X126205337Y-120840744D01*
X126168429Y-120781469D01*
X126148218Y-120745451D01*
X126145299Y-120737377D01*
X126157847Y-120718584D01*
X126192537Y-120678457D01*
X126244937Y-120621493D01*
X126310616Y-120552185D01*
X126385144Y-120475031D01*
X126464087Y-120394525D01*
X126543017Y-120315163D01*
X126617500Y-120241440D01*
X126683106Y-120177852D01*
X126735404Y-120128894D01*
X126769961Y-120099061D01*
X126781522Y-120091942D01*
X126800346Y-120101953D01*
X126845369Y-120130078D01*
X126912213Y-120173454D01*
X126996501Y-120229218D01*
X127093856Y-120294506D01*
X127167293Y-120344246D01*
X127538333Y-120596551D01*
X128156905Y-120341555D01*
X128240725Y-119896931D01*
X128324546Y-119452307D01*
X129249994Y-119452307D01*
X129333814Y-119896931D01*
D11*
%TO.C,C2*%
X155753252Y-125612000D02*
X155230748Y-125612000D01*
X155753252Y-124142000D02*
X155230748Y-124142000D01*
D10*
%TO.C,U1*%
X147292000Y-118117000D02*
X153952000Y-118117000D01*
X147292000Y-121057000D02*
X147292000Y-118117000D01*
X153952000Y-121057000D02*
X147292000Y-121057000D01*
X153952000Y-118117000D02*
X153952000Y-121057000D01*
D11*
%TO.C,J2*%
X157480000Y-43434000D02*
X157480000Y-40834000D01*
X160080000Y-40834000D02*
X160080000Y-122234000D01*
X154880000Y-43434000D02*
X154880000Y-122234000D01*
X154880000Y-122234000D02*
X160080000Y-122234000D01*
X154880000Y-42164000D02*
X154880000Y-40834000D01*
X154880000Y-43434000D02*
X157480000Y-43434000D01*
X154880000Y-40834000D02*
X156210000Y-40834000D01*
X157480000Y-40834000D02*
X160080000Y-40834000D01*
%TO.C,C7*%
X117564780Y-40184800D02*
X117283620Y-40184800D01*
X117564780Y-39164800D02*
X117283620Y-39164800D01*
%TO.C,C5*%
X109303400Y-113195148D02*
X109303400Y-113717652D01*
X107833400Y-113195148D02*
X107833400Y-113717652D01*
%TO.C,J4-GND1*%
X126450400Y-41960800D02*
X126450400Y-42020800D01*
X123790400Y-40690800D02*
X123790400Y-39360800D01*
X123790400Y-42020800D02*
X126450400Y-42020800D01*
X123790400Y-41960800D02*
X123790400Y-42020800D01*
X123790400Y-41960800D02*
X126450400Y-41960800D01*
X123790400Y-39360800D02*
X125120400Y-39360800D01*
D12*
%TO.C,J3*%
X103449000Y-127510000D02*
X103449000Y-126030000D01*
X112389000Y-127510000D02*
X112389000Y-126030000D01*
X103449000Y-123790000D02*
X103449000Y-121930000D01*
X112389000Y-123790000D02*
X112389000Y-121930000D01*
X112389000Y-127510000D02*
X103449000Y-127510000D01*
D11*
%TO.C,R1*%
X102316258Y-118087500D02*
X101841742Y-118087500D01*
X102316258Y-119132500D02*
X101841742Y-119132500D01*
%TO.C,FB1*%
X102863758Y-117424000D02*
X104534242Y-117424000D01*
X102863758Y-115604000D02*
X104534242Y-115604000D01*
D10*
%TO.C,F1*%
X110969000Y-117464000D02*
X109779000Y-117464000D01*
X106729000Y-117464000D02*
X107919000Y-117464000D01*
X109779000Y-115284000D02*
X110969000Y-115284000D01*
X107919000Y-115284000D02*
X106729000Y-115284000D01*
X106579000Y-115434000D02*
X106579000Y-117314000D01*
X111119000Y-115434000D02*
X111119000Y-117314000D01*
D15*
X108849000Y-115534000D02*
G75*
G03*
X108850269Y-116376199I730000J-420000D01*
G01*
X108849000Y-117214000D02*
G75*
G03*
X108847731Y-116371801I-729999J420001D01*
G01*
%TD*%
M02*
