%TF.GenerationSoftware,KiCad,Pcbnew,6.0.4-6f826c9f35~116~ubuntu20.04.1*%
%TF.CreationDate,2022-04-07T06:29:18+07:00*%
%TF.ProjectId,Colorlight2QMTech,436f6c6f-726c-4696-9768-7432514d5465,rev?*%
%TF.SameCoordinates,Original*%
%TF.FileFunction,Legend,Top*%
%TF.FilePolarity,Positive*%
%FSLAX46Y46*%
G04 Gerber Fmt 4.6, Leading zero omitted, Abs format (unit mm)*
G04 Created by KiCad (PCBNEW 6.0.4-6f826c9f35~116~ubuntu20.04.1) date 2022-04-07 06:29:18*
%MOMM*%
%LPD*%
G01*
G04 APERTURE LIST*
%ADD10C,0.150000*%
%ADD11C,0.120000*%
%ADD12C,0.250000*%
%ADD13C,0.010000*%
%ADD14C,0.080000*%
G04 APERTURE END LIST*
D10*
X135033238Y-122075380D02*
X135033238Y-121075380D01*
X135033238Y-121551571D02*
X135604666Y-121551571D01*
X135604666Y-122075380D02*
X135604666Y-121075380D01*
X136509428Y-122075380D02*
X136509428Y-121551571D01*
X136461809Y-121456333D01*
X136366571Y-121408714D01*
X136176095Y-121408714D01*
X136080857Y-121456333D01*
X136509428Y-122027761D02*
X136414190Y-122075380D01*
X136176095Y-122075380D01*
X136080857Y-122027761D01*
X136033238Y-121932523D01*
X136033238Y-121837285D01*
X136080857Y-121742047D01*
X136176095Y-121694428D01*
X136414190Y-121694428D01*
X136509428Y-121646809D01*
X136985619Y-121408714D02*
X136985619Y-122075380D01*
X136985619Y-121503952D02*
X137033238Y-121456333D01*
X137128476Y-121408714D01*
X137271333Y-121408714D01*
X137366571Y-121456333D01*
X137414190Y-121551571D01*
X137414190Y-122075380D01*
X137842761Y-122027761D02*
X137938000Y-122075380D01*
X138128476Y-122075380D01*
X138223714Y-122027761D01*
X138271333Y-121932523D01*
X138271333Y-121884904D01*
X138223714Y-121789666D01*
X138128476Y-121742047D01*
X137985619Y-121742047D01*
X137890380Y-121694428D01*
X137842761Y-121599190D01*
X137842761Y-121551571D01*
X137890380Y-121456333D01*
X137985619Y-121408714D01*
X138128476Y-121408714D01*
X138223714Y-121456333D01*
X139795142Y-121551571D02*
X139938000Y-121599190D01*
X139985619Y-121646809D01*
X140033238Y-121742047D01*
X140033238Y-121884904D01*
X139985619Y-121980142D01*
X139938000Y-122027761D01*
X139842761Y-122075380D01*
X139461809Y-122075380D01*
X139461809Y-121075380D01*
X139795142Y-121075380D01*
X139890380Y-121123000D01*
X139938000Y-121170619D01*
X139985619Y-121265857D01*
X139985619Y-121361095D01*
X139938000Y-121456333D01*
X139890380Y-121503952D01*
X139795142Y-121551571D01*
X139461809Y-121551571D01*
X140890380Y-122075380D02*
X140890380Y-121551571D01*
X140842761Y-121456333D01*
X140747523Y-121408714D01*
X140557047Y-121408714D01*
X140461809Y-121456333D01*
X140890380Y-122027761D02*
X140795142Y-122075380D01*
X140557047Y-122075380D01*
X140461809Y-122027761D01*
X140414190Y-121932523D01*
X140414190Y-121837285D01*
X140461809Y-121742047D01*
X140557047Y-121694428D01*
X140795142Y-121694428D01*
X140890380Y-121646809D01*
X141366571Y-122075380D02*
X141366571Y-121408714D01*
X141366571Y-121075380D02*
X141318952Y-121123000D01*
X141366571Y-121170619D01*
X141414190Y-121123000D01*
X141366571Y-121075380D01*
X141366571Y-121170619D01*
X142223714Y-122027761D02*
X142128476Y-122075380D01*
X141938000Y-122075380D01*
X141842761Y-122027761D01*
X141795142Y-121932523D01*
X141795142Y-121551571D01*
X141842761Y-121456333D01*
X141938000Y-121408714D01*
X142128476Y-121408714D01*
X142223714Y-121456333D01*
X142271333Y-121551571D01*
X142271333Y-121646809D01*
X141795142Y-121742047D01*
X142699904Y-122075380D02*
X142699904Y-121408714D01*
X142699904Y-121599190D02*
X142747523Y-121503952D01*
X142795142Y-121456333D01*
X142890380Y-121408714D01*
X142985619Y-121408714D01*
X134080857Y-122780619D02*
X134128476Y-122733000D01*
X134223714Y-122685380D01*
X134461809Y-122685380D01*
X134557047Y-122733000D01*
X134604666Y-122780619D01*
X134652285Y-122875857D01*
X134652285Y-122971095D01*
X134604666Y-123113952D01*
X134033238Y-123685380D01*
X134652285Y-123685380D01*
X135271333Y-122685380D02*
X135366571Y-122685380D01*
X135461809Y-122733000D01*
X135509428Y-122780619D01*
X135557047Y-122875857D01*
X135604666Y-123066333D01*
X135604666Y-123304428D01*
X135557047Y-123494904D01*
X135509428Y-123590142D01*
X135461809Y-123637761D01*
X135366571Y-123685380D01*
X135271333Y-123685380D01*
X135176095Y-123637761D01*
X135128476Y-123590142D01*
X135080857Y-123494904D01*
X135033238Y-123304428D01*
X135033238Y-123066333D01*
X135080857Y-122875857D01*
X135128476Y-122780619D01*
X135176095Y-122733000D01*
X135271333Y-122685380D01*
X135985619Y-122780619D02*
X136033238Y-122733000D01*
X136128476Y-122685380D01*
X136366571Y-122685380D01*
X136461809Y-122733000D01*
X136509428Y-122780619D01*
X136557047Y-122875857D01*
X136557047Y-122971095D01*
X136509428Y-123113952D01*
X135938000Y-123685380D01*
X136557047Y-123685380D01*
X136938000Y-122780619D02*
X136985619Y-122733000D01*
X137080857Y-122685380D01*
X137318952Y-122685380D01*
X137414190Y-122733000D01*
X137461809Y-122780619D01*
X137509428Y-122875857D01*
X137509428Y-122971095D01*
X137461809Y-123113952D01*
X136890380Y-123685380D01*
X137509428Y-123685380D01*
X137938000Y-123304428D02*
X138699904Y-123304428D01*
X139366571Y-122685380D02*
X139461809Y-122685380D01*
X139557047Y-122733000D01*
X139604666Y-122780619D01*
X139652285Y-122875857D01*
X139699904Y-123066333D01*
X139699904Y-123304428D01*
X139652285Y-123494904D01*
X139604666Y-123590142D01*
X139557047Y-123637761D01*
X139461809Y-123685380D01*
X139366571Y-123685380D01*
X139271333Y-123637761D01*
X139223714Y-123590142D01*
X139176095Y-123494904D01*
X139128476Y-123304428D01*
X139128476Y-123066333D01*
X139176095Y-122875857D01*
X139223714Y-122780619D01*
X139271333Y-122733000D01*
X139366571Y-122685380D01*
X140557047Y-123018714D02*
X140557047Y-123685380D01*
X140318952Y-122637761D02*
X140080857Y-123352047D01*
X140699904Y-123352047D01*
X141080857Y-123304428D02*
X141842761Y-123304428D01*
X142509428Y-122685380D02*
X142604666Y-122685380D01*
X142699904Y-122733000D01*
X142747523Y-122780619D01*
X142795142Y-122875857D01*
X142842761Y-123066333D01*
X142842761Y-123304428D01*
X142795142Y-123494904D01*
X142747523Y-123590142D01*
X142699904Y-123637761D01*
X142604666Y-123685380D01*
X142509428Y-123685380D01*
X142414190Y-123637761D01*
X142366571Y-123590142D01*
X142318952Y-123494904D01*
X142271333Y-123304428D01*
X142271333Y-123066333D01*
X142318952Y-122875857D01*
X142366571Y-122780619D01*
X142414190Y-122733000D01*
X142509428Y-122685380D01*
X143699904Y-122685380D02*
X143509428Y-122685380D01*
X143414190Y-122733000D01*
X143366571Y-122780619D01*
X143271333Y-122923476D01*
X143223714Y-123113952D01*
X143223714Y-123494904D01*
X143271333Y-123590142D01*
X143318952Y-123637761D01*
X143414190Y-123685380D01*
X143604666Y-123685380D01*
X143699904Y-123637761D01*
X143747523Y-123590142D01*
X143795142Y-123494904D01*
X143795142Y-123256809D01*
X143747523Y-123161571D01*
X143699904Y-123113952D01*
X143604666Y-123066333D01*
X143414190Y-123066333D01*
X143318952Y-123113952D01*
X143271333Y-123161571D01*
X143223714Y-123256809D01*
X117284857Y-121175142D02*
X117237238Y-121222761D01*
X117094380Y-121270380D01*
X116999142Y-121270380D01*
X116856285Y-121222761D01*
X116761047Y-121127523D01*
X116713428Y-121032285D01*
X116665809Y-120841809D01*
X116665809Y-120698952D01*
X116713428Y-120508476D01*
X116761047Y-120413238D01*
X116856285Y-120318000D01*
X116999142Y-120270380D01*
X117094380Y-120270380D01*
X117237238Y-120318000D01*
X117284857Y-120365619D01*
X117856285Y-121270380D02*
X117761047Y-121222761D01*
X117713428Y-121175142D01*
X117665809Y-121079904D01*
X117665809Y-120794190D01*
X117713428Y-120698952D01*
X117761047Y-120651333D01*
X117856285Y-120603714D01*
X117999142Y-120603714D01*
X118094380Y-120651333D01*
X118142000Y-120698952D01*
X118189619Y-120794190D01*
X118189619Y-121079904D01*
X118142000Y-121175142D01*
X118094380Y-121222761D01*
X117999142Y-121270380D01*
X117856285Y-121270380D01*
X118761047Y-121270380D02*
X118665809Y-121222761D01*
X118618190Y-121127523D01*
X118618190Y-120270380D01*
X119284857Y-121270380D02*
X119189619Y-121222761D01*
X119142000Y-121175142D01*
X119094380Y-121079904D01*
X119094380Y-120794190D01*
X119142000Y-120698952D01*
X119189619Y-120651333D01*
X119284857Y-120603714D01*
X119427714Y-120603714D01*
X119522952Y-120651333D01*
X119570571Y-120698952D01*
X119618190Y-120794190D01*
X119618190Y-121079904D01*
X119570571Y-121175142D01*
X119522952Y-121222761D01*
X119427714Y-121270380D01*
X119284857Y-121270380D01*
X120046761Y-121270380D02*
X120046761Y-120603714D01*
X120046761Y-120794190D02*
X120094380Y-120698952D01*
X120142000Y-120651333D01*
X120237238Y-120603714D01*
X120332476Y-120603714D01*
X120808666Y-121270380D02*
X120713428Y-121222761D01*
X120665809Y-121127523D01*
X120665809Y-120270380D01*
X121189619Y-121270380D02*
X121189619Y-120603714D01*
X121189619Y-120270380D02*
X121142000Y-120318000D01*
X121189619Y-120365619D01*
X121237238Y-120318000D01*
X121189619Y-120270380D01*
X121189619Y-120365619D01*
X122094380Y-120603714D02*
X122094380Y-121413238D01*
X122046761Y-121508476D01*
X121999142Y-121556095D01*
X121903904Y-121603714D01*
X121761047Y-121603714D01*
X121665809Y-121556095D01*
X122094380Y-121222761D02*
X121999142Y-121270380D01*
X121808666Y-121270380D01*
X121713428Y-121222761D01*
X121665809Y-121175142D01*
X121618190Y-121079904D01*
X121618190Y-120794190D01*
X121665809Y-120698952D01*
X121713428Y-120651333D01*
X121808666Y-120603714D01*
X121999142Y-120603714D01*
X122094380Y-120651333D01*
X122570571Y-121270380D02*
X122570571Y-120270380D01*
X122999142Y-121270380D02*
X122999142Y-120746571D01*
X122951523Y-120651333D01*
X122856285Y-120603714D01*
X122713428Y-120603714D01*
X122618190Y-120651333D01*
X122570571Y-120698952D01*
X123332476Y-120603714D02*
X123713428Y-120603714D01*
X123475333Y-120270380D02*
X123475333Y-121127523D01*
X123522952Y-121222761D01*
X123618190Y-121270380D01*
X123713428Y-121270380D01*
X119880095Y-122880380D02*
X120403904Y-122213714D01*
X119880095Y-122213714D02*
X120403904Y-122880380D01*
X118261047Y-124585619D02*
X118165809Y-124538000D01*
X118070571Y-124442761D01*
X117927714Y-124299904D01*
X117832476Y-124252285D01*
X117737238Y-124252285D01*
X117784857Y-124490380D02*
X117689619Y-124442761D01*
X117594380Y-124347523D01*
X117546761Y-124157047D01*
X117546761Y-123823714D01*
X117594380Y-123633238D01*
X117689619Y-123538000D01*
X117784857Y-123490380D01*
X117975333Y-123490380D01*
X118070571Y-123538000D01*
X118165809Y-123633238D01*
X118213428Y-123823714D01*
X118213428Y-124157047D01*
X118165809Y-124347523D01*
X118070571Y-124442761D01*
X117975333Y-124490380D01*
X117784857Y-124490380D01*
X118642000Y-124490380D02*
X118642000Y-123490380D01*
X118975333Y-124204666D01*
X119308666Y-123490380D01*
X119308666Y-124490380D01*
X119642000Y-123490380D02*
X120213428Y-123490380D01*
X119927714Y-124490380D02*
X119927714Y-123490380D01*
X120927714Y-124442761D02*
X120832476Y-124490380D01*
X120642000Y-124490380D01*
X120546761Y-124442761D01*
X120499142Y-124347523D01*
X120499142Y-123966571D01*
X120546761Y-123871333D01*
X120642000Y-123823714D01*
X120832476Y-123823714D01*
X120927714Y-123871333D01*
X120975333Y-123966571D01*
X120975333Y-124061809D01*
X120499142Y-124157047D01*
X121832476Y-124442761D02*
X121737238Y-124490380D01*
X121546761Y-124490380D01*
X121451523Y-124442761D01*
X121403904Y-124395142D01*
X121356285Y-124299904D01*
X121356285Y-124014190D01*
X121403904Y-123918952D01*
X121451523Y-123871333D01*
X121546761Y-123823714D01*
X121737238Y-123823714D01*
X121832476Y-123871333D01*
X122261047Y-124490380D02*
X122261047Y-123490380D01*
X122689619Y-124490380D02*
X122689619Y-123966571D01*
X122642000Y-123871333D01*
X122546761Y-123823714D01*
X122403904Y-123823714D01*
X122308666Y-123871333D01*
X122261047Y-123918952D01*
%TO.C,N2*%
X150797142Y-172172380D02*
X151130476Y-173172380D01*
X151463809Y-172172380D01*
X151749523Y-172267619D02*
X151797142Y-172220000D01*
X151892380Y-172172380D01*
X152130476Y-172172380D01*
X152225714Y-172220000D01*
X152273333Y-172267619D01*
X152320952Y-172362857D01*
X152320952Y-172458095D01*
X152273333Y-172600952D01*
X151701904Y-173172380D01*
X152320952Y-173172380D01*
X152940000Y-172172380D02*
X153035238Y-172172380D01*
X153130476Y-172220000D01*
X153178095Y-172267619D01*
X153225714Y-172362857D01*
X153273333Y-172553333D01*
X153273333Y-172791428D01*
X153225714Y-172981904D01*
X153178095Y-173077142D01*
X153130476Y-173124761D01*
X153035238Y-173172380D01*
X152940000Y-173172380D01*
X152844761Y-173124761D01*
X152797142Y-173077142D01*
X152749523Y-172981904D01*
X152701904Y-172791428D01*
X152701904Y-172553333D01*
X152749523Y-172362857D01*
X152797142Y-172267619D01*
X152844761Y-172220000D01*
X152940000Y-172172380D01*
X154225714Y-173172380D02*
X153654285Y-173172380D01*
X153940000Y-173172380D02*
X153940000Y-172172380D01*
X153844761Y-172315238D01*
X153749523Y-172410476D01*
X153654285Y-172458095D01*
X154559047Y-172172380D02*
X155225714Y-172172380D01*
X154797142Y-173172380D01*
X156130476Y-173172380D02*
X155559047Y-173172380D01*
X155844761Y-173172380D02*
X155844761Y-172172380D01*
X155749523Y-172315238D01*
X155654285Y-172410476D01*
X155559047Y-172458095D01*
X157082857Y-173172380D02*
X156511428Y-173172380D01*
X156797142Y-173172380D02*
X156797142Y-172172380D01*
X156701904Y-172315238D01*
X156606666Y-172410476D01*
X156511428Y-172458095D01*
X157463809Y-172267619D02*
X157511428Y-172220000D01*
X157606666Y-172172380D01*
X157844761Y-172172380D01*
X157940000Y-172220000D01*
X157987619Y-172267619D01*
X158035238Y-172362857D01*
X158035238Y-172458095D01*
X157987619Y-172600952D01*
X157416190Y-173172380D01*
X158035238Y-173172380D01*
X158654285Y-172172380D02*
X158749523Y-172172380D01*
X158844761Y-172220000D01*
X158892380Y-172267619D01*
X158940000Y-172362857D01*
X158987619Y-172553333D01*
X158987619Y-172791428D01*
X158940000Y-172981904D01*
X158892380Y-173077142D01*
X158844761Y-173124761D01*
X158749523Y-173172380D01*
X158654285Y-173172380D01*
X158559047Y-173124761D01*
X158511428Y-173077142D01*
X158463809Y-172981904D01*
X158416190Y-172791428D01*
X158416190Y-172553333D01*
X158463809Y-172362857D01*
X158511428Y-172267619D01*
X158559047Y-172220000D01*
X158654285Y-172172380D01*
%TO.C,J1*%
X100250666Y-41616380D02*
X100250666Y-42330666D01*
X100203047Y-42473523D01*
X100107809Y-42568761D01*
X99964952Y-42616380D01*
X99869714Y-42616380D01*
X101250666Y-42616380D02*
X100679238Y-42616380D01*
X100964952Y-42616380D02*
X100964952Y-41616380D01*
X100869714Y-41759238D01*
X100774476Y-41854476D01*
X100679238Y-41902095D01*
%TO.C,C1*%
X146215333Y-125264142D02*
X146167714Y-125311761D01*
X146024857Y-125359380D01*
X145929619Y-125359380D01*
X145786761Y-125311761D01*
X145691523Y-125216523D01*
X145643904Y-125121285D01*
X145596285Y-124930809D01*
X145596285Y-124787952D01*
X145643904Y-124597476D01*
X145691523Y-124502238D01*
X145786761Y-124407000D01*
X145929619Y-124359380D01*
X146024857Y-124359380D01*
X146167714Y-124407000D01*
X146215333Y-124454619D01*
X147167714Y-125359380D02*
X146596285Y-125359380D01*
X146882000Y-125359380D02*
X146882000Y-124359380D01*
X146786761Y-124502238D01*
X146691523Y-124597476D01*
X146596285Y-124645095D01*
%TO.C,C4*%
X110323333Y-113133142D02*
X110275714Y-113180761D01*
X110132857Y-113228380D01*
X110037619Y-113228380D01*
X109894761Y-113180761D01*
X109799523Y-113085523D01*
X109751904Y-112990285D01*
X109704285Y-112799809D01*
X109704285Y-112656952D01*
X109751904Y-112466476D01*
X109799523Y-112371238D01*
X109894761Y-112276000D01*
X110037619Y-112228380D01*
X110132857Y-112228380D01*
X110275714Y-112276000D01*
X110323333Y-112323619D01*
X111180476Y-112561714D02*
X111180476Y-113228380D01*
X110942380Y-112180761D02*
X110704285Y-112895047D01*
X111323333Y-112895047D01*
%TO.C,C3*%
X105111533Y-111305142D02*
X105063914Y-111352761D01*
X104921057Y-111400380D01*
X104825819Y-111400380D01*
X104682961Y-111352761D01*
X104587723Y-111257523D01*
X104540104Y-111162285D01*
X104492485Y-110971809D01*
X104492485Y-110828952D01*
X104540104Y-110638476D01*
X104587723Y-110543238D01*
X104682961Y-110448000D01*
X104825819Y-110400380D01*
X104921057Y-110400380D01*
X105063914Y-110448000D01*
X105111533Y-110495619D01*
X105444866Y-110400380D02*
X106063914Y-110400380D01*
X105730580Y-110781333D01*
X105873438Y-110781333D01*
X105968676Y-110828952D01*
X106016295Y-110876571D01*
X106063914Y-110971809D01*
X106063914Y-111209904D01*
X106016295Y-111305142D01*
X105968676Y-111352761D01*
X105873438Y-111400380D01*
X105587723Y-111400380D01*
X105492485Y-111352761D01*
X105444866Y-111305142D01*
%TO.C,CN1*%
X115895523Y-44857942D02*
X115847904Y-44905561D01*
X115705047Y-44953180D01*
X115609809Y-44953180D01*
X115466952Y-44905561D01*
X115371714Y-44810323D01*
X115324095Y-44715085D01*
X115276476Y-44524609D01*
X115276476Y-44381752D01*
X115324095Y-44191276D01*
X115371714Y-44096038D01*
X115466952Y-44000800D01*
X115609809Y-43953180D01*
X115705047Y-43953180D01*
X115847904Y-44000800D01*
X115895523Y-44048419D01*
X116324095Y-44953180D02*
X116324095Y-43953180D01*
X116895523Y-44953180D01*
X116895523Y-43953180D01*
X117895523Y-44953180D02*
X117324095Y-44953180D01*
X117609809Y-44953180D02*
X117609809Y-43953180D01*
X117514571Y-44096038D01*
X117419333Y-44191276D01*
X117324095Y-44238895D01*
%TO.C,SW1*%
X105092666Y-42568761D02*
X105235523Y-42616380D01*
X105473619Y-42616380D01*
X105568857Y-42568761D01*
X105616476Y-42521142D01*
X105664095Y-42425904D01*
X105664095Y-42330666D01*
X105616476Y-42235428D01*
X105568857Y-42187809D01*
X105473619Y-42140190D01*
X105283142Y-42092571D01*
X105187904Y-42044952D01*
X105140285Y-41997333D01*
X105092666Y-41902095D01*
X105092666Y-41806857D01*
X105140285Y-41711619D01*
X105187904Y-41664000D01*
X105283142Y-41616380D01*
X105521238Y-41616380D01*
X105664095Y-41664000D01*
X105997428Y-41616380D02*
X106235523Y-42616380D01*
X106426000Y-41902095D01*
X106616476Y-42616380D01*
X106854571Y-41616380D01*
X107759333Y-42616380D02*
X107187904Y-42616380D01*
X107473619Y-42616380D02*
X107473619Y-41616380D01*
X107378380Y-41759238D01*
X107283142Y-41854476D01*
X107187904Y-41902095D01*
%TO.C,C2*%
X158375333Y-125174142D02*
X158327714Y-125221761D01*
X158184857Y-125269380D01*
X158089619Y-125269380D01*
X157946761Y-125221761D01*
X157851523Y-125126523D01*
X157803904Y-125031285D01*
X157756285Y-124840809D01*
X157756285Y-124697952D01*
X157803904Y-124507476D01*
X157851523Y-124412238D01*
X157946761Y-124317000D01*
X158089619Y-124269380D01*
X158184857Y-124269380D01*
X158327714Y-124317000D01*
X158375333Y-124364619D01*
X158756285Y-124364619D02*
X158803904Y-124317000D01*
X158899142Y-124269380D01*
X159137238Y-124269380D01*
X159232476Y-124317000D01*
X159280095Y-124364619D01*
X159327714Y-124459857D01*
X159327714Y-124555095D01*
X159280095Y-124697952D01*
X158708666Y-125269380D01*
X159327714Y-125269380D01*
%TO.C,U1*%
X145034095Y-118984780D02*
X145034095Y-119794304D01*
X145081714Y-119889542D01*
X145129333Y-119937161D01*
X145224571Y-119984780D01*
X145415047Y-119984780D01*
X145510285Y-119937161D01*
X145557904Y-119889542D01*
X145605523Y-119794304D01*
X145605523Y-118984780D01*
X146605523Y-119984780D02*
X146034095Y-119984780D01*
X146319809Y-119984780D02*
X146319809Y-118984780D01*
X146224571Y-119127638D01*
X146129333Y-119222876D01*
X146034095Y-119270495D01*
%TO.C,J2*%
X153082666Y-41616380D02*
X153082666Y-42330666D01*
X153035047Y-42473523D01*
X152939809Y-42568761D01*
X152796952Y-42616380D01*
X152701714Y-42616380D01*
X153511238Y-41711619D02*
X153558857Y-41664000D01*
X153654095Y-41616380D01*
X153892190Y-41616380D01*
X153987428Y-41664000D01*
X154035047Y-41711619D01*
X154082666Y-41806857D01*
X154082666Y-41902095D01*
X154035047Y-42044952D01*
X153463619Y-42616380D01*
X154082666Y-42616380D01*
%TO.C,R2*%
X101391980Y-47715466D02*
X100915790Y-48048800D01*
X101391980Y-48286895D02*
X100391980Y-48286895D01*
X100391980Y-47905942D01*
X100439600Y-47810704D01*
X100487219Y-47763085D01*
X100582457Y-47715466D01*
X100725314Y-47715466D01*
X100820552Y-47763085D01*
X100868171Y-47810704D01*
X100915790Y-47905942D01*
X100915790Y-48286895D01*
X100487219Y-47334514D02*
X100439600Y-47286895D01*
X100391980Y-47191657D01*
X100391980Y-46953561D01*
X100439600Y-46858323D01*
X100487219Y-46810704D01*
X100582457Y-46763085D01*
X100677695Y-46763085D01*
X100820552Y-46810704D01*
X101391980Y-47382133D01*
X101391980Y-46763085D01*
%TO.C,C5*%
X108311933Y-111305142D02*
X108264314Y-111352761D01*
X108121457Y-111400380D01*
X108026219Y-111400380D01*
X107883361Y-111352761D01*
X107788123Y-111257523D01*
X107740504Y-111162285D01*
X107692885Y-110971809D01*
X107692885Y-110828952D01*
X107740504Y-110638476D01*
X107788123Y-110543238D01*
X107883361Y-110448000D01*
X108026219Y-110400380D01*
X108121457Y-110400380D01*
X108264314Y-110448000D01*
X108311933Y-110495619D01*
X109216695Y-110400380D02*
X108740504Y-110400380D01*
X108692885Y-110876571D01*
X108740504Y-110828952D01*
X108835742Y-110781333D01*
X109073838Y-110781333D01*
X109169076Y-110828952D01*
X109216695Y-110876571D01*
X109264314Y-110971809D01*
X109264314Y-111209904D01*
X109216695Y-111305142D01*
X109169076Y-111352761D01*
X109073838Y-111400380D01*
X108835742Y-111400380D01*
X108740504Y-111352761D01*
X108692885Y-111305142D01*
%TO.C,J4-GND1*%
X147161619Y-44620380D02*
X147161619Y-45334666D01*
X147114000Y-45477523D01*
X147018761Y-45572761D01*
X146875904Y-45620380D01*
X146780666Y-45620380D01*
X148066380Y-44953714D02*
X148066380Y-45620380D01*
X147828285Y-44572761D02*
X147590190Y-45287047D01*
X148209238Y-45287047D01*
X148590190Y-45239428D02*
X149352095Y-45239428D01*
X150352095Y-44668000D02*
X150256857Y-44620380D01*
X150114000Y-44620380D01*
X149971142Y-44668000D01*
X149875904Y-44763238D01*
X149828285Y-44858476D01*
X149780666Y-45048952D01*
X149780666Y-45191809D01*
X149828285Y-45382285D01*
X149875904Y-45477523D01*
X149971142Y-45572761D01*
X150114000Y-45620380D01*
X150209238Y-45620380D01*
X150352095Y-45572761D01*
X150399714Y-45525142D01*
X150399714Y-45191809D01*
X150209238Y-45191809D01*
X150828285Y-45620380D02*
X150828285Y-44620380D01*
X151399714Y-45620380D01*
X151399714Y-44620380D01*
X151875904Y-45620380D02*
X151875904Y-44620380D01*
X152114000Y-44620380D01*
X152256857Y-44668000D01*
X152352095Y-44763238D01*
X152399714Y-44858476D01*
X152447333Y-45048952D01*
X152447333Y-45191809D01*
X152399714Y-45382285D01*
X152352095Y-45477523D01*
X152256857Y-45572761D01*
X152114000Y-45620380D01*
X151875904Y-45620380D01*
X153399714Y-45620380D02*
X152828285Y-45620380D01*
X153114000Y-45620380D02*
X153114000Y-44620380D01*
X153018761Y-44763238D01*
X152923523Y-44858476D01*
X152828285Y-44906095D01*
%TO.C,J3*%
X113611066Y-122083580D02*
X113611066Y-122797866D01*
X113563447Y-122940723D01*
X113468209Y-123035961D01*
X113325352Y-123083580D01*
X113230114Y-123083580D01*
X113992019Y-122083580D02*
X114611066Y-122083580D01*
X114277733Y-122464533D01*
X114420590Y-122464533D01*
X114515828Y-122512152D01*
X114563447Y-122559771D01*
X114611066Y-122655009D01*
X114611066Y-122893104D01*
X114563447Y-122988342D01*
X114515828Y-123035961D01*
X114420590Y-123083580D01*
X114134876Y-123083580D01*
X114039638Y-123035961D01*
X113992019Y-122988342D01*
%TO.C,R1*%
X101912333Y-120492380D02*
X101579000Y-120016190D01*
X101340904Y-120492380D02*
X101340904Y-119492380D01*
X101721857Y-119492380D01*
X101817095Y-119540000D01*
X101864714Y-119587619D01*
X101912333Y-119682857D01*
X101912333Y-119825714D01*
X101864714Y-119920952D01*
X101817095Y-119968571D01*
X101721857Y-120016190D01*
X101340904Y-120016190D01*
X102864714Y-120492380D02*
X102293285Y-120492380D01*
X102579000Y-120492380D02*
X102579000Y-119492380D01*
X102483761Y-119635238D01*
X102388523Y-119730476D01*
X102293285Y-119778095D01*
%TO.C,FB1*%
X102036666Y-114228571D02*
X101703333Y-114228571D01*
X101703333Y-114752380D02*
X101703333Y-113752380D01*
X102179523Y-113752380D01*
X102893809Y-114228571D02*
X103036666Y-114276190D01*
X103084285Y-114323809D01*
X103131904Y-114419047D01*
X103131904Y-114561904D01*
X103084285Y-114657142D01*
X103036666Y-114704761D01*
X102941428Y-114752380D01*
X102560476Y-114752380D01*
X102560476Y-113752380D01*
X102893809Y-113752380D01*
X102989047Y-113800000D01*
X103036666Y-113847619D01*
X103084285Y-113942857D01*
X103084285Y-114038095D01*
X103036666Y-114133333D01*
X102989047Y-114180952D01*
X102893809Y-114228571D01*
X102560476Y-114228571D01*
X104084285Y-114752380D02*
X103512857Y-114752380D01*
X103798571Y-114752380D02*
X103798571Y-113752380D01*
X103703333Y-113895238D01*
X103608095Y-113990476D01*
X103512857Y-114038095D01*
%TO.C,F1*%
X108531066Y-118190971D02*
X108197733Y-118190971D01*
X108197733Y-118714780D02*
X108197733Y-117714780D01*
X108673923Y-117714780D01*
X109578685Y-118714780D02*
X109007257Y-118714780D01*
X109292971Y-118714780D02*
X109292971Y-117714780D01*
X109197733Y-117857638D01*
X109102495Y-117952876D01*
X109007257Y-118000495D01*
D11*
%TO.C,J1*%
X93920000Y-43434000D02*
X96520000Y-43434000D01*
X93920000Y-43434000D02*
X93920000Y-122234000D01*
X96520000Y-40834000D02*
X99120000Y-40834000D01*
X93920000Y-122234000D02*
X99120000Y-122234000D01*
X93920000Y-42164000D02*
X93920000Y-40834000D01*
X96520000Y-43434000D02*
X96520000Y-40834000D01*
X93920000Y-40834000D02*
X95250000Y-40834000D01*
X99120000Y-40834000D02*
X99120000Y-122234000D01*
%TO.C,C1*%
X149001420Y-125417000D02*
X149282580Y-125417000D01*
X149001420Y-124397000D02*
X149282580Y-124397000D01*
%TO.C,C4*%
X111308980Y-114886400D02*
X111027820Y-114886400D01*
X111308980Y-113866400D02*
X111027820Y-113866400D01*
%TO.C,C3*%
X104573400Y-113175148D02*
X104573400Y-113697652D01*
X106043400Y-113175148D02*
X106043400Y-113697652D01*
D12*
%TO.C,CN1*%
X135162500Y-118328000D02*
X140572500Y-120008000D01*
X113932500Y-114208000D02*
X113932500Y-113658000D01*
X123022500Y-117128000D02*
X124222500Y-118328000D01*
X123812500Y-49388000D02*
X123152500Y-49388000D01*
X128102500Y-46608000D02*
X128102500Y-45988000D01*
X123152500Y-49388000D02*
X123152500Y-50128000D01*
X140652500Y-120028000D02*
X140652500Y-113848000D01*
X113372500Y-49368000D02*
X113372500Y-45838000D01*
X113932500Y-49368000D02*
X113932500Y-49638000D01*
X123022500Y-46448000D02*
X124222500Y-45248000D01*
X113372500Y-114208000D02*
X113932500Y-114208000D01*
X140652500Y-43548000D02*
X140652500Y-49568000D01*
X140572500Y-120008000D02*
X140652500Y-120028000D01*
X133132500Y-45248000D02*
X135162500Y-45248000D01*
X140652500Y-113848000D02*
X132842500Y-113848000D01*
X123812500Y-114188000D02*
X123812500Y-115728000D01*
X113372500Y-114208000D02*
X113372500Y-117738000D01*
X123152500Y-114188000D02*
X123152500Y-113928000D01*
X113372500Y-117738000D02*
X120182500Y-117738000D01*
X132702500Y-117468000D02*
X132702500Y-116858000D01*
X128102500Y-117468000D02*
X132702500Y-117468000D01*
X128102500Y-117468000D02*
X128102500Y-116848000D01*
X123812500Y-47828000D02*
X127942500Y-47828000D01*
X123812500Y-114188000D02*
X123152500Y-114188000D01*
X123812500Y-49388000D02*
X123812500Y-47828000D01*
X128102500Y-45988000D02*
X132702500Y-45988000D01*
X135162500Y-45248000D02*
X140572500Y-43578000D01*
X132702500Y-45988000D02*
X132702500Y-46598000D01*
X120182500Y-46448000D02*
X123022500Y-46448000D01*
X113372500Y-45838000D02*
X120182500Y-45838000D01*
X120182500Y-117738000D02*
X120182500Y-117128000D01*
X124222500Y-45248000D02*
X133112500Y-45248000D01*
X124222500Y-118328000D02*
X133112500Y-118328000D01*
X140652500Y-49568000D02*
X132902500Y-49568000D01*
X120182500Y-45838000D02*
X120182500Y-46448000D01*
X120182500Y-117128000D02*
X123022500Y-117128000D01*
X113372500Y-49368000D02*
X113932500Y-49368000D01*
X123812500Y-115728000D02*
X127812500Y-115728000D01*
X140572500Y-43578000D02*
X140652500Y-43548000D01*
X133132500Y-118328000D02*
X135162500Y-118328000D01*
%TO.C,N1*%
G36*
X129333814Y-119896931D02*
G01*
X129417635Y-120341555D01*
X129726920Y-120469053D01*
X130036206Y-120596551D01*
X130407246Y-120344246D01*
X130511157Y-120273996D01*
X130605087Y-120211272D01*
X130684652Y-120158938D01*
X130745470Y-120119857D01*
X130783157Y-120096893D01*
X130793421Y-120091942D01*
X130811910Y-120104676D01*
X130851420Y-120139882D01*
X130907522Y-120193062D01*
X130975787Y-120259718D01*
X131051786Y-120335354D01*
X131131092Y-120415472D01*
X131209275Y-120495574D01*
X131281907Y-120571164D01*
X131344559Y-120637745D01*
X131392803Y-120690818D01*
X131422210Y-120725887D01*
X131429241Y-120737623D01*
X131419123Y-120759260D01*
X131390759Y-120806662D01*
X131347129Y-120875193D01*
X131291218Y-120960215D01*
X131226006Y-121057093D01*
X131188219Y-121112350D01*
X131119343Y-121213248D01*
X131058140Y-121304299D01*
X131007578Y-121380970D01*
X130970628Y-121438728D01*
X130950258Y-121473043D01*
X130947197Y-121480254D01*
X130954136Y-121500748D01*
X130973051Y-121548513D01*
X131001087Y-121616832D01*
X131035391Y-121698989D01*
X131073109Y-121788270D01*
X131111387Y-121877958D01*
X131147370Y-121961338D01*
X131178206Y-122031694D01*
X131201039Y-122082310D01*
X131213017Y-122106471D01*
X131213724Y-122107422D01*
X131232531Y-122112036D01*
X131282618Y-122122328D01*
X131358793Y-122137287D01*
X131455865Y-122155901D01*
X131568643Y-122177159D01*
X131634442Y-122189418D01*
X131754950Y-122212362D01*
X131863797Y-122234195D01*
X131955476Y-122253722D01*
X132024481Y-122269748D01*
X132065304Y-122281079D01*
X132073511Y-122284674D01*
X132081548Y-122309006D01*
X132088033Y-122363959D01*
X132092970Y-122443108D01*
X132096364Y-122540026D01*
X132098218Y-122648287D01*
X132098538Y-122761465D01*
X132097327Y-122873135D01*
X132094590Y-122976868D01*
X132090331Y-123066241D01*
X132084555Y-123134826D01*
X132077267Y-123176197D01*
X132072895Y-123184810D01*
X132046764Y-123195133D01*
X131991393Y-123209892D01*
X131914107Y-123227352D01*
X131822230Y-123245780D01*
X131790158Y-123251741D01*
X131635524Y-123280066D01*
X131513375Y-123302876D01*
X131419673Y-123321080D01*
X131350384Y-123335583D01*
X131301471Y-123347292D01*
X131268897Y-123357115D01*
X131248628Y-123365956D01*
X131236626Y-123374724D01*
X131234947Y-123376457D01*
X131218184Y-123404371D01*
X131192614Y-123458695D01*
X131160788Y-123532777D01*
X131125260Y-123619965D01*
X131088583Y-123713608D01*
X131053311Y-123807052D01*
X131021996Y-123893647D01*
X130997193Y-123966740D01*
X130981454Y-124019678D01*
X130977332Y-124045811D01*
X130977676Y-124046726D01*
X130991641Y-124068086D01*
X131023322Y-124115084D01*
X131069391Y-124182827D01*
X131126518Y-124266423D01*
X131191373Y-124360982D01*
X131209843Y-124387854D01*
X131275699Y-124485275D01*
X131333650Y-124574163D01*
X131380538Y-124649412D01*
X131413207Y-124705920D01*
X131428500Y-124738581D01*
X131429241Y-124742593D01*
X131416392Y-124763684D01*
X131380888Y-124805464D01*
X131327293Y-124863445D01*
X131260171Y-124933135D01*
X131184087Y-125010045D01*
X131103604Y-125089683D01*
X131023287Y-125167561D01*
X130947699Y-125239186D01*
X130881405Y-125300070D01*
X130828969Y-125345721D01*
X130794955Y-125371650D01*
X130785545Y-125375883D01*
X130763643Y-125365912D01*
X130718800Y-125339020D01*
X130658321Y-125299736D01*
X130611789Y-125268117D01*
X130527475Y-125210098D01*
X130427626Y-125141784D01*
X130327473Y-125073579D01*
X130273627Y-125037075D01*
X130091371Y-124913800D01*
X129938381Y-124996520D01*
X129868682Y-125032759D01*
X129809414Y-125060926D01*
X129769311Y-125076991D01*
X129759103Y-125079226D01*
X129746829Y-125062722D01*
X129722613Y-125016082D01*
X129688263Y-124943609D01*
X129645588Y-124849606D01*
X129596394Y-124738374D01*
X129542490Y-124614215D01*
X129485684Y-124481432D01*
X129427782Y-124344327D01*
X129370593Y-124207202D01*
X129315924Y-124074358D01*
X129265584Y-123950098D01*
X129221380Y-123838725D01*
X129185119Y-123744539D01*
X129158609Y-123671844D01*
X129143658Y-123624941D01*
X129141254Y-123608833D01*
X129160311Y-123588286D01*
X129202036Y-123554933D01*
X129257706Y-123515702D01*
X129262378Y-123512599D01*
X129406264Y-123397423D01*
X129522283Y-123263053D01*
X129609430Y-123113784D01*
X129666699Y-122953913D01*
X129693086Y-122787737D01*
X129687585Y-122619552D01*
X129649190Y-122453655D01*
X129576895Y-122294342D01*
X129555626Y-122259487D01*
X129444996Y-122118737D01*
X129314302Y-122005714D01*
X129168064Y-121921003D01*
X129010808Y-121865194D01*
X128847057Y-121838874D01*
X128681333Y-121842630D01*
X128518162Y-121877050D01*
X128362065Y-121942723D01*
X128217567Y-122040235D01*
X128172869Y-122079813D01*
X128059112Y-122203703D01*
X127976218Y-122334124D01*
X127919356Y-122480315D01*
X127887687Y-122625088D01*
X127879869Y-122787860D01*
X127905938Y-122951440D01*
X127963245Y-123110298D01*
X128049144Y-123258906D01*
X128160986Y-123391735D01*
X128296123Y-123503256D01*
X128313883Y-123515011D01*
X128370150Y-123553508D01*
X128412923Y-123586863D01*
X128433372Y-123608160D01*
X128433669Y-123608833D01*
X128429279Y-123631871D01*
X128411876Y-123684157D01*
X128383268Y-123761390D01*
X128345265Y-123859268D01*
X128299674Y-123973491D01*
X128248303Y-124099758D01*
X128192962Y-124233767D01*
X128135458Y-124371218D01*
X128077601Y-124507808D01*
X128021198Y-124639237D01*
X127968058Y-124761205D01*
X127919990Y-124869409D01*
X127878801Y-124959549D01*
X127846301Y-125027323D01*
X127824297Y-125068430D01*
X127815436Y-125079226D01*
X127788360Y-125070819D01*
X127737697Y-125048272D01*
X127672183Y-125015613D01*
X127636159Y-124996520D01*
X127483168Y-124913800D01*
X127300912Y-125037075D01*
X127207875Y-125100228D01*
X127106015Y-125169727D01*
X127010562Y-125235165D01*
X126962750Y-125268117D01*
X126895505Y-125313273D01*
X126838564Y-125349057D01*
X126799354Y-125370938D01*
X126786619Y-125375563D01*
X126768083Y-125363085D01*
X126727059Y-125328252D01*
X126667525Y-125274678D01*
X126593458Y-125205983D01*
X126508835Y-125125781D01*
X126455315Y-125074286D01*
X126361681Y-124982286D01*
X126280759Y-124899999D01*
X126215823Y-124830945D01*
X126170142Y-124778644D01*
X126146989Y-124746616D01*
X126144768Y-124740116D01*
X126155076Y-124715394D01*
X126183561Y-124665405D01*
X126227063Y-124595212D01*
X126282423Y-124509875D01*
X126346480Y-124414456D01*
X126364697Y-124387854D01*
X126431073Y-124291167D01*
X126490622Y-124204117D01*
X126540016Y-124131595D01*
X126575925Y-124078493D01*
X126595019Y-124049703D01*
X126596864Y-124046726D01*
X126594105Y-124023782D01*
X126579462Y-123973336D01*
X126555487Y-123902041D01*
X126524734Y-123816547D01*
X126489756Y-123723507D01*
X126453107Y-123629574D01*
X126417339Y-123541399D01*
X126385006Y-123465634D01*
X126358662Y-123408931D01*
X126340858Y-123377943D01*
X126339593Y-123376457D01*
X126328706Y-123367601D01*
X126310318Y-123358843D01*
X126280394Y-123349277D01*
X126234897Y-123337996D01*
X126169791Y-123324093D01*
X126081039Y-123306663D01*
X125964607Y-123284798D01*
X125816458Y-123257591D01*
X125784382Y-123251741D01*
X125689314Y-123233374D01*
X125606435Y-123215405D01*
X125543070Y-123199569D01*
X125506542Y-123187600D01*
X125501644Y-123184810D01*
X125493573Y-123160072D01*
X125487013Y-123104790D01*
X125481967Y-123025389D01*
X125478441Y-122928296D01*
X125476439Y-122819938D01*
X125475964Y-122706740D01*
X125477023Y-122595128D01*
X125479618Y-122491529D01*
X125483754Y-122402368D01*
X125489437Y-122334072D01*
X125496669Y-122293066D01*
X125501029Y-122284674D01*
X125525302Y-122276208D01*
X125580574Y-122262435D01*
X125661338Y-122244550D01*
X125762088Y-122223748D01*
X125877317Y-122201223D01*
X125940098Y-122189418D01*
X126059213Y-122167151D01*
X126165435Y-122146979D01*
X126253573Y-122129915D01*
X126318434Y-122116969D01*
X126354826Y-122109155D01*
X126360816Y-122107422D01*
X126370939Y-122087890D01*
X126392338Y-122040843D01*
X126422161Y-121973003D01*
X126457555Y-121891091D01*
X126495668Y-121801828D01*
X126533647Y-121711935D01*
X126568640Y-121628135D01*
X126597794Y-121557147D01*
X126618257Y-121505694D01*
X126627177Y-121480497D01*
X126627343Y-121479396D01*
X126617231Y-121459519D01*
X126588883Y-121413777D01*
X126545277Y-121346717D01*
X126489394Y-121262884D01*
X126424213Y-121166826D01*
X126386321Y-121111650D01*
X126317275Y-121010481D01*
X126255950Y-120918630D01*
X126205337Y-120840744D01*
X126168429Y-120781469D01*
X126148218Y-120745451D01*
X126145299Y-120737377D01*
X126157847Y-120718584D01*
X126192537Y-120678457D01*
X126244937Y-120621493D01*
X126310616Y-120552185D01*
X126385144Y-120475031D01*
X126464087Y-120394525D01*
X126543017Y-120315163D01*
X126617500Y-120241440D01*
X126683106Y-120177852D01*
X126735404Y-120128894D01*
X126769961Y-120099061D01*
X126781522Y-120091942D01*
X126800346Y-120101953D01*
X126845369Y-120130078D01*
X126912213Y-120173454D01*
X126996501Y-120229218D01*
X127093856Y-120294506D01*
X127167293Y-120344246D01*
X127538333Y-120596551D01*
X128156905Y-120341555D01*
X128240725Y-119896931D01*
X128324546Y-119452307D01*
X129249994Y-119452307D01*
X129333814Y-119896931D01*
G37*
D13*
X129333814Y-119896931D02*
X129417635Y-120341555D01*
X129726920Y-120469053D01*
X130036206Y-120596551D01*
X130407246Y-120344246D01*
X130511157Y-120273996D01*
X130605087Y-120211272D01*
X130684652Y-120158938D01*
X130745470Y-120119857D01*
X130783157Y-120096893D01*
X130793421Y-120091942D01*
X130811910Y-120104676D01*
X130851420Y-120139882D01*
X130907522Y-120193062D01*
X130975787Y-120259718D01*
X131051786Y-120335354D01*
X131131092Y-120415472D01*
X131209275Y-120495574D01*
X131281907Y-120571164D01*
X131344559Y-120637745D01*
X131392803Y-120690818D01*
X131422210Y-120725887D01*
X131429241Y-120737623D01*
X131419123Y-120759260D01*
X131390759Y-120806662D01*
X131347129Y-120875193D01*
X131291218Y-120960215D01*
X131226006Y-121057093D01*
X131188219Y-121112350D01*
X131119343Y-121213248D01*
X131058140Y-121304299D01*
X131007578Y-121380970D01*
X130970628Y-121438728D01*
X130950258Y-121473043D01*
X130947197Y-121480254D01*
X130954136Y-121500748D01*
X130973051Y-121548513D01*
X131001087Y-121616832D01*
X131035391Y-121698989D01*
X131073109Y-121788270D01*
X131111387Y-121877958D01*
X131147370Y-121961338D01*
X131178206Y-122031694D01*
X131201039Y-122082310D01*
X131213017Y-122106471D01*
X131213724Y-122107422D01*
X131232531Y-122112036D01*
X131282618Y-122122328D01*
X131358793Y-122137287D01*
X131455865Y-122155901D01*
X131568643Y-122177159D01*
X131634442Y-122189418D01*
X131754950Y-122212362D01*
X131863797Y-122234195D01*
X131955476Y-122253722D01*
X132024481Y-122269748D01*
X132065304Y-122281079D01*
X132073511Y-122284674D01*
X132081548Y-122309006D01*
X132088033Y-122363959D01*
X132092970Y-122443108D01*
X132096364Y-122540026D01*
X132098218Y-122648287D01*
X132098538Y-122761465D01*
X132097327Y-122873135D01*
X132094590Y-122976868D01*
X132090331Y-123066241D01*
X132084555Y-123134826D01*
X132077267Y-123176197D01*
X132072895Y-123184810D01*
X132046764Y-123195133D01*
X131991393Y-123209892D01*
X131914107Y-123227352D01*
X131822230Y-123245780D01*
X131790158Y-123251741D01*
X131635524Y-123280066D01*
X131513375Y-123302876D01*
X131419673Y-123321080D01*
X131350384Y-123335583D01*
X131301471Y-123347292D01*
X131268897Y-123357115D01*
X131248628Y-123365956D01*
X131236626Y-123374724D01*
X131234947Y-123376457D01*
X131218184Y-123404371D01*
X131192614Y-123458695D01*
X131160788Y-123532777D01*
X131125260Y-123619965D01*
X131088583Y-123713608D01*
X131053311Y-123807052D01*
X131021996Y-123893647D01*
X130997193Y-123966740D01*
X130981454Y-124019678D01*
X130977332Y-124045811D01*
X130977676Y-124046726D01*
X130991641Y-124068086D01*
X131023322Y-124115084D01*
X131069391Y-124182827D01*
X131126518Y-124266423D01*
X131191373Y-124360982D01*
X131209843Y-124387854D01*
X131275699Y-124485275D01*
X131333650Y-124574163D01*
X131380538Y-124649412D01*
X131413207Y-124705920D01*
X131428500Y-124738581D01*
X131429241Y-124742593D01*
X131416392Y-124763684D01*
X131380888Y-124805464D01*
X131327293Y-124863445D01*
X131260171Y-124933135D01*
X131184087Y-125010045D01*
X131103604Y-125089683D01*
X131023287Y-125167561D01*
X130947699Y-125239186D01*
X130881405Y-125300070D01*
X130828969Y-125345721D01*
X130794955Y-125371650D01*
X130785545Y-125375883D01*
X130763643Y-125365912D01*
X130718800Y-125339020D01*
X130658321Y-125299736D01*
X130611789Y-125268117D01*
X130527475Y-125210098D01*
X130427626Y-125141784D01*
X130327473Y-125073579D01*
X130273627Y-125037075D01*
X130091371Y-124913800D01*
X129938381Y-124996520D01*
X129868682Y-125032759D01*
X129809414Y-125060926D01*
X129769311Y-125076991D01*
X129759103Y-125079226D01*
X129746829Y-125062722D01*
X129722613Y-125016082D01*
X129688263Y-124943609D01*
X129645588Y-124849606D01*
X129596394Y-124738374D01*
X129542490Y-124614215D01*
X129485684Y-124481432D01*
X129427782Y-124344327D01*
X129370593Y-124207202D01*
X129315924Y-124074358D01*
X129265584Y-123950098D01*
X129221380Y-123838725D01*
X129185119Y-123744539D01*
X129158609Y-123671844D01*
X129143658Y-123624941D01*
X129141254Y-123608833D01*
X129160311Y-123588286D01*
X129202036Y-123554933D01*
X129257706Y-123515702D01*
X129262378Y-123512599D01*
X129406264Y-123397423D01*
X129522283Y-123263053D01*
X129609430Y-123113784D01*
X129666699Y-122953913D01*
X129693086Y-122787737D01*
X129687585Y-122619552D01*
X129649190Y-122453655D01*
X129576895Y-122294342D01*
X129555626Y-122259487D01*
X129444996Y-122118737D01*
X129314302Y-122005714D01*
X129168064Y-121921003D01*
X129010808Y-121865194D01*
X128847057Y-121838874D01*
X128681333Y-121842630D01*
X128518162Y-121877050D01*
X128362065Y-121942723D01*
X128217567Y-122040235D01*
X128172869Y-122079813D01*
X128059112Y-122203703D01*
X127976218Y-122334124D01*
X127919356Y-122480315D01*
X127887687Y-122625088D01*
X127879869Y-122787860D01*
X127905938Y-122951440D01*
X127963245Y-123110298D01*
X128049144Y-123258906D01*
X128160986Y-123391735D01*
X128296123Y-123503256D01*
X128313883Y-123515011D01*
X128370150Y-123553508D01*
X128412923Y-123586863D01*
X128433372Y-123608160D01*
X128433669Y-123608833D01*
X128429279Y-123631871D01*
X128411876Y-123684157D01*
X128383268Y-123761390D01*
X128345265Y-123859268D01*
X128299674Y-123973491D01*
X128248303Y-124099758D01*
X128192962Y-124233767D01*
X128135458Y-124371218D01*
X128077601Y-124507808D01*
X128021198Y-124639237D01*
X127968058Y-124761205D01*
X127919990Y-124869409D01*
X127878801Y-124959549D01*
X127846301Y-125027323D01*
X127824297Y-125068430D01*
X127815436Y-125079226D01*
X127788360Y-125070819D01*
X127737697Y-125048272D01*
X127672183Y-125015613D01*
X127636159Y-124996520D01*
X127483168Y-124913800D01*
X127300912Y-125037075D01*
X127207875Y-125100228D01*
X127106015Y-125169727D01*
X127010562Y-125235165D01*
X126962750Y-125268117D01*
X126895505Y-125313273D01*
X126838564Y-125349057D01*
X126799354Y-125370938D01*
X126786619Y-125375563D01*
X126768083Y-125363085D01*
X126727059Y-125328252D01*
X126667525Y-125274678D01*
X126593458Y-125205983D01*
X126508835Y-125125781D01*
X126455315Y-125074286D01*
X126361681Y-124982286D01*
X126280759Y-124899999D01*
X126215823Y-124830945D01*
X126170142Y-124778644D01*
X126146989Y-124746616D01*
X126144768Y-124740116D01*
X126155076Y-124715394D01*
X126183561Y-124665405D01*
X126227063Y-124595212D01*
X126282423Y-124509875D01*
X126346480Y-124414456D01*
X126364697Y-124387854D01*
X126431073Y-124291167D01*
X126490622Y-124204117D01*
X126540016Y-124131595D01*
X126575925Y-124078493D01*
X126595019Y-124049703D01*
X126596864Y-124046726D01*
X126594105Y-124023782D01*
X126579462Y-123973336D01*
X126555487Y-123902041D01*
X126524734Y-123816547D01*
X126489756Y-123723507D01*
X126453107Y-123629574D01*
X126417339Y-123541399D01*
X126385006Y-123465634D01*
X126358662Y-123408931D01*
X126340858Y-123377943D01*
X126339593Y-123376457D01*
X126328706Y-123367601D01*
X126310318Y-123358843D01*
X126280394Y-123349277D01*
X126234897Y-123337996D01*
X126169791Y-123324093D01*
X126081039Y-123306663D01*
X125964607Y-123284798D01*
X125816458Y-123257591D01*
X125784382Y-123251741D01*
X125689314Y-123233374D01*
X125606435Y-123215405D01*
X125543070Y-123199569D01*
X125506542Y-123187600D01*
X125501644Y-123184810D01*
X125493573Y-123160072D01*
X125487013Y-123104790D01*
X125481967Y-123025389D01*
X125478441Y-122928296D01*
X125476439Y-122819938D01*
X125475964Y-122706740D01*
X125477023Y-122595128D01*
X125479618Y-122491529D01*
X125483754Y-122402368D01*
X125489437Y-122334072D01*
X125496669Y-122293066D01*
X125501029Y-122284674D01*
X125525302Y-122276208D01*
X125580574Y-122262435D01*
X125661338Y-122244550D01*
X125762088Y-122223748D01*
X125877317Y-122201223D01*
X125940098Y-122189418D01*
X126059213Y-122167151D01*
X126165435Y-122146979D01*
X126253573Y-122129915D01*
X126318434Y-122116969D01*
X126354826Y-122109155D01*
X126360816Y-122107422D01*
X126370939Y-122087890D01*
X126392338Y-122040843D01*
X126422161Y-121973003D01*
X126457555Y-121891091D01*
X126495668Y-121801828D01*
X126533647Y-121711935D01*
X126568640Y-121628135D01*
X126597794Y-121557147D01*
X126618257Y-121505694D01*
X126627177Y-121480497D01*
X126627343Y-121479396D01*
X126617231Y-121459519D01*
X126588883Y-121413777D01*
X126545277Y-121346717D01*
X126489394Y-121262884D01*
X126424213Y-121166826D01*
X126386321Y-121111650D01*
X126317275Y-121010481D01*
X126255950Y-120918630D01*
X126205337Y-120840744D01*
X126168429Y-120781469D01*
X126148218Y-120745451D01*
X126145299Y-120737377D01*
X126157847Y-120718584D01*
X126192537Y-120678457D01*
X126244937Y-120621493D01*
X126310616Y-120552185D01*
X126385144Y-120475031D01*
X126464087Y-120394525D01*
X126543017Y-120315163D01*
X126617500Y-120241440D01*
X126683106Y-120177852D01*
X126735404Y-120128894D01*
X126769961Y-120099061D01*
X126781522Y-120091942D01*
X126800346Y-120101953D01*
X126845369Y-120130078D01*
X126912213Y-120173454D01*
X126996501Y-120229218D01*
X127093856Y-120294506D01*
X127167293Y-120344246D01*
X127538333Y-120596551D01*
X128156905Y-120341555D01*
X128240725Y-119896931D01*
X128324546Y-119452307D01*
X129249994Y-119452307D01*
X129333814Y-119896931D01*
D12*
%TO.C,SW1*%
X107330000Y-43950000D02*
X108230000Y-44850000D01*
X107710000Y-43200000D02*
X108600000Y-44090000D01*
X103880000Y-44580000D02*
X103880000Y-46920000D01*
X107230000Y-47650000D02*
X105530000Y-47650000D01*
X105150000Y-48300000D02*
X107710000Y-48300000D01*
X104260000Y-47410000D02*
X105150000Y-48300000D01*
X105430000Y-43950000D02*
X107330000Y-43950000D01*
X104630000Y-46750000D02*
X104630000Y-44750000D01*
X104630000Y-44750000D02*
X105430000Y-43950000D01*
X105150000Y-43200000D02*
X107710000Y-43200000D01*
X105150000Y-43200000D02*
X104260000Y-44090000D01*
X105530000Y-47650000D02*
X104630000Y-46750000D01*
X108980000Y-44580000D02*
X108980000Y-46920000D01*
X108230000Y-46650000D02*
X107230000Y-47650000D01*
X108600000Y-47410000D02*
X107710000Y-48300000D01*
X108230000Y-44850000D02*
X108230000Y-46650000D01*
X107710000Y-45750000D02*
G75*
G03*
X107710000Y-45750000I-1280000J0D01*
G01*
D11*
%TO.C,C2*%
X155753252Y-125612000D02*
X155230748Y-125612000D01*
X155753252Y-124142000D02*
X155230748Y-124142000D01*
D10*
%TO.C,U1*%
X147292000Y-118117000D02*
X153952000Y-118117000D01*
X147292000Y-121057000D02*
X147292000Y-118117000D01*
X153952000Y-121057000D02*
X147292000Y-121057000D01*
X153952000Y-118117000D02*
X153952000Y-121057000D01*
D11*
%TO.C,J2*%
X157480000Y-43434000D02*
X157480000Y-40834000D01*
X160080000Y-40834000D02*
X160080000Y-122234000D01*
X154880000Y-43434000D02*
X154880000Y-122234000D01*
X154880000Y-122234000D02*
X160080000Y-122234000D01*
X154880000Y-42164000D02*
X154880000Y-40834000D01*
X154880000Y-43434000D02*
X157480000Y-43434000D01*
X154880000Y-40834000D02*
X156210000Y-40834000D01*
X157480000Y-40834000D02*
X160080000Y-40834000D01*
%TO.C,R2*%
X101432500Y-44937258D02*
X101432500Y-44462742D01*
X100387500Y-44937258D02*
X100387500Y-44462742D01*
%TO.C,C5*%
X109303400Y-113195148D02*
X109303400Y-113717652D01*
X107833400Y-113195148D02*
X107833400Y-113717652D01*
%TO.C,J4-GND1*%
X151444000Y-48768000D02*
X151444000Y-48828000D01*
X148784000Y-47498000D02*
X148784000Y-46168000D01*
X148784000Y-48828000D02*
X151444000Y-48828000D01*
X148784000Y-48768000D02*
X148784000Y-48828000D01*
X148784000Y-48768000D02*
X151444000Y-48768000D01*
X148784000Y-46168000D02*
X150114000Y-46168000D01*
D12*
%TO.C,J3*%
X103449000Y-127510000D02*
X103449000Y-126030000D01*
X112389000Y-127510000D02*
X112389000Y-126030000D01*
X103449000Y-123790000D02*
X103449000Y-121930000D01*
X112389000Y-123790000D02*
X112389000Y-121930000D01*
X112389000Y-127510000D02*
X103449000Y-127510000D01*
D11*
%TO.C,R1*%
X102316258Y-118087500D02*
X101841742Y-118087500D01*
X102316258Y-119132500D02*
X101841742Y-119132500D01*
%TO.C,FB1*%
X102863758Y-117424000D02*
X104534242Y-117424000D01*
X102863758Y-115604000D02*
X104534242Y-115604000D01*
D10*
%TO.C,F1*%
X110969000Y-117464000D02*
X109779000Y-117464000D01*
X106729000Y-117464000D02*
X107919000Y-117464000D01*
X109779000Y-115284000D02*
X110969000Y-115284000D01*
X107919000Y-115284000D02*
X106729000Y-115284000D01*
X106579000Y-115434000D02*
X106579000Y-117314000D01*
X111119000Y-115434000D02*
X111119000Y-117314000D01*
D14*
X108849000Y-115534000D02*
G75*
G03*
X108850269Y-116376199I730000J-420000D01*
G01*
X108849000Y-117214000D02*
G75*
G03*
X108847731Y-116371801I-729999J420001D01*
G01*
%TD*%
M02*
