%TF.GenerationSoftware,KiCad,Pcbnew,6.0.6-3a73a75311~116~ubuntu20.04.1*%
%TF.CreationDate,2022-07-23T11:11:57+07:00*%
%TF.ProjectId,Colorlight2QMTech,436f6c6f-726c-4696-9768-7432514d5465,rev?*%
%TF.SameCoordinates,Original*%
%TF.FileFunction,Soldermask,Top*%
%TF.FilePolarity,Negative*%
%FSLAX46Y46*%
G04 Gerber Fmt 4.6, Leading zero omitted, Abs format (unit mm)*
G04 Created by KiCad (PCBNEW 6.0.6-3a73a75311~116~ubuntu20.04.1) date 2022-07-23 11:11:57*
%MOMM*%
%LPD*%
G01*
G04 APERTURE LIST*
G04 Aperture macros list*
%AMRoundRect*
0 Rectangle with rounded corners*
0 $1 Rounding radius*
0 $2 $3 $4 $5 $6 $7 $8 $9 X,Y pos of 4 corners*
0 Add a 4 corners polygon primitive as box body*
4,1,4,$2,$3,$4,$5,$6,$7,$8,$9,$2,$3,0*
0 Add four circle primitives for the rounded corners*
1,1,$1+$1,$2,$3*
1,1,$1+$1,$4,$5*
1,1,$1+$1,$6,$7*
1,1,$1+$1,$8,$9*
0 Add four rect primitives between the rounded corners*
20,1,$1+$1,$2,$3,$4,$5,0*
20,1,$1+$1,$4,$5,$6,$7,0*
20,1,$1+$1,$6,$7,$8,$9,0*
20,1,$1+$1,$8,$9,$2,$3,0*%
G04 Aperture macros list end*
%ADD10C,2.400000*%
%ADD11RoundRect,0.200000X-2.250000X-2.300000X2.250000X-2.300000X2.250000X2.300000X-2.250000X2.300000X0*%
%ADD12RoundRect,0.200000X-1.000000X-0.175000X1.000000X-0.175000X1.000000X0.175000X-1.000000X0.175000X0*%
%ADD13RoundRect,0.200000X0.760000X0.760000X-0.760000X0.760000X-0.760000X-0.760000X0.760000X-0.760000X0*%
%ADD14C,1.920000*%
%ADD15C,2.560000*%
%ADD16C,2.100000*%
%ADD17C,3.650000*%
%ADD18RoundRect,0.400000X-0.200000X-0.275000X0.200000X-0.275000X0.200000X0.275000X-0.200000X0.275000X0*%
%ADD19RoundRect,0.400000X0.200000X0.275000X-0.200000X0.275000X-0.200000X-0.275000X0.200000X-0.275000X0*%
%ADD20RoundRect,0.200000X-0.850000X-0.850000X0.850000X-0.850000X0.850000X0.850000X-0.850000X0.850000X0*%
%ADD21O,2.100000X2.100000*%
%ADD22RoundRect,0.425000X-0.225000X-0.250000X0.225000X-0.250000X0.225000X0.250000X-0.225000X0.250000X0*%
%ADD23RoundRect,0.425000X0.225000X0.250000X-0.225000X0.250000X-0.225000X-0.250000X0.225000X-0.250000X0*%
%ADD24RoundRect,0.450000X-0.475000X0.250000X-0.475000X-0.250000X0.475000X-0.250000X0.475000X0.250000X0*%
%ADD25RoundRect,0.450000X0.250000X0.475000X-0.250000X0.475000X-0.250000X-0.475000X0.250000X-0.475000X0*%
%ADD26RoundRect,0.200000X-0.550000X1.250000X-0.550000X-1.250000X0.550000X-1.250000X0.550000X1.250000X0*%
%ADD27RoundRect,0.200000X-1.800000X1.170000X-1.800000X-1.170000X1.800000X-1.170000X1.800000X1.170000X0*%
%ADD28C,1.150000*%
%ADD29RoundRect,0.200000X-0.150000X-0.650000X0.150000X-0.650000X0.150000X0.650000X-0.150000X0.650000X0*%
%ADD30O,1.600000X2.400000*%
%ADD31O,1.600000X2.200000*%
%ADD32RoundRect,0.450000X-0.275000X-0.700000X0.275000X-0.700000X0.275000X0.700000X-0.275000X0.700000X0*%
%ADD33RoundRect,0.200000X-0.595000X-0.865000X0.595000X-0.865000X0.595000X0.865000X-0.595000X0.865000X0*%
G04 APERTURE END LIST*
D10*
%TO.C,CN1*%
X118770000Y-115100000D03*
X118770000Y-48300000D03*
D11*
X130770000Y-49100000D03*
X130770000Y-114300000D03*
D12*
X123170000Y-113350000D03*
X114570000Y-113050000D03*
X123170000Y-112750000D03*
X114570000Y-112450000D03*
X123170000Y-112150000D03*
X114570000Y-111850000D03*
X123170000Y-111550000D03*
X114570000Y-111250000D03*
X123170000Y-110950000D03*
X114570000Y-110650000D03*
X123170000Y-110350000D03*
X114570000Y-110050000D03*
X123170000Y-109750000D03*
X114570000Y-109450000D03*
X123170000Y-109150000D03*
X114570000Y-108850000D03*
X123170000Y-108550000D03*
X114570000Y-108250000D03*
X123170000Y-107950000D03*
X114570000Y-107650000D03*
X123170000Y-107350000D03*
X114570000Y-107050000D03*
X123170000Y-106750000D03*
X114570000Y-106450000D03*
X123170000Y-106150000D03*
X114570000Y-105850000D03*
X123170000Y-105550000D03*
X114570000Y-105250000D03*
X123170000Y-104950000D03*
X114570000Y-104650000D03*
X123170000Y-104350000D03*
X114570000Y-104050000D03*
X123170000Y-103750000D03*
X114570000Y-103450000D03*
X123170000Y-103150000D03*
X114570000Y-102850000D03*
X123170000Y-102550000D03*
X114570000Y-102250000D03*
X123170000Y-101950000D03*
X114570000Y-101650000D03*
X123170000Y-101350000D03*
X114570000Y-101050000D03*
X123170000Y-100750000D03*
X114570000Y-100450000D03*
X123170000Y-100150000D03*
X114570000Y-99850000D03*
X123170000Y-99550000D03*
X114570000Y-99250000D03*
X123170000Y-98950000D03*
X114570000Y-98650000D03*
X123170000Y-98350000D03*
X114570000Y-98050000D03*
X123170000Y-97750000D03*
X114570000Y-97450000D03*
X123170000Y-97150000D03*
X114570000Y-96850000D03*
X123170000Y-96550000D03*
X114570000Y-96250000D03*
X123170000Y-95950000D03*
X114570000Y-95650000D03*
X123170000Y-95350000D03*
X114570000Y-95050000D03*
X123170000Y-94750000D03*
X114570000Y-94450000D03*
X123170000Y-94150000D03*
X114570000Y-93850000D03*
X123170000Y-93550000D03*
X114570000Y-93250000D03*
X123170000Y-92950000D03*
X114570000Y-92650000D03*
X123170000Y-92350000D03*
X114570000Y-92050000D03*
X123170000Y-91750000D03*
X114570000Y-91450000D03*
X123170000Y-91150000D03*
X114570000Y-90850000D03*
X123170000Y-90550000D03*
X114570000Y-90250000D03*
X123170000Y-89950000D03*
X114570000Y-89650000D03*
X123170000Y-89350000D03*
X114570000Y-89050000D03*
X123170000Y-88750000D03*
X114570000Y-88450000D03*
X123170000Y-88150000D03*
X114570000Y-87850000D03*
X123170000Y-87550000D03*
X114570000Y-87250000D03*
X123170000Y-86950000D03*
X114570000Y-86650000D03*
X123170000Y-86350000D03*
X114570000Y-86050000D03*
X123170000Y-85750000D03*
X114570000Y-85450000D03*
X123170000Y-85150000D03*
X114570000Y-84850000D03*
X123170000Y-84550000D03*
X114570000Y-84250000D03*
X123170000Y-83950000D03*
X114570000Y-83650000D03*
X123170000Y-83350000D03*
X114570000Y-83050000D03*
X123170000Y-82750000D03*
X114570000Y-82450000D03*
X123170000Y-82150000D03*
X114570000Y-81850000D03*
X123170000Y-81550000D03*
X114570000Y-81250000D03*
X123170000Y-80950000D03*
X114570000Y-80650000D03*
X123170000Y-80350000D03*
X114570000Y-80050000D03*
X123170000Y-79750000D03*
X114570000Y-79450000D03*
X123170000Y-79150000D03*
X114570000Y-78850000D03*
X123170000Y-78550000D03*
X114570000Y-78250000D03*
X123170000Y-77950000D03*
X114570000Y-77650000D03*
X123170000Y-77350000D03*
X114570000Y-77050000D03*
X123170000Y-76750000D03*
X114570000Y-76450000D03*
X123170000Y-76150000D03*
X114570000Y-75850000D03*
X123170000Y-75550000D03*
X114570000Y-75250000D03*
X123170000Y-74950000D03*
X114570000Y-74650000D03*
X123170000Y-74350000D03*
X114570000Y-74050000D03*
X123170000Y-73750000D03*
X114570000Y-73450000D03*
X123170000Y-73150000D03*
X114570000Y-72850000D03*
X123170000Y-72550000D03*
X114570000Y-72250000D03*
X123170000Y-71950000D03*
X114570000Y-71650000D03*
X123170000Y-71350000D03*
X114570000Y-71050000D03*
X123170000Y-70750000D03*
X114570000Y-70450000D03*
X123170000Y-70150000D03*
X114570000Y-69850000D03*
X123170000Y-69550000D03*
X114570000Y-69250000D03*
X123170000Y-68950000D03*
X114570000Y-68650000D03*
X123170000Y-68350000D03*
X114570000Y-68050000D03*
X123170000Y-67750000D03*
X114570000Y-67450000D03*
X123170000Y-67150000D03*
X114570000Y-66850000D03*
X123170000Y-66550000D03*
X114570000Y-66250000D03*
X123170000Y-65950000D03*
X114570000Y-65650000D03*
X123170000Y-61750000D03*
X114570000Y-61450000D03*
X123170000Y-61150000D03*
X114570000Y-60850000D03*
X123170000Y-60550000D03*
X114570000Y-60250000D03*
X123170000Y-59950000D03*
X114570000Y-59650000D03*
X123170000Y-59350000D03*
X114570000Y-59050000D03*
X123170000Y-58750000D03*
X114570000Y-58450000D03*
X123170000Y-58150000D03*
X114570000Y-57850000D03*
X123170000Y-57550000D03*
X114570000Y-57250000D03*
X123170000Y-56950000D03*
X114570000Y-56650000D03*
X123170000Y-56350000D03*
X114570000Y-56050000D03*
X123170000Y-55750000D03*
X114570000Y-55450000D03*
X123170000Y-55150000D03*
X114570000Y-54850000D03*
X123170000Y-54550000D03*
X114570000Y-54250000D03*
X123170000Y-53950000D03*
X114570000Y-53650000D03*
X123170000Y-53350000D03*
X114570000Y-53050000D03*
X123170000Y-52750000D03*
X114570000Y-52450000D03*
X123170000Y-52150000D03*
X114570000Y-51850000D03*
X123170000Y-51550000D03*
X114570000Y-51250000D03*
X123170000Y-50950000D03*
X114570000Y-50650000D03*
X123170000Y-50350000D03*
X114570000Y-50050000D03*
%TD*%
D13*
%TO.C,RJ2*%
X143066200Y-41006800D03*
D14*
X141786200Y-38466800D03*
X140416200Y-41006800D03*
X139246200Y-38466800D03*
X137876200Y-41006800D03*
X136706200Y-38466800D03*
X135336200Y-41006800D03*
X134166200Y-38466800D03*
D15*
X145236200Y-35166800D03*
X129236200Y-35166800D03*
D16*
X130636200Y-27166800D03*
X133176200Y-27166800D03*
X143836200Y-27166800D03*
X141296200Y-27166800D03*
D14*
X132796200Y-41006800D03*
X131626200Y-38466800D03*
D17*
X131536200Y-32116800D03*
X142936200Y-32116800D03*
%TD*%
D13*
%TO.C,RJ1*%
X113068800Y-41006800D03*
D14*
X111788800Y-38466800D03*
X110418800Y-41006800D03*
X109248800Y-38466800D03*
X107878800Y-41006800D03*
X106708800Y-38466800D03*
X105338800Y-41006800D03*
X104168800Y-38466800D03*
D15*
X115238800Y-35166800D03*
X99238800Y-35166800D03*
D16*
X100638800Y-27166800D03*
X103178800Y-27166800D03*
X113838800Y-27166800D03*
X111298800Y-27166800D03*
D14*
X102798800Y-41006800D03*
X101628800Y-38466800D03*
D17*
X101538800Y-32116800D03*
X112938800Y-32116800D03*
%TD*%
D18*
%TO.C,R5*%
X96533200Y-27203400D03*
X98183200Y-27203400D03*
%TD*%
%TO.C,R4*%
X126429000Y-27178000D03*
X128079000Y-27178000D03*
%TD*%
D19*
%TO.C,R3*%
X118681000Y-27127200D03*
X117031000Y-27127200D03*
%TD*%
%TO.C,R2*%
X148602200Y-27203400D03*
X146952200Y-27203400D03*
%TD*%
D20*
%TO.C,J1*%
X95250000Y-42164000D03*
D21*
X97790000Y-42164000D03*
X95250000Y-44704000D03*
X97790000Y-44704000D03*
X95250000Y-47244000D03*
X97790000Y-47244000D03*
X95250000Y-49784000D03*
X97790000Y-49784000D03*
X95250000Y-52324000D03*
X97790000Y-52324000D03*
X95250000Y-54864000D03*
X97790000Y-54864000D03*
X95250000Y-57404000D03*
X97790000Y-57404000D03*
X95250000Y-59944000D03*
X97790000Y-59944000D03*
X95250000Y-62484000D03*
X97790000Y-62484000D03*
X95250000Y-65024000D03*
X97790000Y-65024000D03*
X95250000Y-67564000D03*
X97790000Y-67564000D03*
X95250000Y-70104000D03*
X97790000Y-70104000D03*
X95250000Y-72644000D03*
X97790000Y-72644000D03*
X95250000Y-75184000D03*
X97790000Y-75184000D03*
X95250000Y-77724000D03*
X97790000Y-77724000D03*
X95250000Y-80264000D03*
X97790000Y-80264000D03*
X95250000Y-82804000D03*
X97790000Y-82804000D03*
X95250000Y-85344000D03*
X97790000Y-85344000D03*
X95250000Y-87884000D03*
X97790000Y-87884000D03*
X95250000Y-90424000D03*
X97790000Y-90424000D03*
X95250000Y-92964000D03*
X97790000Y-92964000D03*
X95250000Y-95504000D03*
X97790000Y-95504000D03*
X95250000Y-98044000D03*
X97790000Y-98044000D03*
X95250000Y-100584000D03*
X97790000Y-100584000D03*
X95250000Y-103124000D03*
X97790000Y-103124000D03*
X95250000Y-105664000D03*
X97790000Y-105664000D03*
X95250000Y-108204000D03*
X97790000Y-108204000D03*
X95250000Y-110744000D03*
X97790000Y-110744000D03*
X95250000Y-113284000D03*
X97790000Y-113284000D03*
X95250000Y-115824000D03*
X97790000Y-115824000D03*
X95250000Y-118364000D03*
X97790000Y-118364000D03*
X95250000Y-120904000D03*
X97790000Y-120904000D03*
%TD*%
D22*
%TO.C,C1*%
X148367000Y-124907000D03*
X149917000Y-124907000D03*
%TD*%
D23*
%TO.C,C4*%
X111943400Y-114376400D03*
X110393400Y-114376400D03*
%TD*%
D24*
%TO.C,C3*%
X105308400Y-112486400D03*
X105308400Y-114386400D03*
%TD*%
D23*
%TO.C,C6*%
X148031800Y-41021000D03*
X146481800Y-41021000D03*
%TD*%
D25*
%TO.C,C2*%
X156442000Y-124877000D03*
X154542000Y-124877000D03*
%TD*%
D26*
%TO.C,U1*%
X148322000Y-122657000D03*
X150622000Y-122657000D03*
X152922000Y-122657000D03*
D27*
X150622000Y-116717000D03*
%TD*%
D20*
%TO.C,J4*%
X157403800Y-30581600D03*
D21*
X157403800Y-33121600D03*
X157403800Y-35661600D03*
X157403800Y-38201600D03*
%TD*%
D20*
%TO.C,J2*%
X156210000Y-42164000D03*
D21*
X158750000Y-42164000D03*
X156210000Y-44704000D03*
X158750000Y-44704000D03*
X156210000Y-47244000D03*
X158750000Y-47244000D03*
X156210000Y-49784000D03*
X158750000Y-49784000D03*
X156210000Y-52324000D03*
X158750000Y-52324000D03*
X156210000Y-54864000D03*
X158750000Y-54864000D03*
X156210000Y-57404000D03*
X158750000Y-57404000D03*
X156210000Y-59944000D03*
X158750000Y-59944000D03*
X156210000Y-62484000D03*
X158750000Y-62484000D03*
X156210000Y-65024000D03*
X158750000Y-65024000D03*
X156210000Y-67564000D03*
X158750000Y-67564000D03*
X156210000Y-70104000D03*
X158750000Y-70104000D03*
X156210000Y-72644000D03*
X158750000Y-72644000D03*
X156210000Y-75184000D03*
X158750000Y-75184000D03*
X156210000Y-77724000D03*
X158750000Y-77724000D03*
X156210000Y-80264000D03*
X158750000Y-80264000D03*
X156210000Y-82804000D03*
X158750000Y-82804000D03*
X156210000Y-85344000D03*
X158750000Y-85344000D03*
X156210000Y-87884000D03*
X158750000Y-87884000D03*
X156210000Y-90424000D03*
X158750000Y-90424000D03*
X156210000Y-92964000D03*
X158750000Y-92964000D03*
X156210000Y-95504000D03*
X158750000Y-95504000D03*
X156210000Y-98044000D03*
X158750000Y-98044000D03*
X156210000Y-100584000D03*
X158750000Y-100584000D03*
X156210000Y-103124000D03*
X158750000Y-103124000D03*
X156210000Y-105664000D03*
X158750000Y-105664000D03*
X156210000Y-108204000D03*
X158750000Y-108204000D03*
X156210000Y-110744000D03*
X158750000Y-110744000D03*
X156210000Y-113284000D03*
X158750000Y-113284000D03*
X156210000Y-115824000D03*
X158750000Y-115824000D03*
X156210000Y-118364000D03*
X158750000Y-118364000D03*
X156210000Y-120904000D03*
X158750000Y-120904000D03*
%TD*%
D23*
%TO.C,C7*%
X118199200Y-39674800D03*
X116649200Y-39674800D03*
%TD*%
D24*
%TO.C,C5*%
X108568400Y-112506400D03*
X108568400Y-114406400D03*
%TD*%
D28*
%TO.C,J3*%
X110819000Y-121200000D03*
X105019000Y-121200000D03*
D29*
X104569000Y-119940000D03*
X105369000Y-119940000D03*
X106669000Y-119940000D03*
X107669000Y-119940000D03*
X108169000Y-119940000D03*
X109169000Y-119940000D03*
X110469000Y-119940000D03*
X111269000Y-119940000D03*
X110969000Y-119940000D03*
X110169000Y-119940000D03*
X109669000Y-119940000D03*
X108669000Y-119940000D03*
X107169000Y-119940000D03*
X106169000Y-119940000D03*
X105669000Y-119940000D03*
X104869000Y-119940000D03*
D30*
X112249000Y-120700000D03*
D31*
X112249000Y-124900000D03*
X103589000Y-124900000D03*
D30*
X103589000Y-120700000D03*
%TD*%
D19*
%TO.C,R1*%
X102904000Y-118610000D03*
X101254000Y-118610000D03*
%TD*%
D32*
%TO.C,FB1*%
X102124000Y-116514000D03*
X105274000Y-116514000D03*
%TD*%
D33*
%TO.C,F1*%
X107399000Y-116374000D03*
X110299000Y-116374000D03*
%TD*%
M02*
