M48
; DRILL file {KiCad 6.0.4-6f826c9f35~116~ubuntu20.04.1} date Sel 26 Apr 2022 12:05:36 
; FORMAT={-:-/ absolute / inch / decimal}
; #@! TF.CreationDate,2022-04-26T12:05:36+07:00
; #@! TF.GenerationSoftware,Kicad,Pcbnew,6.0.4-6f826c9f35~116~ubuntu20.04.1
; #@! TF.FileFunction,Plated,1,4,PTH
FMAT,2
INCH
; #@! TA.AperFunction,Plated,PTH,ViaDrill
T1C0.0079
; #@! TA.AperFunction,Plated,PTH,ComponentDrill
T2C0.0295
; #@! TA.AperFunction,Plated,PTH,ComponentDrill
T3C0.0315
; #@! TA.AperFunction,Plated,PTH,ViaDrill
T4C0.0315
; #@! TA.AperFunction,Plated,PTH,ComponentDrill
T5C0.0358
; #@! TA.AperFunction,Plated,PTH,ComponentDrill
T6C0.0394
; #@! TA.AperFunction,Plated,PTH,ComponentDrill
T7C0.0413
; #@! TA.AperFunction,Plated,PTH,ComponentDrill
T8C0.0433
; #@! TA.AperFunction,Plated,PTH,ComponentDrill
T9C0.0571
; #@! TA.AperFunction,Plated,PTH,ViaDrill
T10C0.0630
; #@! TA.AperFunction,Plated,PTH,ComponentDrill
T11C0.0650
; #@! TA.AperFunction,Plated,PTH,ComponentDrill
T12C0.1280
%
G90
G05
T1
X3.999Y-1.982
X4.002Y-1.885
X4.047Y-1.676
X4.053Y-2.081
X4.055Y-1.821
X4.072Y-1.563
X4.0902Y-1.685
X4.1178Y-1.685
X4.153Y-1.55
X4.162Y-1.676
X4.179Y-2.2
X4.19Y-4.343
X4.249Y-4.265
X4.252Y-1.552
X4.2785Y-1.682
X4.3061Y-1.682
X4.312Y-4.185
X4.329Y-1.704
X4.329Y-2.069
X4.335Y-1.889
X4.338Y-2.348
X4.35Y-1.553
X4.37Y-1.972
X4.373Y-4.105
X4.38Y-2.454
X4.405Y-1.888
X4.43Y-4.023
X4.439Y-1.706
X4.444Y-2.408
X4.462Y-2.101
X4.463Y-1.958
X4.474Y-2.546
X4.529Y-1.847
X4.605Y-2.089
X4.605Y-2.113
X4.605Y-2.184
X4.605Y-2.255
X4.605Y-2.326
X4.605Y-2.396
X4.605Y-2.42
X4.606Y-2.022
X4.617Y-1.925
X4.72Y-2.102
X4.72Y-2.126
X4.72Y-2.196
X4.72Y-2.267
X4.72Y-2.338
X4.72Y-2.409
X4.72Y-2.433
X4.877Y-2.564
X4.9017Y-2.0306
X4.902Y-1.9835
X4.902Y-2.0069
X4.9026Y-2.0542
X4.9026Y-2.0778
X4.9026Y-2.1015
X4.911Y-4.009
X4.911Y-4.136
X4.911Y-4.262
X4.911Y-4.403
X4.912Y-2.415
X4.968Y-2.36
X4.968Y-2.3876
X5.04Y-4.07
X5.062Y-2.346
X5.063Y-2.482
X5.111Y-2.2892
X5.111Y-2.3167
X5.145Y-4.127
X5.155Y-2.117
X5.196Y-1.737
X5.214Y-1.672
X5.221Y-1.912
X5.222Y-2.048
X5.224Y-1.807
X5.232Y-1.551
X5.249Y-4.18
X5.252Y-2.271
X5.258Y-2.38
X5.331Y-1.552
X5.335Y-2.196
X5.344Y-1.136
X5.3562Y-1.681
X5.3838Y-1.681
X5.384Y-4.255
X5.4013Y-2.1913
X5.405Y-1.068
X5.418Y-1.921
X5.4207Y-2.2107
X5.421Y-1.79
X5.425Y-2.046
X5.426Y-1.682
X5.452Y-2.281
X5.4926Y-1.5704
X5.521Y-4.323
X5.526Y-2.084
X5.529Y-1.95
X5.53Y-1.788
X5.532Y-1.678
X5.57Y-2.217
X5.5822Y-1.6945
X5.6098Y-1.6945
X5.622Y-4.368
X5.623Y-1.995
X5.644Y-1.925
X5.648Y-1.834
X5.682Y-2.138
X5.723Y-4.42
X5.877Y-2.053
X5.919Y-4.521
X5.992Y-2.001
X6.086Y-1.954
X6.195Y-1.129
T2
X4.1346Y-4.7717
X4.363Y-4.7717
T4
X3.9628Y-4.5872
X4.108Y-4.661
X4.108Y-4.661
X4.108Y-4.661
X4.4079Y-4.445
X4.6642Y-3.9558
X4.672Y-3.362
X4.674Y-2.758
X6.2308Y-4.9192
T5
X4.0011Y-1.5144
X4.0472Y-1.6144
X4.1011Y-1.5144
X4.1472Y-1.6144
X4.2011Y-1.5144
X4.2472Y-1.6144
X4.3011Y-1.5144
X4.3472Y-1.6144
X4.4011Y-1.5144
X4.4515Y-1.6144
X5.1821Y-1.5144
X5.2282Y-1.6144
X5.2821Y-1.5144
X5.3282Y-1.6144
X5.3821Y-1.5144
X5.4282Y-1.6144
X5.4821Y-1.5144
X5.5282Y-1.6144
X5.5821Y-1.5144
X5.6325Y-1.6144
T6
X3.75Y-1.66
X3.75Y-1.76
X3.75Y-1.86
X3.75Y-1.96
X3.75Y-2.06
X3.75Y-2.16
X3.75Y-2.26
X3.75Y-2.36
X3.75Y-2.46
X3.75Y-2.56
X3.75Y-2.66
X3.75Y-2.76
X3.75Y-2.86
X3.75Y-2.96
X3.75Y-3.06
X3.75Y-3.16
X3.75Y-3.26
X3.75Y-3.36
X3.75Y-3.46
X3.75Y-3.56
X3.75Y-3.66
X3.75Y-3.76
X3.75Y-3.86
X3.75Y-3.96
X3.75Y-4.06
X3.75Y-4.16
X3.75Y-4.26
X3.75Y-4.36
X3.75Y-4.46
X3.75Y-4.56
X3.75Y-4.66
X3.75Y-4.76
X3.85Y-1.66
X3.85Y-1.76
X3.85Y-1.86
X3.85Y-1.96
X3.85Y-2.06
X3.85Y-2.16
X3.85Y-2.26
X3.85Y-2.36
X3.85Y-2.46
X3.85Y-2.56
X3.85Y-2.66
X3.85Y-2.76
X3.85Y-2.86
X3.85Y-2.96
X3.85Y-3.06
X3.85Y-3.16
X3.85Y-3.26
X3.85Y-3.36
X3.85Y-3.46
X3.85Y-3.56
X3.85Y-3.66
X3.85Y-3.76
X3.85Y-3.86
X3.85Y-3.96
X3.85Y-4.06
X3.85Y-4.16
X3.85Y-4.26
X3.85Y-4.36
X3.85Y-4.46
X3.85Y-4.56
X3.85Y-4.66
X3.85Y-4.76
X4.926Y-1.602
X6.15Y-1.66
X6.15Y-1.76
X6.15Y-1.86
X6.15Y-1.96
X6.15Y-2.06
X6.15Y-2.16
X6.15Y-2.26
X6.15Y-2.36
X6.15Y-2.46
X6.15Y-2.56
X6.15Y-2.66
X6.15Y-2.76
X6.15Y-2.86
X6.15Y-2.96
X6.15Y-3.06
X6.15Y-3.16
X6.15Y-3.26
X6.15Y-3.36
X6.15Y-3.46
X6.15Y-3.56
X6.15Y-3.66
X6.15Y-3.76
X6.15Y-3.86
X6.15Y-3.96
X6.15Y-4.06
X6.15Y-4.16
X6.15Y-4.26
X6.15Y-4.36
X6.15Y-4.46
X6.15Y-4.56
X6.15Y-4.66
X6.15Y-4.76
X6.197Y-1.204
X6.197Y-1.304
X6.197Y-1.404
X6.197Y-1.504
X6.25Y-1.66
X6.25Y-1.76
X6.25Y-1.86
X6.25Y-1.96
X6.25Y-2.06
X6.25Y-2.16
X6.25Y-2.26
X6.25Y-2.36
X6.25Y-2.46
X6.25Y-2.56
X6.25Y-2.66
X6.25Y-2.76
X6.25Y-2.86
X6.25Y-2.96
X6.25Y-3.06
X6.25Y-3.16
X6.25Y-3.26
X6.25Y-3.36
X6.25Y-3.46
X6.25Y-3.56
X6.25Y-3.66
X6.25Y-3.76
X6.25Y-3.86
X6.25Y-3.96
X6.25Y-4.06
X6.25Y-4.16
X6.25Y-4.26
X6.25Y-4.36
X6.25Y-4.46
X6.25Y-4.56
X6.25Y-4.66
X6.25Y-4.76
T7
X4.6661Y-1.7104
T8
X3.9622Y-1.0696
X4.0622Y-1.0696
X4.3818Y-1.0696
X4.4818Y-1.0696
X5.1432Y-1.0696
X5.2432Y-1.0696
X5.5628Y-1.0696
X5.6628Y-1.0696
T9
X4.6661Y-4.7262
T10
X5.7918Y-4.5806
T11
X3.907Y-1.3845
X4.537Y-1.3845
X5.088Y-1.3845
X5.718Y-1.3845
T12
X3.9976Y-1.2644
X4.4464Y-1.2644
X5.1786Y-1.2644
X5.6274Y-1.2644
T3
G00X4.0783Y-4.7362
M15
G01X4.0783Y-4.7677
M16
G05
G00X4.0783Y-4.9055
M15
G01X4.0783Y-4.9291
M16
G05
G00X4.4193Y-4.7362
M15
G01X4.4193Y-4.7677
M16
G05
G00X4.4193Y-4.9055
M15
G01X4.4193Y-4.9291
M16
G05
T0
M30
