%TF.GenerationSoftware,KiCad,Pcbnew,6.0.4-6f826c9f35~116~ubuntu20.04.1*%
%TF.CreationDate,2022-04-28T12:52:08+07:00*%
%TF.ProjectId,Colorlight2QMTech,436f6c6f-726c-4696-9768-7432514d5465,rev?*%
%TF.SameCoordinates,Original*%
%TF.FileFunction,Copper,L3,Inr*%
%TF.FilePolarity,Positive*%
%FSLAX46Y46*%
G04 Gerber Fmt 4.6, Leading zero omitted, Abs format (unit mm)*
G04 Created by KiCad (PCBNEW 6.0.4-6f826c9f35~116~ubuntu20.04.1) date 2022-04-28 12:52:08*
%MOMM*%
%LPD*%
G01*
G04 APERTURE LIST*
%TA.AperFunction,ComponentPad*%
%ADD10R,1.700000X1.700000*%
%TD*%
%TA.AperFunction,ComponentPad*%
%ADD11O,1.700000X1.700000*%
%TD*%
%TA.AperFunction,ComponentPad*%
%ADD12C,1.050000*%
%TD*%
%TA.AperFunction,ComponentPad*%
%ADD13C,1.450000*%
%TD*%
%TA.AperFunction,ComponentPad*%
%ADD14C,3.250000*%
%TD*%
%TA.AperFunction,ComponentPad*%
%ADD15C,1.700000*%
%TD*%
%TA.AperFunction,ComponentPad*%
%ADD16R,1.520000X1.520000*%
%TD*%
%TA.AperFunction,ComponentPad*%
%ADD17C,1.520000*%
%TD*%
%TA.AperFunction,ComponentPad*%
%ADD18C,2.160000*%
%TD*%
%TA.AperFunction,ComponentPad*%
%ADD19C,0.750000*%
%TD*%
%TA.AperFunction,ComponentPad*%
%ADD20O,1.200000X2.000000*%
%TD*%
%TA.AperFunction,ComponentPad*%
%ADD21O,1.200000X1.800000*%
%TD*%
%TA.AperFunction,ViaPad*%
%ADD22C,0.950000*%
%TD*%
%TA.AperFunction,ViaPad*%
%ADD23C,0.450000*%
%TD*%
%TA.AperFunction,ViaPad*%
%ADD24C,1.900000*%
%TD*%
%TA.AperFunction,Conductor*%
%ADD25C,2.000000*%
%TD*%
%TA.AperFunction,Conductor*%
%ADD26C,1.000000*%
%TD*%
%TA.AperFunction,Conductor*%
%ADD27C,0.300000*%
%TD*%
G04 APERTURE END LIST*
D10*
%TO.N,GND*%
%TO.C,J1*%
X95250000Y-42164000D03*
D11*
X97790000Y-42164000D03*
%TO.N,+3V3*%
X95250000Y-44704000D03*
X97790000Y-44704000D03*
%TO.N,GND*%
X95250000Y-47244000D03*
X97790000Y-47244000D03*
%TO.N,/U16*%
X95250000Y-49784000D03*
%TO.N,/R1*%
X97790000Y-49784000D03*
%TO.N,/C18*%
X95250000Y-52324000D03*
%TO.N,/K18*%
X97790000Y-52324000D03*
%TO.N,/R18*%
X95250000Y-54864000D03*
%TO.N,/T18*%
X97790000Y-54864000D03*
%TO.N,/P17*%
X95250000Y-57404000D03*
%TO.N,/R17*%
X97790000Y-57404000D03*
%TO.N,/T17*%
X95250000Y-59944000D03*
%TO.N,/M17*%
X97790000Y-59944000D03*
%TO.N,/U17*%
X95250000Y-62484000D03*
%TO.N,/U18*%
X97790000Y-62484000D03*
%TO.N,/N17*%
X95250000Y-65024000D03*
%TO.N,/P18*%
X97790000Y-65024000D03*
%TO.N,/M18*%
X95250000Y-67564000D03*
%TO.N,/N18*%
X97790000Y-67564000D03*
%TO.N,/L18*%
X95250000Y-70104000D03*
%TO.N,/L20*%
X97790000Y-70104000D03*
%TO.N,/K19*%
X95250000Y-72644000D03*
%TO.N,/K20*%
X97790000Y-72644000D03*
%TO.N,/J19*%
X95250000Y-75184000D03*
%TO.N,/J20*%
X97790000Y-75184000D03*
%TO.N,/G20*%
X95250000Y-77724000D03*
%TO.N,/H20*%
X97790000Y-77724000D03*
%TO.N,/F20*%
X95250000Y-80264000D03*
%TO.N,/G19*%
X97790000Y-80264000D03*
%TO.N,/E20*%
X95250000Y-82804000D03*
%TO.N,/F19*%
X97790000Y-82804000D03*
%TO.N,/D20*%
X95250000Y-85344000D03*
%TO.N,/E19*%
X97790000Y-85344000D03*
%TO.N,/C20*%
X95250000Y-87884000D03*
%TO.N,/D19*%
X97790000Y-87884000D03*
%TO.N,/B19*%
X95250000Y-90424000D03*
%TO.N,/B20*%
X97790000Y-90424000D03*
%TO.N,/A19*%
X95250000Y-92964000D03*
%TO.N,/B18*%
X97790000Y-92964000D03*
%TO.N,/A18*%
X95250000Y-95504000D03*
%TO.N,/C17*%
X97790000Y-95504000D03*
%TO.N,/C4*%
X95250000Y-98044000D03*
%TO.N,/D3*%
X97790000Y-98044000D03*
%TO.N,/C3*%
X95250000Y-100584000D03*
%TO.N,/B4*%
X97790000Y-100584000D03*
%TO.N,/A3*%
X95250000Y-103124000D03*
%TO.N,/E3*%
X97790000Y-103124000D03*
%TO.N,/B1*%
X95250000Y-105664000D03*
%TO.N,/C2*%
X97790000Y-105664000D03*
%TO.N,/D2*%
X95250000Y-108204000D03*
%TO.N,/C1*%
X97790000Y-108204000D03*
%TO.N,/E2*%
X95250000Y-110744000D03*
%TO.N,/D1*%
X97790000Y-110744000D03*
%TO.N,/F2*%
X95250000Y-113284000D03*
%TO.N,/E1*%
X97790000Y-113284000D03*
%TO.N,unconnected-(J1-Pad59)*%
X95250000Y-115824000D03*
%TO.N,unconnected-(J1-Pad60)*%
X97790000Y-115824000D03*
%TO.N,GND*%
X95250000Y-118364000D03*
X97790000Y-118364000D03*
%TO.N,+5V*%
X95250000Y-120904000D03*
X97790000Y-120904000D03*
%TD*%
D12*
%TO.N,*%
%TO.C,CN1*%
X118518400Y-43444800D03*
D13*
X118518400Y-120044800D03*
%TD*%
D14*
%TO.N,*%
%TO.C,RJ2*%
X142936200Y-32116800D03*
X131536200Y-32116800D03*
D15*
%TO.N,Net-(RJ2-Pad11)*%
X143836200Y-27166800D03*
%TO.N,GND*%
X141296200Y-27166800D03*
X133176200Y-27166800D03*
%TO.N,Net-(RJ2-Pad14)*%
X130636200Y-27166800D03*
D16*
%TO.N,Net-(RJ2-PadP1)*%
X143066200Y-41006800D03*
D17*
%TO.N,/eth2_1+*%
X141786200Y-38466800D03*
%TO.N,/eth2_1-*%
X140416200Y-41006800D03*
%TO.N,/eth2_2+*%
X139246200Y-38466800D03*
%TO.N,/eth2_3+*%
X137876200Y-41006800D03*
%TO.N,/eth2_3-*%
X136706200Y-38466800D03*
%TO.N,/eth2_2-*%
X135336200Y-41006800D03*
%TO.N,/eth2_4+*%
X134166200Y-38466800D03*
%TO.N,/eth2_4-*%
X132796200Y-41006800D03*
%TO.N,unconnected-(RJ2-PadP10)*%
X131626200Y-38466800D03*
D18*
%TO.N,GND*%
X129236200Y-35166800D03*
X145236200Y-35166800D03*
%TD*%
D10*
%TO.N,/LED_G_1*%
%TO.C,J4*%
X157403800Y-30581600D03*
D11*
%TO.N,/LED_Y_1*%
X157403800Y-33121600D03*
%TO.N,/LED_G_2*%
X157403800Y-35661600D03*
%TO.N,/LED_Y_2*%
X157403800Y-38201600D03*
%TD*%
D10*
%TO.N,GND*%
%TO.C,J2*%
X156210000Y-42164000D03*
D11*
X158750000Y-42164000D03*
%TO.N,+3V3*%
X156210000Y-44704000D03*
X158750000Y-44704000D03*
%TO.N,GND*%
X156210000Y-47244000D03*
X158750000Y-47244000D03*
%TO.N,/T1*%
X156210000Y-49784000D03*
%TO.N,/U1*%
X158750000Y-49784000D03*
%TO.N,/Y2*%
X156210000Y-52324000D03*
%TO.N,/W1*%
X158750000Y-52324000D03*
%TO.N,/V1*%
X156210000Y-54864000D03*
%TO.N,/M1*%
X158750000Y-54864000D03*
%TO.N,/N2*%
X156210000Y-57404000D03*
%TO.N,/N3*%
X158750000Y-57404000D03*
%TO.N,/T2*%
X156210000Y-59944000D03*
%TO.N,/M3*%
X158750000Y-59944000D03*
%TO.N,/T3*%
X156210000Y-62484000D03*
%TO.N,/R3*%
X158750000Y-62484000D03*
%TO.N,/N4*%
X156210000Y-65024000D03*
%TO.N,/M4*%
X158750000Y-65024000D03*
%TO.N,/L4*%
X156210000Y-67564000D03*
%TO.N,/L5*%
X158750000Y-67564000D03*
%TO.N,/P16*%
X156210000Y-70104000D03*
%TO.N,/J16*%
X158750000Y-70104000D03*
%TO.N,/J18*%
X156210000Y-72644000D03*
%TO.N,/J17*%
X158750000Y-72644000D03*
%TO.N,/H18*%
X156210000Y-75184000D03*
%TO.N,/H17*%
X158750000Y-75184000D03*
%TO.N,/G18*%
X156210000Y-77724000D03*
%TO.N,/H16*%
X158750000Y-77724000D03*
%TO.N,/F18*%
X156210000Y-80264000D03*
%TO.N,/G16*%
X158750000Y-80264000D03*
%TO.N,/E18*%
X156210000Y-82804000D03*
%TO.N,/F17*%
X158750000Y-82804000D03*
%TO.N,/F16*%
X156210000Y-85344000D03*
%TO.N,/E16*%
X158750000Y-85344000D03*
%TO.N,/E17*%
X156210000Y-87884000D03*
%TO.N,/D18*%
X158750000Y-87884000D03*
%TO.N,/D17*%
X156210000Y-90424000D03*
%TO.N,/G5*%
X158750000Y-90424000D03*
%TO.N,/D16*%
X156210000Y-92964000D03*
%TO.N,/F5*%
X158750000Y-92964000D03*
%TO.N,/E6*%
X156210000Y-95504000D03*
%TO.N,/E5*%
X158750000Y-95504000D03*
%TO.N,/F4*%
X156210000Y-98044000D03*
%TO.N,/E4*%
X158750000Y-98044000D03*
%TO.N,/F1*%
X156210000Y-100584000D03*
%TO.N,/F3*%
X158750000Y-100584000D03*
%TO.N,/G3*%
X156210000Y-103124000D03*
%TO.N,/H3*%
X158750000Y-103124000D03*
%TO.N,/H4*%
X156210000Y-105664000D03*
%TO.N,/H5*%
X158750000Y-105664000D03*
%TO.N,/J4*%
X156210000Y-108204000D03*
%TO.N,/J5*%
X158750000Y-108204000D03*
%TO.N,/K3*%
X156210000Y-110744000D03*
%TO.N,/K4*%
X158750000Y-110744000D03*
%TO.N,/K5*%
X156210000Y-113284000D03*
%TO.N,/B3*%
X158750000Y-113284000D03*
%TO.N,/A2*%
X156210000Y-115824000D03*
%TO.N,/B2*%
X158750000Y-115824000D03*
%TO.N,GND*%
X156210000Y-118364000D03*
X158750000Y-118364000D03*
%TO.N,+5V*%
X156210000Y-120904000D03*
X158750000Y-120904000D03*
%TD*%
D14*
%TO.N,*%
%TO.C,RJ1*%
X112938800Y-32116800D03*
X101538800Y-32116800D03*
D15*
%TO.N,Net-(RJ1-Pad11)*%
X113838800Y-27166800D03*
%TO.N,GND*%
X111298800Y-27166800D03*
X103178800Y-27166800D03*
%TO.N,Net-(RJ1-Pad14)*%
X100638800Y-27166800D03*
D16*
%TO.N,Net-(RJ1-PadP1)*%
X113068800Y-41006800D03*
D17*
%TO.N,/eth1_1+*%
X111788800Y-38466800D03*
%TO.N,/eth1_1-*%
X110418800Y-41006800D03*
%TO.N,/eth1_2+*%
X109248800Y-38466800D03*
%TO.N,/eth1_3+*%
X107878800Y-41006800D03*
%TO.N,/eth1_3-*%
X106708800Y-38466800D03*
%TO.N,/eth1_2-*%
X105338800Y-41006800D03*
%TO.N,/eth1_4+*%
X104168800Y-38466800D03*
%TO.N,/eth1_4-*%
X102798800Y-41006800D03*
%TO.N,unconnected-(RJ1-PadP10)*%
X101628800Y-38466800D03*
D18*
%TO.N,GND*%
X99238800Y-35166800D03*
X115238800Y-35166800D03*
%TD*%
D10*
%TO.N,GND*%
%TO.C,J4-GND1*%
X125120400Y-40690800D03*
%TD*%
D19*
%TO.N,*%
%TO.C,J3*%
X110819000Y-121200000D03*
X105019000Y-121200000D03*
D20*
%TO.N,Net-(J3-PadS1)*%
X112249000Y-120700000D03*
D21*
X112249000Y-124900000D03*
X103589000Y-124900000D03*
D20*
X103589000Y-120700000D03*
%TD*%
D22*
%TO.N,GND*%
X111961300Y-112903200D03*
D23*
X106426000Y-110312200D03*
X110998000Y-50088800D03*
X112877600Y-61163200D03*
X143357600Y-48895000D03*
X132892800Y-39395400D03*
X137287000Y-27127200D03*
X109524800Y-106299000D03*
X110109000Y-47980600D03*
X137795000Y-51968400D03*
X116967000Y-53670200D03*
X133324600Y-106172000D03*
X140233400Y-109804200D03*
X132689600Y-45897800D03*
X128016000Y-103378000D03*
X124739400Y-108254800D03*
X132435600Y-42468800D03*
X130683000Y-104825800D03*
X111074200Y-104267000D03*
X116967000Y-61468000D03*
X111252000Y-62331600D03*
X107924600Y-108331000D03*
X132613400Y-48564800D03*
X133400800Y-57683400D03*
X138480800Y-57937400D03*
X140436600Y-49530000D03*
X102793800Y-42570400D03*
X110185200Y-59639200D03*
X116967000Y-57277000D03*
D22*
X158262000Y-124948000D03*
D23*
X109956600Y-52552600D03*
X150342600Y-114833400D03*
X116992400Y-51358800D03*
D22*
X118668800Y-85394800D03*
D23*
X140512800Y-42621200D03*
X102946200Y-52857400D03*
D22*
X118470000Y-100478000D03*
D23*
X137617200Y-48793400D03*
X119888000Y-55778400D03*
X101574600Y-50342800D03*
X116967000Y-60858400D03*
X124764800Y-61341000D03*
X112522000Y-102184200D03*
X110490000Y-39446200D03*
X133553200Y-60452000D03*
X142798800Y-110947200D03*
X123875800Y-65125600D03*
X113334800Y-53365400D03*
X116967000Y-59080400D03*
X137693400Y-45466000D03*
D22*
X104343200Y-118389400D03*
D23*
X140360400Y-52933600D03*
X124739400Y-105054400D03*
X128574800Y-59588400D03*
X109956600Y-43281600D03*
D22*
X104343200Y-118389400D03*
D23*
X124739400Y-111836200D03*
X105486200Y-39370000D03*
X103428800Y-39700200D03*
X136753600Y-108077000D03*
X145364200Y-112268000D03*
X111887000Y-47955200D03*
X119888000Y-54000400D03*
X124739400Y-101828600D03*
X119888000Y-61188600D03*
X108000800Y-39420800D03*
X154584400Y-49631600D03*
X143459200Y-46583600D03*
X142824200Y-50673000D03*
X119888000Y-61798200D03*
X132638800Y-52019200D03*
X137820400Y-42722800D03*
X135407400Y-39420800D03*
X116967000Y-55473600D03*
X131978400Y-44119800D03*
X116967000Y-53060600D03*
X119888000Y-57581800D03*
X140462000Y-45415200D03*
X102997000Y-46253400D03*
X117271800Y-48895000D03*
X128600200Y-63042800D03*
X130937000Y-53771800D03*
X101650800Y-47879000D03*
X106146600Y-55880000D03*
X157353000Y-28676600D03*
X113360200Y-49733200D03*
D22*
X104343200Y-118389400D03*
X118719600Y-70053200D03*
D23*
X112750600Y-43332400D03*
X115036600Y-46913800D03*
X141478000Y-56311800D03*
X144322800Y-54305200D03*
X152196800Y-50825400D03*
X135509000Y-55778400D03*
X105714800Y-42570400D03*
X113639600Y-64668400D03*
X149275800Y-52146200D03*
X119888000Y-59385200D03*
D24*
%TO.N,+3V3*%
X147112000Y-116347000D03*
D23*
%TO.N,+5V*%
X124527000Y-52777000D03*
D22*
X100656000Y-116514000D03*
D23*
X119888000Y-53390800D03*
X124510000Y-50380000D03*
X124527000Y-52177000D03*
X124510000Y-50975000D03*
X124502000Y-51577000D03*
X124527000Y-53377000D03*
%TO.N,/eth2_1+*%
X141788400Y-43040600D03*
%TO.N,/eth2_1-*%
X142488400Y-43040600D03*
%TO.N,/eth1_2-*%
X109373800Y-42722800D03*
%TO.N,/eth2_2-*%
X137191912Y-55657912D03*
%TO.N,/eth1_2+*%
X108673800Y-42722800D03*
%TO.N,/eth2_2+*%
X137686888Y-56152888D03*
X139513056Y-39887772D03*
%TO.N,/eth2_3+*%
X136048000Y-42697400D03*
X129819400Y-58144800D03*
%TO.N,/eth2_3-*%
X136748000Y-42697400D03*
X129819400Y-58844800D03*
%TO.N,/eth1_4-*%
X104591600Y-42798729D03*
%TO.N,/eth2_4-*%
X126187113Y-59944800D03*
%TO.N,/eth1_4+*%
X103891600Y-42798729D03*
%TO.N,/eth2_4+*%
X126187113Y-60644800D03*
%TO.N,/LED_Y_2*%
X135737600Y-28854400D03*
%TD*%
D25*
%TO.N,+3V3*%
X148513800Y-43662600D02*
X150596600Y-43662600D01*
X144072072Y-29159200D02*
X139268200Y-29159200D01*
X98729800Y-44704000D02*
X97790000Y-44704000D01*
D26*
X97790000Y-44704000D02*
X95250000Y-44704000D01*
D25*
X147112000Y-45064400D02*
X148513800Y-43662600D01*
X147112000Y-65994000D02*
X146278600Y-66827400D01*
X147112000Y-65994000D02*
X147112000Y-45258000D01*
X100339849Y-29222279D02*
X96774000Y-32788128D01*
X96774000Y-32788128D02*
X96774000Y-38531800D01*
X147112000Y-116347000D02*
X147112000Y-65994000D01*
X100126800Y-40741600D02*
X100126800Y-43307000D01*
X133235279Y-29222279D02*
X100339849Y-29222279D01*
X96774000Y-38531800D02*
X98145600Y-39903400D01*
X147112000Y-45258000D02*
X147066000Y-45212000D01*
X147112000Y-45258000D02*
X147112000Y-45064400D01*
X100126800Y-43307000D02*
X98729800Y-44704000D01*
X137185400Y-31242000D02*
X135255000Y-31242000D01*
X154813000Y-44653200D02*
X158750000Y-44704000D01*
X99288600Y-39903400D02*
X100126800Y-40741600D01*
X150596600Y-43662600D02*
X153822400Y-43662600D01*
X150596600Y-43662600D02*
X150596600Y-35683728D01*
X98145600Y-39903400D02*
X99288600Y-39903400D01*
X153822400Y-43662600D02*
X154813000Y-44653200D01*
X150596600Y-35683728D02*
X144072072Y-29159200D01*
X139268200Y-29159200D02*
X137185400Y-31242000D01*
X135255000Y-31242000D02*
X133235279Y-29222279D01*
%TO.N,+5V*%
X102473721Y-122844521D02*
X121625321Y-122844521D01*
X158750000Y-120904000D02*
X153466800Y-120904000D01*
X124527000Y-50397000D02*
X124510000Y-50380000D01*
D27*
X119888000Y-53390800D02*
X124513200Y-53390800D01*
D25*
X100507800Y-120878600D02*
X95224600Y-120878600D01*
X100507800Y-120878600D02*
X102473721Y-122844521D01*
X121625321Y-56278679D02*
X124527000Y-53377000D01*
D27*
X124513200Y-53390800D02*
X124527000Y-53377000D01*
D25*
X121625321Y-122844521D02*
X151526279Y-122844521D01*
X124527000Y-53377000D02*
X124527000Y-50397000D01*
X121625321Y-122844521D02*
X121625321Y-56278679D01*
X151526279Y-122844521D02*
X153466800Y-120904000D01*
%TD*%
%TA.AperFunction,Conductor*%
%TO.N,GND*%
G36*
X159470551Y-122316974D02*
G01*
X159507309Y-122377714D01*
X159511500Y-122409939D01*
X159511500Y-125451100D01*
X159491498Y-125519221D01*
X159437842Y-125565714D01*
X159385500Y-125577100D01*
X113457792Y-125577100D01*
X113389671Y-125557098D01*
X113343178Y-125503442D01*
X113334128Y-125426950D01*
X113356357Y-125313121D01*
X113357228Y-125308663D01*
X113357500Y-125303101D01*
X113357500Y-124547154D01*
X113352141Y-124490988D01*
X113365582Y-124421276D01*
X113414579Y-124369897D01*
X113477571Y-124353021D01*
X121587509Y-124353021D01*
X121593224Y-124353151D01*
X121678138Y-124357007D01*
X121683158Y-124356426D01*
X121683162Y-124356426D01*
X121705371Y-124353856D01*
X121719853Y-124353021D01*
X151502263Y-124353021D01*
X151505781Y-124353070D01*
X151600429Y-124355714D01*
X151600432Y-124355714D01*
X151605484Y-124355855D01*
X151683377Y-124345462D01*
X151689918Y-124344763D01*
X151718611Y-124342454D01*
X151763202Y-124338867D01*
X151763206Y-124338866D01*
X151768244Y-124338461D01*
X151800157Y-124330622D01*
X151813537Y-124328095D01*
X151846099Y-124323750D01*
X151850940Y-124322289D01*
X151850942Y-124322288D01*
X151921308Y-124301043D01*
X151927671Y-124299302D01*
X151941306Y-124295953D01*
X152003985Y-124280558D01*
X152034231Y-124267720D01*
X152047042Y-124263082D01*
X152073641Y-124255051D01*
X152078487Y-124253588D01*
X152083035Y-124251370D01*
X152083042Y-124251367D01*
X152149097Y-124219150D01*
X152155099Y-124216414D01*
X152205257Y-124195123D01*
X152227435Y-124185709D01*
X152255235Y-124168202D01*
X152267139Y-124161576D01*
X152296667Y-124147175D01*
X152360879Y-124101878D01*
X152366365Y-124098220D01*
X152428565Y-124059050D01*
X152428566Y-124059049D01*
X152432846Y-124056354D01*
X152436635Y-124053013D01*
X152436641Y-124053009D01*
X152457496Y-124034623D01*
X152468191Y-124026177D01*
X152481301Y-124016929D01*
X152495026Y-124007247D01*
X152516529Y-123987612D01*
X152556245Y-123947896D01*
X152562015Y-123942477D01*
X152611137Y-123899171D01*
X152611140Y-123899168D01*
X152614934Y-123895823D01*
X152641458Y-123863532D01*
X152649728Y-123854413D01*
X154054736Y-122449405D01*
X154117048Y-122415379D01*
X154143831Y-122412500D01*
X158811001Y-122412500D01*
X158813509Y-122412298D01*
X158813514Y-122412298D01*
X158986924Y-122398346D01*
X158986929Y-122398345D01*
X158991965Y-122397940D01*
X158996873Y-122396734D01*
X158996876Y-122396734D01*
X159222792Y-122341244D01*
X159227706Y-122340037D01*
X159232358Y-122338062D01*
X159232362Y-122338061D01*
X159336268Y-122293955D01*
X159406789Y-122285750D01*
X159470551Y-122316974D01*
G37*
%TD.AperFunction*%
%TA.AperFunction,Conductor*%
G36*
X141172675Y-30687702D02*
G01*
X141219168Y-30741358D01*
X141229272Y-30811632D01*
X141206876Y-30867226D01*
X141121223Y-30986424D01*
X141121218Y-30986432D01*
X141118717Y-30989913D01*
X140982597Y-31247000D01*
X140882626Y-31520182D01*
X140820656Y-31804404D01*
X140797832Y-32094406D01*
X140814578Y-32384823D01*
X140815403Y-32389028D01*
X140815404Y-32389036D01*
X140833680Y-32482190D01*
X140870582Y-32670281D01*
X140871969Y-32674332D01*
X140871970Y-32674336D01*
X140963420Y-32941441D01*
X140963424Y-32941450D01*
X140964809Y-32945496D01*
X140997647Y-33010786D01*
X141088541Y-33191508D01*
X141095516Y-33205377D01*
X141134884Y-33262658D01*
X141238190Y-33412969D01*
X141260283Y-33445115D01*
X141263169Y-33448287D01*
X141263171Y-33448289D01*
X141278522Y-33465159D01*
X141456062Y-33660273D01*
X141459351Y-33663023D01*
X141675938Y-33844119D01*
X141675943Y-33844123D01*
X141679230Y-33846871D01*
X141744258Y-33887663D01*
X141922017Y-33999171D01*
X141922021Y-33999173D01*
X141925657Y-34001454D01*
X141929567Y-34003219D01*
X141929568Y-34003220D01*
X141941787Y-34008737D01*
X142190784Y-34121163D01*
X142194903Y-34122383D01*
X142465591Y-34202565D01*
X142465596Y-34202566D01*
X142469704Y-34203783D01*
X142473938Y-34204431D01*
X142473943Y-34204432D01*
X142711884Y-34240842D01*
X142757256Y-34247785D01*
X142905376Y-34250112D01*
X143043829Y-34252287D01*
X143043835Y-34252287D01*
X143048120Y-34252354D01*
X143336912Y-34217407D01*
X143618290Y-34143589D01*
X143622250Y-34141949D01*
X143622255Y-34141947D01*
X143772618Y-34079664D01*
X143843208Y-34072075D01*
X143906695Y-34103854D01*
X143942922Y-34164912D01*
X143940388Y-34235864D01*
X143928269Y-34261908D01*
X143819493Y-34439414D01*
X143815012Y-34448208D01*
X143723145Y-34669995D01*
X143720099Y-34679369D01*
X143664056Y-34912805D01*
X143662513Y-34922545D01*
X143643678Y-35161870D01*
X143643678Y-35171730D01*
X143662513Y-35411055D01*
X143664056Y-35420795D01*
X143720099Y-35654231D01*
X143723145Y-35663605D01*
X143815012Y-35885392D01*
X143819493Y-35894186D01*
X143935457Y-36083423D01*
X143945913Y-36092883D01*
X143954691Y-36089099D01*
X144875858Y-35167932D01*
X145600608Y-35167932D01*
X145600739Y-35169765D01*
X145604990Y-35176380D01*
X146514666Y-36086056D01*
X146527046Y-36092816D01*
X146534696Y-36087089D01*
X146652907Y-35894186D01*
X146657388Y-35885392D01*
X146749255Y-35663605D01*
X146752301Y-35654231D01*
X146808344Y-35420795D01*
X146809887Y-35411055D01*
X146828722Y-35171730D01*
X146828722Y-35161870D01*
X146809887Y-34922545D01*
X146808344Y-34912805D01*
X146752301Y-34679369D01*
X146749255Y-34669995D01*
X146657388Y-34448208D01*
X146652907Y-34439414D01*
X146536943Y-34250177D01*
X146526487Y-34240717D01*
X146517709Y-34244501D01*
X145608222Y-35153988D01*
X145600608Y-35167932D01*
X144875858Y-35167932D01*
X146155456Y-33888334D01*
X146162216Y-33875954D01*
X146156489Y-33868304D01*
X145963586Y-33750093D01*
X145954792Y-33745612D01*
X145733005Y-33653745D01*
X145723631Y-33650699D01*
X145490195Y-33594656D01*
X145480455Y-33593113D01*
X145241130Y-33574278D01*
X145231270Y-33574278D01*
X144991945Y-33593113D01*
X144982205Y-33594656D01*
X144748766Y-33650700D01*
X144737310Y-33654423D01*
X144666343Y-33656454D01*
X144605543Y-33619794D01*
X144574215Y-33556083D01*
X144582305Y-33485549D01*
X144596822Y-33459998D01*
X144739245Y-33266113D01*
X144741783Y-33262658D01*
X144880588Y-33007010D01*
X144983413Y-32734890D01*
X145021787Y-32567342D01*
X145031516Y-32524865D01*
X145066222Y-32462929D01*
X145128903Y-32429589D01*
X145199659Y-32435429D01*
X145243431Y-32463900D01*
X149051195Y-36271664D01*
X149085221Y-36333976D01*
X149088100Y-36360759D01*
X149088100Y-42028100D01*
X149068098Y-42096221D01*
X149014442Y-42142714D01*
X148962100Y-42154100D01*
X148537816Y-42154100D01*
X148534298Y-42154051D01*
X148439651Y-42151407D01*
X148439648Y-42151407D01*
X148434595Y-42151266D01*
X148429582Y-42151935D01*
X148429579Y-42151935D01*
X148356711Y-42161657D01*
X148350154Y-42162358D01*
X148276880Y-42168254D01*
X148276879Y-42168254D01*
X148271835Y-42168660D01*
X148266924Y-42169866D01*
X148266919Y-42169867D01*
X148239939Y-42176494D01*
X148226550Y-42179024D01*
X148214115Y-42180683D01*
X148193980Y-42183370D01*
X148118749Y-42206084D01*
X148112404Y-42207820D01*
X148036094Y-42226563D01*
X148031442Y-42228538D01*
X148031438Y-42228539D01*
X148005852Y-42239400D01*
X147993039Y-42244038D01*
X147961592Y-42253532D01*
X147890938Y-42287992D01*
X147885004Y-42290697D01*
X147812644Y-42321412D01*
X147808364Y-42324107D01*
X147808353Y-42324113D01*
X147784847Y-42338916D01*
X147772940Y-42345544D01*
X147763614Y-42350093D01*
X147743412Y-42359946D01*
X147679203Y-42405241D01*
X147673714Y-42408901D01*
X147612729Y-42447306D01*
X147607233Y-42450767D01*
X147603444Y-42454108D01*
X147603438Y-42454112D01*
X147582583Y-42472498D01*
X147571888Y-42480944D01*
X147545053Y-42499874D01*
X147542129Y-42502544D01*
X147526069Y-42517209D01*
X147523550Y-42519509D01*
X147483834Y-42559225D01*
X147478064Y-42564644D01*
X147428942Y-42607950D01*
X147428939Y-42607953D01*
X147425145Y-42611298D01*
X147421935Y-42615206D01*
X147421934Y-42615207D01*
X147398621Y-42643589D01*
X147390351Y-42652708D01*
X146062334Y-43980725D01*
X146059812Y-43983179D01*
X145987319Y-44051732D01*
X145984252Y-44055744D01*
X145939592Y-44114157D01*
X145935448Y-44119292D01*
X145884530Y-44179120D01*
X145881911Y-44183445D01*
X145881907Y-44183450D01*
X145867509Y-44207224D01*
X145859837Y-44218471D01*
X145839880Y-44244574D01*
X145837490Y-44249032D01*
X145837489Y-44249033D01*
X145802761Y-44313801D01*
X145799496Y-44319526D01*
X145758779Y-44386758D01*
X145749293Y-44410238D01*
X145746473Y-44417217D01*
X145740693Y-44429558D01*
X145725169Y-44458509D01*
X145723523Y-44463290D01*
X145723521Y-44463294D01*
X145699588Y-44532801D01*
X145697278Y-44538979D01*
X145667845Y-44611829D01*
X145666723Y-44616768D01*
X145660568Y-44643860D01*
X145656837Y-44656959D01*
X145646138Y-44688031D01*
X145645278Y-44693011D01*
X145645277Y-44693014D01*
X145643334Y-44704264D01*
X145637574Y-44725910D01*
X145608662Y-44805344D01*
X145608659Y-44805354D01*
X145606930Y-44810105D01*
X145561444Y-45048553D01*
X145554666Y-45291205D01*
X145586771Y-45531820D01*
X145588233Y-45536661D01*
X145588233Y-45536663D01*
X145598122Y-45569416D01*
X145603500Y-45605834D01*
X145603500Y-65316969D01*
X145583498Y-65385090D01*
X145566595Y-65406064D01*
X145168795Y-65803864D01*
X145167169Y-65805774D01*
X145167163Y-65805781D01*
X145075308Y-65913711D01*
X145051130Y-65942120D01*
X144925379Y-66149758D01*
X144834445Y-66374829D01*
X144780665Y-66611544D01*
X144780347Y-66616591D01*
X144780347Y-66616594D01*
X144773309Y-66728457D01*
X144765422Y-66853813D01*
X144789111Y-67095402D01*
X144851119Y-67330096D01*
X144853175Y-67334713D01*
X144853175Y-67334714D01*
X144858432Y-67346522D01*
X144949854Y-67551856D01*
X145082774Y-67754978D01*
X145246458Y-67934236D01*
X145436698Y-68085018D01*
X145441111Y-68087485D01*
X145441115Y-68087487D01*
X145538971Y-68142177D01*
X145588676Y-68192871D01*
X145603500Y-68252165D01*
X145603500Y-116408001D01*
X145603702Y-116410509D01*
X145603702Y-116410514D01*
X145614249Y-116541594D01*
X145618060Y-116588965D01*
X145619266Y-116593873D01*
X145619266Y-116593876D01*
X145627915Y-116629088D01*
X145675963Y-116824706D01*
X145677938Y-116829358D01*
X145677939Y-116829362D01*
X145730374Y-116952891D01*
X145770812Y-117048156D01*
X145774603Y-117054176D01*
X145887507Y-117233463D01*
X145900167Y-117253567D01*
X145903512Y-117257361D01*
X146057350Y-117431858D01*
X146057353Y-117431861D01*
X146060698Y-117435655D01*
X146064606Y-117438865D01*
X146064607Y-117438866D01*
X146171242Y-117526456D01*
X146248278Y-117589734D01*
X146252646Y-117592276D01*
X146430213Y-117695623D01*
X146458078Y-117711841D01*
X146462801Y-117713654D01*
X146679978Y-117797020D01*
X146679982Y-117797021D01*
X146684702Y-117798833D01*
X146689652Y-117799867D01*
X146689655Y-117799868D01*
X146917369Y-117847440D01*
X146917373Y-117847440D01*
X146922320Y-117848474D01*
X147164817Y-117859486D01*
X147169837Y-117858905D01*
X147169841Y-117858905D01*
X147400929Y-117832167D01*
X147400933Y-117832166D01*
X147405956Y-117831585D01*
X147410820Y-117830209D01*
X147410823Y-117830208D01*
X147634669Y-117766866D01*
X147634668Y-117766866D01*
X147639532Y-117765490D01*
X147644108Y-117763356D01*
X147644114Y-117763354D01*
X147854954Y-117665038D01*
X147854958Y-117665036D01*
X147859536Y-117662901D01*
X148060307Y-117526456D01*
X148236681Y-117359668D01*
X148260501Y-117328513D01*
X148381047Y-117170846D01*
X148381050Y-117170842D01*
X148384120Y-117166826D01*
X148498831Y-116952891D01*
X148577862Y-116723369D01*
X148608654Y-116545097D01*
X148618504Y-116488074D01*
X148618505Y-116488068D01*
X148619179Y-116484164D01*
X148619359Y-116480202D01*
X148620436Y-116456494D01*
X148620436Y-116456475D01*
X148620500Y-116455075D01*
X148620500Y-66045892D01*
X148620749Y-66037980D01*
X148624860Y-65972641D01*
X148625178Y-65967587D01*
X148621101Y-65926006D01*
X148620500Y-65913711D01*
X148620500Y-45741431D01*
X148640502Y-45673310D01*
X148657405Y-45652336D01*
X149101736Y-45208005D01*
X149164048Y-45173979D01*
X149190831Y-45171100D01*
X150558788Y-45171100D01*
X150564503Y-45171230D01*
X150649417Y-45175086D01*
X150654437Y-45174505D01*
X150654441Y-45174505D01*
X150676650Y-45171935D01*
X150691132Y-45171100D01*
X153145369Y-45171100D01*
X153213490Y-45191102D01*
X153234464Y-45208005D01*
X153722144Y-45695685D01*
X153725707Y-45699396D01*
X153767891Y-45745173D01*
X153785905Y-45764722D01*
X153789880Y-45767843D01*
X153789883Y-45767846D01*
X153856013Y-45819771D01*
X153859862Y-45822918D01*
X153920936Y-45874896D01*
X153927720Y-45880670D01*
X153935953Y-45885656D01*
X153946768Y-45892206D01*
X153959309Y-45900881D01*
X153976829Y-45914637D01*
X154054837Y-45957770D01*
X154059100Y-45960238D01*
X154135358Y-46006421D01*
X154151716Y-46013030D01*
X154156008Y-46014764D01*
X154169775Y-46021321D01*
X154189266Y-46032098D01*
X154194029Y-46033807D01*
X154194031Y-46033808D01*
X154273155Y-46062200D01*
X154277787Y-46063966D01*
X154360429Y-46097355D01*
X154365369Y-46098477D01*
X154365368Y-46098477D01*
X154382142Y-46102288D01*
X154396785Y-46106561D01*
X154417750Y-46114084D01*
X154463316Y-46122561D01*
X154505376Y-46130386D01*
X154510245Y-46131392D01*
X154592213Y-46150015D01*
X154592217Y-46150016D01*
X154597144Y-46151135D01*
X154602188Y-46151452D01*
X154602193Y-46151453D01*
X154613646Y-46152173D01*
X154619372Y-46152533D01*
X154634500Y-46154409D01*
X154656402Y-46158484D01*
X154660361Y-46158715D01*
X154661682Y-46158792D01*
X154685471Y-46160180D01*
X154686893Y-46160198D01*
X154686939Y-46160200D01*
X154752076Y-46161041D01*
X154758360Y-46161279D01*
X154834358Y-46166060D01*
X154839413Y-46166378D01*
X154870425Y-46163337D01*
X154884347Y-46162746D01*
X154895081Y-46162885D01*
X155069462Y-46165135D01*
X155137319Y-46186015D01*
X155183116Y-46240266D01*
X155192312Y-46310665D01*
X155158928Y-46378178D01*
X155154590Y-46382717D01*
X155148104Y-46390727D01*
X155028098Y-46566649D01*
X155023000Y-46575623D01*
X154933338Y-46768783D01*
X154929775Y-46778470D01*
X154874389Y-46978183D01*
X154875912Y-46986607D01*
X154888292Y-46990000D01*
X158878000Y-46990000D01*
X158946121Y-47010002D01*
X158992614Y-47063658D01*
X159004000Y-47116000D01*
X159004000Y-47372000D01*
X158983998Y-47440121D01*
X158930342Y-47486614D01*
X158878000Y-47498000D01*
X154893225Y-47498000D01*
X154879694Y-47501973D01*
X154878257Y-47511966D01*
X154908565Y-47646446D01*
X154911645Y-47656275D01*
X154991770Y-47853603D01*
X154996413Y-47862794D01*
X155107694Y-48044388D01*
X155113777Y-48052699D01*
X155253213Y-48213667D01*
X155260580Y-48220883D01*
X155424434Y-48356916D01*
X155432881Y-48362831D01*
X155501969Y-48403203D01*
X155550693Y-48454842D01*
X155563764Y-48524625D01*
X155537033Y-48590396D01*
X155496584Y-48623752D01*
X155483607Y-48630507D01*
X155479474Y-48633610D01*
X155479471Y-48633612D01*
X155455247Y-48651800D01*
X155304965Y-48764635D01*
X155150629Y-48926138D01*
X155147720Y-48930403D01*
X155147714Y-48930411D01*
X155129838Y-48956617D01*
X155024743Y-49110680D01*
X154930688Y-49313305D01*
X154870989Y-49528570D01*
X154847251Y-49750695D01*
X154847548Y-49755848D01*
X154847548Y-49755851D01*
X154855229Y-49889059D01*
X154860110Y-49973715D01*
X154861247Y-49978761D01*
X154861248Y-49978767D01*
X154866478Y-50001973D01*
X154909222Y-50191639D01*
X154993266Y-50398616D01*
X155030395Y-50459205D01*
X155107291Y-50584688D01*
X155109987Y-50589088D01*
X155256250Y-50757938D01*
X155428126Y-50900632D01*
X155443470Y-50909598D01*
X155501445Y-50943476D01*
X155550169Y-50995114D01*
X155563240Y-51064897D01*
X155536509Y-51130669D01*
X155496055Y-51164027D01*
X155483607Y-51170507D01*
X155479474Y-51173610D01*
X155479471Y-51173612D01*
X155455247Y-51191800D01*
X155304965Y-51304635D01*
X155150629Y-51466138D01*
X155024743Y-51650680D01*
X154930688Y-51853305D01*
X154870989Y-52068570D01*
X154847251Y-52290695D01*
X154847548Y-52295848D01*
X154847548Y-52295851D01*
X154853011Y-52390590D01*
X154860110Y-52513715D01*
X154861247Y-52518761D01*
X154861248Y-52518767D01*
X154880975Y-52606300D01*
X154909222Y-52731639D01*
X154993266Y-52938616D01*
X155044019Y-53021438D01*
X155107291Y-53124688D01*
X155109987Y-53129088D01*
X155256250Y-53297938D01*
X155428126Y-53440632D01*
X155443470Y-53449598D01*
X155501445Y-53483476D01*
X155550169Y-53535114D01*
X155563240Y-53604897D01*
X155536509Y-53670669D01*
X155496055Y-53704027D01*
X155483607Y-53710507D01*
X155479474Y-53713610D01*
X155479471Y-53713612D01*
X155309100Y-53841530D01*
X155304965Y-53844635D01*
X155301393Y-53848373D01*
X155199996Y-53954479D01*
X155150629Y-54006138D01*
X155147720Y-54010403D01*
X155147714Y-54010411D01*
X155110346Y-54065190D01*
X155024743Y-54190680D01*
X154991508Y-54262280D01*
X154934239Y-54385656D01*
X154930688Y-54393305D01*
X154870989Y-54608570D01*
X154847251Y-54830695D01*
X154847548Y-54835848D01*
X154847548Y-54835851D01*
X154856558Y-54992110D01*
X154860110Y-55053715D01*
X154861247Y-55058761D01*
X154861248Y-55058767D01*
X154866299Y-55081178D01*
X154909222Y-55271639D01*
X154970075Y-55421503D01*
X154989305Y-55468860D01*
X154993266Y-55478616D01*
X155044019Y-55561438D01*
X155107291Y-55664688D01*
X155109987Y-55669088D01*
X155256250Y-55837938D01*
X155428126Y-55980632D01*
X155498595Y-56021811D01*
X155501445Y-56023476D01*
X155550169Y-56075114D01*
X155563240Y-56144897D01*
X155536509Y-56210669D01*
X155496055Y-56244027D01*
X155483607Y-56250507D01*
X155479474Y-56253610D01*
X155479471Y-56253612D01*
X155333611Y-56363127D01*
X155304965Y-56384635D01*
X155150629Y-56546138D01*
X155147720Y-56550403D01*
X155147714Y-56550411D01*
X155099231Y-56621485D01*
X155024743Y-56730680D01*
X154985975Y-56814198D01*
X154944514Y-56903520D01*
X154930688Y-56933305D01*
X154870989Y-57148570D01*
X154847251Y-57370695D01*
X154847548Y-57375848D01*
X154847548Y-57375851D01*
X154853588Y-57480601D01*
X154860110Y-57593715D01*
X154861247Y-57598761D01*
X154861248Y-57598767D01*
X154878056Y-57673346D01*
X154909222Y-57811639D01*
X154947461Y-57905811D01*
X154974026Y-57971232D01*
X154993266Y-58018616D01*
X155044019Y-58101438D01*
X155107291Y-58204688D01*
X155109987Y-58209088D01*
X155256250Y-58377938D01*
X155428126Y-58520632D01*
X155498595Y-58561811D01*
X155501445Y-58563476D01*
X155550169Y-58615114D01*
X155563240Y-58684897D01*
X155536509Y-58750669D01*
X155496055Y-58784027D01*
X155483607Y-58790507D01*
X155479474Y-58793610D01*
X155479471Y-58793612D01*
X155383845Y-58865410D01*
X155304965Y-58924635D01*
X155150629Y-59086138D01*
X155024743Y-59270680D01*
X155011022Y-59300239D01*
X154947840Y-59436355D01*
X154930688Y-59473305D01*
X154870989Y-59688570D01*
X154847251Y-59910695D01*
X154847548Y-59915848D01*
X154847548Y-59915851D01*
X154853011Y-60010590D01*
X154860110Y-60133715D01*
X154861247Y-60138761D01*
X154861248Y-60138767D01*
X154881119Y-60226939D01*
X154909222Y-60351639D01*
X154993266Y-60558616D01*
X155044942Y-60642944D01*
X155107291Y-60744688D01*
X155109987Y-60749088D01*
X155256250Y-60917938D01*
X155428126Y-61060632D01*
X155443470Y-61069598D01*
X155501445Y-61103476D01*
X155550169Y-61155114D01*
X155563240Y-61224897D01*
X155536509Y-61290669D01*
X155496055Y-61324027D01*
X155483607Y-61330507D01*
X155479474Y-61333610D01*
X155479471Y-61333612D01*
X155413987Y-61382779D01*
X155304965Y-61464635D01*
X155150629Y-61626138D01*
X155024743Y-61810680D01*
X154930688Y-62013305D01*
X154870989Y-62228570D01*
X154847251Y-62450695D01*
X154847548Y-62455848D01*
X154847548Y-62455851D01*
X154853011Y-62550590D01*
X154860110Y-62673715D01*
X154861247Y-62678761D01*
X154861248Y-62678767D01*
X154881119Y-62766939D01*
X154909222Y-62891639D01*
X154993266Y-63098616D01*
X155044019Y-63181438D01*
X155107291Y-63284688D01*
X155109987Y-63289088D01*
X155256250Y-63457938D01*
X155428126Y-63600632D01*
X155443470Y-63609598D01*
X155501445Y-63643476D01*
X155550169Y-63695114D01*
X155563240Y-63764897D01*
X155536509Y-63830669D01*
X155496055Y-63864027D01*
X155483607Y-63870507D01*
X155479474Y-63873610D01*
X155479471Y-63873612D01*
X155455247Y-63891800D01*
X155304965Y-64004635D01*
X155150629Y-64166138D01*
X155024743Y-64350680D01*
X154930688Y-64553305D01*
X154870989Y-64768570D01*
X154847251Y-64990695D01*
X154847548Y-64995848D01*
X154847548Y-64995851D01*
X154853011Y-65090590D01*
X154860110Y-65213715D01*
X154861247Y-65218761D01*
X154861248Y-65218767D01*
X154881119Y-65306939D01*
X154909222Y-65431639D01*
X154993266Y-65638616D01*
X155044019Y-65721438D01*
X155107291Y-65824688D01*
X155109987Y-65829088D01*
X155256250Y-65997938D01*
X155428126Y-66140632D01*
X155448501Y-66152538D01*
X155501445Y-66183476D01*
X155550169Y-66235114D01*
X155563240Y-66304897D01*
X155536509Y-66370669D01*
X155496055Y-66404027D01*
X155483607Y-66410507D01*
X155479474Y-66413610D01*
X155479471Y-66413612D01*
X155455247Y-66431800D01*
X155304965Y-66544635D01*
X155150629Y-66706138D01*
X155024743Y-66890680D01*
X154930688Y-67093305D01*
X154870989Y-67308570D01*
X154847251Y-67530695D01*
X154847548Y-67535848D01*
X154847548Y-67535851D01*
X154853011Y-67630590D01*
X154860110Y-67753715D01*
X154861247Y-67758761D01*
X154861248Y-67758767D01*
X154881119Y-67846939D01*
X154909222Y-67971639D01*
X154993266Y-68178616D01*
X155038337Y-68252165D01*
X155107291Y-68364688D01*
X155109987Y-68369088D01*
X155256250Y-68537938D01*
X155428126Y-68680632D01*
X155443470Y-68689598D01*
X155501445Y-68723476D01*
X155550169Y-68775114D01*
X155563240Y-68844897D01*
X155536509Y-68910669D01*
X155496055Y-68944027D01*
X155483607Y-68950507D01*
X155479474Y-68953610D01*
X155479471Y-68953612D01*
X155455247Y-68971800D01*
X155304965Y-69084635D01*
X155150629Y-69246138D01*
X155024743Y-69430680D01*
X154930688Y-69633305D01*
X154870989Y-69848570D01*
X154847251Y-70070695D01*
X154847548Y-70075848D01*
X154847548Y-70075851D01*
X154853011Y-70170590D01*
X154860110Y-70293715D01*
X154861247Y-70298761D01*
X154861248Y-70298767D01*
X154881119Y-70386939D01*
X154909222Y-70511639D01*
X154993266Y-70718616D01*
X155044019Y-70801438D01*
X155107291Y-70904688D01*
X155109987Y-70909088D01*
X155256250Y-71077938D01*
X155428126Y-71220632D01*
X155443470Y-71229598D01*
X155501445Y-71263476D01*
X155550169Y-71315114D01*
X155563240Y-71384897D01*
X155536509Y-71450669D01*
X155496055Y-71484027D01*
X155483607Y-71490507D01*
X155479474Y-71493610D01*
X155479471Y-71493612D01*
X155455247Y-71511800D01*
X155304965Y-71624635D01*
X155150629Y-71786138D01*
X155024743Y-71970680D01*
X154930688Y-72173305D01*
X154870989Y-72388570D01*
X154847251Y-72610695D01*
X154847548Y-72615848D01*
X154847548Y-72615851D01*
X154853011Y-72710590D01*
X154860110Y-72833715D01*
X154861247Y-72838761D01*
X154861248Y-72838767D01*
X154881119Y-72926939D01*
X154909222Y-73051639D01*
X154993266Y-73258616D01*
X155044019Y-73341438D01*
X155107291Y-73444688D01*
X155109987Y-73449088D01*
X155256250Y-73617938D01*
X155428126Y-73760632D01*
X155443470Y-73769598D01*
X155501445Y-73803476D01*
X155550169Y-73855114D01*
X155563240Y-73924897D01*
X155536509Y-73990669D01*
X155496055Y-74024027D01*
X155483607Y-74030507D01*
X155479474Y-74033610D01*
X155479471Y-74033612D01*
X155455247Y-74051800D01*
X155304965Y-74164635D01*
X155150629Y-74326138D01*
X155024743Y-74510680D01*
X154930688Y-74713305D01*
X154870989Y-74928570D01*
X154847251Y-75150695D01*
X154847548Y-75155848D01*
X154847548Y-75155851D01*
X154853011Y-75250590D01*
X154860110Y-75373715D01*
X154861247Y-75378761D01*
X154861248Y-75378767D01*
X154881119Y-75466939D01*
X154909222Y-75591639D01*
X154993266Y-75798616D01*
X155044019Y-75881438D01*
X155107291Y-75984688D01*
X155109987Y-75989088D01*
X155256250Y-76157938D01*
X155428126Y-76300632D01*
X155443470Y-76309598D01*
X155501445Y-76343476D01*
X155550169Y-76395114D01*
X155563240Y-76464897D01*
X155536509Y-76530669D01*
X155496055Y-76564027D01*
X155483607Y-76570507D01*
X155479474Y-76573610D01*
X155479471Y-76573612D01*
X155455247Y-76591800D01*
X155304965Y-76704635D01*
X155150629Y-76866138D01*
X155024743Y-77050680D01*
X154930688Y-77253305D01*
X154870989Y-77468570D01*
X154847251Y-77690695D01*
X154847548Y-77695848D01*
X154847548Y-77695851D01*
X154853011Y-77790590D01*
X154860110Y-77913715D01*
X154861247Y-77918761D01*
X154861248Y-77918767D01*
X154881119Y-78006939D01*
X154909222Y-78131639D01*
X154993266Y-78338616D01*
X155044019Y-78421438D01*
X155107291Y-78524688D01*
X155109987Y-78529088D01*
X155256250Y-78697938D01*
X155428126Y-78840632D01*
X155443470Y-78849598D01*
X155501445Y-78883476D01*
X155550169Y-78935114D01*
X155563240Y-79004897D01*
X155536509Y-79070669D01*
X155496055Y-79104027D01*
X155483607Y-79110507D01*
X155479474Y-79113610D01*
X155479471Y-79113612D01*
X155455247Y-79131800D01*
X155304965Y-79244635D01*
X155150629Y-79406138D01*
X155024743Y-79590680D01*
X154930688Y-79793305D01*
X154870989Y-80008570D01*
X154847251Y-80230695D01*
X154847548Y-80235848D01*
X154847548Y-80235851D01*
X154853011Y-80330590D01*
X154860110Y-80453715D01*
X154861247Y-80458761D01*
X154861248Y-80458767D01*
X154881119Y-80546939D01*
X154909222Y-80671639D01*
X154993266Y-80878616D01*
X155044019Y-80961438D01*
X155107291Y-81064688D01*
X155109987Y-81069088D01*
X155256250Y-81237938D01*
X155428126Y-81380632D01*
X155443470Y-81389598D01*
X155501445Y-81423476D01*
X155550169Y-81475114D01*
X155563240Y-81544897D01*
X155536509Y-81610669D01*
X155496055Y-81644027D01*
X155483607Y-81650507D01*
X155479474Y-81653610D01*
X155479471Y-81653612D01*
X155455247Y-81671800D01*
X155304965Y-81784635D01*
X155150629Y-81946138D01*
X155024743Y-82130680D01*
X154930688Y-82333305D01*
X154870989Y-82548570D01*
X154847251Y-82770695D01*
X154847548Y-82775848D01*
X154847548Y-82775851D01*
X154853011Y-82870590D01*
X154860110Y-82993715D01*
X154861247Y-82998761D01*
X154861248Y-82998767D01*
X154881119Y-83086939D01*
X154909222Y-83211639D01*
X154993266Y-83418616D01*
X155044019Y-83501438D01*
X155107291Y-83604688D01*
X155109987Y-83609088D01*
X155256250Y-83777938D01*
X155428126Y-83920632D01*
X155443470Y-83929598D01*
X155501445Y-83963476D01*
X155550169Y-84015114D01*
X155563240Y-84084897D01*
X155536509Y-84150669D01*
X155496055Y-84184027D01*
X155483607Y-84190507D01*
X155479474Y-84193610D01*
X155479471Y-84193612D01*
X155455247Y-84211800D01*
X155304965Y-84324635D01*
X155150629Y-84486138D01*
X155024743Y-84670680D01*
X154930688Y-84873305D01*
X154870989Y-85088570D01*
X154847251Y-85310695D01*
X154847548Y-85315848D01*
X154847548Y-85315851D01*
X154853011Y-85410590D01*
X154860110Y-85533715D01*
X154861247Y-85538761D01*
X154861248Y-85538767D01*
X154881119Y-85626939D01*
X154909222Y-85751639D01*
X154993266Y-85958616D01*
X155044019Y-86041438D01*
X155107291Y-86144688D01*
X155109987Y-86149088D01*
X155256250Y-86317938D01*
X155428126Y-86460632D01*
X155443470Y-86469598D01*
X155501445Y-86503476D01*
X155550169Y-86555114D01*
X155563240Y-86624897D01*
X155536509Y-86690669D01*
X155496055Y-86724027D01*
X155483607Y-86730507D01*
X155479474Y-86733610D01*
X155479471Y-86733612D01*
X155455247Y-86751800D01*
X155304965Y-86864635D01*
X155150629Y-87026138D01*
X155024743Y-87210680D01*
X154930688Y-87413305D01*
X154870989Y-87628570D01*
X154847251Y-87850695D01*
X154847548Y-87855848D01*
X154847548Y-87855851D01*
X154853011Y-87950590D01*
X154860110Y-88073715D01*
X154861247Y-88078761D01*
X154861248Y-88078767D01*
X154881119Y-88166939D01*
X154909222Y-88291639D01*
X154993266Y-88498616D01*
X155044019Y-88581438D01*
X155107291Y-88684688D01*
X155109987Y-88689088D01*
X155256250Y-88857938D01*
X155428126Y-89000632D01*
X155443470Y-89009598D01*
X155501445Y-89043476D01*
X155550169Y-89095114D01*
X155563240Y-89164897D01*
X155536509Y-89230669D01*
X155496055Y-89264027D01*
X155483607Y-89270507D01*
X155479474Y-89273610D01*
X155479471Y-89273612D01*
X155455247Y-89291800D01*
X155304965Y-89404635D01*
X155150629Y-89566138D01*
X155024743Y-89750680D01*
X154930688Y-89953305D01*
X154870989Y-90168570D01*
X154847251Y-90390695D01*
X154847548Y-90395848D01*
X154847548Y-90395851D01*
X154853011Y-90490590D01*
X154860110Y-90613715D01*
X154861247Y-90618761D01*
X154861248Y-90618767D01*
X154881119Y-90706939D01*
X154909222Y-90831639D01*
X154993266Y-91038616D01*
X155044019Y-91121438D01*
X155107291Y-91224688D01*
X155109987Y-91229088D01*
X155256250Y-91397938D01*
X155428126Y-91540632D01*
X155443470Y-91549598D01*
X155501445Y-91583476D01*
X155550169Y-91635114D01*
X155563240Y-91704897D01*
X155536509Y-91770669D01*
X155496055Y-91804027D01*
X155483607Y-91810507D01*
X155479474Y-91813610D01*
X155479471Y-91813612D01*
X155455247Y-91831800D01*
X155304965Y-91944635D01*
X155150629Y-92106138D01*
X155024743Y-92290680D01*
X154930688Y-92493305D01*
X154870989Y-92708570D01*
X154847251Y-92930695D01*
X154847548Y-92935848D01*
X154847548Y-92935851D01*
X154853011Y-93030590D01*
X154860110Y-93153715D01*
X154861247Y-93158761D01*
X154861248Y-93158767D01*
X154881119Y-93246939D01*
X154909222Y-93371639D01*
X154993266Y-93578616D01*
X155044019Y-93661438D01*
X155107291Y-93764688D01*
X155109987Y-93769088D01*
X155256250Y-93937938D01*
X155428126Y-94080632D01*
X155443470Y-94089598D01*
X155501445Y-94123476D01*
X155550169Y-94175114D01*
X155563240Y-94244897D01*
X155536509Y-94310669D01*
X155496055Y-94344027D01*
X155483607Y-94350507D01*
X155479474Y-94353610D01*
X155479471Y-94353612D01*
X155455247Y-94371800D01*
X155304965Y-94484635D01*
X155150629Y-94646138D01*
X155024743Y-94830680D01*
X154930688Y-95033305D01*
X154870989Y-95248570D01*
X154847251Y-95470695D01*
X154847548Y-95475848D01*
X154847548Y-95475851D01*
X154853011Y-95570590D01*
X154860110Y-95693715D01*
X154861247Y-95698761D01*
X154861248Y-95698767D01*
X154881119Y-95786939D01*
X154909222Y-95911639D01*
X154993266Y-96118616D01*
X155044019Y-96201438D01*
X155107291Y-96304688D01*
X155109987Y-96309088D01*
X155256250Y-96477938D01*
X155428126Y-96620632D01*
X155443470Y-96629598D01*
X155501445Y-96663476D01*
X155550169Y-96715114D01*
X155563240Y-96784897D01*
X155536509Y-96850669D01*
X155496055Y-96884027D01*
X155483607Y-96890507D01*
X155479474Y-96893610D01*
X155479471Y-96893612D01*
X155455247Y-96911800D01*
X155304965Y-97024635D01*
X155150629Y-97186138D01*
X155024743Y-97370680D01*
X154930688Y-97573305D01*
X154870989Y-97788570D01*
X154847251Y-98010695D01*
X154847548Y-98015848D01*
X154847548Y-98015851D01*
X154853011Y-98110590D01*
X154860110Y-98233715D01*
X154861247Y-98238761D01*
X154861248Y-98238767D01*
X154881119Y-98326939D01*
X154909222Y-98451639D01*
X154993266Y-98658616D01*
X155044019Y-98741438D01*
X155107291Y-98844688D01*
X155109987Y-98849088D01*
X155256250Y-99017938D01*
X155428126Y-99160632D01*
X155443470Y-99169598D01*
X155501445Y-99203476D01*
X155550169Y-99255114D01*
X155563240Y-99324897D01*
X155536509Y-99390669D01*
X155496055Y-99424027D01*
X155483607Y-99430507D01*
X155479474Y-99433610D01*
X155479471Y-99433612D01*
X155455247Y-99451800D01*
X155304965Y-99564635D01*
X155150629Y-99726138D01*
X155024743Y-99910680D01*
X154930688Y-100113305D01*
X154870989Y-100328570D01*
X154847251Y-100550695D01*
X154847548Y-100555848D01*
X154847548Y-100555851D01*
X154853011Y-100650590D01*
X154860110Y-100773715D01*
X154861247Y-100778761D01*
X154861248Y-100778767D01*
X154881119Y-100866939D01*
X154909222Y-100991639D01*
X154993266Y-101198616D01*
X155044019Y-101281438D01*
X155107291Y-101384688D01*
X155109987Y-101389088D01*
X155256250Y-101557938D01*
X155428126Y-101700632D01*
X155443470Y-101709598D01*
X155501445Y-101743476D01*
X155550169Y-101795114D01*
X155563240Y-101864897D01*
X155536509Y-101930669D01*
X155496055Y-101964027D01*
X155483607Y-101970507D01*
X155479474Y-101973610D01*
X155479471Y-101973612D01*
X155455247Y-101991800D01*
X155304965Y-102104635D01*
X155150629Y-102266138D01*
X155024743Y-102450680D01*
X154930688Y-102653305D01*
X154870989Y-102868570D01*
X154847251Y-103090695D01*
X154847548Y-103095848D01*
X154847548Y-103095851D01*
X154853011Y-103190590D01*
X154860110Y-103313715D01*
X154861247Y-103318761D01*
X154861248Y-103318767D01*
X154881119Y-103406939D01*
X154909222Y-103531639D01*
X154993266Y-103738616D01*
X155044019Y-103821438D01*
X155107291Y-103924688D01*
X155109987Y-103929088D01*
X155256250Y-104097938D01*
X155428126Y-104240632D01*
X155443470Y-104249598D01*
X155501445Y-104283476D01*
X155550169Y-104335114D01*
X155563240Y-104404897D01*
X155536509Y-104470669D01*
X155496055Y-104504027D01*
X155483607Y-104510507D01*
X155479474Y-104513610D01*
X155479471Y-104513612D01*
X155455247Y-104531800D01*
X155304965Y-104644635D01*
X155150629Y-104806138D01*
X155024743Y-104990680D01*
X154930688Y-105193305D01*
X154870989Y-105408570D01*
X154847251Y-105630695D01*
X154847548Y-105635848D01*
X154847548Y-105635851D01*
X154853011Y-105730590D01*
X154860110Y-105853715D01*
X154861247Y-105858761D01*
X154861248Y-105858767D01*
X154881119Y-105946939D01*
X154909222Y-106071639D01*
X154993266Y-106278616D01*
X155044019Y-106361438D01*
X155107291Y-106464688D01*
X155109987Y-106469088D01*
X155256250Y-106637938D01*
X155428126Y-106780632D01*
X155443470Y-106789598D01*
X155501445Y-106823476D01*
X155550169Y-106875114D01*
X155563240Y-106944897D01*
X155536509Y-107010669D01*
X155496055Y-107044027D01*
X155483607Y-107050507D01*
X155479474Y-107053610D01*
X155479471Y-107053612D01*
X155455247Y-107071800D01*
X155304965Y-107184635D01*
X155150629Y-107346138D01*
X155024743Y-107530680D01*
X154930688Y-107733305D01*
X154870989Y-107948570D01*
X154847251Y-108170695D01*
X154847548Y-108175848D01*
X154847548Y-108175851D01*
X154853011Y-108270590D01*
X154860110Y-108393715D01*
X154861247Y-108398761D01*
X154861248Y-108398767D01*
X154881119Y-108486939D01*
X154909222Y-108611639D01*
X154993266Y-108818616D01*
X155044019Y-108901438D01*
X155107291Y-109004688D01*
X155109987Y-109009088D01*
X155256250Y-109177938D01*
X155428126Y-109320632D01*
X155443470Y-109329598D01*
X155501445Y-109363476D01*
X155550169Y-109415114D01*
X155563240Y-109484897D01*
X155536509Y-109550669D01*
X155496055Y-109584027D01*
X155483607Y-109590507D01*
X155479474Y-109593610D01*
X155479471Y-109593612D01*
X155455247Y-109611800D01*
X155304965Y-109724635D01*
X155150629Y-109886138D01*
X155024743Y-110070680D01*
X154930688Y-110273305D01*
X154870989Y-110488570D01*
X154847251Y-110710695D01*
X154847548Y-110715848D01*
X154847548Y-110715851D01*
X154853011Y-110810590D01*
X154860110Y-110933715D01*
X154861247Y-110938761D01*
X154861248Y-110938767D01*
X154881119Y-111026939D01*
X154909222Y-111151639D01*
X154993266Y-111358616D01*
X155044019Y-111441438D01*
X155107291Y-111544688D01*
X155109987Y-111549088D01*
X155256250Y-111717938D01*
X155428126Y-111860632D01*
X155443470Y-111869598D01*
X155501445Y-111903476D01*
X155550169Y-111955114D01*
X155563240Y-112024897D01*
X155536509Y-112090669D01*
X155496055Y-112124027D01*
X155483607Y-112130507D01*
X155479474Y-112133610D01*
X155479471Y-112133612D01*
X155455247Y-112151800D01*
X155304965Y-112264635D01*
X155150629Y-112426138D01*
X155024743Y-112610680D01*
X154930688Y-112813305D01*
X154870989Y-113028570D01*
X154847251Y-113250695D01*
X154847548Y-113255848D01*
X154847548Y-113255851D01*
X154853011Y-113350590D01*
X154860110Y-113473715D01*
X154861247Y-113478761D01*
X154861248Y-113478767D01*
X154881119Y-113566939D01*
X154909222Y-113691639D01*
X154993266Y-113898616D01*
X155044019Y-113981438D01*
X155107291Y-114084688D01*
X155109987Y-114089088D01*
X155256250Y-114257938D01*
X155428126Y-114400632D01*
X155443470Y-114409598D01*
X155501445Y-114443476D01*
X155550169Y-114495114D01*
X155563240Y-114564897D01*
X155536509Y-114630669D01*
X155496055Y-114664027D01*
X155483607Y-114670507D01*
X155479474Y-114673610D01*
X155479471Y-114673612D01*
X155455247Y-114691800D01*
X155304965Y-114804635D01*
X155150629Y-114966138D01*
X155024743Y-115150680D01*
X154930688Y-115353305D01*
X154870989Y-115568570D01*
X154847251Y-115790695D01*
X154847548Y-115795848D01*
X154847548Y-115795851D01*
X154853011Y-115890590D01*
X154860110Y-116013715D01*
X154861247Y-116018761D01*
X154861248Y-116018767D01*
X154881119Y-116106939D01*
X154909222Y-116231639D01*
X154993266Y-116438616D01*
X155031006Y-116500202D01*
X155107291Y-116624688D01*
X155109987Y-116629088D01*
X155256250Y-116797938D01*
X155428126Y-116940632D01*
X155443470Y-116949598D01*
X155501955Y-116983774D01*
X155550679Y-117035412D01*
X155563750Y-117105195D01*
X155537019Y-117170967D01*
X155496562Y-117204327D01*
X155488457Y-117208546D01*
X155479738Y-117214036D01*
X155309433Y-117341905D01*
X155301726Y-117348748D01*
X155154590Y-117502717D01*
X155148104Y-117510727D01*
X155028098Y-117686649D01*
X155023000Y-117695623D01*
X154933338Y-117888783D01*
X154929775Y-117898470D01*
X154874389Y-118098183D01*
X154875912Y-118106607D01*
X154888292Y-118110000D01*
X158878000Y-118110000D01*
X158946121Y-118130002D01*
X158992614Y-118183658D01*
X159004000Y-118236000D01*
X159004000Y-118492000D01*
X158983998Y-118560121D01*
X158930342Y-118606614D01*
X158878000Y-118618000D01*
X154893225Y-118618000D01*
X154879694Y-118621973D01*
X154878257Y-118631966D01*
X154908565Y-118766446D01*
X154911645Y-118776275D01*
X154991770Y-118973603D01*
X154996413Y-118982794D01*
X155107694Y-119164388D01*
X155113772Y-119172692D01*
X155126168Y-119187002D01*
X155155651Y-119251587D01*
X155145537Y-119321860D01*
X155099036Y-119375508D01*
X155030931Y-119395500D01*
X153490816Y-119395500D01*
X153487298Y-119395451D01*
X153392650Y-119392807D01*
X153392647Y-119392807D01*
X153387595Y-119392666D01*
X153309702Y-119403059D01*
X153303161Y-119403758D01*
X153274468Y-119406067D01*
X153229877Y-119409654D01*
X153229873Y-119409655D01*
X153224835Y-119410060D01*
X153192922Y-119417899D01*
X153179542Y-119420426D01*
X153146980Y-119424771D01*
X153142139Y-119426232D01*
X153142137Y-119426233D01*
X153071771Y-119447478D01*
X153065410Y-119449219D01*
X152989094Y-119467963D01*
X152984434Y-119469941D01*
X152958849Y-119480801D01*
X152946039Y-119485438D01*
X152914592Y-119494933D01*
X152910044Y-119497151D01*
X152910037Y-119497154D01*
X152843982Y-119529371D01*
X152837980Y-119532107D01*
X152793296Y-119551075D01*
X152765644Y-119562812D01*
X152755245Y-119569361D01*
X152737844Y-119580319D01*
X152725940Y-119586945D01*
X152696412Y-119601346D01*
X152692275Y-119604265D01*
X152692274Y-119604265D01*
X152632203Y-119646641D01*
X152626714Y-119650301D01*
X152625398Y-119651130D01*
X152560233Y-119692167D01*
X152556444Y-119695508D01*
X152556438Y-119695512D01*
X152535583Y-119713898D01*
X152524888Y-119722344D01*
X152498053Y-119741274D01*
X152476550Y-119760909D01*
X152436834Y-119800625D01*
X152431064Y-119806044D01*
X152381942Y-119849350D01*
X152381939Y-119849353D01*
X152378145Y-119852698D01*
X152374935Y-119856606D01*
X152374934Y-119856607D01*
X152351621Y-119884989D01*
X152343351Y-119894108D01*
X150938343Y-121299116D01*
X150876031Y-121333142D01*
X150849248Y-121336021D01*
X123259821Y-121336021D01*
X123191700Y-121316019D01*
X123145207Y-121262363D01*
X123133821Y-121210021D01*
X123133821Y-60634494D01*
X125449044Y-60634494D01*
X125465102Y-60798268D01*
X125517045Y-60954415D01*
X125520694Y-60960440D01*
X125588584Y-61072538D01*
X125602292Y-61095173D01*
X125716604Y-61213547D01*
X125854302Y-61303654D01*
X126008541Y-61361015D01*
X126015522Y-61361946D01*
X126015524Y-61361947D01*
X126164674Y-61381848D01*
X126164678Y-61381848D01*
X126171655Y-61382779D01*
X126178666Y-61382141D01*
X126178670Y-61382141D01*
X126328516Y-61368504D01*
X126328517Y-61368504D01*
X126335537Y-61367865D01*
X126384980Y-61351800D01*
X126485343Y-61319190D01*
X126485346Y-61319189D01*
X126492042Y-61317013D01*
X126633392Y-61232751D01*
X126752562Y-61119268D01*
X126756787Y-61112909D01*
X126839727Y-60988075D01*
X126839728Y-60988073D01*
X126843628Y-60982203D01*
X126902064Y-60828368D01*
X126924966Y-60665410D01*
X126925108Y-60655230D01*
X126925199Y-60648762D01*
X126925199Y-60648756D01*
X126925254Y-60644800D01*
X126906911Y-60481266D01*
X126855559Y-60333803D01*
X126852046Y-60262895D01*
X126856763Y-60247625D01*
X126899562Y-60134954D01*
X126902064Y-60128368D01*
X126918150Y-60013908D01*
X126924415Y-59969334D01*
X126924416Y-59969327D01*
X126924966Y-59965410D01*
X126925254Y-59944800D01*
X126906911Y-59781266D01*
X126901111Y-59764609D01*
X126855111Y-59632517D01*
X126852793Y-59625860D01*
X126765589Y-59486305D01*
X126688304Y-59408479D01*
X126654599Y-59374537D01*
X126654595Y-59374534D01*
X126649635Y-59369539D01*
X126510693Y-59281363D01*
X126404693Y-59243618D01*
X126362302Y-59228523D01*
X126362300Y-59228522D01*
X126355668Y-59226161D01*
X126348682Y-59225328D01*
X126348678Y-59225327D01*
X126234184Y-59211675D01*
X126192266Y-59206677D01*
X126185263Y-59207413D01*
X126185262Y-59207413D01*
X126142048Y-59211955D01*
X126028608Y-59223878D01*
X126021940Y-59226148D01*
X125879495Y-59274640D01*
X125879492Y-59274641D01*
X125872828Y-59276910D01*
X125732668Y-59363137D01*
X125721027Y-59374537D01*
X125624963Y-59468610D01*
X125615095Y-59478273D01*
X125525951Y-59616597D01*
X125523540Y-59623220D01*
X125523539Y-59623223D01*
X125472079Y-59764609D01*
X125472078Y-59764614D01*
X125469669Y-59771232D01*
X125449044Y-59934494D01*
X125465102Y-60098268D01*
X125476894Y-60133715D01*
X125517045Y-60254415D01*
X125514877Y-60255136D01*
X125523701Y-60314636D01*
X125517307Y-60340347D01*
X125513197Y-60351639D01*
X125472079Y-60464609D01*
X125472078Y-60464614D01*
X125469669Y-60471232D01*
X125449044Y-60634494D01*
X123133821Y-60634494D01*
X123133821Y-58834494D01*
X129081331Y-58834494D01*
X129097389Y-58998268D01*
X129149332Y-59154415D01*
X129152981Y-59160440D01*
X129228503Y-59285140D01*
X129234579Y-59295173D01*
X129239470Y-59300238D01*
X129239471Y-59300239D01*
X129300211Y-59363137D01*
X129348891Y-59413547D01*
X129486589Y-59503654D01*
X129640828Y-59561015D01*
X129647809Y-59561946D01*
X129647811Y-59561947D01*
X129796961Y-59581848D01*
X129796965Y-59581848D01*
X129803942Y-59582779D01*
X129810953Y-59582141D01*
X129810957Y-59582141D01*
X129960803Y-59568504D01*
X129960804Y-59568504D01*
X129967824Y-59567865D01*
X129996462Y-59558560D01*
X130117630Y-59519190D01*
X130117633Y-59519189D01*
X130124329Y-59517013D01*
X130265679Y-59432751D01*
X130384849Y-59319268D01*
X130400858Y-59295173D01*
X130472014Y-59188075D01*
X130472015Y-59188073D01*
X130475915Y-59182203D01*
X130534351Y-59028368D01*
X130557253Y-58865410D01*
X130557541Y-58844800D01*
X130539198Y-58681266D01*
X130487846Y-58533803D01*
X130484333Y-58462895D01*
X130489050Y-58447625D01*
X130531849Y-58334954D01*
X130534351Y-58328368D01*
X130557253Y-58165410D01*
X130557541Y-58144800D01*
X130539198Y-57981266D01*
X130533398Y-57964609D01*
X130487398Y-57832517D01*
X130485080Y-57825860D01*
X130479185Y-57816425D01*
X130401609Y-57692279D01*
X130397876Y-57686305D01*
X130300798Y-57588547D01*
X130286886Y-57574537D01*
X130286882Y-57574534D01*
X130281922Y-57569539D01*
X130142980Y-57481363D01*
X130093847Y-57463868D01*
X129994589Y-57428523D01*
X129994587Y-57428522D01*
X129987955Y-57426161D01*
X129980969Y-57425328D01*
X129980965Y-57425327D01*
X129866471Y-57411675D01*
X129824553Y-57406677D01*
X129817550Y-57407413D01*
X129817549Y-57407413D01*
X129774335Y-57411955D01*
X129660895Y-57423878D01*
X129654227Y-57426148D01*
X129511782Y-57474640D01*
X129511779Y-57474641D01*
X129505115Y-57476910D01*
X129364955Y-57563137D01*
X129247382Y-57678273D01*
X129158238Y-57816597D01*
X129155827Y-57823220D01*
X129155826Y-57823223D01*
X129104366Y-57964609D01*
X129104365Y-57964614D01*
X129101956Y-57971232D01*
X129081331Y-58134494D01*
X129097389Y-58298268D01*
X129099613Y-58304953D01*
X129149332Y-58454415D01*
X129147164Y-58455136D01*
X129155988Y-58514636D01*
X129149593Y-58540350D01*
X129104366Y-58664609D01*
X129104365Y-58664614D01*
X129101956Y-58671232D01*
X129081331Y-58834494D01*
X123133821Y-58834494D01*
X123133821Y-56955710D01*
X123153823Y-56887589D01*
X123170726Y-56866615D01*
X124389735Y-55647606D01*
X136453843Y-55647606D01*
X136469901Y-55811380D01*
X136521844Y-55967527D01*
X136533151Y-55986197D01*
X136598039Y-56093338D01*
X136607091Y-56108285D01*
X136611982Y-56113350D01*
X136611983Y-56113351D01*
X136668637Y-56172018D01*
X136721403Y-56226659D01*
X136859101Y-56316766D01*
X136927181Y-56342085D01*
X136984056Y-56384577D01*
X137002816Y-56420405D01*
X137016820Y-56462503D01*
X137020469Y-56468528D01*
X137085931Y-56576617D01*
X137102067Y-56603261D01*
X137216379Y-56721635D01*
X137354077Y-56811742D01*
X137508316Y-56869103D01*
X137515297Y-56870034D01*
X137515299Y-56870035D01*
X137664449Y-56889936D01*
X137664453Y-56889936D01*
X137671430Y-56890867D01*
X137678441Y-56890229D01*
X137678445Y-56890229D01*
X137828291Y-56876592D01*
X137828292Y-56876592D01*
X137835312Y-56875953D01*
X137864051Y-56866615D01*
X137985118Y-56827278D01*
X137985121Y-56827277D01*
X137991817Y-56825101D01*
X138133167Y-56740839D01*
X138252337Y-56627356D01*
X138268346Y-56603261D01*
X138339502Y-56496163D01*
X138339503Y-56496161D01*
X138343403Y-56490291D01*
X138401839Y-56336456D01*
X138424741Y-56173498D01*
X138425029Y-56152888D01*
X138406686Y-55989354D01*
X138352568Y-55833948D01*
X138265364Y-55694393D01*
X138177316Y-55605728D01*
X138154374Y-55582625D01*
X138154370Y-55582622D01*
X138149410Y-55577627D01*
X138010468Y-55489451D01*
X137952641Y-55468860D01*
X137895179Y-55427165D01*
X137875919Y-55391599D01*
X137862017Y-55351680D01*
X137857592Y-55338972D01*
X137770388Y-55199417D01*
X137712411Y-55141034D01*
X137659398Y-55087649D01*
X137659394Y-55087646D01*
X137654434Y-55082651D01*
X137515492Y-54994475D01*
X137466359Y-54976980D01*
X137367101Y-54941635D01*
X137367099Y-54941634D01*
X137360467Y-54939273D01*
X137353481Y-54938440D01*
X137353477Y-54938439D01*
X137238983Y-54924787D01*
X137197065Y-54919789D01*
X137190062Y-54920525D01*
X137190061Y-54920525D01*
X137146847Y-54925067D01*
X137033407Y-54936990D01*
X137026739Y-54939260D01*
X136884294Y-54987752D01*
X136884291Y-54987753D01*
X136877627Y-54990022D01*
X136782496Y-55048547D01*
X136765884Y-55058767D01*
X136737467Y-55076249D01*
X136619894Y-55191385D01*
X136530750Y-55329709D01*
X136528339Y-55336332D01*
X136528338Y-55336335D01*
X136476878Y-55477721D01*
X136476877Y-55477726D01*
X136474468Y-55484344D01*
X136453843Y-55647606D01*
X124389735Y-55647606D01*
X125576666Y-54460675D01*
X125579188Y-54458221D01*
X125648012Y-54393138D01*
X125648014Y-54393135D01*
X125651681Y-54389668D01*
X125699411Y-54327239D01*
X125703552Y-54322108D01*
X125751191Y-54266133D01*
X125751192Y-54266132D01*
X125754470Y-54262280D01*
X125757089Y-54257955D01*
X125757093Y-54257950D01*
X125771491Y-54234176D01*
X125779163Y-54222929D01*
X125799120Y-54196826D01*
X125802416Y-54190680D01*
X125818301Y-54161054D01*
X125836243Y-54127592D01*
X125839507Y-54121868D01*
X125847938Y-54107947D01*
X125880221Y-54054642D01*
X125892528Y-54024181D01*
X125898308Y-54011841D01*
X125911440Y-53987350D01*
X125913831Y-53982891D01*
X125939412Y-53908599D01*
X125941722Y-53902421D01*
X125962009Y-53852208D01*
X125971155Y-53829571D01*
X125978432Y-53797539D01*
X125982163Y-53784441D01*
X125992862Y-53753369D01*
X126006243Y-53675900D01*
X126007526Y-53669482D01*
X126023815Y-53597786D01*
X126023815Y-53597785D01*
X126024935Y-53592856D01*
X126026999Y-53560047D01*
X126028585Y-53546547D01*
X126034179Y-53514164D01*
X126035054Y-53494896D01*
X126035436Y-53486494D01*
X126035436Y-53486475D01*
X126035500Y-53485075D01*
X126035500Y-53428892D01*
X126035749Y-53420980D01*
X126039860Y-53355641D01*
X126040178Y-53350587D01*
X126036101Y-53309008D01*
X126035500Y-53296712D01*
X126035500Y-50421016D01*
X126035549Y-50417498D01*
X126038193Y-50322850D01*
X126038193Y-50322847D01*
X126038334Y-50317795D01*
X126027941Y-50239902D01*
X126027241Y-50233353D01*
X126025890Y-50216553D01*
X126020940Y-50155035D01*
X126013101Y-50123122D01*
X126010573Y-50109738D01*
X126006898Y-50082197D01*
X126006229Y-50077180D01*
X125983522Y-50001968D01*
X125981783Y-49995613D01*
X125975135Y-49968547D01*
X125963037Y-49919294D01*
X125950201Y-49889054D01*
X125945564Y-49876243D01*
X125937533Y-49849642D01*
X125937530Y-49849635D01*
X125936068Y-49844792D01*
X125901608Y-49774138D01*
X125898903Y-49768204D01*
X125868188Y-49695844D01*
X125865493Y-49691564D01*
X125865487Y-49691553D01*
X125850684Y-49668047D01*
X125844056Y-49656140D01*
X125831869Y-49631154D01*
X125829654Y-49626612D01*
X125784357Y-49562400D01*
X125780699Y-49556914D01*
X125741529Y-49494714D01*
X125741528Y-49494713D01*
X125738833Y-49490433D01*
X125735492Y-49486644D01*
X125735488Y-49486638D01*
X125717102Y-49465783D01*
X125708656Y-49455088D01*
X125692009Y-49431490D01*
X125689726Y-49428253D01*
X125670091Y-49406750D01*
X125630375Y-49367034D01*
X125624956Y-49361264D01*
X125581650Y-49312142D01*
X125581647Y-49312139D01*
X125578302Y-49308345D01*
X125546011Y-49281821D01*
X125536892Y-49273551D01*
X125533536Y-49270195D01*
X125531626Y-49268569D01*
X125531619Y-49268563D01*
X125399132Y-49155808D01*
X125399130Y-49155806D01*
X125395280Y-49152530D01*
X125187642Y-49026779D01*
X124962571Y-48935845D01*
X124903397Y-48922401D01*
X124730787Y-48883185D01*
X124730784Y-48883184D01*
X124725856Y-48882065D01*
X124720809Y-48881747D01*
X124720806Y-48881747D01*
X124500350Y-48867877D01*
X124483587Y-48866822D01*
X124295524Y-48885263D01*
X124247025Y-48890018D01*
X124247024Y-48890018D01*
X124241998Y-48890511D01*
X124007304Y-48952519D01*
X123785544Y-49051254D01*
X123582422Y-49184174D01*
X123578688Y-49187584D01*
X123435538Y-49318297D01*
X123403164Y-49347858D01*
X123339444Y-49428253D01*
X123255527Y-49534129D01*
X123255523Y-49534135D01*
X123252382Y-49538098D01*
X123205221Y-49622483D01*
X123161619Y-49700500D01*
X123133955Y-49749998D01*
X123092442Y-49864052D01*
X123054409Y-49968547D01*
X123050930Y-49978105D01*
X123049982Y-49983074D01*
X123049981Y-49983078D01*
X123010197Y-50191639D01*
X123005444Y-50216553D01*
X122998666Y-50459205D01*
X122999335Y-50464219D01*
X123017393Y-50599556D01*
X123018500Y-50616220D01*
X123018500Y-52606300D01*
X122998498Y-52674421D01*
X122944842Y-52720914D01*
X122892500Y-52732300D01*
X120247208Y-52732300D01*
X120204941Y-52724999D01*
X120199075Y-52722910D01*
X120184332Y-52717660D01*
X120063189Y-52674523D01*
X120063187Y-52674522D01*
X120056555Y-52672161D01*
X120049569Y-52671328D01*
X120049565Y-52671327D01*
X119935071Y-52657675D01*
X119893153Y-52652677D01*
X119886150Y-52653413D01*
X119886149Y-52653413D01*
X119842935Y-52657955D01*
X119729495Y-52669878D01*
X119722827Y-52672148D01*
X119580382Y-52720640D01*
X119580379Y-52720641D01*
X119573715Y-52722910D01*
X119433555Y-52809137D01*
X119315982Y-52924273D01*
X119226838Y-53062597D01*
X119224427Y-53069220D01*
X119224426Y-53069223D01*
X119172966Y-53210609D01*
X119172965Y-53210614D01*
X119170556Y-53217232D01*
X119149931Y-53380494D01*
X119165989Y-53544268D01*
X119217932Y-53700415D01*
X119233490Y-53726104D01*
X119296153Y-53829571D01*
X119303179Y-53841173D01*
X119417491Y-53959547D01*
X119555189Y-54049654D01*
X119709428Y-54107015D01*
X119716409Y-54107946D01*
X119716411Y-54107947D01*
X119865561Y-54127848D01*
X119865565Y-54127848D01*
X119872542Y-54128779D01*
X119879553Y-54128141D01*
X119879557Y-54128141D01*
X120029403Y-54114504D01*
X120029404Y-54114504D01*
X120036424Y-54113865D01*
X120192929Y-54063013D01*
X120197398Y-54060349D01*
X120248500Y-54049300D01*
X121417169Y-54049300D01*
X121485290Y-54069302D01*
X121531783Y-54122958D01*
X121541887Y-54193232D01*
X121512393Y-54257812D01*
X121506264Y-54264395D01*
X120575655Y-55195004D01*
X120573133Y-55197458D01*
X120500640Y-55266011D01*
X120497573Y-55270023D01*
X120452913Y-55328436D01*
X120448769Y-55333571D01*
X120397851Y-55393399D01*
X120395232Y-55397724D01*
X120395228Y-55397729D01*
X120380830Y-55421503D01*
X120373158Y-55432750D01*
X120353201Y-55458853D01*
X120336795Y-55489451D01*
X120316082Y-55528080D01*
X120312817Y-55533805D01*
X120272100Y-55601037D01*
X120270205Y-55605728D01*
X120259794Y-55631496D01*
X120254014Y-55643837D01*
X120238490Y-55672788D01*
X120236844Y-55677569D01*
X120236842Y-55677573D01*
X120212909Y-55747080D01*
X120210599Y-55753258D01*
X120181166Y-55826108D01*
X120177728Y-55841240D01*
X120173889Y-55858139D01*
X120170158Y-55871238D01*
X120159459Y-55902310D01*
X120146078Y-55979779D01*
X120144798Y-55986183D01*
X120127386Y-56062823D01*
X120125322Y-56095632D01*
X120123736Y-56109132D01*
X120118142Y-56141515D01*
X120117962Y-56145472D01*
X120117962Y-56145475D01*
X120117274Y-56160638D01*
X120116821Y-56170604D01*
X120116821Y-56226787D01*
X120116572Y-56234698D01*
X120112143Y-56305092D01*
X120115218Y-56336456D01*
X120116220Y-56346671D01*
X120116821Y-56358967D01*
X120116821Y-121210021D01*
X120096819Y-121278142D01*
X120043163Y-121324635D01*
X119990821Y-121336021D01*
X119224508Y-121336021D01*
X119156387Y-121316019D01*
X119109894Y-121262363D01*
X119099790Y-121192089D01*
X119129284Y-121127509D01*
X119152237Y-121106808D01*
X119309796Y-120996484D01*
X119309799Y-120996482D01*
X119314307Y-120993325D01*
X119466925Y-120840707D01*
X119472360Y-120832946D01*
X119552874Y-120717959D01*
X119590723Y-120663906D01*
X119593046Y-120658924D01*
X119593049Y-120658919D01*
X119679616Y-120473275D01*
X119679617Y-120473274D01*
X119681939Y-120468293D01*
X119712266Y-120355113D01*
X119736377Y-120265128D01*
X119736377Y-120265126D01*
X119737801Y-120259813D01*
X119756612Y-120044800D01*
X119737801Y-119829787D01*
X119726483Y-119787548D01*
X119683362Y-119626617D01*
X119683361Y-119626615D01*
X119681939Y-119621307D01*
X119679616Y-119616325D01*
X119593049Y-119430681D01*
X119593046Y-119430676D01*
X119590723Y-119425694D01*
X119466925Y-119248893D01*
X119314307Y-119096275D01*
X119276799Y-119070011D01*
X119152240Y-118982794D01*
X119137506Y-118972477D01*
X119132524Y-118970154D01*
X119132519Y-118970151D01*
X118946875Y-118883584D01*
X118946874Y-118883583D01*
X118941893Y-118881261D01*
X118936585Y-118879839D01*
X118936583Y-118879838D01*
X118738728Y-118826823D01*
X118738726Y-118826823D01*
X118733413Y-118825399D01*
X118518400Y-118806588D01*
X118303387Y-118825399D01*
X118298074Y-118826823D01*
X118298072Y-118826823D01*
X118100217Y-118879838D01*
X118100215Y-118879839D01*
X118094907Y-118881261D01*
X118089926Y-118883583D01*
X118089925Y-118883584D01*
X117904281Y-118970151D01*
X117904276Y-118970154D01*
X117899294Y-118972477D01*
X117884560Y-118982794D01*
X117760002Y-119070011D01*
X117722493Y-119096275D01*
X117569875Y-119248893D01*
X117446077Y-119425694D01*
X117443754Y-119430676D01*
X117443751Y-119430681D01*
X117357184Y-119616325D01*
X117354861Y-119621307D01*
X117353439Y-119626615D01*
X117353438Y-119626617D01*
X117310317Y-119787548D01*
X117298999Y-119829787D01*
X117280188Y-120044800D01*
X117298999Y-120259813D01*
X117300423Y-120265126D01*
X117300423Y-120265128D01*
X117324535Y-120355113D01*
X117354861Y-120468293D01*
X117357183Y-120473274D01*
X117357184Y-120473275D01*
X117443751Y-120658919D01*
X117443754Y-120658924D01*
X117446077Y-120663906D01*
X117483926Y-120717959D01*
X117564441Y-120832946D01*
X117569875Y-120840707D01*
X117722493Y-120993325D01*
X117727001Y-120996482D01*
X117727004Y-120996484D01*
X117884563Y-121106808D01*
X117928891Y-121162265D01*
X117936200Y-121232885D01*
X117904169Y-121296245D01*
X117842968Y-121332230D01*
X117812292Y-121336021D01*
X113483313Y-121336021D01*
X113415192Y-121316019D01*
X113368699Y-121262363D01*
X113357894Y-121206197D01*
X113357387Y-121206185D01*
X113357425Y-121204643D01*
X113357500Y-121203101D01*
X113357500Y-120247154D01*
X113342452Y-120089434D01*
X113282908Y-119886466D01*
X113256539Y-119835267D01*
X113188804Y-119703751D01*
X113188802Y-119703748D01*
X113186058Y-119698420D01*
X113055396Y-119532080D01*
X113050865Y-119528148D01*
X113050862Y-119528145D01*
X112907214Y-119403494D01*
X112895637Y-119393448D01*
X112890451Y-119390448D01*
X112890447Y-119390445D01*
X112717742Y-119290533D01*
X112712546Y-119287527D01*
X112512729Y-119218139D01*
X112506794Y-119217278D01*
X112506792Y-119217278D01*
X112309336Y-119188648D01*
X112309333Y-119188648D01*
X112303396Y-119187787D01*
X112092101Y-119197567D01*
X111973425Y-119226168D01*
X111892299Y-119245719D01*
X111892297Y-119245720D01*
X111886466Y-119247125D01*
X111881008Y-119249607D01*
X111881004Y-119249608D01*
X111777999Y-119296442D01*
X111693913Y-119334674D01*
X111561880Y-119428331D01*
X111541818Y-119442563D01*
X111521389Y-119457054D01*
X111375119Y-119609850D01*
X111260380Y-119787548D01*
X111181314Y-119983737D01*
X111140772Y-120191337D01*
X111140500Y-120196899D01*
X111140500Y-120209501D01*
X111120498Y-120277622D01*
X111066842Y-120324115D01*
X110996568Y-120334219D01*
X110988304Y-120332748D01*
X110918319Y-120317873D01*
X110918320Y-120317873D01*
X110911860Y-120316500D01*
X110726140Y-120316500D01*
X110719687Y-120317872D01*
X110719683Y-120317872D01*
X110642778Y-120334219D01*
X110544479Y-120355113D01*
X110538450Y-120357797D01*
X110538448Y-120357798D01*
X110380847Y-120427967D01*
X110380845Y-120427968D01*
X110374817Y-120430652D01*
X110369476Y-120434532D01*
X110369475Y-120434533D01*
X110229910Y-120535932D01*
X110229908Y-120535934D01*
X110224566Y-120539815D01*
X110100296Y-120677831D01*
X110007436Y-120838669D01*
X109950046Y-121015298D01*
X109930633Y-121200000D01*
X109931323Y-121206565D01*
X109931323Y-121210021D01*
X109911321Y-121278142D01*
X109857665Y-121324635D01*
X109805323Y-121336021D01*
X106032677Y-121336021D01*
X105964556Y-121316019D01*
X105918063Y-121262363D01*
X105906677Y-121210021D01*
X105906677Y-121206565D01*
X105907367Y-121200000D01*
X105887954Y-121015298D01*
X105830564Y-120838669D01*
X105737704Y-120677831D01*
X105613434Y-120539815D01*
X105597700Y-120528383D01*
X105468526Y-120434533D01*
X105468525Y-120434532D01*
X105463184Y-120430652D01*
X105457156Y-120427968D01*
X105457154Y-120427967D01*
X105299552Y-120357798D01*
X105299551Y-120357798D01*
X105293521Y-120355113D01*
X105195222Y-120334219D01*
X105118317Y-120317872D01*
X105118313Y-120317872D01*
X105111860Y-120316500D01*
X104926140Y-120316500D01*
X104919687Y-120317872D01*
X104919683Y-120317872D01*
X104872910Y-120327814D01*
X104846735Y-120333378D01*
X104775945Y-120327976D01*
X104719313Y-120285159D01*
X104695109Y-120222098D01*
X104693908Y-120209501D01*
X104682452Y-120089434D01*
X104622908Y-119886466D01*
X104596539Y-119835267D01*
X104528804Y-119703751D01*
X104528802Y-119703748D01*
X104526058Y-119698420D01*
X104395396Y-119532080D01*
X104390865Y-119528148D01*
X104390862Y-119528145D01*
X104247214Y-119403494D01*
X104235637Y-119393448D01*
X104230451Y-119390448D01*
X104230447Y-119390445D01*
X104057742Y-119290533D01*
X104052546Y-119287527D01*
X103852729Y-119218139D01*
X103846794Y-119217278D01*
X103846792Y-119217278D01*
X103649336Y-119188648D01*
X103649333Y-119188648D01*
X103643396Y-119187787D01*
X103432101Y-119197567D01*
X103313425Y-119226168D01*
X103232299Y-119245719D01*
X103232297Y-119245720D01*
X103226466Y-119247125D01*
X103221008Y-119249607D01*
X103221004Y-119249608D01*
X103117999Y-119296442D01*
X103033913Y-119334674D01*
X102901880Y-119428331D01*
X102881818Y-119442563D01*
X102861389Y-119457054D01*
X102715119Y-119609850D01*
X102600380Y-119787548D01*
X102521314Y-119983737D01*
X102480772Y-120191337D01*
X102480500Y-120196899D01*
X102480500Y-120413769D01*
X102460498Y-120481890D01*
X102406842Y-120528383D01*
X102336568Y-120538487D01*
X102271988Y-120508993D01*
X102265405Y-120502864D01*
X101591475Y-119828934D01*
X101589021Y-119826412D01*
X101523938Y-119757588D01*
X101523935Y-119757586D01*
X101520468Y-119753919D01*
X101458039Y-119706189D01*
X101452908Y-119702048D01*
X101396933Y-119654409D01*
X101396932Y-119654408D01*
X101393080Y-119651130D01*
X101388755Y-119648511D01*
X101388750Y-119648507D01*
X101364976Y-119634109D01*
X101353729Y-119626437D01*
X101327626Y-119606480D01*
X101313917Y-119599129D01*
X101258399Y-119569361D01*
X101252668Y-119566093D01*
X101185442Y-119525379D01*
X101154981Y-119513072D01*
X101142641Y-119507292D01*
X101118150Y-119494160D01*
X101118151Y-119494160D01*
X101113691Y-119491769D01*
X101108910Y-119490123D01*
X101108906Y-119490121D01*
X101039399Y-119466188D01*
X101033221Y-119463878D01*
X100980464Y-119442563D01*
X100960371Y-119434445D01*
X100928339Y-119427168D01*
X100915241Y-119423437D01*
X100884169Y-119412738D01*
X100806700Y-119399357D01*
X100800296Y-119398077D01*
X100723656Y-119380665D01*
X100690847Y-119378601D01*
X100677347Y-119377015D01*
X100644964Y-119371421D01*
X100641007Y-119371241D01*
X100641004Y-119371241D01*
X100617294Y-119370164D01*
X100617275Y-119370164D01*
X100615875Y-119370100D01*
X100559692Y-119370100D01*
X100551780Y-119369851D01*
X100546186Y-119369499D01*
X100481387Y-119365422D01*
X100442345Y-119369250D01*
X100439808Y-119369499D01*
X100427512Y-119370100D01*
X98985070Y-119370100D01*
X98916949Y-119350098D01*
X98870456Y-119296442D01*
X98860352Y-119226168D01*
X98882747Y-119170574D01*
X98955009Y-119070011D01*
X98960313Y-119061183D01*
X99054670Y-118870267D01*
X99058469Y-118860672D01*
X99120377Y-118656910D01*
X99122555Y-118646837D01*
X99123986Y-118635962D01*
X99121775Y-118621778D01*
X99108617Y-118618000D01*
X95122000Y-118618000D01*
X95053879Y-118597998D01*
X95007386Y-118544342D01*
X94996000Y-118492000D01*
X94996000Y-118236000D01*
X95016002Y-118167879D01*
X95069658Y-118121386D01*
X95122000Y-118110000D01*
X99108344Y-118110000D01*
X99121875Y-118106027D01*
X99123180Y-118096947D01*
X99081214Y-117929875D01*
X99077894Y-117920124D01*
X98992972Y-117724814D01*
X98988105Y-117715739D01*
X98872426Y-117536926D01*
X98866136Y-117528757D01*
X98722806Y-117371240D01*
X98715273Y-117364215D01*
X98548139Y-117232222D01*
X98539556Y-117226520D01*
X98502602Y-117206120D01*
X98452631Y-117155687D01*
X98437859Y-117086245D01*
X98462975Y-117019839D01*
X98490327Y-116993232D01*
X98551500Y-116949598D01*
X98669860Y-116865173D01*
X98705797Y-116829362D01*
X98802549Y-116732947D01*
X98828096Y-116707489D01*
X98838939Y-116692400D01*
X98955435Y-116530277D01*
X98958453Y-116526077D01*
X98971242Y-116500202D01*
X99667837Y-116500202D01*
X99683977Y-116692400D01*
X99685676Y-116698325D01*
X99733519Y-116865173D01*
X99737140Y-116877802D01*
X99739955Y-116883279D01*
X99739956Y-116883282D01*
X99822487Y-117043871D01*
X99825302Y-117049348D01*
X99829125Y-117054172D01*
X99829128Y-117054176D01*
X99921601Y-117170846D01*
X99945106Y-117200502D01*
X100091987Y-117325508D01*
X100260351Y-117419604D01*
X100443786Y-117479205D01*
X100635303Y-117502042D01*
X100641438Y-117501570D01*
X100641440Y-117501570D01*
X100821467Y-117487718D01*
X100821471Y-117487717D01*
X100827609Y-117487245D01*
X101013379Y-117435377D01*
X101154257Y-117364215D01*
X101180035Y-117351194D01*
X101180037Y-117351193D01*
X101185536Y-117348415D01*
X101337523Y-117229669D01*
X101341549Y-117225005D01*
X101341552Y-117225002D01*
X101459522Y-117088332D01*
X101459523Y-117088330D01*
X101463551Y-117083664D01*
X101511185Y-116999813D01*
X101555775Y-116921322D01*
X101555777Y-116921318D01*
X101558820Y-116915961D01*
X101619700Y-116732947D01*
X101632821Y-116629088D01*
X101643432Y-116545097D01*
X101643433Y-116545087D01*
X101643874Y-116541594D01*
X101644259Y-116514000D01*
X101625438Y-116322046D01*
X101569691Y-116137404D01*
X101506611Y-116018767D01*
X101482036Y-115972548D01*
X101482034Y-115972545D01*
X101479142Y-115967106D01*
X101475252Y-115962336D01*
X101475249Y-115962332D01*
X101361135Y-115822414D01*
X101361132Y-115822411D01*
X101357240Y-115817639D01*
X101352491Y-115813710D01*
X101213377Y-115698625D01*
X101213374Y-115698623D01*
X101208627Y-115694696D01*
X101038966Y-115602960D01*
X100927869Y-115568570D01*
X100860604Y-115547748D01*
X100860601Y-115547747D01*
X100854717Y-115545926D01*
X100848592Y-115545282D01*
X100848591Y-115545282D01*
X100669027Y-115526409D01*
X100669026Y-115526409D01*
X100662899Y-115525765D01*
X100583188Y-115533019D01*
X100476958Y-115542687D01*
X100476955Y-115542688D01*
X100470819Y-115543246D01*
X100464913Y-115544984D01*
X100464909Y-115544985D01*
X100326795Y-115585634D01*
X100285792Y-115597702D01*
X100114866Y-115687060D01*
X99964551Y-115807916D01*
X99960593Y-115812633D01*
X99960591Y-115812635D01*
X99951055Y-115824000D01*
X99840574Y-115955666D01*
X99837610Y-115961058D01*
X99837607Y-115961062D01*
X99831293Y-115972548D01*
X99747656Y-116124683D01*
X99689337Y-116308529D01*
X99688651Y-116314646D01*
X99688650Y-116314650D01*
X99672899Y-116455075D01*
X99667837Y-116500202D01*
X98971242Y-116500202D01*
X98974269Y-116494077D01*
X99055136Y-116330453D01*
X99055137Y-116330451D01*
X99057430Y-116325811D01*
X99122370Y-116112069D01*
X99151529Y-115890590D01*
X99153156Y-115824000D01*
X99134852Y-115601361D01*
X99080431Y-115384702D01*
X98991354Y-115179840D01*
X98870014Y-114992277D01*
X98719670Y-114827051D01*
X98715619Y-114823852D01*
X98715615Y-114823848D01*
X98548414Y-114691800D01*
X98548410Y-114691798D01*
X98544359Y-114688598D01*
X98503053Y-114665796D01*
X98453084Y-114615364D01*
X98438312Y-114545921D01*
X98463428Y-114479516D01*
X98490780Y-114452909D01*
X98551500Y-114409598D01*
X98669860Y-114325173D01*
X98828096Y-114167489D01*
X98887594Y-114084689D01*
X98955435Y-113990277D01*
X98958453Y-113986077D01*
X98979320Y-113943857D01*
X99055136Y-113790453D01*
X99055137Y-113790451D01*
X99057430Y-113785811D01*
X99122370Y-113572069D01*
X99151529Y-113350590D01*
X99153156Y-113284000D01*
X99134852Y-113061361D01*
X99080431Y-112844702D01*
X98991354Y-112639840D01*
X98870014Y-112452277D01*
X98719670Y-112287051D01*
X98715619Y-112283852D01*
X98715615Y-112283848D01*
X98548414Y-112151800D01*
X98548410Y-112151798D01*
X98544359Y-112148598D01*
X98503053Y-112125796D01*
X98453084Y-112075364D01*
X98438312Y-112005921D01*
X98463428Y-111939516D01*
X98490780Y-111912909D01*
X98551500Y-111869598D01*
X98669860Y-111785173D01*
X98828096Y-111627489D01*
X98887594Y-111544689D01*
X98955435Y-111450277D01*
X98958453Y-111446077D01*
X98979320Y-111403857D01*
X99055136Y-111250453D01*
X99055137Y-111250451D01*
X99057430Y-111245811D01*
X99122370Y-111032069D01*
X99151529Y-110810590D01*
X99153156Y-110744000D01*
X99134852Y-110521361D01*
X99080431Y-110304702D01*
X98991354Y-110099840D01*
X98870014Y-109912277D01*
X98719670Y-109747051D01*
X98715619Y-109743852D01*
X98715615Y-109743848D01*
X98548414Y-109611800D01*
X98548410Y-109611798D01*
X98544359Y-109608598D01*
X98503053Y-109585796D01*
X98453084Y-109535364D01*
X98438312Y-109465921D01*
X98463428Y-109399516D01*
X98490780Y-109372909D01*
X98551500Y-109329598D01*
X98669860Y-109245173D01*
X98828096Y-109087489D01*
X98887594Y-109004689D01*
X98955435Y-108910277D01*
X98958453Y-108906077D01*
X98979320Y-108863857D01*
X99055136Y-108710453D01*
X99055137Y-108710451D01*
X99057430Y-108705811D01*
X99122370Y-108492069D01*
X99151529Y-108270590D01*
X99153156Y-108204000D01*
X99134852Y-107981361D01*
X99080431Y-107764702D01*
X98991354Y-107559840D01*
X98870014Y-107372277D01*
X98719670Y-107207051D01*
X98715619Y-107203852D01*
X98715615Y-107203848D01*
X98548414Y-107071800D01*
X98548410Y-107071798D01*
X98544359Y-107068598D01*
X98503053Y-107045796D01*
X98453084Y-106995364D01*
X98438312Y-106925921D01*
X98463428Y-106859516D01*
X98490780Y-106832909D01*
X98551500Y-106789598D01*
X98669860Y-106705173D01*
X98828096Y-106547489D01*
X98887594Y-106464689D01*
X98955435Y-106370277D01*
X98958453Y-106366077D01*
X98979320Y-106323857D01*
X99055136Y-106170453D01*
X99055137Y-106170451D01*
X99057430Y-106165811D01*
X99122370Y-105952069D01*
X99151529Y-105730590D01*
X99153156Y-105664000D01*
X99134852Y-105441361D01*
X99080431Y-105224702D01*
X98991354Y-105019840D01*
X98870014Y-104832277D01*
X98719670Y-104667051D01*
X98715619Y-104663852D01*
X98715615Y-104663848D01*
X98548414Y-104531800D01*
X98548410Y-104531798D01*
X98544359Y-104528598D01*
X98503053Y-104505796D01*
X98453084Y-104455364D01*
X98438312Y-104385921D01*
X98463428Y-104319516D01*
X98490780Y-104292909D01*
X98551500Y-104249598D01*
X98669860Y-104165173D01*
X98828096Y-104007489D01*
X98887594Y-103924689D01*
X98955435Y-103830277D01*
X98958453Y-103826077D01*
X98979320Y-103783857D01*
X99055136Y-103630453D01*
X99055137Y-103630451D01*
X99057430Y-103625811D01*
X99122370Y-103412069D01*
X99151529Y-103190590D01*
X99153156Y-103124000D01*
X99134852Y-102901361D01*
X99080431Y-102684702D01*
X98991354Y-102479840D01*
X98870014Y-102292277D01*
X98719670Y-102127051D01*
X98715619Y-102123852D01*
X98715615Y-102123848D01*
X98548414Y-101991800D01*
X98548410Y-101991798D01*
X98544359Y-101988598D01*
X98503053Y-101965796D01*
X98453084Y-101915364D01*
X98438312Y-101845921D01*
X98463428Y-101779516D01*
X98490780Y-101752909D01*
X98551500Y-101709598D01*
X98669860Y-101625173D01*
X98828096Y-101467489D01*
X98887594Y-101384689D01*
X98955435Y-101290277D01*
X98958453Y-101286077D01*
X98979320Y-101243857D01*
X99055136Y-101090453D01*
X99055137Y-101090451D01*
X99057430Y-101085811D01*
X99122370Y-100872069D01*
X99151529Y-100650590D01*
X99153156Y-100584000D01*
X99134852Y-100361361D01*
X99080431Y-100144702D01*
X98991354Y-99939840D01*
X98870014Y-99752277D01*
X98719670Y-99587051D01*
X98715619Y-99583852D01*
X98715615Y-99583848D01*
X98548414Y-99451800D01*
X98548410Y-99451798D01*
X98544359Y-99448598D01*
X98503053Y-99425796D01*
X98453084Y-99375364D01*
X98438312Y-99305921D01*
X98463428Y-99239516D01*
X98490780Y-99212909D01*
X98551500Y-99169598D01*
X98669860Y-99085173D01*
X98828096Y-98927489D01*
X98887594Y-98844689D01*
X98955435Y-98750277D01*
X98958453Y-98746077D01*
X98979320Y-98703857D01*
X99055136Y-98550453D01*
X99055137Y-98550451D01*
X99057430Y-98545811D01*
X99122370Y-98332069D01*
X99151529Y-98110590D01*
X99153156Y-98044000D01*
X99134852Y-97821361D01*
X99080431Y-97604702D01*
X98991354Y-97399840D01*
X98870014Y-97212277D01*
X98719670Y-97047051D01*
X98715619Y-97043852D01*
X98715615Y-97043848D01*
X98548414Y-96911800D01*
X98548410Y-96911798D01*
X98544359Y-96908598D01*
X98503053Y-96885796D01*
X98453084Y-96835364D01*
X98438312Y-96765921D01*
X98463428Y-96699516D01*
X98490780Y-96672909D01*
X98551500Y-96629598D01*
X98669860Y-96545173D01*
X98828096Y-96387489D01*
X98887594Y-96304689D01*
X98955435Y-96210277D01*
X98958453Y-96206077D01*
X98979320Y-96163857D01*
X99055136Y-96010453D01*
X99055137Y-96010451D01*
X99057430Y-96005811D01*
X99122370Y-95792069D01*
X99151529Y-95570590D01*
X99153156Y-95504000D01*
X99134852Y-95281361D01*
X99080431Y-95064702D01*
X98991354Y-94859840D01*
X98870014Y-94672277D01*
X98719670Y-94507051D01*
X98715619Y-94503852D01*
X98715615Y-94503848D01*
X98548414Y-94371800D01*
X98548410Y-94371798D01*
X98544359Y-94368598D01*
X98503053Y-94345796D01*
X98453084Y-94295364D01*
X98438312Y-94225921D01*
X98463428Y-94159516D01*
X98490780Y-94132909D01*
X98551500Y-94089598D01*
X98669860Y-94005173D01*
X98828096Y-93847489D01*
X98887594Y-93764689D01*
X98955435Y-93670277D01*
X98958453Y-93666077D01*
X98979320Y-93623857D01*
X99055136Y-93470453D01*
X99055137Y-93470451D01*
X99057430Y-93465811D01*
X99122370Y-93252069D01*
X99151529Y-93030590D01*
X99153156Y-92964000D01*
X99134852Y-92741361D01*
X99080431Y-92524702D01*
X98991354Y-92319840D01*
X98870014Y-92132277D01*
X98719670Y-91967051D01*
X98715619Y-91963852D01*
X98715615Y-91963848D01*
X98548414Y-91831800D01*
X98548410Y-91831798D01*
X98544359Y-91828598D01*
X98503053Y-91805796D01*
X98453084Y-91755364D01*
X98438312Y-91685921D01*
X98463428Y-91619516D01*
X98490780Y-91592909D01*
X98551500Y-91549598D01*
X98669860Y-91465173D01*
X98828096Y-91307489D01*
X98887594Y-91224689D01*
X98955435Y-91130277D01*
X98958453Y-91126077D01*
X98979320Y-91083857D01*
X99055136Y-90930453D01*
X99055137Y-90930451D01*
X99057430Y-90925811D01*
X99122370Y-90712069D01*
X99151529Y-90490590D01*
X99153156Y-90424000D01*
X99134852Y-90201361D01*
X99080431Y-89984702D01*
X98991354Y-89779840D01*
X98870014Y-89592277D01*
X98719670Y-89427051D01*
X98715619Y-89423852D01*
X98715615Y-89423848D01*
X98548414Y-89291800D01*
X98548410Y-89291798D01*
X98544359Y-89288598D01*
X98503053Y-89265796D01*
X98453084Y-89215364D01*
X98438312Y-89145921D01*
X98463428Y-89079516D01*
X98490780Y-89052909D01*
X98551500Y-89009598D01*
X98669860Y-88925173D01*
X98828096Y-88767489D01*
X98887594Y-88684689D01*
X98955435Y-88590277D01*
X98958453Y-88586077D01*
X98979320Y-88543857D01*
X99055136Y-88390453D01*
X99055137Y-88390451D01*
X99057430Y-88385811D01*
X99122370Y-88172069D01*
X99151529Y-87950590D01*
X99153156Y-87884000D01*
X99134852Y-87661361D01*
X99080431Y-87444702D01*
X98991354Y-87239840D01*
X98870014Y-87052277D01*
X98719670Y-86887051D01*
X98715619Y-86883852D01*
X98715615Y-86883848D01*
X98548414Y-86751800D01*
X98548410Y-86751798D01*
X98544359Y-86748598D01*
X98503053Y-86725796D01*
X98453084Y-86675364D01*
X98438312Y-86605921D01*
X98463428Y-86539516D01*
X98490780Y-86512909D01*
X98551500Y-86469598D01*
X98669860Y-86385173D01*
X98828096Y-86227489D01*
X98887594Y-86144689D01*
X98955435Y-86050277D01*
X98958453Y-86046077D01*
X98979320Y-86003857D01*
X99055136Y-85850453D01*
X99055137Y-85850451D01*
X99057430Y-85845811D01*
X99122370Y-85632069D01*
X99151529Y-85410590D01*
X99153156Y-85344000D01*
X99134852Y-85121361D01*
X99080431Y-84904702D01*
X98991354Y-84699840D01*
X98870014Y-84512277D01*
X98719670Y-84347051D01*
X98715619Y-84343852D01*
X98715615Y-84343848D01*
X98548414Y-84211800D01*
X98548410Y-84211798D01*
X98544359Y-84208598D01*
X98503053Y-84185796D01*
X98453084Y-84135364D01*
X98438312Y-84065921D01*
X98463428Y-83999516D01*
X98490780Y-83972909D01*
X98551500Y-83929598D01*
X98669860Y-83845173D01*
X98828096Y-83687489D01*
X98887594Y-83604689D01*
X98955435Y-83510277D01*
X98958453Y-83506077D01*
X98979320Y-83463857D01*
X99055136Y-83310453D01*
X99055137Y-83310451D01*
X99057430Y-83305811D01*
X99122370Y-83092069D01*
X99151529Y-82870590D01*
X99153156Y-82804000D01*
X99134852Y-82581361D01*
X99080431Y-82364702D01*
X98991354Y-82159840D01*
X98870014Y-81972277D01*
X98719670Y-81807051D01*
X98715619Y-81803852D01*
X98715615Y-81803848D01*
X98548414Y-81671800D01*
X98548410Y-81671798D01*
X98544359Y-81668598D01*
X98503053Y-81645796D01*
X98453084Y-81595364D01*
X98438312Y-81525921D01*
X98463428Y-81459516D01*
X98490780Y-81432909D01*
X98551500Y-81389598D01*
X98669860Y-81305173D01*
X98828096Y-81147489D01*
X98887594Y-81064689D01*
X98955435Y-80970277D01*
X98958453Y-80966077D01*
X98979320Y-80923857D01*
X99055136Y-80770453D01*
X99055137Y-80770451D01*
X99057430Y-80765811D01*
X99122370Y-80552069D01*
X99151529Y-80330590D01*
X99153156Y-80264000D01*
X99134852Y-80041361D01*
X99080431Y-79824702D01*
X98991354Y-79619840D01*
X98870014Y-79432277D01*
X98719670Y-79267051D01*
X98715619Y-79263852D01*
X98715615Y-79263848D01*
X98548414Y-79131800D01*
X98548410Y-79131798D01*
X98544359Y-79128598D01*
X98503053Y-79105796D01*
X98453084Y-79055364D01*
X98438312Y-78985921D01*
X98463428Y-78919516D01*
X98490780Y-78892909D01*
X98551500Y-78849598D01*
X98669860Y-78765173D01*
X98828096Y-78607489D01*
X98887594Y-78524689D01*
X98955435Y-78430277D01*
X98958453Y-78426077D01*
X98979320Y-78383857D01*
X99055136Y-78230453D01*
X99055137Y-78230451D01*
X99057430Y-78225811D01*
X99122370Y-78012069D01*
X99151529Y-77790590D01*
X99153156Y-77724000D01*
X99134852Y-77501361D01*
X99080431Y-77284702D01*
X98991354Y-77079840D01*
X98870014Y-76892277D01*
X98719670Y-76727051D01*
X98715619Y-76723852D01*
X98715615Y-76723848D01*
X98548414Y-76591800D01*
X98548410Y-76591798D01*
X98544359Y-76588598D01*
X98503053Y-76565796D01*
X98453084Y-76515364D01*
X98438312Y-76445921D01*
X98463428Y-76379516D01*
X98490780Y-76352909D01*
X98551500Y-76309598D01*
X98669860Y-76225173D01*
X98828096Y-76067489D01*
X98887594Y-75984689D01*
X98955435Y-75890277D01*
X98958453Y-75886077D01*
X98979320Y-75843857D01*
X99055136Y-75690453D01*
X99055137Y-75690451D01*
X99057430Y-75685811D01*
X99122370Y-75472069D01*
X99151529Y-75250590D01*
X99153156Y-75184000D01*
X99134852Y-74961361D01*
X99080431Y-74744702D01*
X98991354Y-74539840D01*
X98870014Y-74352277D01*
X98719670Y-74187051D01*
X98715619Y-74183852D01*
X98715615Y-74183848D01*
X98548414Y-74051800D01*
X98548410Y-74051798D01*
X98544359Y-74048598D01*
X98503053Y-74025796D01*
X98453084Y-73975364D01*
X98438312Y-73905921D01*
X98463428Y-73839516D01*
X98490780Y-73812909D01*
X98551500Y-73769598D01*
X98669860Y-73685173D01*
X98828096Y-73527489D01*
X98887594Y-73444689D01*
X98955435Y-73350277D01*
X98958453Y-73346077D01*
X98979320Y-73303857D01*
X99055136Y-73150453D01*
X99055137Y-73150451D01*
X99057430Y-73145811D01*
X99122370Y-72932069D01*
X99151529Y-72710590D01*
X99153156Y-72644000D01*
X99134852Y-72421361D01*
X99080431Y-72204702D01*
X98991354Y-71999840D01*
X98870014Y-71812277D01*
X98719670Y-71647051D01*
X98715619Y-71643852D01*
X98715615Y-71643848D01*
X98548414Y-71511800D01*
X98548410Y-71511798D01*
X98544359Y-71508598D01*
X98503053Y-71485796D01*
X98453084Y-71435364D01*
X98438312Y-71365921D01*
X98463428Y-71299516D01*
X98490780Y-71272909D01*
X98551500Y-71229598D01*
X98669860Y-71145173D01*
X98828096Y-70987489D01*
X98887594Y-70904689D01*
X98955435Y-70810277D01*
X98958453Y-70806077D01*
X98979320Y-70763857D01*
X99055136Y-70610453D01*
X99055137Y-70610451D01*
X99057430Y-70605811D01*
X99122370Y-70392069D01*
X99151529Y-70170590D01*
X99153156Y-70104000D01*
X99134852Y-69881361D01*
X99080431Y-69664702D01*
X98991354Y-69459840D01*
X98870014Y-69272277D01*
X98719670Y-69107051D01*
X98715619Y-69103852D01*
X98715615Y-69103848D01*
X98548414Y-68971800D01*
X98548410Y-68971798D01*
X98544359Y-68968598D01*
X98503053Y-68945796D01*
X98453084Y-68895364D01*
X98438312Y-68825921D01*
X98463428Y-68759516D01*
X98490780Y-68732909D01*
X98551500Y-68689598D01*
X98669860Y-68605173D01*
X98828096Y-68447489D01*
X98887594Y-68364689D01*
X98955435Y-68270277D01*
X98958453Y-68266077D01*
X98979320Y-68223857D01*
X99055136Y-68070453D01*
X99055137Y-68070451D01*
X99057430Y-68065811D01*
X99122370Y-67852069D01*
X99151529Y-67630590D01*
X99153156Y-67564000D01*
X99134852Y-67341361D01*
X99080431Y-67124702D01*
X98991354Y-66919840D01*
X98870014Y-66732277D01*
X98719670Y-66567051D01*
X98715619Y-66563852D01*
X98715615Y-66563848D01*
X98548414Y-66431800D01*
X98548410Y-66431798D01*
X98544359Y-66428598D01*
X98503053Y-66405796D01*
X98453084Y-66355364D01*
X98438312Y-66285921D01*
X98463428Y-66219516D01*
X98490780Y-66192909D01*
X98547378Y-66152538D01*
X98669860Y-66065173D01*
X98689209Y-66045892D01*
X98809514Y-65926006D01*
X98828096Y-65907489D01*
X98887594Y-65824689D01*
X98955435Y-65730277D01*
X98958453Y-65726077D01*
X98979320Y-65683857D01*
X99055136Y-65530453D01*
X99055137Y-65530451D01*
X99057430Y-65525811D01*
X99122370Y-65312069D01*
X99151529Y-65090590D01*
X99153156Y-65024000D01*
X99134852Y-64801361D01*
X99080431Y-64584702D01*
X98991354Y-64379840D01*
X98870014Y-64192277D01*
X98719670Y-64027051D01*
X98715619Y-64023852D01*
X98715615Y-64023848D01*
X98548414Y-63891800D01*
X98548410Y-63891798D01*
X98544359Y-63888598D01*
X98503053Y-63865796D01*
X98453084Y-63815364D01*
X98438312Y-63745921D01*
X98463428Y-63679516D01*
X98490780Y-63652909D01*
X98551500Y-63609598D01*
X98669860Y-63525173D01*
X98828096Y-63367489D01*
X98887594Y-63284689D01*
X98955435Y-63190277D01*
X98958453Y-63186077D01*
X98979320Y-63143857D01*
X99055136Y-62990453D01*
X99055137Y-62990451D01*
X99057430Y-62985811D01*
X99122370Y-62772069D01*
X99151529Y-62550590D01*
X99153156Y-62484000D01*
X99134852Y-62261361D01*
X99080431Y-62044702D01*
X98991354Y-61839840D01*
X98870014Y-61652277D01*
X98719670Y-61487051D01*
X98715619Y-61483852D01*
X98715615Y-61483848D01*
X98548414Y-61351800D01*
X98548410Y-61351798D01*
X98544359Y-61348598D01*
X98503053Y-61325796D01*
X98453084Y-61275364D01*
X98438312Y-61205921D01*
X98463428Y-61139516D01*
X98490780Y-61112909D01*
X98551500Y-61069598D01*
X98669860Y-60985173D01*
X98679454Y-60975613D01*
X98824435Y-60831137D01*
X98828096Y-60827489D01*
X98832477Y-60821393D01*
X98955435Y-60650277D01*
X98958453Y-60646077D01*
X98961031Y-60640862D01*
X99055136Y-60450453D01*
X99055137Y-60450451D01*
X99057430Y-60445811D01*
X99122370Y-60232069D01*
X99151529Y-60010590D01*
X99153156Y-59944000D01*
X99134852Y-59721361D01*
X99080431Y-59504702D01*
X98991354Y-59299840D01*
X98943689Y-59226161D01*
X98872822Y-59116617D01*
X98872820Y-59116614D01*
X98870014Y-59112277D01*
X98719670Y-58947051D01*
X98715619Y-58943852D01*
X98715615Y-58943848D01*
X98548414Y-58811800D01*
X98548410Y-58811798D01*
X98544359Y-58808598D01*
X98503053Y-58785796D01*
X98453084Y-58735364D01*
X98438312Y-58665921D01*
X98463428Y-58599516D01*
X98490780Y-58572909D01*
X98556740Y-58525860D01*
X98669860Y-58445173D01*
X98828096Y-58287489D01*
X98887594Y-58204689D01*
X98955435Y-58110277D01*
X98958453Y-58106077D01*
X98979320Y-58063857D01*
X99055136Y-57910453D01*
X99055137Y-57910451D01*
X99057430Y-57905811D01*
X99122370Y-57692069D01*
X99151529Y-57470590D01*
X99153156Y-57404000D01*
X99134852Y-57181361D01*
X99080431Y-56964702D01*
X98991354Y-56759840D01*
X98893336Y-56608327D01*
X98872822Y-56576617D01*
X98872820Y-56576614D01*
X98870014Y-56572277D01*
X98719670Y-56407051D01*
X98715619Y-56403852D01*
X98715615Y-56403848D01*
X98548414Y-56271800D01*
X98548410Y-56271798D01*
X98544359Y-56268598D01*
X98503053Y-56245796D01*
X98453084Y-56195364D01*
X98438312Y-56125921D01*
X98463428Y-56059516D01*
X98490780Y-56032909D01*
X98556268Y-55986197D01*
X98669860Y-55905173D01*
X98744246Y-55831047D01*
X98824435Y-55751137D01*
X98828096Y-55747489D01*
X98861957Y-55700367D01*
X98955435Y-55570277D01*
X98958453Y-55566077D01*
X98979320Y-55523857D01*
X99055136Y-55370453D01*
X99055137Y-55370451D01*
X99057430Y-55365811D01*
X99089900Y-55258940D01*
X99120865Y-55157023D01*
X99120865Y-55157021D01*
X99122370Y-55152069D01*
X99151529Y-54930590D01*
X99153156Y-54864000D01*
X99134852Y-54641361D01*
X99080431Y-54424702D01*
X98991354Y-54219840D01*
X98893967Y-54069302D01*
X98872822Y-54036617D01*
X98872820Y-54036614D01*
X98870014Y-54032277D01*
X98719670Y-53867051D01*
X98715619Y-53863852D01*
X98715615Y-53863848D01*
X98548414Y-53731800D01*
X98548410Y-53731798D01*
X98544359Y-53728598D01*
X98503053Y-53705796D01*
X98453084Y-53655364D01*
X98438312Y-53585921D01*
X98463428Y-53519516D01*
X98490780Y-53492909D01*
X98551500Y-53449598D01*
X98669860Y-53365173D01*
X98679426Y-53355641D01*
X98824435Y-53211137D01*
X98828096Y-53207489D01*
X98887594Y-53124689D01*
X98955435Y-53030277D01*
X98958453Y-53026077D01*
X98979320Y-52983857D01*
X99055136Y-52830453D01*
X99055137Y-52830451D01*
X99057430Y-52825811D01*
X99122370Y-52612069D01*
X99151529Y-52390590D01*
X99153156Y-52324000D01*
X99134852Y-52101361D01*
X99080431Y-51884702D01*
X98991354Y-51679840D01*
X98870014Y-51492277D01*
X98719670Y-51327051D01*
X98715619Y-51323852D01*
X98715615Y-51323848D01*
X98548414Y-51191800D01*
X98548410Y-51191798D01*
X98544359Y-51188598D01*
X98503053Y-51165796D01*
X98453084Y-51115364D01*
X98438312Y-51045921D01*
X98463428Y-50979516D01*
X98490780Y-50952909D01*
X98551500Y-50909598D01*
X98669860Y-50825173D01*
X98828096Y-50667489D01*
X98887594Y-50584689D01*
X98955435Y-50490277D01*
X98958453Y-50486077D01*
X98979320Y-50443857D01*
X99055136Y-50290453D01*
X99055137Y-50290451D01*
X99057430Y-50285811D01*
X99098654Y-50150128D01*
X99120865Y-50077023D01*
X99120865Y-50077021D01*
X99122370Y-50072069D01*
X99151529Y-49850590D01*
X99153156Y-49784000D01*
X99134852Y-49561361D01*
X99080431Y-49344702D01*
X98991354Y-49139840D01*
X98870014Y-48952277D01*
X98719670Y-48787051D01*
X98715619Y-48783852D01*
X98715615Y-48783848D01*
X98548414Y-48651800D01*
X98548410Y-48651798D01*
X98544359Y-48648598D01*
X98502569Y-48625529D01*
X98452598Y-48575097D01*
X98437826Y-48505654D01*
X98462942Y-48439248D01*
X98490294Y-48412641D01*
X98665328Y-48287792D01*
X98673200Y-48281139D01*
X98824052Y-48130812D01*
X98830730Y-48122965D01*
X98955003Y-47950020D01*
X98960313Y-47941183D01*
X99054670Y-47750267D01*
X99058469Y-47740672D01*
X99120377Y-47536910D01*
X99122555Y-47526837D01*
X99123986Y-47515962D01*
X99121775Y-47501778D01*
X99108617Y-47498000D01*
X95122000Y-47498000D01*
X95053879Y-47477998D01*
X95007386Y-47424342D01*
X94996000Y-47372000D01*
X94996000Y-47116000D01*
X95016002Y-47047879D01*
X95069658Y-47001386D01*
X95122000Y-46990000D01*
X99108344Y-46990000D01*
X99121875Y-46986027D01*
X99123180Y-46976947D01*
X99081214Y-46809875D01*
X99077894Y-46800124D01*
X98992972Y-46604814D01*
X98988105Y-46595739D01*
X98872426Y-46416926D01*
X98862982Y-46404662D01*
X98864226Y-46403704D01*
X98836262Y-46346203D01*
X98844659Y-46275705D01*
X98889837Y-46220938D01*
X98950401Y-46199659D01*
X98953563Y-46199405D01*
X98971765Y-46197940D01*
X99003678Y-46190101D01*
X99017058Y-46187574D01*
X99049620Y-46183229D01*
X99054461Y-46181768D01*
X99054463Y-46181767D01*
X99124829Y-46160522D01*
X99131192Y-46158781D01*
X99148988Y-46154410D01*
X99207506Y-46140037D01*
X99237752Y-46127199D01*
X99250563Y-46122561D01*
X99277162Y-46114530D01*
X99282008Y-46113067D01*
X99286556Y-46110849D01*
X99286563Y-46110846D01*
X99352618Y-46078629D01*
X99358620Y-46075893D01*
X99409906Y-46054123D01*
X99430956Y-46045188D01*
X99458756Y-46027681D01*
X99470660Y-46021055D01*
X99500188Y-46006654D01*
X99564400Y-45961357D01*
X99569886Y-45957699D01*
X99632086Y-45918529D01*
X99632087Y-45918528D01*
X99636367Y-45915833D01*
X99640156Y-45912492D01*
X99640162Y-45912488D01*
X99661017Y-45894102D01*
X99671712Y-45885656D01*
X99689324Y-45873232D01*
X99698547Y-45866726D01*
X99720050Y-45847091D01*
X99759766Y-45807375D01*
X99765536Y-45801956D01*
X99814658Y-45758650D01*
X99814661Y-45758647D01*
X99818455Y-45755302D01*
X99826775Y-45745173D01*
X99844978Y-45723013D01*
X99853248Y-45713893D01*
X100513528Y-45053614D01*
X101176484Y-44390658D01*
X101179006Y-44388204D01*
X101247805Y-44323144D01*
X101251481Y-44319668D01*
X101266084Y-44300569D01*
X101299212Y-44257239D01*
X101303354Y-44252107D01*
X101350987Y-44196138D01*
X101350989Y-44196135D01*
X101354270Y-44192280D01*
X101356890Y-44187954D01*
X101356895Y-44187947D01*
X101371291Y-44164176D01*
X101378963Y-44152929D01*
X101398920Y-44126826D01*
X101436047Y-44057584D01*
X101439310Y-44051863D01*
X101477402Y-43988966D01*
X101477403Y-43988965D01*
X101480020Y-43984643D01*
X101492334Y-43954166D01*
X101498103Y-43941850D01*
X101513631Y-43912891D01*
X101539223Y-43838567D01*
X101541518Y-43832429D01*
X101569058Y-43764267D01*
X101569059Y-43764263D01*
X101570955Y-43759571D01*
X101578232Y-43727539D01*
X101581963Y-43714441D01*
X101592662Y-43683369D01*
X101606043Y-43605900D01*
X101607326Y-43599482D01*
X101623615Y-43527786D01*
X101623615Y-43527785D01*
X101624735Y-43522856D01*
X101626799Y-43490047D01*
X101628385Y-43476547D01*
X101633979Y-43444164D01*
X101634213Y-43439015D01*
X101635236Y-43416494D01*
X101635236Y-43416475D01*
X101635300Y-43415075D01*
X101635300Y-43358893D01*
X101635549Y-43350981D01*
X101638511Y-43303912D01*
X101639978Y-43280588D01*
X101635901Y-43239009D01*
X101635300Y-43226713D01*
X101635300Y-41941419D01*
X101655302Y-41873298D01*
X101708958Y-41826805D01*
X101779232Y-41816701D01*
X101843812Y-41846195D01*
X101850395Y-41852324D01*
X101980310Y-41982239D01*
X101984818Y-41985396D01*
X101984821Y-41985398D01*
X102024962Y-42013505D01*
X102162127Y-42109549D01*
X102167109Y-42111872D01*
X102167114Y-42111875D01*
X102347262Y-42195879D01*
X102363290Y-42203353D01*
X102368598Y-42204775D01*
X102368600Y-42204776D01*
X102572371Y-42259376D01*
X102572373Y-42259376D01*
X102577686Y-42260800D01*
X102798800Y-42280145D01*
X103019914Y-42260800D01*
X103025227Y-42259376D01*
X103025229Y-42259376D01*
X103100090Y-42239317D01*
X103122341Y-42233355D01*
X103193316Y-42235045D01*
X103252112Y-42274839D01*
X103280060Y-42340103D01*
X103268287Y-42410117D01*
X103260868Y-42423307D01*
X103230438Y-42470526D01*
X103228027Y-42477149D01*
X103228026Y-42477152D01*
X103176566Y-42618538D01*
X103176565Y-42618543D01*
X103174156Y-42625161D01*
X103153531Y-42788423D01*
X103169589Y-42952197D01*
X103221532Y-43108344D01*
X103225181Y-43114369D01*
X103299562Y-43237185D01*
X103306779Y-43249102D01*
X103311670Y-43254167D01*
X103311671Y-43254168D01*
X103369793Y-43314355D01*
X103421091Y-43367476D01*
X103558789Y-43457583D01*
X103713028Y-43514944D01*
X103720009Y-43515875D01*
X103720011Y-43515876D01*
X103869161Y-43535777D01*
X103869165Y-43535777D01*
X103876142Y-43536708D01*
X103883153Y-43536070D01*
X103883157Y-43536070D01*
X104033003Y-43522433D01*
X104033004Y-43522433D01*
X104040024Y-43521794D01*
X104196529Y-43470942D01*
X104196660Y-43471344D01*
X104262723Y-43462019D01*
X104288392Y-43468592D01*
X104413028Y-43514944D01*
X104420009Y-43515875D01*
X104420011Y-43515876D01*
X104569161Y-43535777D01*
X104569165Y-43535777D01*
X104576142Y-43536708D01*
X104583153Y-43536070D01*
X104583157Y-43536070D01*
X104733003Y-43522433D01*
X104733004Y-43522433D01*
X104740024Y-43521794D01*
X104778793Y-43509197D01*
X104889830Y-43473119D01*
X104889833Y-43473118D01*
X104896529Y-43470942D01*
X105037879Y-43386680D01*
X105157049Y-43273197D01*
X105161733Y-43266147D01*
X105244214Y-43142004D01*
X105244215Y-43142002D01*
X105248115Y-43136132D01*
X105306551Y-42982297D01*
X105319866Y-42887554D01*
X105328902Y-42823263D01*
X105328903Y-42823256D01*
X105329453Y-42819339D01*
X105329741Y-42798729D01*
X105311398Y-42635195D01*
X105305598Y-42618538D01*
X105277523Y-42537919D01*
X105257280Y-42479789D01*
X105252179Y-42471625D01*
X105251732Y-42470027D01*
X105250502Y-42467460D01*
X105250953Y-42467244D01*
X105233044Y-42403256D01*
X105253910Y-42335395D01*
X105308153Y-42289587D01*
X105348052Y-42279336D01*
X105459055Y-42269624D01*
X105559914Y-42260800D01*
X105565227Y-42259376D01*
X105565229Y-42259376D01*
X105769000Y-42204776D01*
X105769002Y-42204775D01*
X105774310Y-42203353D01*
X105790338Y-42195879D01*
X105970486Y-42111875D01*
X105970491Y-42111872D01*
X105975473Y-42109549D01*
X106112638Y-42013505D01*
X106152779Y-41985398D01*
X106152782Y-41985396D01*
X106157290Y-41982239D01*
X106314239Y-41825290D01*
X106321491Y-41814934D01*
X106438392Y-41647981D01*
X106438393Y-41647979D01*
X106441549Y-41643472D01*
X106443872Y-41638490D01*
X106443875Y-41638485D01*
X106494605Y-41529694D01*
X106541523Y-41476409D01*
X106609800Y-41456948D01*
X106677760Y-41477490D01*
X106722995Y-41529694D01*
X106773725Y-41638485D01*
X106773728Y-41638490D01*
X106776051Y-41643472D01*
X106779207Y-41647979D01*
X106779208Y-41647981D01*
X106896110Y-41814934D01*
X106903361Y-41825290D01*
X107060310Y-41982239D01*
X107064818Y-41985396D01*
X107064821Y-41985398D01*
X107104962Y-42013505D01*
X107242127Y-42109549D01*
X107247109Y-42111872D01*
X107247114Y-42111875D01*
X107427262Y-42195879D01*
X107443290Y-42203353D01*
X107448598Y-42204775D01*
X107448600Y-42204776D01*
X107652371Y-42259376D01*
X107652373Y-42259376D01*
X107657686Y-42260800D01*
X107869553Y-42279336D01*
X107873325Y-42279666D01*
X107878800Y-42280145D01*
X107878734Y-42280902D01*
X107942644Y-42299668D01*
X107989137Y-42353324D01*
X107999241Y-42423598D01*
X107992926Y-42448755D01*
X107956356Y-42549232D01*
X107935731Y-42712494D01*
X107951789Y-42876268D01*
X108003732Y-43032415D01*
X108016570Y-43053613D01*
X108045668Y-43101658D01*
X108088979Y-43173173D01*
X108093870Y-43178238D01*
X108093871Y-43178239D01*
X108116939Y-43202127D01*
X108203291Y-43291547D01*
X108340989Y-43381654D01*
X108495228Y-43439015D01*
X108502209Y-43439946D01*
X108502211Y-43439947D01*
X108651361Y-43459848D01*
X108651365Y-43459848D01*
X108658342Y-43460779D01*
X108665353Y-43460141D01*
X108665357Y-43460141D01*
X108815203Y-43446504D01*
X108815204Y-43446504D01*
X108822224Y-43445865D01*
X108978729Y-43395013D01*
X108978860Y-43395415D01*
X109044923Y-43386090D01*
X109070592Y-43392663D01*
X109195228Y-43439015D01*
X109202209Y-43439946D01*
X109202211Y-43439947D01*
X109351361Y-43459848D01*
X109351365Y-43459848D01*
X109358342Y-43460779D01*
X109365353Y-43460141D01*
X109365357Y-43460141D01*
X109515203Y-43446504D01*
X109515204Y-43446504D01*
X109522224Y-43445865D01*
X109570128Y-43430300D01*
X117480000Y-43430300D01*
X117480516Y-43436444D01*
X117494610Y-43604279D01*
X117496960Y-43632269D01*
X117498659Y-43638194D01*
X117538731Y-43777941D01*
X117552826Y-43827098D01*
X117555645Y-43832583D01*
X117642653Y-44001883D01*
X117642656Y-44001888D01*
X117645471Y-44007365D01*
X117771365Y-44166203D01*
X117776059Y-44170198D01*
X117868690Y-44249033D01*
X117925713Y-44297564D01*
X118102637Y-44396444D01*
X118295397Y-44459075D01*
X118496651Y-44483073D01*
X118502786Y-44482601D01*
X118502788Y-44482601D01*
X118692592Y-44467997D01*
X118692596Y-44467996D01*
X118698734Y-44467524D01*
X118704666Y-44465868D01*
X118704670Y-44465867D01*
X118888003Y-44414679D01*
X118888007Y-44414678D01*
X118893947Y-44413019D01*
X118899451Y-44410239D01*
X118899453Y-44410238D01*
X119069356Y-44324414D01*
X119069358Y-44324413D01*
X119074857Y-44321635D01*
X119234571Y-44196853D01*
X119242259Y-44187947D01*
X119301520Y-44119292D01*
X119367006Y-44043426D01*
X119467118Y-43867196D01*
X119478684Y-43832429D01*
X119504654Y-43754360D01*
X119531094Y-43674878D01*
X119556496Y-43473797D01*
X119556776Y-43453723D01*
X119556852Y-43448323D01*
X119556852Y-43448319D01*
X119556901Y-43444800D01*
X119537123Y-43243087D01*
X119478542Y-43049058D01*
X119383390Y-42870102D01*
X119341989Y-42819339D01*
X119266484Y-42726762D01*
X119255290Y-42713037D01*
X119247352Y-42706470D01*
X119103872Y-42587773D01*
X119103869Y-42587771D01*
X119099122Y-42583844D01*
X118920835Y-42487444D01*
X118802351Y-42450767D01*
X118733107Y-42429332D01*
X118733104Y-42429331D01*
X118727220Y-42427510D01*
X118721095Y-42426866D01*
X118721094Y-42426866D01*
X118531778Y-42406968D01*
X118531777Y-42406968D01*
X118525650Y-42406324D01*
X118442386Y-42413902D01*
X118329943Y-42424135D01*
X118329940Y-42424136D01*
X118323804Y-42424694D01*
X118317898Y-42426432D01*
X118317894Y-42426433D01*
X118188195Y-42464606D01*
X118129371Y-42481919D01*
X118123914Y-42484772D01*
X118123911Y-42484773D01*
X118057467Y-42519509D01*
X117949755Y-42575819D01*
X117791799Y-42702819D01*
X117661519Y-42858081D01*
X117658555Y-42863473D01*
X117658552Y-42863477D01*
X117570689Y-43023300D01*
X117563877Y-43035691D01*
X117502593Y-43228884D01*
X117501907Y-43235001D01*
X117501906Y-43235005D01*
X117480687Y-43424175D01*
X117480000Y-43430300D01*
X109570128Y-43430300D01*
X109672030Y-43397190D01*
X109672033Y-43397189D01*
X109678729Y-43395013D01*
X109820079Y-43310751D01*
X109939249Y-43197268D01*
X109951892Y-43178239D01*
X110026414Y-43066075D01*
X110026415Y-43066073D01*
X110030315Y-43060203D01*
X110088751Y-42906368D01*
X110103879Y-42798729D01*
X110111102Y-42747334D01*
X110111103Y-42747327D01*
X110111653Y-42743410D01*
X110111941Y-42722800D01*
X110093598Y-42559266D01*
X110083694Y-42530824D01*
X110073845Y-42502544D01*
X110046499Y-42424016D01*
X110042985Y-42353108D01*
X110078366Y-42291555D01*
X110141409Y-42258903D01*
X110187372Y-42258495D01*
X110192380Y-42259378D01*
X110197686Y-42260800D01*
X110203153Y-42261278D01*
X110203157Y-42261279D01*
X110413325Y-42279666D01*
X110418800Y-42280145D01*
X110639914Y-42260800D01*
X110645227Y-42259376D01*
X110645229Y-42259376D01*
X110849000Y-42204776D01*
X110849002Y-42204775D01*
X110854310Y-42203353D01*
X110870338Y-42195879D01*
X111050486Y-42111875D01*
X111050491Y-42111872D01*
X111055473Y-42109549D01*
X111192638Y-42013505D01*
X111232779Y-41985398D01*
X111232782Y-41985396D01*
X111237290Y-41982239D01*
X111394239Y-41825290D01*
X111401491Y-41814934D01*
X111518392Y-41647981D01*
X111518393Y-41647979D01*
X111521549Y-41643472D01*
X111523872Y-41638490D01*
X111523875Y-41638485D01*
X111560105Y-41560789D01*
X111607023Y-41507504D01*
X111675300Y-41488043D01*
X111743260Y-41508585D01*
X111789325Y-41562608D01*
X111800300Y-41614039D01*
X111800300Y-41814934D01*
X111807055Y-41877116D01*
X111858185Y-42013505D01*
X111945539Y-42130061D01*
X112062095Y-42217415D01*
X112198484Y-42268545D01*
X112260666Y-42275300D01*
X113876934Y-42275300D01*
X113939116Y-42268545D01*
X114075505Y-42217415D01*
X114192061Y-42130061D01*
X114279415Y-42013505D01*
X114330545Y-41877116D01*
X114337300Y-41814934D01*
X114337300Y-41585469D01*
X123762401Y-41585469D01*
X123762771Y-41592290D01*
X123768295Y-41643152D01*
X123771921Y-41658404D01*
X123817076Y-41778854D01*
X123825614Y-41794449D01*
X123902115Y-41896524D01*
X123914676Y-41909085D01*
X124016751Y-41985586D01*
X124032346Y-41994124D01*
X124152794Y-42039278D01*
X124168049Y-42042905D01*
X124218914Y-42048431D01*
X124225728Y-42048800D01*
X124848285Y-42048800D01*
X124863524Y-42044325D01*
X124864729Y-42042935D01*
X124866400Y-42035252D01*
X124866400Y-42030684D01*
X125374400Y-42030684D01*
X125378875Y-42045923D01*
X125380265Y-42047128D01*
X125387948Y-42048799D01*
X126015069Y-42048799D01*
X126021890Y-42048429D01*
X126072752Y-42042905D01*
X126088004Y-42039279D01*
X126208454Y-41994124D01*
X126224049Y-41985586D01*
X126326124Y-41909085D01*
X126338685Y-41896524D01*
X126415186Y-41794449D01*
X126423724Y-41778854D01*
X126468878Y-41658406D01*
X126472505Y-41643151D01*
X126478031Y-41592286D01*
X126478400Y-41585472D01*
X126478400Y-40962915D01*
X126473925Y-40947676D01*
X126472535Y-40946471D01*
X126464852Y-40944800D01*
X125392515Y-40944800D01*
X125377276Y-40949275D01*
X125376071Y-40950665D01*
X125374400Y-40958348D01*
X125374400Y-42030684D01*
X124866400Y-42030684D01*
X124866400Y-40962915D01*
X124861925Y-40947676D01*
X124860535Y-40946471D01*
X124852852Y-40944800D01*
X123780516Y-40944800D01*
X123765277Y-40949275D01*
X123764072Y-40950665D01*
X123762401Y-40958348D01*
X123762401Y-41585469D01*
X114337300Y-41585469D01*
X114337300Y-40418685D01*
X123762400Y-40418685D01*
X123766875Y-40433924D01*
X123768265Y-40435129D01*
X123775948Y-40436800D01*
X124848285Y-40436800D01*
X124863524Y-40432325D01*
X124864729Y-40430935D01*
X124866400Y-40423252D01*
X124866400Y-40418685D01*
X125374400Y-40418685D01*
X125378875Y-40433924D01*
X125380265Y-40435129D01*
X125387948Y-40436800D01*
X126460284Y-40436800D01*
X126475523Y-40432325D01*
X126476728Y-40430935D01*
X126478399Y-40423252D01*
X126478399Y-39796131D01*
X126478029Y-39789310D01*
X126472505Y-39738448D01*
X126468879Y-39723196D01*
X126423724Y-39602746D01*
X126415186Y-39587151D01*
X126338685Y-39485076D01*
X126326124Y-39472515D01*
X126224049Y-39396014D01*
X126208454Y-39387476D01*
X126088006Y-39342322D01*
X126072751Y-39338695D01*
X126021886Y-39333169D01*
X126015072Y-39332800D01*
X125392515Y-39332800D01*
X125377276Y-39337275D01*
X125376071Y-39338665D01*
X125374400Y-39346348D01*
X125374400Y-40418685D01*
X124866400Y-40418685D01*
X124866400Y-39350916D01*
X124861925Y-39335677D01*
X124860535Y-39334472D01*
X124852852Y-39332801D01*
X124225731Y-39332801D01*
X124218910Y-39333171D01*
X124168048Y-39338695D01*
X124152796Y-39342321D01*
X124032346Y-39387476D01*
X124016751Y-39396014D01*
X123914676Y-39472515D01*
X123902115Y-39485076D01*
X123825614Y-39587151D01*
X123817076Y-39602746D01*
X123771922Y-39723194D01*
X123768295Y-39738449D01*
X123762769Y-39789314D01*
X123762400Y-39796128D01*
X123762400Y-40418685D01*
X114337300Y-40418685D01*
X114337300Y-40198666D01*
X114330545Y-40136484D01*
X114279415Y-40000095D01*
X114192061Y-39883539D01*
X114075505Y-39796185D01*
X113939116Y-39745055D01*
X113876934Y-39738300D01*
X112584092Y-39738300D01*
X112515971Y-39718298D01*
X112469478Y-39664642D01*
X112459374Y-39594368D01*
X112488868Y-39529788D01*
X112511821Y-39509087D01*
X112512253Y-39508785D01*
X112577616Y-39463017D01*
X112602779Y-39445398D01*
X112602782Y-39445396D01*
X112607290Y-39442239D01*
X112764239Y-39285290D01*
X112773079Y-39272666D01*
X112888392Y-39107981D01*
X112888393Y-39107979D01*
X112891549Y-39103472D01*
X112893872Y-39098490D01*
X112893875Y-39098485D01*
X112983030Y-38907292D01*
X112983031Y-38907290D01*
X112985353Y-38902310D01*
X112998710Y-38852463D01*
X113041376Y-38693229D01*
X113041376Y-38693227D01*
X113042800Y-38687914D01*
X113062145Y-38466800D01*
X130352855Y-38466800D01*
X130372200Y-38687914D01*
X130373624Y-38693227D01*
X130373624Y-38693229D01*
X130416291Y-38852463D01*
X130429647Y-38902310D01*
X130431969Y-38907290D01*
X130431970Y-38907292D01*
X130521125Y-39098485D01*
X130521128Y-39098490D01*
X130523451Y-39103472D01*
X130526607Y-39107979D01*
X130526608Y-39107981D01*
X130641922Y-39272666D01*
X130650761Y-39285290D01*
X130807710Y-39442239D01*
X130812218Y-39445396D01*
X130812221Y-39445398D01*
X130850948Y-39472515D01*
X130989527Y-39569549D01*
X130994509Y-39571872D01*
X130994514Y-39571875D01*
X131175170Y-39656116D01*
X131190690Y-39663353D01*
X131195998Y-39664775D01*
X131196000Y-39664776D01*
X131399771Y-39719376D01*
X131399773Y-39719376D01*
X131405086Y-39720800D01*
X131626200Y-39740145D01*
X131847314Y-39720800D01*
X131852627Y-39719376D01*
X131852629Y-39719376D01*
X132056400Y-39664776D01*
X132056402Y-39664775D01*
X132061710Y-39663353D01*
X132077230Y-39656116D01*
X132257886Y-39571875D01*
X132257891Y-39571872D01*
X132262873Y-39569549D01*
X132401452Y-39472515D01*
X132440179Y-39445398D01*
X132440182Y-39445396D01*
X132444690Y-39442239D01*
X132601639Y-39285290D01*
X132610479Y-39272666D01*
X132725792Y-39107981D01*
X132725793Y-39107979D01*
X132728949Y-39103472D01*
X132731272Y-39098490D01*
X132731275Y-39098485D01*
X132782005Y-38989694D01*
X132828923Y-38936409D01*
X132897200Y-38916948D01*
X132965160Y-38937490D01*
X133010395Y-38989694D01*
X133061125Y-39098485D01*
X133061128Y-39098490D01*
X133063451Y-39103472D01*
X133066607Y-39107979D01*
X133066608Y-39107981D01*
X133181922Y-39272666D01*
X133190761Y-39285290D01*
X133347710Y-39442239D01*
X133352218Y-39445396D01*
X133352221Y-39445398D01*
X133390948Y-39472515D01*
X133529527Y-39569549D01*
X133534509Y-39571872D01*
X133534514Y-39571875D01*
X133715170Y-39656116D01*
X133730690Y-39663353D01*
X133735998Y-39664775D01*
X133736000Y-39664776D01*
X133939771Y-39719376D01*
X133939773Y-39719376D01*
X133945086Y-39720800D01*
X134166200Y-39740145D01*
X134387314Y-39720800D01*
X134392627Y-39719376D01*
X134392629Y-39719376D01*
X134596400Y-39664776D01*
X134596402Y-39664775D01*
X134601710Y-39663353D01*
X134617230Y-39656116D01*
X134797886Y-39571875D01*
X134797891Y-39571872D01*
X134802873Y-39569549D01*
X134941452Y-39472515D01*
X134980179Y-39445398D01*
X134980182Y-39445396D01*
X134984690Y-39442239D01*
X135141639Y-39285290D01*
X135150479Y-39272666D01*
X135265792Y-39107981D01*
X135265793Y-39107979D01*
X135268949Y-39103472D01*
X135271272Y-39098490D01*
X135271275Y-39098485D01*
X135322005Y-38989694D01*
X135368923Y-38936409D01*
X135437200Y-38916948D01*
X135505160Y-38937490D01*
X135550395Y-38989694D01*
X135601125Y-39098485D01*
X135601128Y-39098490D01*
X135603451Y-39103472D01*
X135606607Y-39107979D01*
X135606608Y-39107981D01*
X135721922Y-39272666D01*
X135730761Y-39285290D01*
X135887710Y-39442239D01*
X135892218Y-39445396D01*
X135892221Y-39445398D01*
X135930948Y-39472515D01*
X136069527Y-39569549D01*
X136074509Y-39571872D01*
X136074514Y-39571875D01*
X136255170Y-39656116D01*
X136270690Y-39663353D01*
X136275998Y-39664775D01*
X136276000Y-39664776D01*
X136479771Y-39719376D01*
X136479773Y-39719376D01*
X136485086Y-39720800D01*
X136706200Y-39740145D01*
X136927314Y-39720800D01*
X136932627Y-39719376D01*
X136932629Y-39719376D01*
X137136400Y-39664776D01*
X137136402Y-39664775D01*
X137141710Y-39663353D01*
X137157230Y-39656116D01*
X137337886Y-39571875D01*
X137337891Y-39571872D01*
X137342873Y-39569549D01*
X137481452Y-39472515D01*
X137520179Y-39445398D01*
X137520182Y-39445396D01*
X137524690Y-39442239D01*
X137681639Y-39285290D01*
X137690479Y-39272666D01*
X137805792Y-39107981D01*
X137805793Y-39107979D01*
X137808949Y-39103472D01*
X137811272Y-39098490D01*
X137811275Y-39098485D01*
X137862005Y-38989694D01*
X137908923Y-38936409D01*
X137977200Y-38916948D01*
X138045160Y-38937490D01*
X138090395Y-38989694D01*
X138141125Y-39098485D01*
X138141128Y-39098490D01*
X138143451Y-39103472D01*
X138146607Y-39107979D01*
X138146608Y-39107981D01*
X138261922Y-39272666D01*
X138270761Y-39285290D01*
X138427710Y-39442239D01*
X138432218Y-39445396D01*
X138432221Y-39445398D01*
X138470948Y-39472515D01*
X138609527Y-39569549D01*
X138614509Y-39571872D01*
X138614514Y-39571875D01*
X138719246Y-39620712D01*
X138772531Y-39667629D01*
X138791992Y-39735907D01*
X138791002Y-39750692D01*
X138776779Y-39863284D01*
X138748397Y-39928361D01*
X138689337Y-39967762D01*
X138618351Y-39968979D01*
X138579503Y-39950705D01*
X138517387Y-39907211D01*
X138517381Y-39907207D01*
X138512873Y-39904051D01*
X138507891Y-39901728D01*
X138507886Y-39901725D01*
X138316692Y-39812570D01*
X138316691Y-39812569D01*
X138311710Y-39810247D01*
X138306402Y-39808825D01*
X138306400Y-39808824D01*
X138102629Y-39754224D01*
X138102627Y-39754224D01*
X138097314Y-39752800D01*
X137876200Y-39733455D01*
X137655086Y-39752800D01*
X137649773Y-39754224D01*
X137649771Y-39754224D01*
X137446000Y-39808824D01*
X137445998Y-39808825D01*
X137440690Y-39810247D01*
X137435710Y-39812569D01*
X137435708Y-39812570D01*
X137244515Y-39901725D01*
X137244510Y-39901728D01*
X137239528Y-39904051D01*
X137235021Y-39907207D01*
X137235019Y-39907208D01*
X137062221Y-40028202D01*
X137062218Y-40028204D01*
X137057710Y-40031361D01*
X136900761Y-40188310D01*
X136897604Y-40192818D01*
X136897602Y-40192821D01*
X136776608Y-40365619D01*
X136773451Y-40370128D01*
X136771128Y-40375110D01*
X136771125Y-40375115D01*
X136720395Y-40483906D01*
X136673477Y-40537191D01*
X136605200Y-40556652D01*
X136537240Y-40536110D01*
X136492005Y-40483906D01*
X136441275Y-40375115D01*
X136441272Y-40375110D01*
X136438949Y-40370128D01*
X136435792Y-40365619D01*
X136314798Y-40192821D01*
X136314796Y-40192818D01*
X136311639Y-40188310D01*
X136154690Y-40031361D01*
X136150182Y-40028204D01*
X136150179Y-40028202D01*
X136068789Y-39971212D01*
X135972873Y-39904051D01*
X135967891Y-39901728D01*
X135967886Y-39901725D01*
X135776692Y-39812570D01*
X135776691Y-39812569D01*
X135771710Y-39810247D01*
X135766402Y-39808825D01*
X135766400Y-39808824D01*
X135562629Y-39754224D01*
X135562627Y-39754224D01*
X135557314Y-39752800D01*
X135336200Y-39733455D01*
X135115086Y-39752800D01*
X135109773Y-39754224D01*
X135109771Y-39754224D01*
X134906000Y-39808824D01*
X134905998Y-39808825D01*
X134900690Y-39810247D01*
X134895710Y-39812569D01*
X134895708Y-39812570D01*
X134704515Y-39901725D01*
X134704510Y-39901728D01*
X134699528Y-39904051D01*
X134695021Y-39907207D01*
X134695019Y-39907208D01*
X134522221Y-40028202D01*
X134522218Y-40028204D01*
X134517710Y-40031361D01*
X134360761Y-40188310D01*
X134357604Y-40192818D01*
X134357602Y-40192821D01*
X134236608Y-40365619D01*
X134233451Y-40370128D01*
X134231128Y-40375110D01*
X134231125Y-40375115D01*
X134180395Y-40483906D01*
X134133477Y-40537191D01*
X134065200Y-40556652D01*
X133997240Y-40536110D01*
X133952005Y-40483906D01*
X133901275Y-40375115D01*
X133901272Y-40375110D01*
X133898949Y-40370128D01*
X133895792Y-40365619D01*
X133774798Y-40192821D01*
X133774796Y-40192818D01*
X133771639Y-40188310D01*
X133614690Y-40031361D01*
X133610182Y-40028204D01*
X133610179Y-40028202D01*
X133528789Y-39971212D01*
X133432873Y-39904051D01*
X133427891Y-39901728D01*
X133427886Y-39901725D01*
X133236692Y-39812570D01*
X133236691Y-39812569D01*
X133231710Y-39810247D01*
X133226402Y-39808825D01*
X133226400Y-39808824D01*
X133022629Y-39754224D01*
X133022627Y-39754224D01*
X133017314Y-39752800D01*
X132796200Y-39733455D01*
X132575086Y-39752800D01*
X132569773Y-39754224D01*
X132569771Y-39754224D01*
X132366000Y-39808824D01*
X132365998Y-39808825D01*
X132360690Y-39810247D01*
X132355710Y-39812569D01*
X132355708Y-39812570D01*
X132164515Y-39901725D01*
X132164510Y-39901728D01*
X132159528Y-39904051D01*
X132155021Y-39907207D01*
X132155019Y-39907208D01*
X131982221Y-40028202D01*
X131982218Y-40028204D01*
X131977710Y-40031361D01*
X131820761Y-40188310D01*
X131817604Y-40192818D01*
X131817602Y-40192821D01*
X131696608Y-40365619D01*
X131693451Y-40370128D01*
X131691128Y-40375110D01*
X131691125Y-40375115D01*
X131620336Y-40526923D01*
X131599647Y-40571290D01*
X131542200Y-40785686D01*
X131522855Y-41006800D01*
X131542200Y-41227914D01*
X131543624Y-41233227D01*
X131543624Y-41233229D01*
X131576613Y-41356344D01*
X131599647Y-41442310D01*
X131601969Y-41447290D01*
X131601970Y-41447292D01*
X131691125Y-41638485D01*
X131691128Y-41638490D01*
X131693451Y-41643472D01*
X131696607Y-41647979D01*
X131696608Y-41647981D01*
X131813510Y-41814934D01*
X131820761Y-41825290D01*
X131977710Y-41982239D01*
X131982218Y-41985396D01*
X131982221Y-41985398D01*
X132022362Y-42013505D01*
X132159527Y-42109549D01*
X132164509Y-42111872D01*
X132164514Y-42111875D01*
X132344662Y-42195879D01*
X132360690Y-42203353D01*
X132365998Y-42204775D01*
X132366000Y-42204776D01*
X132569771Y-42259376D01*
X132569773Y-42259376D01*
X132575086Y-42260800D01*
X132796200Y-42280145D01*
X133017314Y-42260800D01*
X133022627Y-42259376D01*
X133022629Y-42259376D01*
X133226400Y-42204776D01*
X133226402Y-42204775D01*
X133231710Y-42203353D01*
X133247738Y-42195879D01*
X133427886Y-42111875D01*
X133427891Y-42111872D01*
X133432873Y-42109549D01*
X133570038Y-42013505D01*
X133610179Y-41985398D01*
X133610182Y-41985396D01*
X133614690Y-41982239D01*
X133771639Y-41825290D01*
X133778891Y-41814934D01*
X133895792Y-41647981D01*
X133895793Y-41647979D01*
X133898949Y-41643472D01*
X133901272Y-41638490D01*
X133901275Y-41638485D01*
X133952005Y-41529694D01*
X133998923Y-41476409D01*
X134067200Y-41456948D01*
X134135160Y-41477490D01*
X134180395Y-41529694D01*
X134231125Y-41638485D01*
X134231128Y-41638490D01*
X134233451Y-41643472D01*
X134236607Y-41647979D01*
X134236608Y-41647981D01*
X134353510Y-41814934D01*
X134360761Y-41825290D01*
X134517710Y-41982239D01*
X134522218Y-41985396D01*
X134522221Y-41985398D01*
X134562362Y-42013505D01*
X134699527Y-42109549D01*
X134704509Y-42111872D01*
X134704514Y-42111875D01*
X134884662Y-42195879D01*
X134900690Y-42203353D01*
X134905998Y-42204775D01*
X134906000Y-42204776D01*
X135109771Y-42259376D01*
X135109773Y-42259376D01*
X135115086Y-42260800D01*
X135120562Y-42261279D01*
X135120567Y-42261280D01*
X135213068Y-42269372D01*
X135253107Y-42272875D01*
X135319225Y-42298738D01*
X135360864Y-42356242D01*
X135364805Y-42427129D01*
X135360527Y-42441486D01*
X135357880Y-42448760D01*
X135332966Y-42517209D01*
X135332965Y-42517214D01*
X135330556Y-42523832D01*
X135309931Y-42687094D01*
X135325989Y-42850868D01*
X135377932Y-43007015D01*
X135381581Y-43013040D01*
X135442949Y-43114369D01*
X135463179Y-43147773D01*
X135468070Y-43152838D01*
X135468071Y-43152839D01*
X135501117Y-43187059D01*
X135577491Y-43266147D01*
X135715189Y-43356254D01*
X135869428Y-43413615D01*
X135876409Y-43414546D01*
X135876411Y-43414547D01*
X136025561Y-43434448D01*
X136025565Y-43434448D01*
X136032542Y-43435379D01*
X136039553Y-43434741D01*
X136039557Y-43434741D01*
X136189403Y-43421104D01*
X136189404Y-43421104D01*
X136196424Y-43420465D01*
X136300403Y-43386680D01*
X136346226Y-43371791D01*
X136352929Y-43369613D01*
X136353060Y-43370015D01*
X136419123Y-43360690D01*
X136444791Y-43367263D01*
X136451110Y-43369613D01*
X136569428Y-43413615D01*
X136576409Y-43414546D01*
X136576411Y-43414547D01*
X136725561Y-43434448D01*
X136725565Y-43434448D01*
X136732542Y-43435379D01*
X136739553Y-43434741D01*
X136739557Y-43434741D01*
X136889403Y-43421104D01*
X136889404Y-43421104D01*
X136896424Y-43420465D01*
X136955481Y-43401276D01*
X137046230Y-43371790D01*
X137046233Y-43371789D01*
X137052929Y-43369613D01*
X137194279Y-43285351D01*
X137313449Y-43171868D01*
X137333291Y-43142004D01*
X137400614Y-43040675D01*
X137400615Y-43040673D01*
X137404515Y-43034803D01*
X137462951Y-42880968D01*
X137481732Y-42747334D01*
X137485302Y-42721934D01*
X137485303Y-42721927D01*
X137485853Y-42718010D01*
X137486028Y-42705500D01*
X137486086Y-42701362D01*
X137486086Y-42701356D01*
X137486141Y-42697400D01*
X137467798Y-42533866D01*
X137461998Y-42517209D01*
X137453441Y-42492637D01*
X137421907Y-42402085D01*
X137418393Y-42331177D01*
X137453774Y-42269624D01*
X137516817Y-42236972D01*
X137573509Y-42238942D01*
X137649771Y-42259376D01*
X137649773Y-42259376D01*
X137655086Y-42260800D01*
X137876200Y-42280145D01*
X138097314Y-42260800D01*
X138102627Y-42259376D01*
X138102629Y-42259376D01*
X138306400Y-42204776D01*
X138306402Y-42204775D01*
X138311710Y-42203353D01*
X138327738Y-42195879D01*
X138507886Y-42111875D01*
X138507891Y-42111872D01*
X138512873Y-42109549D01*
X138650038Y-42013505D01*
X138690179Y-41985398D01*
X138690182Y-41985396D01*
X138694690Y-41982239D01*
X138851639Y-41825290D01*
X138858891Y-41814934D01*
X138975792Y-41647981D01*
X138975793Y-41647979D01*
X138978949Y-41643472D01*
X138981272Y-41638490D01*
X138981275Y-41638485D01*
X139032005Y-41529694D01*
X139078923Y-41476409D01*
X139147200Y-41456948D01*
X139215160Y-41477490D01*
X139260395Y-41529694D01*
X139311125Y-41638485D01*
X139311128Y-41638490D01*
X139313451Y-41643472D01*
X139316607Y-41647979D01*
X139316608Y-41647981D01*
X139433510Y-41814934D01*
X139440761Y-41825290D01*
X139597710Y-41982239D01*
X139602218Y-41985396D01*
X139602221Y-41985398D01*
X139642362Y-42013505D01*
X139779527Y-42109549D01*
X139784509Y-42111872D01*
X139784514Y-42111875D01*
X139964662Y-42195879D01*
X139980690Y-42203353D01*
X139985998Y-42204775D01*
X139986000Y-42204776D01*
X140189771Y-42259376D01*
X140189773Y-42259376D01*
X140195086Y-42260800D01*
X140416200Y-42280145D01*
X140637314Y-42260800D01*
X140642627Y-42259376D01*
X140642629Y-42259376D01*
X140846400Y-42204776D01*
X140846402Y-42204775D01*
X140851710Y-42203353D01*
X140867738Y-42195879D01*
X141047886Y-42111875D01*
X141047891Y-42111872D01*
X141052873Y-42109549D01*
X141190038Y-42013505D01*
X141230179Y-41985398D01*
X141230182Y-41985396D01*
X141234690Y-41982239D01*
X141391639Y-41825290D01*
X141398891Y-41814934D01*
X141515792Y-41647981D01*
X141515793Y-41647979D01*
X141518949Y-41643472D01*
X141521272Y-41638490D01*
X141521275Y-41638485D01*
X141557505Y-41560789D01*
X141604423Y-41507504D01*
X141672700Y-41488043D01*
X141740660Y-41508585D01*
X141786725Y-41562608D01*
X141797700Y-41614039D01*
X141797700Y-41814934D01*
X141804455Y-41877116D01*
X141855585Y-42013505D01*
X141922981Y-42103432D01*
X141947828Y-42169935D01*
X141932775Y-42239317D01*
X141882601Y-42289548D01*
X141807239Y-42304108D01*
X141800552Y-42303311D01*
X141800547Y-42303311D01*
X141793553Y-42302477D01*
X141786550Y-42303213D01*
X141786549Y-42303213D01*
X141745914Y-42307484D01*
X141629895Y-42319678D01*
X141623227Y-42321948D01*
X141480782Y-42370440D01*
X141480779Y-42370441D01*
X141474115Y-42372710D01*
X141333955Y-42458937D01*
X141311482Y-42480944D01*
X141226011Y-42564644D01*
X141216382Y-42574073D01*
X141127238Y-42712397D01*
X141124827Y-42719020D01*
X141124826Y-42719023D01*
X141073366Y-42860409D01*
X141073365Y-42860414D01*
X141070956Y-42867032D01*
X141050331Y-43030294D01*
X141066389Y-43194068D01*
X141118332Y-43350215D01*
X141138717Y-43383875D01*
X141198907Y-43483258D01*
X141203579Y-43490973D01*
X141208470Y-43496038D01*
X141208471Y-43496039D01*
X141247128Y-43536070D01*
X141317891Y-43609347D01*
X141455589Y-43699454D01*
X141609828Y-43756815D01*
X141616809Y-43757746D01*
X141616811Y-43757747D01*
X141765961Y-43777648D01*
X141765965Y-43777648D01*
X141772942Y-43778579D01*
X141779953Y-43777941D01*
X141779957Y-43777941D01*
X141929803Y-43764304D01*
X141929804Y-43764304D01*
X141936824Y-43763665D01*
X142093329Y-43712813D01*
X142093460Y-43713215D01*
X142159523Y-43703890D01*
X142185192Y-43710463D01*
X142309828Y-43756815D01*
X142316809Y-43757746D01*
X142316811Y-43757747D01*
X142465961Y-43777648D01*
X142465965Y-43777648D01*
X142472942Y-43778579D01*
X142479953Y-43777941D01*
X142479957Y-43777941D01*
X142629803Y-43764304D01*
X142629804Y-43764304D01*
X142636824Y-43763665D01*
X142665462Y-43754360D01*
X142786630Y-43714990D01*
X142786633Y-43714989D01*
X142793329Y-43712813D01*
X142934679Y-43628551D01*
X143053849Y-43515068D01*
X143066842Y-43495512D01*
X143141014Y-43383875D01*
X143141015Y-43383873D01*
X143144915Y-43378003D01*
X143203351Y-43224168D01*
X143213389Y-43152741D01*
X143225702Y-43065134D01*
X143225703Y-43065127D01*
X143226253Y-43061210D01*
X143226541Y-43040600D01*
X143208198Y-42877066D01*
X143202398Y-42860409D01*
X143174894Y-42781429D01*
X143154080Y-42721660D01*
X143148353Y-42712494D01*
X143070609Y-42588079D01*
X143066876Y-42582105D01*
X142975495Y-42490084D01*
X142941688Y-42427653D01*
X142947000Y-42356856D01*
X142989744Y-42300169D01*
X143056351Y-42275590D01*
X143064901Y-42275300D01*
X143874334Y-42275300D01*
X143936516Y-42268545D01*
X144072905Y-42217415D01*
X144189461Y-42130061D01*
X144276815Y-42013505D01*
X144327945Y-41877116D01*
X144334700Y-41814934D01*
X144334700Y-40198666D01*
X144327945Y-40136484D01*
X144276815Y-40000095D01*
X144189461Y-39883539D01*
X144072905Y-39796185D01*
X143936516Y-39745055D01*
X143874334Y-39738300D01*
X142581492Y-39738300D01*
X142513371Y-39718298D01*
X142466878Y-39664642D01*
X142456774Y-39594368D01*
X142486268Y-39529788D01*
X142509221Y-39509087D01*
X142509653Y-39508785D01*
X142575016Y-39463017D01*
X142600179Y-39445398D01*
X142600182Y-39445396D01*
X142604690Y-39442239D01*
X142761639Y-39285290D01*
X142770479Y-39272666D01*
X142885792Y-39107981D01*
X142885793Y-39107979D01*
X142888949Y-39103472D01*
X142891272Y-39098490D01*
X142891275Y-39098485D01*
X142980430Y-38907292D01*
X142980431Y-38907290D01*
X142982753Y-38902310D01*
X142996110Y-38852463D01*
X143038776Y-38693229D01*
X143038776Y-38693227D01*
X143040200Y-38687914D01*
X143059545Y-38466800D01*
X143040200Y-38245686D01*
X142982753Y-38031290D01*
X142960758Y-37984122D01*
X142891275Y-37835115D01*
X142891272Y-37835110D01*
X142888949Y-37830128D01*
X142885792Y-37825619D01*
X142764798Y-37652821D01*
X142764796Y-37652818D01*
X142761639Y-37648310D01*
X142604690Y-37491361D01*
X142600182Y-37488204D01*
X142600179Y-37488202D01*
X142524513Y-37435220D01*
X142422873Y-37364051D01*
X142417891Y-37361728D01*
X142417886Y-37361725D01*
X142226692Y-37272570D01*
X142226691Y-37272569D01*
X142221710Y-37270247D01*
X142216402Y-37268825D01*
X142216400Y-37268824D01*
X142012629Y-37214224D01*
X142012627Y-37214224D01*
X142007314Y-37212800D01*
X141786200Y-37193455D01*
X141565086Y-37212800D01*
X141559773Y-37214224D01*
X141559771Y-37214224D01*
X141356000Y-37268824D01*
X141355998Y-37268825D01*
X141350690Y-37270247D01*
X141345710Y-37272569D01*
X141345708Y-37272570D01*
X141154515Y-37361725D01*
X141154510Y-37361728D01*
X141149528Y-37364051D01*
X141145021Y-37367207D01*
X141145019Y-37367208D01*
X140972221Y-37488202D01*
X140972218Y-37488204D01*
X140967710Y-37491361D01*
X140810761Y-37648310D01*
X140807604Y-37652818D01*
X140807602Y-37652821D01*
X140686608Y-37825619D01*
X140683451Y-37830128D01*
X140681128Y-37835110D01*
X140681125Y-37835115D01*
X140630395Y-37943906D01*
X140583477Y-37997191D01*
X140515200Y-38016652D01*
X140447240Y-37996110D01*
X140402005Y-37943906D01*
X140351275Y-37835115D01*
X140351272Y-37835110D01*
X140348949Y-37830128D01*
X140345792Y-37825619D01*
X140224798Y-37652821D01*
X140224796Y-37652818D01*
X140221639Y-37648310D01*
X140064690Y-37491361D01*
X140060182Y-37488204D01*
X140060179Y-37488202D01*
X139984513Y-37435220D01*
X139882873Y-37364051D01*
X139877891Y-37361728D01*
X139877886Y-37361725D01*
X139686692Y-37272570D01*
X139686691Y-37272569D01*
X139681710Y-37270247D01*
X139676402Y-37268825D01*
X139676400Y-37268824D01*
X139472629Y-37214224D01*
X139472627Y-37214224D01*
X139467314Y-37212800D01*
X139246200Y-37193455D01*
X139025086Y-37212800D01*
X139019773Y-37214224D01*
X139019771Y-37214224D01*
X138816000Y-37268824D01*
X138815998Y-37268825D01*
X138810690Y-37270247D01*
X138805710Y-37272569D01*
X138805708Y-37272570D01*
X138614515Y-37361725D01*
X138614510Y-37361728D01*
X138609528Y-37364051D01*
X138605021Y-37367207D01*
X138605019Y-37367208D01*
X138432221Y-37488202D01*
X138432218Y-37488204D01*
X138427710Y-37491361D01*
X138270761Y-37648310D01*
X138267604Y-37652818D01*
X138267602Y-37652821D01*
X138146608Y-37825619D01*
X138143451Y-37830128D01*
X138141128Y-37835110D01*
X138141125Y-37835115D01*
X138090395Y-37943906D01*
X138043477Y-37997191D01*
X137975200Y-38016652D01*
X137907240Y-37996110D01*
X137862005Y-37943906D01*
X137811275Y-37835115D01*
X137811272Y-37835110D01*
X137808949Y-37830128D01*
X137805792Y-37825619D01*
X137684798Y-37652821D01*
X137684796Y-37652818D01*
X137681639Y-37648310D01*
X137524690Y-37491361D01*
X137520182Y-37488204D01*
X137520179Y-37488202D01*
X137444513Y-37435220D01*
X137342873Y-37364051D01*
X137337891Y-37361728D01*
X137337886Y-37361725D01*
X137146692Y-37272570D01*
X137146691Y-37272569D01*
X137141710Y-37270247D01*
X137136402Y-37268825D01*
X137136400Y-37268824D01*
X136932629Y-37214224D01*
X136932627Y-37214224D01*
X136927314Y-37212800D01*
X136706200Y-37193455D01*
X136485086Y-37212800D01*
X136479773Y-37214224D01*
X136479771Y-37214224D01*
X136276000Y-37268824D01*
X136275998Y-37268825D01*
X136270690Y-37270247D01*
X136265710Y-37272569D01*
X136265708Y-37272570D01*
X136074515Y-37361725D01*
X136074510Y-37361728D01*
X136069528Y-37364051D01*
X136065021Y-37367207D01*
X136065019Y-37367208D01*
X135892221Y-37488202D01*
X135892218Y-37488204D01*
X135887710Y-37491361D01*
X135730761Y-37648310D01*
X135727604Y-37652818D01*
X135727602Y-37652821D01*
X135606608Y-37825619D01*
X135603451Y-37830128D01*
X135601128Y-37835110D01*
X135601125Y-37835115D01*
X135550395Y-37943906D01*
X135503477Y-37997191D01*
X135435200Y-38016652D01*
X135367240Y-37996110D01*
X135322005Y-37943906D01*
X135271275Y-37835115D01*
X135271272Y-37835110D01*
X135268949Y-37830128D01*
X135265792Y-37825619D01*
X135144798Y-37652821D01*
X135144796Y-37652818D01*
X135141639Y-37648310D01*
X134984690Y-37491361D01*
X134980182Y-37488204D01*
X134980179Y-37488202D01*
X134904513Y-37435220D01*
X134802873Y-37364051D01*
X134797891Y-37361728D01*
X134797886Y-37361725D01*
X134606692Y-37272570D01*
X134606691Y-37272569D01*
X134601710Y-37270247D01*
X134596402Y-37268825D01*
X134596400Y-37268824D01*
X134392629Y-37214224D01*
X134392627Y-37214224D01*
X134387314Y-37212800D01*
X134166200Y-37193455D01*
X133945086Y-37212800D01*
X133939773Y-37214224D01*
X133939771Y-37214224D01*
X133736000Y-37268824D01*
X133735998Y-37268825D01*
X133730690Y-37270247D01*
X133725710Y-37272569D01*
X133725708Y-37272570D01*
X133534515Y-37361725D01*
X133534510Y-37361728D01*
X133529528Y-37364051D01*
X133525021Y-37367207D01*
X133525019Y-37367208D01*
X133352221Y-37488202D01*
X133352218Y-37488204D01*
X133347710Y-37491361D01*
X133190761Y-37648310D01*
X133187604Y-37652818D01*
X133187602Y-37652821D01*
X133066608Y-37825619D01*
X133063451Y-37830128D01*
X133061128Y-37835110D01*
X133061125Y-37835115D01*
X133010395Y-37943906D01*
X132963477Y-37997191D01*
X132895200Y-38016652D01*
X132827240Y-37996110D01*
X132782005Y-37943906D01*
X132731275Y-37835115D01*
X132731272Y-37835110D01*
X132728949Y-37830128D01*
X132725792Y-37825619D01*
X132604798Y-37652821D01*
X132604796Y-37652818D01*
X132601639Y-37648310D01*
X132444690Y-37491361D01*
X132440182Y-37488204D01*
X132440179Y-37488202D01*
X132364513Y-37435220D01*
X132262873Y-37364051D01*
X132257891Y-37361728D01*
X132257886Y-37361725D01*
X132066692Y-37272570D01*
X132066691Y-37272569D01*
X132061710Y-37270247D01*
X132056402Y-37268825D01*
X132056400Y-37268824D01*
X131852629Y-37214224D01*
X131852627Y-37214224D01*
X131847314Y-37212800D01*
X131626200Y-37193455D01*
X131405086Y-37212800D01*
X131399773Y-37214224D01*
X131399771Y-37214224D01*
X131196000Y-37268824D01*
X131195998Y-37268825D01*
X131190690Y-37270247D01*
X131185710Y-37272569D01*
X131185708Y-37272570D01*
X130994515Y-37361725D01*
X130994510Y-37361728D01*
X130989528Y-37364051D01*
X130985021Y-37367207D01*
X130985019Y-37367208D01*
X130812221Y-37488202D01*
X130812218Y-37488204D01*
X130807710Y-37491361D01*
X130650761Y-37648310D01*
X130647604Y-37652818D01*
X130647602Y-37652821D01*
X130526608Y-37825619D01*
X130523451Y-37830128D01*
X130521128Y-37835110D01*
X130521125Y-37835115D01*
X130451642Y-37984122D01*
X130429647Y-38031290D01*
X130372200Y-38245686D01*
X130352855Y-38466800D01*
X113062145Y-38466800D01*
X113042800Y-38245686D01*
X112985353Y-38031290D01*
X112963358Y-37984122D01*
X112893875Y-37835115D01*
X112893872Y-37835110D01*
X112891549Y-37830128D01*
X112888392Y-37825619D01*
X112767398Y-37652821D01*
X112767396Y-37652818D01*
X112764239Y-37648310D01*
X112607290Y-37491361D01*
X112602782Y-37488204D01*
X112602779Y-37488202D01*
X112527113Y-37435220D01*
X112425473Y-37364051D01*
X112420491Y-37361728D01*
X112420486Y-37361725D01*
X112229292Y-37272570D01*
X112229291Y-37272569D01*
X112224310Y-37270247D01*
X112219002Y-37268825D01*
X112219000Y-37268824D01*
X112015229Y-37214224D01*
X112015227Y-37214224D01*
X112009914Y-37212800D01*
X111788800Y-37193455D01*
X111567686Y-37212800D01*
X111562373Y-37214224D01*
X111562371Y-37214224D01*
X111358600Y-37268824D01*
X111358598Y-37268825D01*
X111353290Y-37270247D01*
X111348310Y-37272569D01*
X111348308Y-37272570D01*
X111157115Y-37361725D01*
X111157110Y-37361728D01*
X111152128Y-37364051D01*
X111147621Y-37367207D01*
X111147619Y-37367208D01*
X110974821Y-37488202D01*
X110974818Y-37488204D01*
X110970310Y-37491361D01*
X110813361Y-37648310D01*
X110810204Y-37652818D01*
X110810202Y-37652821D01*
X110689208Y-37825619D01*
X110686051Y-37830128D01*
X110683728Y-37835110D01*
X110683725Y-37835115D01*
X110632995Y-37943906D01*
X110586077Y-37997191D01*
X110517800Y-38016652D01*
X110449840Y-37996110D01*
X110404605Y-37943906D01*
X110353875Y-37835115D01*
X110353872Y-37835110D01*
X110351549Y-37830128D01*
X110348392Y-37825619D01*
X110227398Y-37652821D01*
X110227396Y-37652818D01*
X110224239Y-37648310D01*
X110067290Y-37491361D01*
X110062782Y-37488204D01*
X110062779Y-37488202D01*
X109987113Y-37435220D01*
X109885473Y-37364051D01*
X109880491Y-37361728D01*
X109880486Y-37361725D01*
X109689292Y-37272570D01*
X109689291Y-37272569D01*
X109684310Y-37270247D01*
X109679002Y-37268825D01*
X109679000Y-37268824D01*
X109475229Y-37214224D01*
X109475227Y-37214224D01*
X109469914Y-37212800D01*
X109248800Y-37193455D01*
X109027686Y-37212800D01*
X109022373Y-37214224D01*
X109022371Y-37214224D01*
X108818600Y-37268824D01*
X108818598Y-37268825D01*
X108813290Y-37270247D01*
X108808310Y-37272569D01*
X108808308Y-37272570D01*
X108617115Y-37361725D01*
X108617110Y-37361728D01*
X108612128Y-37364051D01*
X108607621Y-37367207D01*
X108607619Y-37367208D01*
X108434821Y-37488202D01*
X108434818Y-37488204D01*
X108430310Y-37491361D01*
X108273361Y-37648310D01*
X108270204Y-37652818D01*
X108270202Y-37652821D01*
X108149208Y-37825619D01*
X108146051Y-37830128D01*
X108143728Y-37835110D01*
X108143725Y-37835115D01*
X108092995Y-37943906D01*
X108046077Y-37997191D01*
X107977800Y-38016652D01*
X107909840Y-37996110D01*
X107864605Y-37943906D01*
X107813875Y-37835115D01*
X107813872Y-37835110D01*
X107811549Y-37830128D01*
X107808392Y-37825619D01*
X107687398Y-37652821D01*
X107687396Y-37652818D01*
X107684239Y-37648310D01*
X107527290Y-37491361D01*
X107522782Y-37488204D01*
X107522779Y-37488202D01*
X107447113Y-37435220D01*
X107345473Y-37364051D01*
X107340491Y-37361728D01*
X107340486Y-37361725D01*
X107149292Y-37272570D01*
X107149291Y-37272569D01*
X107144310Y-37270247D01*
X107139002Y-37268825D01*
X107139000Y-37268824D01*
X106935229Y-37214224D01*
X106935227Y-37214224D01*
X106929914Y-37212800D01*
X106708800Y-37193455D01*
X106487686Y-37212800D01*
X106482373Y-37214224D01*
X106482371Y-37214224D01*
X106278600Y-37268824D01*
X106278598Y-37268825D01*
X106273290Y-37270247D01*
X106268310Y-37272569D01*
X106268308Y-37272570D01*
X106077115Y-37361725D01*
X106077110Y-37361728D01*
X106072128Y-37364051D01*
X106067621Y-37367207D01*
X106067619Y-37367208D01*
X105894821Y-37488202D01*
X105894818Y-37488204D01*
X105890310Y-37491361D01*
X105733361Y-37648310D01*
X105730204Y-37652818D01*
X105730202Y-37652821D01*
X105609208Y-37825619D01*
X105606051Y-37830128D01*
X105603728Y-37835110D01*
X105603725Y-37835115D01*
X105552995Y-37943906D01*
X105506077Y-37997191D01*
X105437800Y-38016652D01*
X105369840Y-37996110D01*
X105324605Y-37943906D01*
X105273875Y-37835115D01*
X105273872Y-37835110D01*
X105271549Y-37830128D01*
X105268392Y-37825619D01*
X105147398Y-37652821D01*
X105147396Y-37652818D01*
X105144239Y-37648310D01*
X104987290Y-37491361D01*
X104982782Y-37488204D01*
X104982779Y-37488202D01*
X104907113Y-37435220D01*
X104805473Y-37364051D01*
X104800491Y-37361728D01*
X104800486Y-37361725D01*
X104609292Y-37272570D01*
X104609291Y-37272569D01*
X104604310Y-37270247D01*
X104599002Y-37268825D01*
X104599000Y-37268824D01*
X104395229Y-37214224D01*
X104395227Y-37214224D01*
X104389914Y-37212800D01*
X104168800Y-37193455D01*
X103947686Y-37212800D01*
X103942373Y-37214224D01*
X103942371Y-37214224D01*
X103738600Y-37268824D01*
X103738598Y-37268825D01*
X103733290Y-37270247D01*
X103728310Y-37272569D01*
X103728308Y-37272570D01*
X103537115Y-37361725D01*
X103537110Y-37361728D01*
X103532128Y-37364051D01*
X103527621Y-37367207D01*
X103527619Y-37367208D01*
X103354821Y-37488202D01*
X103354818Y-37488204D01*
X103350310Y-37491361D01*
X103193361Y-37648310D01*
X103190204Y-37652818D01*
X103190202Y-37652821D01*
X103069208Y-37825619D01*
X103066051Y-37830128D01*
X103063728Y-37835110D01*
X103063725Y-37835115D01*
X103012995Y-37943906D01*
X102966077Y-37997191D01*
X102897800Y-38016652D01*
X102829840Y-37996110D01*
X102784605Y-37943906D01*
X102733875Y-37835115D01*
X102733872Y-37835110D01*
X102731549Y-37830128D01*
X102728392Y-37825619D01*
X102607398Y-37652821D01*
X102607396Y-37652818D01*
X102604239Y-37648310D01*
X102447290Y-37491361D01*
X102442782Y-37488204D01*
X102442779Y-37488202D01*
X102367113Y-37435220D01*
X102265473Y-37364051D01*
X102260491Y-37361728D01*
X102260486Y-37361725D01*
X102069292Y-37272570D01*
X102069291Y-37272569D01*
X102064310Y-37270247D01*
X102059002Y-37268825D01*
X102059000Y-37268824D01*
X101855229Y-37214224D01*
X101855227Y-37214224D01*
X101849914Y-37212800D01*
X101628800Y-37193455D01*
X101407686Y-37212800D01*
X101402373Y-37214224D01*
X101402371Y-37214224D01*
X101198600Y-37268824D01*
X101198598Y-37268825D01*
X101193290Y-37270247D01*
X101188310Y-37272569D01*
X101188308Y-37272570D01*
X100997115Y-37361725D01*
X100997110Y-37361728D01*
X100992128Y-37364051D01*
X100987621Y-37367207D01*
X100987619Y-37367208D01*
X100814821Y-37488202D01*
X100814818Y-37488204D01*
X100810310Y-37491361D01*
X100653361Y-37648310D01*
X100650204Y-37652818D01*
X100650202Y-37652821D01*
X100529208Y-37825619D01*
X100526051Y-37830128D01*
X100523728Y-37835110D01*
X100523725Y-37835115D01*
X100454242Y-37984122D01*
X100432247Y-38031290D01*
X100374800Y-38245686D01*
X100355455Y-38466800D01*
X100355934Y-38472275D01*
X100355934Y-38472276D01*
X100363288Y-38556334D01*
X100349299Y-38625938D01*
X100299899Y-38676931D01*
X100230773Y-38693121D01*
X100172496Y-38675091D01*
X100145776Y-38658909D01*
X100134529Y-38651237D01*
X100108426Y-38631280D01*
X100039192Y-38594157D01*
X100033468Y-38590893D01*
X99970566Y-38552798D01*
X99966242Y-38550179D01*
X99935781Y-38537872D01*
X99923441Y-38532092D01*
X99898950Y-38518960D01*
X99898951Y-38518960D01*
X99894491Y-38516569D01*
X99889710Y-38514923D01*
X99889706Y-38514921D01*
X99820199Y-38490988D01*
X99814021Y-38488678D01*
X99745866Y-38461142D01*
X99745867Y-38461142D01*
X99741171Y-38459245D01*
X99709139Y-38451968D01*
X99696041Y-38448237D01*
X99664969Y-38437538D01*
X99587500Y-38424157D01*
X99581096Y-38422877D01*
X99504456Y-38405465D01*
X99471647Y-38403401D01*
X99458147Y-38401815D01*
X99425764Y-38396221D01*
X99421807Y-38396041D01*
X99421804Y-38396041D01*
X99398094Y-38394964D01*
X99398075Y-38394964D01*
X99396675Y-38394900D01*
X99340492Y-38394900D01*
X99332580Y-38394651D01*
X99326986Y-38394299D01*
X99262187Y-38390222D01*
X99223145Y-38394050D01*
X99220608Y-38394299D01*
X99208312Y-38394900D01*
X98822631Y-38394900D01*
X98754510Y-38374898D01*
X98733536Y-38357995D01*
X98319405Y-37943864D01*
X98285379Y-37881552D01*
X98282500Y-37854769D01*
X98282500Y-36668218D01*
X98302502Y-36600097D01*
X98356158Y-36553604D01*
X98426432Y-36543500D01*
X98474335Y-36560785D01*
X98511414Y-36583507D01*
X98520208Y-36587988D01*
X98741995Y-36679855D01*
X98751369Y-36682901D01*
X98984805Y-36738944D01*
X98994545Y-36740487D01*
X99233870Y-36759322D01*
X99243730Y-36759322D01*
X99483055Y-36740487D01*
X99492795Y-36738944D01*
X99726231Y-36682901D01*
X99735605Y-36679855D01*
X99957392Y-36587988D01*
X99966186Y-36583507D01*
X100155423Y-36467543D01*
X100164377Y-36457646D01*
X114312784Y-36457646D01*
X114318511Y-36465296D01*
X114511414Y-36583507D01*
X114520208Y-36587988D01*
X114741995Y-36679855D01*
X114751369Y-36682901D01*
X114984805Y-36738944D01*
X114994545Y-36740487D01*
X115233870Y-36759322D01*
X115243730Y-36759322D01*
X115483055Y-36740487D01*
X115492795Y-36738944D01*
X115726231Y-36682901D01*
X115735605Y-36679855D01*
X115957392Y-36587988D01*
X115966186Y-36583507D01*
X116155423Y-36467543D01*
X116164377Y-36457646D01*
X128310184Y-36457646D01*
X128315911Y-36465296D01*
X128508814Y-36583507D01*
X128517608Y-36587988D01*
X128739395Y-36679855D01*
X128748769Y-36682901D01*
X128982205Y-36738944D01*
X128991945Y-36740487D01*
X129231270Y-36759322D01*
X129241130Y-36759322D01*
X129480455Y-36740487D01*
X129490195Y-36738944D01*
X129723631Y-36682901D01*
X129733005Y-36679855D01*
X129954792Y-36587988D01*
X129963586Y-36583507D01*
X130152823Y-36467543D01*
X130161777Y-36457646D01*
X144310184Y-36457646D01*
X144315911Y-36465296D01*
X144508814Y-36583507D01*
X144517608Y-36587988D01*
X144739395Y-36679855D01*
X144748769Y-36682901D01*
X144982205Y-36738944D01*
X144991945Y-36740487D01*
X145231270Y-36759322D01*
X145241130Y-36759322D01*
X145480455Y-36740487D01*
X145490195Y-36738944D01*
X145723631Y-36682901D01*
X145733005Y-36679855D01*
X145954792Y-36587988D01*
X145963586Y-36583507D01*
X146152823Y-36467543D01*
X146162283Y-36457087D01*
X146158499Y-36448309D01*
X145249012Y-35538822D01*
X145235068Y-35531208D01*
X145233235Y-35531339D01*
X145226620Y-35535590D01*
X144316944Y-36445266D01*
X144310184Y-36457646D01*
X130161777Y-36457646D01*
X130162283Y-36457087D01*
X130158499Y-36448309D01*
X129249012Y-35538822D01*
X129235068Y-35531208D01*
X129233235Y-35531339D01*
X129226620Y-35535590D01*
X128316944Y-36445266D01*
X128310184Y-36457646D01*
X116164377Y-36457646D01*
X116164883Y-36457087D01*
X116161099Y-36448309D01*
X115251612Y-35538822D01*
X115237668Y-35531208D01*
X115235835Y-35531339D01*
X115229220Y-35535590D01*
X114319544Y-36445266D01*
X114312784Y-36457646D01*
X100164377Y-36457646D01*
X100164883Y-36457087D01*
X100161099Y-36448309D01*
X98968685Y-35255895D01*
X98934659Y-35193583D01*
X98939724Y-35122768D01*
X98968685Y-35077705D01*
X99149705Y-34896685D01*
X99212017Y-34862659D01*
X99282832Y-34867724D01*
X99327895Y-34896685D01*
X100517266Y-36086056D01*
X100529646Y-36092816D01*
X100537296Y-36087089D01*
X100655507Y-35894186D01*
X100659988Y-35885392D01*
X100751855Y-35663605D01*
X100754901Y-35654231D01*
X100810944Y-35420795D01*
X100812487Y-35411055D01*
X100831322Y-35171730D01*
X100831322Y-35161870D01*
X100812487Y-34922545D01*
X100810944Y-34912805D01*
X100754901Y-34679369D01*
X100751855Y-34669995D01*
X100659988Y-34448208D01*
X100655507Y-34439414D01*
X100547137Y-34262570D01*
X100528599Y-34194036D01*
X100550055Y-34126360D01*
X100604695Y-34081027D01*
X100675169Y-34072430D01*
X100706420Y-34081898D01*
X100789466Y-34119394D01*
X100793384Y-34121163D01*
X100797503Y-34122383D01*
X101068191Y-34202565D01*
X101068196Y-34202566D01*
X101072304Y-34203783D01*
X101076538Y-34204431D01*
X101076543Y-34204432D01*
X101314484Y-34240842D01*
X101359856Y-34247785D01*
X101507976Y-34250112D01*
X101646429Y-34252287D01*
X101646435Y-34252287D01*
X101650720Y-34252354D01*
X101939512Y-34217407D01*
X102220890Y-34143589D01*
X102489646Y-34032266D01*
X102677849Y-33922289D01*
X102737104Y-33887663D01*
X102737105Y-33887662D01*
X102740807Y-33885499D01*
X102969726Y-33706004D01*
X103009092Y-33665382D01*
X103169183Y-33500180D01*
X103172166Y-33497102D01*
X103344383Y-33262658D01*
X103483188Y-33007010D01*
X103586013Y-32734890D01*
X103624387Y-32567342D01*
X103650000Y-32455513D01*
X103650001Y-32455508D01*
X103650957Y-32451333D01*
X103676816Y-32161585D01*
X103677285Y-32116800D01*
X103673702Y-32064242D01*
X103657791Y-31830851D01*
X103657790Y-31830845D01*
X103657499Y-31826574D01*
X103598509Y-31541719D01*
X103501405Y-31267505D01*
X103367984Y-31009007D01*
X103357225Y-30993698D01*
X103311916Y-30929229D01*
X103289111Y-30861995D01*
X103306276Y-30793105D01*
X103357961Y-30744431D01*
X103415003Y-30730779D01*
X111061827Y-30730779D01*
X111129948Y-30750781D01*
X111176441Y-30804437D01*
X111186545Y-30874711D01*
X111164149Y-30930306D01*
X111121317Y-30989913D01*
X110985197Y-31247000D01*
X110885226Y-31520182D01*
X110823256Y-31804404D01*
X110800432Y-32094406D01*
X110817178Y-32384823D01*
X110818003Y-32389028D01*
X110818004Y-32389036D01*
X110836280Y-32482190D01*
X110873182Y-32670281D01*
X110874569Y-32674332D01*
X110874570Y-32674336D01*
X110966020Y-32941441D01*
X110966024Y-32941450D01*
X110967409Y-32945496D01*
X111000247Y-33010786D01*
X111091141Y-33191508D01*
X111098116Y-33205377D01*
X111137484Y-33262658D01*
X111240790Y-33412969D01*
X111262883Y-33445115D01*
X111265769Y-33448287D01*
X111265771Y-33448289D01*
X111281122Y-33465159D01*
X111458662Y-33660273D01*
X111461951Y-33663023D01*
X111678538Y-33844119D01*
X111678543Y-33844123D01*
X111681830Y-33846871D01*
X111746858Y-33887663D01*
X111924617Y-33999171D01*
X111924621Y-33999173D01*
X111928257Y-34001454D01*
X111932167Y-34003219D01*
X111932168Y-34003220D01*
X111944387Y-34008737D01*
X112193384Y-34121163D01*
X112197503Y-34122383D01*
X112468191Y-34202565D01*
X112468196Y-34202566D01*
X112472304Y-34203783D01*
X112476538Y-34204431D01*
X112476543Y-34204432D01*
X112714484Y-34240842D01*
X112759856Y-34247785D01*
X112907976Y-34250112D01*
X113046429Y-34252287D01*
X113046435Y-34252287D01*
X113050720Y-34252354D01*
X113339512Y-34217407D01*
X113620890Y-34143589D01*
X113624850Y-34141949D01*
X113624855Y-34141947D01*
X113775218Y-34079664D01*
X113845808Y-34072075D01*
X113909295Y-34103854D01*
X113945522Y-34164912D01*
X113942988Y-34235864D01*
X113930869Y-34261908D01*
X113822093Y-34439414D01*
X113817612Y-34448208D01*
X113725745Y-34669995D01*
X113722699Y-34679369D01*
X113666656Y-34912805D01*
X113665113Y-34922545D01*
X113646278Y-35161870D01*
X113646278Y-35171730D01*
X113665113Y-35411055D01*
X113666656Y-35420795D01*
X113722699Y-35654231D01*
X113725745Y-35663605D01*
X113817612Y-35885392D01*
X113822093Y-35894186D01*
X113938057Y-36083423D01*
X113948513Y-36092883D01*
X113957291Y-36089099D01*
X114878458Y-35167932D01*
X115603208Y-35167932D01*
X115603339Y-35169765D01*
X115607590Y-35176380D01*
X116517266Y-36086056D01*
X116529646Y-36092816D01*
X116537296Y-36087089D01*
X116655507Y-35894186D01*
X116659988Y-35885392D01*
X116751855Y-35663605D01*
X116754901Y-35654231D01*
X116810944Y-35420795D01*
X116812487Y-35411055D01*
X116831322Y-35171730D01*
X127643678Y-35171730D01*
X127662513Y-35411055D01*
X127664056Y-35420795D01*
X127720099Y-35654231D01*
X127723145Y-35663605D01*
X127815012Y-35885392D01*
X127819493Y-35894186D01*
X127935457Y-36083423D01*
X127945913Y-36092883D01*
X127954691Y-36089099D01*
X128864178Y-35179612D01*
X128871792Y-35165668D01*
X128871661Y-35163835D01*
X128867410Y-35157220D01*
X127957734Y-34247544D01*
X127945354Y-34240784D01*
X127937704Y-34246511D01*
X127819493Y-34439414D01*
X127815012Y-34448208D01*
X127723145Y-34669995D01*
X127720099Y-34679369D01*
X127664056Y-34912805D01*
X127662513Y-34922545D01*
X127643678Y-35161870D01*
X127643678Y-35171730D01*
X116831322Y-35171730D01*
X116831322Y-35161870D01*
X116812487Y-34922545D01*
X116810944Y-34912805D01*
X116754901Y-34679369D01*
X116751855Y-34669995D01*
X116659988Y-34448208D01*
X116655507Y-34439414D01*
X116539543Y-34250177D01*
X116529087Y-34240717D01*
X116520309Y-34244501D01*
X115610822Y-35153988D01*
X115603208Y-35167932D01*
X114878458Y-35167932D01*
X116158056Y-33888334D01*
X116164816Y-33875954D01*
X116159089Y-33868304D01*
X115966186Y-33750093D01*
X115957392Y-33745612D01*
X115735605Y-33653745D01*
X115726231Y-33650699D01*
X115492795Y-33594656D01*
X115483055Y-33593113D01*
X115243730Y-33574278D01*
X115233870Y-33574278D01*
X114994545Y-33593113D01*
X114984805Y-33594656D01*
X114751366Y-33650700D01*
X114739910Y-33654423D01*
X114668943Y-33656454D01*
X114608143Y-33619794D01*
X114576815Y-33556083D01*
X114584905Y-33485549D01*
X114599422Y-33459998D01*
X114741845Y-33266113D01*
X114744383Y-33262658D01*
X114883188Y-33007010D01*
X114986013Y-32734890D01*
X115024387Y-32567342D01*
X115050000Y-32455513D01*
X115050001Y-32455508D01*
X115050957Y-32451333D01*
X115076816Y-32161585D01*
X115077285Y-32116800D01*
X115073702Y-32064242D01*
X115057791Y-31830851D01*
X115057790Y-31830845D01*
X115057499Y-31826574D01*
X114998509Y-31541719D01*
X114901405Y-31267505D01*
X114767984Y-31009007D01*
X114757225Y-30993698D01*
X114711916Y-30929229D01*
X114689111Y-30861995D01*
X114706276Y-30793105D01*
X114757961Y-30744431D01*
X114815003Y-30730779D01*
X129659227Y-30730779D01*
X129727348Y-30750781D01*
X129773841Y-30804437D01*
X129783945Y-30874711D01*
X129761549Y-30930306D01*
X129718717Y-30989913D01*
X129582597Y-31247000D01*
X129482626Y-31520182D01*
X129420656Y-31804404D01*
X129397832Y-32094406D01*
X129414578Y-32384823D01*
X129415403Y-32389028D01*
X129415404Y-32389036D01*
X129433680Y-32482190D01*
X129470582Y-32670281D01*
X129471969Y-32674332D01*
X129471970Y-32674336D01*
X129563420Y-32941441D01*
X129563424Y-32941450D01*
X129564809Y-32945496D01*
X129597647Y-33010786D01*
X129688541Y-33191508D01*
X129695516Y-33205377D01*
X129734884Y-33262658D01*
X129838190Y-33412969D01*
X129860283Y-33445115D01*
X129863416Y-33448558D01*
X129863466Y-33448662D01*
X129865835Y-33451650D01*
X129865174Y-33452174D01*
X129894465Y-33512406D01*
X129886066Y-33582904D01*
X129840886Y-33637670D01*
X129773270Y-33659316D01*
X129731276Y-33653184D01*
X129723629Y-33650699D01*
X129490195Y-33594656D01*
X129480455Y-33593113D01*
X129241130Y-33574278D01*
X129231270Y-33574278D01*
X128991945Y-33593113D01*
X128982205Y-33594656D01*
X128748769Y-33650699D01*
X128739395Y-33653745D01*
X128517608Y-33745612D01*
X128508814Y-33750093D01*
X128319577Y-33866057D01*
X128310117Y-33876513D01*
X128313901Y-33885291D01*
X130514666Y-36086056D01*
X130527046Y-36092816D01*
X130534696Y-36087089D01*
X130652907Y-35894186D01*
X130657388Y-35885392D01*
X130749255Y-35663605D01*
X130752301Y-35654231D01*
X130808344Y-35420795D01*
X130809887Y-35411055D01*
X130828722Y-35171730D01*
X130828722Y-35161870D01*
X130809887Y-34922545D01*
X130808344Y-34912805D01*
X130752301Y-34679369D01*
X130749255Y-34669995D01*
X130657388Y-34448208D01*
X130652907Y-34439414D01*
X130544537Y-34262570D01*
X130525999Y-34194036D01*
X130547455Y-34126360D01*
X130602095Y-34081027D01*
X130672569Y-34072430D01*
X130703820Y-34081898D01*
X130786866Y-34119394D01*
X130790784Y-34121163D01*
X130794903Y-34122383D01*
X131065591Y-34202565D01*
X131065596Y-34202566D01*
X131069704Y-34203783D01*
X131073938Y-34204431D01*
X131073943Y-34204432D01*
X131311884Y-34240842D01*
X131357256Y-34247785D01*
X131505376Y-34250112D01*
X131643829Y-34252287D01*
X131643835Y-34252287D01*
X131648120Y-34252354D01*
X131936912Y-34217407D01*
X132218290Y-34143589D01*
X132487046Y-34032266D01*
X132675249Y-33922289D01*
X132734504Y-33887663D01*
X132734505Y-33887662D01*
X132738207Y-33885499D01*
X132967126Y-33706004D01*
X133006492Y-33665382D01*
X133166583Y-33500180D01*
X133169566Y-33497102D01*
X133341783Y-33262658D01*
X133480588Y-33007010D01*
X133583413Y-32734890D01*
X133621787Y-32567342D01*
X133647400Y-32455513D01*
X133647401Y-32455508D01*
X133648357Y-32451333D01*
X133674216Y-32161585D01*
X133674685Y-32116800D01*
X133674004Y-32106814D01*
X133689325Y-32037491D01*
X133739694Y-31987456D01*
X133809118Y-31972595D01*
X133875555Y-31997626D01*
X133888807Y-32009148D01*
X134171325Y-32291666D01*
X134173779Y-32294188D01*
X134217060Y-32339956D01*
X134242332Y-32366681D01*
X134288601Y-32402056D01*
X134304757Y-32414408D01*
X134309892Y-32418552D01*
X134362090Y-32462976D01*
X134369720Y-32469470D01*
X134374045Y-32472089D01*
X134374050Y-32472093D01*
X134397824Y-32486491D01*
X134409071Y-32494163D01*
X134435174Y-32514120D01*
X134496255Y-32546871D01*
X134504401Y-32551239D01*
X134510126Y-32554504D01*
X134577358Y-32595221D01*
X134601701Y-32605056D01*
X134607817Y-32607527D01*
X134620158Y-32613307D01*
X134649109Y-32628831D01*
X134653890Y-32630477D01*
X134653894Y-32630479D01*
X134723401Y-32654412D01*
X134729579Y-32656722D01*
X134763139Y-32670281D01*
X134802429Y-32686155D01*
X134807369Y-32687277D01*
X134807368Y-32687277D01*
X134834460Y-32693432D01*
X134847559Y-32697163D01*
X134878631Y-32707862D01*
X134956100Y-32721243D01*
X134962504Y-32722523D01*
X135039144Y-32739935D01*
X135071953Y-32741999D01*
X135085453Y-32743585D01*
X135117836Y-32749179D01*
X135121793Y-32749359D01*
X135121796Y-32749359D01*
X135145506Y-32750436D01*
X135145525Y-32750436D01*
X135146925Y-32750500D01*
X135203108Y-32750500D01*
X135211019Y-32750749D01*
X135281413Y-32755178D01*
X135322992Y-32751101D01*
X135335288Y-32750500D01*
X137161384Y-32750500D01*
X137164902Y-32750549D01*
X137259550Y-32753193D01*
X137259553Y-32753193D01*
X137264605Y-32753334D01*
X137342498Y-32742941D01*
X137349039Y-32742242D01*
X137377732Y-32739933D01*
X137422323Y-32736346D01*
X137422327Y-32736345D01*
X137427365Y-32735940D01*
X137459278Y-32728101D01*
X137472658Y-32725574D01*
X137505220Y-32721229D01*
X137510061Y-32719768D01*
X137510063Y-32719767D01*
X137580429Y-32698522D01*
X137586792Y-32696781D01*
X137625311Y-32687320D01*
X137663106Y-32678037D01*
X137693352Y-32665199D01*
X137706163Y-32660561D01*
X137718878Y-32656722D01*
X137737608Y-32651067D01*
X137742156Y-32648849D01*
X137742163Y-32648846D01*
X137808218Y-32616629D01*
X137814220Y-32613893D01*
X137864378Y-32592602D01*
X137886556Y-32583188D01*
X137914356Y-32565681D01*
X137926260Y-32559055D01*
X137955788Y-32544654D01*
X138020000Y-32499357D01*
X138025486Y-32495699D01*
X138087686Y-32456529D01*
X138087687Y-32456528D01*
X138091967Y-32453833D01*
X138095756Y-32450492D01*
X138095762Y-32450488D01*
X138116617Y-32432102D01*
X138127312Y-32423656D01*
X138144177Y-32411759D01*
X138154147Y-32404726D01*
X138175650Y-32385091D01*
X138215366Y-32345375D01*
X138221136Y-32339956D01*
X138270258Y-32296650D01*
X138270261Y-32296647D01*
X138274055Y-32293302D01*
X138281877Y-32283780D01*
X138300579Y-32261011D01*
X138308849Y-32251892D01*
X139856136Y-30704605D01*
X139918448Y-30670579D01*
X139945231Y-30667700D01*
X141104554Y-30667700D01*
X141172675Y-30687702D01*
G37*
%TD.AperFunction*%
%TA.AperFunction,Conductor*%
G36*
X159453621Y-26131702D02*
G01*
X159500114Y-26185358D01*
X159511500Y-26237700D01*
X159511500Y-40819633D01*
X159491498Y-40887754D01*
X159437842Y-40934247D01*
X159367568Y-40944351D01*
X159324607Y-40929942D01*
X159313113Y-40923597D01*
X159303705Y-40919369D01*
X159102959Y-40848280D01*
X159092988Y-40845646D01*
X159021837Y-40832972D01*
X159008540Y-40834432D01*
X159004000Y-40848989D01*
X159004000Y-42292000D01*
X158983998Y-42360121D01*
X158930342Y-42406614D01*
X158878000Y-42418000D01*
X154870116Y-42418000D01*
X154837673Y-42427526D01*
X154806896Y-42447306D01*
X154735899Y-42447308D01*
X154706124Y-42434187D01*
X154679576Y-42418109D01*
X154668329Y-42410437D01*
X154642226Y-42390480D01*
X154572992Y-42353357D01*
X154567268Y-42350093D01*
X154537727Y-42332202D01*
X154500042Y-42309379D01*
X154469581Y-42297072D01*
X154457241Y-42291292D01*
X154454061Y-42289587D01*
X154428291Y-42275769D01*
X154423510Y-42274123D01*
X154423506Y-42274121D01*
X154353999Y-42250188D01*
X154347821Y-42247878D01*
X154279666Y-42220342D01*
X154279667Y-42220342D01*
X154274971Y-42218445D01*
X154242939Y-42211168D01*
X154229841Y-42207437D01*
X154198769Y-42196738D01*
X154121300Y-42183357D01*
X154114896Y-42182077D01*
X154038256Y-42164665D01*
X154005447Y-42162601D01*
X153991947Y-42161015D01*
X153959564Y-42155421D01*
X153955607Y-42155241D01*
X153955604Y-42155241D01*
X153931894Y-42154164D01*
X153931875Y-42154164D01*
X153930475Y-42154100D01*
X153874292Y-42154100D01*
X153866380Y-42153851D01*
X153860786Y-42153499D01*
X153795987Y-42149422D01*
X153756945Y-42153250D01*
X153754408Y-42153499D01*
X153742112Y-42154100D01*
X152231100Y-42154100D01*
X152162979Y-42134098D01*
X152116486Y-42080442D01*
X152105100Y-42028100D01*
X152105100Y-41891885D01*
X154852000Y-41891885D01*
X154856475Y-41907124D01*
X154857865Y-41908329D01*
X154865548Y-41910000D01*
X155937885Y-41910000D01*
X155953124Y-41905525D01*
X155954329Y-41904135D01*
X155956000Y-41896452D01*
X155956000Y-41891885D01*
X156464000Y-41891885D01*
X156468475Y-41907124D01*
X156469865Y-41908329D01*
X156477548Y-41910000D01*
X158477885Y-41910000D01*
X158493124Y-41905525D01*
X158494329Y-41904135D01*
X158496000Y-41896452D01*
X158496000Y-40847102D01*
X158492082Y-40833758D01*
X158477806Y-40831771D01*
X158439324Y-40837660D01*
X158429288Y-40840051D01*
X158226868Y-40906212D01*
X158217359Y-40910209D01*
X158028463Y-41008542D01*
X158019738Y-41014036D01*
X157849433Y-41141905D01*
X157841726Y-41148748D01*
X157764094Y-41229985D01*
X157702570Y-41265415D01*
X157631657Y-41261958D01*
X157573871Y-41220712D01*
X157555018Y-41187164D01*
X157513324Y-41075946D01*
X157504786Y-41060351D01*
X157428285Y-40958276D01*
X157415724Y-40945715D01*
X157313649Y-40869214D01*
X157298054Y-40860676D01*
X157177606Y-40815522D01*
X157162351Y-40811895D01*
X157111486Y-40806369D01*
X157104672Y-40806000D01*
X156482115Y-40806000D01*
X156466876Y-40810475D01*
X156465671Y-40811865D01*
X156464000Y-40819548D01*
X156464000Y-41891885D01*
X155956000Y-41891885D01*
X155956000Y-40824116D01*
X155951525Y-40808877D01*
X155950135Y-40807672D01*
X155942452Y-40806001D01*
X155315331Y-40806001D01*
X155308510Y-40806371D01*
X155257648Y-40811895D01*
X155242396Y-40815521D01*
X155121946Y-40860676D01*
X155106351Y-40869214D01*
X155004276Y-40945715D01*
X154991715Y-40958276D01*
X154915214Y-41060351D01*
X154906676Y-41075946D01*
X154861522Y-41196394D01*
X154857895Y-41211649D01*
X154852369Y-41262514D01*
X154852000Y-41269328D01*
X154852000Y-41891885D01*
X152105100Y-41891885D01*
X152105100Y-38168295D01*
X156041051Y-38168295D01*
X156041348Y-38173448D01*
X156041348Y-38173451D01*
X156046811Y-38268190D01*
X156053910Y-38391315D01*
X156055047Y-38396361D01*
X156055048Y-38396367D01*
X156074919Y-38484539D01*
X156103022Y-38609239D01*
X156187066Y-38816216D01*
X156189765Y-38820620D01*
X156261383Y-38937490D01*
X156303787Y-39006688D01*
X156450050Y-39175538D01*
X156621926Y-39318232D01*
X156814800Y-39430938D01*
X156819625Y-39432780D01*
X156819626Y-39432781D01*
X156844394Y-39442239D01*
X157023492Y-39510630D01*
X157028560Y-39511661D01*
X157028563Y-39511662D01*
X157117656Y-39529788D01*
X157242397Y-39555167D01*
X157247572Y-39555357D01*
X157247574Y-39555357D01*
X157460473Y-39563164D01*
X157460477Y-39563164D01*
X157465637Y-39563353D01*
X157470757Y-39562697D01*
X157470759Y-39562697D01*
X157682088Y-39535625D01*
X157682089Y-39535625D01*
X157687216Y-39534968D01*
X157733817Y-39520987D01*
X157896229Y-39472261D01*
X157896234Y-39472259D01*
X157901184Y-39470774D01*
X158101794Y-39372496D01*
X158283660Y-39242773D01*
X158289223Y-39237230D01*
X158418924Y-39107981D01*
X158441896Y-39085089D01*
X158474475Y-39039751D01*
X158569235Y-38907877D01*
X158572253Y-38903677D01*
X158595588Y-38856463D01*
X158668936Y-38708053D01*
X158668937Y-38708051D01*
X158671230Y-38703411D01*
X158718361Y-38548284D01*
X158734665Y-38494623D01*
X158734665Y-38494621D01*
X158736170Y-38489669D01*
X158765329Y-38268190D01*
X158766956Y-38201600D01*
X158748652Y-37978961D01*
X158694231Y-37762302D01*
X158605154Y-37557440D01*
X158483814Y-37369877D01*
X158333470Y-37204651D01*
X158329419Y-37201452D01*
X158329415Y-37201448D01*
X158162214Y-37069400D01*
X158162210Y-37069398D01*
X158158159Y-37066198D01*
X158116853Y-37043396D01*
X158066884Y-36992964D01*
X158052112Y-36923521D01*
X158077228Y-36857116D01*
X158104580Y-36830509D01*
X158148403Y-36799250D01*
X158283660Y-36702773D01*
X158441896Y-36545089D01*
X158501394Y-36462289D01*
X158569235Y-36367877D01*
X158572253Y-36363677D01*
X158617729Y-36271664D01*
X158668936Y-36168053D01*
X158668937Y-36168051D01*
X158671230Y-36163411D01*
X158736170Y-35949669D01*
X158765329Y-35728190D01*
X158766956Y-35661600D01*
X158748652Y-35438961D01*
X158694231Y-35222302D01*
X158605154Y-35017440D01*
X158527034Y-34896685D01*
X158486622Y-34834217D01*
X158486620Y-34834214D01*
X158483814Y-34829877D01*
X158333470Y-34664651D01*
X158329419Y-34661452D01*
X158329415Y-34661448D01*
X158162214Y-34529400D01*
X158162210Y-34529398D01*
X158158159Y-34526198D01*
X158116853Y-34503396D01*
X158066884Y-34452964D01*
X158052112Y-34383521D01*
X158077228Y-34317116D01*
X158104580Y-34290509D01*
X158169081Y-34244501D01*
X158283660Y-34162773D01*
X158301819Y-34144678D01*
X158374319Y-34072430D01*
X158441896Y-34005089D01*
X158446149Y-33999171D01*
X158569235Y-33827877D01*
X158572253Y-33823677D01*
X158588229Y-33791353D01*
X158668936Y-33628053D01*
X158668937Y-33628051D01*
X158671230Y-33623411D01*
X158736170Y-33409669D01*
X158765329Y-33188190D01*
X158766956Y-33121600D01*
X158748652Y-32898961D01*
X158694231Y-32682302D01*
X158605154Y-32477440D01*
X158513366Y-32335557D01*
X158486622Y-32294217D01*
X158486620Y-32294214D01*
X158483814Y-32289877D01*
X158480332Y-32286050D01*
X158336598Y-32128088D01*
X158305546Y-32064242D01*
X158313941Y-31993743D01*
X158359117Y-31938975D01*
X158385561Y-31925306D01*
X158492097Y-31885367D01*
X158500505Y-31882215D01*
X158617061Y-31794861D01*
X158704415Y-31678305D01*
X158755545Y-31541916D01*
X158762300Y-31479734D01*
X158762300Y-29683466D01*
X158755545Y-29621284D01*
X158704415Y-29484895D01*
X158617061Y-29368339D01*
X158500505Y-29280985D01*
X158364116Y-29229855D01*
X158301934Y-29223100D01*
X156505666Y-29223100D01*
X156443484Y-29229855D01*
X156307095Y-29280985D01*
X156190539Y-29368339D01*
X156103185Y-29484895D01*
X156052055Y-29621284D01*
X156045300Y-29683466D01*
X156045300Y-31479734D01*
X156052055Y-31541916D01*
X156103185Y-31678305D01*
X156190539Y-31794861D01*
X156307095Y-31882215D01*
X156315504Y-31885367D01*
X156315505Y-31885368D01*
X156424251Y-31926135D01*
X156481016Y-31968776D01*
X156505716Y-32035338D01*
X156490509Y-32104687D01*
X156471116Y-32131168D01*
X156344429Y-32263738D01*
X156218543Y-32448280D01*
X156194833Y-32499359D01*
X156150336Y-32595221D01*
X156124488Y-32650905D01*
X156064789Y-32866170D01*
X156041051Y-33088295D01*
X156041348Y-33093448D01*
X156041348Y-33093451D01*
X156051304Y-33266113D01*
X156053910Y-33311315D01*
X156055047Y-33316361D01*
X156055048Y-33316367D01*
X156068502Y-33376064D01*
X156103022Y-33529239D01*
X156187066Y-33736216D01*
X156189765Y-33740620D01*
X156279873Y-33887663D01*
X156303787Y-33926688D01*
X156450050Y-34095538D01*
X156621926Y-34238232D01*
X156646093Y-34252354D01*
X156695245Y-34281076D01*
X156743969Y-34332714D01*
X156757040Y-34402497D01*
X156730309Y-34468269D01*
X156689855Y-34501627D01*
X156677407Y-34508107D01*
X156673274Y-34511210D01*
X156673271Y-34511212D01*
X156502900Y-34639130D01*
X156498765Y-34642235D01*
X156490430Y-34650957D01*
X156365736Y-34781442D01*
X156344429Y-34803738D01*
X156218543Y-34988280D01*
X156171516Y-35089592D01*
X156133389Y-35171730D01*
X156124488Y-35190905D01*
X156064789Y-35406170D01*
X156041051Y-35628295D01*
X156041348Y-35633448D01*
X156041348Y-35633451D01*
X156046811Y-35728190D01*
X156053910Y-35851315D01*
X156055047Y-35856361D01*
X156055048Y-35856367D01*
X156074919Y-35944539D01*
X156103022Y-36069239D01*
X156187066Y-36276216D01*
X156189765Y-36280620D01*
X156297904Y-36457087D01*
X156303787Y-36466688D01*
X156450050Y-36635538D01*
X156621926Y-36778232D01*
X156692395Y-36819411D01*
X156695245Y-36821076D01*
X156743969Y-36872714D01*
X156757040Y-36942497D01*
X156730309Y-37008269D01*
X156689855Y-37041627D01*
X156677407Y-37048107D01*
X156673274Y-37051210D01*
X156673271Y-37051212D01*
X156649047Y-37069400D01*
X156498765Y-37182235D01*
X156344429Y-37343738D01*
X156218543Y-37528280D01*
X156124488Y-37730905D01*
X156064789Y-37946170D01*
X156041051Y-38168295D01*
X152105100Y-38168295D01*
X152105100Y-35707744D01*
X152105149Y-35704226D01*
X152107793Y-35609578D01*
X152107793Y-35609575D01*
X152107934Y-35604523D01*
X152097541Y-35526630D01*
X152096841Y-35520081D01*
X152090946Y-35446805D01*
X152090945Y-35446801D01*
X152090540Y-35441763D01*
X152082701Y-35409850D01*
X152080173Y-35396466D01*
X152076498Y-35368922D01*
X152075829Y-35363908D01*
X152053122Y-35288699D01*
X152051381Y-35282336D01*
X152037868Y-35227320D01*
X152032637Y-35206022D01*
X152019799Y-35175776D01*
X152015161Y-35162965D01*
X152005667Y-35131520D01*
X152003449Y-35126972D01*
X152003446Y-35126965D01*
X151971229Y-35060910D01*
X151968493Y-35054908D01*
X151939762Y-34987223D01*
X151937788Y-34982572D01*
X151920281Y-34954772D01*
X151913652Y-34942862D01*
X151903743Y-34922545D01*
X151899254Y-34913340D01*
X151853957Y-34849128D01*
X151850299Y-34843642D01*
X151811129Y-34781442D01*
X151811128Y-34781441D01*
X151808433Y-34777161D01*
X151805092Y-34773372D01*
X151805088Y-34773366D01*
X151786702Y-34752511D01*
X151778256Y-34741816D01*
X151761609Y-34718218D01*
X151759326Y-34714981D01*
X151739691Y-34693478D01*
X151699975Y-34653762D01*
X151694556Y-34647992D01*
X151651250Y-34598870D01*
X151651247Y-34598867D01*
X151647902Y-34595073D01*
X151615611Y-34568549D01*
X151606492Y-34560279D01*
X145155747Y-28109534D01*
X145153293Y-28107012D01*
X145088210Y-28038188D01*
X145088207Y-28038186D01*
X145084740Y-28034519D01*
X145080730Y-28031453D01*
X145080721Y-28031445D01*
X145049568Y-28007627D01*
X145007600Y-27950362D01*
X145003255Y-27879499D01*
X145013140Y-27851704D01*
X145021175Y-27835448D01*
X145103630Y-27668611D01*
X145136605Y-27560078D01*
X145167065Y-27459823D01*
X145167065Y-27459821D01*
X145168570Y-27454869D01*
X145197729Y-27233390D01*
X145199356Y-27166800D01*
X145181052Y-26944161D01*
X145126631Y-26727502D01*
X145037554Y-26522640D01*
X144916214Y-26335077D01*
X144912740Y-26331259D01*
X144912733Y-26331250D01*
X144904770Y-26322499D01*
X144873718Y-26258653D01*
X144882114Y-26188154D01*
X144927291Y-26133386D01*
X144997964Y-26111700D01*
X159385500Y-26111700D01*
X159453621Y-26131702D01*
G37*
%TD.AperFunction*%
%TA.AperFunction,Conductor*%
G36*
X99543651Y-26131702D02*
G01*
X99590144Y-26185358D01*
X99600248Y-26255632D01*
X99577564Y-26307666D01*
X99579429Y-26308938D01*
X99453543Y-26493480D01*
X99359488Y-26696105D01*
X99299789Y-26911370D01*
X99276051Y-27133495D01*
X99276348Y-27138648D01*
X99276348Y-27138651D01*
X99281811Y-27233390D01*
X99288910Y-27356515D01*
X99290047Y-27361561D01*
X99290048Y-27361567D01*
X99309919Y-27449739D01*
X99338022Y-27574439D01*
X99422066Y-27781416D01*
X99424766Y-27785822D01*
X99424768Y-27785826D01*
X99462027Y-27846628D01*
X99480565Y-27915161D01*
X99459108Y-27982838D01*
X99433069Y-28010205D01*
X99433281Y-28010446D01*
X99430545Y-28012858D01*
X99430539Y-28012864D01*
X99429489Y-28013790D01*
X99429481Y-28013796D01*
X99408632Y-28032177D01*
X99397937Y-28040623D01*
X99371102Y-28059553D01*
X99349599Y-28079188D01*
X99309883Y-28118904D01*
X99304113Y-28124323D01*
X99254991Y-28167629D01*
X99254988Y-28167632D01*
X99251194Y-28170977D01*
X99247984Y-28174885D01*
X99247983Y-28174886D01*
X99224670Y-28203268D01*
X99216400Y-28212387D01*
X95724334Y-31704453D01*
X95721812Y-31706907D01*
X95649319Y-31775460D01*
X95630372Y-31800242D01*
X95601592Y-31837885D01*
X95597448Y-31843020D01*
X95561408Y-31885367D01*
X95546530Y-31902848D01*
X95543911Y-31907173D01*
X95543907Y-31907178D01*
X95529509Y-31930952D01*
X95521837Y-31942199D01*
X95501880Y-31968302D01*
X95499490Y-31972760D01*
X95499489Y-31972761D01*
X95464761Y-32037529D01*
X95461496Y-32043254D01*
X95420779Y-32110486D01*
X95412423Y-32131168D01*
X95408473Y-32140945D01*
X95402693Y-32153286D01*
X95387169Y-32182237D01*
X95385523Y-32187018D01*
X95385521Y-32187022D01*
X95361588Y-32256529D01*
X95359278Y-32262707D01*
X95346917Y-32293302D01*
X95329845Y-32335557D01*
X95323608Y-32363012D01*
X95322568Y-32367588D01*
X95318837Y-32380687D01*
X95308138Y-32411759D01*
X95294757Y-32489228D01*
X95293477Y-32495632D01*
X95276065Y-32572272D01*
X95274001Y-32605081D01*
X95272415Y-32618581D01*
X95266821Y-32650964D01*
X95266641Y-32654921D01*
X95266641Y-32654924D01*
X95265592Y-32678037D01*
X95265500Y-32680053D01*
X95265500Y-32736236D01*
X95265251Y-32744147D01*
X95260822Y-32814541D01*
X95261316Y-32819576D01*
X95264899Y-32856120D01*
X95265500Y-32868416D01*
X95265500Y-38507784D01*
X95265451Y-38511302D01*
X95263137Y-38594161D01*
X95262666Y-38611005D01*
X95263335Y-38616019D01*
X95273058Y-38688886D01*
X95273758Y-38695439D01*
X95280060Y-38773765D01*
X95287897Y-38805670D01*
X95290426Y-38819058D01*
X95294771Y-38851620D01*
X95296232Y-38856461D01*
X95296233Y-38856463D01*
X95317478Y-38926829D01*
X95319219Y-38933190D01*
X95337963Y-39009506D01*
X95339941Y-39014166D01*
X95350801Y-39039751D01*
X95355438Y-39052561D01*
X95364933Y-39084008D01*
X95367151Y-39088556D01*
X95367154Y-39088563D01*
X95399371Y-39154618D01*
X95402107Y-39160620D01*
X95409841Y-39178840D01*
X95432812Y-39232956D01*
X95448123Y-39257268D01*
X95450319Y-39260756D01*
X95456945Y-39272660D01*
X95471346Y-39302188D01*
X95474265Y-39306325D01*
X95474265Y-39306326D01*
X95516641Y-39366397D01*
X95520301Y-39371886D01*
X95552057Y-39422313D01*
X95562167Y-39438367D01*
X95565508Y-39442156D01*
X95565512Y-39442162D01*
X95583898Y-39463017D01*
X95592344Y-39473712D01*
X95611274Y-39500547D01*
X95630909Y-39522050D01*
X95670625Y-39561766D01*
X95676044Y-39567536D01*
X95719350Y-39616658D01*
X95719353Y-39616661D01*
X95722698Y-39620455D01*
X95726612Y-39623670D01*
X95726613Y-39623671D01*
X95754987Y-39646978D01*
X95764107Y-39655248D01*
X96993137Y-40884279D01*
X97027163Y-40946591D01*
X97022098Y-41017407D01*
X96979695Y-41074134D01*
X96889433Y-41141905D01*
X96881726Y-41148748D01*
X96804094Y-41229985D01*
X96742570Y-41265415D01*
X96671657Y-41261958D01*
X96613871Y-41220712D01*
X96595018Y-41187164D01*
X96553324Y-41075946D01*
X96544786Y-41060351D01*
X96468285Y-40958276D01*
X96455724Y-40945715D01*
X96353649Y-40869214D01*
X96338054Y-40860676D01*
X96217606Y-40815522D01*
X96202351Y-40811895D01*
X96151486Y-40806369D01*
X96144672Y-40806000D01*
X95522115Y-40806000D01*
X95506876Y-40810475D01*
X95505671Y-40811865D01*
X95504000Y-40819548D01*
X95504000Y-41891885D01*
X95508475Y-41907124D01*
X95509865Y-41908329D01*
X95517548Y-41910000D01*
X97918000Y-41910000D01*
X97986121Y-41930002D01*
X98032614Y-41983658D01*
X98044000Y-42036000D01*
X98044000Y-42292000D01*
X98023998Y-42360121D01*
X97970342Y-42406614D01*
X97918000Y-42418000D01*
X95122000Y-42418000D01*
X95053879Y-42397998D01*
X95007386Y-42344342D01*
X94996000Y-42292000D01*
X94996000Y-40824116D01*
X94991525Y-40808877D01*
X94990135Y-40807672D01*
X94982452Y-40806001D01*
X94614500Y-40806001D01*
X94546379Y-40785999D01*
X94499886Y-40732343D01*
X94488500Y-40680001D01*
X94488500Y-26237700D01*
X94508502Y-26169579D01*
X94562158Y-26123086D01*
X94614500Y-26111700D01*
X99475530Y-26111700D01*
X99543651Y-26131702D01*
G37*
%TD.AperFunction*%
%TA.AperFunction,Conductor*%
G36*
X110587760Y-38937490D02*
G01*
X110632995Y-38989694D01*
X110683725Y-39098485D01*
X110683728Y-39098490D01*
X110686051Y-39103472D01*
X110689207Y-39107979D01*
X110689208Y-39107981D01*
X110804522Y-39272666D01*
X110813361Y-39285290D01*
X110970310Y-39442239D01*
X110974818Y-39445396D01*
X110974821Y-39445398D01*
X111013548Y-39472515D01*
X111152127Y-39569549D01*
X111157109Y-39571872D01*
X111157114Y-39571875D01*
X111337770Y-39656116D01*
X111353290Y-39663353D01*
X111358598Y-39664775D01*
X111358600Y-39664776D01*
X111562371Y-39719376D01*
X111562373Y-39719376D01*
X111567686Y-39720800D01*
X111782744Y-39739615D01*
X111783325Y-39739666D01*
X111788800Y-39740145D01*
X111794275Y-39739666D01*
X111799782Y-39739666D01*
X111799782Y-39741836D01*
X111860188Y-39753960D01*
X111911194Y-39803346D01*
X111927402Y-39872468D01*
X111902420Y-39941072D01*
X111863571Y-39992908D01*
X111863570Y-39992910D01*
X111858185Y-40000095D01*
X111807055Y-40136484D01*
X111800300Y-40198666D01*
X111800300Y-40399561D01*
X111780298Y-40467682D01*
X111726642Y-40514175D01*
X111656368Y-40524279D01*
X111591788Y-40494785D01*
X111560105Y-40452811D01*
X111523875Y-40375115D01*
X111523872Y-40375110D01*
X111521549Y-40370128D01*
X111518392Y-40365619D01*
X111397398Y-40192821D01*
X111397396Y-40192818D01*
X111394239Y-40188310D01*
X111237290Y-40031361D01*
X111232782Y-40028204D01*
X111232779Y-40028202D01*
X111151389Y-39971212D01*
X111055473Y-39904051D01*
X111050491Y-39901728D01*
X111050486Y-39901725D01*
X110859292Y-39812570D01*
X110859291Y-39812569D01*
X110854310Y-39810247D01*
X110849002Y-39808825D01*
X110849000Y-39808824D01*
X110645229Y-39754224D01*
X110645227Y-39754224D01*
X110639914Y-39752800D01*
X110418800Y-39733455D01*
X110197686Y-39752800D01*
X110192373Y-39754224D01*
X110192371Y-39754224D01*
X109988600Y-39808824D01*
X109988598Y-39808825D01*
X109983290Y-39810247D01*
X109978310Y-39812569D01*
X109978308Y-39812570D01*
X109787115Y-39901725D01*
X109787110Y-39901728D01*
X109782128Y-39904051D01*
X109777621Y-39907207D01*
X109777619Y-39907208D01*
X109604821Y-40028202D01*
X109604818Y-40028204D01*
X109600310Y-40031361D01*
X109443361Y-40188310D01*
X109440204Y-40192818D01*
X109440202Y-40192821D01*
X109319208Y-40365619D01*
X109316051Y-40370128D01*
X109313728Y-40375110D01*
X109313725Y-40375115D01*
X109262995Y-40483906D01*
X109216077Y-40537191D01*
X109147800Y-40556652D01*
X109079840Y-40536110D01*
X109034605Y-40483906D01*
X108983875Y-40375115D01*
X108983872Y-40375110D01*
X108981549Y-40370128D01*
X108978392Y-40365619D01*
X108857398Y-40192821D01*
X108857396Y-40192818D01*
X108854239Y-40188310D01*
X108697290Y-40031361D01*
X108692782Y-40028204D01*
X108692779Y-40028202D01*
X108611389Y-39971212D01*
X108515473Y-39904051D01*
X108510491Y-39901728D01*
X108510486Y-39901725D01*
X108319292Y-39812570D01*
X108319291Y-39812569D01*
X108314310Y-39810247D01*
X108309002Y-39808825D01*
X108309000Y-39808824D01*
X108105229Y-39754224D01*
X108105227Y-39754224D01*
X108099914Y-39752800D01*
X107878800Y-39733455D01*
X107657686Y-39752800D01*
X107652373Y-39754224D01*
X107652371Y-39754224D01*
X107448600Y-39808824D01*
X107448598Y-39808825D01*
X107443290Y-39810247D01*
X107438310Y-39812569D01*
X107438308Y-39812570D01*
X107247115Y-39901725D01*
X107247110Y-39901728D01*
X107242128Y-39904051D01*
X107237621Y-39907207D01*
X107237619Y-39907208D01*
X107064821Y-40028202D01*
X107064818Y-40028204D01*
X107060310Y-40031361D01*
X106903361Y-40188310D01*
X106900204Y-40192818D01*
X106900202Y-40192821D01*
X106779208Y-40365619D01*
X106776051Y-40370128D01*
X106773728Y-40375110D01*
X106773725Y-40375115D01*
X106722995Y-40483906D01*
X106676077Y-40537191D01*
X106607800Y-40556652D01*
X106539840Y-40536110D01*
X106494605Y-40483906D01*
X106443875Y-40375115D01*
X106443872Y-40375110D01*
X106441549Y-40370128D01*
X106438392Y-40365619D01*
X106317398Y-40192821D01*
X106317396Y-40192818D01*
X106314239Y-40188310D01*
X106157290Y-40031361D01*
X106152782Y-40028204D01*
X106152779Y-40028202D01*
X106071389Y-39971212D01*
X105975473Y-39904051D01*
X105970491Y-39901728D01*
X105970486Y-39901725D01*
X105779292Y-39812570D01*
X105779291Y-39812569D01*
X105774310Y-39810247D01*
X105769002Y-39808825D01*
X105769000Y-39808824D01*
X105565229Y-39754224D01*
X105565227Y-39754224D01*
X105559914Y-39752800D01*
X105338800Y-39733455D01*
X105117686Y-39752800D01*
X105112373Y-39754224D01*
X105112371Y-39754224D01*
X104908600Y-39808824D01*
X104908598Y-39808825D01*
X104903290Y-39810247D01*
X104898310Y-39812569D01*
X104898308Y-39812570D01*
X104707115Y-39901725D01*
X104707110Y-39901728D01*
X104702128Y-39904051D01*
X104697621Y-39907207D01*
X104697619Y-39907208D01*
X104524821Y-40028202D01*
X104524818Y-40028204D01*
X104520310Y-40031361D01*
X104363361Y-40188310D01*
X104360204Y-40192818D01*
X104360202Y-40192821D01*
X104239208Y-40365619D01*
X104236051Y-40370128D01*
X104233728Y-40375110D01*
X104233725Y-40375115D01*
X104182995Y-40483906D01*
X104136077Y-40537191D01*
X104067800Y-40556652D01*
X103999840Y-40536110D01*
X103954605Y-40483906D01*
X103903875Y-40375115D01*
X103903872Y-40375110D01*
X103901549Y-40370128D01*
X103898392Y-40365619D01*
X103777398Y-40192821D01*
X103777396Y-40192818D01*
X103774239Y-40188310D01*
X103617290Y-40031361D01*
X103612782Y-40028204D01*
X103612779Y-40028202D01*
X103531389Y-39971212D01*
X103435473Y-39904051D01*
X103430491Y-39901728D01*
X103430486Y-39901725D01*
X103239292Y-39812570D01*
X103239291Y-39812569D01*
X103234310Y-39810247D01*
X103229002Y-39808825D01*
X103229000Y-39808824D01*
X103025229Y-39754224D01*
X103025227Y-39754224D01*
X103019914Y-39752800D01*
X102798800Y-39733455D01*
X102577686Y-39752800D01*
X102572373Y-39754224D01*
X102572371Y-39754224D01*
X102368600Y-39808824D01*
X102368598Y-39808825D01*
X102363290Y-39810247D01*
X102358310Y-39812569D01*
X102358308Y-39812570D01*
X102167115Y-39901725D01*
X102167110Y-39901728D01*
X102162128Y-39904051D01*
X102157621Y-39907207D01*
X102157619Y-39907208D01*
X101984821Y-40028202D01*
X101984818Y-40028204D01*
X101980310Y-40031361D01*
X101823361Y-40188310D01*
X101820204Y-40192818D01*
X101820202Y-40192821D01*
X101771568Y-40262278D01*
X101716111Y-40306606D01*
X101645492Y-40313915D01*
X101582131Y-40281884D01*
X101552370Y-40239235D01*
X101549993Y-40233635D01*
X101545361Y-40220837D01*
X101537330Y-40194238D01*
X101535867Y-40189392D01*
X101533649Y-40184844D01*
X101533646Y-40184837D01*
X101501429Y-40118782D01*
X101498693Y-40112780D01*
X101469962Y-40045095D01*
X101467988Y-40040444D01*
X101450481Y-40012644D01*
X101443852Y-40000734D01*
X101429454Y-39971212D01*
X101399090Y-39928168D01*
X101376167Y-39860975D01*
X101393211Y-39792055D01*
X101444811Y-39743290D01*
X101513031Y-39730017D01*
X101623324Y-39739666D01*
X101623325Y-39739666D01*
X101628800Y-39740145D01*
X101849914Y-39720800D01*
X101855227Y-39719376D01*
X101855229Y-39719376D01*
X102059000Y-39664776D01*
X102059002Y-39664775D01*
X102064310Y-39663353D01*
X102079830Y-39656116D01*
X102260486Y-39571875D01*
X102260491Y-39571872D01*
X102265473Y-39569549D01*
X102404052Y-39472515D01*
X102442779Y-39445398D01*
X102442782Y-39445396D01*
X102447290Y-39442239D01*
X102604239Y-39285290D01*
X102613079Y-39272666D01*
X102728392Y-39107981D01*
X102728393Y-39107979D01*
X102731549Y-39103472D01*
X102733872Y-39098490D01*
X102733875Y-39098485D01*
X102784605Y-38989694D01*
X102831523Y-38936409D01*
X102899800Y-38916948D01*
X102967760Y-38937490D01*
X103012995Y-38989694D01*
X103063725Y-39098485D01*
X103063728Y-39098490D01*
X103066051Y-39103472D01*
X103069207Y-39107979D01*
X103069208Y-39107981D01*
X103184522Y-39272666D01*
X103193361Y-39285290D01*
X103350310Y-39442239D01*
X103354818Y-39445396D01*
X103354821Y-39445398D01*
X103393548Y-39472515D01*
X103532127Y-39569549D01*
X103537109Y-39571872D01*
X103537114Y-39571875D01*
X103717770Y-39656116D01*
X103733290Y-39663353D01*
X103738598Y-39664775D01*
X103738600Y-39664776D01*
X103942371Y-39719376D01*
X103942373Y-39719376D01*
X103947686Y-39720800D01*
X104168800Y-39740145D01*
X104389914Y-39720800D01*
X104395227Y-39719376D01*
X104395229Y-39719376D01*
X104599000Y-39664776D01*
X104599002Y-39664775D01*
X104604310Y-39663353D01*
X104619830Y-39656116D01*
X104800486Y-39571875D01*
X104800491Y-39571872D01*
X104805473Y-39569549D01*
X104944052Y-39472515D01*
X104982779Y-39445398D01*
X104982782Y-39445396D01*
X104987290Y-39442239D01*
X105144239Y-39285290D01*
X105153079Y-39272666D01*
X105268392Y-39107981D01*
X105268393Y-39107979D01*
X105271549Y-39103472D01*
X105273872Y-39098490D01*
X105273875Y-39098485D01*
X105324605Y-38989694D01*
X105371523Y-38936409D01*
X105439800Y-38916948D01*
X105507760Y-38937490D01*
X105552995Y-38989694D01*
X105603725Y-39098485D01*
X105603728Y-39098490D01*
X105606051Y-39103472D01*
X105609207Y-39107979D01*
X105609208Y-39107981D01*
X105724522Y-39272666D01*
X105733361Y-39285290D01*
X105890310Y-39442239D01*
X105894818Y-39445396D01*
X105894821Y-39445398D01*
X105933548Y-39472515D01*
X106072127Y-39569549D01*
X106077109Y-39571872D01*
X106077114Y-39571875D01*
X106257770Y-39656116D01*
X106273290Y-39663353D01*
X106278598Y-39664775D01*
X106278600Y-39664776D01*
X106482371Y-39719376D01*
X106482373Y-39719376D01*
X106487686Y-39720800D01*
X106708800Y-39740145D01*
X106929914Y-39720800D01*
X106935227Y-39719376D01*
X106935229Y-39719376D01*
X107139000Y-39664776D01*
X107139002Y-39664775D01*
X107144310Y-39663353D01*
X107159830Y-39656116D01*
X107340486Y-39571875D01*
X107340491Y-39571872D01*
X107345473Y-39569549D01*
X107484052Y-39472515D01*
X107522779Y-39445398D01*
X107522782Y-39445396D01*
X107527290Y-39442239D01*
X107684239Y-39285290D01*
X107693079Y-39272666D01*
X107808392Y-39107981D01*
X107808393Y-39107979D01*
X107811549Y-39103472D01*
X107813872Y-39098490D01*
X107813875Y-39098485D01*
X107864605Y-38989694D01*
X107911523Y-38936409D01*
X107979800Y-38916948D01*
X108047760Y-38937490D01*
X108092995Y-38989694D01*
X108143725Y-39098485D01*
X108143728Y-39098490D01*
X108146051Y-39103472D01*
X108149207Y-39107979D01*
X108149208Y-39107981D01*
X108264522Y-39272666D01*
X108273361Y-39285290D01*
X108430310Y-39442239D01*
X108434818Y-39445396D01*
X108434821Y-39445398D01*
X108473548Y-39472515D01*
X108612127Y-39569549D01*
X108617109Y-39571872D01*
X108617114Y-39571875D01*
X108797770Y-39656116D01*
X108813290Y-39663353D01*
X108818598Y-39664775D01*
X108818600Y-39664776D01*
X109022371Y-39719376D01*
X109022373Y-39719376D01*
X109027686Y-39720800D01*
X109248800Y-39740145D01*
X109469914Y-39720800D01*
X109475227Y-39719376D01*
X109475229Y-39719376D01*
X109679000Y-39664776D01*
X109679002Y-39664775D01*
X109684310Y-39663353D01*
X109699830Y-39656116D01*
X109880486Y-39571875D01*
X109880491Y-39571872D01*
X109885473Y-39569549D01*
X110024052Y-39472515D01*
X110062779Y-39445398D01*
X110062782Y-39445396D01*
X110067290Y-39442239D01*
X110224239Y-39285290D01*
X110233079Y-39272666D01*
X110348392Y-39107981D01*
X110348393Y-39107979D01*
X110351549Y-39103472D01*
X110353872Y-39098490D01*
X110353875Y-39098485D01*
X110404605Y-38989694D01*
X110451523Y-38936409D01*
X110519800Y-38916948D01*
X110587760Y-38937490D01*
G37*
%TD.AperFunction*%
%TA.AperFunction,Conductor*%
G36*
X140201697Y-26131702D02*
G01*
X140248190Y-26185358D01*
X140258294Y-26255632D01*
X140235425Y-26308030D01*
X140237219Y-26309254D01*
X140114298Y-26489449D01*
X140109200Y-26498423D01*
X140019538Y-26691583D01*
X140015975Y-26701270D01*
X139959064Y-26906481D01*
X139957133Y-26916600D01*
X139934502Y-27128374D01*
X139934250Y-27138663D01*
X139946509Y-27351277D01*
X139947945Y-27361496D01*
X139978483Y-27496999D01*
X139973947Y-27567850D01*
X139931826Y-27625002D01*
X139865492Y-27650308D01*
X139855566Y-27650700D01*
X139292216Y-27650700D01*
X139288698Y-27650651D01*
X139194050Y-27648007D01*
X139194047Y-27648007D01*
X139188995Y-27647866D01*
X139111102Y-27658259D01*
X139104561Y-27658958D01*
X139075868Y-27661267D01*
X139031277Y-27664854D01*
X139031273Y-27664855D01*
X139026235Y-27665260D01*
X138994322Y-27673099D01*
X138980942Y-27675626D01*
X138948380Y-27679971D01*
X138943539Y-27681432D01*
X138943537Y-27681433D01*
X138873171Y-27702678D01*
X138866810Y-27704419D01*
X138790494Y-27723163D01*
X138785834Y-27725141D01*
X138760249Y-27736001D01*
X138747439Y-27740638D01*
X138715992Y-27750133D01*
X138711444Y-27752351D01*
X138711437Y-27752354D01*
X138645382Y-27784571D01*
X138639380Y-27787307D01*
X138594696Y-27806275D01*
X138567044Y-27818012D01*
X138542732Y-27833323D01*
X138539244Y-27835519D01*
X138527340Y-27842145D01*
X138497812Y-27856546D01*
X138493675Y-27859465D01*
X138493674Y-27859465D01*
X138433603Y-27901841D01*
X138428114Y-27905501D01*
X138365914Y-27944671D01*
X138361633Y-27947367D01*
X138357844Y-27950708D01*
X138357838Y-27950712D01*
X138336983Y-27969098D01*
X138326288Y-27977544D01*
X138299453Y-27996474D01*
X138296529Y-27999144D01*
X138284152Y-28010446D01*
X138277950Y-28016109D01*
X138238234Y-28055825D01*
X138232464Y-28061244D01*
X138183342Y-28104550D01*
X138183339Y-28104553D01*
X138179545Y-28107898D01*
X138176335Y-28111806D01*
X138176334Y-28111807D01*
X138153021Y-28140189D01*
X138144751Y-28149308D01*
X136597464Y-29696595D01*
X136535152Y-29730621D01*
X136508369Y-29733500D01*
X136152913Y-29733500D01*
X136084792Y-29713498D01*
X136038299Y-29659842D01*
X136028195Y-29589568D01*
X136057689Y-29524988D01*
X136088396Y-29499271D01*
X136177829Y-29445958D01*
X136177832Y-29445956D01*
X136183879Y-29442351D01*
X136303049Y-29328868D01*
X136331284Y-29286371D01*
X136390214Y-29197675D01*
X136390215Y-29197673D01*
X136394115Y-29191803D01*
X136452551Y-29037968D01*
X136475453Y-28875010D01*
X136475741Y-28854400D01*
X136457398Y-28690866D01*
X136403280Y-28535460D01*
X136316076Y-28395905D01*
X136258099Y-28337522D01*
X136205086Y-28284137D01*
X136205082Y-28284134D01*
X136200122Y-28279139D01*
X136061180Y-28190963D01*
X135995651Y-28167629D01*
X135912789Y-28138123D01*
X135912787Y-28138122D01*
X135906155Y-28135761D01*
X135899169Y-28134928D01*
X135899165Y-28134927D01*
X135764784Y-28118904D01*
X135742753Y-28116277D01*
X135735750Y-28117013D01*
X135735749Y-28117013D01*
X135692535Y-28121555D01*
X135579095Y-28133478D01*
X135572427Y-28135748D01*
X135429982Y-28184240D01*
X135429979Y-28184241D01*
X135423315Y-28186510D01*
X135283155Y-28272737D01*
X135165582Y-28387873D01*
X135076438Y-28526197D01*
X135074027Y-28532820D01*
X135074026Y-28532823D01*
X135036304Y-28636466D01*
X134994210Y-28693638D01*
X134927889Y-28718976D01*
X134858397Y-28704435D01*
X134828808Y-28682467D01*
X134318954Y-28172613D01*
X134316500Y-28170090D01*
X134280650Y-28132179D01*
X134248378Y-28068941D01*
X134255419Y-27998294D01*
X134269876Y-27972081D01*
X134341209Y-27872811D01*
X134346513Y-27863983D01*
X134440870Y-27673067D01*
X134444669Y-27663472D01*
X134506576Y-27459715D01*
X134508755Y-27449634D01*
X134536790Y-27236687D01*
X134537309Y-27230012D01*
X134538772Y-27170164D01*
X134538578Y-27163446D01*
X134520981Y-26949404D01*
X134519296Y-26939224D01*
X134467414Y-26732675D01*
X134464094Y-26722924D01*
X134379172Y-26527614D01*
X134374305Y-26518539D01*
X134258626Y-26339726D01*
X134252336Y-26331557D01*
X134244095Y-26322501D01*
X134213042Y-26258656D01*
X134221436Y-26188157D01*
X134266612Y-26133388D01*
X134337287Y-26111700D01*
X140133576Y-26111700D01*
X140201697Y-26131702D01*
G37*
%TD.AperFunction*%
%TD*%
M02*
