%TF.GenerationSoftware,KiCad,Pcbnew,6.0.4-6f826c9f35~116~ubuntu20.04.1*%
%TF.CreationDate,2022-04-28T13:18:50+07:00*%
%TF.ProjectId,Colorlight2QMTech,436f6c6f-726c-4696-9768-7432514d5465,rev?*%
%TF.SameCoordinates,Original*%
%TF.FileFunction,Soldermask,Top*%
%TF.FilePolarity,Negative*%
%FSLAX46Y46*%
G04 Gerber Fmt 4.6, Leading zero omitted, Abs format (unit mm)*
G04 Created by KiCad (PCBNEW 6.0.4-6f826c9f35~116~ubuntu20.04.1) date 2022-04-28 13:18:50*
%MOMM*%
%LPD*%
G01*
G04 APERTURE LIST*
G04 Aperture macros list*
%AMRoundRect*
0 Rectangle with rounded corners*
0 $1 Rounding radius*
0 $2 $3 $4 $5 $6 $7 $8 $9 X,Y pos of 4 corners*
0 Add a 4 corners polygon primitive as box body*
4,1,4,$2,$3,$4,$5,$6,$7,$8,$9,$2,$3,0*
0 Add four circle primitives for the rounded corners*
1,1,$1+$1,$2,$3*
1,1,$1+$1,$4,$5*
1,1,$1+$1,$6,$7*
1,1,$1+$1,$8,$9*
0 Add four rect primitives between the rounded corners*
20,1,$1+$1,$2,$3,$4,$5,0*
20,1,$1+$1,$4,$5,$6,$7,0*
20,1,$1+$1,$6,$7,$8,$9,0*
20,1,$1+$1,$8,$9,$2,$3,0*%
G04 Aperture macros list end*
%ADD10RoundRect,0.200000X-0.850000X-0.850000X0.850000X-0.850000X0.850000X0.850000X-0.850000X0.850000X0*%
%ADD11O,2.100000X2.100000*%
%ADD12RoundRect,0.425000X-0.225000X-0.250000X0.225000X-0.250000X0.225000X0.250000X-0.225000X0.250000X0*%
%ADD13RoundRect,0.425000X0.225000X0.250000X-0.225000X0.250000X-0.225000X-0.250000X0.225000X-0.250000X0*%
%ADD14RoundRect,0.450000X-0.475000X0.250000X-0.475000X-0.250000X0.475000X-0.250000X0.475000X0.250000X0*%
%ADD15RoundRect,0.200000X0.425000X-0.425000X0.425000X0.425000X-0.425000X0.425000X-0.425000X-0.425000X0*%
%ADD16O,1.250000X1.250000*%
%ADD17C,2.400000*%
%ADD18RoundRect,0.200000X-1.000000X-0.175000X1.000000X-0.175000X1.000000X0.175000X-1.000000X0.175000X0*%
%ADD19RoundRect,0.200000X-2.250000X-2.300000X2.250000X-2.300000X2.250000X2.300000X-2.250000X2.300000X0*%
%ADD20RoundRect,0.450000X0.250000X0.475000X-0.250000X0.475000X-0.250000X-0.475000X0.250000X-0.475000X0*%
%ADD21RoundRect,0.200000X-0.550000X1.250000X-0.550000X-1.250000X0.550000X-1.250000X0.550000X1.250000X0*%
%ADD22RoundRect,0.200000X-1.800000X1.170000X-1.800000X-1.170000X1.800000X-1.170000X1.800000X1.170000X0*%
%ADD23C,1.150000*%
%ADD24RoundRect,0.200000X-0.150000X-0.650000X0.150000X-0.650000X0.150000X0.650000X-0.150000X0.650000X0*%
%ADD25O,1.600000X2.400000*%
%ADD26O,1.600000X2.200000*%
%ADD27RoundRect,0.400000X0.200000X0.275000X-0.200000X0.275000X-0.200000X-0.275000X0.200000X-0.275000X0*%
%ADD28RoundRect,0.450000X-0.275000X-0.700000X0.275000X-0.700000X0.275000X0.700000X-0.275000X0.700000X0*%
%ADD29RoundRect,0.200000X-0.595000X-0.865000X0.595000X-0.865000X0.595000X0.865000X-0.595000X0.865000X0*%
G04 APERTURE END LIST*
D10*
%TO.C,J1*%
X95250000Y-42164000D03*
D11*
X97790000Y-42164000D03*
X95250000Y-44704000D03*
X97790000Y-44704000D03*
X95250000Y-47244000D03*
X97790000Y-47244000D03*
X95250000Y-49784000D03*
X97790000Y-49784000D03*
X95250000Y-52324000D03*
X97790000Y-52324000D03*
X95250000Y-54864000D03*
X97790000Y-54864000D03*
X95250000Y-57404000D03*
X97790000Y-57404000D03*
X95250000Y-59944000D03*
X97790000Y-59944000D03*
X95250000Y-62484000D03*
X97790000Y-62484000D03*
X95250000Y-65024000D03*
X97790000Y-65024000D03*
X95250000Y-67564000D03*
X97790000Y-67564000D03*
X95250000Y-70104000D03*
X97790000Y-70104000D03*
X95250000Y-72644000D03*
X97790000Y-72644000D03*
X95250000Y-75184000D03*
X97790000Y-75184000D03*
X95250000Y-77724000D03*
X97790000Y-77724000D03*
X95250000Y-80264000D03*
X97790000Y-80264000D03*
X95250000Y-82804000D03*
X97790000Y-82804000D03*
X95250000Y-85344000D03*
X97790000Y-85344000D03*
X95250000Y-87884000D03*
X97790000Y-87884000D03*
X95250000Y-90424000D03*
X97790000Y-90424000D03*
X95250000Y-92964000D03*
X97790000Y-92964000D03*
X95250000Y-95504000D03*
X97790000Y-95504000D03*
X95250000Y-98044000D03*
X97790000Y-98044000D03*
X95250000Y-100584000D03*
X97790000Y-100584000D03*
X95250000Y-103124000D03*
X97790000Y-103124000D03*
X95250000Y-105664000D03*
X97790000Y-105664000D03*
X95250000Y-108204000D03*
X97790000Y-108204000D03*
X95250000Y-110744000D03*
X97790000Y-110744000D03*
X95250000Y-113284000D03*
X97790000Y-113284000D03*
X95250000Y-115824000D03*
X97790000Y-115824000D03*
X95250000Y-118364000D03*
X97790000Y-118364000D03*
X95250000Y-120904000D03*
X97790000Y-120904000D03*
%TD*%
D12*
%TO.C,C1*%
X148367000Y-124907000D03*
X149917000Y-124907000D03*
%TD*%
D13*
%TO.C,C4*%
X111943400Y-114376400D03*
X110393400Y-114376400D03*
%TD*%
D14*
%TO.C,C3*%
X105308400Y-112486400D03*
X105308400Y-114386400D03*
%TD*%
D15*
%TO.C,J5*%
X133809600Y-42189400D03*
D16*
X134809600Y-42189400D03*
X135809600Y-42189400D03*
X136809600Y-42189400D03*
X137809600Y-42189400D03*
X138809600Y-42189400D03*
X139809600Y-42189400D03*
X140809600Y-42189400D03*
X141809600Y-42189400D03*
X142809600Y-42189400D03*
X143809600Y-42189400D03*
X144809600Y-42189400D03*
X145809600Y-42189400D03*
X146809600Y-42189400D03*
%TD*%
D17*
%TO.C,CN1*%
X118422500Y-115128000D03*
X118422500Y-48328000D03*
D18*
X114222500Y-50078000D03*
X122822500Y-50378000D03*
X114222500Y-50678000D03*
X122822500Y-50978000D03*
X114222500Y-51278000D03*
X122822500Y-51578000D03*
X114222500Y-51878000D03*
X122822500Y-52178000D03*
X114222500Y-52478000D03*
X122822500Y-52778000D03*
X114222500Y-53078000D03*
X122822500Y-53378000D03*
X114222500Y-53678000D03*
X122822500Y-53978000D03*
X114222500Y-54278000D03*
X122822500Y-54578000D03*
X114222500Y-54878000D03*
X122822500Y-55178000D03*
X114222500Y-55478000D03*
X122822500Y-55778000D03*
X114222500Y-56078000D03*
X122822500Y-56378000D03*
X114222500Y-56678000D03*
X122822500Y-56978000D03*
X114222500Y-57278000D03*
X122822500Y-57578000D03*
X114222500Y-57878000D03*
X122822500Y-58178000D03*
X114222500Y-58478000D03*
X122822500Y-58778000D03*
X114222500Y-59078000D03*
X122822500Y-59378000D03*
X114222500Y-59678000D03*
X122822500Y-59978000D03*
X114222500Y-60278000D03*
X122822500Y-60578000D03*
X114222500Y-60878000D03*
X122822500Y-61178000D03*
X114222500Y-61478000D03*
X122822500Y-61778000D03*
X114222500Y-65678000D03*
X122822500Y-65978000D03*
X114222500Y-66278000D03*
X122822500Y-66578000D03*
X114222500Y-66878000D03*
X122822500Y-67178000D03*
X114222500Y-67478000D03*
X122822500Y-67778000D03*
X114222500Y-68078000D03*
X122822500Y-68378000D03*
X114222500Y-68678000D03*
X122822500Y-68978000D03*
X114222500Y-69278000D03*
X122822500Y-69578000D03*
X114222500Y-69878000D03*
X122822500Y-70178000D03*
X114222500Y-70478000D03*
X122822500Y-70778000D03*
X114222500Y-71078000D03*
X122822500Y-71378000D03*
X114222500Y-71678000D03*
X122822500Y-71978000D03*
X114222500Y-72278000D03*
X122822500Y-72578000D03*
X114222500Y-72878000D03*
X122822500Y-73178000D03*
X114222500Y-73478000D03*
X122822500Y-73778000D03*
X114222500Y-74078000D03*
X122822500Y-74378000D03*
X114222500Y-74678000D03*
X122822500Y-74978000D03*
X114222500Y-75278000D03*
X122822500Y-75578000D03*
X114222500Y-75878000D03*
X122822500Y-76178000D03*
X114222500Y-76478000D03*
X122822500Y-76778000D03*
X114222500Y-77078000D03*
X122822500Y-77378000D03*
X114222500Y-77678000D03*
X122822500Y-77978000D03*
X114222500Y-78278000D03*
X122822500Y-78578000D03*
X114222500Y-78878000D03*
X122822500Y-79178000D03*
X114222500Y-79478000D03*
X122822500Y-79778000D03*
X114222500Y-80078000D03*
X122822500Y-80378000D03*
X114222500Y-80678000D03*
X122822500Y-80978000D03*
X114222500Y-81278000D03*
X122822500Y-81578000D03*
X114222500Y-81878000D03*
X122822500Y-82178000D03*
X114222500Y-82478000D03*
X122822500Y-82778000D03*
X114222500Y-83078000D03*
X122822500Y-83378000D03*
X114222500Y-83678000D03*
X122822500Y-83978000D03*
X114222500Y-84278000D03*
X122822500Y-84578000D03*
X114222500Y-84878000D03*
X122822500Y-85178000D03*
X114222500Y-85478000D03*
X122822500Y-85778000D03*
X114222500Y-86078000D03*
X122822500Y-86378000D03*
X114222500Y-86678000D03*
X122822500Y-86978000D03*
X114222500Y-87278000D03*
X122822500Y-87578000D03*
X114222500Y-87878000D03*
X122822500Y-88178000D03*
X114222500Y-88478000D03*
X122822500Y-88778000D03*
X114222500Y-89078000D03*
X122822500Y-89378000D03*
X114222500Y-89678000D03*
X122822500Y-89978000D03*
X114222500Y-90278000D03*
X122822500Y-90578000D03*
X114222500Y-90878000D03*
X122822500Y-91178000D03*
X114222500Y-91478000D03*
X122822500Y-91778000D03*
X114222500Y-92078000D03*
X122822500Y-92378000D03*
X114222500Y-92678000D03*
X122822500Y-92978000D03*
X114222500Y-93278000D03*
X122822500Y-93578000D03*
X114222500Y-93878000D03*
X122822500Y-94178000D03*
X114222500Y-94478000D03*
X122822500Y-94778000D03*
X114222500Y-95078000D03*
X122822500Y-95378000D03*
X114222500Y-95678000D03*
X122822500Y-95978000D03*
X114222500Y-96278000D03*
X122822500Y-96578000D03*
X114222500Y-96878000D03*
X122822500Y-97178000D03*
X114222500Y-97478000D03*
X122822500Y-97778000D03*
X114222500Y-98078000D03*
X122822500Y-98378000D03*
X114222500Y-98678000D03*
X122822500Y-98978000D03*
X114222500Y-99278000D03*
X122822500Y-99578000D03*
X114222500Y-99878000D03*
X122822500Y-100178000D03*
X114222500Y-100478000D03*
X122822500Y-100778000D03*
X114222500Y-101078000D03*
X122822500Y-101378000D03*
X114222500Y-101678000D03*
X122822500Y-101978000D03*
X114222500Y-102278000D03*
X122822500Y-102578000D03*
X114222500Y-102878000D03*
X122822500Y-103178000D03*
X114222500Y-103478000D03*
X122822500Y-103778000D03*
X114222500Y-104078000D03*
X122822500Y-104378000D03*
X114222500Y-104678000D03*
X122822500Y-104978000D03*
X114222500Y-105278000D03*
X122822500Y-105578000D03*
X114222500Y-105878000D03*
X122822500Y-106178000D03*
X114222500Y-106478000D03*
X122822500Y-106778000D03*
X114222500Y-107078000D03*
X122822500Y-107378000D03*
X114222500Y-107678000D03*
X122822500Y-107978000D03*
X114222500Y-108278000D03*
X122822500Y-108578000D03*
X114222500Y-108878000D03*
X122822500Y-109178000D03*
X114222500Y-109478000D03*
X122822500Y-109778000D03*
X114222500Y-110078000D03*
X122822500Y-110378000D03*
X114222500Y-110678000D03*
X122822500Y-110978000D03*
X114222500Y-111278000D03*
X122822500Y-111578000D03*
X114222500Y-111878000D03*
X122822500Y-112178000D03*
X114222500Y-112478000D03*
X122822500Y-112778000D03*
X114222500Y-113078000D03*
X122822500Y-113378000D03*
D19*
X130422500Y-49128000D03*
X130422500Y-114328000D03*
%TD*%
D20*
%TO.C,C2*%
X156442000Y-124877000D03*
X154542000Y-124877000D03*
%TD*%
D21*
%TO.C,U1*%
X148322000Y-122657000D03*
X150622000Y-122657000D03*
X152922000Y-122657000D03*
D22*
X150622000Y-116717000D03*
%TD*%
D10*
%TO.C,J2*%
X156210000Y-42164000D03*
D11*
X158750000Y-42164000D03*
X156210000Y-44704000D03*
X158750000Y-44704000D03*
X156210000Y-47244000D03*
X158750000Y-47244000D03*
X156210000Y-49784000D03*
X158750000Y-49784000D03*
X156210000Y-52324000D03*
X158750000Y-52324000D03*
X156210000Y-54864000D03*
X158750000Y-54864000D03*
X156210000Y-57404000D03*
X158750000Y-57404000D03*
X156210000Y-59944000D03*
X158750000Y-59944000D03*
X156210000Y-62484000D03*
X158750000Y-62484000D03*
X156210000Y-65024000D03*
X158750000Y-65024000D03*
X156210000Y-67564000D03*
X158750000Y-67564000D03*
X156210000Y-70104000D03*
X158750000Y-70104000D03*
X156210000Y-72644000D03*
X158750000Y-72644000D03*
X156210000Y-75184000D03*
X158750000Y-75184000D03*
X156210000Y-77724000D03*
X158750000Y-77724000D03*
X156210000Y-80264000D03*
X158750000Y-80264000D03*
X156210000Y-82804000D03*
X158750000Y-82804000D03*
X156210000Y-85344000D03*
X158750000Y-85344000D03*
X156210000Y-87884000D03*
X158750000Y-87884000D03*
X156210000Y-90424000D03*
X158750000Y-90424000D03*
X156210000Y-92964000D03*
X158750000Y-92964000D03*
X156210000Y-95504000D03*
X158750000Y-95504000D03*
X156210000Y-98044000D03*
X158750000Y-98044000D03*
X156210000Y-100584000D03*
X158750000Y-100584000D03*
X156210000Y-103124000D03*
X158750000Y-103124000D03*
X156210000Y-105664000D03*
X158750000Y-105664000D03*
X156210000Y-108204000D03*
X158750000Y-108204000D03*
X156210000Y-110744000D03*
X158750000Y-110744000D03*
X156210000Y-113284000D03*
X158750000Y-113284000D03*
X156210000Y-115824000D03*
X158750000Y-115824000D03*
X156210000Y-118364000D03*
X158750000Y-118364000D03*
X156210000Y-120904000D03*
X158750000Y-120904000D03*
%TD*%
D14*
%TO.C,C5*%
X108568400Y-112506400D03*
X108568400Y-114406400D03*
%TD*%
D15*
%TO.C,J4*%
X101523800Y-42138600D03*
D16*
X102523800Y-42138600D03*
X103523800Y-42138600D03*
X104523800Y-42138600D03*
X105523800Y-42138600D03*
X106523800Y-42138600D03*
X107523800Y-42138600D03*
X108523800Y-42138600D03*
X109523800Y-42138600D03*
X110523800Y-42138600D03*
X111523800Y-42138600D03*
X112523800Y-42138600D03*
X113523800Y-42138600D03*
X114523800Y-42138600D03*
%TD*%
D10*
%TO.C,J4-GND1*%
X152349200Y-46532800D03*
%TD*%
D23*
%TO.C,J3*%
X110819000Y-121200000D03*
X105019000Y-121200000D03*
D24*
X104569000Y-119940000D03*
X105369000Y-119940000D03*
X106669000Y-119940000D03*
X107669000Y-119940000D03*
X108169000Y-119940000D03*
X109169000Y-119940000D03*
X110469000Y-119940000D03*
X111269000Y-119940000D03*
X110969000Y-119940000D03*
X110169000Y-119940000D03*
X109669000Y-119940000D03*
X108669000Y-119940000D03*
X107169000Y-119940000D03*
X106169000Y-119940000D03*
X105669000Y-119940000D03*
X104869000Y-119940000D03*
D25*
X112249000Y-120700000D03*
D26*
X112249000Y-124900000D03*
X103589000Y-124900000D03*
D25*
X103589000Y-120700000D03*
%TD*%
D27*
%TO.C,R1*%
X102904000Y-118610000D03*
X101254000Y-118610000D03*
%TD*%
D28*
%TO.C,FB1*%
X102124000Y-116514000D03*
X105274000Y-116514000D03*
%TD*%
D29*
%TO.C,F1*%
X107399000Y-116374000D03*
X110299000Y-116374000D03*
%TD*%
M02*
