M48
; DRILL file {KiCad 6.0.4-6f826c9f35~116~ubuntu20.04.1} date Kam 07 Apr 2022 06:29:18 
; FORMAT={-:-/ absolute / inch / decimal}
; #@! TF.CreationDate,2022-04-07T06:29:18+07:00
; #@! TF.GenerationSoftware,Kicad,Pcbnew,6.0.4-6f826c9f35~116~ubuntu20.04.1
; #@! TF.FileFunction,Plated,1,4,PTH
FMAT,2
INCH
; #@! TA.AperFunction,Plated,PTH,ViaDrill
T1C0.0079
; #@! TA.AperFunction,Plated,PTH,ComponentDrill
T2C0.0295
; #@! TA.AperFunction,Plated,PTH,ComponentDrill
T3C0.0315
; #@! TA.AperFunction,Plated,PTH,ViaDrill
T4C0.0315
; #@! TA.AperFunction,Plated,PTH,ComponentDrill
T5C0.0394
; #@! TA.AperFunction,Plated,PTH,ViaDrill
T6C0.0630
; #@! TA.AperFunction,Plated,PTH,ComponentDrill
T7C0.0787
%
G90
G05
T1
X4.9017Y-2.0306
X4.902Y-1.9835
X4.902Y-2.0069
X4.9026Y-2.0542
X4.9026Y-2.0778
X4.9026Y-2.1015
T2
X4.1346Y-4.7717
X4.363Y-4.7717
T4
X3.9628Y-4.5872
X4.108Y-4.661
X4.108Y-4.661
X4.108Y-4.661
X4.4079Y-4.445
X4.6642Y-3.9558
X4.672Y-3.362
X4.674Y-2.758
X6.2308Y-4.9192
T5
X3.75Y-1.66
X3.75Y-1.76
X3.75Y-1.86
X3.75Y-1.96
X3.75Y-2.06
X3.75Y-2.16
X3.75Y-2.26
X3.75Y-2.36
X3.75Y-2.46
X3.75Y-2.56
X3.75Y-2.66
X3.75Y-2.76
X3.75Y-2.86
X3.75Y-2.96
X3.75Y-3.06
X3.75Y-3.16
X3.75Y-3.26
X3.75Y-3.36
X3.75Y-3.46
X3.75Y-3.56
X3.75Y-3.66
X3.75Y-3.76
X3.75Y-3.86
X3.75Y-3.96
X3.75Y-4.06
X3.75Y-4.16
X3.75Y-4.26
X3.75Y-4.36
X3.75Y-4.46
X3.75Y-4.56
X3.75Y-4.66
X3.75Y-4.76
X3.85Y-1.66
X3.85Y-1.76
X3.85Y-1.86
X3.85Y-1.96
X3.85Y-2.06
X3.85Y-2.16
X3.85Y-2.26
X3.85Y-2.36
X3.85Y-2.46
X3.85Y-2.56
X3.85Y-2.66
X3.85Y-2.76
X3.85Y-2.86
X3.85Y-2.96
X3.85Y-3.06
X3.85Y-3.16
X3.85Y-3.26
X3.85Y-3.36
X3.85Y-3.46
X3.85Y-3.56
X3.85Y-3.66
X3.85Y-3.76
X3.85Y-3.86
X3.85Y-3.96
X3.85Y-4.06
X3.85Y-4.16
X3.85Y-4.26
X3.85Y-4.36
X3.85Y-4.46
X3.85Y-4.56
X3.85Y-4.66
X3.85Y-4.76
X5.91Y-1.87
X6.15Y-1.66
X6.15Y-1.76
X6.15Y-1.86
X6.15Y-1.96
X6.15Y-2.06
X6.15Y-2.16
X6.15Y-2.26
X6.15Y-2.36
X6.15Y-2.46
X6.15Y-2.56
X6.15Y-2.66
X6.15Y-2.76
X6.15Y-2.86
X6.15Y-2.96
X6.15Y-3.06
X6.15Y-3.16
X6.15Y-3.26
X6.15Y-3.36
X6.15Y-3.46
X6.15Y-3.56
X6.15Y-3.66
X6.15Y-3.76
X6.15Y-3.86
X6.15Y-3.96
X6.15Y-4.06
X6.15Y-4.16
X6.15Y-4.26
X6.15Y-4.36
X6.15Y-4.46
X6.15Y-4.56
X6.15Y-4.66
X6.15Y-4.76
X6.25Y-1.66
X6.25Y-1.76
X6.25Y-1.86
X6.25Y-1.96
X6.25Y-2.06
X6.25Y-2.16
X6.25Y-2.26
X6.25Y-2.36
X6.25Y-2.46
X6.25Y-2.56
X6.25Y-2.66
X6.25Y-2.76
X6.25Y-2.86
X6.25Y-2.96
X6.25Y-3.06
X6.25Y-3.16
X6.25Y-3.26
X6.25Y-3.36
X6.25Y-3.46
X6.25Y-3.56
X6.25Y-3.66
X6.25Y-3.76
X6.25Y-3.86
X6.25Y-3.96
X6.25Y-4.06
X6.25Y-4.16
X6.25Y-4.26
X6.25Y-4.36
X6.25Y-4.46
X6.25Y-4.56
X6.25Y-4.66
X6.25Y-4.76
T6
X5.7918Y-4.5806
T7
X4.6623Y-1.9027
X4.6623Y-4.5326
T3
G00X4.0783Y-4.7362
M15
G01X4.0783Y-4.7677
M16
G05
G00X4.0783Y-4.9055
M15
G01X4.0783Y-4.9291
M16
G05
G00X4.4193Y-4.7362
M15
G01X4.4193Y-4.7677
M16
G05
G00X4.4193Y-4.9055
M15
G01X4.4193Y-4.9291
M16
G05
T0
M30
